<?xml version="1.0" encoding="utf-8"?>
<!-- Generator: Adobe Illustrator 23.0.4, SVG Export Plug-In . SVG Version: 6.00 Build 0)  -->
<svg version="1.1" id="Layer_1" xmlns="http://www.w3.org/2000/svg" xmlns:xlink="http://www.w3.org/1999/xlink" x="0px" y="0px"
	 viewBox="0 0 595.3 841.9" style="enable-background:new 0 0 595.3 841.9;" xml:space="preserve">
<style type="text/css">
	.st0{fill:#FFFFFF;}
</style>
<g id="PehpBg_1_">
	<g>
		<path d="M383.4,420.6c-0.3,2.1-0.6,3.8-0.7,5.6c-0.1,1.9-0.2,3.8-1.9,5.1c-0.2,0.1-0.2,0.6-0.3,1c0.3-1.7-1-1.4-1.9-1.6
			c-1,1.3-2.3,2.2-4,2.6c-2.1,0.5-3.3,3.4-2.3,5.5c0.2,0.5,0.7,1.1,1.1,1.1c1.5,0.3,2.1,1.4,2.6,2.5c0.8,1.4,1.8,2.1,3.3,2.4
			c0.9,0.1,2,0.5,2.6,1.1c2,2,4.4,2,6.9,2.1c1.8,0.1,3.7-0.1,5.5,0.1c2,0.2,3.9,0.6,5.7,1.6c1.3,0.6,2.9,1,4.4,0.9
			c9.5-0.6,19,0.5,28.5,1c2.3,0.1,4.1,0.9,5.3,3c0.9,1.5,2.3,2.9,3.6,4.1c2.8,2.5,4,5.4,2.9,9.2c-0.9,2.9-1.6,5.8-2.3,8.8
			c-0.3,1.3-0.5,2.7-0.4,4c0.3,3.8-0.7,7.4-2.6,10.5c-1.7,2.8-2.7,5.9-4,8.9c-0.2,0.6-0.5,1.2-0.8,1.7c-0.9,1.4-1.3,2.8-0.8,4.5
			c0.5,1.9-0.7,3.4-2,4.6c-1,1-1.9,1.8-1.8,3.4c0,0.8-0.8,1.8-1.4,2.3c-2.3,1.8-4.7,3.6-7.1,5.2c-1.3,0.8-2.9,1.4-4.4,1.7
			c-5,1-10.1,1.2-15.2,0.5c-0.8-0.1-1.5-0.1-2.7-0.2c0.6,0.6,1,0.9,1.6,1.5c-5.4,0.2-10.4,0.5-15.5,0.7c0-0.1-0.1-0.3-0.1-0.4
			c0.5-0.3,1-0.6,1.4-0.9c-0.1-0.3-0.1-0.5-0.2-0.6c-2.2-2.4-2.1-3.2,0.3-5.2c0.9-0.8,2-1.3,2.8-2.2c0.7-0.7,1.5-1.6,1.7-2.5
			c0.3-1.4,1-2.3,2-3.1c1-0.9,1.9-1.9,2.1-3.6c-0.8-0.2-1.5-0.6-2.2-0.7c-0.8-0.1-1.6-0.1-2.5-0.2c0-0.6-0.3-1.3,0-1.6
			c0.9-1.3,1-2.8,1.6-4.1c1.2-2.8,2.7-5.5,6.3-6.2c3.9-0.7,6.2-3.3,7.3-7.1c0.7-2.4,1-4.8,0.9-7.3c-0.1-1.3,0.1-2.6,0.1-3.8
			c0-1.6,0.1-3.2-0.1-4.8c-0.4-2.6,0.6-4.9,1.3-7.2c0.9-2.6,1.1-5.1-0.3-7.6c-0.5-0.8-0.6-1.8-0.9-2.7c-0.6-1.4-1.6-2.5-3.2-2.5
			c-2.4-0.1-4.8,0.1-7.2,0.1c-0.1,0-0.2,0-0.2,0.1c-5.2,1.7-6.1,3.8-3,8.1c1.3,1.8,0.9,3.5,0.5,5.2c-0.7,3.6-1.7,7.1-2.3,10.7
			c-0.3,1.8-0.1,3.6-0.2,5.5c-0.1,1.6-0.1,3.2-0.4,4.7c-0.4,2.4-1.4,4.8,0.5,7.1c0.3,0.4-0.1,1.5-0.5,2.1c-0.2,0.3-1.3,0.4-1.6,0.2
			c-3.6-2.4-7.7-3.4-11.7-4.9c-0.7-0.3-1.4-0.6-2-0.9c0-1.7,1-1.9,2-2.2c3.3-1.1,4.2-2.5,3.7-5.9c-0.4-2.4-0.9-4.7-0.3-7.1
			c0-0.1,0-0.2,0-0.2c-1.2-4,0.5-7.7,1.5-11.4c0.4-1.6,0.5-2.9-0.2-4.4c-0.1-0.2-0.1-0.5-0.2-0.7c-1.2-2.3-1.5-4.6,0.6-7
			c-1-0.2-1.6-0.4-2.2-0.5c-4.3-0.1-8.2,1-12,2.8c-2.3,1.1-2.7,2.2-1.9,4.7c0.2,0.6,0.4,1.3,0.8,1.7c1.5,1.5,1.5,3.5,0.9,5.2
			c-1.4,4-1.6,8.2-1.4,12.3c0.2,3.4,0.9,6.8,3.6,9.4c0.2,0.2,0.4,0.5,0.6,0.8c-0.7,1.4-1.8,1.1-2.9,0.8c-3.5-1-6.9-2-10.3-3.1
			c-1.2-0.4-2.4-0.8-3.6-1.2c-1.3-0.5-2.2-1.3-2.5-2.6c-0.4-1.4-1.7-2.6-0.9-4.3c4.5-0.7,5.3-2.4,2.8-5.6c2-4.5,4-9.1,3-14.2
			c-0.3-1.8,0.5-3.2,2.1-3.9c2.9-1.2,5.8-2.3,8.7-3.3c2.1-0.7,2.8-1,4.2-2.3c-0.6-1.2-1.8-1.1-2.7-1c-2.5,0.3-5.2,0.4-7.5,1.4
			c-4.3,1.8-8.9,2.6-13.4,3.7c-2.3,0.6-4.7,1.1-6.9,1.9c-2.6,0.9-3.1,1.8-2.6,4.5c0.3,1.6,0.6,3.1,1.2,4.6c0.9,2.1,2.6,3.4,4.9,3.8
			c1.2,0.2,2.5,0.4,3.7,0.6c0.4,2.4-1.4,3-3.2,3.8c0.8,0.6,1.4,0.9,1.8,1.4c0.5,0.5,0.8,1.1,1.2,1.6c-4.3,4.2-9.5,4.2-14.4,0
			c0.4-0.9,0.9-1.8,1.3-2.7c-1.6-1.2-3.5-2.3-5.1-3.8c-2.1-1.9-3-4.4-2.4-7.3c0.1-0.7,0.2-1.4,0.3-2.1c0.1-2,1.1-3.4,3-3.9
			c3.8-1,7.6-1.9,11.4-2.7c4.5-1,9.1-1.7,13.4-3.6c0.6-0.3,1.2-0.4,1.7-0.8c0.9-0.5,1.5-1.3,0.8-2.4c-0.6-1-0.3-1.9,0.4-2.6
			c0.7-0.9,1.5-1.8,2.3-2.7c2.4-2.6,2.4-3.8,0-6.3c-0.7-0.7-1.5-1.5-2.2-2.2c-0.7-0.6-1.3-1.2-1-2.2c0.1-0.3,0-0.7-0.1-0.9
			c-1.6-1.3-2.5-3.4-4.8-4.2c-5.9-2-11.7-4.3-17.6-6.3c-2.5-0.9-4.4-2.6-6.4-4.1c-1.3-1-2.7-2-4-2.9c-0.9-0.6-1.9-1.1-2.9-1.7
			c-2.9-1.7-4.9-4.1-5.8-7.4c-0.6-2.3-2.1-4.1-4.2-5.4c-3.4-2.2-6.8-4.5-10.1-6.9c-2.4-1.7-4.8-3.3-8-3.3c-1.2,0-2.5-0.3-2.8-1.9
			c1.9-0.5,3.7-0.9,5.6-1.5c3.4-1,5.8-3.2,7.7-6.1c1-1.5,1.1-1.6,2.9-1.2c1,0.2,2,0.5,3.3,0.9c-0.5,2.1-0.8,4.2-1.3,6.2
			c-0.5,2.1-0.2,2.8,1.9,3.2c3,0.5,6,1,9,1.3c2,0.2,3.4,1.1,4.7,3c-3.6,0.1-6.8-1.2-10.4-1.3c0.6,0.5,1,0.8,1.4,1.1
			c3.3,2.3,6.5,4.6,9.9,6.8c1.5,1,2.6,2.3,3.2,4c0.4,1.1,1,2.2,1.5,3.3c0.8,1.7,1.8,3.1,3.5,4.1c1.9,1.1,3.8,2.3,5.6,3.6
			c1,0.7,2.1,1.5,2.7,2.6c1,1.7,2.4,2.6,4.3,3.2c4.1,1.4,8.1,2.9,12.2,4.3c0.4,0.1,0.9,0.6,0.9,0.9c0.1,1.2,0.9,1.4,1.8,1.6
			c0.9,0.2,1.9,0.3,2.8,0.5c0.8,0.2,1.7,0.3,2.2,0.8c2.2,2.1,4.8,1.4,7.3,0.9c1-0.2,2.4-0.7,1.7-2.5c-0.2-0.4,0.4-1.1,0.7-1.8
			c-0.4-0.2-0.7-0.4-1-0.6c-3.1-1.1-6.1-2.3-9.2-3.4c-2.5-0.9-4.3-2.6-6.2-4.4c-0.9-0.8-1.8-1.5-2.8-2.2c-2-1.3-4.1-2.4-6-3.9
			c-1.7-1.2-2.9-3-3.5-5c-1.1-3.6-3.6-5.8-6.7-7.7c-4.3-2.7-8.5-5.7-12.6-8.8c-2.7-2-2.2-2.3-1.5-4.6c1.2-3.5,0.6-4.7-2.4-6.8
			c-0.5-0.4-0.9-1-1.4-1.5c-0.4-0.6-0.8-1.1-1.2-1.7c-0.3-0.4-0.8-0.9-0.9-1.4c-0.2-2.1-1.7-3-3.3-3.8c-1.9-1-3.9-1.7-5.9-2.7
			c-2.1-1-4-2.3-4.7-4.8c-0.1-0.5-0.5-1-0.9-1.4c-2.1-2.5-1.9-5.2-0.7-8.1c0.8-1.9,2.1-3.9,0.8-6.1c-0.6-1-1.4-1.9-2.4-2.5
			c-2.7-2-5.9-2.7-9.1-3.4c-6.6-1.3-13.2-2.3-19.7-3.8c-6.2-1.4-12.4-3.1-18.5-5c-6.7-2.1-12.1-6.3-16.2-12
			c-1.9-2.6-4.4-4.8-6.6-7.1c-0.9-0.9-1.3-1.9-1.2-3.2c0.1-2.2,0.9-4.3,0.4-6.6c-0.3-1.5,0.3-3.3,1-4.8c1.2-2.5,0.9-5,0.9-7.5
			c0-1.8-0.2-3.5-0.2-5.3c0-4.2-1.1-5.6-4.9-7.2c-5.8-2.5-11.9-4.2-18.1-5.4c-10.5-2-20.9-4.5-31.2-7.5c-3.1-0.9-6.4-1.2-9.6-1.8
			c-1-0.2-1.9-0.3-2.9-1c1.5-0.3,3.1-0.5,4.6-0.8c0.1,0,0.2,0,0.2,0c2.2-0.3,4.5-1.1,6.6-0.8c2.1,0.2,4,1.6,6,2.2
			c9.9,3.1,19.9,5.8,30.1,8c5.3,1.2,10.6,2.3,15.9,3.5c1.2,0.3,2.6,0.3,2.9,2c0.1,0.4,1.1,0.8,1.8,1c1.5,0.5,3,1,4.5,1.5
			c1,0.4,1.6,1.1,2,2.2c0.6,1.9,1.2,3.7,1.5,5.7c0.3,2,1.3,3.9,1.9,5.9c0.7,2.5,1.1,4.9-0.1,7.4c-0.3,0.6,0,1.5-0.1,2.2
			c-0.1,1.6,0.1,3.3-0.3,4.9c-0.6,2.4-0.2,4.1,1.8,5.9c2.2,1.8,3.9,4.1,5.6,6.4c3.7,5,8.3,8.8,14,11.2c8.9,3.8,18.2,5.8,27.7,7.5
			c6.1,1.1,12.3,1.9,18.3,3.8c2.1,0.7,3.9,1.7,5.5,3.2c1.3,1.2,1.9,2.6,1.1,4.3c-0.4,0.9-0.6,1.8-1,2.7c-1.5,3.1-1.6,6.1,0.6,9
			c0.4,0.5,0.8,1.3,0.9,1.9c0.3,2.2,1.6,3.6,3.6,4.4c1.8,0.8,3.7,1.5,5.6,2.2c1,0.4,2,0.7,2.9,1c4.2,1.5,6.8,4.3,7.1,8.9
			c0.1,2.1,0.1,4.1,0,6.2c-0.1,1,0.2,1.7,0.9,2.3c1.8,1.4,3.5,2.8,5.3,4c3.6,2.5,7.3,4.9,11,7.3c2,1.3,3.3,3.2,3.9,5.5
			c0.1,0.5,0.4,1,0.6,1.5c1.5,4,5.2,5.7,8.6,7.5c2.1,1.1,3.3,2.6,4.3,4.6c0.2,0.5,0.4,1.2,0.8,1.4c2.4,1.1,4.3,3.4,7.1,3.7
			C381.8,420,382.7,420.4,383.4,420.6z M402,523c0,0,0,0.1,0,0.1c1.2-0.1,2.4-0.1,3.6-0.2c1.7-0.2,3.2-0.8,4.6-1.9
			c1.6-1.3,3.3-2.5,4.8-3.9c0.8-0.7,1.8-1.6,1.9-2.5c0.2-1.6,1-2.6,2-3.6c1.6-1.6,2.6-3.5,1.8-5.8c-0.4-1.2,0-2,0.7-2.9
			c2.4-3,4.8-6,7-9.1c1.1-1.5,2.1-3.2,2.8-5c1.9-4.5,1.3-9.1,0.7-13.7c-0.2-1.6-0.4-3.2-0.1-4.7c0.7-3.1,1.3-6.1,0.7-9.4
			c-0.5-2.8-2-4.9-4.3-5.9c-3.4-1.5-7-1.2-10.6-0.3c-1.3,0.4-1.6,1-1,2.2c0.6,1.2,1.3,2.3,2.2,3.4c0.9,1.1,1.3,2.2,1,3.5
			c-0.7,3.2-1.4,6.3-2.3,9.5c-0.7,2.7-1.8,5.3-1.5,8.2c0.4,4.4-1,8.3-3.4,12c-0.6,0.8-1,1.8-1.4,2.7c-1,2.6-1.9,5.2-2.8,7.9
			c-0.2,0.7-0.5,1.4-0.5,2c0.1,2.4-1,4.3-2.6,5.9c-0.7,0.7-1.3,1.3-1.4,2.4c-0.1,1.5-0.8,2.4-2.1,3.2c-1,0.6-1.9,1.4-2.8,2.2
			c-0.4,0.4-0.8,0.8-1.1,1.2c-0.8,1.4-0.4,2.3,1.2,2.5C400.1,523,401.1,523,402,523z"/>
		<path d="M306,452.3c2.2,0.8,4,0.7,5.7,0.4c7-1.2,14-2.4,21-3.7c2.3-0.4,4.5-1.1,6.7-1.9c3.6-1.4,5.7-3.8,5.4-8.1
			c-0.1-1.2,0.1-2.6,0.5-3.8c0.5-2-0.1-3.4-1.6-4.7c-0.1-0.1-0.2-0.2-0.4-0.3c-4.8-3-9.5-6.1-15.1-7.6c-2.8-0.8-5.7-1.5-8.5-2.4
			c-3.3-1-6.5-2.3-9.7-3.4c-2.4-0.8-4-2.6-5.8-4.1c-0.8-0.7-1.7-1.4-2.6-2c-2.1-1.3-4.2-2.6-6.3-3.9c-1.6-1-2.7-2.5-3.3-4.3
			c-0.4-1.1-0.8-2.3-1.3-3.3c-0.8-1.4-1.7-2.7-3.2-3.7c-5.5-3.4-10.7-7.2-15.6-11.5c-1.6-1.4-3-3-4.6-4.6c0.1-0.4,0.3-0.9,0.6-1.6
			c5.7,0.3,11.4,0.6,17.3,1c-0.1,0.9,0,1.7-0.3,2.3c-1.2,2,0,3.2,1.4,4.3c2.3,1.7,4.6,3.5,6.9,5.1c2.1,1.5,4.3,3,6.5,4.4
			c2.8,1.7,4.4,4.2,5.4,7.3c0.4,1.5,1.5,3,2.7,4c1.8,1.5,3.9,2.8,6,3.8c2.1,0.9,3.4,2.6,4.9,4c1.6,1.5,3.5,2.3,5.4,3
			c5.2,1.8,10.4,3.6,15.7,5.3c2.2,0.7,4.3,1.5,6.2,3c1.8,1.5,3.9,2.5,5.8,3.8c0.9,0.6,1.7,1.2,2.4,1.9c1.9,1.6,2.6,3.7,1.6,6
			c-1.2,2.5-2.6,5-4,7.3c-1,1.5-2.6,2.4-4.3,2.8c-5,1.2-10.1,2.4-15.1,3.5c-3.3,0.7-6.6,1.2-9.9,1.9c-1.1,0.2-2.1,0.7-3.3,1.1
			c1.5,2.9-0.3,5.6,0.4,8.5c-3.8-0.4-7.1-0.8-10.6-1.2c0.7-2.3,3.4,0,4.2-2.3c-2.4-0.6-4.8-1.2-7.1-1.7c-0.1-2.1,1.2-2.9,2.6-3.7
			c-1.7,0.2-3.5,0.3-5.2,0.5c-1.7,0.1-3.5,0.3-5.2,0.3c-1.8-0.1-3.7-0.1-5.6-1.5c1-0.4,1.6-0.8,2.3-0.9c4.4-1,8.9-1.8,13.3-2.9
			c2.4-0.6,4.8-1.3,7.1-2.2c2.8-1.1,4.4-3.5,5.8-6c0.4-0.7,0.8-1.4,1.1-2.1c1-2.1,0.5-5-1.6-6.8c-2.8-2.4-6.1-3.9-9.3-5.8
			c-3.6-2.1-7.5-3.3-11.5-4.5c-5.2-1.5-10.3-3.3-15.4-5.3c-1.8-0.7-3.4-2.1-4.8-3.5c-1.1-1.1-2.2-2-3.5-2.6c-2.2-1-3.8-2.6-5.3-4.3
			c-1.6-1.8-3.2-3.8-4.3-6c-1.4-2.9-4-4.2-6.3-5.9c-3.9-2.9-7.8-5.8-11.6-8.7c-1.5-1.2-1.9-2.6-1.1-4.4c1.1-2.3,0.4-4.1-1.6-5.6
			c-1.6-1.2-2.7-2.6-2.9-4.7c-0.3-2.7-2.5-3.7-4.5-4.8c-2.4-1.2-4.9-2.3-7.4-3.4c-1.7-0.8-2.8-2.1-3.6-3.7c-0.6-1.1-1.8-2.1-2.1-3.3
			c-0.4-1.5-1.2-3-0.5-4.8c0.7-1.6,1.1-3.3,1.6-5c0.4-1.4-0.1-2.6-1-3.7c-1.5-1.9-3.6-2.8-5.8-3.6c-4.8-1.7-9.9-2.5-14.9-3.4
			c-6.1-1.1-12.3-2.1-18.1-4.3c-4.1-1.5-7.9-3.3-11.2-6.3c-0.9-0.9-2-1.6-3.1-2.2c-3.9-2.2-6.8-5.2-9-9c-1-1.8-0.6-3.5,1.2-4.5
			c2.3-1.3,4.9-1.6,7.4-0.9c3.2,0.8,6.3,2,9.7,3c-0.2-0.4-0.4-1.1-0.8-1.5c-1.2-1.3-1.4-2.7-1.1-4.4c0.7-3.4,1.2-6.8,1.6-10.3
			c0.2-1.5-0.1-3.1-0.1-4.8c-2,1-3.6,2-5.3,2.7c-4.1,1.6-8.1,0.8-12-0.9c-3-1.3-5.1-3.4-6.5-6.4c-0.7-1.6-1.1-3.2-0.8-4.8
			c0.4-2.3-0.5-3.8-2.4-4.9c-3.4-2-7.1-3.4-10.9-4.3c-8-2-16.1-3.9-24.4-4.4c-1-0.1-2-0.4-3.6-0.6c1-0.3,1.5-0.5,2-0.6
			c2.5-0.2,4.9-0.3,7.4-0.5c2.4-0.2,4.7,0.3,7.1,0.9c7.1,1.7,14.4,3.1,21.5,4.9c3.8,0.9,7.5,2.3,11.1,3.6c1.2,0.4,2.4,1.3,3.5,2.1
			c1.1,0.8,1.4,2.1,1.2,3.4c-0.7,4.8,1.9,8.4,6.7,8.9c0.5,0.1,1.1,0.1,1.6,0c2.2-0.4,3.2-0.3,3.1-3.6c-0.1-1.8-0.2-3.6,0.1-5.4
			c0.3-1.8-0.5-3-1.9-3.8c-2.2-1.2-4.5-2.4-6.9-3.3c-7-2.5-14.3-3.9-21.7-4.9c-2.7-0.4-5.4-0.6-8-1.4c1.4-0.1,2.9-0.3,4.3-0.4
			c1.9-0.2,3.8-0.3,5.7-0.4c0.9-0.1,1.8-0.1,2.6,0.1c8.9,2,17.8,4,26.6,6.2c3,0.7,5.9,2,8.7,3.3c2.4,1,3.7,2.8,3.3,5.7
			c-0.3,2.1-0.1,4.3-0.1,6.4c0,2.5,1.3,4.4,3.1,5.9c0.7,0.6,0.8,1.1,0.7,1.8c-0.2,1.4-0.5,2.8-0.8,4.2c-0.1,0.5-0.6,1-1,1.4
			c-0.7,0.7-1.2,2.7-0.6,3.1c1.3,0.9,0.3,2.3,0.8,3.3c0.1,0.1-0.1,0.5-0.2,0.6c-0.7,0.2-1.2,0.7-1.1,1.3c0.1,0.8,0.3,1.8,0.8,2.5
			c0.9,1.4,2,2.6,3.1,3.9c1.1,1.2,1.8,2.7,2.9,4c5.3,5.7,12,8.8,19.3,11c9,2.7,18.2,4.2,27.4,5.8c3.1,0.5,6.1,1.2,9.1,2
			c2.3,0.6,4.5,1.6,6.2,3.4c1.3,1.3,1.8,2.8,1.2,4.6c-0.5,1.6-1,3.2-1.5,4.8c-0.7,2-0.4,3.8,1,5.5c1.1,1.3,1.7,2.9,2.6,4.3
			c0.6,0.9,1.3,1.7,2.5,2c1.6,0.5,3.1,1.5,4.5,2.7c-3.8,0.2-7.6,0.3-11.3,0.7c-2.6,0.3-4.8-0.3-6.4-1.2c-1.2-1.7-2.1-3-3-4.1
			c-0.9-1.2-2-2.3-1.9-4c0-1-1.3-1.3-1.2-2.5c0-1.5-0.2-3,0.5-4.4c0.4-0.8,0.6-1.6,0.9-2.5c1.1-3.7,0-6.1-3.6-7.7
			c-3.9-1.8-8-2.7-12.2-3.4c-9.8-1.8-19.7-3.4-29.2-6.3c-2.7-0.8-5.3-1.7-8-2.3c-1-0.3-2.2,0-3.3,0c0.7,2.1,2.4,2.6,4,3.3
			c4.2,1.6,8.5,2.7,12.9,3.4c5.4,0.9,10.8,1.9,16.2,2.9c2,0.4,4,1.1,6,1.7c0.9,0.3,1.8,0.7,2.6,1.2c3.2,2,3.9,4.3,2.5,7.7
			c-0.8,2-1.6,4-0.8,6.2c0.5,1.4,0.8,2.9,2,3.9c0.3,0.2,0.5,0.6,0.7,1c1,2.6,3.2,3.8,5.6,4.9c2.8,1.2,5.8,2.3,8.6,3.7
			c1.8,0.9,3.4,2.1,5,3.3c1.7,1.4,2,3.4,1.6,5.4c-0.3,1.7-0.7,3.4-1.3,5.1c-0.5,1.6-0.4,2.9,1,4c0.5,0.4,0.9,0.9,1.4,1.3
			c3.9,2.9,7.8,5.8,11.9,8.5c2.3,1.5,3.9,3.4,5.2,5.8c2,3.7,4.5,7,8.2,9c2.1,1.2,4.1,2.4,5.7,4.3c1.7,1.9,4,2.9,6.3,3.7
			c5.9,1.9,11.7,3.6,17.6,5.4c0.9,0.3,1.9,0.4,2.7,0.9c4.7,2.4,9.5,4.6,13.6,7.9c2.2,1.7,2.7,4,1.7,6.5c-0.5,1.3-1.2,2.6-1.9,3.8
			c-1.4,2.8-3.8,4.6-6.7,5.3c-4.6,1.2-9.3,2.1-14,3.1C310.5,450.9,308.3,451,306,452.3z"/>
		<path d="M465,244.3c-8.6-1.2-17.3-2.3-25.9-3.5c0-0.2,0-0.3,0-0.5c0.4-0.1,0.7-0.2,1.5-0.4c-1.1-0.6-1.9-1.2-2.8-1.5
			c-6.3-2.4-12.4-5.2-18.3-8.3c-0.7-0.4-1.7-0.6-2.5-0.6c-4,0-7.7-0.9-11.4-2.2c-3.6-1.3-7.3-2.3-10.9-3.6
			c-4.3-1.5-8.5-3.1-12.8-4.7c-2.9-1.1-3.4-1.9-3.1-5c0.2-2.1,0.1-4.3,0-6.4c-0.1-3.4,0.7-6.8,2.3-9.9c2.3-4.6,3.7-9.5,5.1-14.4
			c0.9-3.3,1.4-6.5,3.5-9.4c1.5-2.1,2.2-4.9,3.1-7.4c0.2-0.6,0.3-1.3,0.2-1.9c-0.4-2.3,0.2-4.3,1.2-6.3c1.3-2.7,2.6-5.4,3.9-8.2
			c1.6-3.4,3-7,4.8-10.3c1.1-2,2.6-3.8,4.1-5.6c2.5-3,5.2-5.9,7.8-8.9c2.5-3,5-6.1,7.4-9.3c0.8-1,1.2-2.2,1.8-3.3
			c1.9-3.3,3.9-6.7,5.8-10c0.3-0.5,0.7-0.9,0.8-1.4c0.6-2.8,2.1-5.1,3.6-7.4c2.8-4.3,5.8-8.5,8.9-12.6c3.2-4.2,7.1-7.5,12.1-9.4
			c3.3-1.3,6.8-1.5,10.4-1.4c1,0,2.1,0,3.2,0c0.7-3.2,1.7-6.3,1.6-9.5c-0.1-2.3-0.8-3.2-3-3.9c-0.7-0.2-1.4-0.4-2-0.7
			c-0.5-1.4,0.3-1.9,1.4-2.2c2.9-0.7,5.8-1.3,8.6-2c2.2-0.5,4.5-1.1,7-1.7c-0.2,1.5-0.4,2.8-0.5,4.1c-0.1,1.4-0.1,2.7,0.1,4.1
			c0.4,4.8-0.9,9.3-1.7,13.9c-0.4,1.9-0.5,3.9-0.9,5.8c-0.8,4.1-1.9,8.2-4,11.8c-2.2,3.7-4.2,7.6-6.3,11.4c-0.3,0.6-0.7,1.3-1,1.9
			c-2.9,4.8-5.6,9.8-8.8,14.4c-3.4,4.8-7.1,9.3-10.9,13.8c-3.8,4.5-7,9.4-10.2,14.4c-1.4,2.2-3,4.3-4.4,6.5
			c-0.8,1.3-1.7,2.5-2.4,3.9c-1.5,2.8-3.7,5.1-5.9,7.5c-2,2.1-4,4.3-6,6.5c-1.5,1.6-2,3.6-2.2,5.7c-0.1,1.1,0.2,2.3,0.6,3.4
			c0.7,2.2,1.9,4.3,0.8,6.6c-2.2,4.6-2.5,10-5.9,14.1c-0.4,2.2-0.9,4.4-1.2,6.5c-0.2,1.2-0.3,2.3-0.4,3.5c0,0.5-0.1,1.3,0.2,1.6
			c0.9,1,0.7,2,0.6,3.2c-0.2,1.9,0.5,3.4,2,4.5c2.7,1.9,5.4,3.9,8.5,5.3c4.3,2.1,8.4,4.6,12.6,6.8c6.9,3.6,14,6.6,21.3,9.1
			c2.2,0.8,4.4,1.5,6.5,2.4c0.8,0.3,1.6,0.7,2.3,1.1C465.1,244.2,465.1,244.3,465,244.3z M401.7,220.8c-0.3-0.5-0.5-1.2-0.9-1.6
			c-1.4-1.5-1.7-3.4-1.6-5.3c0-1.7,0-3.5-0.3-5.2c-0.5-3.6,0.3-6.9,2.2-9.9c2.8-4.4,3.6-9.5,5.3-14.3c0.4-1.1,0.1-2.2-0.5-3.2
			c-0.5-0.9-1.1-1.8-1.3-2.8c-0.7-3.1-1-6.1,1.9-8.5c1.8-1.5,3.6-3.2,5.2-4.9c2.2-2.3,4.6-4.5,6.3-7.1c3.8-6,8.4-11.5,11.7-18
			c0.6-1.1,1.8-1.8,2.8-2.9c0.1-0.3,0.1-1,0.5-1.5c1.5-1.9,3.2-3.7,4.7-5.7c4.4-5.9,8.9-11.8,13.1-17.9c2.7-3.9,4.8-8.2,7.2-12.3
			c1-1.7,1.1-4,3.4-4.9c0.1,0,0.1-0.2,0.1-0.4c0.4-1.1,0.7-2.2,1.3-3.2c2.6-4.2,4.5-8.8,5-13.8c0.2-1.6-0.3-2.6-1.7-3.3
			c-2.4-1.3-5.4-1-7.6,0.6c-3.1,2.3-4.4,5.7-6.1,9c-0.8,1.6-1.1,3.4-2.4,4.8c-0.8,0.9-1.5,2-2,3.1c-1.6,3.4-3.1,6.8-4.7,10.2
			c-2,4.1-4.1,8.1-6.2,12.2c-1.1,2.2-2.8,3.8-4.4,5.6c-4,4.3-7.7,8.8-11.6,13.2c-2.1,2.4-4.2,4.7-6.3,7.1c-0.2,0.3-0.4,0.7-0.5,1
			c-0.7,2.6-2,5-3.5,7.1c-3,4.2-5.5,8.7-8.2,13.1c-1.9,3.1-3.2,6.6-4.5,10.1c-0.5,1.4-1.2,2.7-2.3,3.9c-1,1.1-1.6,2.6-1.4,4.2
			c0.2,1.7,0.6,3.5,0.2,5.1c-1,4.4-2.3,8.8-4.4,12.9c-1.8,3.5-2.6,7.1-2.4,11c0.1,1.8,0.1,3.7,0,5.5c-0.2,2.7,0.5,4.2,2.9,5.3
			c2.2,0.9,4.4,1.8,6.7,2.4C398.8,221.8,400.4,222,401.7,220.8z"/>
		<path d="M504,105c0.1-1.5,0-2.5,0.2-3.5c0.4-1.7,0.8-3.4,1.4-5.1c2.4-7.3,6.5-13.8,11.2-19.8c3.7-4.6,8.7-7.1,14.4-8.2
			c4.7-0.9,9.2-0.7,13.4,1.8c5,2.8,7.5,7,7.6,12.7c0,3-1.2,5.5-3,7.5c-4.3,5-8.9,9.8-13.4,14.7c-1,1.1-2.1,2-3.1,3.1
			c-2.4,2.6-4.9,5.2-7.1,8c-1.6,2-3,4.2-3.6,6.9c-0.3,1.7-0.9,3.5-2.4,4.8c-1.3,1.2-2.1,2.7-2.8,4.4c-0.6,1.7-1.8,3.2-2.7,4.7
			c-1.8,2.9-3.3,6-4.1,9.3c-0.4,1.8-1.3,3.6-2.3,5.2c-1.5,2.6-3.3,5-5,7.6c-0.9,1.3-1.6,2.7-2.5,4c-1.3,1.9-2.7,3.8-4.2,5.5
			c-1.8,2-2.7,4.4-3.7,6.9c-0.6,1.6-0.5,3.1,0.4,4.3c1.4,2.1,1.4,4.1,0.6,6.4c-0.9,2.6-1.5,5.2-2.6,7.7c-0.9,2.1-2.1,4.1-3.3,6.1
			c-1.4,2.3-2.4,4.6-2.2,7.4c0.1,1.8-0.1,3.7-0.1,5.5c0,3.2,1.1,5.9,4,7.7c2.6,1.7,5.1,3.5,7.8,5.1c3.6,2.1,6.8,4.7,9.9,7.5
			c1.4,1.2,1.1,2.9-0.7,3.1c-2.5,0.4-5.1,0.6-7.6,0.4c-5.6-0.5-11.1-1.3-16.5-2.9c-6.3-1.8-12.5-3.9-18.3-7
			c-2.5-1.4-5.3-2.2-7.9-3.4c-2.4-1.2-4.9-2.4-7.2-3.8c-2.6-1.6-3.1-3.3-2.6-6.3c0.2-1.2,0.3-2.6-0.1-3.7c-1-3.8-0.7-7.5,1-10.9
			c2.1-4.3,3.1-9,4.7-13.4c0.6-1.8,0.4-3.6-0.4-5.1c-1.7-3.2-0.7-6.1,1-8.7c1.4-2.1,3.2-4,4.8-5.9c3-3.5,6-7,8.4-11
			c1.7-2.9,3.9-5.6,6.2-8.1c1.4-1.6,2.2-3.4,3.5-5.1c2.3-3,4.5-6.1,7.4-8.6c1.2-1,2.3-2.2,3.4-3.3c1.8-1.7,3.7-3.2,5.1-5.3
			c1.3-1.9,3.4-3.3,5.2-4.8c2-1.7,3.2-3.9,4-6.4c0.6-2.1,1.4-4.2,2.3-6.2C503.1,105.9,503.7,105.4,504,105z M516,102.7
			c0,0.4,0.2,1.2,0,1.7c-0.6,1.5-1.3,3-2,4.5c-0.5,1.1-1.1,2.1-1.6,3.2c-0.3,0.6-0.4,1.4-0.8,2c-2.2,2.7-3.8,5.9-6.4,8.3
			c-1.5,1.4-2.6,3.2-4,4.7c-2,2-3.3,4.7-6.2,5.8c-0.4,0.1-0.6,0.7-0.8,1.1c-0.3,0.5-0.6,1.1-0.9,1.7c-1.9,2.6-4,5-5.7,7.7
			c-3.3,5.2-7.7,9.7-10.5,15.3c-0.2,0.4-0.6,0.8-0.9,1.1c-2.6,2.8-5.2,5.6-7.8,8.3c-1.9,1.9-3.7,3.7-3.3,6.7
			c-1.3,1.7-0.8,3.8-0.1,5.2c1.2,2.4,0.8,4.3,0,6.6c-1.3,4-2.8,7.9-4.9,11.6c-1.7,3-2.9,6-2.5,9.5c0.3,2.4,0.3,4.7,0.4,7.1
			c0.1,1.7,0.4,3.1,2,4.1c2.6,1.6,5,3.4,7.6,4.9c3.7,2,7.6,3.7,11.3,5.6c4.1,2.1,8.3,3.7,12.7,4.8c1.3,0.3,2.7,0.7,4.7-0.2
			c-0.8-0.6-1.2-0.9-1.7-1.2c-3.9-2.6-7.8-5.2-11.8-7.7c-2.6-1.6-5.3-2.8-7.7-4.9c-2.4-2.1-3.2-4.6-2.9-7.6c0.1-0.9-0.1-1.9-0.1-2.9
			c-0.3-4.1,0.5-7.8,3.1-11.1c0.6-0.7,1.1-1.5,1.5-2.4c1.6-3.8,3.2-7.6,4.8-11.4c0.2-0.4,0.2-0.9,0.2-1.3c-0.3-1.8-0.7-3.6-1.6-5.2
			c-0.3-0.6-0.1-1.5,0.1-2.3c0.2-0.8,0.8-1.5,0.8-2.2c-0.2-1.4,0.5-2.3,1.2-3.2c1.2-1.5,2.6-2.8,3.8-4.3c2.6-3.2,5.1-6.5,7.6-9.8
			c1.4-1.9,2.5-3.9,3.7-5.8c0.6-0.9,1.9-1.3,1.5-2.7c2.2-3.8,3.7-8.1,6.6-11.6c1.3-1.6,2.1-3.5,3.4-5.1c1.5-1.7,2.1-4.3,4.7-5
			c0.2-0.1,0.3-0.6,0.5-1c-0.5-0.1-0.8-0.1-1.2-0.2c0.6-1.1,1-2.1,1.5-3c1.4-2.4,2.8-4.8,4.4-7.1c1.6-2.4,3.5-4.6,5.2-6.8
			c0.4-0.6,0.7-1.5,1.8-1c0.1,0,0.8-0.9,0.8-1c-0.7-0.7,0.1-1.3,0.4-1.6c1.6-1.5,2.6-3.4,3.8-5.1c1.7-2.3,3.4-4.6,4.9-7
			c1.7-2.8,3.5-5.5,4.3-8.9c0.8-3.7,0.5-7-1.1-10.3c-1.2-2.5-3.1-3.3-5.8-2.9c-3.1,0.4-4.6,2.8-5.9,5c-1.4,2.5-2.1,5.3-3.1,8
			c-1.4,3.5-2.8,7.1-4.5,10.5c-1,2-1.7,3.9-2.3,6C516.9,101,516.4,101.7,516,102.7z M486.8,132.4c-0.1-0.1-0.3-0.3-0.4-0.4
			c-0.3,0.5-0.7,0.9-1,1.4c0.1,0.1,0.3,0.2,0.4,0.3C486.1,133.3,486.5,132.8,486.8,132.4z M483.4,189.7c-0.1-0.1-0.3-0.1-0.4-0.2
			c-0.1,0.4-0.2,0.8-0.4,1.3c0.1,0,0.2,0.1,0.3,0.1C483.1,190.5,483.2,190.1,483.4,189.7z"/>
		<path d="M328.7,106.3c-0.4-0.4-0.9-0.5-0.9-0.7c-0.1-2.4-2.1-3.8-3-5.8c-0.4-0.8-1.6-1.1-2.3-1.7c-2.5-2.2-3-5.4-3.2-8.4
			c-0.3-4-0.8-8.1-0.5-12.1c0.2-2.6,0.7-5.1,1.8-7.4c2.2-4.7,5.3-8.7,9.9-11.4c2.6-1.6,5.6-2.5,8.6-2.7c6.6-0.6,13.1,0.1,19.3,2.4
			c0.5,5.6-1.6,10.7-2.6,16.2c-0.8,0-1.5,0.1-2.4,0.1c-0.4-2.6-0.8-5.1-1.2-7.6c-0.8-5.3-5.3-7.7-9.5-8c-3.4-0.2-6.5,0.4-9,3
			c-3.1,3.1-4.1,6.9-3.3,11.1c0.2,0.8,1,1.6,1.6,2.3c1.9,2,4.4,3.1,6.8,4.3c2.7,1.3,5.4,2.6,8.1,4c2.1,1.1,3.5,2.7,3.9,5.1
			c0.4,2.1,0.4,4.1-0.3,6.1c-0.9,2.5-1.6,5-2.6,7.4c-0.5,1.4-1.3,2.7-2.1,4c-0.6,1.1-1.4,2.1-1.9,3.3c-3.4,6.9-8.4,12.5-14.4,17.2
			c-4.6,3.7-9.8,6.2-15.5,7.7c-5.2,1.3-10.4,2.4-15.6,3.7c-5.5,1.4-10,4.3-13.5,8.8c-1.3,1.7-2.4,3.4-2.9,5.4
			c-0.4,1.7-0.6,3.5,0,5.3c0.3,1,0.8,1.5,1.7,1.8c0.7,0.2,1.5,0.5,2.3,0.5c4.6,0.3,8.6-1,12-4.1c3.1-2.8,6.5-5.4,9.7-8.1
			c0.4-0.3,0.7-0.6,1-1c0.9-1.3,2.1-1.5,3.7-0.8c-0.8,1.3-1.6,2.6-2.5,3.7c-2.6,3.5-5.1,6.9-7.7,10.3c-1.4,1.9-3.1,2.9-5.8,3.1
			c-4.4,0.2-8.8-0.1-13.1-0.7c-1.9-0.3-3.8-1.1-5.6-1.9c-1.3-0.5-2.1-1.5-2.3-3.1c-0.8-7.9,0.8-15,6.6-20.9
			c5.3-5.4,11.8-8.7,18.6-11.4c4.4-1.8,9.1-2.9,13.6-4.5c1.7-0.6,3.3-1.6,5.1-2.1c3-0.8,5-2.7,6.5-5.2c0.2-0.3,0.5-0.7,0.5-1.1
			C326.3,110,327.8,108.2,328.7,106.3z"/>
		<path d="M488.7,74.9c-0.1-1.5,0.3-2.1,1.6-2.4c5-1.1,10-2.3,15.3-3.5c-0.3,1.4-0.5,2.6-0.7,3.8c-0.6,3.5-1.2,7.1-2,10.6
			c-0.6,2.4-1.4,4.8-2.9,6.9c-0.2,0.3-0.6,0.6-0.7,1c-0.4,2.2-2.2,3.6-3,5.6c-0.8,2.1-1.7,4.2-3,5.9c-2.3,2.9-3.1,6.7-5.8,9.3
			c-0.4,0.4-0.4,1.1-0.7,1.7c-1.3,2.5-2.9,4.7-4.9,6.7c-1,1-1.7,2.4-2.6,3.6c-2.9,3.7-5.7,7.5-8.8,11.1c-2,2.3-3.4,4.8-5,7.4
			c-1.1,1.8-1.8,3.9-3.1,5.6c-1.4,1.7-2.8,3.4-4.1,5.1c-0.5,0.7-0.8,1.5-1.2,2.3c-1.9,3.8-5,6.7-7.8,9.9c-0.9,1-1.8,2-2.8,2.9
			c-2.3,2.2-3.3,5-4,8c-0.1,0.7-0.2,1.4-0.3,2c0.6,1.2,1.2,2.3,1.7,3.5c0.2,0.6,0.4,1.3,0.3,1.9c-0.4,1.7-1,3.3-1.5,4.9
			c-0.5,1.6-1.2,3.1-1.6,4.7c-0.7,2.7-2.4,4.8-3.7,7.2c-0.3,0.6-0.4,1.3-0.7,1.9c-1.1,2-0.7,4.2-0.6,6.3c0.1,2.3,0.3,4.6,0.2,6.9
			c-0.1,1.7,0.7,2.9,1.9,3.9c2.6,2.1,5.4,3.9,8.4,5.4c4.6,2.3,9.1,4.9,13.7,7.4c1.1,0.6,2.2,1.1,3.3,1.9c-12.9-2.2-26-3.9-37.4-11.2
			c1-1.1,0.8-2.3-0.4-3.3c-0.3-0.3-0.6-0.6-0.7-0.9c-0.4-1.9-1-3.8-1.2-5.7c-0.4-3.6,0-7.2,0.8-10.7c0.3-1.3,1-2.5,1.6-3.7
			c1.1-2.3,2.5-4.4,3-7c0.4-1.9,1.3-3.7,2-5.6c0.6-1.6,0.6-3.2-0.3-4.6c-2.1-3.5-1.2-6.7,0.7-9.8c0.9-1.5,2.3-2.9,3.5-4.2
			c2.3-2.6,5-4.9,7.1-7.7c3.9-5.4,7.6-10.8,11-16.5c2.3-3.9,5.1-7.2,7.8-10.8c1.7-2.3,3.5-4.5,5.3-6.8c1.7-2.1,3.4-4.2,5-6.3
			c1.9-2.6,3.8-5.2,5.5-7.8c0.6-1,0.8-2.2,1.4-3.2c1.8-3.2,3.8-6.2,5.4-9.5c1.9-3.8,4.6-7.2,6.3-11.1c1.2-2.6,2-5.5,2.7-8.4
			c0.4-1.4-0.5-2.7-1.9-3.3C490.1,75.3,489.4,75.1,488.7,74.9z M484.9,112.4c0.2,0.1,0.3,0.2,0.5,0.4c0.2-0.3,0.4-0.7,0.7-1
			c-0.1-0.1-0.2-0.2-0.3-0.2C485.5,111.8,485.2,112.1,484.9,112.4z"/>
		<path d="M511.9,818c-4.2-0.5-8.4-0.8-12.6-1.5c-1.7-0.3-3.3-1.1-4.8-2c-1.5-0.9-1.7-2-0.8-3.4c0.9-1.4,1.9-2.7,3-4
			c3.3-3.8,6.2-7.9,8.4-12.4c1-2.1,1.7-4.2,2-6.6c0.5-4.8,0.2-9.6-0.3-14.4c-0.7-6.6,0.1-13.1,1.8-19.4c0.5-1.9,1.7-3.6,2.7-5.3
			c0.9-1.6,2-3.2,3-4.8c0.8-1.3,0.8-2.6,0.1-4.1c-0.9-1.7-2.2-3.3-1.8-5.3c0.2-0.9,0.5-1.8,0.9-2.6c0.7-1.1,1.5-2.3,2.5-3.2
			c0.8-0.7,1.9-1.2,2.9-1.4c2.9-0.6,5.9-0.5,8.7,0.7c1.8,0.8,3.4,2,5.2,2.9c3.6,2,6.2,4.9,7.8,8.7c1,2.5,2.9,4.5,4.8,6.1
			c5.8,5,9.6,11.4,12.8,18.2c1.2,2.6,2.3,5.3,3.1,8c0.7,2.3,0.8,4.7,1.2,7.1c0.4,2.7,0.8,5.3,1.3,8c0.4,2.4-0.1,4.5-1.1,6.7
			c-1,2.1-1.8,4.2-2.7,6.3c-1.7,4.3-4.9,7-8.8,9.1c-5.2,2.8-10.8,4.3-16.5,5.5C527.2,816.9,519.6,817.7,511.9,818z M525.1,812.6
			c3.9-0.2,7.8-0.3,11.7-0.7c4.5-0.5,9-1.3,13.1-3.5c3.1-1.6,5-4.1,5.4-7.4c0.3-1.9,1.1-3.3,2.1-4.7c0.8-1.1,1.7-2.1,2.6-3.1
			c2.6-3.2,3.5-6.7,2.4-10.8c-0.7-2.5-1.2-5.1-1.8-7.7c-0.8-3.2-2.3-6-4.7-8.2c-7.3-6.7-15.9-7.6-25.1-4.9c-3.5,1-6.6,2.9-9.4,5.1
			c-2.7,2.1-5,4.7-5.5,8.5c-0.3,2.3-0.4,4.6-1.6,6.7c-1.8,3.1-3.2,6.4-4.8,9.6c-0.2,0.4-0.4,0.9-0.7,1.3c-2.8,3.9-4.4,8.2-5.5,12.8
			c-0.4,1.8-0.1,3,1.5,3.8c1.7,0.8,3.5,1.5,5.4,1.9C515,812.4,520,812.6,525.1,812.6z"/>
		<path d="M153.6,333.9c1.1-0.3,2.2-0.9,3.3-0.9c4.4,0,8.8,0,13.1,0.3c4.5,0.2,9.1,0.7,13.6,1.1c7.8,0.8,15.6,1.4,23.1,3.3
			c2.4,0.6,4.7,1.6,6.8,2.8c2.8,1.6,2.7,3.2,1.9,6.6c-0.2,0.7-0.5,1.3-0.7,2c-0.9,2.9-0.4,5.6,1.6,7.9c0.3,0.4,0.6,0.7,0.8,1.2
			c1.2,2.9,3.9,4.1,6.5,5.4c2.6,1.2,5.3,2.3,7.9,3.5c1,0.5,2,1.1,2.9,1.7c3.6,2.3,4.3,5.7,3.5,9.6c-0.3,1.7-0.8,3.4-1.3,5.2
			c2.7,3.5,4.9,7.3,5.8,11.6c-0.7,1.2-1.6,1.7-2.8,2.1c-3.9,1.2-7.7,0.9-11.6,0.3c-9.4-1.5-18.5-4.2-27.4-7.4
			c-4.7-1.7-9.4-3.2-14.1-4.7c-0.2-0.1-0.5-0.1-0.7-0.2c-3.5-1.4-3.5-1.5-3.8-5.2c-0.1-2-0.5-3.9-0.2-5.9c0.3-2.3-0.9-4.2-3-5.3
			c-2-1.1-4.2-2-6.2-3.1c-2.5-1.3-5-2.4-7.3-4c-3.3-2.4-5.9-8.1-3.3-12.7c0.5-1,0.8-2.1,1.2-3.1c0.8-2.3,0.3-4.4-1.7-5.8
			c-2-1.5-4.1-2.7-6.2-4.1c-0.7-0.4-1.3-0.9-2-1.4C153.5,334.3,153.5,334.1,153.6,333.9z M221.8,383c2-2.6,1.9-5.6,2.2-8.5
			c0.1-1.6-0.5-3.2-1.7-4.3c-1.3-1.1-2.7-2-4.2-2.7c-3.9-1.8-7.8-3.6-11.8-5.2c-1.7-0.7-2.7-1.9-3.6-3.3c-0.6-0.8-1.2-1.5-1.5-2.4
			c-1-2.5-2.3-4.9-1.1-7.7c0.4-0.9,0.7-1.8,0.9-2.7c0.6-1.9-0.3-4-1.8-5.2c-2.7-2.1-5.9-3-9.2-3.7c-8.4-1.8-16.8-2.7-25.3-3.3
			c-0.9-0.1-1.8,0.2-2.7,0.4c0,0.2-0.1,0.4-0.1,0.6c1.2,0.5,2.4,0.9,3.6,1.4c2.1,0.9,4.2,1.5,6.1,2.7c3.8,2.2,4.5,4.9,2.8,8.9
			c-0.6,1.4-1.4,3.1-1.2,4.5c0.7,4.1,2.3,8,6.2,10.2c3.1,1.7,6.3,3.1,9.4,4.8c1.7,1,3.2,2.3,4.7,3.6c1,0.9,1.5,2,1.4,3.4
			c-0.1,2,0.1,4-0.2,6c-0.5,2.6,0.8,3.9,2.9,4.8c2.9,1.3,5.8,2.7,8.7,3.9c4.7,1.9,9.4,3.9,14.5,4.9c1.5,0.3,3.1,0.4,4.7,0.3
			c1.3-0.1,1.8-0.9,1.4-2.2c-0.4-1.3-1-2.5-1.7-3.7C224.2,386.6,223,384.9,221.8,383z"/>
		<path d="M471.1,620.9c-0.3,1.4-1.2,1.9-2.3,1.8c-1.4-0.1-2.9-0.3-4.3-0.5c-3.6-0.4-7.1-0.9-10.7-1.3c-9.1-0.9-18.3-1.8-27.4-2.8
			c-5.4-0.5-10.8-1.2-16.2-1.7c-1.6-0.1-3.2,0-4.9,0c-0.4-1.7-1.6-2.4-3-3.2c-3.2-1.7-6.4-3.4-9.5-5.1c-0.9-0.5-1.7-1.2-2.3-2
			c-1.6-2.2-1.4-4.1,0.8-5.6c2.4-1.7,5.1-2.9,7.7-4.3c2.6-1.5,5.3-2.9,7.9-4.5c1.1-0.7,2-1.6,2.8-2.5c1-1,1-1.7,0.2-3
			c-1.4-2.2-3.2-3.9-5.3-5.5c-0.8-0.6-1.7-1.2-2.6-1.9c0.2-0.6,0.4-1.1,0.5-1.6c0.3,0,0.6-0.1,0.8,0c0.5,0.2,1,0.4,1.6,0.6
			c3,0.8,5.2-1.2,4.4-4.3c-0.6-2.2-1.4-4.4-2.2-6.5c-0.5-1.4-1.1-2.8-1.4-4.3c-0.5-2.6-2-4.3-4.3-5.4c-2.4-1.1-4.9-2.1-7.2-3.3
			c-4.2-2.1-8.4-4.2-12.5-6.5c-5-2.9-10.4-4.9-15.9-6.7c-1.6-0.5-3.2-1-4.7-1.6c-1.9-0.7-3.4-1.8-5-3.1c-2.2-1.9-4.9-3.3-7.4-4.7
			c-2.5-1.4-5.1-2.6-7.7-3.8c-1.1-0.5-2.2-1-3.3-1.5c-1.4-0.7-2.9-1.3-4.2-2.2c-1.7-1.2-1.8-2.5-0.4-4c0.5-0.6,1.2-1.1,1.7-1.7
			c0.4-0.4,0.6-0.8,1.2-1.6c-1.2-0.1-2-0.2-2.9-0.3c0.5-1.1,1-2.3,1.6-3.5c0.4-0.9,1.2-1.2,2.1-1.3c3.1-0.4,6.1-0.9,9.2-1.3
			c4.7-0.5,9.5-1,14.5-1.4c-0.6,1.1-1.6,0.9-2.3,1.2c-1.2,0.5-2.6,0.8-3.8,1.4c-0.8,0.4-1.6,1.2-1.9,2c-0.5,1.7-1.6,2.7-3,3.6
			c-1.2,0.9-2.5,1.7-3.6,2.8c-1.4,1.3-1.4,2.7,0.2,3.8c1.4,1,3.1,1.6,4.7,2.4c0.7,0.3,1.6,0.5,2.2,0.9c3,2,6.5,3.1,9.7,4.7
			c2.8,1.4,5.7,2.8,7.9,5.3c0.8,0.8,1.9,1.4,3,1.9c5.4,2.5,10.8,4.8,16.1,7.3c4.6,2.2,9,4.8,13.6,7.1c2.3,1.1,4.7,2,7,3
			c3.3,1.4,5.9,3.4,7.1,6.9c0.5,1.5,1.8,2.8,2.8,4.1c1.1,1.5,2.4,3,3.5,4.6c1.1,1.7,1.1,3.5,0.1,5.2c-1.3,2.1-2.7,4.1-4,6.2
			c-0.6,1-1,2.3-1.8,3.2c-1.7,2.2-3.4,4.4-5.2,6.5c-1.2,1.4-2.1,2.8-1.8,4.7c0.2,1.6-0.7,2.7-1.3,4c-0.5,1-1.4,2-1.3,3
			c0.2,1.9,0.4,3.9,2.5,4.9c3.4,1.8,6.9,3.3,10.5,4.5c6.7,2.3,13.7,3,20.7,3.6c9,0.7,18,1.6,27,2.5
			C469.9,620.5,470.5,620.8,471.1,620.9z"/>
		<path d="M26.7,126.7c-2.7-0.2-5.4-0.4-8.1-0.8c-2.6-0.4-5-1.3-7.2-3.1c-2.4-1.9-2.6-4.3-2-7.1c0.6-2.8,2.1-5.2,3.6-7.5
			c4.3-6.8,8.6-13.7,12.9-20.5c0.9-1.5,1.6-3.1,2.5-4.5c2.1-3.2,4.3-6.3,6.6-9.5c1.9-2.7,4.7-4.7,7.2-6.8c2.4-2,5.4-3.5,8.5-4.1
			c2.8-0.6,5.9-1,8.7-0.1c2,0.6,3.8,1.6,5.7,2.5c1.4,0.8,2.3,2.1,3.3,3.3c1.9,2.4,2.9,5.1,4.5,7.6c0.5,0.8,0.7,1.9,0.9,3
			c0.5,3.5,0.5,6.9-1.5,10.1c-2.6,4.2-4.6,8.7-6.9,13c-2.3,4.4-5.2,8.6-8.1,12.7c-2,2.8-5.2,4.4-8.2,6
			C42,124.5,34.6,126.6,26.7,126.7z M25.1,124.5c0.7-0.1,1.4-0.2,2.1-0.3c4.8-0.9,9-3.1,12.8-6.1c1.7-1.3,3.5-2.6,4.6-4.4
			c0.9-1.5,1.7-3.1,2.5-4.6c2.4-4.1,5.5-7.8,7.3-12.3c0.4-1.1,1.2-2.1,1.8-3.1c1.3-2.3,3.3-4.6,3.8-7.1c0.9-4.1,2.1-8.6-0.6-12.6
			c-0.1-0.1-0.1-0.3-0.2-0.4c-0.2-2-1.9-3.2-2.8-4.8c-0.2-0.3-0.8-0.6-1.2-0.7c-1.6-0.2-3.1-0.4-4.6,0.5c-2.2,1.3-4.3,2.9-5.6,5
			c-2,3.2-3.5,6.5-5.3,9.8c-1.3,2.4-2.5,4.9-4,7.3c-1.3,2.2-3,4.1-4.3,6.3c-3.4,5.5-6.7,11.1-9.9,16.7c-0.8,1.3-1.5,2.7-2,4.1
			c-1.3,3.5-0.1,5.7,3.6,6.5C23.8,124.4,24.4,124.4,25.1,124.5z"/>
		<path d="M201.6,268.9c-1.1,0-2.2,0-3.3,0c-1-0.1-2-0.2-3.1,0c0.5,0.2,0.9,0.4,1.4,0.5c5.3,1.1,10.4,2.5,15.4,4.5
			c1.2,0.5,2.3,1.1,3.3,1.9c1.7,1.2,1.8,1.8,1.3,4.2c-0.1,0.8,0.4,1.6,0.5,2.4c0.1,2.8,0.2,5.6,0.3,8.4c0,0.9,0,1.8-0.2,2.6
			c-0.2,0.7-0.7,1.4-1.2,2.2c0,0,0.5,0.3,0.5,0.6c-0.2,2.9-0.5,5.7-0.8,8.6c-0.2,2,0.3,3.5,1.8,5c2.3,2.3,4.2,5.1,6.3,7.7
			c0.5,0.6,1,1.3,1.5,1.8c3.9,3.9,8.5,6.7,13.7,8.6c7.9,2.9,16,4.8,24.3,6.2c3.2,0.6,6.5,0.9,9.7,1.7c2.4,0.5,4.7,0.7,7.1,0.2
			c3.2-0.6,6.1,0.8,9.1,1.4c-1.4,0.5-2.8,0.9-4.4,1.4c1,0.9,1.9,1.8,2.9,2.6c1.3,1,1.5,2.4,1.2,3.9c-0.3,1.2-0.7,2.3-1.1,3.4
			c-0.8,2.3-1.1,4.6,0,6.9c1.6,3.4,3.7,6.3,7.4,7.7c3.1,1.1,6,2.5,9,3.8c-0.9,2-1.5,2.3-3.2,1.5c-6-2.8-12.3-4.5-18.6-6
			c-2.5-0.6-4.8-1.5-6.9-2.9c-0.8-0.5-1.2-1.6-1.8-2.5c-0.6,0-3.9-1.2-4.1-1.5c-1-1.9-0.9-3.9-0.4-5.8c0.2-1.1,0.8-2.1,1.1-3.1
			c1-3.1,0.6-4.4-2-6.4c-0.4-0.3-0.9-0.7-1.4-1c0.5-0.4,0.9-0.7,1.6-1.3c-3.2-1.2-6.2-1.7-9.2-2.3c-9.1-1.7-18.2-3.1-27.1-5.8
			c-4.4-1.3-8.9-2.7-12.8-5.2c-2.1-1.4-4.2-2.7-5.9-4.7c-2.9-3.6-6-7.1-9.2-10.5c-1.9-2.1-1.9-4.2-1.2-6.7c0.2-0.9,0.4-1.9,0.3-2.7
			c-0.3-2.3,0.6-4.4,1-6.5c0.1-0.6,0.3-1.2,0.3-1.8c0-2-0.1-4.1-0.1-6.1c0-2.1-0.1-4.3,0.1-6.4c0.1-1.6-0.7-2.7-1.7-3.5
			c-1.2-0.9-2.5-1.6-3.9-2.2c-6.5-2.7-13.4-4.1-20.3-5.4c-2.5-0.5-5.1-0.4-7.6-0.6c-1-0.1-2-0.4-3.1-0.6c0.1-1.2-0.6-1.8-1.5-2.2
			c-1.5-0.7-3.1-1.4-4.6-2c-0.7-0.3-1.4-0.7-2-1.4c1.9,0.2,3.9,0.3,5.8,0.8c4.9,1.2,9.8,2.4,14.6,3.7c3.5,0.9,7,0.8,10.5,0.8
			C194.5,266.6,198,267.7,201.6,268.9z M280.1,345.1C280.1,345.1,280.1,345.1,280.1,345.1c0.1-0.5,0.1-0.9,0.1-1.4c0,0,0,0-0.1,0
			C280.1,344.2,280.1,344.6,280.1,345.1z"/>
		<path d="M204,122.2c-1,1.4-2.1,2.8-3.1,4.1c-1.5,1.8-1.5,1.8-3.6,1c-3.6-1.4-7.1-2.8-10.6-4.2c0.5-1.7,1.7-2.2,3.2-2.5
			c4-0.9,6.6-3.7,8.7-6.9c1.6-2.4,3-5,4.5-7.6c0.9-1.5,1.7-3,2.4-4.6c0.9-2.3,1.7-4.5,0.3-7c-0.8-1.5,0.6-2.7,1.4-3.8
			c0.4-0.5,0.7-0.8,1-1.4c0.5-0.9,1.4-1.8,2.3-2.2c3.2-1.4,6.4-2.7,9.7-4c2.6-1,5.2-1.9,8-2.9c-0.6,4.3-2.3,7.9-4.7,11.2
			c0.2,0.1,0.3,0.2,0.5,0.3c0.9-0.9,1.8-1.7,2.6-2.7c3.4-3.7,7.1-7.3,11.9-9.2c2.3-0.9,4.8-1,7.3-0.4c3.3,0.8,5.1,5.4,4,8.3
			c-1.1,2.9-2.2,5.9-4.1,8.5c-1.4,1.9-2.2,4.2-3.3,6.2c-1.6,2.8-3.2,5.6-4.8,8.4c-2.2,3.9-5,7.4-8,10.6c-4,4.3-8.8,7.3-14.8,7.9
			c-1.6,0.2-3.4,0.1-5-0.3C206.3,128.5,204.8,126.5,204,122.2z M211.5,122.8c1.1-0.3,2.1-0.5,3.1-0.9c3.7-1.4,6.2-4.2,8.2-7.4
			c2.4-3.6,4.7-7.4,6.7-11.3c1.4-2.6,2.7-5.4,3-8.5c0.2-2.2-0.4-3-2.6-2.7c-0.6,0.1-1.3,0.3-1.8,0.6c-1.4,0.8-3,1.5-4.2,2.6
			c-2,1.8-4.2,3.5-5.6,5.7c-1.4,2.2-2.7,4.5-4,6.7c-2.1,3.7-4.1,7.4-6.9,10.6c-1,1.1-0.6,2.8,0.7,3.4
			C209.2,122.2,210.4,122.4,211.5,122.8z"/>
		<path d="M270.1,275c0.7-0.2,1.1-0.4,1.6-0.3c2.5,0.3,5.2,0.4,7.6,1.1c4.1,1.3,8.2,1.9,12.5,2.2c3.3,0.2,6.4,1.2,9.3,3
			c5.6,3.5,11.3,7,16.9,10.5c0.9,0.6,1.8,1.3,2.7,1.9c1,0.8,1.4,1.7,0.9,2.9c-0.1,0.1-0.2,0.3-0.2,0.4c0,1.7,0.4,3.5,0,5.1
			c-0.4,1.7-1,3.3-0.3,5.1c0.2,0.6,0.5,1.3,0.9,1.6c2.2,1.5,3.2,3.9,4.8,5.9c1.8,2.2,3.6,4.4,5.6,6.5c1.6,1.7,3.3,3.2,5,4.8
			c0.6,0.6,1.5,1.3,0.9,2.2c-0.4,0.6-1.5,1-2.2,1c-2.9,0-5.9,0-8.8-0.3c-2.8-0.3-5.6-1-8.5-1.3c1.5,0.6,3,1.1,4.5,1.7
			c1.5,0.5,3,1,4.5,1.4c0,0.2,0,0.3,0,0.5c-4.9,0-9.8,0.1-14.7,0c-1.6,0-3.1-0.6-4.5-1.9c-1.3-1.3-3.3-2-5-2.8
			c-5.4-2.4-9.8-5.8-13.2-10.7c-1.6-2.3-3.7-4.4-5.7-6.3c-2-1.9-2.6-3.5-1.6-6.1c0.3-0.7,0.6-1.7,0.4-2.3c-0.5-1.4-0.4-2.6,0-3.9
			c0.2-0.9,0.4-1.9,0.9-2.6c0.8-1.2,0.8-2.2-0.1-3.3c-1.8-2.1-3.6-4-5.4-6.1c-1-1.2-1.8-2.6-2.8-3.8c-0.6-0.8-1.3-1.6-2.1-2.2
			C272.2,278.1,271.1,276.9,270.1,275z M285,283.7c0,0.2,0,0.5-0.1,0.7c0.9,0.9,1.8,1.8,2.8,2.6c2.2,1.8,4.4,3.7,6.7,5.4
			c1.4,1.1,2.3,2.4,1.6,4.3c-0.3,0.6-0.4,1.5-0.2,2.1c0.4,1.6,0.1,3.1-0.3,4.7c-0.6,2.3-0.2,4.4,2.1,5.8c0.5,0.3,0.9,0.7,1.2,1.1
			c2.7,3.1,5.3,6.3,8.1,9.4c3.5,3.8,7.7,6.1,13.1,5.8c0.9,0,1.8,0,2.4-1.3c-0.6-0.8-1.3-1.8-2.1-2.7c-1.8-2.2-3.7-4.4-5.5-6.6
			c-1.7-2-3.1-4.3-4.9-6.2c-1.5-1.5-2.2-3-1.7-5.1c0.4-1.5,0.6-3,0.5-4.7c-0.2-1.4,0.4-3,1-4.4c1-2.3,1.2-2.6-1-4.1
			c-2.8-2-5.7-3.8-8.7-5.4c-3.8-2.1-7.9-3-12.2-2.5C286.7,283,285.8,283.4,285,283.7z"/>
		<path d="M338.4,144.7c2.6,0.6,4.9,1.2,7.5,1.8c-1,1.9-1.8,3.5-2.7,5.2c-2.5-0.6-4.9-1-7.3-1.6c-0.9-0.2-1.5-0.1-2,0.7
			c-1.3,1.9-2.8,3.7-4.2,5.5c-1.8,2.2-3.6,4.4-5.4,6.6c-1.5-0.3-2.6-0.5-3.9-0.7c0-1.5,0.6-2.6,1.1-3.9c1-2.2,2-4.5,2.5-6.9
			c0.4-2-0.3-4.1-1.9-5.7c-0.4-0.4-0.8-0.8-1.3-1.4c0.9-1.3,1.8-2.6,2.7-3.8c0.5,0.1,0.7,0.2,0.9,0.2c2.6,0.9,2.8,0.9,4.4-1.2
			c0.7-0.9,1.3-1.8,2.4-2.5c1-0.6,1.3-2.2,2.1-3.2c2.2-2.7,4.5-5.2,6.7-7.8c2.5-3.1,4.9-6.5,7.5-9.6c1.5-1.8,2.4-4,3.5-6
			c1.2-2,2.5-3.9,3.6-5.9c1.7-3,3.2-6,4.9-8.9c1.1-1.9,2.4-3.8,3.5-5.7c1.2-2,2.4-4.1,3.4-6.3c0.5-1,0.4-2.4,0.5-3.8
			c-1.5,0-2.9,0-4.5,0c0.1-1.2,0.2-2.1,0.2-2.9c1.8-1,3.5-1.7,5-2.7c3.3-2.2,5.9-5.1,8-8.4c2.1-3.2,2.1-3.1,6.3-2.6
			c-0.6,3.5-1.2,7-1.9,10.7c3.3,0,6.5,0,9.9,0c-0.3,0.6-0.5,0.9-0.5,1.2c-0.4,3.1-2.3,4-5.2,3.7c-1.1-0.1-2.2,0-3.4,0.1
			c-1.1,0-1.8,0.5-2,1.6c-1.1,5.1-3.5,9.7-6.4,14c-1.4,2-2.2,4.4-3.5,6.5c-2.1,3.5-4.4,7-6.7,10.4c-0.1,0.2-0.4,0.4-0.4,0.6
			c-0.5,3.2-3,5.3-4.8,7.7c-3.1,4.3-6.6,8.4-10,12.5C344.1,136.1,340.7,139.7,338.4,144.7z"/>
		<path d="M248.8,134.2c-1.4-0.3-3.2-0.6-5-1c-2.9-0.7-4.8-3.6-4.6-6.9c0.2-2.5,0.6-5,2-7.2c2-3.2,3.8-6.6,5.8-9.8
			c1.9-2.9,4.1-5.6,6-8.6c1.9-3,4.1-5.7,6.5-8.2c3.9-4.3,7.7-8.9,12.6-12.2c4.7-3.2,9.8-4.3,15.1-1.9c4.3,1.9,6.2,6.5,4.5,10.8
			c-1.3,3.3-3,6.4-4.4,9.6c-0.9,1.9-1.8,3.8-2.7,5.8c-0.2,0.4-0.3,0.7-0.5,1.1c-2.5,3.9-4.8,7.9-7.6,11.5
			c-6.2,8.2-13.6,14.7-24,16.6C251.4,134,250.3,134,248.8,134.2z M265.3,117.9c-1.4-0.4-2.3-0.8-3.3-1.1c-0.9-0.3-1.8-0.6-2.7-0.8
			c-1-0.2-0.3-2-1.8-1.7c0-0.4-0.2-0.9,0-1.2c0.2-0.4,0.7-0.7,1.2-0.8c3.8-1,6.3-4.5,10.2-5.3c0.3-0.1,0.5-0.4,0.8-0.6
			c0.5-0.3,0.9-0.5,1.5-0.7c1.7-0.4,2.8-1.4,3.5-3c1.2-2.6,2.3-5.2,3.7-7.7c1.3-2.5,3-4.8,3.9-7.5c0.6-1.7,0.4-3.4-0.2-5.1
			c-0.3-0.9-1.9-1.9-2.6-1.6c-1.6,0.5-3.3,1.1-4.4,2.6c-3.7,5-7.4,9.9-11,14.9c-0.6,0.9-0.9,2-1.5,2.9c-2.9,4.7-5.9,9.3-8.8,13.9
			c-0.9,1.5-1.7,3.1-2.9,4.3c-2.2,2.4-3.3,5.2-4.3,8.1c-0.8,2.2,0.1,3.1,2.4,3.1c2.1,0,3.8-1.1,5.5-2.1
			C258.5,126,261.3,121.6,265.3,117.9z"/>
		<path d="M433.6,71.1c-0.9,4.7-1.6,8.9-2.6,13.1c-0.4,1.8-1.4,3.5-2.3,5.2c-2.4,4.5-5,8.9-7.5,13.4c-0.9,1.6-1.9,3.2-2.9,4.8
			c-1.3,2.3-2.6,4.5-4,6.8c-0.7,1.1-1.4,2.1-2.2,3.1c-4.3,5.5-8.4,11.3-13.1,16.5c-3.3,3.7-5.7,7.9-8.3,12c-2.2,3.4-4.4,6.8-7.1,9.8
			c-1.4,1.5-1.8,3.6-3.4,4.9c-1.5,1.2-2.9,2.7-4.6,4.3c-2.8-1.6-5.8-3.2-8.8-4.9c-1.3-0.8-1.7-1.8-1-3.2c1-1.8,1.9-3.6,4.4-4.1
			c3.3-0.7,5.7-2.9,7.5-5.9c1.8-3.1,3.7-6.1,5.8-9c1.9-2.6,4.1-4.9,6.1-7.4c3.3-4.1,6.5-8.4,9.9-12.5c2.6-3,4.1-6.6,6.2-9.9
			c2-3.1,3.8-6.4,5.6-9.6c2.3-4.1,4.6-8.1,6.8-12.2c1.2-2.2,1.7-4.6,1.9-7.3c-1.1-0.6-2.4-1.3-3.9-2.1c0-0.3-0.1-0.9-0.2-1.8
			C421.8,73.8,427.4,72.5,433.6,71.1z"/>
		<path d="M512.2,702.6c-0.3,1.9-1.4,2.7-3.1,3.2c-3.9,1.1-7.8,0.6-11.6,0.3c-6.6-0.6-13-2-19.5-3.7c-4.1-1.1-7.2-3.6-10.2-6.4
			c-0.6-0.6-0.7-1.3-0.8-2.1c-0.1-1.4-0.5-2.8-1-4.1c-0.7-1.9-2.3-3-4-3.7c-6.5-2.5-13.1-4.9-19.6-7.5c-2.4-1-4.7-2.3-7-3.5
			c-0.8-0.4-1.5-0.9-2.1-1.5c-1.2-1.1-1-2.9,0.5-3.6c1-0.5,2.1-0.9,3.1-1.1c3.8-0.4,7.6-0.9,11.4-1c4.2-0.1,8.5-0.1,12.7,0.1
			c9,0.5,17.9,1.4,26.7,3.7c0.9,0.2,1.8,0.7,2.7,1c3.4,1.1,4.6,4,5.3,7.1c0.1,0.5-0.1,1.1-0.4,1.5c-0.4,0.8-1,1.4-1.5,2.2
			c-1.5,2.3-1.3,4.1,0.9,5.8c3.1,2.4,6.3,4.6,9.5,6.9C507,698.1,510,699.9,512.2,702.6z M435.7,672.1c0.6,0.4,1.1,0.9,1.6,1.1
			c1.3,0.5,2.5,1,3.9,1.2c7.6,1.5,15.2,3.1,22.8,4.4c6.1,1,12.2,1.6,18.4,1.4c2.1-0.1,4.3-0.4,6.4-0.8c1.7-0.3,2.6-1.4,2.5-2.5
			c-0.1-1.3-1.1-1.9-2.2-2.3c-1.7-0.6-3.5-1.1-5.3-1.5c-5.8-1.1-11.7-1.7-17.6-2.2c-8.2-0.6-16.4-1-24.6-0.7
			C439.6,670.5,437.5,670.4,435.7,672.1z"/>
		<path d="M549.2,470.6c-2.1,6.1-4.1,12.1-6.2,18.3c-0.7-0.2-1.5-0.4-2.3-0.6c-0.2-2.8-0.3-5.5-0.6-8.2c-0.2-1.9-0.7-3.9-1-5.8
			c-0.1-0.5-0.5-1-0.4-1.4c1-2.9-1.2-4.5-3-5.6c-3-1.9-6.5-2.6-10-1.1c-2,0.8-3.5,2.2-4.2,4.3c-0.7,2-1.4,4-1.9,6
			c-1,4,0.4,7.2,3.5,9.7c2.3,1.9,4.7,3.8,7,5.8c1.5,1.3,2.5,2.9,2.2,5c-0.2,1.4-0.5,2.8-0.6,4.2c-0.1,1.6-1.1,2.4-2.3,3.2
			c-2.5,1.6-5.4,2.4-8.3,3.1c-4,1-8.1,1.8-11.8,3.8c-0.9,0.5-1.7,1.1-2.4,1.6c0,0.4-0.1,0.6,0,0.7c0.9,3.4,1.9,4.2,5.3,3.9
			c3.1-0.3,6.2-0.9,9.2-1.6c2.2-0.5,4.1-1.5,5.9-3c2.3-1.8,4.9-3.3,7.4-4.8c0.8-0.4,1.8-0.4,2.9-0.6c-0.1,1.7-0.7,2.8-1.7,3.7
			c-1.1,0.9-1.6,1.9-0.8,3.5c-4.4,0.9-8.5,1.9-12.6,2.7c-6.4,1.2-12.9,2-19.5,1.7c-1,0-1.9-0.1-2.9-0.2c-1.9-0.4-2.1-0.8-2.5-2.8
			c-0.1-0.8-0.5-1.5-0.9-2.2c-0.7-1-0.4-1.7,0.4-2.3c1.8-1.3,3.7-2.5,5.5-3.8c1.7-1.2,3.5-2.3,5.1-3.6c0.6-0.5,1.2-1.3,1.5-2.1
			c1.8-4.7,2.5-9.5,0.3-14.4c-0.2-0.4-0.5-0.9-0.4-1.3c0.4-2.1,0.3-4.2,0.1-6.4c-0.1-1,0-2-0.1-3c-0.1-1,0.3-2.1,0.7-3.2
			c0.4-1.2,0.8-2.4,1.5-3.4c1.1-1.6,2.3-3.3,3.8-4.5c3.5-2.9,7.6-4.8,12.2-4.5c3.3,0.3,6.6,0.8,9.7,2.3c1.3,0.6,2.7,0.9,4,1.5
			C543.8,466.8,546.7,468.3,549.2,470.6z"/>
		<path d="M391.7,78.3c0.1-0.9,0.3-1.6,0.4-2.3c5.7-1.3,11.3-2.6,17.4-4c-1,4.8-1.8,9.1-2.9,13.3c-0.5,1.9-1.5,3.7-2.6,5.3
			c-2.1,3.2-3.8,6.5-5.6,9.8c-2.3,4.1-4.6,8.3-7.1,12.4c-1.2,2-2.7,4-4.1,5.9c-2,2.6-4,5.3-6.1,7.8c-1.5,1.8-3.2,3.5-4.7,5.3
			c-2.3,2.9-4.6,5.8-6.7,8.9c-2.7,4-5.1,8.2-8.2,11.8c-1.4,1.7-2.5,3.6-3.7,5.4c-0.5,0.8-1.2,1.5-1.7,2.1c-1.2-0.2-2-0.7-2.2-1.8
			c-0.6-4-3.2-6.4-6.6-8.1c-0.2-0.1-0.4-0.3-0.6-0.4c0.7-1.5,1.6-2.5,3.6-2.6c2.4-0.2,4.4-1.8,5.4-3.9c2.8-5.4,7.1-9.5,10.8-14.2
			c1.3-1.6,2.5-3.2,3.8-4.9c2-2.5,4.1-5,6.1-7.6c0.9-1.1,1.8-2.3,2.3-3.6c0.9-2.2,2.1-4.3,3.8-6c0.2-0.2,0.4-0.5,0.5-0.8
			c1.9-3.6,3.8-7.2,5.8-10.7c1.5-2.7,3.2-5.3,4.6-8c0.9-1.7,1.6-3.7,2.1-5.6c0.5-1.8-0.5-3-2.4-3.5
			C392.7,78.5,392.3,78.4,391.7,78.3z"/>
		<path d="M140,137.9c-4.5-1.4-8.8-2.7-13.2-4.1c0.6-1,1.2-1.5,2.3-1.5c2.8,0,5.1-1.1,6.9-3.3c1.9-2.3,3.8-4.7,5.8-7
			c1.1-1.3,2.3-2.4,3.3-3.7c1.8-2.7,3.5-5.5,5.3-8.2c2.1-3.4,4.2-6.8,6.3-10.1c2-3.2,4-6.4,5.9-9.7c2.8-4.9,4.2-10.2,5-15.7
			c0.3-2,0.7-4,0.9-6.1c0.2-1.7-0.8-3.3-2.4-4c-0.4-0.2-0.7-0.3-1.1-0.5c0-0.4,0.1-0.8,0-1.1c-0.3-0.9,0.2-1.4,1-1.6
			c5.1-1.2,10.2-2.3,15.4-3.5c0.1,0,0.2,0,0.4,0.1c0.5,1.9,0.5,3.9,0.1,6c-0.4,2.2-0.9,4.5-1.3,6.7c-0.8,4.1-1.5,8.1-2.3,12.2
			c-0.6,2.8-2,5.3-3.5,7.8c-2.5,4.2-4.9,8.6-7.5,12.8c-3.7,5.9-7,12-11.5,17.3c-4.8,5.7-9.6,11.3-14.8,16.6
			C140.5,137.4,140.3,137.6,140,137.9z"/>
		<path d="M136,120.7c-2.6-0.3-4.8-0.3-7-0.8c-1.6-0.3-2.5,0.1-3.4,1.3c-1.1,1.5-2.5,2.9-3.5,4.5c-1.3,1.9-2.9,2.6-5.1,2.1
			c-0.5-0.1-0.9-0.1-1.5-0.2c0.1-1.2,0.1-2.3,0.2-3.4c0.3-2.7-0.3-5.3-1.7-7.7c-0.6-1-0.6-2.1,0.2-3.3c2-3,3.8-6.1,5.7-9.1
			c0.3-0.4,0.6-0.8,0.9-1.1c1-1,2-2,3-2.9c1.1-1,2.3-1.7,3.3-2.9c2.1-2.6,4.6-5,6.9-7.6c1.9-2.1,3.8-4.1,5.4-6.3
			c1.9-2.8,3.8-5.7,5.2-8.8c1.3-2.9,3.3-3.8,6.3-3.1c-0.2,1.6-0.4,3.3-0.7,4.9c-0.3,1.6-0.6,3.3-1,4.9c-0.4,1.5-0.8,3-1.4,4.5
			c-0.6,1.5-1.4,2.9-2.3,4.7c3.7-0.8,7-1.4,10.6-2.2C149.4,99.3,142.7,110,136,120.7z"/>
		<path d="M481.9,493c-5.3-1.5-10.4-2.9-15.4-4.3c-0.1,0-0.2-0.1-0.2-0.1c-4.6-1.2-6.4-0.3-8.1,4c-0.3,0.7-0.5,1.4-0.6,2.1
			c-0.6,2.7-1.3,5.4-2.7,7.9c-0.3,0.6-0.6,1.3-0.7,2c-0.3,1.3-0.6,2.7-1,4.3c8-0.6,16.3-1.2,24.4-2.6c0.6,0.5,0.8,1.1,0.2,1.7
			c-1.1,1-2.2,2.1-3.5,2.9c-1.9,1.3-4.1,2.1-5.7,3.9c-0.5,0.5-1.4,0.8-2.1,1.1c-6.8,2.4-13.8,4.1-21.1,3.8c-1.3,0-2.7-0.3-4-0.5
			c-1.1-0.2-1.6-0.7-1.5-2c0.1-0.8,0.1-1.9-0.3-2.6c-0.9-1.4-0.5-2.5,0.1-3.8c1-1.9,1.6-3.9,2-6c0.4-2.1,1.8-4,3-5.9
			c1-1.6,2.3-3.1,3.4-4.6c4.2-6,6.4-12.5,5.3-19.8c-0.3-1.8,0.3-3.3,1.4-4.6c6.7-7.9,18.3-8.6,25.9-1.5c1.2,1.1,1.7,2.2,1.7,3.9
			c0.1,3.2,0.6,6.5,1,9.7c0.4,3.3,0.8,6.5-0.6,9.6C482.7,492.1,482.2,492.6,481.9,493z M461.2,481.9c0,2.5,0.2,2.9,2.5,3.6
			c2.6,0.7,5.2,1.5,7.9,1.9c4.2,0.7,5.8-1,5.2-5.2c0-0.2-0.1-0.3-0.1-0.5c0-2.5-0.9-4.6-2.2-6.7c-0.6-0.9-0.7-1.7-0.3-2.7
			c0.7-1.6,0.1-3.7-1.3-4.8c-1.2-1-3.7-1.3-4.9-0.4c-1.6,1.2-3.2,2.6-3.5,4.9c-0.1,0.7-0.6,1.3-0.9,1.9
			C462.3,476.5,461.2,479,461.2,481.9z M450.9,517.4c0.5,0.1,1,0.2,1.4,0.1c3.8-0.2,7.4-0.7,9.5-4.6c0.3-0.6,1.1-1.1,1.7-1.6
			c0.8-0.6,1.5-1.4,2.1-2.6c-4,0.4-7.7,0.8-11.4,1c-2.2,0.1-3.5,1.1-4.2,2.6C450.3,514.3,450.6,515.7,450.9,517.4z"/>
		<path d="M247.7,417.7c0.7-0.8,1.2-1.4,2.1-2.4c-3.4-0.4-5.5-2-8-3.8c3.5-1.1,5.8-1,9.9,0c0.3,0.7,0.5,1.4,0.9,2
			c0.3,0.6,1.6,0.7,0.7,1.7c0.4,0.2,0.8,0.6,1.2,0.7c2.6,0.5,5.2,0.9,7.7,1.4c9.3,1.8,18.6,3.8,27.9,5.6c3.9,0.7,7.4,2.4,11,4.1
			c2.7,1.3,5.4,2.7,8,4.2c3.1,1.8,3.7,4.2,2.5,7.5c-1.8,4.8-5.4,7.5-10.2,8.5c-4.7,1-9.6,1.7-14.4,2.3c-6.7,0.8-13.5,1.2-20.3,0.9
			c-2.2-0.1-4.4-0.5-6.6-0.8c-0.4-0.1-0.7-0.3-1-0.5c0-0.3-0.1-0.5-0.1-0.6c1.5-2,1.4-4.1,1-6.4c-0.2-1.6-0.1-3.3,0.2-4.9
			c0.7-3,0.1-5.6-1.9-7.9c-1.5-1.7-2.9-3.5-4.5-5.2c-0.6-0.7-1.5-1.2-2.3-1.7C249.6,421.2,247.9,420.1,247.7,417.7z M266.5,449.2
			c1.1,0.1,2.1,0.4,3.2,0.3c3.6-0.3,7.3-0.6,10.9-1.1c6.2-0.9,11.7-2.9,15-8.8c0.9-1.6,2.1-3.2,1-5c-0.8-1.4-2-2.9-3.4-3.6
			c-4.6-2.4-9.2-4.8-14-6.7c-5.7-2.3-11.9-2.8-18-3.6c-1.1-0.1-2.5-0.8-3.7,0.5c0.5,0.4,1,0.8,1.4,1.2c1.5,1.1,3.1,2,4.4,3.1
			c2.3,2,4.5,4.2,6.6,6.5c1.2,1.3,1.5,2.9,1.1,4.6c-0.3,1.4-0.7,2.8-0.9,4.2c-0.4,3-1.4,5.7-3.8,7.6
			C266.5,448.5,266.5,448.6,266.5,449.2z"/>
		<path d="M313.2,233.2c-1.9,1.4-3.9,1.7-5.9,1.7c-12.2,0-23.9-2.7-34.9-7.9c-5.4-2.6-10.7-5.5-16.5-7c-1-0.3-1.9-0.9-2.8-1.4
			c-1.5-0.9-2.2-2.2-2.1-4c0.1-2.2,0-4.3,0.2-6.5c0.3-3.5,1.9-6.6,4.3-9.1c2.9-2.9,6.1-5.4,9.2-8c1.2-1,2.6-1.9,3.8-2.9
			c3.4-2.7,7.3-4,11.6-4.6c4.1-0.5,8.2-0.7,12.6,0.3c-1.7,5.2-2,10.8-4.8,15.8c-1.3,2.4-1.7,5.3-1.4,8.2c0.2,2.1,0.3,4.1,0.3,6.2
			c0,2.2,0.6,4,2.4,5.4c2.2,1.8,4.6,3.5,7.2,4.8c3.5,1.8,6.9,3.7,10.4,5.5C308.9,230.9,311,232,313.2,233.2z M282.3,194.9
			c-0.2-0.3-0.5-0.5-0.7-0.8c-2.5-3.5-6.2-4-9.4-2.6c-5.3,2.4-9.4,6.1-11.8,11.5c-0.7,1.5-0.9,3.1-0.7,4.9c0.3,2.1,0.5,4.3,0.4,6.4
			c-0.1,3.1,1.3,4.9,4,6c4.7,1.9,9.4,4,14.1,6c3.5,1.4,6.9,2.8,10.5,4c1.9,0.6,3.8,0.6,6.2,0.1c-0.5-1-0.8-1.9-1.4-2.3
			c-1.9-1.3-3.9-2.4-6-3.5c-1.2-0.7-2.5-1.3-3.5-1.8c-0.2-1.4-0.4-2.4-0.5-3.5c-0.2-1.6-0.4-3.1-0.5-4.7c-0.1-2.5-0.2-4.9-1.1-7.3
			c-0.4-1-1-2.2-0.9-3.2C281.3,201,281.9,198,282.3,194.9z"/>
		<path d="M443.6,606.8c2.4,2.2,4.5,4,6.6,5.9c0.3,0.2,0.4,0.6,0.6,0.9c-2.1,2.2-3.6,2.5-6,1.4c-0.4-0.2-0.9-0.4-1.3-0.5
			c-4.5-0.7-8.4-2.9-12.6-4.5c-1.7-0.6-2.2-2-3.1-3.2c-1.1-1.5-0.7-2.9-0.1-4.5c0.6-1.5,1.2-3,0.3-4.8c-0.6-1.3-0.2-2.9,0.8-4.2
			c1.2-1.6,2.6-3.1,3.4-4.8c1.1-2.4,2.6-4.4,3.9-6.7c0.7-1.2,1.5-2.5,2.4-3.6c1.9-2.4,1.7-5.1-0.4-8.4c-1.6-2.5-4-4.1-6.6-5.4
			c-0.8-0.4-1.6-0.9-2.4-1.7c0.5-0.1,1-0.3,1.5-0.2c5.2,1.2,10.5,2.2,15.6,3.7c3.2,1,5.7,3.5,8,6c1.6,1.8,1.1,3.3-0.4,6.2
			c-0.6,1-1.3,2-2,2.9c-1.4,1.8-2.2,4-3,6.1c-0.6,1.5-1.5,3-2.5,4.3c-1.8,2.4-1.9,3.7-0.4,6.2c0.9,1.5,0.9,2.8-0.4,4
			C443.9,603.5,443.7,605.3,443.6,606.8z"/>
		<path d="M284.4,528.5c-0.4-0.9-0.7-1.6-1.2-2.5c4.8-0.3,9.3-1,14.1-0.9c-0.4,0.9-1,1.5-0.9,2c0.1,0.5,0.7,1.1,1.2,1.4
			c1.1,0.7,2.3,1.5,3.6,1.9c3.4,1.2,6.3,3.2,8.9,5.5c3.1,2.7,6.6,4.1,10.3,5.2c5.3,1.6,10.5,3.3,15.4,5.9c2.3,1.2,4.6,2.6,6.8,4
			c4.9,3.1,10.5,4.7,15.8,6.9c2.4,1,4.7,2,7,3c0.3,0.1,0.5,0.5,0.9,0.9c-0.4,0.2-0.6,0.4-0.8,0.3c-7.1-1.7-14.3-3.2-21.4-5.2
			c-4.3-1.2-8.4-3-12.6-4.6c-1.3-0.5-2.4-0.6-3.9-0.4c-2.7,0.2-5.4-0.1-8.1-0.5c-9.3-1.4-18.3-4.2-27.3-7.2c-4.5-1.5-9-2.7-13.5-4.1
			c-1.4-0.4-2.7-1-4-1.6c-1-0.4-1.8-1-2.2-2c-0.2-0.5-0.6-1-1-1.3c-1.8-1.4-2.2-3.8-3.8-5.2C269.9,527.8,276.1,527.2,284.4,528.5z
			 M280.2,529.8c0.3,2.1,1,3.5,2.3,4.6c0.7,0.6,1.5,1.1,1.9,1.8c0.8,1.3,2,2.1,3.3,2.6c1.8,0.7,3.5,1.4,5.4,2
			c4.4,1.5,8.8,2.8,13.2,4.3c4,1.3,8,2.7,12.1,3.9c2.2,0.6,4.5,1.2,7.1,0.6c-4.9-3.5-10.3-5.6-15.7-7.5c-5-1.7-10.1-3-14.2-6.9
			c-2.4-2.3-5.4-3.8-8.6-5.1C284.8,529.4,282.7,529.5,280.2,529.8z"/>
		<path d="M327.4,518.8c-1.1,2-2.7,2.7-4.8,2.8c-1.6,0.1-3.1,0.6-4.6,1.1c-0.7,0.2-1.2,0.8-1.9,1.3c0.9,1.4,2.2,1.7,3.4,2.2
			c1.3,0.6,2.5,1.3,3.8,2c1.1,0.6,2.2,1.4,3.4,1.8c3.5,1.3,6.9,2.9,9.6,5.3c4.2,3.8,9.4,5.2,14.5,6.9c4.7,1.6,9.2,3.6,13.5,6.1
			c5,3,10.3,5.4,15.7,7.6c1.9,0.8,3.7,1.8,5.5,2.9c1.4,0.8,2.1,2.3,2,3.9c-0.2,2.5,1.1,4,3,5c3,1.5,6.1,2.8,9.2,4
			c1.7,0.7,2.1,0.9,2.3,3.1c-1.6,0.6-3.2,0.5-4.9,0.1c-4.6-0.9-8.6-3.2-12.8-5.1c-1.9-0.9-3.7-1.9-5.5-2.9c-2.6-1.3-4.5-3.4-5.5-6.1
			c-0.4-1.2-1.1-2-2.1-2.5c-1.8-1-3.7-2-5.6-2.8c-5.3-2.2-10.2-4.9-15.1-7.8c-4-2.4-8.3-4-12.8-5.4c-3.3-1.1-6.7-2.2-10-3.4
			c-1.6-0.6-2.8-1.6-4.1-2.7c-2.3-1.9-4.9-3.7-7.6-4.8c-3.7-1.5-7-3.9-10.5-5.6c-1.9-0.9-1.9-2.3-0.1-3.4c4.5-2.9,9.5-4.6,14.7-5.3
			c1.7-0.2,3.5-0.2,5.2-0.1C326.7,517.2,326.7,517.3,327.4,518.8z"/>
		<path d="M406.1,619.1c1.5-1.8,3.4-1.9,5-0.6c0.8,0.7,1.9,1.1,3,1.3c2.7,0.4,5.4,0.7,8.1,1c6.7,0.8,13.5,1.6,20.2,2.3
			c1.3,0.1,2.6,0.2,3.8,0.2c0.4,0,1-0.1,1.3-0.4c1.5-1.1,2.2-1.4,3.2-0.4c2.5,2.4,5.7,3,8.8,4c2.3,0.7,4.6,1.8,6.8,2.9
			c2.2,1.1,3.5,3,3.3,5.7c-0.3,3,1,5.2,3.3,7c4.4,3.3,7.3,7.8,10.1,12.4c0.2,0.3,0.1,0.6,0.3,1.2c-1,0.2-2,0.5-3,0.6
			c-2.5,0.2-5.1-0.1-7.4,1.4c-0.7,0.5-1.9,0.4-2.6-0.5c-3.5-4.3-7.8-7.7-12.4-10.8c-2-1.3-3.9-2.8-5.8-4.3c-2.3-1.8-3.7-3.9-2.8-7
			c0.7-2.2-0.3-3.8-2.2-5.1c-2.7-1.8-5.7-3-8.8-3.6c-6.3-1.3-12.7-2.4-19-3.6c-3.4-0.6-6.9-1.3-10.3-2.1
			C407.8,620.5,406.6,620.3,406.1,619.1z"/>
		<path d="M235.3,269.2c2.6-0.4,5.2-0.8,7.8-1c1.2-0.1,2.4,0.2,3.5,0.4c1.6,0.3,3.3,0.7,4.9,1.1c2.3,0.6,2.4,1,1.3,3.4
			c1.7,0.6,3.3,1.1,4.9,1.6c1.4,0.4,2,1.3,2.7,2.7c1.7,3.9,3.3,7.9,6.4,11.1c0.8,0.8,1.5,1.8,2.2,2.8c1.4,1.9,1.7,3.8,1.4,6.2
			c-0.3,2.8-0.6,5.6-0.7,8.4c0,0.8,0.5,1.8,1.1,2.5c2.5,2.9,5.2,5.7,7.7,8.7c3.5,4.1,7.6,7.4,12.6,9.5c6.7,2.8,13.6,4.6,20.6,6.2
			c0.9,0.2,1.8,0.4,2.7,1c-4.8,0-9.5,0.1-14.3-0.1c-1.3,0-2.5-0.8-3.8-1.2c-1.7-0.6-3.5-1.2-5.2-1.7c-4.7-1.6-9.4-3-14-4.8
			c-5.3-2.1-9.4-5.9-12.8-10.5c-1.8-2.4-4-4.5-6-6.7c-0.9-0.9-1.4-1.7-1.2-3.1c0.3-2.4,0.2-4.8,0.3-7.3c0.1-1.2,0.1-2.5,0.7-3.5
			c1.6-2.7,0.8-5.2-0.2-7.8c-0.9-2.3-2.1-4.4-2.3-7c-0.1-1.3-0.7-2.6-1.3-3.8c-0.3-0.6-0.9-1.1-1.6-1.3c-1.3-0.5-2.7-0.9-4.1-1.2
			c-1.8-0.4-3.6-0.7-5-2.1c-0.6-0.6-1.8-0.6-2.7-0.9c-1.9-0.5-3.8-0.9-5.8-1.4C235.2,269.5,235.3,269.4,235.3,269.2z"/>
		<path d="M387.6,293.7c-2.4-2-5.3-3.5-8.3-5c-3.1-1.6-6.2-3.3-9.3-5c-1.8-1-3.1-2.5-3.9-4.9c1.1,0.4,2,0.5,2.6,1
			c4.7,3.7,10.2,5.9,15.6,8.2c3.8,1.6,7.7,3.1,11.5,4.7c2.7,1.1,3.1,1.7,2.9,4.5c-0.2,2.9-0.8,5.8-1,8.7c-0.1,1,0.1,2.2,0.6,2.9
			c1.1,1.4,2.4,2.7,3.8,3.9c2.6,2.4,5.1,4.8,7.8,7c3,2.4,6.5,3.5,10.4,3.2c0.7-0.1,1.5-0.4,2.1-0.8c0.6-0.4,0.8-1.1,0.3-1.9
			c-1.6-2.7-2.4-5.7-2.9-8.7c0-0.2-0.1-0.5-0.2-0.6c-1.8-2.5-1.1-5.1-0.5-7.8c0.2-0.8,0.3-1.7,0.3-2.6c0.1-1.3,0-2.7,0.2-4
			c0.2-1.9,0.2-2.1-1.7-2.9c-4.1-1.8-8.3-3.4-12.4-5.1c-0.8-0.3-1.7-0.7-2.4-1.4c1.4,0.5,2.8,0.9,4.2,1.4c3.8,1.2,7.6,2.3,11.5,3.5
			c1.1,0.3,2.1,0.7,3.2,1.1c2.7,1,3.1,1.8,2.4,4.7c-0.1,0.3-0.3,0.7-0.2,0.9c0.9,2.3-0.2,4.4-0.4,6.6c-0.1,1.7,0.5,2.8,1.8,3.9
			c1.9,1.7,3.6,3.6,5.3,5.4c0.2,0.2,0.4,0.4,0.3,0.6c-0.4,1.6,0.7,2.7,1.1,4c0.9,2.8,0.1,4.1-2.6,5.2c-2.4,1-4.9,1.3-7.5,1.4
			c-5.7,0.1-11.3-0.6-16.6-2.7c-2.9-1.1-5.4-2.8-7.5-4.9c-3.4-3.3-6.8-6.5-10.7-9.2c-1.2-0.8-1.5-2-1.4-3.1
			C386.5,301.7,387.1,297.9,387.6,293.7z"/>
		<path d="M55.3,257.8c7.9,0.3,15.8,1.2,23.6,2.4c16.3,2.4,32.4,6.2,48.6,9.5c3.9,0.8,7.8,1.8,11.4,3.6c0.8,0.4,1.6,0.8,2.3,1.3
			c1.8,1.3,1.9,3,0.3,4.7c-2.3,2.4-4.9,4.4-8,5.4c-9.8,3.2-19.3,2.2-28.6-2.3c-1.1-0.5-2.1-1.2-2.9-2.1c-3-3.2-6.9-4.7-10.9-6.1
			c-8.5-3-17.3-4.5-26.1-6.1c-6.1-1.2-12.2-2.3-18.1-4.5c-1.2-0.5-2.4-1.2-3.5-1.9c-1.1-0.7-1-1.6,0.2-2.2c0.6-0.3,1.2-0.5,1.8-0.6
			C48.7,258.5,52,258.1,55.3,257.8z M52.5,260.1c1.1,0.7,1.7,1.2,2.5,1.6c1.7,0.7,3.4,1.5,5.1,2c7.2,2.3,14.6,4,22.1,5.4
			c7.5,1.5,15,3.2,22.1,6.1c2.1,0.8,4,2.1,5.4,3.9c4.1,5.3,13,7.6,19.1,0.6c1.7-2,1.7-3.6-0.6-4.9c-2.4-1.3-4.8-2.7-7.4-3.3
			c-5.9-1.6-11.9-2.8-17.9-4.1c-10.6-2.3-21.2-4.6-31.8-6.7c-4.4-0.9-9-1.2-13.5-1.7C56.1,258.8,54.5,258.9,52.5,260.1z"/>
		<path d="M362.1,297.7c-0.5,3-1,6.1-1.5,9.1c-0.5,2.6-1.1,5.3-1.5,7.9c-0.1,1,0.1,2.2,0.5,3.2c1.1,2.7,0.7,3.7-2.1,3.7
			c-2.4,0-4.7-0.6-6.7-2c-2.3-1.7-4.4-3.6-6.7-5.2c-1.3-0.9-2.8-1.4-4.2-2.1c-2.4-1.3-4.7-2.7-7.1-3.8c-2.2-1-3.3-3-2.1-5.5
			c0.5-1.1,0.7-2.2,0.2-3.4c-0.7-1.8,0.2-3.4,1.2-4.9c1.4-2.2,1.5-2.5-0.4-4.2c-1.3-1.2-2.7-2.3-2.6-4.3c0-0.5-0.7-1-1-1.5
			c-0.8-1.2-0.7-2,0.7-2.4c1.2-0.4,2.6-0.6,4-0.5c3.1,0.2,5.8,1.6,8.6,2.8c3.6,1.6,7.2,3,10.8,4.6c2.5,1.1,4.9,2.3,7.3,3.6
			C361.3,293.8,362.5,295.3,362.1,297.7z M333.3,287.4c1,0.9,1.5,1.4,2.2,2c1.6,1.2,3.2,2.4,4.7,3.6c1.2,1,1.8,2.1,1,3.7
			c-0.3,0.7-0.5,1.7-0.3,2.3c0.7,1.7,0.3,3.2-0.1,4.8c-0.3,1.2-0.6,2.9,0.8,3.7c2.2,1.5,4.6,2.7,6.9,4c0.4,0.2,0.9,0.4,1.3,0.5
			c2,0.5,3.1-0.6,2.5-2.6c-0.3-1.1-0.3-2.3-0.5-3.4c-0.3-1.6,0.6-2.8,0.6-4.2c0.1-2.3-0.3-4.7,0.8-7c0.8-1.6,0.7-2-0.9-2.9
			c-2.4-1.4-4.8-2.7-7.4-4c-3.1-1.5-6.4-1.3-9.6-1.2C334.9,286.8,334.4,287.1,333.3,287.4z"/>
		<path d="M163.6,120.9c0.8-1.8,1.8-2.9,3.7-3.2c2.6-0.4,4.2-2.3,5.4-4.3c1.9-3.1,3.5-6.4,5.3-9.6c1.1-1.8,1.3-3.5-0.6-5.3
			c0.7-1,1.6-1.8,2.1-2.8c0.6-1.2,0.9-2.5,2-3.4c0.5-0.4,0.9-0.9,1.4-1.2c5.4-3.2,11.1-5.8,17-7.9c0.9-0.3,1.7-0.7,2.7-1.1
			c-0.2,2.9-1.3,5.2-2.6,7.5c-2.7,4.7-5.4,9.5-8.2,14.2c-1.3,2.3-2.9,4.4-4.3,6.6c-1.5,2.3-2.7,4.7-4.3,6.9c-1.9,2.6-4,4.9-6,7.4
			c-0.7,0.9-1.5,0.9-2.5,0.5C171.1,123.7,167.4,122.4,163.6,120.9z"/>
		<path d="M531.4,288.7c-5.4-0.2-10.8-0.3-16.3-0.6c-1.3-0.1-2.5-0.5-3.7-0.8c-0.3-0.1-0.8-0.3-0.8-0.4c-0.3-1.8-2-1.9-3.1-2.7
			c-2.8-1.9-5.6-3.7-8.4-5.5c-4-2.5-8.1-4.9-12.2-7.2c-1.3-0.7-2.8-1.1-4.3-1.4c-1.3-0.3-2.2-0.8-2.9-1.9c-0.4-0.7-1-1.2-1.5-1.8
			c0.1-0.2,0.1-0.4,0.2-0.5c1.7-1.9,1.5-2.4-0.9-3c-5.1-1.3-10.1-2.9-14.8-5.5c-1-0.6-2-1.3-3.4-2.2c4.2-2.3,8.1-4.4,12.2-6.7
			c0.8,1,1.8,2.2,2.7,3.5c1.7,2.7,4,4.6,6.9,6c1.4,0.7,2.9,1.2,4.4,1.9c2.2,1,4.4,1.9,6.4,3.2c1.8,1.2,3.3,2.8,4.8,4.5
			c2.5,2.8,5.4,4.9,8.6,6.8c3.2,2,6.4,3.9,9.4,6.2c4.1,3.2,8.9,4.9,13.8,6.6c1,0.4,2.1,0.7,3.1,1.1
			C531.5,288.5,531.5,288.6,531.4,288.7z"/>
		<path d="M475.8,660.2c-0.5,0.6-0.7,0.9-1,1.2c-2,2.3-2,2.2-5,1.2c-2.2-0.7-4.5-0.8-6.8-1c-7.1-0.7-14.1-1.3-21.2-2.1
			c-1.3-0.1-2.3,0.1-3.3,0.9c0.3,1.4,1.5,1.5,2.5,1.7c2.1,0.4,4.2,0.8,6.4,0.9c6.1,0.4,12.3,0.8,18.4,1.2c3.1,0.2,6.2,0.5,9.4,0.8
			c-2.2,2.7-3.3,3-6.2,2.1c-1.1-0.3-2.3-0.5-3.5-0.6c-5.8-0.4-11.6-0.6-17.4-1c-4-0.3-7.9-0.8-11.9-1.4c-1.1-0.2-2.3-0.7-3.3-1.2
			c-1.1-0.6-1.2-1.6,0-2.2c1.4-0.7,2.9-1.1,4.5-1.7c-1-0.4-2.1-0.8-3.2-1.2c-1.4-0.5-2.3-1.4-3-2.8c-1.1-2.4-2.6-4.6-3.7-7
			c-0.6-1.3-1.1-2.7-1.1-4.1c-0.1-3.3-1.6-5.9-3.7-8.3c-2.9-3.4-5.7-6.8-8.6-10.3c-0.2-0.3-0.4-0.6-0.7-1c0.9-0.6,1.7-0.1,2.3,0.2
			c3.3,1.6,6.5,3.4,9.8,5c2.5,1.3,3.6,3.2,3.7,6.1c0.2,3.9,2.5,6.8,5.5,9.1c2,1.5,4.2,2.9,6.3,4.4c1.9,1.4,3.7,2.7,5.5,4.3
			c1.4,1.3,3,2.1,4.8,2.6c5.7,1.8,11.7,2.6,17.6,3.4C471,659.6,473.2,659.9,475.8,660.2z"/>
		<path d="M369.8,180.8c1.1,1.3,1.3,2.6,1,3.9c-0.8,2.9-1.6,5.8-2.6,8.7c-0.5,1.5-0.9,3.1-1.8,4.4c-2.6,4.1-3,8.5-2.4,13.1
			c0.1,1.1,0.1,2.2,0,3.3c-0.1,1.7,0.3,3.2,1.5,4.4c0.7,0.7,1.5,1.4,2.7,2.5c-1.7-0.2-3-0.3-4.3-0.5c-4.4-0.8-8.8-1.7-13.1-2.5
			c-1.5-0.3-2.7-1-3.2-2.5c0.6-1.3,0.5-2.9,1.8-4c0.3-0.2,0.4-0.8,0.3-1.1c-0.4-2.7,1.5-4.3,3-6.1c0.9-1,1.4-2.5,1.7-3.8
			c0.3-1.2,0.8-2.2,1.4-3.2c1.9-2.9,4.2-5.3,6.3-8c0.6-0.8,1-1.8,1.5-2.7C365.1,184,367.4,182.5,369.8,180.8z"/>
		<path d="M564.6,484c1.5,0.4,3,0.9,4.5,1.3c-0.3,4.6-4.8,16.6-6.9,18.5c0.3,0.8,0.6,1.7,0.9,2.6c0.4,1.3,0,2.1-1.2,2.3
			c-2.2,0.3-4.3,0.8-6.4-0.9c-2.2-1.8-5.2-1.9-7.9-2.3c-0.8-0.1-1.6-0.2-2.3-0.4c-0.6-0.2-0.9-0.7-0.6-1.5c1.3-2.9,3-5.6,3.8-8.7
			c0.1-0.5,0.8-1,1.3-1.1c6-0.8,10.3-4.3,13.9-8.8C563.9,484.7,564.2,484.4,564.6,484z"/>
		<path d="M365.9,397.3c2.6,0.1,5.1,0.2,7.6,0.4c3,0.2,6,0.6,9,0.8c1.2,0.1,2,0.6,2.5,1.6c0.5,1,1.1,2,1.3,3.1
			c0.3,1.6,1.3,2.6,2.4,3.4c2.1,1.4,4.3,2.7,6.5,4c2.4,1.4,3.6,3.4,3.8,6.3c-0.8,0.2-1.5,0.4-2.2,0.5c-1.8,0.3-3.6,0.7-5.4,1
			c-2.2,0.4-4.1-0.2-5.9-1.4c-1.1-0.7-2.3-1.5-3.4-2.3c-0.8-0.6-1.5-1.4-2.3-2c-1-0.9-2.3-1.6-2.9-2.7c-0.6-1.2-1.3-2.3-2.2-3.2
			c-0.8-0.8-1.4-1.7-2.2-2.5c-1-1.1-2-2.3-3.3-3.1C367.7,400.2,366.5,399.2,365.9,397.3z"/>
		<path d="M341.2,365c-3-0.2-5.4-1.4-7.2-3.5c-1.5-1.7-2.8-3.5-3.9-5.4c-1.2-1.9-1-4-0.4-6c0.3-1,0.8-1.9,1.3-2.8
			c1.4-2.9,0.9-5-1.9-6.7c-2.1-1.3-4.4-2.2-6.6-3.4c-0.6-0.3-1.2-0.6-1.7-1.3c1.9,0,3.9-0.2,5.8,0c2.9,0.3,5.8,0.9,8.7,1.4
			c1,0.2,2,0.6,2.9,1c2.5,1.1,4,3,4,5.7c0,1.9-0.1,3.8-0.6,5.6c-0.7,2.4-0.6,4.6,0.7,6.6c1.5,2.3,1.4,4.4,0,6.7
			C341.9,363.4,341.6,364.1,341.2,365z M336.8,345.4c0-0.8,0-1.6,0-2.5c-0.2,0.8-0.2,1.5-0.2,2.3
			C336.6,345.2,336.7,345.3,336.8,345.4z"/>
		<path d="M317,184.2c-0.4,1.6-0.6,2.7-0.9,3.7c-0.4,1.7-0.7,3.4-1.3,5c-0.8,2.3-1.6,4.7-2.7,6.8c-1.4,2.7-1.5,5.5-1.4,8.4
			c0.1,2.1,0.5,4.1,0.4,6.2c-0.1,2.3,0.8,3.9,2.5,5.4c2.5,2.1,5.1,3.8,8.1,5.1c2.5,1.1,4.9,2.5,7.7,4c-2.2,0.4-4.7,0-6.5-0.9
			c-6.1-3-12.2-5.9-18.3-8.9c-2.9-1.4-3.6-2.7-3.2-5.9c0.2-1.4,0.5-2.8,0.4-4.3c-0.1-3.8,1.9-6.8,3.5-10c1.8-3.6,3.9-7,5.6-10.7
			c0.6-1.3,1.3-2.3,2.7-2.7C314.6,185.3,315.6,184.8,317,184.2z"/>
		<path d="M364.2,528.2c0.6-0.3,1.1-0.7,2-1.2c-1.6-0.7-2.9-1.2-4.2-1.8c-4.4-1.9-4.6-4.1-0.8-7c0.6-0.5,1.3-0.9,1.9-1.4
			c0.6-0.4,1.3-0.9,1.5-1.5c0.7-1.9,1.7-3.7,3.7-5.5c-1.8-0.2-3-0.4-4.2-0.5c0-0.1,0-0.3,0-0.4c0.7-0.1,1.3-0.3,2-0.3
			c4.7-0.5,9.4-0.9,14-1.5c1.9-0.2,3.8-0.7,5.6-1.1c0.9-0.2,1.4-0.2,1.4,0.9c-0.1,0.1-0.2,0.3-0.4,0.3c-3.7,0.1-5.9,2.4-8,4.9
			c-0.3,0.4-0.6,0.8-0.6,1.2c0,2-1.4,2.9-2.8,3.9c-1,0.7-2.1,1.5-3,2.3c-1.7,1.5-1.6,3.2,0.4,4.3c2,1.1,4.2,1.9,6.3,2.8
			c0.4,0.2,0.8,0.4,1.1,0.9c-5.3,0.3-10.5,0.7-15.8,1C364.3,528.5,364.2,528.4,364.2,528.2z"/>
		<path d="M495.1,446.6c0.8-0.4,1.4-0.7,2.1-0.9c1.6-0.6,3.3-1.2,4.9-1.8c2.3-0.9,4.8-0.7,7.1-0.2c4.5,0.8,8.7,2.4,12.6,4.8
			c1.8,1.1,3.6,2.1,5.5,3c1.1,0.5,1.6,1.2,1.3,2.4c-0.1,0.4-0.1,0.9,0.1,1.3c0.4,1.2,0.9,2.3,1.4,3.6c-4.4,1.6-8.7,1.4-12.6-0.5
			c-5-2.4-10.1-4.7-15.6-6C499,451.6,498.1,450.7,495.1,446.6z M518.3,452.6c0-0.3,0.1-0.5,0.1-0.8c-4.6-2.4-8.9-5.3-14.3-6.4
			c-0.5,0.2-1.3,0.4-2.1,0.8c-0.5,0.2-1.1,0.7-1.1,1.1c0,0.5,0.4,1.1,0.8,1.6c0.2,0.2,0.5,0.3,0.8,0.5c4.3,1.6,8.6,2.9,13.2,3.3
			C516.6,452.8,517.4,452.7,518.3,452.6z"/>
		<path d="M546.1,286.4c-1.3,0-2.1,0.1-2.9,0c-6.3-0.8-12.3-2.4-17.5-6.4c-3.1-2.5-6.6-4.5-9.9-6.7c-0.9-0.6-1.6-1.3-2.5-1.9
			c-1.2-0.9-1.3-2.4-1.5-3.6c-0.1-1.3,1.4-2.3,2.7-1.8c2.2,1,4.3,2,6.4,3.2c4,2.3,8,4.6,11.9,7.1c4.2,2.7,8.2,5.8,12.3,8.7
			C545.5,285.1,545.6,285.5,546.1,286.4z"/>
		<path d="M119.2,93c-4.5,8.8-9.3,17.4-15.1,25.4c-2.3-0.7-4.1-1.6-5.6-3.1c-1.1-1.1-1.3-1.7-0.5-3.1c0.9-1.5,1.8-3,2.8-4.4
			c1.1-1.5,2.3-3,3.6-4.5c0.4-0.5,1.2-0.7,1.7-1.2c3-2.8,6.7-4.5,10-6.7C117.2,94.8,118.2,93.9,119.2,93z"/>
		<path d="M378.1,267.8c-8.5-1.4-16.6-4.1-25.6-5.3c0.7,1.1,1,1.7,1.4,2.2c0.4,0.6,0.8,1.2,1.2,1.8c-2.2,0.2-19.1-6.7-20.6-8.5
			c1.4-1.3,3.2-1.4,4.8-1.3c3.6,0.2,7.2,0.3,10.7,1c9.7,1.8,18.9,5.1,27.6,9.8C377.7,267.5,377.9,267.7,378.1,267.8z"/>
		<path d="M192.8,69.5c0.7-3.9,1.5-7.4,5.2-9.2c2.4-1.2,5-1,7.1,1c1.5,1.4,1.7,3.6,1.2,5.6c-0.7,3-2.3,5.6-4.7,7.6
			c-1.1,0.9-2.8,1.4-4.2,1.3c-1.8,0-3.4-0.8-3.7-3C193.5,71.6,193.1,70.5,192.8,69.5z"/>
		<path d="M455,595c0.6-0.3,1.1-0.7,1.7-1c1.5-1,3-1.8,4.4-2.9c2.4-1.8,3.4-4.4,3.6-7.2c0.1-1.9,0.1-2-1.6-4.9
			c0.4-1.2,1-1.5,2.3-0.9c2.7,1.2,5.4,2.4,8.1,3.4c2.1,0.8,3.2,2.5,4.3,4.3c0.6,1,0.1,2.1-1.1,2.7c-1.5,0.8-3,1.6-4.6,2.1
			c-5.3,1.7-10.7,3.3-16,4.9c-0.3,0.1-0.6,0-0.8,0C455.1,595.3,455,595.2,455,595z"/>
		<path d="M500.8,64.6c-3.1,0-6.1-2.9-5.9-5.9c0.3-3.5,2.6-5.7,6.3-6c3.2-0.2,5.9,2.6,5.8,6C506.8,62.5,504.2,64.4,500.8,64.6z"/>
		<path d="M442.1,560.1c-2.2,0.7-4.1,0.2-6-0.5c-2.3-0.8-4.4-1.8-6.7-2.6c-5-1.9-10.1-3.6-15.1-5.5c-1.9-0.7-3.6-1.7-5.3-2.7
			c-0.7-0.4-1.2-0.9-2-1.6c1.9-0.8,3.3-0.3,4.7,0.1c6.3,2.2,12.7,4.4,19,6.7c2.9,1.1,5.8,2.2,8.7,3.5
			C440.5,558,441.8,558.4,442.1,560.1z"/>
		<path d="M367.9,390.2c-1.9-0.4-3.6-0.7-5.1-1.2c-3.1-1.1-6.2-2.4-9.3-3.6c-0.4-0.1-0.7-0.3-1.1-0.5c-1.9-1.2-2-1.6-0.9-3.6
			c1.7-3.3,2.4-3.7,5.7-2c2,1,3.8,2.5,5.7,3.8c0.7,0.4,1.3,0.9,1.9,1.4c1.3,1,2.6,2.1,3.9,3.2c0.5,0.4,0.7,1.2,1,1.8
			C369.1,389.6,368.4,389.9,367.9,390.2z"/>
		<path d="M403.2,273.8c0.9,0.3,2,0.4,2.8,0.9c2.2,1.3,4.4,2.6,6.4,4.2c5.5,4.7,11.9,7.3,18.7,9.3c2.8,0.8,5.7,1.6,8.5,2.4
			c0.5,0.2,1,0.4,1.5,0.9c-0.8,0.1-1.7,0.4-2.5,0.2c-6.3-1.6-12.7-3.2-18.9-5.1c-3.2-0.9-6.4-2-9-4.3c-1.5-1.4-2.8-3-4.2-4.4
			c-1.2-1.2-2.4-2.3-3.6-3.4C403,274.3,403.1,274,403.2,273.8z"/>
		<path d="M166.5,128.8c0.5,0,1-0.1,1.4,0c2,0.3,2.8,1.8,2,3.7c-0.9,2.4-3.1,3.3-5.1,4.4c-1.9,1-3.9,1.3-6,1.2
			c-1.3-0.1-2.6-0.4-3.1-1.8c-0.5-1.4,0.3-2.5,1.1-3.4c1.5-1.7,3.6-2.6,5.7-3.3c1.3-0.4,2.6-0.6,3.9-0.8
			C166.5,128.7,166.5,128.8,166.5,128.8z"/>
		<path d="M341.5,219.1c-3.3-0.1-6-0.9-8.7-2.1c-0.8-0.3-1.6-1.1-1.1-2.3c0.4-1,0-2.3,1.4-2.8c0.3-0.1,0.4-0.8,0.4-1.3
			c0.3-2.3,1.2-4.2,3.2-5.4c1.3-0.9,2.1-2.1,2.6-3.5c0.4-1.1,1-2.1,1.8-2.9c-0.2,0.6-0.4,1.2-0.6,1.7c-1.4,3.4-1.4,6.9-0.5,10.5
			c0.2,0.7,0.3,1.5,0.2,2.1C339.6,215.3,340.2,217.1,341.5,219.1z"/>
		<path d="M377,530.6c2.4-1.4,4.4-1,6.5-0.8c0.9,0.1,1.9,0.4,2.8,0.6c3.3,0.5,5.5,2.3,6.3,5.6c-1.8,2.5-2.9,3-5.6,1.8
			c-2.7-1.2-5.2-2.7-7.7-4.3C378.4,532.9,377.9,531.7,377,530.6z"/>
		<path d="M509.7,262.5c-1.7-0.4-3.4-0.7-4.9-1.2c-3.5-1.1-7-2.1-10.4-3.4c-1.4-0.5-2.8-1.2-3.4-2.8c-0.3-1-0.3-1.9,0.3-2.7
			c0.6-0.8,1.7-1,2.6-0.6c1.2,0.4,2.4,0.9,3.5,1.5c3.5,2,7,4.1,10.4,6.3C508.8,260.2,509.9,260.6,509.7,262.5z"/>
		<path d="M344.7,534.5c0.8,0.4,1.6,0.7,2.2,1.2c3.2,2.8,7.2,4,11,5.5c2.9,1.1,5.8,2.2,8.7,3.4c1.2,0.5,2.3,1.3,3.8,2.1
			c-2.7,0.2-26.3-6.9-29-8.6C342.5,536.9,343.5,535.8,344.7,534.5z"/>
		<path d="M198.1,258.1c1.6,0,3.1-0.2,4.7,0c8.1,1.3,16,3.4,23.8,6.1c0.3,0.1,0.5,0.3,0.8,0.5C223.1,266.2,201.9,261.6,198.1,258.1z
			"/>
		<path d="M462.7,237.8c1.5-1.2,3.1-0.6,4.5-0.4c5.3,0.6,10.5,2.1,15.5,3.9c0.5,0.2,1,0.5,1.4,0.8c0.2,0.1,0.3,0.4,0.7,0.9
			c-1,0.2-1.8,0.6-2.5,0.4c-5.1-1-10.1-2.1-15.2-3.2C465.4,239.8,463.9,239,462.7,237.8z"/>
		<path d="M82.3,115.3c-1.7-2-1.8-2.5-0.7-4c1.9-2.6,3.8-5.2,5.8-7.6c0.9-1.1,2.1-1.9,3.1-2.8c0.1,0.3,0.2,0.6,0.2,0.8
			c-0.1,0.4-0.2,0.8-0.4,1.1C87.7,106.9,85.1,111,82.3,115.3z"/>
		<path d="M164.7,303.2c0.5-2.4,1-2.9,2.9-3.1c4.3-0.3,2.8-0.5,6.6,1.1c-0.1,2.1-1.9,2.2-3.2,2.9
			C168.7,305.4,166.7,304.2,164.7,303.2z"/>
		<path d="M458,616.6c2.9-2.8,7.1-2.4,10.9,0.9C466.6,618.5,460.7,618,458,616.6z"/>
		<path class="st0" d="M486.8,132.4c-0.3,0.4-0.7,0.8-1,1.3c-0.1-0.1-0.3-0.2-0.4-0.3c0.3-0.5,0.7-0.9,1-1.4
			C486.5,132.2,486.7,132.3,486.8,132.4z"/>
		<path class="st0" d="M483.4,189.7c-0.1,0.4-0.3,0.8-0.4,1.2c-0.1,0-0.2-0.1-0.3-0.1c0.1-0.4,0.2-0.8,0.4-1.3
			C483.1,189.6,483.2,189.6,483.4,189.7z"/>
		<path class="st0" d="M484.9,112.4c0.3-0.3,0.6-0.6,0.8-0.9c0.1,0.1,0.2,0.2,0.3,0.2c-0.2,0.3-0.4,0.7-0.7,1
			C485.2,112.6,485.1,112.5,484.9,112.4z"/>
		<path class="st0" d="M280.1,345.1c0-0.5,0-0.9,0-1.4c0,0,0,0,0.1,0C280.1,344.2,280.1,344.6,280.1,345.1
			C280.1,345.1,280.1,345.1,280.1,345.1z"/>
		<path class="st0" d="M336.8,345.4c-0.1-0.1-0.2-0.1-0.2-0.2c0-0.8,0-1.5,0.2-2.3C336.8,343.7,336.8,344.5,336.8,345.4z"/>
	</g>
</g>
</svg>
