<svg width="1211" height="559" viewBox="0 0 1211 559" fill="none" xmlns="http://www.w3.org/2000/svg">
<path d="M1163.98 -709.97C1156.56 -708.705 1149.13 -707.395 1141.71 -706.199C1134.86 -705.096 1128.02 -704.061 1121.18 -703.096C1110.45 -701.578 1099.72 -700.153 1089 -698.636C1083.82 -697.9 1078.65 -697.072 1073.51 -695.348C1074.78 -695.164 1076.04 -694.98 1077.32 -694.796C1077.32 -694.543 1077.32 -694.291 1077.32 -694.038C1063.34 -691.693 1049.31 -689.784 1035.41 -686.911C1012.62 -682.174 989.892 -677.071 969.641 -661.598C962.945 -656.471 955.574 -652.747 948.915 -647.528C946.762 -645.85 945.083 -641.666 944.664 -638.355C944.043 -633.274 942.474 -629.504 939.446 -626.308C936.071 -622.768 935.031 -618.905 935.998 -612.79C936.928 -606.835 935.268 -600.214 934.52 -593.915C933.772 -587.638 932.732 -581.431 931.82 -575.178C932.257 -575.408 932.714 -575.637 933.151 -575.867C934.812 -573.66 938.169 -570.947 937.859 -569.361C936.454 -562.234 940.869 -558.096 942.438 -552.647C945.996 -540.209 946.05 -538.232 938.205 -529.841C932.148 -523.357 925.799 -517.311 919.632 -510.989C919.103 -510.46 919.03 -509.264 918.556 -508.598C916.439 -505.586 915.108 -501.723 910.455 -504.023C906.733 -505.862 902.573 -503.724 899.873 -499.677C896.005 -493.884 892.466 -487.837 892.083 -479.676C891.882 -475.492 890.404 -471.928 886.883 -469.882C877.907 -464.709 868.894 -459.559 860.264 -453.582C854.973 -449.926 848.788 -446.041 847.894 -437.443C847.274 -431.442 848.022 -424.982 849.044 -418.981C851.069 -407.21 851.434 -396.175 845.358 -385.76C842.786 -381.346 841.983 -375.828 845.03 -370.886C850.576 -361.873 848.916 -352.999 845.267 -343.826C842.914 -337.917 841.107 -331.687 839.009 -325.618C838.225 -323.388 837.641 -320.859 836.382 -319.111C830.544 -310.927 828.136 -300.558 824.487 -290.948C819.707 -278.327 814.653 -266.073 805.786 -256.486C799.637 -249.842 795.149 -240.691 790.26 -232.346C785.808 -224.713 782.123 -216.368 777.507 -208.896C772.891 -201.424 770.118 -193.079 767.436 -184.411C765.94 -179.537 763.13 -175.215 760.503 -171.031C757.821 -166.755 754.756 -162.8 751.672 -158.961C747.586 -153.857 744.648 -148.546 745.159 -140.569C745.342 -137.534 743.17 -133.97 741.583 -131.074C738.025 -124.59 738.044 -115.348 731.749 -110.957C730.6 -110.152 729.779 -108.474 728.575 -107.899C715.092 -101.393 704.492 -90.1279 694.093 -77.7361C688.2 -70.7241 685.408 -62.2407 681.996 -53.9412C678.913 -46.4463 673.622 -42.2391 669.116 -36.7444C664.482 -31.0888 660.614 -24.3526 656.873 -17.6624C656.089 -16.26 657.184 -12.9724 657.695 -10.6503C658.716 -6.00629 659.993 -1.45422 661.07 3.18982C663.168 12.156 666.269 20.3636 670.831 27.8814C674.242 33.514 673.951 38.2731 669.864 43.0321C664.5 49.2854 658.589 54.8261 653.024 60.8265C651.053 62.9646 649.503 65.7005 647.532 67.8616C645.051 70.5974 642.351 73.0574 640.125 75.2415C639.34 77.8853 638.903 80.6672 637.771 82.8742C635.327 87.6792 635.728 92.2773 636.403 97.726C636.987 102.485 635.363 107.842 634.177 112.739C632.334 120.348 630.82 127.774 631.513 136.005C631.97 141.569 630.62 147.385 629.178 153.179C628.85 151.96 628.54 150.765 628.211 149.546C627.846 149.661 627.463 149.776 627.098 149.891C627.591 152.466 628.083 155.064 628.43 156.88C625.949 164.444 623.559 171.732 621.169 179.043C620.95 179.732 620.767 180.422 620.512 181.089C619.308 184.353 617.191 187.549 617.027 190.906C616.644 198.768 619.29 205.688 623.796 211.091C631.295 220.103 639.249 228.518 646.511 237.829C648.901 240.91 650.415 245.761 651.108 250.106C652.805 260.819 653.662 271.717 657.275 281.855C658.205 284.453 658.807 287.258 659.264 290.04C659.373 290.753 658.278 291.764 657.749 292.638C661.125 293.167 661.106 296.155 660.906 299.374C660.833 300.432 661.179 301.512 661.106 302.57C660.997 304.156 660.668 305.696 660.449 307.26C660.833 307.352 661.216 307.444 661.617 307.536C661.964 306.455 662.31 305.374 662.657 304.294C662.839 304.317 663.004 304.34 663.186 304.34C662.475 311.628 661.745 318.939 661.033 326.227C661.362 326.503 661.672 326.778 662 327.054C662 326.273 661.982 325.491 661.982 324.709C662.456 324.87 662.912 325.054 663.387 325.215C665.448 339.124 667.62 352.987 669.535 366.92C671.652 382.185 679.843 393.818 690.371 395.565C699.256 397.037 706.736 392.669 712.939 385.128C714.344 383.404 714.964 379.449 714.599 376.828C712.374 360.436 711.881 343.653 707.338 327.698C705.988 322.962 706.59 317.1 707.083 311.858C707.995 302.317 704.182 294.293 702.485 285.603C699.803 271.809 697.121 258.037 694.22 244.312C692.761 237.415 688.418 233.507 683.784 230.058C682.361 229.001 680.829 227.92 679.752 226.38C674.407 218.678 668.714 211.252 664.135 202.861C661.015 197.159 660.395 190.423 664.044 183.549C667.893 176.284 671.743 168.582 673.75 160.352C675.921 151.454 676.432 141.729 676.76 132.326C677.034 124.533 678.055 117.268 680.975 110.44C683.164 105.336 683.985 100.37 681.942 94.6913C680.227 89.9093 681.613 84.9664 684.24 81.4719C690.06 73.7701 696.264 66.4821 702.448 59.2402C707.758 53.0328 713.614 47.5152 718.522 40.871C719.927 38.9628 719.161 34.1118 718.814 30.7092C718.668 29.2148 717.172 27.8354 716.15 26.5939C709.929 18.8922 707.156 9.74207 707.885 -1.38525C708.068 -4.23605 706.918 -7.79959 705.477 -10.1216C703.561 -13.1793 703.014 -15.6393 704.346 -19.2028C707.885 -28.7208 714.636 -34.3994 720.328 -41.4344C727.042 -49.7569 732.789 -59.3439 739.394 -67.8043C749.374 -80.5869 757.912 -95.7605 771.431 -103.14C780.9 -108.313 787.158 -116.705 790.807 -128.407C792.522 -133.901 793.38 -139.833 794.839 -145.466C795.624 -148.454 796.445 -151.696 797.995 -154.064C801.444 -159.283 805.129 -164.318 809.125 -168.824C815.109 -175.583 817.718 -184.595 820.819 -193.446C825.764 -207.47 832.514 -220 840.779 -231.38C844.191 -236.07 846.07 -242.485 849.08 -247.749C851.434 -251.865 854.134 -255.819 857.217 -259.061C865.008 -267.199 868.547 -278.763 873.583 -289.201C876.119 -294.443 876.155 -300.604 878.6 -305.662C881.647 -311.938 885.186 -317.87 887.905 -324.353C891.572 -333.09 894.601 -342.263 898.049 -351.16C900.694 -357.942 899.125 -364.218 896.826 -370.357C894.82 -375.691 894.491 -380.702 897.155 -385.898C902.628 -396.635 900.968 -408.153 899.435 -419.763C898.633 -425.855 897.647 -432.385 898.56 -438.27C900.074 -447.972 907.007 -452.547 913.192 -457.145C919.65 -461.95 926.474 -465.974 933.133 -470.342C936.837 -472.779 937.311 -476.848 936.399 -481.354C934.885 -488.78 930.98 -493.815 924.485 -497.93C928.189 -503.448 931.491 -508.368 935.323 -514.092C935.286 -507.862 936.928 -504.275 940.686 -502.16C954.443 -494.505 968.163 -486.757 981.883 -478.963C984.127 -477.676 986.225 -475.951 989.436 -473.675C986.499 -471.79 984.711 -470.595 982.904 -469.491C973.527 -463.789 963.419 -461.743 953.293 -459.283C944.408 -457.122 937.275 -450.593 932.859 -440.408C931.674 -437.672 931.199 -433.672 931.765 -430.66C933.151 -423.143 935.341 -415.855 937.183 -408.475C938.844 -401.831 937.968 -395.531 934.903 -389.899C930.98 -382.703 929.74 -375.691 933.826 -367.828C937.749 -360.264 934.538 -353.114 932.257 -346.102C929.959 -338.998 927.423 -331.986 924.996 -324.951C924.394 -323.204 924.084 -321.112 923.099 -319.801C915.272 -309.203 912.499 -295.293 907.664 -282.764C903.814 -272.809 899.289 -263.843 892.32 -256.555C887.722 -251.75 884.438 -244.784 880.99 -238.415C874.641 -226.736 868.347 -214.988 862.563 -202.872C859.407 -196.274 857.546 -188.71 854.7 -181.836C853.039 -177.859 850.759 -174.203 848.46 -170.755C844.3 -164.525 839.721 -158.731 835.707 -152.386C834.302 -150.156 834.029 -146.799 833.226 -143.971C831.766 -138.913 830.307 -133.855 828.811 -128.821C826.822 -122.13 824.14 -116.038 819.36 -111.762C817.554 -110.152 816.021 -107.738 814.032 -106.773C798.287 -99.278 786.848 -84.6792 775.518 -69.8964C774.551 -68.632 774.022 -66.6088 773.712 -64.8156C771.979 -54.3549 767.874 -45.9865 761.233 -39.1354C756.507 -34.2384 752.512 -28.192 748.352 -22.4444C745.214 -18.0992 746.454 -13.3632 747.367 -8.14441C748.48 -1.75308 748.06 5.07498 748.115 11.7192C748.115 12.4319 746.819 13.1447 746.126 13.8574C747.203 14.4551 748.553 14.7309 749.282 15.7425C753.114 21.0073 757.347 25.9962 760.357 31.9737C762.838 36.8707 759.664 41.2848 756.799 44.6413C747.64 55.3548 738.299 65.8615 729.086 76.506C723.977 82.4145 722.116 89.3575 723.959 98.1628C724.579 101.129 723.813 105.083 722.664 107.98C719.817 115.199 719.033 122.693 718.668 130.602C718.212 140.442 717.026 150.236 715.95 160.03C715.731 162.007 714.709 163.869 713.888 165.685C710.713 172.651 706.681 179.204 704.437 186.63C701.81 195.297 704.766 203.412 709.582 209.919C716.333 219.046 722.317 229.162 731.184 235.599C735.818 238.978 737.259 245.669 737.752 251.807C739.011 267.532 743.882 281.924 747.276 296.891C748.607 302.8 748.206 309.306 748.626 315.559C749.045 321.813 749.209 328.158 750.067 334.319C751.308 343.171 753.132 351.884 754.573 360.666C754.683 361.402 753.752 362.39 753.497 362.896C754.373 367.149 755.522 371.564 756.161 376.07C757.784 387.542 761.743 396.301 771.65 398.669C772.508 398.876 773.292 399.405 774.095 399.773C774.624 408.44 774.642 408.578 768.001 410.486C752.931 414.808 737.843 419.016 722.737 423.131C721.04 423.591 719.215 423.2 717.026 423.2C717.026 413.475 717.026 404.233 717.026 395.497C711.334 401.75 706.298 408.739 700.204 413.705C684.66 426.396 667.747 428.534 650.561 419.705C639.742 414.142 634.104 402.095 631.295 388.485C629.123 377.955 628.485 366.943 626.879 356.229C625.949 350.022 624.27 343.998 623.249 337.791C621.807 329.009 619.198 320.226 623.778 311.398C625.475 308.133 626.095 303.995 627.263 300.064C620.859 300.776 622.72 306.984 621.935 311.375C621.278 305.397 620.621 299.42 619.873 292.615C619.892 292.592 620.786 291.718 622.172 290.362C621.151 288.959 620.439 287.419 619.381 286.706C616.407 284.683 615.404 280.913 616.006 276.177C616.206 274.705 614.491 272.82 613.506 270.797C613.834 270.544 614.619 269.946 616.334 268.613C614.437 268.751 613.543 268.797 612.813 268.843C611.554 265.026 611.572 260.612 611.189 256.497C610.788 252.06 609.711 248.313 608.635 244.22C607.358 239.415 604.931 236.909 602.012 233.852C594.623 226.104 587.872 217.368 580.757 208.93C582.18 207.505 582.892 206.769 584.005 205.665C581.925 204.723 580.392 204.01 579.462 203.596C578.695 200.378 578.276 197.504 577.364 194.929C575.813 190.538 576.761 186.721 578.86 183.296C580.52 180.606 582.855 178.56 584.442 175.801C585.628 173.732 586.011 170.95 586.924 168.605C588.62 164.26 590.445 159.984 592.58 154.742C590.719 150.972 590.81 146.282 592.762 140.005C594.112 135.683 596.812 130.441 594.933 124.211C593.054 117.934 595.663 111.888 598.837 106.784C601.465 102.577 603.873 99.1514 598.783 94.5763C595.827 91.9094 597.268 84.1617 599.987 81.104C602.614 78.1613 604.53 74.2299 607.066 71.1262C609.729 67.8846 612.776 65.1487 615.622 62.137C621.552 55.8147 627.573 49.6072 633.338 43.055C638.465 37.2155 638.246 32.9853 634.396 25.8123C630.09 17.7886 626.496 9.2363 625.365 -0.718506C625 -3.91415 623.468 -7.10983 621.972 -9.86868C619.326 -14.7196 619.162 -19.2028 622.318 -23.6169C625.493 -28.0541 628.357 -33.066 632.061 -36.6295C639.45 -43.7335 644.303 -53.2284 649.302 -62.6774C659.045 -81.0697 670.922 -96.3583 687.342 -105.302C694.02 -108.934 700.077 -113.555 702.394 -123.211C702.704 -124.521 704.364 -125.257 705.295 -126.407C708.196 -129.947 711.297 -133.304 713.778 -137.281C714.672 -138.683 714.326 -141.695 714.034 -143.833C713.359 -148.776 714.326 -152.432 717.482 -155.88C722.499 -161.375 727.48 -167.122 731.567 -173.652C734.413 -178.181 736.31 -183.974 737.624 -189.584C740.488 -201.746 746.965 -211.149 752.074 -221.586C756.215 -230.024 760.01 -238.737 764.371 -246.991C766.578 -251.175 769.297 -255.198 772.398 -258.279C782.415 -268.234 787.268 -281.959 790.643 -296.719C792.212 -303.593 794.547 -309.685 798.014 -315.387C800.586 -319.64 802.301 -324.767 804.144 -329.641C806.771 -336.63 809.307 -343.711 811.642 -350.884C813.704 -357.206 813.814 -363.667 810.675 -369.506C807.318 -375.783 807.245 -381.714 810.694 -387.944C816.714 -398.819 812.372 -409.486 810.201 -420.269C809.033 -426.039 807.282 -432.431 808.249 -437.879C809.125 -442.891 812.737 -447.857 816.131 -451.237C820.528 -455.605 825.91 -458.456 830.909 -461.835C834.995 -464.594 839.392 -466.755 843.187 -470.043C845.304 -471.882 847.694 -475.308 847.913 -478.25C849.39 -498.781 859.589 -511.632 871.521 -523.357C876.885 -528.622 881.793 -534.462 884.712 -542.646C887.887 -551.497 891.663 -560.004 895.184 -568.671C895.385 -569.154 895.659 -569.706 895.641 -570.212C894.838 -584.167 903.011 -593.8 906.368 -605.755C906.806 -607.341 907.518 -608.973 907.5 -610.56C907.372 -617.549 909.871 -622.699 914.469 -626.055C919.815 -629.964 922.15 -636.838 925.562 -642.677C926.364 -644.034 927.094 -645.965 928.189 -646.494C938.588 -651.505 944.354 -664.104 953.312 -670.978C961.339 -677.14 970.589 -681.531 979.748 -684.427C994.198 -689.003 1008.96 -692.152 1023.7 -694.98C1038.95 -697.9 1054.35 -699.808 1069.69 -701.946C1082.06 -703.671 1094.52 -704.59 1106.84 -706.774C1114.76 -708.177 1122.53 -711.027 1130.28 -713.671C1131.94 -714.246 1133.91 -716.292 1134.54 -718.269C1137.58 -727.856 1140.59 -737.512 1142.84 -747.444C1143.86 -751.973 1143.42 -757.192 1143.02 -761.997C1142.62 -766.802 1143.8 -770.158 1146.72 -773.009C1147.96 -774.228 1148.86 -775.998 1150.17 -777.883C1154.68 -774.113 1159.29 -770.25 1163.89 -766.388C1163.98 -747.536 1163.98 -728.753 1163.98 -709.97Z" fill="#FDECE6"/>
<path d="M1163.98 -163.95C1161.04 -159.536 1158 -155.214 1155.3 -150.57C1154.91 -149.926 1156.03 -147.558 1156.76 -146.247C1161.63 -137.304 1160.75 -134.476 1156.45 -124.797C1151.08 -112.704 1141.91 -110.084 1132.95 -106.52C1116.02 -99.8069 1098.9 -93.8294 1082.03 -86.9093C1075.81 -84.3574 1071.08 -79.6213 1068.71 -70.4942C1067.21 -64.7006 1066.14 -60.0797 1067.03 -53.8723C1067.8 -48.5385 1064.53 -43.9174 1060.83 -40.7218C1056.54 -37.0203 1054.28 -32.1004 1054.08 -25.4102C1053.93 -20.1685 1055.59 -16.5359 1059.09 -14.2139C1062.4 -12.0298 1065.75 -9.82278 1069.24 -8.14447C1075.57 -5.10974 1079.24 1.09766 1082.48 8.04074C1085.68 14.8459 1089.14 21.2601 1093.78 26.8927C1098.99 33.261 1097.63 37.2384 1091.79 43.0549C1076.92 57.8377 1059.22 65.0337 1042.16 74.1149C1035.98 77.4025 1030.16 81.8626 1024.37 86.2078C1020.96 88.7827 1021.07 91.4036 1024.05 94.8751C1024.83 95.7947 1025.56 96.8752 1026.49 97.427C1030.34 99.7491 1030.67 103.657 1028.61 107.359C1022.55 118.164 1026.44 126.97 1031 136.534C1034.41 143.684 1036.53 151.845 1038.77 159.754C1039.15 161.133 1037.66 163.984 1036.47 165.34C1032.49 169.824 1027.73 173.111 1025.91 180.33C1025.34 182.56 1022.2 183.871 1020.12 185.388C1014.65 189.365 1014.72 193.251 1016.78 199.757C1018.5 205.206 1022.55 209.436 1025.41 214.333C1026.22 215.689 1026.93 217.551 1026.89 219.161C1026.71 228.104 1029.3 232.817 1035.96 236.472C1047.8 242.956 1057.82 252.681 1066.54 264.659C1072.54 272.912 1078.85 280.798 1084.78 289.143C1085.99 290.845 1085.97 293.833 1086.77 296.086C1087.15 297.121 1088.05 298.179 1088.91 298.569C1091.02 299.535 1091.84 300.615 1090.44 303.443C1090.07 304.156 1090.97 305.995 1091.46 307.214C1092.04 308.662 1093.32 309.927 1093.41 311.375C1093.96 319.215 1096.71 326.158 1098.87 333.308C1101.11 340.757 1103.74 347.999 1105.78 355.516C1106.4 357.792 1104.87 361.08 1105.62 363.195C1108.72 372.046 1108.08 381.243 1107.73 390.393C1106.99 410.44 1100.91 428.189 1092.61 444.972C1079.13 472.146 1059.06 487.297 1035.14 495.849C1024.28 499.735 1013.26 501.965 1002.21 500.125C991.078 498.286 980.095 494.631 969.148 491.251C963.638 489.55 958.329 486.86 953.038 484.193C951.907 483.618 950.611 481.319 950.593 479.802C950.429 458.835 950.484 437.868 950.484 416.533C952.728 416.533 954.242 416.786 955.702 416.487C958.767 415.843 959.77 418.027 960.701 421.177C963.857 431.683 966.411 442.65 970.717 452.398C980.97 475.595 995.767 486.722 1016.77 484.17C1025.74 483.09 1033.53 477.549 1039.97 469.341C1051.21 455.041 1055.79 436.925 1059.09 417.889C1061.48 404.072 1061.5 390.232 1059.84 376.53C1057.83 360.022 1054.57 343.86 1047.78 329.1C1046.14 325.537 1045.79 321.031 1044.75 316.548C1045.43 316.686 1046.23 316.847 1047.03 317.008C1047.11 316.64 1047.29 315.996 1047.23 315.973C1043.15 313.582 1043.39 308.662 1042.67 304.156C1042.4 302.432 1041.25 300.868 1040.37 299.374C1030.58 282.913 1018.97 268.912 1005.36 257.417C992.975 246.933 969.458 243.99 955.811 252.474C949.407 256.451 943.532 262.061 940.394 270.268C938.114 276.2 937.493 283.12 936.143 289.511C935.523 289.511 935.213 289.626 935.049 289.488C932.239 287.074 927.167 284.798 927.058 282.2C926.766 275.096 927.952 267.624 929.703 260.75C931.181 254.911 934.282 249.738 936.599 244.22C939.227 237.967 938.424 236.128 933.425 232.587C925.835 227.184 917.99 222.012 911.185 215.252C896.881 201.067 895.823 181.296 903.194 162.605C911.021 142.764 919.121 123.222 924.832 102.186C926.93 94.4613 925.562 87.1273 925.452 79.5406C925.361 73.4941 925.58 67.2867 926.638 61.4012C928.554 50.6188 936.49 48.9864 944.043 44.3424C942.073 49.1474 940.613 52.389 939.373 55.7686C937.256 61.5621 938.862 66.0683 942.602 69.7927C950.009 77.1956 958.894 78.4601 967.579 77.1266C986.188 74.2758 1004.41 68.6891 1021.49 58.7343C1029.85 53.8604 1037.91 47.745 1045.36 40.8938C1051.32 35.3991 1050.59 31.9507 1046.29 25.8582C1041.56 19.1451 1036.4 12.7077 1032.57 5.21289C1028.32 -3.10959 1022.22 -6.76508 1015.42 -10.0297C1007.46 -13.8461 999.616 -18.0992 991.844 -22.4904C984.711 -26.5137 977.686 -25.3412 970.589 -22.7433C958.584 -18.3522 947.236 -12.7885 939.099 0.315948C935.614 5.92557 933.425 -0.948517 930.725 -1.89111C932.531 -14.6737 940.34 -20.8581 947.254 -27.7552C955.902 -36.3766 965.389 -43.8025 971.064 -56.3092C971.72 -57.7576 972.596 -59.3669 972.596 -60.9073C972.578 -68.632 975.807 -73.1152 981.609 -75.7131C985.148 -67.9883 991.078 -65.0226 997.938 -63.5052C1007.75 -61.3211 1017.61 -63.6201 1025.1 -70.1034C1047.34 -89.3233 1073.63 -94.3122 1098.03 -105.876C1103.45 -108.451 1108.7 -111.624 1113.86 -114.957C1116.93 -116.935 1118.08 -124.682 1116.04 -131.074C1114.37 -136.27 1112.22 -141.396 1109.59 -145.879C1107.81 -148.937 1108.1 -150.501 1109.34 -153.719C1112.44 -161.789 1117.35 -167.329 1122.8 -172.64C1129.13 -178.802 1129.65 -183.239 1126.76 -192.619C1125.38 -197.148 1124.34 -201.93 1123.64 -206.735C1122.57 -214.046 1118.48 -217.724 1113.72 -220.506C1106.86 -224.506 1099.74 -223.61 1092.74 -221.219C1075.55 -215.356 1061.36 -203.148 1049.55 -186.802C1044.33 -179.56 1040.89 -170.341 1036.03 -162.616C1029.68 -152.501 1022.77 -142.983 1015.95 -133.005C1014.34 -134.407 1012.88 -135.695 1010.86 -137.511C1012.57 -141.833 1013.68 -146.845 1016.13 -150.386C1024.96 -163.145 1033.31 -176.25 1041.05 -190.205C1050.63 -207.494 1064.02 -220.368 1077.7 -232.599C1091.88 -245.244 1103.01 -261.383 1110.42 -281.453C1113.61 -290.098 1119.83 -295.248 1125.89 -300.397C1131.16 -304.88 1136.62 -309.065 1141.74 -313.824C1146.1 -317.87 1146.19 -322.33 1144.1 -328.469C1139.02 -343.435 1131.82 -357.413 1129.57 -373.645C1129.06 -377.346 1131.51 -382.749 1133.86 -385.806C1142.02 -396.497 1152.45 -401.946 1164 -404.222C1163.98 -324.123 1163.98 -244.048 1163.98 -163.95ZM957.763 216.172C957.216 215.183 957.052 214.655 956.742 214.356C951.14 208.746 950.046 200.677 953.22 192.745C955.428 187.227 959.569 186.354 963.383 184.353C966.119 182.928 969.13 181.802 971.374 179.525C975.661 175.226 979.255 169.801 983.579 165.616C986.462 162.812 986.608 160.191 984.893 156.995C978.745 145.477 971.666 135.361 959.971 132.924C957.636 132.441 955.209 132.005 952.874 132.28C938.625 133.89 929.192 145.5 920.289 157.915C917.333 162.03 916.001 177.962 918.428 181.641C921.967 187.02 925.89 192.032 929.922 196.86C933.972 201.711 939.208 205.39 942.383 210.976C946.725 218.563 951.87 216.655 957.763 216.172Z" fill="#FDECE6"/>
<path d="M1163.98 -998.498C1153.91 -997.234 1143.84 -995.992 1133.77 -994.728C1133.81 -994.13 1133.84 -993.532 1133.88 -992.935C1137.53 -992.935 1141.19 -992.935 1144.84 -992.935C1144.92 -992.59 1144.97 -992.245 1145.04 -991.923C1143.49 -991.141 1141.83 -990.567 1140.41 -989.509C1137.6 -987.394 1134.79 -985.233 1132.31 -982.589C1131.54 -981.761 1131.23 -978.635 1131.84 -977.692C1134.01 -974.221 1132.84 -971.761 1131.01 -969.186C1117.62 -974.68 1108.37 -968.427 1107.68 -952.656C1099.96 -951.483 1092.13 -950.035 1084.27 -949.138C1069.13 -947.437 1053.99 -945.942 1038.82 -944.54C1028.46 -943.597 1018.04 -943.253 1007.68 -942.103C990.385 -940.149 973.18 -937.39 956.377 -931.573C934.684 -924.056 912.936 -916.768 891.371 -908.698C882.851 -905.502 875.024 -900.031 870.755 -889.179C870.299 -888.007 869.824 -886.742 869.751 -885.478C869.222 -877.546 869.168 -869.546 868.274 -861.683C867.234 -852.717 862.162 -847.337 856.214 -843.176C848.278 -837.635 840.67 -831.681 837.769 -819.887C836.966 -816.622 836.692 -813.15 835.962 -809.84C835.379 -807.196 834.795 -804.414 833.627 -802.161C831.219 -797.494 831.529 -794.689 835.889 -793.264C848.095 -789.286 860.21 -788.919 871.758 -796.643C874.568 -798.529 877.688 -800 880.06 -802.552C884.146 -806.943 888.507 -811.38 891.426 -816.921C897.045 -827.565 903.303 -836.922 912.024 -843.796C917.169 -847.843 919.504 -854.441 918.246 -862.419C918.154 -862.97 917.881 -863.683 918.045 -864.074C921.639 -872.051 921.092 -880.742 921.402 -889.478C921.639 -896.26 926.565 -900.353 930.98 -902.928C937.822 -906.951 945.065 -910.031 952.308 -912.767C966.302 -918.032 980.35 -923.205 994.526 -927.642C1007.97 -931.849 1021.53 -935.758 1035.21 -938.494C1046.3 -940.724 1057.67 -940.976 1068.89 -942.218C1081.75 -943.643 1094.62 -945.138 1107.46 -946.77C1118.52 -948.173 1129.54 -949.805 1140.57 -951.437C1142.49 -951.713 1144.39 -952.449 1146.01 -952.885C1146.01 -956.656 1146.01 -960.265 1146.01 -963.852C1146.54 -964.128 1147.07 -964.404 1147.6 -964.68C1150.96 -961.185 1154.33 -957.69 1158.73 -953.138C1149.61 -951.23 1141.85 -949.414 1134.06 -948.011C1122.49 -945.942 1110.89 -944.218 1099.3 -942.241C1090.26 -940.701 1081.04 -939.988 1072.27 -937.16C1064.33 -934.608 1056.98 -929.297 1049.19 -925.872C1041.43 -922.469 1033.51 -919.504 1025.52 -917.135C1022 -916.101 1017.99 -917.825 1014.45 -916.883C1003.06 -913.871 991.607 -910.951 980.551 -906.537C973.819 -903.847 967.287 -899.134 963.401 -890.95C962.306 -888.628 962.397 -885.363 962.033 -882.512C961.96 -882.006 962.434 -881.386 962.361 -880.88C961.285 -873.109 960.774 -865.085 958.84 -857.637C957.107 -850.9 951.998 -847.406 947.109 -844.279C942.803 -841.543 937.84 -839.635 934.41 -835.658C927.806 -828.048 922.168 -819.105 915.947 -810.943C913.466 -807.679 910.747 -804.506 907.718 -802.184C902.993 -798.551 898.943 -794.482 895.914 -788.39C892.156 -780.803 887.449 -773.998 883.526 -766.526C881.848 -763.33 880.625 -759.468 880.06 -755.698C879.147 -749.766 879.275 -743.559 878.272 -737.65C877.98 -735.903 875.188 -733.328 873.875 -733.604C865.355 -735.42 856.907 -737.765 848.515 -740.317C845.723 -741.168 844.775 -743.927 847.274 -746.639C849.208 -748.755 851.598 -750.203 853.769 -751.95C853.24 -752.64 852.693 -753.307 852.164 -753.996C852.054 -754.341 851.999 -754.847 851.799 -755.008C844.957 -760.962 845.048 -760.801 852.036 -766.779C854.225 -768.641 857.436 -772.044 857.199 -774.228C856.688 -778.895 852.547 -778.964 849.39 -779.033C844.537 -779.125 839.648 -779.194 834.85 -778.504C823.045 -776.826 812.682 -781.401 803.031 -789.424C799.254 -792.574 798.944 -797.54 802.721 -800.667C806.516 -803.816 807.957 -808.07 808.012 -813.219C808.139 -826.37 813.029 -835.566 821.823 -842.21C825.964 -845.337 830.307 -849.935 828.701 -856.579C826.986 -863.683 828.756 -869.293 830.416 -875.477C830.945 -877.454 830.726 -880.167 830.069 -882.144C828.172 -887.823 829.267 -892.283 832.332 -896.766C838.152 -905.319 845.96 -908.629 854.207 -911.457C869.314 -916.63 884.219 -922.699 899.344 -927.688C912.042 -931.872 924.868 -935.505 937.767 -938.54C944.974 -940.241 952.418 -940.264 959.77 -941.068C973.381 -942.563 987.009 -944.126 1000.62 -945.575C1005.27 -946.08 1009.94 -946.31 1014.6 -946.816C1028.06 -948.31 1041.52 -949.828 1054.99 -951.46C1056.87 -951.69 1058.71 -952.541 1059.77 -952.862C1060.66 -956.909 1061.08 -960.426 1062.2 -963.53C1064.51 -970.059 1067.4 -976.244 1069.62 -982.796C1071.57 -988.52 1075.33 -991.233 1079.56 -992.567C1085.22 -994.337 1091.04 -995.326 1096.84 -996.199C1108.04 -997.878 1119.26 -999.303 1130.48 -1000.73C1134.85 -1001.28 1139.21 -1001.67 1143.58 -1001.97C1150.39 -1002.43 1157.18 -1002.77 1163.98 -1003.14C1163.98 -1001.58 1163.98 -1000.04 1163.98 -998.498Z" fill="#FDECE6"/>
<path d="M1163.98 -1008.84C1159.68 -1008.09 1155.39 -1006.98 1151.05 -1006.61C1139.75 -1005.65 1128.42 -1005.17 1117.13 -1004.2C1101.07 -1002.82 1085 -1001.49 1068.98 -999.51C1058.73 -998.245 1048.57 -995.9 1038.37 -993.992C1030.4 -992.498 1024.9 -987.118 1021.95 -977.508C1020.6 -973.14 1018.48 -969.14 1017.15 -964.748C1016.09 -961.231 1015.69 -957.391 1014.78 -952.563C1008.23 -951.506 1000.71 -950.012 993.158 -949.138C978.489 -947.414 963.802 -945.942 949.115 -944.54C939.209 -943.597 929.247 -943.321 919.359 -942.103C903.887 -940.195 888.47 -937.988 873.419 -932.447C852.072 -924.584 830.507 -917.687 809.216 -909.595C803.323 -907.365 797.795 -902.927 792.65 -898.467C788.362 -894.743 786.83 -888.903 787.669 -881.868C788.18 -877.592 787.359 -872.994 786.72 -868.626C786.118 -864.488 784.896 -860.51 784.111 -856.418C782.743 -849.383 777.945 -846.486 773.84 -842.808C771.121 -840.394 768.093 -838.486 765.465 -835.911C762.145 -832.669 762.4 -830.738 765.739 -827.404C767.782 -825.381 769.625 -823.059 771.559 -820.852C769.023 -819.381 766.578 -817.082 763.933 -816.599C748.352 -813.817 733.92 -806.207 719.088 -800.253C716.46 -799.195 713.651 -798.827 710.075 -797.908C711.005 -799.701 711.315 -800.919 711.936 -801.379C717.519 -805.564 719.252 -813.265 722.609 -819.495C724.652 -823.289 723.649 -826.301 720.748 -827.933C716.625 -830.255 712.301 -832.048 707.995 -833.865C705.641 -834.853 703.178 -835.451 699.511 -836.646C704.145 -840.716 708.013 -840.417 711.863 -840.325C718.996 -840.164 726.13 -840.072 733.245 -840.072C738.992 -840.072 743.116 -844.026 745.67 -850.004C746.655 -852.303 746.801 -856.395 745.834 -858.602C743.572 -863.66 745.688 -867.66 746.4 -872.212C746.911 -875.523 746.892 -879.201 746.309 -882.489C745.451 -887.225 745.56 -891.202 747.805 -895.502C751.782 -903.134 757.492 -907.296 764.097 -909.825C780.371 -916.009 796.627 -922.285 813.029 -927.918C824.943 -932.01 837.002 -935.528 849.135 -938.516C855.867 -940.172 862.855 -940.264 869.733 -941.068C883.034 -942.586 896.334 -944.126 909.634 -945.574C914.578 -946.103 919.559 -946.264 924.503 -946.839C937.202 -948.287 949.918 -949.851 962.598 -951.483C964.021 -951.667 965.371 -952.541 965.572 -953.759C966.302 -957.323 966.721 -961.047 967.834 -964.427C969.677 -970.082 972.414 -975.301 973.892 -981.072C975.588 -987.693 979.146 -991.44 983.999 -992.659C992.337 -994.728 1000.82 -996.176 1009.27 -997.349C1021.97 -999.096 1034.72 -1000.43 1047.45 -1001.85C1052.42 -1002.41 1057.42 -1002.8 1062.4 -1003.14C1074.02 -1003.95 1085.64 -1004.52 1097.26 -1005.51C1108.68 -1006.48 1120.09 -1007.79 1131.49 -1009.03C1132.29 -1009.12 1133.06 -1009.86 1134.66 -1010.75C1131.96 -1011.1 1130.21 -1011.3 1128.44 -1011.53C1140.32 -1014.73 1152.14 -1011.79 1163.96 -1011.21C1163.98 -1010.38 1163.98 -1009.63 1163.98 -1008.84Z" fill="#FDECE6"/>
<path d="M1163.98 -700.774C1163.58 -700.498 1163.18 -700.015 1162.78 -700.015C1152.31 -699.969 1141.85 -699.992 1131.36 -699.28C1142.23 -700.153 1153.11 -701.05 1163.98 -701.923C1163.98 -701.556 1163.98 -701.165 1163.98 -700.774Z" fill="#FDECE6"/>
<path d="M1038.11 -414.268C1046.05 -409.854 1054.4 -406.061 1060.02 -397.026C1061.63 -394.451 1062.83 -390.037 1062.25 -387.071C1060.9 -380.151 1062.41 -374.449 1064.69 -368.472C1067.17 -361.966 1066.55 -358.563 1061.63 -354.494C1054.91 -348.953 1047.93 -343.941 1041.03 -338.791C1032.69 -332.538 1024.23 -326.56 1016 -320.123C1009.59 -315.111 1009.87 -310.398 1016.11 -305.087C1020.1 -301.685 1023.95 -297.891 1027.55 -293.845C1030.96 -290.006 1031.03 -285.523 1029.37 -279.867C1026.25 -269.223 1020.92 -261.728 1013.17 -256.233C1008.74 -253.083 1006.68 -240.967 1009.19 -234.254C1012.61 -225.173 1012.86 -215.977 1011.31 -206.298C1010.63 -202.114 1010.82 -197.539 1011.35 -193.263C1012.48 -184.158 1010.47 -177.1 1005.07 -170.686C1000.53 -165.283 996.769 -158.777 993.065 -152.386C992.189 -150.868 992.335 -147.512 993.029 -145.558C995.583 -138.339 993.886 -132.384 991.314 -125.671C986.625 -113.44 977.904 -109.463 968.891 -104.98C958.127 -99.6 947.381 -93.9214 937.182 -87.0473C927.567 -80.541 921.838 -70.1034 920.652 -55.6195C920.251 -50.7226 917.259 -45.5728 914.449 -41.7104C910.745 -36.6065 906.951 -31.8476 905.382 -24.9734C904.141 -19.5477 904.269 -14.8807 908.52 -11.4092C913.482 -7.33987 915.836 -1.82217 916.383 6.08649C916.876 13.2365 919.138 20.2945 924.155 25.3294C930.468 31.6517 929.227 37.4223 922.988 44.4113C911.001 57.8376 896.971 67.0338 883.196 76.8737C880.861 78.552 878.69 80.736 876.719 83.0811C871.647 89.1735 871.885 90.0471 874.566 98.3006C875.479 101.082 875.406 105.612 874.183 108.049C869.385 117.635 871.319 126.97 873.49 136.671C875.15 144.143 876.354 151.799 877.267 159.455C877.504 161.432 876.063 163.892 875.096 165.938C873.052 170.283 870.808 174.514 868.655 178.79C868.254 179.571 868.108 180.744 867.561 181.181C863.109 184.79 860.993 190.078 862.525 196.262C863.893 201.826 866.521 206.93 868.765 212.126C870.115 215.229 871.666 218.241 873.344 221.092C876.008 225.644 878.215 231.208 881.755 234.242C891.662 242.703 898.467 254.29 904.323 266.912C909.286 277.625 913.829 288.637 918.536 299.512C918.956 300.477 919.339 301.558 919.393 302.616C919.758 311.122 919.996 319.651 920.342 328.181C920.397 329.537 920.835 330.894 921.163 332.204C924.484 345.722 923.553 359.08 919.959 372.184C918.445 377.725 916.401 383.128 914.03 388.163C904.925 407.566 890.385 417.153 873.654 422.119C857.07 427.062 841.033 424.418 825.543 415.475C811.915 407.589 801.698 395.014 793.743 379.334C785.77 363.655 782.085 345.676 777.25 328.342C776.338 325.054 776.192 321.215 776.338 317.697C776.775 307.903 775.298 298.592 773.364 289.143C770.554 275.418 769.368 261.555 773.437 247.6C775.425 240.749 773.473 236.311 767.89 232.955C757.929 226.977 749.573 218.402 742.056 208.424C735.524 199.757 734.612 191.94 738.352 180.859C742.84 167.524 747.475 154.236 751.397 140.626C753.641 132.809 754.517 124.372 756.196 116.279C756.725 113.727 758.275 111.474 758.622 108.922C759.242 104.37 760.209 99.4041 759.37 95.128C757.308 84.5524 759.735 76.069 765.409 68.7121C772.214 59.8608 779.403 51.4464 786.153 42.5262C790.514 36.7556 789.966 32.9851 786.773 27.6744C783.453 22.1567 780.479 16.3172 777.615 10.4087C776.921 8.9603 777.122 6.70718 777.14 4.82199C777.177 -0.672699 777.505 -6.00647 775.024 -11.2023C774.148 -13.0415 774.586 -17.3407 775.772 -19.019C781.118 -26.6748 787.065 -33.6638 792.557 -41.1587C798.632 -49.4582 804.817 -57.7116 810.327 -66.6089C819.614 -81.5986 829.046 -96.5422 843.295 -104.037C853.457 -109.371 857.946 -119.257 861.102 -131.166C861.868 -134.062 862.744 -136.936 863.2 -139.925C864.787 -150.547 870.972 -157.444 876.318 -164.686C881.992 -172.364 886.644 -180.526 891.096 -189.423C897.026 -201.286 905.163 -211.54 912.99 -221.725C923.17 -234.99 934.08 -247.382 944.407 -260.463C947.125 -263.889 949.424 -268.211 950.993 -272.648C956.539 -288.328 966.136 -299.156 977.101 -308.421C985.585 -315.594 985.749 -318.675 981.188 -330.032C978.67 -336.285 978.506 -343.964 976.791 -350.792C974.985 -357.988 972.996 -365.207 970.314 -371.943C968.325 -376.955 968.453 -381.484 971.007 -385.255C978.652 -396.52 978.78 -411.05 982.082 -424.131C984.016 -431.81 986.935 -436.086 993.594 -436.914C1002.52 -438.04 1010.32 -434.201 1017.64 -428.293C1020.63 -425.879 1023.39 -423.028 1027.33 -419.372C1024.79 -418.844 1023.68 -418.453 1022.58 -418.407C1019.1 -418.2 1015.62 -418.2 1012.13 -417.97C1002.7 -417.395 1000.58 -414.866 1001.02 -402.957C1001.26 -396.658 998.393 -392.52 995.93 -388.06C991.496 -380.036 991.441 -377.116 995.182 -368.817C996.86 -365.092 997.79 -360.793 998.83 -356.655C999.615 -353.574 999.943 -350.309 1000.62 -347.183C1001.73 -342.102 1004.23 -338.975 1008.57 -338.377C1022.07 -336.492 1032.89 -342.93 1041.63 -355.459C1044.46 -359.506 1044.19 -364.517 1042.42 -369.024C1039.81 -375.599 1040.26 -381.852 1042.4 -388.335C1044.39 -394.382 1043.35 -399.831 1040.14 -404.911C1038.68 -407.233 1037.75 -410.061 1036.58 -412.682C1037.09 -413.165 1037.6 -413.717 1038.11 -414.268ZM820.344 314.134C821.566 320.824 822.788 329.123 824.631 337.193C826.018 343.308 829.174 348.964 829.849 355.125C831.619 370.874 837.147 387.358 845.704 401.75C852.91 413.889 864.55 415.13 872.779 402.118C876.482 396.255 877.759 389.542 877.996 382.277C878.325 372.207 879.493 362.046 878.854 352.091C877.997 338.32 874.621 324.686 874.548 310.984C874.494 299.121 869.75 289.787 867.524 279.188C866.046 272.13 863.456 265.325 860.774 258.773C857.836 251.6 855.391 243.025 850.666 238.358C841.197 228.955 834.939 216.586 827.915 204.953C824.412 199.136 823.755 191.664 827.185 184.675C830.597 177.732 834.009 170.789 837.329 163.777C838.004 162.329 838.552 160.581 838.625 158.949C838.898 152.075 840.139 144.81 838.844 138.373C836.545 126.901 838.679 117.107 842.365 106.968C843.368 104.186 842.839 100.048 842.091 96.8522C841.142 92.737 840.449 89.0356 842.894 85.541C844.846 82.7362 846.707 79.7245 848.969 77.3335C859.113 66.643 869.531 56.3203 879.584 45.4919C887.593 36.8705 887.52 34.2726 880.46 24.7087C880.04 24.1569 879.602 23.6281 879.164 23.0993C875.205 18.2484 873.089 12.4548 873.581 5.41977C874.001 -0.44278 873.837 -5.7995 870.224 -10.5125C867.998 -13.4323 866.977 -17.3867 869.312 -21.387C872.414 -26.6747 874.858 -32.9051 878.69 -37.1124C885.568 -44.6532 891.206 -53.0906 895.657 -63.0454C900.456 -73.7819 906.057 -83.9206 914.778 -90.197C923.006 -96.1055 931.745 -100.91 939.9 -106.98C943.914 -109.969 948.512 -113.831 950.409 -118.774C953.712 -127.349 956.521 -136.683 955.262 -146.868C955.062 -148.5 955.627 -150.73 956.466 -152.041C960.225 -157.926 964.056 -163.743 968.143 -169.284C972.631 -175.376 976.554 -181.583 977.247 -190.343C977.575 -194.665 978.761 -198.872 979.601 -203.125C981.717 -214 983.961 -224.805 985.95 -235.726C987.391 -243.68 987.391 -252.922 993.467 -257.635C1000.6 -263.176 1004.81 -270.97 1008.24 -280.097C1011.02 -287.477 1009.01 -292.995 1002.59 -294.374C990.602 -296.972 982.356 -290.581 977.94 -276.373C976.043 -270.28 973.525 -264.05 970.095 -259.222C960.553 -245.68 950.209 -233.036 940.521 -219.655C934.372 -211.172 927.549 -203.01 924.557 -191.745C921.692 -180.986 916.639 -172.502 910.545 -164.295C906.093 -158.317 901.204 -152.547 899.799 -143.236C897.263 -126.407 888.98 -114.452 876.938 -106.451C867.798 -100.382 858.274 -94.887 849.991 -87.2772C843.314 -81.1618 837.913 -72.7703 838.114 -60.6544C838.223 -53.5274 836.034 -46.9062 831.728 -41.5954C826.93 -35.6409 822.46 -29.2727 817.808 -23.1113C814.323 -18.4902 814.232 -13.6162 816.421 -8.0296C817.497 -5.29373 818.318 -1.89114 818.081 1.05161C817.278 11.0754 819.486 18.984 825.598 25.9041C831.947 33.0771 831.491 36.8935 825.215 44.4343C818.154 52.9407 811.203 61.5851 804.124 70.0685C797.939 77.4484 793.688 85.518 796.115 97.0362C796.662 99.6341 796.607 103.129 795.64 105.405C791.736 114.647 790.514 124.671 790.331 134.763C790.021 151.868 784.11 166.628 778.563 181.411C775.608 189.273 775.498 196.216 779.147 202.884C785.423 214.402 793.086 224.563 802.92 231.162C810.054 235.944 812.517 242.749 811.915 252.129C811.221 262.819 813.721 272.705 815.874 282.867C817.917 292.569 823.244 301.489 820.344 314.134Z" fill="#FDECE6"/>
<path d="M1064.13 -801.196C1066.68 -804.598 1068.91 -807.679 1071.24 -810.599C1071.94 -811.449 1072.94 -812.07 1073.89 -812.392C1086.24 -816.599 1098.66 -818.185 1110.87 -811.932C1114.59 -810.024 1119.61 -808.69 1120.27 -802.506C1121.29 -793.149 1121.89 -783.608 1121.73 -774.182C1121.67 -771.515 1118.57 -768.572 1116.47 -766.388C1112.75 -762.526 1108.02 -760.365 1106.11 -753.789C1102.72 -742.064 1098.79 -730.592 1095.18 -718.982C1093.56 -713.786 1089.8 -712.154 1086.24 -711.349C1075.8 -708.981 1065.28 -707.096 1054.75 -705.464C1041.07 -703.326 1027.35 -701.578 1013.63 -699.716C1004.52 -698.498 995.4 -697.601 986.333 -696.153C965.279 -692.773 944.352 -688.658 924.593 -678.083C919.01 -675.094 914.686 -670.427 912.388 -663.851C909.706 -656.219 904.852 -652.747 899.288 -650.356C893.723 -647.965 888.597 -644.861 885.148 -638.815C881.354 -632.194 876.245 -625.641 874.895 -618.147C872.505 -604.973 866.192 -594.651 862.087 -582.788C861.777 -581.914 861.376 -581.017 861.303 -580.098C859.971 -565.131 852.345 -554.004 846.889 -541.474C840.595 -527.036 829.247 -519.173 820.599 -507.839C814.907 -500.39 812.097 -491.263 811.203 -481.584C810.528 -474.181 807.645 -471.124 802.829 -468.089C792.685 -461.675 782.705 -454.732 773.09 -447.122C766.467 -441.88 765.154 -433.718 767.416 -424.062C768.985 -417.349 770.189 -410.038 769.77 -403.164C769.386 -396.796 766.887 -390.52 764.807 -384.473C763.238 -379.921 762.818 -375.898 764.971 -371.598C769.496 -362.586 769.532 -353.436 765.865 -343.872C762.964 -336.308 761.724 -327.319 757.765 -320.928C749.409 -307.478 746.927 -290.627 739.867 -276.648C736.948 -270.878 733.39 -265.613 729.905 -260.348C725.526 -253.727 720.491 -247.704 716.495 -240.761C708.906 -227.564 701.681 -214 694.638 -200.321C692.339 -195.86 690.26 -190.757 689.457 -185.63C687.979 -176.296 682.706 -170.64 678.09 -164.318C675.463 -160.708 672.343 -157.697 669.479 -154.386C666.724 -151.213 666.013 -146.684 667.399 -143.029C668.767 -139.442 667.198 -137.764 666.067 -135.81C662.71 -130.039 658.386 -125.464 656.014 -118.406C654.427 -113.693 650.14 -109.279 646.235 -107.21C634.869 -101.186 625.692 -91.7144 617.099 -81.0239C615.603 -79.1617 614.216 -77.1155 612.501 -75.6671C606.718 -70.7932 605.112 -62.4707 602.138 -55.4587C599.31 -48.8145 595.643 -43.6187 591.228 -38.7677C586.959 -34.0777 583.054 -28.8128 579.186 -23.571C576.103 -19.4098 575.264 -14.7888 578.019 -9.547C579.132 -7.40891 579.387 -4.60406 580.299 -2.25903C580.865 -0.833649 581.832 0.407837 582.799 1.46539C583.328 2.04013 584.204 2.20105 584.952 2.31601C591.483 3.32758 596.738 6.10947 598.161 15.5125C598.599 18.4782 600.186 21.1681 601.335 24.2258C600.241 24.7086 598.891 25.5592 597.468 25.8811C593.326 26.8237 590.845 28.548 592.614 34.9623C593.162 36.9165 591.812 40.6179 590.425 42.3422C582.708 51.8142 574.698 60.8724 566.835 70.1605C563.186 74.4597 559.227 78.1381 557.238 84.6214C555.925 88.9206 556.545 92.2082 557.056 96.1165C557.475 99.4272 557.895 103.404 556.855 106.209C553.334 115.658 552.622 125.567 552.13 135.752C551.564 147.684 550.269 159.133 544.85 169.938C541.438 176.744 537.589 184.284 537.935 193.572C538.264 202.539 543.026 207.643 546.912 213.896C552.823 223.368 560.869 229.414 567.984 236.955C570.976 240.128 573.366 246.841 573.111 251.715C572.527 262.98 577.143 272.107 579.022 282.269C580.099 288.063 581.741 293.741 582.361 299.604C582.872 304.524 582.27 309.651 582.16 314.663C581.704 314.754 581.248 314.846 580.81 314.938C582.106 316.111 583.383 317.283 584.623 318.41C583.62 323.698 582.744 328.434 586.393 333.009C587.67 334.595 586.904 338.664 587.232 341.561C587.397 343.033 587.707 344.619 588.345 345.814C590.498 349.792 590.954 356.137 589.932 357.264C592.706 372.023 592.724 386.599 594.713 401.198C600.113 401.198 605.404 401.198 610.695 401.198C610.841 401.566 611.042 401.865 611.096 402.187C612.246 409.475 609.983 413.245 604.182 415.521C592.359 420.119 584.404 431.637 576.796 443.063C573.695 447.753 572.108 454.076 569.955 459.731C569.006 462.26 568.112 463.985 565.412 463.709C561.343 463.295 557.22 463.594 553.133 463.594C553.243 461.088 553.462 458.743 553.425 456.421C553.243 445.661 553.078 434.902 552.586 424.188C552.531 423.062 550.378 421.223 549.174 421.2C538.994 420.97 528.831 421.062 518.377 421.062C519.07 416.418 519.673 412.417 520.275 408.417C521.15 402.508 524.489 401.29 528.594 401.359C535.107 401.474 541.621 401.382 548.134 401.474C551.692 401.52 553.297 400.692 552.349 395.129C550.78 385.955 550.123 376.506 549.265 367.149C549.046 364.781 549.594 362.298 549.794 360.045C548.317 351.562 546.766 342.78 545.233 333.997C545.525 334.273 546.073 334.779 547.733 336.319C547.021 333.675 546.966 331.468 546.237 331.032C542.898 328.962 543.956 325.399 544.12 322.318C544.54 314.915 545.306 307.535 545.726 300.133C545.799 298.868 544.887 297.443 544.285 296.201C541.621 290.638 538.756 285.166 540.271 278.108C540.453 277.257 540.49 275.763 540.125 275.418C533.757 269.67 536.33 259.831 533.52 252.474C533.028 251.186 533.922 249.048 534.068 247.968C532.462 244.749 531.422 241.392 529.543 239.162C524.307 232.886 518.468 227.391 513.36 220.954C509.547 216.172 506.427 210.493 503.143 205.045C498.892 197.987 499.056 190.009 502.979 182.698C506.409 176.307 510.496 170.053 512.466 162.926C514.856 154.282 516.443 144.764 516.334 135.683C516.188 124.556 518.341 114.693 521.771 104.83C522.5 102.761 522.865 99.703 522.19 97.7719C519.399 89.8402 521.004 83.104 525.712 77.8622C532.9 69.8616 540.672 62.7115 548.006 54.8949C552.622 49.9749 556.873 44.5493 562.073 38.4108C551.145 33.353 541.329 38.3189 531.495 38.043C530.802 35.7669 530.163 33.6059 529.251 30.5941C534.049 29.3297 538.884 28.5479 543.409 26.6628C546.145 25.5362 550.761 27.2606 551.017 20.8233C551.309 13.3284 547.824 5.44275 543.299 3.81042C537.169 1.60336 530.984 -0.350861 524.781 -2.21307C519.107 -3.91437 513.579 -5.61563 513.579 -16.4211C515.148 -16.4211 517.173 -16.697 519.125 -16.3751C525.566 -15.3176 531.951 -13.8232 538.41 -12.9725C541.493 -12.5587 543.044 -14.8807 544.795 -18.5592C547.97 -25.2034 552.075 -31.5257 556.782 -36.5146C564.08 -44.2164 567.82 -54.2172 571.031 -64.9077C571.597 -66.7928 572.162 -68.816 573.184 -70.3104C578.074 -77.4144 583.109 -84.3574 588.893 -92.473C576.304 -93.5076 565.175 -87.4152 552.787 -86.8634C559.482 -95.8756 566.963 -101.439 575.081 -106.06C581.212 -109.555 587.324 -113.509 590.407 -121.947C590.808 -123.05 591.556 -124.177 592.396 -124.774C597.194 -128.269 602.12 -131.534 606.918 -135.051C610.987 -138.04 615.183 -138.982 619.945 -138.523C625.181 -138.017 630.527 -138.592 635.799 -139.189C638.591 -139.511 640.507 -141.213 639.394 -145.765C638.226 -150.524 639.558 -154.34 643.28 -156.639C644.21 -157.214 644.885 -158.455 645.816 -159.03C655.139 -164.778 660.065 -175.146 662.528 -186.94C665.228 -199.976 671.869 -209.885 677.123 -220.966C681.356 -229.863 685.169 -239.082 689.493 -247.911C691.318 -251.635 693.471 -255.566 696.262 -257.98C704.782 -265.452 709.599 -275.821 712.135 -288.029C714.561 -299.685 717.59 -310.835 724.395 -319.824C725.563 -321.365 726.147 -323.71 726.731 -325.825C729.23 -334.699 731.93 -343.481 733.937 -352.517C735.251 -358.448 735.068 -365.069 731.693 -369.897C727.351 -376.128 727.88 -382.059 731.055 -388.106C735.087 -395.784 735.233 -402.543 731.839 -411.28C728.61 -419.648 724.632 -428.867 726.457 -438.937C727.132 -442.639 729.121 -446.846 731.529 -448.961C737.112 -453.858 743.297 -457.743 749.317 -461.835C753.514 -464.686 757.947 -467.008 762.07 -470.043C764.698 -471.974 766.194 -474.894 766.449 -479.354C767.124 -490.757 770.518 -501.149 777.232 -508.966C783.727 -516.529 791.207 -522.737 797.629 -530.37C800.694 -534.002 802.482 -539.451 804.58 -544.256C807.901 -551.866 810.984 -559.636 814.177 -567.338C814.797 -568.832 816.038 -570.281 816.038 -571.775C816.111 -584.903 823.609 -594.145 826.985 -605.502C827.404 -606.904 828.207 -608.261 828.262 -609.663C828.59 -618.055 831.856 -623.94 837.129 -628.906C840.121 -631.734 841.836 -636.7 844.773 -639.666C849.188 -644.126 854.133 -647.804 858.949 -651.621C861.85 -653.92 864.678 -655.828 865.663 -660.633C868.254 -673.346 876.774 -677.324 885.367 -681.117C900.529 -687.83 916.182 -691.716 932.128 -694.015C946.998 -696.153 961.812 -698.705 976.682 -700.774C984.746 -701.9 992.919 -701.946 1000.97 -703.257C1015.34 -705.602 1029.77 -707.809 1043.97 -711.395C1055.53 -714.315 1056.15 -715.763 1056.83 -730.316C1057.27 -739.788 1059.8 -748.226 1063.64 -755.882C1065.73 -760.066 1069.6 -762.986 1072.94 -766.02C1078.94 -771.492 1083.45 -781.378 1081.02 -787.47C1078.01 -795.057 1072.81 -800.276 1065.57 -800.943C1065.08 -800.92 1064.68 -801.058 1064.13 -801.196Z" fill="#FDECE6"/>
<path d="M568.713 -164.846C572.198 -157.559 567.473 -155.328 564.426 -152.501C555.322 -144.086 544.922 -143.764 534.322 -145.765C531.184 -146.362 528.028 -147.282 525.09 -148.753C524.032 -149.282 523.631 -151.88 522.919 -153.535C524.069 -153.88 525.2 -154.501 526.349 -154.547C530.819 -154.662 535.307 -154.593 539.832 -155.42C537.843 -155.972 535.855 -156.524 533.866 -157.053C533.793 -157.788 533.702 -158.501 533.629 -159.237C537.989 -161.191 542.35 -163.145 547.112 -165.283C545.999 -167.008 545.105 -168.364 543.974 -170.134C547.55 -175.652 553.297 -172.203 557.475 -175.767C555.139 -176.778 552.986 -177.721 549.447 -179.284C552.567 -180.549 554.391 -182.02 556.143 -181.905C570.191 -181.009 579.605 -191.331 588.381 -202.964C593.581 -209.838 598.434 -217.149 603.159 -224.552C609.052 -233.748 607.994 -238.645 599.766 -244.301C596.482 -246.554 593.38 -249.405 590.57 -252.486C586.757 -256.67 587.049 -261.912 590.953 -266.004C592.358 -267.475 594 -268.602 595.204 -270.257C596.098 -271.476 597.193 -273.637 596.865 -274.786C596.39 -276.441 594.876 -278.327 593.526 -278.786C585.626 -281.545 579.386 -277.43 575.883 -268.165C575.044 -265.958 573.256 -264.027 571.541 -262.67C566.688 -258.808 560.905 -256.279 556.891 -251.405C553.096 -246.784 550.98 -239.887 548.316 -233.84C547.075 -231.036 546.382 -227.863 545.251 -224.966C543.59 -220.713 541.821 -216.529 539.996 -212.367C537.898 -207.586 535.672 -202.872 532.972 -196.964C532.68 -200.596 532.498 -202.826 532.242 -205.769C532.042 -203.056 531.896 -201.056 531.75 -199.056C531.513 -199.033 531.294 -199.01 531.056 -198.987C530.819 -201.378 530.564 -203.769 530.29 -206.505C530.071 -205.148 529.907 -204.091 529.743 -203.056C529.195 -210.735 528.21 -218.391 531.695 -225.587C532.534 -227.334 532.607 -230.139 532.242 -232.231C530.108 -244.577 534.249 -253.244 541.93 -260.072C547.422 -264.946 551.709 -271.062 553.406 -279.361C554.264 -283.568 554.172 -288.052 554.756 -292.374C555.559 -298.351 556.581 -304.306 560.923 -308.053C561.689 -308.697 563.276 -309.318 563.714 -308.835C571.158 -300.857 580.335 -298.121 589.403 -294.995C598.032 -292.006 606.571 -288.304 615.328 -286.143C620.218 -284.948 625.563 -285.707 630.599 -286.534C635.069 -287.27 636.674 -292.673 637.039 -297.179C637.678 -305.156 640.889 -310.95 644.848 -316.56C646.235 -318.537 647.53 -320.698 648.625 -322.951C651.27 -328.4 649.61 -332.998 644.647 -333.572C641.181 -333.963 637.568 -334.4 634.211 -333.595C614.088 -328.698 594 -323.48 573.913 -318.307C571.87 -317.778 569.899 -316.858 567.546 -315.962C567.235 -317.686 566.688 -318.997 566.871 -320.123C568.805 -331.802 570.83 -343.412 576.996 -353.114C581.339 -359.965 584.093 -367.437 584.933 -376.679C585.48 -382.657 589.238 -388.588 592.413 -393.692C596.591 -400.405 597.102 -403.44 592.358 -409.326C587.177 -415.763 583.893 -423.602 581.357 -431.971C578.766 -440.546 584.604 -455.099 592.504 -460.755C595.624 -462.985 598.561 -465.698 601.791 -467.652C606.589 -470.595 607.921 -475.492 606.534 -481.285C602.283 -498.919 609.453 -510.828 619.707 -519.656C629.632 -528.208 635.543 -539.796 640.56 -552.762C642.586 -558.027 645.578 -562.832 646.946 -568.326C649.592 -578.971 655.065 -587.569 658.842 -597.294C660.867 -602.49 660.447 -609.157 661.341 -615.112C661.742 -617.779 662.107 -620.859 663.384 -622.859C666.997 -628.561 670.81 -634.148 675.025 -639.114C678.6 -643.321 682.924 -646.471 686.792 -650.31C690.113 -653.598 693.853 -656.586 696.334 -660.724C702.172 -670.472 710.091 -675.576 718.994 -678.979C737.093 -685.922 755.556 -690.497 774.385 -692.865C792.374 -695.118 810.345 -697.555 828.352 -699.716C845.32 -701.762 862.36 -703.165 879.291 -705.625C889.763 -707.142 900.126 -710.108 910.526 -712.476C911.712 -712.752 912.861 -713.303 913.974 -713.901C919.265 -716.821 919.867 -718.982 917.039 -725.235C916.218 -727.052 915.251 -728.776 914.229 -730.431C908.811 -739.167 909.413 -751.835 915.616 -759.813C921.527 -767.423 927.712 -774.734 933.131 -782.849C936.47 -787.838 939.589 -787.424 943.421 -785.079C954.149 -778.527 963.764 -770.021 972.302 -759.468C976.152 -754.709 983.066 -753.835 987.007 -757.514C990.601 -760.87 994.269 -764.319 997.297 -768.434C1002.48 -775.515 1007.46 -782.757 1007.33 -793.586C1007.3 -796.345 1009.56 -799.724 1011.47 -801.839C1014.79 -805.518 1015.51 -809.242 1014.23 -814.507C1010.74 -828.876 999.468 -837.428 986.624 -834.899C980.111 -833.612 973.616 -832.232 966.61 -831.566C967.777 -832.6 968.836 -834.003 970.113 -834.646C980.056 -839.566 990.127 -844.118 999.997 -849.268C1004.7 -851.705 1009.17 -854.97 1013.52 -858.326C1014.92 -859.407 1015.43 -862.189 1016.73 -863.729C1017.97 -865.223 1019.65 -867.04 1021.18 -867.109C1028.99 -867.454 1036.83 -867.545 1044.62 -867.086C1046.1 -866.994 1047.47 -864.005 1048.87 -862.35C1050.95 -859.89 1052.8 -856.97 1055.15 -855.039C1060.08 -850.992 1061.35 -847.36 1058.76 -841.13C1056.23 -835.06 1054.9 -829.175 1055.13 -821.933C1055.41 -814.139 1052.78 -806.851 1048.44 -800.299C1044.59 -794.505 1041.7 -787.286 1039.68 -780.113C1037.44 -772.136 1033.02 -767.675 1027.62 -764.089C1022.35 -760.571 1018.9 -756.111 1018.42 -747.835C1018.15 -743.03 1015.6 -738.409 1014.01 -733.742C1012.53 -729.397 1010.87 -725.121 1009.45 -720.729C1006.69 -712.2 1000.18 -711.418 994.524 -710.246C982.099 -707.648 969.547 -706.107 957.013 -704.291C940.611 -701.923 924.173 -700.015 907.807 -697.325C891.679 -694.658 875.533 -691.854 859.569 -687.945C851.286 -685.922 843.386 -681.485 835.358 -677.898C830.213 -675.599 826.82 -670.587 825.196 -664.311C823.718 -658.586 821.31 -654.724 816.949 -652.333C808.21 -647.528 802.262 -638.631 796.041 -629.941C791.772 -623.986 787.904 -618.836 786.609 -609.985C785.423 -601.823 780.387 -594.627 777.523 -586.719C776.191 -583.04 776.081 -578.649 775.242 -574.649C774.768 -572.35 774.111 -570.097 773.272 -567.982C771.721 -564.119 769.842 -560.487 768.364 -556.578C763.128 -542.784 757.873 -529.036 747.164 -520.323C737.184 -512.207 730.616 -500.735 726.602 -486.826C726.255 -485.607 726.146 -484.228 726.073 -482.917C725.617 -475.813 722.679 -471.307 717.461 -468.594C708.905 -464.157 700.312 -459.766 692.065 -454.547C686.902 -451.283 682.213 -446.754 677.579 -442.363C673.583 -438.569 674.185 -432.201 674.441 -427.212C675.207 -412.751 676.995 -398.359 670.865 -384.91C668.584 -379.921 669.606 -375.76 672.78 -372.104C674.003 -370.702 675.426 -369.529 676.575 -368.035C682.012 -360.816 686.044 -351.482 681.319 -341.228C679.64 -337.573 679.495 -332.837 678.4 -328.721C677.597 -325.71 676.904 -322.307 675.28 -320.054C668.986 -311.249 666.468 -300.167 662.892 -289.684C658.55 -276.901 653.405 -265.222 644.246 -256.21C638.408 -250.462 635.087 -240.852 629.833 -233.955C620.382 -221.518 610.293 -209.884 600.568 -197.792C595.241 -191.147 590.278 -184.043 584.86 -177.537C581.977 -174.089 578.529 -171.307 575.154 -168.571C573.274 -166.962 571.049 -166.157 568.713 -164.846ZM645.943 -505.172C641.911 -497.355 639.958 -488.734 640.378 -479.446C640.561 -475.216 639.429 -472.48 636.656 -470.572C632.186 -467.491 627.698 -464.502 623.21 -461.468C615.547 -456.272 608.56 -450.087 606.06 -438.868C603.871 -429.051 604.126 -419.211 607.957 -409.992C610.457 -403.992 610.457 -398.566 607.1 -393.048C605.549 -390.496 604.272 -387.554 603.378 -384.542C602.393 -381.208 600.879 -377.208 601.535 -374.15C603.925 -362.954 601.9 -353.298 597.12 -343.918C595.442 -340.607 595.989 -337.504 599.62 -336.814C601.718 -336.4 603.925 -335.871 605.969 -336.331C621.039 -339.757 636.109 -343.274 651.106 -347.252C652.657 -347.665 654.426 -351.045 654.828 -353.39C656.068 -360.77 652.73 -366.15 648.862 -370.978C642.659 -378.725 642.914 -378.978 646.344 -388.68C647.986 -393.301 649.482 -399.302 648.515 -403.785C646.453 -413.211 642.695 -422.062 639.685 -431.166C638.17 -435.741 638.134 -440.684 641.327 -443.673C647.001 -449.007 653.003 -453.95 659.243 -458.157C666.34 -462.939 673.966 -466.433 681.118 -471.078C685.661 -474.02 687.084 -483.17 683.8 -485.653C681.775 -487.194 679.494 -488.274 677.287 -489.378C667.033 -494.551 656.762 -499.723 645.943 -505.172ZM961.483 -756.755C955.316 -765.859 947.526 -765.009 939.808 -761.491C937.345 -760.365 934.919 -757.008 933.751 -753.904C930.558 -745.398 929.883 -736.524 931.398 -726.937C933.113 -716.085 932.036 -714.131 923.334 -711.901C910.964 -708.728 898.448 -706.314 885.914 -704.383C872.468 -702.314 858.912 -701.349 845.411 -699.647C828.516 -697.509 811.64 -695.072 794.746 -692.796C778.125 -690.543 762.051 -685.646 746.397 -678.266C740.358 -675.415 735.505 -670.748 733.827 -663.254C732.203 -655.943 728.08 -653.414 723.646 -650.149C719.158 -646.861 714.871 -642.907 711.021 -638.516C706.825 -633.757 703.121 -628.285 699.454 -622.837C697.958 -620.606 696.973 -617.756 696.061 -615.02C694.747 -611.089 693.78 -606.95 692.503 -602.996C690.587 -597.018 688.507 -591.133 686.172 -584.236C688.27 -584.236 689.128 -583.914 689.693 -584.282C697.903 -589.776 707.226 -593.846 707.901 -608.514C708.211 -615.227 710.474 -620.583 715.199 -624.699C720.673 -629.481 726.018 -634.906 726.31 -644.654C726.347 -645.919 727.989 -647.183 728.992 -648.287C736.29 -656.402 745.522 -659.276 754.443 -662.909C769.896 -669.185 785.404 -675.323 800.931 -681.324C808.484 -684.244 816.037 -687.37 823.755 -689.187C834.628 -691.761 845.666 -693.325 856.65 -695.118C866.757 -696.773 876.901 -698.337 887.045 -699.624C895.292 -700.682 903.593 -701.119 911.839 -702.13C922.768 -703.464 933.715 -704.705 944.589 -706.682C954.842 -708.544 965.059 -710.935 975.166 -713.786C980.731 -715.35 981.917 -718.752 982.118 -725.879C982.282 -731.673 979.49 -734.087 975.987 -735.903L961.483 -756.755ZM781.701 -664.702C774.166 -660.449 767.105 -656.885 760.391 -652.471C757.235 -650.402 753.367 -647.367 752.236 -643.62C750.101 -636.493 747.036 -631.021 742.42 -626.262C739.282 -623.02 735.889 -620.239 734.32 -614.445C732.331 -607.111 730.342 -599.478 725.069 -593.915C716.75 -585.132 707.317 -577.799 700.914 -566.28C699.947 -564.556 697.757 -563.797 697.009 -562.027C691.408 -548.693 684.84 -536.209 676.74 -525.082C673.948 -521.242 674.204 -517.656 675.992 -513.633C679.02 -506.827 683.654 -502.505 688.799 -500.229C693.926 -506.322 698.706 -512.322 703.778 -517.932C707.354 -521.886 711.386 -525.197 715.09 -528.967C723.865 -537.864 726.857 -551.038 730.744 -563.453C732.969 -570.557 734.155 -578.143 736.345 -585.247C738.133 -591.041 741.307 -596.191 742.767 -602.076C745.686 -613.824 748.039 -624.837 756.395 -633.757C761.613 -639.321 765.937 -646.241 772.359 -650.218C776.702 -652.908 781.573 -655.391 781.701 -664.702Z" fill="#FDECE6"/>
<path d="M321.831 425.36C321.831 414.486 321.831 405.152 321.831 395.841C316.594 401.91 311.924 408.026 306.669 413.176C304.024 415.773 300.795 417.797 297.766 419.705C293.88 422.119 289.465 423.475 285.159 424.464C280.89 425.429 276.456 426.027 272.151 425.613C255.42 424.05 244.218 416.601 237.833 393.45C237.249 391.335 238.234 388.553 238.362 387.265C237.157 385.242 235.88 384.024 235.68 382.552C234.64 375.494 234.001 368.321 233.016 361.24C231.447 350.044 229.568 338.917 228.108 327.721C227.543 323.444 227.725 319.03 227.616 314.662C227.415 306.133 227.616 297.534 226.977 289.074C226.12 277.74 224.696 266.451 223.365 255.186C222.252 245.852 219.497 237.529 212.491 232.839C202.402 226.08 198.023 213.712 193.754 201.711C191.528 195.434 194.903 189.365 198.844 184.652C204.5 177.87 210.155 171.087 215.629 164.075C218.42 160.512 220.044 156.328 217.928 151.086C217.326 149.615 217.088 147.729 217.125 146.051C217.563 130.946 219.004 116.508 225.773 103.013C232.998 88.5982 243.142 82.8046 255.749 82.8506C260.146 82.8736 265.072 84.9887 268.794 88.0234C277.77 95.3344 287.02 93.679 296.398 91.1041C298.021 90.6673 299.554 87.7245 300.448 85.5175C303.55 77.7697 307.947 73.4016 315.226 73.7234C324.294 74.1143 333.379 73.8154 342.447 73.8154C342.629 74.3212 342.794 74.804 342.976 75.3098C341.517 76.5513 340.093 77.9307 338.561 79.0113C334.876 81.5862 331.135 84.0921 327.377 86.506C324.476 88.3913 323.327 91.449 323.838 95.3114C324.677 101.703 322.068 106.83 320.626 112.531C319.13 118.371 319.276 124.923 318.93 131.199C318.401 140.694 318.072 150.189 317.616 159.684C317.58 160.604 317.434 161.661 317.032 162.42C313.11 169.708 309.26 177.042 305.137 184.146C302.856 188.054 301.871 198.216 304.425 202.538C310.793 213.321 317.415 224.057 326.629 231.184C333.434 236.449 337.63 243.001 338.342 253.186C339.4 268.52 344.6 282.407 348.34 296.822C349.489 301.282 350.201 306.018 350.475 310.685C351.004 320.41 351.898 329.905 355.255 338.871C356.258 341.538 356.276 344.779 356.733 347.768C358.521 359.309 360.144 370.896 362.115 382.368C363.629 391.197 368.592 396.232 375.068 399.174C376.437 399.795 377.86 400.255 379.301 400.83C379.301 403.727 379.301 406.37 379.301 409.359C360.4 414.624 341.571 419.866 321.831 425.36ZM260.273 289.672C262.317 297.603 267.407 304.454 265.017 314.294C265.71 320.019 266.404 326.203 267.279 332.342C267.516 333.974 268.483 335.422 268.794 337.055C270.016 343.262 270.91 349.584 272.278 355.746C274.012 363.585 275.617 371.563 278.171 379.012C279.813 383.771 282.422 388.737 285.688 391.749C295.613 400.876 306.761 397.036 314.934 388.277C317.853 385.15 320.809 380.414 319.824 374.092C319.021 368.965 318.857 363.7 318.455 358.482C318.273 355.999 318.419 353.447 318.054 351.01C316.321 339.055 312.964 327.468 313.931 314.961C314.423 308.547 315.007 301.856 314.131 295.603C312.015 280.475 309.187 265.486 306.414 250.496C305.283 244.358 303.495 238.449 298.715 235.001C289.209 228.172 283.864 216.539 277.879 205.757C273.902 198.607 270.545 190.882 266.604 183.709C265.437 181.571 263.284 179.203 261.405 178.927C249.308 177.157 238.161 180.973 228.382 190.1C223.419 194.722 222.288 200.814 224.313 207.78C227.214 217.804 232.122 226.333 239.584 231.069L260.273 289.672ZM288.261 131.383C288.625 124.187 288.388 116.945 288.99 109.795C289.465 104.393 288.352 101.335 284.028 100.461C280.762 99.8175 277.423 99.6336 275.599 99.4037C271.074 99.7715 267.827 99.2197 265.072 100.461C260.912 102.323 255.657 104.163 253.45 108.232C249.126 116.187 244.218 124.44 246.973 135.958C248.652 143.039 249.6 147.499 255.165 148.281" fill="#FDECE6"/>
<path d="M502.906 362.206C505.551 366.551 502.322 372.069 501.756 377.426C501.264 381.955 499.476 386.369 497.761 390.507C495.954 394.898 495.133 399.979 490.262 402.048C487.471 403.221 485.993 408.601 483.293 410.923C464.154 427.545 443.465 429.292 422.337 418.578C410.132 412.394 402.287 399.91 396.722 384.921C390.829 369.011 389.224 351.86 386.469 334.986C385.027 326.203 385.319 317.743 386.177 308.915C386.724 303.19 385.046 297.052 384.006 291.189C382.71 283.878 381.032 276.682 379.225 268.107C385.301 269.624 390.866 271.05 396.448 272.406C411.336 275.969 426.224 279.625 441.148 283.004C446.803 284.292 452.514 285.235 458.243 285.717C462.476 286.062 463.351 284.2 462.184 279.004C460.049 269.555 457.896 260.129 455.743 250.68C453.992 243.047 449.777 237.668 445.435 232.311C441.823 227.851 438.63 222.816 434.908 218.494C432.846 216.103 430.055 213.114 427.61 213.137C420.55 213.229 413.489 214.631 406.428 215.643C391.048 217.827 375.704 220.172 360.306 222.195C358.792 222.402 356.548 221.321 355.654 219.85C352.023 213.873 348.593 207.688 345.473 201.251C343.211 196.584 345.783 188.33 349.414 183.135C354.121 176.398 358.226 168.95 362.477 161.708C363.043 160.719 363.079 159.156 363.17 157.822C363.718 150.465 364.958 143.039 364.52 135.774C363.827 124.371 365.943 114.095 369.72 104.002C370.578 101.726 370.943 98.8751 370.815 96.3461C370.413 88.8743 373.095 83.1726 377.784 79.7701C385.283 74.3444 393.11 69.5164 401.083 65.2632C415.551 57.5614 430 49.5838 444.906 43.5374C453.098 40.2268 462.22 40.4337 470.941 39.4451C473.094 39.1922 475.448 40.2267 477.564 41.1464C481.505 42.8247 483.183 46.4111 481.632 51.469C479.261 59.2397 476.798 66.9875 474.097 74.5743C471.744 81.2415 470.193 87.7247 472.966 94.8747C474.535 98.875 475.046 103.22 473.203 107.427C469.226 116.486 469.244 126.394 468.806 136.372C468.314 147.569 465.45 158.029 460.943 167.892C457.951 174.444 454.813 181.617 454.083 188.882C453.171 198.032 457.276 205.803 462.932 211.964C470.394 220.08 477.6 228.54 485.026 236.748C489.277 241.461 490.335 247.898 491.576 254.336C494.531 269.808 497.56 285.235 500.516 300.684C500.935 302.845 501.136 305.075 501.318 307.282C502.085 317.076 502.76 326.87 503.544 336.664C504.073 343.216 504.84 349.722 505.168 356.275C505.259 357.838 503.982 359.516 502.906 362.206ZM452.423 46.1812C443.702 45.5145 435.966 49.4919 428.595 54.5957C417.594 62.2285 406.611 69.9073 395.846 78.0688C390.683 82.0002 389.023 88.2765 390.008 96.0932C390.501 100.025 390.172 104.646 388.95 108.278C386.377 115.888 385.465 123.59 385.812 131.682C385.921 134.165 386.031 136.694 385.83 139.154C385.21 146.718 385.538 154.81 383.404 161.662C380.977 169.501 376.598 176.467 372.566 183.364C368.607 190.124 369.556 204.699 377.766 205.918C381.324 206.447 385.21 206.838 388.567 205.619C398.328 202.102 407.943 197.917 417.503 193.549C419.765 192.515 421.991 190.193 423.396 187.71C427.154 181.042 430.237 173.754 434.014 167.064C441.586 153.661 441.202 140.97 431.934 129.268C429.143 125.751 429.088 122.371 431.606 118.716C435.455 113.129 439.451 107.703 443.009 101.841C444.286 99.7257 445.326 96.4151 445.034 93.8862C444.103 85.6556 447.004 79.8391 450.982 73.9535C455.233 67.6772 458.936 60.8261 462.731 54.0899C464.993 50.0666 463.716 47.6066 460.104 46.9399C457.586 46.5031 454.995 46.4341 452.423 46.1812ZM424.235 350.389C425.366 353.792 426.315 355.976 426.844 358.298C429.964 371.977 432.481 385.932 436.24 399.335C438.356 406.899 443.72 411.819 450.361 412.187C456.729 412.532 462.019 409.129 465.595 402.025C466.8 399.611 469.956 397.381 469.755 395.473C468.733 385.357 472.912 375.54 470.54 365.471C470.376 364.804 470.74 363.953 470.704 363.218C470.576 360.275 470.357 357.332 470.211 354.389C470.084 352.113 469.81 349.814 469.919 347.561C470.321 339.814 469.007 337.675 463.114 336.664C462.457 336.549 461.874 335.882 461.162 335.399C461.563 333.675 462.494 331.859 462.111 330.87C461.381 329.008 460.013 326.433 458.699 326.226C454.831 325.606 450.854 325.996 446.603 325.996C447.022 327.974 447.387 329.744 447.898 332.25C446.384 332.411 445.143 332.779 443.939 332.618C437.499 331.79 431.077 330.778 424.655 329.928C421.589 329.514 420.385 331.215 421.371 335.032C422.447 339.193 423.615 343.331 424.509 347.561C424.746 348.803 424.235 350.343 424.235 350.389Z" fill="#FDECE6"/>
<path d="M177.151 453.248C175.527 456.927 173.922 460.582 172.134 464.628C167.956 464.628 162.975 464.628 157.976 464.628C157.958 464.283 157.921 463.939 157.903 463.571C159.8 463.433 161.716 463.295 164.964 463.065C161.844 461.777 159.892 460.973 157.191 459.846C159.162 459.341 160.366 459.042 161.57 458.743C161.552 458.467 161.534 458.214 161.515 457.938C160.585 457.754 159.636 457.57 158.468 457.34C158.468 450.995 158.432 444.719 158.487 438.465C158.505 434.718 158.633 430.97 158.76 427.223C158.87 423.866 157.702 421.728 155.002 421.521C152.138 421.292 149.237 421.774 146.39 421.383C141.172 420.671 135.991 419.521 130.791 418.602C129.989 418.464 129.149 418.579 128.292 419.291C129.642 419.521 130.992 419.751 132.36 419.958C132.342 420.211 132.324 420.464 132.306 420.717C129.843 420.717 127.361 420.717 124.552 420.717C125.847 415.866 127.051 411.36 128.566 405.704C128.237 405.796 129.405 405.865 130.189 405.244C136.028 400.6 142.34 404.279 148.379 403.451C151.39 403.037 154.564 403.221 157.301 401.957C158.359 401.474 158.998 397.635 158.87 395.404C158.56 389.22 157.885 383.059 157.1 376.966C155.057 361.218 153.415 345.355 150.532 329.859C149.182 322.617 149.31 315.996 149.711 308.777C150.185 300.179 148.762 291.419 148.124 282.729C147.777 277.993 147.412 273.234 146.956 268.521C146.263 261.417 146.482 253.807 144.384 247.393C142.577 241.829 138.564 236.909 134.677 233.07C129.916 228.357 125.154 224.196 121.852 217.367C120.392 214.333 116.561 211.988 113.568 211.505C106.781 210.378 99.8121 209.896 92.9886 210.493C86.7672 211.045 82.6438 208.24 79.1409 202.194C77.1705 198.768 77.809 196.791 80.6187 195.826C85.4535 194.17 90.3431 192.814 95.2509 191.549C106.07 188.721 113.769 181.02 121.049 170.421C127.033 161.708 129.314 153.776 128.493 142.718C127.489 129.108 130.791 116.486 136.721 104.945C137.834 102.784 138.107 99.795 138.381 97.1281C138.655 94.5302 138.436 91.8403 138.436 87.794C146.682 92.9898 154.254 97.4959 161.57 102.577C162.811 103.45 163.303 106.669 163.613 108.899C164.015 111.888 163.759 115.015 163.978 118.049C164.544 125.544 165.693 133.039 165.62 140.534C165.584 143.109 162.993 146.902 160.895 147.96C152.758 152.052 150.842 161.179 148.926 170.122C148.489 172.168 150.879 175.065 151.773 177.686C152.539 179.87 153.104 182.192 153.579 184.514C153.834 185.733 153.542 187.112 153.761 188.354C154.801 194.446 153.068 198.354 148.178 200.676C140.899 204.125 140.844 206.999 146.354 214.08C152.831 222.402 159.399 230.288 167.281 236.518C172.973 241.024 173.32 249.715 173.502 256.612C173.83 269.509 179.03 279.694 183.299 290.27C186.638 298.569 188.536 306.478 188.9 315.858C189.338 327.215 191.965 338.434 193.407 349.769C193.735 352.275 193.078 354.987 192.221 357.608C196.983 369.977 197.074 383.84 198.296 397.359C198.643 401.106 199.719 402.922 202.675 402.669C205.248 402.462 207.838 401.635 210.338 401.98C211.998 402.21 214.461 403.612 214.881 405.198C215.392 407.175 214.735 410.509 213.567 412.095C211.451 414.992 209.097 418.694 205.083 416.073C204.755 415.866 203.916 416.441 203.496 416.9C197.658 423.82 191.692 430.603 186.091 437.822C183.208 441.546 181.037 446.121 178.446 450.213C177.862 451.133 176.786 451.547 175.947 452.191C176.366 452.581 176.768 452.926 177.151 453.248Z" fill="#FDECE6"/>
<path d="M679.898 -670.518C679.46 -664.448 675.282 -663.161 671.87 -660.724C666.141 -656.655 660.449 -652.517 654.848 -648.194C653.37 -647.045 651.947 -645.321 651.144 -643.412C647.66 -635.113 642.423 -629.043 636.585 -623.48C634.651 -621.641 633.265 -618.675 631.969 -615.962C627.554 -606.743 623.376 -597.363 618.961 -588.144C616.79 -583.615 615.458 -579.2 614.819 -573.66C613.834 -565.268 610.495 -557.314 608.051 -549.221C604.347 -536.944 597.596 -527.886 589.295 -520.161C585.099 -516.253 581.614 -511.172 577.856 -506.528C574.407 -502.275 574.645 -497.378 577.053 -492.711C578.932 -489.078 581.34 -485.837 583.493 -482.434C586.358 -477.951 585.5 -474.181 581.815 -470.64C575.156 -464.226 567.985 -464.479 560.359 -466.456C552.788 -468.433 545.125 -469.881 537.517 -471.583C529.927 -473.284 526.917 -479.353 528.796 -489.101C530.785 -499.516 534.361 -508.666 541.622 -514.942C542.352 -515.563 542.863 -516.575 543.118 -518.23C539.268 -515.609 535.51 -512.758 531.551 -510.459C522.848 -505.355 514.474 -499.355 504.585 -497.884C496.996 -496.757 490.117 -498.458 483.604 -503.079C477.93 -507.103 476.525 -516.69 481.068 -523.334C488.293 -533.933 495.007 -545.014 503.929 -553.865C511.099 -560.992 518.068 -567.981 526.442 -572.694C534.324 -577.131 542.334 -578.58 550.817 -576.625C560.067 -574.487 563.57 -569.82 564.446 -558.003C564.592 -556.118 564.683 -554.21 564.847 -551.52C565.942 -552.577 567 -553.106 567.329 -554.049C569.919 -561.406 572.401 -568.832 574.845 -576.258C575.885 -579.407 576.506 -582.764 577.692 -585.799C581.413 -595.34 584.351 -604.812 581.578 -615.824C581.085 -617.801 582.618 -621.204 583.931 -623.181C586.522 -627.135 589.733 -630.423 592.488 -634.239C594.039 -636.4 595.024 -639.228 596.575 -641.389C598.125 -643.55 599.95 -645.55 601.902 -647.114C606.737 -650.999 612.302 -652.884 616.534 -658.77C618.742 -661.827 624.452 -660.931 628.594 -661.69C638.811 -663.529 649.028 -665.322 659.263 -667.092C666.087 -668.265 672.892 -669.345 679.898 -670.518Z" fill="#FDECE6"/>
<path d="M500.697 -365.712C502.411 -366.011 503.871 -366.494 505.331 -366.494C517.482 -366.494 529.651 -366.54 541.802 -366.218C543.535 -366.172 545.232 -364.103 546.947 -362.976C545.615 -361.436 544.502 -359.275 542.951 -358.447C531.822 -352.677 526.385 -341.687 524.141 -327.387C523.63 -324.146 522.9 -320.283 521.149 -318.145C513.632 -308.834 511.534 -296.373 508.323 -284.625C505.44 -274.004 501.061 -265.382 493.837 -258.439C489.823 -254.577 486.739 -248.76 484.167 -243.128C482.944 -240.438 483.765 -236.162 483.948 -232.621C484.021 -231.196 484.97 -229.862 485.335 -228.414C487.542 -219.517 485.316 -214.413 478.11 -213.792C471.195 -213.194 464.171 -213.447 457.238 -214.114C452.695 -214.551 452.184 -216.62 454.228 -221.816C457.019 -228.966 456.216 -231.265 449.94 -232.483C441 -234.231 432.097 -233.587 423.358 -230.759C412.484 -227.219 402.358 -228.851 392.871 -236.668C385.135 -243.036 384.424 -250.738 391.138 -258.554C393.582 -261.405 396.155 -264.049 398.636 -266.831C402.997 -271.659 404.11 -277.682 402.413 -284.51C399.475 -296.304 400.078 -306.788 407.74 -316.007C410.897 -319.801 413.341 -325.111 414.947 -330.307C417.884 -339.825 423.029 -346.469 430.09 -350.585C443.062 -358.171 456.672 -361.367 470.848 -357.321C474.479 -356.286 478.055 -354.332 481.357 -352.056C486.739 -348.378 492.249 -349.274 497.759 -350.539C498.909 -350.791 500.313 -353.274 500.532 -354.93C501.007 -358.286 500.697 -361.781 500.697 -365.712ZM475.282 -345.343C459.865 -343.963 447.55 -339.273 438.409 -322.421C436.877 -319.617 434.925 -317.157 433.082 -314.628C426.788 -305.891 425.219 -296.052 428.503 -284.993C430.655 -277.774 429.798 -271.567 424.89 -266.417C423.047 -264.486 421.478 -262.095 419.909 -259.75C416.516 -254.669 418.067 -251.312 421.734 -247.887C423.212 -246.507 425.383 -246.163 427.298 -245.772C440.654 -242.99 452.129 -248.967 463.623 -256.876C473.64 -263.75 479.752 -274.027 482.434 -287.039C484.933 -299.224 487.925 -310.443 494.658 -320.099C498.981 -326.307 496.92 -337.296 490.954 -340.423C486.046 -343.021 480.536 -343.779 475.282 -345.343Z" fill="#FDECE6"/>
<path d="M304.661 -241.106C300.52 -241.887 298.695 -244.899 300.775 -249.106C302.964 -253.589 305.938 -257.498 308.748 -261.452C310.755 -264.303 313.163 -266.694 315.206 -269.499C319.384 -275.246 318.345 -282.971 312.652 -285.546C307.544 -287.845 302.125 -289.041 296.798 -290.512C289.317 -292.581 287.511 -298.421 292.273 -305.846C295.32 -310.582 299.005 -314.422 301.03 -320.445C301.997 -323.296 306.084 -324.951 309.003 -326.124C312.743 -327.618 316.757 -327.894 320.607 -328.998C331.791 -332.216 333.305 -334.469 334.309 -348.861C334.509 -351.712 334.436 -354.609 334.582 -357.46C334.838 -362.38 336.279 -363.575 339.782 -361.092C343.449 -358.471 346.715 -354.931 350.4 -352.356C356.987 -347.758 363.847 -343.735 370.433 -339.091C372.148 -337.872 374.082 -335.389 374.319 -333.205C374.483 -331.734 372.075 -328.768 370.433 -328.216C361.274 -325.112 354.086 -318.974 349.05 -308.697C344.744 -299.915 345.419 -295.685 352.553 -290.696C358.884 -286.259 358.993 -285.27 354.578 -278.12C352.863 -275.361 351.823 -271.867 349.926 -269.384C347.244 -265.912 344.398 -262.165 341.023 -260.096C330.787 -253.865 320.278 -248.371 309.843 -242.715C308.219 -241.841 306.394 -241.635 304.661 -241.106Z" fill="#FDECE6"/>
<path d="M441.111 -55.4813C442.278 -58.516 443.574 -60.2403 443.337 -61.5278C442.132 -68.011 445.672 -70.1261 449.175 -71.9653C459.355 -77.2761 469.317 -83.5755 480.483 -84.9319C485.573 -85.5526 490.791 -85.7826 495.863 -85.1848C501.227 -84.5411 503.215 -80.6097 502.832 -74.3104C501.902 -58.4011 496.374 -46.9058 484.132 -40.8824C478.512 -38.1235 473.44 -33.4796 467.766 -30.9506C463.625 -29.0884 458.881 -28.4677 454.448 -28.7206C449.795 -28.9735 449.011 -31.8933 450.853 -37.319C451.237 -38.4225 451.091 -40.3996 450.525 -41.3192C447.478 -46.2162 444.194 -50.9062 441.111 -55.4813ZM452.477 -56.3779C457.111 -48.1014 463.442 -48.7221 469.919 -51.5269C476.013 -54.1708 478.567 -61.7807 475.265 -66.4477C471.762 -71.3906 458.972 -69.7353 456.181 -63.9647C454.995 -61.5737 453.827 -59.1598 452.477 -56.3779Z" fill="#FDECE6"/>
<path d="M926.421 -951.001C927.023 -952.633 927.698 -953.898 927.534 -954.082C924.067 -958.22 927.424 -960.864 928.902 -963.715C930.234 -966.267 932.058 -967.071 934.175 -964.772C935.525 -963.301 937.222 -962.174 938.262 -960.45C939.265 -958.772 939.648 -956.473 940.287 -954.449C938.772 -953.806 937.313 -952.932 935.762 -952.587C932.879 -951.92 929.924 -951.576 926.421 -951.001Z" fill="#FDECE6"/>
<path d="M1026.09 -888.582C1027.84 -890.054 1029.52 -892.537 1031.36 -892.767C1034.48 -893.134 1037.71 -892.031 1040.9 -891.571C1040.45 -889.778 1040.1 -886.513 1039.53 -886.444C1035.32 -886.008 1031.09 -886.214 1026.84 -886.214C1026.58 -886.973 1026.33 -887.778 1026.09 -888.582Z" fill="#FDECE6"/>
<path d="M1003.06 -999.648C987.702 -997.992 972.34 -996.36 956.996 -994.705C956.96 -995.233 956.923 -995.762 956.887 -996.291C972.358 -997.969 987.848 -999.648 1003.32 -1001.35C1003.23 -1000.8 1003.14 -1000.22 1003.06 -999.648Z" fill="#FDECE6"/>
<path d="M459.283 335.745C456.364 329.813 455.944 329.767 451.839 334.136C454.321 334.687 456.309 335.124 459.283 335.745Z" fill="#FDECE6"/>
<path d="M459.283 335.745C456.309 335.101 454.321 334.687 451.839 334.136C455.944 329.767 456.364 329.836 459.283 335.745Z" fill="#FDECE6"/>
</svg>
