<svg width="1086" height="1514" viewBox="0 0 1086 1514" fill="none" xmlns="http://www.w3.org/2000/svg">
<path d="M981.853 1.74589C973.456 4.1988 965.059 6.46312 956.263 7.02918C951.865 7.40655 947.867 7.97261 945.068 11.7463C943.468 14.0105 941.269 15.7086 939.27 17.7842C937.271 19.8597 937.071 22.5014 937.471 24.9543C938.071 27.4072 937.071 29.6714 936.071 31.9356C932.473 39.483 928.075 46.6531 922.477 53.0684C920.278 55.5213 917.879 58.1629 914.88 59.6724C905.284 64.5782 895.288 69.1067 885.492 73.8238C883.893 74.5786 882.094 74.956 880.694 75.8995C866.3 83.6356 850.707 88.73 835.313 94.2019C824.318 97.9756 814.122 103.448 805.126 110.429C802.327 112.693 799.728 115.146 797.329 117.599C792.331 123.071 786.933 127.599 780.736 131.939C774.938 135.901 769.54 140.43 764.942 144.015C763.543 151.94 767.141 157.789 768.341 164.016C768.941 167.035 769.54 169.865 769.54 172.884C769.74 177.79 770.94 182.318 772.539 186.847C772.939 187.79 773.139 188.922 773.939 189.677C779.936 196.658 785.734 204.017 794.33 208.545C806.125 214.772 817.72 221.565 829.516 227.791C842.11 234.395 850.707 244.207 855.905 256.849C857.904 261.943 861.902 265.528 866.5 268.736C872.298 272.887 878.095 277.227 883.493 281.944C887.891 285.907 889.891 291.19 885.093 297.228C880.894 302.511 875.497 305.719 868.899 307.605C857.104 311.19 845.109 310.247 833.314 308.549C809.124 305.153 784.934 300.813 760.744 297.039C743.951 294.397 727.158 291.567 710.565 287.416C693.972 283.076 677.378 278.737 661.585 271.944C656.187 269.68 650.59 267.604 645.792 264.396C640.794 261 636.595 256.472 632.397 252.321C628.399 248.358 624.8 243.83 620.802 239.679C613.605 232.131 604.009 227.225 595.213 221.376C586.016 215.527 576.22 210.244 567.024 204.206C561.027 200.243 555.429 195.337 550.231 190.243C546.633 186.847 544.633 182.318 544.034 177.412C543.234 171.94 541.835 166.469 540.635 160.997C540.435 160.242 540.435 159.487 540.035 158.921C536.437 154.77 538.236 150.053 538.436 145.524C538.436 144.392 539.436 143.26 540.235 142.505C545.633 137.977 550.431 132.882 556.628 129.486C560.227 127.411 563.825 124.769 566.424 121.75C579.219 107.787 595.212 98.5417 613.405 92.1264C621.402 89.2961 629.598 86.4659 637.595 83.4469C643.992 80.994 650.19 77.7863 656.787 75.1447C662.984 72.5031 669.582 70.4275 675.779 67.7859C681.777 65.333 687.574 62.5027 693.372 59.6724C696.171 58.3516 698.17 56.2761 699.569 53.6345C701.768 49.6721 704.367 45.8984 706.367 41.7473C709.965 34.5772 714.363 27.5959 716.162 19.8598C716.162 19.6711 716.362 19.4824 716.362 19.4824C717.762 13.8218 715.963 11.3689 709.765 12.501C702.368 13.8218 695.171 15.7086 687.974 17.7842C683.776 18.9163 679.977 20.9919 675.979 22.124C668.382 24.3883 663.584 29.2941 659.586 35.332C655.388 41.5587 650.789 47.5965 646.391 53.6345C644.392 56.4647 641.593 58.5403 638.595 60.0498C632.597 63.0688 626.4 66.0877 620.402 69.1067C612.805 72.8804 605.408 77.0316 597.612 80.6166C588.215 84.9564 578.619 89.1074 568.623 92.6924C551.431 98.7304 536.837 107.599 524.242 120.429C519.044 125.712 512.647 129.864 506.849 134.581C503.65 137.222 500.252 139.864 497.253 142.694C496.253 143.638 495.454 144.958 495.254 146.09C495.054 148.732 495.054 151.562 495.654 154.204C497.253 162.129 499.252 170.054 500.852 178.167C502.051 184.205 504.85 189.111 509.248 193.639C516.245 200.809 524.642 206.092 533.438 211.187C544.433 217.414 555.229 224.018 565.825 230.622C575.021 236.471 582.218 244.584 588.815 252.698C595.412 260.623 603.209 266.849 612.805 271C620.202 274.208 627.599 277.227 635.196 280.246C658.586 289.492 682.776 296.85 707.166 303.266C715.563 305.53 724.359 306.662 733.155 306.662C734.955 306.662 737.154 306.851 738.753 307.605C746.15 310.813 753.347 314.398 760.544 317.794C760.744 320.625 761.144 323.078 761.344 325.342C761.744 329.682 764.343 333.267 766.941 336.474C769.94 340.059 769.74 343.644 768.141 347.418C767.141 349.682 766.142 351.758 765.142 354.022C762.743 359.494 764.143 363.079 769.94 365.909C776.737 369.117 784.134 370.626 791.331 371.947C795.929 372.891 800.727 373.457 805.525 374.211C805.925 375.721 806.525 377.042 806.925 378.74C802.727 379.117 798.728 379.495 794.73 380.061C791.131 380.438 787.533 381.382 784.534 383.457C781.735 385.344 779.936 387.608 779.536 390.816C778.737 395.91 777.937 401.005 777.537 406.099C777.137 410.817 775.138 414.779 772.339 418.553C770.54 420.817 768.941 422.892 767.341 425.157C764.542 429.308 763.143 433.836 763.543 438.931C763.943 444.969 762.743 450.629 759.545 455.912C755.946 461.95 753.347 468.554 752.547 475.536C752.148 478.743 752.747 482.14 752.947 485.347C753.147 487.8 753.747 490.064 753.947 492.517C754.347 496.102 753.747 499.687 751.748 503.084C747.35 511.009 742.751 519.122 738.553 527.235C736.554 531.009 734.955 534.972 733.755 538.934C730.956 548.934 726.358 557.803 718.162 564.973C713.364 569.124 708.766 573.652 704.367 578.181C695.771 586.671 686.575 594.03 675.979 600.257C673.98 601.389 672.381 602.71 670.381 603.653C660.386 608.936 655.588 617.993 651.789 627.428C648.59 635.164 646.191 643.089 644.192 651.202C642.793 657.051 641.793 662.901 642.593 669.127C643.592 675.542 643.992 681.958 644.792 688.373C644.992 689.505 645.192 690.826 645.792 691.769C647.391 694.6 647.191 697.43 646.991 700.449C646.591 708.94 645.792 717.431 645.592 725.922C645.392 730.073 645.392 734.412 645.792 738.564C646.591 745.356 643.992 750.639 639.194 755.357C634.796 759.885 630.198 764.225 625.8 768.753C620.802 774.036 617.003 780.074 612.605 785.735C606.008 794.226 603.609 804.037 602.609 814.038C602.21 817.623 603.009 821.397 603.609 825.17C604.809 832.34 606.608 839.322 605.808 846.492C605.208 851.586 606.808 856.115 609.207 860.266C612.006 865.172 615.404 869.7 618.203 874.606C619.403 876.493 620.402 878.757 620.802 880.833C624.001 895.927 622.001 910.645 615.604 924.985C614.604 927.249 612.605 929.325 611.006 931.212C609.207 933.098 607.208 934.985 605.208 936.495C599.011 941.212 594.813 946.684 595.612 954.609C595.812 956.684 595.013 958.76 595.213 960.835C595.412 965.741 592.813 969.326 589.415 972.911C583.018 979.326 575.621 984.61 568.424 989.893C564.625 992.723 561.027 995.742 557.628 998.761C553.83 1002.16 551.83 1006.5 551.031 1011.59C550.631 1014.42 550.031 1017.25 549.032 1019.89C547.232 1025.18 546.833 1030.46 546.833 1035.93C546.833 1045.93 547.032 1056.12 546.833 1066.12C546.833 1069.14 545.833 1072.35 544.633 1075.37C541.835 1082.35 538.236 1089.14 535.437 1096.12C532.838 1102.73 534.638 1105.93 540.835 1107.44C544.434 1108.39 548.432 1108.76 552.63 1109.52C547.632 1125.75 544.234 1141.97 545.233 1159.14C542.434 1159.71 540.035 1160.65 537.237 1161.03C529.64 1162.16 525.841 1165.56 524.242 1174.43C523.042 1181.03 523.242 1187.82 523.242 1194.62C523.242 1201.03 523.842 1207.64 523.842 1214.05C523.842 1231.03 523.842 1248.2 523.842 1265.19C523.842 1270.66 524.042 1276.32 524.242 1281.79C524.442 1286.32 523.042 1290.47 520.244 1294.05C516.645 1298.77 513.046 1303.3 509.648 1308.02C508.248 1309.9 507.249 1312.17 506.249 1314.43C503.85 1318.96 501.851 1323.87 498.852 1328.02C493.255 1336.13 491.056 1344.62 494.854 1354.06C496.054 1356.7 496.453 1359.53 495.054 1362.36C494.854 1362.92 494.654 1363.68 494.854 1364.06C496.853 1368.59 497.653 1373.87 502.651 1376.89C503.45 1377.26 503.85 1378.77 503.85 1379.72C504.05 1385.76 503.85 1391.79 503.85 1397.64C491.056 1403.49 418.686 1421.23 411.888 1420.28C411.688 1413.68 411.289 1406.89 411.489 1400.1C411.489 1391.98 411.489 1383.87 412.088 1375.76C412.688 1370.09 414.287 1364.62 415.887 1359.15C416.886 1355.38 418.486 1351.79 420.285 1348.4C423.484 1341.98 427.082 1335.94 430.481 1329.72C433.279 1324.62 436.678 1319.53 438.877 1314.24C440.876 1309.15 444.275 1305.19 447.674 1301.04C449.873 1298.39 451.872 1295.75 453.671 1292.92C455.87 1289.34 456.87 1285.56 456.67 1281.22C456.27 1274.62 456.27 1268.02 456.27 1261.41C456.47 1241.79 457.07 1222.35 456.47 1202.73C456.07 1190.47 454.271 1178.2 448.673 1166.88C445.275 1160.28 439.877 1155.94 432.68 1153.67C430.681 1153.11 428.881 1152.35 426.482 1151.6C426.682 1147.82 426.682 1143.86 427.082 1140.09C427.682 1135.56 428.681 1131.03 429.281 1126.5C429.681 1122.92 432.48 1121.22 435.479 1120.27C442.876 1117.82 448.873 1113.48 455.27 1109.33C461.668 1104.99 466.666 1099.71 469.664 1092.73C472.863 1085.18 477.061 1077.63 478.061 1069.33C478.861 1062.54 478.861 1055.56 478.861 1048.76C479.061 1042.72 478.661 1036.69 478.861 1030.65C478.861 1027.82 479.66 1024.99 480.06 1022.16C480.66 1018.76 482.059 1015.55 482.259 1012.16C482.859 1006.12 486.058 1001.4 490.856 997.629C497.653 992.346 504.65 987.251 511.447 981.968C516.245 978.194 521.243 974.609 524.642 969.704C526.441 967.062 527.441 964.232 527.441 961.213C527.64 957.816 528.24 954.231 528.24 950.835C528.24 945.929 531.039 942.721 534.438 939.702C536.837 937.627 539.236 935.74 541.635 933.665C545.833 930.079 548.232 925.362 550.231 920.268C554.229 909.89 555.029 899.324 554.429 888.38C554.03 881.21 551.231 875.361 547.032 869.7C543.634 865.172 540.635 860.266 538.436 855.171C537.236 852.53 537.436 848.945 537.636 845.926C538.036 839.51 537.037 833.284 535.237 827.246C533.038 819.698 533.638 812.34 535.437 804.981C537.236 797.999 540.235 791.584 544.433 785.358C551.431 774.98 560.027 766.112 569.023 757.432C574.621 751.772 578.419 745.356 576.62 737.243C576.22 735.733 576.42 734.224 576.42 732.714C576.42 728.563 576.42 724.412 576.42 720.072C576.62 714.223 576.82 708.374 577.02 702.525C577.22 698.94 577.22 695.543 575.021 692.147C574.021 690.449 574.021 688.184 573.621 686.109C572.822 681.203 572.022 676.486 571.023 671.58C569.823 665.353 570.223 659.315 571.422 653.278C572.622 647.428 574.021 641.39 576.02 635.73C578.22 629.314 579.219 622.711 583.617 617.05C586.616 613.088 589.815 609.502 594.213 606.861C603.209 601.389 612.605 595.917 621.002 589.502C629.598 582.898 637.395 575.162 645.392 567.803C648.79 564.784 651.989 561.765 654.988 558.369C660.186 552.331 662.785 545.349 664.784 537.991C665.583 534.972 666.783 531.953 668.382 529.122C672.98 521.386 677.578 513.65 682.776 506.103C687.174 499.499 687.974 492.517 686.975 485.347C685.975 478.932 687.374 472.894 689.174 466.667C690.973 461.007 694.172 456.29 697.57 451.573C700.369 447.988 702.368 444.025 701.968 439.308C701.169 431.949 703.368 425.157 707.566 419.496C713.963 411.005 714.363 401.571 714.963 391.948C715.163 390.061 714.763 387.986 715.363 386.099C716.362 381.948 715.363 378.363 713.164 374.778C710.565 370.249 707.766 365.532 705.367 360.815C703.968 358.173 702.968 355.154 702.368 352.324C700.969 344.588 696.571 338.739 690.173 334.021C677.379 324.587 663.784 316.474 649.19 310.058C635.796 304.02 621.801 299.303 607.607 294.963C593.413 290.624 579.619 285.529 565.825 280.435C557.028 277.227 548.632 273.265 540.035 269.491C532.638 266.283 526.841 261.377 521.643 255.34C513.046 245.15 504.25 234.961 492.455 227.603C482.859 221.753 473.263 215.715 463.267 210.244C454.271 205.338 446.674 199.111 439.877 191.752C436.478 187.979 434.479 183.828 434.079 179.11C433.28 171.186 431.88 163.45 428.681 155.902C427.482 152.883 428.082 149.11 428.282 145.713C428.282 144.77 429.481 143.638 430.481 142.883C435.479 138.92 440.676 135.147 445.674 131.184C450.073 127.599 454.471 124.203 458.269 120.241C469.265 109.108 481.859 100.429 497.053 95.1453C513.646 89.296 529.44 81.7487 545.033 73.6352C552.43 69.8615 559.627 66.2764 567.224 63.0687C574.021 60.2384 578.819 55.7101 582.618 50.0495C587.616 43.0681 592.813 36.0868 597.811 29.2941C598.211 28.728 598.611 28.3507 598.811 27.7846C599.611 23.2561 603.409 21.5579 607.008 19.4824C613.605 15.8974 620.002 11.7463 626.6 8.16125C628.399 7.02913 630.598 6.46312 632.797 6.08575C639.794 4.95363 646.791 4.19889 653.788 3.25546C655.388 3.06678 656.787 2.50065 658.386 2.12328C681.777 2.12328 705.167 2.12328 728.357 2.12328C728.557 4.38751 730.157 4.95354 732.156 4.57617C737.354 3.82143 742.352 2.87802 747.549 2.12328C779.136 2.12328 810.923 2.12328 842.51 2.12328C841.111 2.87802 839.911 4.01021 838.512 4.19889C834.314 4.95363 830.515 5.89706 827.316 8.91603C826.517 9.67078 825.317 9.85937 824.318 10.2367C818.12 11.9349 811.723 13.8218 805.326 15.1426C798.328 16.6521 792.331 20.0484 785.734 22.5013C783.934 23.2561 782.735 24.5769 782.535 26.6524C782.335 28.3506 782.135 30.0488 781.136 31.3696C776.737 38.5396 773.339 46.4645 767.741 53.2572C764.942 56.6535 761.944 59.6724 757.945 61.5593C750.748 64.9556 743.751 68.352 736.554 71.7483C730.557 74.5786 724.359 77.0315 718.362 79.8618C713.564 81.9374 708.965 84.3903 704.167 86.2772C695.971 89.4848 687.574 92.5038 679.178 95.7115C665.383 101.183 652.989 108.731 642.393 118.92C637.595 123.637 632.197 127.599 626.999 131.75C622.401 135.524 617.603 139.109 613.005 142.883C611.806 143.826 610.606 145.147 610.406 146.468C610.206 149.298 610.006 152.317 611.006 154.959C613.405 161.94 615.404 169.11 616.604 176.469C617.203 179.488 617.603 182.507 619.203 184.96C622.201 189.677 625.8 194.017 630.598 197.602C633.597 199.866 636.196 202.696 639.394 204.583C652.189 212.13 665.383 219.3 677.978 227.225C689.573 234.584 699.17 244.018 708.965 253.075C713.963 257.604 718.162 262.887 724.359 265.906C730.756 268.925 736.954 272.321 743.751 274.774C766.342 283.265 789.732 289.492 813.522 293.643C823.118 295.341 832.714 296.85 842.51 296.473C844.709 296.473 846.908 296.473 848.508 293.831C847.108 292.511 845.909 291.19 844.509 290.058C840.511 287.416 836.313 284.775 832.114 282.51C824.518 278.548 816.921 274.963 809.324 271C802.927 267.793 797.129 264.019 792.731 258.547C789.932 254.962 787.333 251 784.334 247.792C780.336 243.641 776.138 239.49 771.739 235.716C761.944 227.98 750.348 222.697 739.353 216.659C728.557 210.81 717.562 205.715 708.766 196.847C702.568 190.62 698.17 184.016 697.57 175.148C697.37 172.506 696.371 169.865 696.171 167.223C695.371 161.185 691.373 155.902 691.573 149.298C691.573 146.468 691.972 144.392 694.172 142.505C698.77 138.92 703.368 135.524 707.766 131.939C712.964 127.977 718.362 124.203 722.96 119.674C731.956 110.618 742.352 103.447 754.147 98.353C770.94 91.1829 788.932 86.2771 805.326 77.975C813.922 73.6352 822.918 70.2389 831.715 66.0878C837.312 63.2575 843.51 60.6158 847.908 56.4647C856.105 48.9173 862.302 39.6718 867.7 29.8601C868.3 28.728 868.499 26.8412 868.1 25.5204C867.7 23.0674 868.1 21.1806 870.099 19.4824C872.898 17.0295 876.096 14.7653 878.095 11.7463C880.095 8.91603 882.694 7.97251 885.892 7.40646C893.689 5.70829 901.486 3.8215 909.083 1.93464C933.273 1.74595 957.663 1.74589 981.853 1.74589Z" fill="black"/>
<path d="M603.809 1.74564C599.011 3.06644 594.413 4.38724 589.615 5.51935C587.616 6.08541 585.617 6.27419 584.217 7.97236C583.417 9.10447 581.618 9.67044 580.219 10.2365C571.422 13.6328 562.826 17.0292 554.03 20.4256C542.634 24.7653 532.638 31.3693 523.242 38.5394C518.244 42.3131 513.846 46.6529 508.648 50.4266C502.651 54.7664 496.254 58.3514 489.256 61.1816C486.658 62.1251 484.658 63.6346 483.459 66.2762C483.059 67.4083 482.259 68.3517 481.26 69.1065C479.461 70.8046 477.861 72.3142 478.861 74.9558C479.061 75.5218 478.861 76.6539 478.461 77.0313C475.662 80.0503 473.263 83.6353 469.864 85.8995C465.066 89.1072 459.869 91.9374 454.471 94.2016C440.277 100.24 427.882 108.542 417.886 120.052C413.688 124.957 408.69 128.731 403.692 132.882C399.694 136.09 396.095 139.675 392.297 143.071C391.697 143.637 390.897 144.203 390.897 144.77C390.897 148.543 389.498 152.128 390.697 156.091C392.097 160.619 392.696 165.525 393.696 170.242C394.896 175.903 394.296 181.941 397.694 187.224C398.494 188.356 399.094 189.677 400.093 190.62C407.09 198.168 414.687 204.771 424.283 209.677C435.879 215.338 447.274 221.376 456.67 230.433C461.868 235.527 466.866 240.81 471.864 246.094C477.061 251.188 482.059 256.471 487.457 261.377C492.655 265.906 499.052 268.925 505.45 271.755C515.845 276.283 526.441 280.434 537.237 284.586C550.231 289.491 563.426 294.02 576.42 299.114C596.412 307.039 614.005 318.926 629.398 333.266C631.398 334.965 632.597 337.229 634.396 339.304C636.196 341.191 636.795 343.455 636.595 346.097C636.395 349.305 636.196 352.324 635.796 355.531C634.996 361.569 636.995 366.475 642.593 369.872C646.191 371.947 649.99 374.023 653.588 376.098C658.586 378.74 661.585 382.325 661.785 388.363C661.985 394.401 663.384 400.627 664.784 406.665C665.783 411.005 664.784 414.779 662.185 418.175C660.585 420.251 659.186 421.949 659.586 424.779C659.586 425.534 659.186 426.289 658.986 426.855C656.987 431.006 655.987 435.345 655.388 439.874C654.788 444.78 652.189 448.931 648.39 452.327C643.193 457.044 639.794 462.894 636.995 468.932C635.596 472.139 635.796 475.535 637.395 478.554C638.794 481.196 640.194 484.026 641.993 486.479C646.191 492.329 645.592 497.989 642.193 504.027C637.395 512.518 632.397 521.009 627.799 529.5C625.6 533.462 623.801 537.613 622.201 541.953C618.803 551.387 613.405 559.312 605.008 565.35C596.612 571.577 588.415 577.992 579.819 584.03C571.023 590.256 561.427 595.351 551.031 599.313C544.034 602.144 537.037 605.163 530.04 608.182C518.444 613.087 507.049 617.993 495.454 623.088C493.854 623.842 492.455 624.597 490.856 625.352C488.457 626.673 487.657 628.748 488.657 631.39C489.656 633.843 491.056 635.918 492.455 637.994C493.854 639.692 494.854 641.768 496.054 643.466C498.053 646.296 497.253 648.938 495.854 651.579C494.254 654.976 491.855 657.995 489.856 661.202C488.857 662.712 489.057 663.844 490.256 665.542C492.055 668.184 494.254 670.07 497.053 671.58C501.052 673.844 505.45 676.108 509.248 678.561C513.846 681.58 516.045 686.486 519.244 690.826C520.044 691.958 521.243 693.279 522.443 693.845C524.842 695.166 525.441 696.864 524.842 699.128C522.843 706.676 524.442 713.657 527.241 720.638C529.84 727.054 529.64 733.469 529.64 740.073C529.64 747.62 525.042 752.903 521.043 758.753C515.446 766.866 507.049 772.527 500.652 780.074C496.254 785.357 491.655 790.641 487.257 795.924C483.059 801.018 478.461 805.736 474.662 811.019C470.664 816.868 471.264 819.887 475.462 825.548C479.261 830.453 483.059 835.359 486.458 840.642C487.657 842.529 488.057 845.171 488.257 847.624C488.657 853.284 491.655 857.435 495.854 861.209C500.052 864.794 504.05 868.191 508.249 871.776C512.647 875.549 515.046 880.078 516.245 885.738C518.444 897.248 515.645 907.814 511.847 918.758C509.048 926.683 504.25 932.532 497.653 937.627C496.254 938.759 494.854 940.268 493.455 941.401C490.656 944.042 489.456 947.25 489.456 950.835C489.456 953.665 489.256 956.495 489.456 959.326C490.056 966.307 486.857 971.59 481.26 975.741C472.663 982.157 463.867 988.383 455.071 994.799C450.672 998.006 446.474 1001.4 443.875 1006.31C443.076 1007.63 442.476 1009.14 442.076 1010.46C440.876 1014.23 439.877 1018.01 438.477 1021.78C436.278 1028.01 437.678 1034.23 438.278 1040.65C439.077 1048.76 439.677 1056.88 440.077 1064.99C440.477 1073.48 436.278 1080.27 430.281 1086.31C423.484 1093.29 415.087 1098.2 406.491 1102.92C397.294 1107.82 389.098 1113.86 382.9 1122.35C380.901 1124.99 378.502 1127.44 376.103 1129.71C370.306 1135.37 370.506 1140.84 374.304 1148.2C375.903 1151.41 378.502 1154.24 380.501 1157.26C386.699 1165.94 391.297 1175.37 395.095 1185.18C397.694 1191.98 401.093 1198.39 404.691 1204.81C409.689 1213.67 412.888 1223.11 415.287 1232.73C417.686 1242.54 418.486 1252.73 418.086 1262.73C417.886 1269.34 417.686 1276.13 416.487 1282.73C415.687 1286.51 413.488 1290.28 410.889 1293.49C408.09 1297.07 404.292 1300.09 401.093 1303.3C397.295 1307.07 393.696 1311.04 389.698 1314.81C384.1 1320.28 378.502 1325.75 372.505 1331.04C366.307 1336.51 359.31 1341.41 353.113 1346.89C346.915 1352.36 341.118 1358.21 338.319 1366.32C336.12 1372.74 332.921 1378.77 330.522 1385.19C328.723 1390.1 325.524 1393.87 321.726 1397.27C316.128 1402.36 310.331 1407.27 304.133 1411.61C301.334 1413.68 297.736 1414.81 294.337 1415.95C279.543 1420.47 264.55 1420.85 249.356 1418.4C235.362 1416.13 223.367 1410.47 213.97 1399.72C209.972 1395 207.173 1390.1 204.574 1384.81C202.375 1380.28 202.575 1375.19 203.575 1370.28C204.774 1364.62 206.174 1359.15 205.374 1353.3C204.974 1349.72 204.175 1346.13 203.375 1342.74C202.175 1338.02 202.775 1333.11 204.374 1328.58C205.374 1325.75 208.373 1323.3 210.972 1321.04C219.168 1313.87 228.564 1308.77 239.36 1305.75C245.757 1304.05 252.155 1303.49 258.752 1304.05C262.95 1304.43 266.149 1306.7 267.948 1310.47C271.347 1317.07 270.747 1323.87 268.748 1330.66C267.148 1336.32 265.349 1341.79 265.549 1347.64C265.749 1355.38 263.75 1363.11 262.55 1370.66C261.551 1376.51 261.551 1382.55 265.949 1387.64C269.947 1392.36 274.345 1394.25 279.543 1391.98C281.942 1391.04 284.141 1388.96 285.541 1387.08C287.54 1384.43 288.939 1381.42 289.939 1378.4C292.738 1369.72 295.537 1361.23 300.934 1353.68C304.333 1348.96 308.931 1344.81 313.329 1340.47C321.726 1332.17 330.522 1324.06 335.92 1313.49C337.919 1309.72 341.518 1306.7 344.316 1303.11C347.115 1299.71 350.114 1296.7 352.513 1293.11C355.912 1288.2 355.912 1282.54 355.312 1276.88C354.712 1271.6 353.912 1266.13 352.913 1260.85C350.314 1246.69 345.116 1233.67 334.92 1222.54C326.524 1213.3 315.728 1207.82 303.134 1205.37C294.337 1203.67 285.341 1204.05 276.545 1205.37C269.547 1206.5 263.35 1209.52 257.552 1213.49C250.155 1218.39 244.158 1224.62 239.16 1231.79C238.16 1233.11 237.161 1234.43 235.961 1235.94C232.563 1234.43 229.164 1233.11 225.766 1231.6C227.365 1224.43 230.164 1217.83 233.362 1211.6C238.76 1201.22 240.36 1190.28 240.959 1178.96C241.359 1172.73 242.958 1166.5 243.958 1160.28C244.758 1155.56 247.557 1151.41 249.556 1147.07C252.155 1141.6 253.954 1135.75 251.155 1129.71C246.957 1120.65 244.758 1110.84 241.759 1101.41C240.559 1098.01 239.36 1094.61 238.36 1091.22C239.36 1090.84 239.76 1090.65 240.36 1090.46C246.357 1088.95 251.355 1088.39 256.953 1092.92C264.15 1098.76 273.346 1100.65 282.742 1101.41C304.533 1103.1 325.324 1099.52 345.516 1091.97C352.113 1089.52 358.711 1086.31 364.108 1081.78C367.107 1079.33 369.906 1076.5 372.105 1073.48C374.704 1069.71 374.304 1065.37 373.504 1061.22C371.705 1051.03 369.506 1040.84 367.507 1030.65C366.507 1026.12 368.506 1022.16 369.706 1017.82C372.905 1006.12 380.901 998.195 391.097 991.78C399.094 986.874 406.691 981.213 414.288 975.93C414.687 975.741 415.087 975.364 415.287 974.987C423.284 969.137 424.883 961.59 422.684 952.722C422.284 951.401 422.084 950.08 421.684 948.759C421.085 946.495 421.485 944.419 423.084 942.721C425.883 939.514 428.881 936.306 432.08 933.287C438.877 926.683 442.276 918.003 445.674 909.701C446.874 906.682 447.474 903.286 448.873 900.267C452.072 893.097 452.272 885.738 451.072 878.191C450.472 874.417 447.674 872.153 445.674 869.511C442.676 865.549 439.277 861.775 436.078 857.813C433.08 854.039 432.68 849.511 432.28 844.793C431.88 840.076 429.481 835.359 427.282 830.831C425.883 827.812 423.484 824.981 421.484 822.151C417.886 817.245 420.085 812.717 422.484 808.377C424.683 804.226 427.482 800.452 430.281 796.49C432.68 792.905 435.279 789.32 437.678 785.735C438.877 784.037 440.477 782.338 441.676 780.452C446.874 773.093 453.871 767.244 460.069 760.64C463.067 757.432 465.666 753.847 468.265 750.262C470.064 747.809 470.864 744.79 470.664 741.771C470.264 736.299 470.264 731.016 469.465 725.544C468.865 721.204 467.266 716.865 466.266 712.525C465.466 709.317 464.667 706.109 464.267 702.902C464.067 701.581 464.667 699.883 465.266 698.562C466.066 696.486 465.466 695.354 463.867 693.845C461.268 691.581 458.869 688.939 456.67 686.109C449.473 677.241 440.477 674.41 428.682 676.863C421.085 678.561 416.287 684.222 415.887 691.769C415.687 694.977 415.487 698.373 416.287 701.581C417.486 707.053 415.287 711.77 414.088 716.865C413.488 719.695 412.688 722.714 411.888 725.544C410.489 729.884 411.489 734.224 412.288 738.375C413.488 743.658 412.688 748.186 408.49 751.96C404.292 755.923 400.093 759.885 395.895 763.659C390.297 768.564 385.899 774.036 383.3 781.018C382.701 782.338 382.101 783.848 381.101 784.98C376.703 791.395 375.504 798.188 377.303 805.924C378.902 813.094 379.302 820.264 377.703 827.812C375.903 836.491 373.704 845.36 373.304 854.228C372.905 861.775 369.506 864.605 359.71 866.115C344.316 868.379 329.922 864.794 315.928 858.945C309.731 856.303 309.331 855.36 310.331 848.945C311.33 841.963 314.129 835.359 318.127 829.321C319.527 827.246 321.126 824.981 322.525 822.906C325.324 818.943 324.725 814.981 323.125 810.83C322.126 808.377 320.726 805.924 319.127 803.66C315.928 798.565 315.728 793.471 318.127 788.188C320.127 783.848 321.726 779.32 324.125 775.168C325.924 771.961 328.323 768.753 330.922 766.112C334.521 762.527 338.919 759.885 342.717 756.3C345.516 753.658 348.315 750.451 350.114 747.054C351.314 744.79 351.314 741.582 350.514 739.129C347.915 731.582 349.714 725.355 355.112 719.506C357.111 717.431 358.91 714.978 360.51 712.713C363.708 708.185 365.108 703.279 363.508 697.619C363.309 696.675 363.109 695.354 363.708 694.6C369.706 687.996 375.304 680.826 384.1 677.429C389.298 675.354 394.496 673.467 399.494 671.391C402.492 670.07 405.691 668.938 408.49 667.24C410.089 666.297 411.289 664.41 412.288 662.9C413.488 661.202 412.288 659.504 411.289 657.995C410.489 656.485 410.089 654.787 409.889 653.277C409.29 648.183 410.689 643.843 415.887 641.202C421.085 638.371 426.083 634.975 431.48 632.711C434.879 631.201 436.078 628.371 438.877 626.861C437.478 622.71 433.48 621.767 430.481 620.069C425.283 617.05 419.885 614.597 414.887 611.389C408.29 607.238 406.891 602.71 409.09 595.728C411.089 589.313 412.888 582.709 414.687 576.294C416.087 571.576 418.686 567.614 421.484 563.463C424.483 558.935 427.682 554.217 429.681 549.312C431.28 545.349 431.48 540.632 432.08 536.292C432.68 531.198 434.879 526.858 437.078 522.33C438.477 519.688 439.477 516.669 441.076 514.216C442.676 511.763 444.675 509.31 446.674 507.046C448.273 505.159 450.273 503.65 451.872 501.952C454.071 499.499 455.27 497.046 453.671 493.649C453.271 492.517 453.271 490.819 453.871 489.687C455.67 485.913 457.669 482.328 459.469 478.743C461.468 474.781 463.867 471.007 465.866 467.045C468.265 462.139 470.664 457.233 472.663 452.138C473.463 450.063 474.263 447.799 474.063 445.534C473.663 438.742 476.662 433.459 481.859 429.874C490.056 424.213 499.052 419.496 509.248 417.609C513.047 416.854 516.845 416.854 520.443 417.798C524.842 418.93 527.84 422.326 530.04 426.1C532.239 430.062 533.838 434.402 535.837 438.553C538.036 443.459 537.436 447.987 534.438 452.327C531.439 456.667 528.44 461.195 525.242 465.346C521.843 469.875 519.844 474.969 518.244 480.064C516.445 485.724 513.246 490.63 509.648 495.536C507.049 499.121 505.05 503.084 503.451 507.046C500.652 513.461 498.453 520.065 495.654 526.292C493.855 530.066 492.855 533.839 492.655 537.99C492.255 544.972 490.656 551.387 485.858 556.859C483.059 560.067 480.26 563.086 477.661 566.293C473.463 571.01 469.465 575.916 465.266 580.445C461.068 585.162 456.67 589.69 452.272 594.219C450.273 596.294 447.674 597.993 447.274 601.2C446.874 603.842 447.274 604.974 449.873 605.54C451.272 605.917 452.672 606.106 454.071 606.106C460.268 606.106 466.266 604.974 471.864 602.898C480.86 599.502 489.856 596.106 498.653 592.332C503.85 590.068 508.848 587.426 513.446 584.218C522.243 578.181 530.639 571.577 539.236 565.161C543.434 561.954 547.432 558.746 550.631 554.595C553.43 550.821 555.429 546.859 557.028 542.519C559.028 537.236 560.627 531.953 563.426 527.047C567.224 520.254 571.822 514.027 576.02 507.612C578.819 503.272 582.418 499.31 582.618 493.838C582.618 491.385 582.418 488.744 581.818 486.291C581.418 483.838 580.619 481.573 579.819 479.309C578.02 473.837 580.219 469.309 583.817 465.158C587.616 460.818 591.414 456.667 595.013 452.138C598.211 448.176 599.811 443.836 599.411 438.742C598.811 431.006 601.81 424.402 605.808 417.798C606.608 416.477 607.407 415.156 608.407 414.024C610.406 411.382 611.206 408.363 611.206 405.156C611.206 397.986 611.606 390.627 611.406 383.457C611.406 381.759 610.606 379.872 609.407 378.551C607.607 376.098 605.208 374.023 603.009 371.947C600.61 369.683 598.211 367.419 596.012 365.154C595.412 364.588 594.813 363.645 594.613 362.89C593.813 359.494 592.814 356.097 592.814 352.701C592.814 344.399 589.215 338.172 582.618 332.889C572.822 325.153 562.426 318.36 551.231 312.511C538.436 305.718 524.642 300.813 510.648 296.473C482.059 287.605 453.471 279.114 425.083 270.057C416.087 267.226 407.69 262.698 399.094 258.736C389.698 254.396 380.501 249.679 370.506 246.282C368.107 245.528 365.908 244.396 363.708 243.452C362.909 241.565 363.309 240.433 365.108 239.112C368.906 236.471 372.105 233.074 374.304 229.112C376.503 225.338 376.703 222.319 373.504 219.3C370.106 216.093 366.107 213.074 362.109 210.432C355.512 206.092 348.915 202.13 343.317 196.469C338.719 191.941 334.92 187.035 333.321 180.808C332.921 178.922 332.321 177.035 331.922 175.148C330.122 167.789 328.323 160.43 326.524 153.072C326.124 150.996 325.724 148.921 325.324 146.845C324.925 144.769 326.324 143.637 327.523 142.694C332.921 138.731 338.519 134.769 343.717 130.618C347.915 127.41 352.113 124.203 355.712 120.24C366.507 108.353 379.702 99.4848 394.896 93.2582C400.693 90.8053 406.491 88.1637 412.088 85.1447C416.087 82.8805 419.485 79.8615 423.084 77.2199C425.483 75.3331 425.083 73.0688 424.283 70.6159C423.484 68.163 421.485 67.4083 419.086 67.7856C415.887 68.163 412.688 68.1631 409.689 68.9178C400.293 70.9934 390.297 72.1255 381.501 75.5218C359.71 84.2014 336.92 90.2393 314.529 97.5981C313.129 97.9754 311.73 98.3527 310.53 99.2962C301.734 105.334 291.139 107.787 281.143 111.372C277.344 112.693 273.546 113.636 269.747 114.768C262.95 116.467 256.353 112.882 254.554 106.466C254.154 104.768 254.354 103.447 256.353 102.315C260.751 99.6736 264.949 96.6546 269.547 94.2016C271.747 92.8808 274.345 91.5601 276.744 90.8053C288.14 87.409 299.735 84.5787 311.13 80.805C324.125 76.6539 337.319 74.5784 350.714 71.7481C362.309 69.2952 373.904 66.2762 385.499 63.4459C387.299 63.0685 389.098 62.3138 390.897 61.3704C394.296 59.8609 396.095 57.4079 395.495 53.6342C395.295 52.1247 395.295 50.6153 395.495 49.1058C396.695 43.6339 396.895 38.5394 394.296 33.2562C392.497 29.4825 393.896 27.407 397.894 24.9541C404.891 20.4256 412.488 17.0292 420.685 14.765C432.28 11.5573 443.875 8.34971 455.47 4.76468C457.869 4.00994 460.068 2.31176 462.467 0.990964C477.861 0.990964 493.255 0.990964 508.448 0.990964C504.65 4.95336 499.452 6.65147 494.454 8.34964C489.456 10.0478 484.059 11.3687 478.861 12.6895C467.865 15.3311 457.47 19.8595 447.474 24.5767C446.074 25.3314 444.675 26.0862 443.475 26.8409C439.677 29.4825 438.677 32.8789 440.277 37.2186C441.076 39.1055 441.676 41.181 442.076 43.2565C442.676 46.4642 444.875 48.351 448.273 47.9736C450.073 47.785 452.072 47.4076 453.671 46.4642C460.068 42.8791 466.666 39.2942 472.663 35.3318C477.661 31.9354 482.459 28.5391 488.057 26.4635C497.453 22.8785 507.049 19.1048 516.445 15.5198C525.841 11.9348 536.237 10.2366 545.033 4.76468C546.833 3.63256 549.431 3.63256 549.831 0.990964C568.024 1.74571 586.016 1.74564 603.809 1.74564Z" fill="black"/>
<path d="M1085.61 412.136C1080.01 405.343 1075.41 397.985 1076.41 388.739C1076.81 385.531 1076.01 383.078 1073.41 381.192C1069.82 378.361 1066.42 375.531 1062.42 373.078C1055.02 368.361 1050.02 362.134 1048.22 354.021C1046.23 344.587 1040.83 337.794 1032.83 331.945C1022.44 324.397 1012.44 316.472 1000.84 310.435C992.448 306.095 984.051 301.566 975.255 298.17C961.261 292.887 948.266 285.717 935.072 278.924C929.874 276.282 924.876 273.452 919.678 270.622C912.081 266.659 906.883 260.999 902.885 253.451C898.087 244.017 891.09 235.526 881.294 229.866C872.098 224.583 862.702 219.488 853.306 214.205C848.108 211.186 842.91 208.356 838.112 204.771C834.913 202.318 832.714 198.921 829.915 195.902C822.718 188.544 824.518 180.053 826.717 171.562C827.916 166.656 827.916 161.75 827.516 156.844C827.116 151.184 828.316 145.901 833.914 142.127C845.709 134.202 857.704 126.466 869.499 118.353C880.894 110.239 893.089 103.446 905.884 97.7858C914.68 93.8234 923.876 90.6157 932.873 87.0307C947.067 81.3701 960.861 75.3322 974.056 67.7848C978.854 64.9545 983.852 62.5016 988.45 59.6713C999.045 53.256 1008.44 45.1426 1016.84 36.2743C1018.64 34.3875 1020.84 32.6892 1022.84 30.9911C1025.03 29.1042 1026.63 26.8401 1026.83 24.0098C1027.03 21.7456 1028.23 20.236 1029.83 18.5379C1032.63 15.7076 1035.43 12.8773 1038.03 9.66961C1039.23 8.16012 1040.43 7.97144 1042.03 7.78275C1049.22 6.83932 1056.22 6.27334 1063.42 5.14122C1068.22 4.38648 1073.01 2.87695 1077.61 1.55615C1080.21 1.55615 1082.81 1.55615 1085.21 1.55615C1085.21 20.236 1085.21 38.9159 1085.21 57.7844C1083.01 58.7279 1081.01 59.6713 1078.81 60.6147C1067.82 65.1432 1057.02 69.8603 1046.03 74.3887C1037.63 77.9738 1029.43 81.7476 1021.04 84.9552C1009.44 89.4837 997.646 93.0687 986.251 97.7858C974.855 102.503 964.859 109.296 958.062 119.485C954.864 124.202 950.665 128.164 946.267 131.938C942.469 135.334 938.87 139.108 935.072 142.504C933.472 144.014 933.073 145.523 933.872 147.41C935.272 150.995 936.471 154.392 938.87 157.599C943.868 164.392 948.466 171.373 952.864 178.732C955.863 183.826 959.462 188.166 964.26 191.94C977.454 202.318 992.648 209.299 1008.24 215.714C1030.23 224.96 1052.42 234.017 1074.61 243.262C1077.01 244.206 1079.21 245.149 1081.61 244.772C1083.01 242.13 1084.21 239.677 1085.41 237.413C1085.41 253.64 1085.41 270.056 1085.41 286.283C1068.82 282.32 1052.42 277.792 1036.63 271.754C1025.03 267.414 1014.44 261.376 1004.84 253.451C998.845 248.546 992.248 244.206 985.651 239.866C970.657 230.243 953.864 223.828 937.671 216.28C923.676 209.865 909.482 204.016 897.287 194.77C891.09 190.053 885.892 184.959 882.094 178.355C877.895 171.185 874.097 163.637 868.699 157.033C866.3 154.203 865.101 150.618 863.501 147.41C862.702 145.712 863.102 144.203 864.501 142.882C867.1 140.617 869.499 138.165 872.098 136.089C875.896 132.881 879.895 129.674 883.693 126.466C882.693 126.089 882.294 126.277 881.694 126.466C874.497 131.183 867.3 136.089 859.903 140.429C855.305 143.07 852.906 146.844 851.706 151.561C851.306 153.448 851.107 155.335 851.107 157.41C850.907 160.052 850.707 162.694 850.307 165.524C849.707 170.996 848.708 176.279 848.508 181.562C848.308 184.581 848.508 188.166 850.107 190.619C855.505 198.733 861.902 205.903 870.898 210.62C880.294 215.714 889.491 220.998 898.887 226.469C902.885 228.922 906.883 231.375 910.682 234.205C917.679 239.489 922.277 246.47 926.675 253.64C928.075 256.093 929.674 258.546 931.273 260.81C935.272 266.471 941.869 269.678 947.667 272.886C962.46 281.188 977.654 289.113 993.448 295.528C1000.84 298.547 1008.44 301.755 1015.44 305.529C1029.83 313.076 1043.23 321.944 1056.42 331.379C1064.02 336.85 1068.62 343.643 1070.62 352.511C1071.42 356.474 1073.61 360.436 1075.81 364.021C1078.01 367.606 1081.01 370.437 1085.41 371.757C1085.61 385.531 1085.61 398.739 1085.61 412.136Z" fill="black"/>
<path d="M921.477 372.702C945.267 373.268 968.657 375.721 991.848 380.249C1000.44 381.947 1008.24 384.966 1015.04 390.627C1019.64 394.401 1024.63 397.608 1029.43 401.193C1031.63 402.703 1033.63 404.401 1035.63 406.288C1040.83 411.194 1041.23 417.232 1037.63 423.081C1034.43 428.364 1032.03 433.836 1031.63 440.063C1031.03 452.704 1026.63 464.403 1020.64 475.347C1017.24 481.762 1013.04 487.989 1008.84 493.838C1005.64 498.178 1001.44 501.763 998.445 506.291C993.647 513.273 989.449 520.443 985.05 527.613C983.251 530.632 983.051 533.839 983.651 537.236C985.05 544.783 983.251 551.576 977.653 557.425C968.057 567.237 958.861 577.614 948.665 587.049C943.468 591.954 936.67 595.351 930.473 599.691C926.475 602.521 922.676 605.351 918.878 608.181C917.079 609.502 916.479 611.389 916.479 613.842C916.479 618.748 916.479 623.842 915.879 628.748C915.479 632.333 914.28 635.918 912.88 639.126C910.081 644.786 910.281 650.636 911.481 656.485C913.08 664.598 913.48 672.712 912.281 680.825C911.481 685.92 912.281 690.637 913.68 695.543C915.879 703.656 916.879 711.77 915.079 720.072C914.879 721.015 914.879 722.148 914.68 723.28C913.68 729.129 915.079 734.601 916.079 740.261C917.079 746.299 914.879 750.828 910.681 754.979C906.683 758.941 902.685 762.715 898.686 766.677C890.49 774.602 884.092 784.037 879.694 794.037C876.096 801.962 875.096 810.83 873.497 819.509C873.097 821.774 874.496 824.415 874.896 827.057C875.496 833.095 876.895 839.133 876.295 844.982C875.496 854.416 878.495 862.53 884.092 869.511C891.689 879.134 892.089 889.512 889.49 900.456C889.29 901.399 889.09 902.154 888.89 903.097C886.291 915.55 879.694 925.74 868.899 933.476C865.1 936.117 861.502 938.759 857.903 941.589C854.504 944.231 854.105 946.306 855.504 950.269C856.504 952.91 857.303 955.363 858.303 958.005C860.302 963.288 858.903 967.816 854.105 971.213C849.706 974.42 845.308 977.628 840.31 980.081C830.914 984.798 820.918 988.761 811.522 993.478C805.125 996.685 798.928 1000.46 792.93 1004.61C790.731 1006.12 788.932 1009.14 788.132 1011.78C785.933 1018.01 784.533 1024.23 788.932 1030.65C792.93 1036.31 795.729 1042.54 798.928 1048.57C801.526 1053.48 803.925 1058.39 806.324 1063.29C808.723 1068.39 806.924 1072.73 802.926 1076.31C800.927 1078.2 798.528 1079.71 796.129 1081.22C780.535 1091.22 762.942 1097.25 745.35 1102.92C735.754 1105.93 726.158 1109.33 716.762 1113.1C711.964 1114.99 707.765 1118.01 703.167 1120.46C698.169 1123.1 693.371 1125.94 688.173 1128.01C683.775 1129.71 678.977 1129.9 674.379 1130.84C668.981 1131.97 663.983 1130.46 658.985 1128.95C651.389 1126.69 645.191 1122.16 639.394 1117.07C633.196 1111.6 626.199 1107.26 618.802 1103.29C611.805 1099.52 605.008 1095.18 599.21 1089.71C593.812 1084.61 591.014 1078.76 592.213 1071.4C592.813 1066.5 593.213 1061.59 595.812 1057.06C597.011 1054.99 597.211 1052.16 597.611 1049.71C599.21 1040.65 603.209 1032.54 607.207 1024.23C609.206 1020.08 610.206 1015.74 609.606 1011.59C608.606 1005.36 610.805 1000.27 614.604 995.742C619.402 990.081 624.6 984.798 629.798 979.515C633.196 975.93 636.795 972.534 638.594 967.816C639.194 966.118 639.793 964.42 640.193 962.722C641.793 952.156 646.191 943.476 655.187 936.495C660.385 932.344 663.184 926.872 664.583 920.456C666.582 911.022 666.182 901.588 665.183 892.153C664.583 887.625 663.384 883.097 662.384 878.379C662.184 877.436 661.784 876.304 661.185 875.549C656.586 868.756 654.187 861.209 652.388 853.284C651.988 851.586 651.988 849.699 651.988 847.812C652.588 840.076 653.588 832.34 653.588 824.604C653.588 818.755 652.788 812.905 651.988 807.056C651.189 799.509 652.988 792.527 657.386 786.112C659.585 783.093 660.985 779.319 663.184 776.3C665.783 772.715 669.181 769.696 672.18 766.3C676.778 761.394 681.376 756.677 685.774 751.771C688.773 748.186 688.973 744.035 688.773 739.507C688.373 733.657 688.173 727.808 688.773 721.959C689.573 713.845 690.372 705.732 690.572 697.618C690.572 696.864 690.772 696.109 690.372 695.354C687.574 689.316 688.973 682.901 688.773 676.674C688.773 674.599 688.773 672.523 688.773 670.448C688.773 669.693 688.373 668.938 688.573 668.183C689.373 659.315 688.773 650.07 692.172 641.579C695.37 633.465 698.769 625.352 702.367 617.427C704.167 613.653 706.966 610.446 710.964 607.993C720.36 601.955 729.556 595.728 738.552 589.313C741.951 587.049 744.75 584.218 747.749 581.388C753.546 575.916 758.944 570.256 764.942 564.972C771.539 559.123 776.137 552.142 779.136 544.217C783.934 531.764 790.931 520.443 797.928 509.121C798.328 508.367 798.928 507.612 799.327 506.857C802.726 501.951 803.326 496.857 801.526 491.196C798.728 482.705 798.728 474.403 801.726 465.912C803.925 459.874 805.525 453.459 807.524 447.233C808.124 445.157 808.723 443.081 809.123 441.006C809.723 435.345 812.322 430.251 816.12 425.911C824.317 416.477 832.514 407.042 840.91 397.797C842.709 395.721 844.509 393.646 846.308 391.57C850.506 386.476 856.304 383.834 862.501 381.57C874.496 377.23 887.291 375.532 899.886 374.4C906.883 373.268 914.08 373.079 921.477 372.702ZM762.143 734.79C762.343 734.79 762.543 734.79 762.742 734.79C762.742 736.488 762.543 738.375 762.742 740.073C763.742 744.979 761.943 748.941 758.744 752.526C757.145 754.602 755.146 756.488 753.346 758.187C744.55 766.866 735.754 775.168 729.556 785.735C726.757 790.641 723.359 795.169 723.559 801.207C723.559 802.905 722.959 804.792 722.959 806.49C722.759 810.075 722.359 813.66 722.759 817.245C723.959 827.623 724.558 837.812 724.158 848.19C724.158 849.511 724.158 850.831 724.558 852.152C725.958 859.7 728.956 866.87 733.555 873.285C735.154 875.36 736.153 877.625 736.553 880.266C738.552 892.531 738.552 904.607 735.554 917.06C733.555 924.796 730.156 931.023 723.959 936.306C718.761 940.834 714.163 945.74 713.363 952.91C713.163 955.363 712.363 958.005 712.163 960.458C711.564 966.496 708.965 971.402 704.367 975.553C698.769 980.647 692.971 985.742 687.574 991.025C681.776 996.685 676.778 1002.91 676.378 1011.4C676.178 1015.37 674.779 1019.33 673.18 1023.1C670.781 1028.76 668.981 1034.8 667.982 1040.84C665.783 1053.29 664.183 1065.74 662.184 1078.39C661.185 1085.56 662.984 1091.78 668.182 1097.07C670.98 1100.09 674.579 1102.54 678.777 1102.73C683.175 1103.1 687.774 1103.1 692.172 1102.16C707.765 1098.76 720.76 1090.65 731.955 1079.71C733.555 1078.01 734.954 1076.12 736.353 1074.24C738.353 1071.22 739.152 1068.01 738.752 1064.42C737.753 1056.31 735.554 1048.57 733.355 1040.65C728.956 1024.61 727.357 1028.57 732.355 1013.67C732.355 1013.48 732.355 1013.29 732.355 1013.29C733.155 1007.44 736.353 1002.91 741.551 999.516C748.149 995.365 754.746 991.213 761.543 987.062C769.14 982.534 776.737 978.006 783.334 972.345C787.932 968.383 789.731 963.477 788.932 957.816C788.532 955.175 788.132 952.344 787.532 949.891C786.733 947.061 787.532 944.797 789.331 942.721C790.931 941.023 792.53 939.325 794.329 937.815C796.728 935.74 799.127 934.042 801.526 931.966C808.124 926.306 812.122 918.947 814.521 911.211C817.32 902.531 818.719 893.286 818.12 884.04C817.92 880.455 816.92 877.059 814.721 873.851C812.122 869.889 809.523 865.926 807.124 861.964C804.125 856.869 802.926 851.586 803.326 845.548C803.726 838.944 803.326 831.963 802.326 825.359C800.727 813.472 802.126 802.15 807.724 791.584C810.523 786.112 814.321 781.018 818.12 775.923C820.918 772.149 824.517 768.753 827.716 765.357C831.714 761.017 836.112 757.055 839.911 752.715C843.109 749.13 844.709 745.167 844.109 740.261C843.109 731.205 843.709 722.336 845.908 713.468C847.507 707.43 847.907 701.015 846.708 694.788C845.708 689.694 845.708 684.599 846.308 679.505C846.708 674.787 847.108 670.259 847.307 665.542C847.707 658.938 847.307 652.145 849.507 645.919C850.706 642.711 852.105 639.503 853.305 636.296C855.704 629.88 857.903 623.465 860.102 617.05C861.502 613.087 863.501 609.502 866.899 607.049C870.698 604.219 874.496 601.577 878.295 598.747C883.692 594.596 889.49 591.011 894.088 586.294C902.884 577.426 911.281 567.991 919.677 558.746C924.875 553.085 927.074 546.293 928.074 538.934C928.474 535.349 929.274 531.575 930.873 528.556C935.671 519.499 941.069 510.82 946.067 501.951C948.066 498.178 950.665 494.404 951.464 490.442C954.663 474.026 957.662 457.422 960.061 441.006C961.06 434.591 963.459 429.307 967.458 424.213C969.857 421.194 971.256 417.609 972.855 414.213C974.055 411.571 973.855 408.929 972.456 406.288C969.457 400.25 966.458 394.212 963.459 388.174C962.06 385.155 959.461 383.457 956.262 382.513C944.467 379.306 932.872 379.117 921.477 383.645C918.078 384.966 914.68 386.853 912.48 389.306C907.882 394.212 903.684 399.306 900.086 404.778C895.487 411.571 891.089 418.364 885.692 424.401C882.293 428.175 879.694 432.515 879.894 437.421C880.094 444.214 877.895 450.251 875.296 456.289C870.298 467.233 869.698 478.366 873.896 489.875C876.096 496.102 875.896 502.329 872.497 508.178C869.298 513.839 866.3 519.688 863.301 525.537C860.702 530.632 857.703 535.726 855.704 541.009C852.905 548.179 850.106 555.161 844.908 561.01C837.911 568.557 830.514 575.916 823.317 583.464C815.521 591.388 806.324 597.615 796.928 603.842C788.132 609.502 781.735 617.05 777.736 626.295C775.337 631.956 772.938 637.805 770.539 643.466C767.94 649.881 765.341 656.485 764.942 663.466C764.742 668.183 764.942 672.712 765.141 677.429C765.341 683.656 763.942 689.694 766.341 695.732C766.541 696.109 766.541 696.675 766.541 697.052C766.141 702.713 765.741 708.374 765.141 714.223C763.942 720.827 762.942 727.808 762.143 734.79Z" fill="black"/>
<path d="M21.6498 1277.07C64.632 1277.07 107.214 1277.07 150.397 1277.07C150.197 1273.11 149.997 1269.71 149.597 1266.32C148.197 1254.24 145.199 1242.54 138.601 1231.98C129.205 1217.07 115.611 1207.82 97.0186 1205.18C84.6238 1203.48 72.6288 1203.67 60.8337 1207.82C50.6379 1211.41 42.6412 1217.64 35.844 1225.37C33.2451 1228.2 30.846 1231.22 28.0472 1234.62C24.8485 1233.3 21.6498 1231.98 18.2512 1230.47C18.651 1225.75 20.8502 1221.98 22.4495 1218.01C24.4487 1213.3 27.4474 1208.96 29.2467 1204.05C30.4462 1201.03 30.4462 1197.64 31.046 1194.43C32.6453 1185.75 29.8464 1177.45 29.6465 1168.77C29.6465 1161.97 29.6465 1154.99 32.6453 1148.58C35.644 1141.78 36.2439 1134.99 32.8453 1128.2C29.8465 1122.16 28.8469 1115.75 27.8473 1109.14C27.2476 1105.75 26.6478 1102.35 26.048 1098.76C27.8473 1098.2 29.4466 1097.82 31.046 1097.44C35.2442 1096.12 38.4429 1096.88 42.0414 1099.52C53.0368 1107.26 65.4318 1111.6 79.426 1111.41C90.6213 1111.41 101.217 1109.33 111.813 1106.88C123.408 1104.24 134.803 1100.84 145.598 1095.75C154.195 1091.59 161.992 1086.12 166.79 1078.01C168.589 1074.99 169.988 1071.59 170.388 1068.39C170.988 1063.67 170.588 1058.76 170.188 1054.05C169.788 1045.74 168.989 1037.25 168.589 1028.95C168.389 1026.12 169.389 1023.29 169.988 1020.46C170.588 1017.82 171.588 1015.18 171.988 1012.53C172.787 1008.01 174.387 1003.67 177.585 999.704C172.787 1001.03 167.789 1002.16 162.991 1003.48C153.195 1006.12 143.2 1007.63 133.004 1008.95C121.808 1010.27 110.613 1011.97 99.4177 1013.48C86.623 1015.18 73.8282 1017.06 61.0336 1018.95C55.8357 1019.71 50.8377 1021.03 45.6399 1021.97C44.2405 1022.16 42.841 1022.35 41.2417 1022.54C41.8414 1018.01 42.2414 1014.23 42.8411 1010.27C43.4409 1005.36 46.0397 1001.4 50.0381 998.384C56.0356 993.855 62.2331 989.704 68.4305 985.364C73.2285 981.968 78.0266 978.383 82.8246 974.987C87.6226 971.402 90.0215 966.684 90.2214 960.835C90.4213 957.439 90.8212 954.042 91.221 949.891C112.612 951.212 134.003 953.288 155.394 954.986C176.586 956.684 197.977 958.76 219.568 960.646C219.768 957.816 220.368 954.986 219.968 952.344C219.168 947.25 221.167 943.665 224.766 940.268C227.964 937.061 231.163 933.853 233.962 930.457C239.16 924.041 240.759 916.305 243.158 908.758C243.958 906.116 244.557 903.475 245.557 901.022C247.356 895.739 247.956 890.455 247.156 884.417C232.962 884.795 218.968 884.983 204.774 885.361C190.38 885.738 176.186 886.493 161.792 886.87C147.598 887.248 133.404 887.436 119.01 887.814C118.61 886.682 118.21 885.738 118.21 884.606C118.01 881.21 117.01 878.191 115.211 875.172C112.412 870.266 112.812 865.738 116.81 861.398C121.009 856.681 125.407 852.152 128.406 846.492C130.805 842.152 135.203 839.133 139.401 836.68C150.197 830.265 162.392 826.868 174.786 824.793C183.783 823.283 192.979 821.962 202.375 822.717C218.968 823.849 234.961 826.868 249.555 834.604C252.954 836.303 256.153 838.378 258.952 840.831C261.151 842.718 262.75 845.359 263.949 847.812C265.549 851.397 267.948 854.228 271.346 856.303C274.745 858.19 278.343 860.077 281.742 861.964C289.139 866.492 296.536 871.021 303.733 875.549C305.732 876.87 306.732 878.757 307.531 881.021C312.529 896.682 309.93 911.777 302.533 926.117C300.534 930.079 296.336 933.287 292.937 936.683C291.738 938.004 290.139 939.136 288.539 940.268C284.141 943.665 282.342 948.004 282.142 953.288C282.142 956.684 281.542 960.269 280.942 963.665C280.143 967.816 278.144 971.402 274.745 974.043C267.548 979.704 259.951 984.987 252.754 990.647C248.156 994.233 243.558 998.195 239.36 1002.16C236.761 1004.61 235.761 1008.01 235.361 1011.59C234.961 1015.18 234.362 1018.76 233.562 1022.16C231.763 1030.08 232.363 1038.01 232.762 1045.93C232.962 1051.59 232.762 1057.25 232.762 1063.1C232.762 1064.23 232.562 1065.18 232.562 1066.31C232.163 1080.27 225.166 1090.84 213.37 1098.95C208.572 1102.35 203.774 1105.56 199.176 1108.95C195.178 1111.78 192.379 1115.56 189.98 1119.71C187.781 1123.29 184.982 1126.69 182.183 1129.9C176.786 1136.31 176.586 1143.11 180.184 1150.46C183.183 1156.5 184.782 1163.11 186.781 1169.52C187.581 1172.16 188.581 1174.62 189.18 1177.26C191.579 1187.64 195.578 1197.45 200.376 1206.88C204.974 1215.94 208.173 1225.37 209.972 1235.18C212.371 1248.58 212.371 1262.17 210.771 1275.75C210.372 1278.58 210.572 1281.6 209.772 1284.62C208.372 1289.71 205.574 1293.49 201.775 1296.51C192.179 1304.62 182.983 1313.3 173.987 1321.98C168.789 1326.89 162.392 1330.85 156.194 1335C148.397 1340.28 140.401 1345.19 132.804 1350.66C129.205 1353.11 126.406 1356.51 123.408 1359.72C122.008 1361.23 121.209 1363.11 120.609 1365C118.81 1370.66 116.411 1376.51 116.211 1382.55C116.011 1387.08 113.412 1390.47 110.813 1393.68C104.616 1401.23 96.8188 1407.45 87.8225 1411.98C83.4243 1414.25 78.2264 1415.19 73.2284 1415.76C64.0323 1416.89 55.036 1416.32 46.4396 1413.11C41.4417 1411.42 36.8436 1408.59 32.4454 1405.76C26.4479 1401.79 22.0496 1396.32 18.2512 1390.28C16.252 1387.08 15.2525 1383.87 15.6523 1380.47C16.452 1374.81 17.4516 1369.15 18.8511 1363.68C20.0506 1358.96 19.2509 1354.81 16.8519 1350.66C14.6528 1346.89 12.2537 1343.11 10.6544 1339.15C7.05588 1329.9 7.25579 1320.28 8.65521 1310.66C9.25497 1307.07 11.854 1303.87 13.8531 1300.66C14.8527 1298.96 15.8523 1297.26 17.0518 1295.75C20.6503 1291.41 21.45 1286.32 21.45 1280.85C21.25 1279.34 21.4499 1278.58 21.6498 1277.07ZM147.198 1293.49C145.598 1293.3 144.799 1293.3 143.999 1293.3C125.207 1293.11 106.215 1293.11 87.4226 1292.92C85.0236 1292.92 82.6246 1292.92 80.2255 1293.3C79.226 1293.49 77.8265 1293.68 77.2268 1294.24C73.8282 1299.15 69.2302 1303.68 67.4309 1308.96C64.4322 1317.07 63.0327 1325.75 61.4334 1334.43C60.4338 1340.47 63.4326 1345.75 67.8308 1350.28C72.4289 1354.81 77.4268 1354.62 83.0244 1352.36C83.6242 1352.17 84.024 1351.6 84.6238 1351.41C95.0194 1346.32 104.016 1339.34 112.812 1332.17C117.81 1328.02 122.608 1323.68 126.206 1318.21C130.605 1311.6 135.203 1305.19 141.4 1299.9C143.399 1298.21 144.999 1295.94 147.198 1293.49ZM242.758 873.662C242.358 872.908 242.158 872.341 241.759 871.964C237.36 868.19 232.962 864.605 228.564 860.832C225.965 858.756 223.166 857.058 220.767 854.982C218.968 853.284 217.169 851.397 216.369 849.322C214.17 842.529 209.372 838.567 202.375 836.491C192.579 833.472 183.583 836.114 177.385 843.661C174.387 847.246 173.987 851.397 172.188 855.171C169.589 860.832 170.588 866.304 173.187 871.775C174.387 874.228 175.986 875.36 178.985 875.172C189.98 874.983 200.976 874.983 211.971 874.794C221.567 874.606 231.163 874.417 240.759 874.228C241.159 874.04 241.759 873.851 242.758 873.662ZM91.8208 1140.65C92.0208 1140.65 92.2207 1140.65 92.4206 1140.84C92.6205 1139.9 92.8203 1138.77 93.2202 1137.82C93.0202 1137.82 92.8204 1137.82 92.6204 1137.63C92.0207 1138.58 91.8208 1139.52 91.8208 1140.65Z" fill="black"/>
<path d="M129.005 138.732C86.2233 139.486 43.641 140.053 0.858727 140.807C0.65881 140.43 0.658785 140.241 0.458868 139.864C2.85787 137.977 4.85704 135.713 7.45596 134.203C17.6517 128.165 27.2478 121.373 36.8438 114.769C42.8413 110.618 50.0383 108.165 56.8355 105.146C57.8351 104.768 59.0346 104.58 59.8343 103.825C69.8301 97.0322 81.8251 95.1453 93.4203 92.6924C112.812 88.5413 132.604 86.0884 152.596 84.2015C167.989 82.692 183.383 81.1826 198.976 81.56C207.373 81.7487 215.57 82.5034 223.566 84.5789C225.565 85.145 227.565 85.8997 229.164 86.8432C232.363 89.1074 232.562 91.5603 229.564 93.8246C226.765 96.0888 223.566 97.9756 220.567 99.8624C219.368 100.617 218.168 101.372 216.769 101.938C214.37 103.07 212.371 104.768 211.171 107.221C209.972 109.863 207.973 112.127 206.373 114.58C202.175 120.618 198.177 126.845 193.979 132.694C191.38 136.279 188.181 139.486 185.182 142.694C183.383 144.581 182.783 146.279 182.983 148.732C183.383 153.072 184.982 156.846 186.382 160.808C187.781 164.582 188.981 168.544 189.181 172.695C189.58 182.318 192.979 190.432 200.576 197.224C206.173 202.319 211.971 206.659 218.768 210.432C222.966 212.697 226.765 215.338 230.563 218.357C234.961 221.942 235.361 224.772 232.762 229.49C230.963 232.886 229.564 236.282 227.964 239.679C226.965 241.754 227.165 243.641 228.964 244.962C231.363 246.849 233.762 248.924 236.561 250.434C243.758 254.962 250.955 259.491 258.352 263.453C263.35 266.095 268.548 268.359 273.945 270.057C289.139 274.963 304.533 279.68 319.926 284.397C337.919 289.869 356.311 294.964 374.104 300.813C391.896 306.662 408.889 314.398 424.483 324.398C430.68 328.361 436.278 333.644 441.876 338.361C444.674 340.814 446.074 344.022 446.274 347.607C446.474 350.815 446.474 353.834 446.674 357.041C447.073 363.834 450.672 368.551 456.07 372.513C457.469 373.457 458.869 374.589 460.068 375.721C462.867 378.74 464.866 381.948 464.066 386.665C462.667 393.457 462.467 400.439 461.867 407.232C461.468 410.628 460.068 413.27 457.669 415.722C452.671 421.006 447.673 426.289 442.875 431.761C441.476 433.27 440.276 434.78 439.477 436.478C435.478 445.157 427.881 450.441 419.485 454.403C412.688 457.611 405.891 460.818 398.893 463.837C394.495 465.724 389.897 467.045 385.499 468.743C383.5 469.498 381.301 470.253 379.502 471.385C376.103 473.083 376.103 475.347 379.302 477.045C384.3 479.498 389.697 481.763 394.695 484.404C399.293 486.668 404.291 488.555 407.89 492.518C411.888 496.857 412.088 500.065 407.09 503.461C401.093 507.801 394.495 511.763 388.498 516.292C384.699 519.122 381.101 522.33 377.302 525.349C375.503 526.858 373.504 528.179 371.905 529.689C369.906 531.387 367.706 533.085 366.307 535.161C362.709 540.632 357.911 544.972 352.113 548.18C344.916 552.331 337.319 555.35 328.723 556.482C322.725 557.237 317.327 556.671 311.93 554.784C310.73 554.407 309.73 553.652 308.731 553.086C306.932 551.765 305.132 550.255 303.333 548.746C300.534 546.482 298.335 544.029 297.536 540.255C296.536 535.349 293.737 531.009 292.937 526.104C291.738 520.254 289.939 514.782 286.14 510.065C285.141 508.933 284.741 507.424 284.141 505.914C282.542 502.141 283.341 498.744 286.14 495.914C290.339 491.574 295.336 488.555 301.134 486.291C308.331 483.461 315.528 480.63 322.725 477.8C323.325 477.611 323.925 477.423 324.524 477.045C327.323 475.347 327.523 472.706 324.524 471.007C320.926 468.932 316.928 467.234 313.129 465.158C306.332 461.384 300.734 456.29 295.536 450.818C290.738 445.535 285.74 440.44 280.942 435.346C277.544 431.761 274.345 427.987 274.145 422.704C274.145 420.628 273.945 418.364 274.745 416.477C278.144 407.798 278.344 398.929 276.944 389.872C276.944 389.495 276.944 388.929 276.944 387.986C278.543 387.608 280.143 387.231 281.742 387.042C288.739 386.099 295.536 385.155 302.533 384.212C303.133 384.212 303.733 383.835 304.333 383.457C304.333 381.382 303.133 381.004 301.334 380.627C293.737 379.495 286.34 378.174 278.743 377.231C275.745 376.853 273.745 375.721 272.346 373.268C269.147 367.985 265.549 362.89 261.95 357.23C263.75 356.664 264.749 356.098 265.749 355.909C287.74 352.89 309.93 350.06 331.921 346.664C344.716 344.588 357.511 341.569 370.305 338.927C371.505 338.739 372.704 338.173 373.904 337.606C375.303 336.852 376.503 335.908 378.302 334.776C373.904 331.946 370.105 328.927 366.107 326.663C354.112 319.87 341.717 313.455 328.523 308.926C310.13 302.7 291.538 297.794 272.346 294.398C258.152 291.945 243.758 289.114 229.164 288.926C222.367 288.737 215.37 289.303 208.572 290.058C205.774 290.246 202.375 290.812 201.375 293.643C200.376 296.662 203.175 298.549 205.174 300.435C210.772 305.153 216.169 310.058 221.767 314.776C222.367 315.342 223.166 315.53 224.366 316.285C218.968 317.228 210.971 315.908 207.973 314.021C195.378 306.285 182.183 300.058 168.589 294.398C157.993 290.058 149.597 282.699 141.8 274.963C140.001 273.076 138.402 271 136.602 269.114C133.803 265.906 132.404 262.321 133.604 258.17C134.203 256.472 134.603 254.774 135.003 252.887C136.203 248.736 134.803 245.151 130.805 242.886C125.807 240.056 120.209 238.547 114.811 237.226C95.6194 232.32 76.2274 227.791 57.0354 222.697C48.4389 220.433 40.0424 217.414 31.0461 214.583C34.6447 212.508 37.4435 212.131 40.8421 213.263C54.4365 217.414 68.2307 220.244 82.4249 221.753C100.617 224.018 119.01 224.584 137.402 223.452C142.6 223.074 147.798 222.131 152.796 220.621C157.394 219.301 159.193 215.904 154.595 211.753C153.795 210.998 152.996 210.244 152.196 209.489C148.397 206.093 144.399 202.885 140.601 199.489C133.604 193.451 130.005 185.526 127.606 177.224C125.807 170.62 125.007 163.827 123.208 157.412C122.008 153.449 123.008 149.676 123.608 145.902C123.808 144.958 124.807 144.015 125.807 143.071C127.006 141.939 128.606 140.807 130.005 139.675C129.205 139.298 129.005 139.109 129.005 138.732ZM406.89 395.344C403.891 394.778 340.718 399.495 337.119 400.628C337.719 407.043 335.52 413.081 333.121 419.119C330.722 425.157 330.722 431.383 334.32 437.421C336.719 441.572 339.118 445.912 340.918 450.252C343.117 454.969 346.715 457.422 351.913 457.233C356.511 457.045 361.109 456.479 365.507 455.158C374.903 452.139 383.1 447.61 386.699 437.987C387.698 435.157 389.297 432.515 391.097 430.063C394.895 424.779 399.093 419.685 402.692 414.213C404.491 411.571 405.491 408.552 406.29 405.533C406.89 402.326 406.69 398.929 406.89 395.344ZM65.6318 132.882C65.6318 133.26 65.8318 133.637 65.8318 134.015C67.631 134.015 69.2303 134.015 71.0296 134.015C84.8238 133.826 98.4181 133.449 112.212 133.26C119.609 133.071 126.806 132.694 134.203 132.694C138.002 132.694 140.001 130.807 142 128.165C144.799 124.392 147.798 120.618 150.796 116.844C153.595 113.448 156.794 110.429 158.993 106.844C160.392 104.768 162.192 103.259 164.391 101.938C168.989 99.2964 173.387 96.6548 177.785 94.0132C179.385 93.0698 181.584 92.3151 181.184 90.0508C180.584 87.7866 177.985 87.5978 175.986 87.5978C170.788 87.4091 165.39 87.2205 160.193 87.7866C138.801 90.4282 118.21 95.5227 99.8177 106.844C94.6198 110.051 89.4219 113.259 85.0237 117.599C80.4257 122.505 75.0278 126.467 69.2303 130.052C68.2307 131.184 66.8313 132.128 65.6318 132.882ZM327.323 364.4C327.923 367.042 329.722 368.74 332.121 369.117C336.12 369.872 340.318 370.627 344.316 371.004C351.513 371.759 358.51 372.513 365.707 373.08C377.502 374.212 389.497 375.344 401.293 376.476C402.292 376.476 403.292 376.287 404.491 376.098C401.692 371.947 398.694 368.551 396.494 364.589C394.095 360.626 392.496 356.286 390.497 351.947C383.1 351.758 332.721 361.381 327.323 364.4ZM339.918 489.499C332.921 490.065 327.323 492.518 322.925 497.423C318.527 502.329 320.726 508.367 327.323 509.877C328.323 510.065 329.122 510.254 330.122 510.254C338.119 510.065 345.316 507.235 351.513 502.518C355.711 499.31 355.112 494.97 350.114 492.706C347.115 491.008 343.516 490.442 339.918 489.499Z" fill="black"/>
<path d="M793.33 1263.3C792.93 1269.53 792.73 1275.94 792.33 1282.17C791.731 1288.2 788.732 1293.49 784.134 1297.45C776.137 1304.81 770.54 1314.05 763.742 1322.17C758.544 1328.39 752.947 1334.43 747.349 1340.28C741.152 1346.89 736.154 1354.24 732.155 1362.36C726.958 1372.92 722.16 1383.68 713.963 1392.55C707.965 1399.15 700.968 1405 693.371 1409.91C681.177 1417.83 667.182 1421.61 652.788 1423.87C633.996 1426.89 615.604 1424.44 597.811 1418.4C586.616 1414.62 576.42 1408.78 568.423 1400.28C564.025 1395.57 559.627 1390.66 556.028 1385.57C550.831 1378.02 550.231 1369.53 552.23 1361.04C553.43 1356.32 553.629 1351.79 553.03 1347.26C552.23 1341.6 553.03 1336.32 554.029 1330.85C555.029 1325.38 556.428 1319.9 556.628 1314.43C556.828 1309.34 559.027 1305.38 561.626 1301.22C562.826 1299.34 564.225 1297.45 565.424 1295.56C568.623 1290.66 568.623 1285.37 567.224 1280.09C565.624 1274.24 565.824 1268.58 565.824 1262.73C565.824 1253.86 567.424 1245 569.823 1236.51C572.622 1226.13 577.42 1216.69 583.017 1207.64C585.216 1204.05 587.216 1200.47 589.215 1197.07C590.614 1194.81 592.213 1192.35 593.613 1190.09C596.212 1185.75 598.811 1181.22 601.41 1176.69C604.808 1170.84 609.606 1165.94 614.804 1161.79C617.203 1159.9 619.602 1157.82 622.201 1156.12C625 1154.24 627.999 1152.35 630.997 1151.03C635.196 1149.14 639.394 1147.63 643.792 1146.12C644.992 1145.75 646.191 1145.18 647.191 1144.62C657.187 1139.33 667.782 1137.44 679.177 1139.71C687.574 1141.41 694.971 1145.56 702.968 1148.58C707.166 1150.09 711.164 1151.97 715.162 1153.67C725.958 1158.58 735.954 1164.62 744.75 1172.35C749.148 1176.31 753.347 1180.28 757.945 1184.05C764.142 1189.33 768.54 1195.94 773.538 1202.35C780.335 1211.22 785.533 1220.84 788.532 1231.41C791.731 1241.6 793.33 1252.35 793.33 1263.3ZM720.56 1268.96H720.76C719.96 1260.66 719.361 1252.54 718.561 1244.24C717.561 1232.73 714.963 1221.41 711.164 1210.28C708.965 1203.86 705.566 1197.82 702.768 1191.6C698.369 1182.35 692.372 1174.24 684.175 1167.45C678.178 1162.54 666.783 1161.97 661.385 1168.58C659.386 1171.03 657.386 1173.67 655.987 1176.5C654.388 1179.52 653.588 1182.73 652.388 1185.75C650.989 1189.71 649.39 1193.67 648.19 1197.64C646.991 1201.79 645.991 1206.13 644.792 1210.28C644.192 1212.73 643.392 1215.18 642.992 1217.64C640.993 1228.01 639.594 1238.39 639.394 1248.96C638.994 1259.71 638.794 1270.66 640.993 1281.22C641.793 1285 641.393 1288.77 639.394 1292.17C637.195 1295.56 634.796 1298.96 632.597 1302.36C629.998 1306.13 627.599 1309.9 626.599 1314.43C625.799 1319.34 624 1323.87 621.801 1328.58C619.602 1333.11 618.003 1337.83 616.803 1342.74C615.004 1350.66 613.605 1358.58 612.405 1366.51C612.005 1369.53 612.205 1372.74 612.205 1375.76C612.205 1381.04 615.204 1385.38 617.403 1390.1C619.602 1395 623.001 1398.77 627.199 1401.98C632.397 1405.76 637.994 1407.45 644.592 1404.62C650.589 1402.17 654.588 1397.83 657.786 1392.74C661.984 1386.32 663.784 1378.96 666.183 1371.79C670.781 1357.64 678.178 1344.81 687.374 1333.11C690.773 1328.77 693.771 1324.24 696.77 1319.72C699.369 1315.75 701.368 1311.6 704.167 1307.83C707.166 1303.87 710.564 1300.09 713.963 1296.32C717.561 1291.98 720.36 1287.26 720.36 1281.6C720.56 1277.64 720.56 1273.3 720.56 1268.96Z" fill="black"/>
<path d="M878.895 1509.53C878.895 1504.82 878.895 1500.85 878.895 1496.7C883.493 1495.95 888.091 1495.38 892.29 1494.44C896.288 1493.5 900.286 1492.17 903.885 1490.48C911.482 1487.08 913.481 1479.53 912.481 1474.25C911.482 1469.34 909.882 1464.44 908.083 1459.53C905.484 1452.55 902.885 1445.76 899.887 1438.78C898.687 1435.76 896.688 1432.93 895.488 1429.91C891.29 1419.15 887.092 1408.21 883.094 1397.45C881.094 1392.17 879.695 1386.89 877.896 1381.61C875.897 1375.76 876.496 1369.72 877.896 1363.87C879.295 1357.64 881.494 1351.6 882.294 1345.19C882.894 1339.91 885.093 1335.19 887.492 1330.66C890.091 1325.19 891.69 1319.72 892.889 1314.06C893.889 1308.96 896.088 1304.24 899.687 1300.09C901.686 1297.83 903.485 1295.19 904.685 1292.55C906.284 1289.34 905.084 1286.13 904.085 1283.11C902.885 1279.9 901.286 1276.7 899.887 1273.49C895.888 1263.3 891.89 1252.92 887.492 1241.79C886.092 1244.81 885.093 1247.07 884.093 1249.53C880.295 1259.15 875.897 1268.58 872.698 1278.21C871.098 1283.11 869.699 1287.83 866.5 1291.98C863.302 1296.13 859.303 1299.72 856.105 1303.68C851.107 1309.72 846.309 1316.13 841.311 1322.36C837.912 1326.7 834.514 1330.85 831.115 1335.19C827.916 1339.15 824.718 1342.92 821.919 1347.08C814.922 1357.64 810.923 1369.34 807.325 1381.23C804.726 1389.34 801.327 1397.27 798.928 1405.57C796.929 1411.98 794.53 1418.21 791.531 1424.06C791.132 1425 790.732 1426.13 790.732 1427.08C790.732 1434.06 787.533 1440.1 784.934 1446.51C782.135 1453.31 779.137 1459.91 776.538 1466.7C774.938 1470.85 773.939 1475.19 774.738 1479.91C775.738 1485.76 779.536 1489.16 784.934 1491.42C790.532 1493.68 796.329 1495.01 802.527 1495.76C803.726 1495.95 804.926 1496.33 806.325 1496.7C806.325 1500.85 806.325 1504.63 806.325 1509.16C775.338 1509.53 744.551 1509.16 712.964 1508.4C712.964 1505.01 712.964 1501.42 712.964 1498.02C712.964 1495.76 714.363 1495.01 716.762 1494.82C721.96 1494.44 726.558 1492.55 730.957 1489.91C737.354 1485.95 742.552 1480.85 746.15 1474.63C750.348 1467.46 753.547 1459.72 757.146 1452.17C758.545 1449.34 759.545 1446.32 760.944 1443.49C763.543 1438.4 764.343 1432.93 765.942 1427.46C766.342 1426.13 766.542 1424.81 767.142 1423.68C774.139 1407.64 779.137 1391.04 784.135 1374.43C785.534 1369.91 788.133 1365.76 789.932 1361.23C790.932 1358.77 791.531 1356.32 792.731 1354.06C797.129 1345.57 803.127 1338.21 809.524 1330.85C813.922 1325.75 817.921 1320.09 822.319 1314.81C826.517 1309.72 830.715 1304.62 835.313 1299.72C841.111 1293.3 846.109 1286.7 849.108 1278.39C853.306 1266.32 858.904 1254.62 863.901 1242.73C869.499 1228.96 875.697 1215.37 880.695 1201.41C884.893 1190.09 887.692 1178.39 891.09 1166.88C891.49 1165.37 892.09 1163.67 892.49 1162.16C896.088 1160.84 899.487 1161.79 902.885 1161.79C909.683 1161.97 916.28 1162.54 922.877 1162.54C925.876 1162.54 927.075 1163.86 928.275 1166.13C931.873 1173.67 935.672 1181.03 939.27 1188.58C939.67 1189.33 940.27 1190.09 940.47 1191.03C945.268 1204.24 951.265 1217.07 956.263 1230.09C960.062 1239.71 963.86 1249.53 967.858 1259.15C971.257 1267.26 974.856 1275.19 978.254 1283.3C980.053 1287.45 980.453 1291.6 977.255 1295.56C974.256 1299.15 971.657 1303.11 969.058 1306.89C968.058 1308.39 967.259 1310.47 967.059 1312.17C966.459 1320.66 962.86 1328.4 958.862 1335.94C955.663 1342.36 955.264 1349.34 953.464 1355.94C952.665 1358.77 951.865 1361.6 951.065 1364.62C949.466 1371.98 950.266 1379.15 953.065 1386.32C955.464 1392.55 957.063 1399.15 959.862 1405.38C964.26 1415.38 967.059 1425.95 973.056 1435.19C974.856 1438.02 975.855 1441.61 977.055 1444.81C981.053 1454.63 984.851 1464.44 989.25 1474.25C991.649 1479.53 994.847 1484.63 999.245 1488.97C1004.24 1493.68 1010.24 1496.14 1016.64 1497.84C1018.04 1498.21 1019.64 1498.59 1021.24 1498.97C1021.24 1503.31 1021.24 1507.46 1021.24 1511.99C973.656 1510.67 926.476 1510.1 878.895 1509.53Z" fill="black"/>
<path d="M949.065 1008.95C948.865 1013.48 951.864 1014.8 954.263 1016.12C959.061 1018.76 959.261 1018.57 958.462 1023.67C957.862 1028.2 959.061 1032.35 960.661 1036.31C964.659 1045.74 967.258 1055.37 970.057 1064.99C971.456 1069.9 968.857 1073.67 965.659 1076.69C959.261 1082.91 952.264 1088.76 945.867 1094.99C943.068 1097.63 939.869 1098.2 936.471 1098.39C927.474 1098.95 918.278 1099.33 909.282 1099.71C908.682 1099.71 908.082 1099.52 907.882 1099.52C905.483 1091.59 903.284 1084.05 901.085 1076.5C899.486 1070.84 900.486 1065.56 903.484 1060.46C906.483 1055.56 908.282 1050.08 910.881 1044.8C914.48 1037.25 918.078 1029.89 921.677 1022.35C923.076 1019.14 924.676 1015.93 925.475 1012.72C927.474 1004.8 931.073 997.44 934.871 990.081C936.671 986.496 938.67 983.1 940.269 979.515C942.268 975.175 944.467 970.836 944.867 965.93C945.667 958.948 949.665 952.91 953.264 946.872C955.863 942.721 958.661 938.759 961.26 934.608C963.859 930.268 965.459 925.74 964.659 920.834C963.459 912.154 963.659 903.286 960.861 894.984C959.061 889.889 957.662 884.795 955.263 880.078C953.664 876.87 950.865 874.228 948.466 871.398C944.667 867.058 941.069 862.53 939.669 857.058C939.07 854.794 938.67 852.152 939.07 849.888C940.469 843.85 939.469 838.189 938.27 832.34C938.27 832.151 938.27 831.963 938.07 831.963C934.871 822.906 937.27 814.981 942.268 807.056C948.466 797.433 955.863 788.942 963.859 780.64C972.456 771.772 981.252 763.093 990.048 754.224C995.046 749.318 997.645 743.281 1000.44 737.054C1004.64 727.62 1009.44 718.374 1014.04 709.128C1015.84 705.543 1018.24 702.147 1020.44 698.562C1021.04 697.43 1021.64 696.486 1022.04 695.354C1025.03 686.864 1027.63 677.995 1031.03 669.693C1032.83 665.165 1036.03 661.014 1038.63 656.674C1039.43 655.164 1041.03 655.353 1042.43 655.919C1050.82 659.504 1059.22 663.089 1067.62 666.863C1069.82 667.806 1071.01 669.693 1070.82 671.957C1070.62 674.222 1070.62 676.486 1070.42 678.75C1069.82 684.599 1070.42 690.449 1071.81 696.298C1073.81 704.411 1075.41 712.713 1072.41 721.393C1071.21 724.789 1072.21 728.752 1072.61 732.525C1073.01 735.167 1073.81 737.809 1074.81 740.262C1076.81 745.545 1075.41 750.073 1071.81 754.036C1068.42 757.621 1065.42 761.583 1061.62 764.791C1053.42 771.961 1049.02 781.395 1044.63 790.641C1042.83 794.414 1042.83 798.565 1043.43 802.528C1044.63 809.887 1045.03 817.434 1047.42 824.604C1048.22 827.246 1047.42 830.265 1048.02 833.095C1049.02 839.699 1046.43 846.303 1048.62 852.718C1049.42 854.982 1050.42 857.247 1051.62 859.322C1054.62 864.983 1058.22 870.455 1060.42 876.304C1061.82 880.078 1061.42 884.606 1060.82 888.757C1060.02 893.474 1058.22 898.003 1056.62 902.531C1051.42 917.626 1040.83 928.759 1027.03 937.249C1026.03 937.815 1024.83 938.57 1023.83 939.325C1018.04 943.853 1017.24 945.929 1019.24 952.533C1020.04 954.797 1020.64 957.25 1021.24 959.514C1022.44 963.099 1021.24 966.118 1018.84 968.76C1017.24 970.458 1015.44 971.968 1013.44 973.288C1003.24 980.081 992.248 986.119 981.252 991.78C976.254 994.421 971.656 997.629 967.058 1000.84C964.459 1002.72 961.86 1003.48 959.061 1004.42C955.663 1005.74 952.264 1007.44 949.065 1008.95ZM984.851 898.192C985.45 898.192 985.85 898.192 986.45 898.003C987.45 894.418 988.849 890.833 989.449 887.248C990.048 882.153 990.048 877.247 987.45 872.342C984.651 867.436 982.452 862.341 980.452 857.058C979.253 854.039 978.253 850.643 978.253 847.435C978.653 838.001 979.253 828.566 977.454 819.132C976.254 812.339 975.255 805.547 974.055 798.188C972.656 799.132 971.656 799.509 971.056 800.264C968.058 804.792 965.059 809.132 962.46 813.849C961.06 816.302 960.261 819.321 960.461 821.962C960.861 826.68 961.86 831.208 962.86 835.737C964.059 840.265 963.659 844.605 963.06 849.133C962.66 851.775 962.86 854.605 963.459 857.058C964.459 861.964 967.258 866.304 970.856 870.077C975.255 874.606 978.853 879.323 980.253 885.55C981.052 889.889 983.251 894.04 984.851 898.192Z" fill="black"/>
<path d="M237.761 721.016C251.955 721.016 262.551 721.959 272.746 724.412C277.944 725.733 282.542 727.808 286.341 731.582C286.941 732.337 287.94 733.28 287.94 734.035C288.14 738.941 288.54 744.035 287.94 748.941C287.54 752.337 286.341 755.734 285.941 759.319C285.341 764.413 281.343 767.81 277.345 770.829C272.746 774.414 267.948 777.433 263.15 780.829C261.351 782.15 259.952 783.659 258.352 784.98C254.354 788.565 250.356 792.15 245.958 795.546C242.959 797.811 239.36 800.075 235.762 801.396C224.566 805.924 212.771 808.754 200.576 809.132C191.58 809.32 182.784 808 174.387 805.547C170.189 804.415 166.191 803.283 162.192 801.584C154.795 798.565 151.997 793.848 152.996 787.056C153.596 783.471 152.996 779.886 152.596 776.301C152.196 772.716 153.796 770.074 156.195 767.432C160.993 762.338 167.59 760.262 173.188 756.866C176.786 754.79 180.585 752.715 183.983 750.073C187.982 747.054 190.181 743.281 189.381 738.186C188.581 733.846 190.78 731.016 194.779 729.129C201.976 725.544 209.773 723.846 217.569 722.903C225.566 721.77 233.563 721.393 237.761 721.016ZM199.577 779.697C204.975 780.829 209.773 779.508 214.571 777.244C221.168 774.225 226.765 770.263 231.563 765.168C234.962 761.583 233.363 757.432 228.565 756.3C227.365 755.922 225.966 755.922 224.766 756.111C215.97 757.055 208.373 760.828 201.776 766.112C195.578 770.451 195.378 773.47 199.577 779.697Z" fill="black"/>
<path d="M447.674 1444.81C456.87 1444.81 465.067 1447.83 471.664 1453.49C478.061 1458.78 481.26 1465.76 482.06 1473.68C483.259 1486.51 477.861 1496.7 466.466 1503.5C454.471 1510.85 441.676 1510.85 428.682 1504.44C417.686 1498.97 409.09 1484.44 411.889 1471.23C414.487 1459.72 425.083 1448.78 437.278 1446.32C440.677 1445.76 444.075 1445.38 447.674 1444.81Z" fill="black"/>
<path d="M40.4424 1034.05C42.6415 1034.42 43.841 1034.23 45.0405 1034.8C49.6386 1037.06 53.6369 1039.89 57.6353 1042.91C58.235 1043.29 58.8348 1044.05 59.0347 1044.61C59.8344 1050.46 65.0322 1051.59 69.6303 1052.91C78.2268 1055.56 87.0232 1057.63 96.2194 1058.01C107.215 1058.57 118.01 1060.27 129.006 1061.4C137.003 1062.35 144.999 1063.1 152.996 1064.24C155.795 1064.61 158.594 1065.37 161.393 1066.12C159.393 1068.39 157.194 1069.33 154.395 1069.71C136.403 1072.35 118.21 1073.1 100.218 1074.8C91.6213 1075.56 83.0249 1075.74 74.4284 1076.12C64.0327 1076.69 53.637 1077.25 43.4412 1077.82C42.2417 1077.82 40.8422 1077.82 39.6427 1077.63C43.841 1063.48 41.2421 1049.14 40.4424 1034.05Z" fill="black"/>
<path d="M527.04 382.325C517.244 381.759 508.448 378.551 499.452 375.343C495.853 374.023 492.055 372.324 488.856 370.249C483.258 367.041 479.66 361.381 484.258 353.645C488.057 347.229 493.454 342.135 499.452 337.795C502.65 335.531 507.049 334.587 511.447 337.04C514.845 338.927 518.644 339.682 522.242 341.191C530.039 344.588 534.837 350.814 539.235 357.23C541.634 360.626 543.633 364.211 545.433 367.796C547.632 372.513 546.632 375.343 542.234 378.174C538.036 381.193 532.838 382.513 527.04 382.325Z" fill="black"/>
<path d="M350.114 246.66C347.515 246.849 345.716 247.792 344.317 249.867C343.117 251.754 340.918 253.264 339.119 254.962C334.121 260.056 335.12 264.774 338.719 268.925C344.516 275.906 351.714 281.189 359.31 286.284C359.91 286.661 360.51 287.227 361.31 287.793C352.713 288.548 349.914 288.171 343.117 284.774C333.521 279.868 324.125 274.774 314.729 269.868C308.331 266.472 304.133 261.566 301.134 255.151C299.335 251.377 297.336 247.792 294.937 244.584C290.539 238.735 283.942 235.527 277.344 232.32C270.747 229.112 263.75 226.47 256.953 223.64C255.553 223.074 254.154 222.319 252.155 221.565C256.553 220.244 260.151 220.244 264.15 221.376C275.345 224.395 286.541 227.414 297.736 230.055C309.731 232.886 321.926 235.527 333.921 238.358C337.519 239.112 340.918 240.056 344.317 240.999C347.115 241.565 349.115 243.641 350.114 246.66Z" fill="black"/>
<path d="M91.8211 1140.65C92.021 1139.71 92.2209 1138.58 92.4208 1137.63C92.6207 1137.63 92.8206 1137.63 93.0205 1137.82C92.8206 1138.77 92.6206 1139.9 92.2208 1140.84C92.0209 1140.65 91.8211 1140.65 91.8211 1140.65Z" fill="white"/>
<rect x="1086" y="1513.78" width="1086" height="1513.78" transform="rotate(-180 1086 1513.78)" fill="url(#paint0_linear)"/>
<defs>
<linearGradient id="paint0_linear" x1="1629" y1="1513.78" x2="1629" y2="3027.56" gradientUnits="userSpaceOnUse">
<stop stop-color="#FDFCFB" stop-opacity="0"/>
<stop offset="1" stop-color="#FDFCFB"/>
</linearGradient>
</defs>
</svg>
