<svg width="1086" height="1513" viewBox="0 0 1086 1513" fill="none" xmlns="http://www.w3.org/2000/svg">
<path d="M906.49 14.7364C904.484 15.8147 902.294 16.7132 900.47 17.9712C896.092 20.6669 891.531 23.5423 887.335 26.4177C885.876 27.3163 884.781 28.754 883.869 30.1917C881.497 34.1454 877.849 36.3019 873.653 37.9193C863.437 42.2324 853.221 46.1861 843.37 51.218C837.35 54.2732 832.242 58.9457 826.769 62.8994C824.944 64.1574 823.12 65.4153 821.296 66.1342C815.823 67.9313 810.168 69.5487 804.512 71.1661C796.668 73.5024 789.006 75.8387 781.162 77.9952C777.331 79.0735 773.135 79.7923 769.304 81.23C750.696 87.8794 730.994 90.9345 711.838 95.7868C692.136 100.819 672.434 106.21 653.461 113.399C642.88 117.352 632.482 121.845 621.901 126.158C615.881 128.674 610.225 131.729 606.577 137.66C605.117 140.176 602.016 141.613 599.827 143.59C598.368 144.848 596.543 146.106 595.449 147.724C591.983 152.756 587.057 155.99 581.949 159.225C571.915 165.515 562.247 172.524 553.125 180.072C549.477 183.127 546.375 186.721 544.369 191.034C542.727 194.629 539.808 197.684 537.436 200.919C534.153 205.232 530.686 209.185 527.768 213.678C524.119 219.07 520.47 224.461 517.187 230.212C513.538 236.861 508.065 242.252 502.41 247.284C493.836 255.012 484.532 261.841 475.046 268.491C469.755 272.444 464.83 277.117 460.269 281.789C451.33 290.775 442.573 300.12 433.817 309.285C430.898 312.52 428.526 316.294 425.607 319.349C417.945 327.257 413.749 337.141 408.277 346.306C404.628 352.416 402.986 358.706 402.256 365.715C401.892 370.208 399.702 374.161 396.419 377.396C394.412 379.373 392.223 381.17 390.034 383.147C387.845 385.124 386.203 387.281 385.291 390.156C384.013 394.289 382.554 398.243 380.73 402.197C378.541 406.869 378.358 411.721 379.635 416.394C380.912 420.887 382.189 425.559 384.378 429.693C389.486 439.757 396.054 448.742 403.716 457.189C406.27 460.064 408.094 463.299 410.466 466.174C414.114 470.667 417.945 474.98 421.594 479.473C425.425 484.325 424.513 488.099 418.857 490.256C410.831 493.491 402.439 496.007 394.23 498.882C390.946 499.96 387.662 501.218 384.378 502.476C383.284 502.836 382.372 503.734 380.73 504.812C382.372 506.61 383.466 508.047 384.926 509.126C387.297 510.923 389.669 512.54 392.04 513.978C397.513 517.392 400.615 522.424 402.804 527.995C404.446 531.949 406.635 535.364 409.736 538.239C412.837 540.935 415.574 543.81 418.857 546.326C424.695 550.819 431.445 553.515 438.195 555.851C446.587 558.906 455.161 561.602 463.735 564.477C469.938 566.454 475.593 569.868 480.701 573.822C481.795 574.721 482.708 575.44 483.802 576.158C488.363 579.393 488.91 583.886 485.079 587.84C482.89 590.176 480.336 591.973 477.964 594.309C475.046 597.185 471.944 599.88 469.755 603.115C465.924 608.327 461.546 612.999 455.526 615.515C452.06 616.953 450.965 620.368 448.229 622.524C443.303 626.118 441.844 632.049 438.925 636.721C437.648 638.878 436.553 641.214 434.911 643.191C433.269 644.988 431.445 646.606 429.256 647.684C416.668 654.513 403.533 660.623 390.034 665.475C386.203 666.913 382.372 668.531 379.088 670.507C368.325 676.977 356.832 681.65 345.156 686.142C334.575 690.276 324.359 694.948 314.873 701.418C309.4 705.192 309.4 712.56 315.055 716.514C317.609 718.311 320.163 720.288 322.717 722.265C324.359 723.523 324.542 725.14 323.629 726.757C322.717 728.555 321.805 730.352 320.528 731.789C313.778 740.775 306.664 749.581 298.454 757.488C293.346 762.341 288.421 767.372 283.678 772.404C282.036 774.202 280.759 776.358 279.847 778.515C277.293 784.266 273.462 789.118 268.536 793.071C259.414 800.44 252.117 809.425 245.732 818.95C241.536 825.42 236.428 830.811 229.496 834.765C224.571 837.64 220.192 841.594 215.632 845.188C214.355 846.087 213.625 847.704 212.895 849.142C210.888 853.275 209.064 857.588 208.699 862.44C208.517 865.675 207.97 869.09 206.875 872.145C205.051 877.177 207.057 881.49 210.159 884.725C214.355 889.397 219.645 892.992 224.206 897.305C230.956 903.595 239.347 907.009 247.009 911.861C250.658 914.198 254.489 916.354 257.773 919.05C261.239 921.925 264.158 925.34 267.077 928.754C268.901 930.731 270.725 932.888 269.266 935.943C269.083 936.122 269.266 936.482 269.448 936.841C271.09 939.537 270.543 942.053 269.266 944.569C267.806 947.804 265.8 950.859 262.333 952.476C259.232 954.094 256.131 955.711 253.029 957.329C249.198 959.305 246.462 962.54 244.09 965.775C242.813 967.393 244.455 968.83 245.915 970.088C249.198 972.964 252.3 975.839 255.583 978.714C258.867 981.59 258.685 983.387 254.854 985.544C252.3 986.981 249.746 988.059 246.827 988.958C237.341 991.833 228.037 994.889 219.098 999.202C214.172 1001.54 209.794 1004.59 207.24 1009.45C206.51 1010.88 206.328 1012.68 205.78 1014.3C203.956 1020.59 202.497 1027.06 200.307 1033.35C197.206 1042.33 192.828 1050.96 190.091 1060.3C188.632 1065.34 188.632 1070.01 190.456 1074.86C191.551 1077.74 192.098 1080.97 193.375 1083.85C194.287 1085.64 194.105 1087.26 193.74 1089.06C192.281 1096.61 187.902 1101.46 180.97 1104.51C173.126 1107.93 165.281 1111.52 157.619 1115.3C150.687 1118.71 143.572 1122.12 137.005 1126.44C132.809 1129.31 129.525 1133.45 126.059 1137.4C121.498 1142.61 117.12 1148 112.924 1153.39C107.998 1159.68 104.715 1166.87 101.978 1174.42C99.0594 1182.51 96.8702 1191.13 94.3162 1199.4C93.7689 1201.02 93.2216 1202.64 92.3095 1204.07C89.9379 1208.21 89.5731 1212.7 89.5731 1217.37C89.5731 1221.87 92.3095 1224.92 95.4108 1227.44C100.154 1231.21 105.627 1233.73 111.465 1235.88C125.147 1240.74 139.376 1243.79 152.693 1249.72C162.91 1254.39 171.849 1260.68 178.051 1270.03C182.794 1277.04 185.166 1284.76 185.896 1293.21C186.443 1299.5 186.443 1305.61 185.166 1311.54C182.794 1322.68 178.598 1332.93 170.572 1341.73C159.991 1353.24 147.038 1359.88 131.897 1363.12C117.12 1366.35 102.161 1365.99 87.2015 1363.48C78.8098 1362.04 70.418 1360.6 62.756 1356.83C61.479 1356.11 59.6547 1356.11 58.3777 1355.75C57.2831 1335.44 56.9183 1315.5 58.1953 1295.19C61.2966 1294.83 64.2154 1294.65 67.1343 1294.47C69.141 1301.66 70.6004 1308.67 72.7896 1315.32C76.803 1328.61 83.3705 1340.12 95.9581 1347.66C102.161 1351.26 108.911 1352.34 115.478 1354.13C124.964 1353.24 134.086 1351.8 141.93 1345.87C150.687 1339.22 154.153 1330.23 153.971 1319.99C153.788 1313.16 153.241 1305.97 147.768 1300.58C144.849 1297.7 141.748 1295.19 138.282 1293.21C129.16 1288.18 119.127 1284.94 109.093 1281.89C103.255 1280.27 97.7824 1277.58 92.1271 1275.42C90.8501 1275.06 89.5731 1275.06 88.2961 1274.7C81.3638 1272.01 75.1612 1267.87 69.5059 1263.2C66.2221 1260.32 63.8506 1256.37 61.1141 1252.96C55.6413 1245.59 53.6345 1237.14 53.817 1228.16C53.817 1225.28 54.5467 1222.22 55.6413 1219.53C57.4656 1215.22 60.202 1211.26 62.3911 1207.13C64.5803 1203.18 66.7694 1199.4 68.5937 1195.45C71.8774 1188.44 74.7963 1181.25 77.8976 1174.06C79.5395 1169.93 81.1813 1165.97 82.8232 1161.84C85.7421 1154.47 90.8501 1148.72 95.5932 1142.61C98.5121 1138.84 101.431 1135.06 104.532 1131.65C108.911 1126.98 113.471 1122.3 118.397 1118.17C126.971 1111.16 135.91 1104.51 144.849 1097.68C149.41 1094.27 152.694 1089.78 155.612 1084.92C157.072 1082.59 157.072 1079.53 157.802 1076.84C158.531 1073.78 159.079 1070.73 159.991 1067.85C161.815 1062.46 163.822 1057.07 165.828 1051.68C167.47 1047.54 169.295 1043.59 171.301 1039.64C174.403 1033.53 175.497 1027.06 176.409 1020.23C176.957 1016.27 176.592 1012.32 176.227 1008.37C175.862 1004.05 176.409 999.741 177.686 995.607C178.963 991.833 180.058 988.059 180.97 984.106C181.335 982.488 181.335 980.871 181.152 979.074C180.97 975.12 180.24 970.987 180.788 967.033C181.152 963.618 182.612 960.024 184.071 956.79C185.531 953.375 185.713 949.601 185.713 946.007C185.896 939.717 183.706 933.966 180.788 928.575C180.24 927.676 179.511 926.957 178.963 926.238C172.396 918.511 164.369 912.58 156.16 906.47C151.781 903.055 147.585 899.461 145.214 894.25C144.302 892.273 142.295 890.835 141.018 889.038C137.917 884.905 136.64 880.232 134.451 875.739C133.356 873.583 132.626 870.887 132.444 868.371C132.444 866.035 131.167 864.417 130.62 862.44C128.795 856.869 127.518 851.119 128.978 845.368C129.707 842.133 132.444 840.336 134.998 838.898C138.646 836.921 142.66 835.304 146.673 834.226C157.072 831.17 167.47 828.654 177.869 825.779C186.078 823.623 193.375 819.489 200.672 815.176C201.22 814.817 201.949 814.457 202.314 813.918C207.422 807.808 214.355 803.674 220.74 799.002C224.388 796.306 228.766 794.329 232.597 791.813C235.516 789.837 238.07 787.68 240.624 785.344C241.536 784.445 242.449 783.367 242.813 782.109C245.003 774.92 250.111 770.068 256.131 765.755C257.59 764.677 258.867 763.599 259.962 762.341C263.246 758.027 266.347 753.535 269.266 748.862C274.191 741.134 270.543 735.743 265.982 732.329C262.516 729.813 258.137 727.656 253.942 726.398C245.367 723.702 236.611 721.726 227.854 719.389C225.118 718.67 222.746 717.412 220.01 716.694C218.003 715.975 217.273 714.537 217.456 712.74C217.638 707.349 219.463 702.856 224.023 699.441C232.962 692.612 243.178 688.838 253.577 685.064C264.887 680.931 276.38 677.157 287.144 671.765C296.63 667.093 307.028 664.577 317.427 662.42C329.102 659.904 340.778 657.568 352.271 654.693C361.575 652.356 370.514 649.122 379.818 646.246C382.919 645.348 384.926 643.371 385.291 639.956C385.655 636.003 387.297 632.229 385.838 628.275C385.655 627.916 385.655 627.376 385.838 627.017C388.392 622.704 390.034 618.031 394.959 615.336C400.067 612.46 403.533 608.507 403.351 602.037C403.351 598.982 404.628 596.106 407.729 594.669C410.831 593.231 412.29 590.356 413.932 587.84C415.939 584.425 414.479 580.651 410.466 577.956C406.635 575.26 402.986 572.384 399.155 570.048C394.594 567.173 390.034 564.477 385.108 562.32C379.088 559.805 374.345 555.851 370.696 550.999C368.507 548.123 367.595 544.17 366.135 540.755C365.953 540.396 366.318 539.856 366.135 539.677C363.217 535.184 360.298 530.511 357.379 526.019C357.196 525.839 356.832 525.659 356.649 525.479C349.899 517.033 347.345 514.337 338.954 509.665C336.035 508.047 333.116 506.43 330.562 504.453C326.183 501.398 326.731 496.007 331.656 493.491C335.852 491.334 340.778 490.256 344.244 486.841C344.974 485.943 346.251 485.044 346.251 484.146C346.251 482.348 345.703 480.551 344.791 479.114C344.062 477.856 342.602 476.777 341.325 475.879C339.501 474.621 337.129 474.082 337.494 471.027C337.677 470.308 335.67 469.229 334.758 468.511C333.846 467.792 332.386 467.432 332.021 466.534C330.562 463.299 327.643 461.142 326.366 457.908C326.001 457.189 325.454 456.29 324.724 455.931C321.258 454.673 319.798 451.797 318.339 448.742C317.609 447.125 316.88 445.328 314.508 444.609C312.684 444.07 311.589 441.194 310.312 439.397C308.123 436.162 306.116 432.927 304.292 429.513C303.015 427.177 301.373 424.481 303.927 421.785C304.11 421.606 303.927 420.887 303.927 420.527C301.92 416.394 303.562 412.081 303.015 407.947C303.015 407.229 303.38 406.51 303.562 405.971C303.745 405.252 304.11 404.173 303.745 403.634C302.65 401.837 303.745 400.579 304.474 399.142C305.934 396.086 307.576 393.211 309.582 390.336C310.495 388.718 311.772 387.101 313.413 386.202C316.88 384.225 320.528 382.428 324.359 381.17C333.846 377.935 343.514 375.24 353.001 372.005C355.919 370.927 358.656 369.13 361.392 367.512C363.946 365.895 365.223 363.558 365.588 360.503C365.771 357.987 367.048 355.471 368.325 353.495C370.879 349.541 373.98 345.767 376.899 341.813C379.27 338.578 381.459 335.344 383.831 332.109C387.845 326.897 391.676 321.506 396.054 316.474C406.087 304.972 415.574 292.931 426.884 282.508C432.175 277.656 437.1 272.804 442.573 268.311C447.864 263.998 453.519 260.224 458.992 256.09C461.181 254.473 463.005 252.496 464.647 250.16C466.836 247.105 469.573 244.229 472.492 241.534C476.687 237.58 478.694 232.907 478.877 227.336C479.241 219.07 478.512 210.803 480.518 202.716C480.518 202.536 480.336 202.356 480.518 202.356C483.62 196.426 483.62 189.776 485.262 183.486C485.626 182.228 486.539 180.97 487.451 180.072C493.106 174.321 500.038 169.828 506.788 165.515C511.349 162.64 515.91 159.764 520.288 156.889C524.119 154.373 527.585 151.857 530.139 147.903C531.963 145.208 535.065 143.411 537.436 141.254C539.625 139.277 541.632 136.941 543.821 134.964C546.193 132.987 548.747 130.831 551.483 129.213C555.314 127.236 559.51 125.619 563.524 124.181C574.287 120.048 584.868 115.735 595.814 111.961C615.516 104.952 635.766 100.28 656.015 95.607C672.981 91.8331 690.129 88.4185 707.095 84.1054C718.406 81.23 729.899 78.3546 741.392 75.4792C752.885 72.6038 764.196 68.8299 775.689 65.2356C776.966 64.8762 778.243 63.9776 779.337 63.0791C786.27 57.3283 793.932 52.476 802.141 49.0615C811.992 44.9281 822.026 40.9744 831.877 36.6613C834.431 35.5831 837.167 33.7859 838.809 31.6294C843.187 25.8786 849.572 23.0032 855.593 19.5886C858.329 18.1509 861.248 17.0727 863.984 15.8147C864.714 15.4553 865.261 14.7364 865.991 14.1973C879.673 14.7364 892.99 14.7364 906.49 14.7364Z" fill="black"/>
<path d="M1066.66 1084.39C1063.56 1088.88 1059.73 1092.65 1055.35 1096.07C1046.41 1102.9 1037.11 1109.37 1027.44 1115.3C1021.97 1118.71 1016.5 1122.3 1011.57 1126.44C1005 1131.83 1000.99 1139.38 996.793 1146.57C995.698 1148.54 994.604 1150.7 993.327 1152.5C988.766 1159.33 985.3 1166.87 984.023 1174.96C983.111 1180.17 982.563 1185.56 982.563 1190.78C982.563 1198.32 980.922 1205.51 979.097 1212.88C977.82 1217.73 976.726 1222.58 975.266 1227.26C973.259 1233.55 970.888 1239.66 968.699 1245.77C963.408 1259.96 958.118 1273.98 952.827 1288.18C950.091 1295.19 947.355 1302.38 944.071 1309.21C940.605 1316.21 936.956 1323.22 931.483 1328.97C924.368 1336.34 915.977 1341.55 905.396 1342.27C897.916 1342.81 890.619 1341.55 883.869 1338.32C881.863 1337.42 881.133 1336.16 881.862 1334.01C883.869 1327.36 887.335 1321.61 893.538 1318.01C897.187 1315.86 901.2 1314.96 905.578 1315.68C909.774 1316.39 914.152 1316.93 918.348 1317.29C923.274 1317.83 927.287 1316.57 930.024 1312.26C931.848 1309.39 933.49 1306.33 935.497 1303.46C936.591 1301.66 936.409 1300.04 935.497 1298.6C931.301 1291.77 928.017 1284.41 924.733 1277.22C921.267 1269.67 916.889 1262.66 913.058 1255.29C909.227 1248.1 905.578 1240.92 902.112 1233.55C899.741 1228.34 899.741 1222.76 901.018 1217.19C902.112 1212.52 904.301 1208.57 906.855 1204.43C909.957 1199.58 912.146 1194.19 914.7 1189.16C917.071 1184.31 919.078 1179.27 921.814 1174.6C923.639 1171.37 925.828 1168.31 928.382 1165.62C934.22 1159.33 940.422 1153.22 947.902 1148.54C953.74 1144.77 959.395 1140.64 965.05 1136.68C967.969 1134.71 971.07 1132.55 974.354 1131.11C986.759 1125.72 996.793 1117.45 1006.1 1108.11C1009.93 1104.15 1013.39 1100.02 1016.5 1095.35C1019.05 1091.57 1019.41 1087.8 1018.32 1083.85C1017.22 1080.25 1015.4 1076.66 1013.58 1073.24C1010.66 1068.03 1007.37 1063 1004.64 1057.61C1001.17 1050.6 1000.44 1042.87 999.712 1035.14C999.164 1030.65 999.164 1025.98 998.435 1021.49C997.523 1015.92 998.07 1010.7 1000.62 1005.67C1003 1000.82 1004.27 995.787 1004.09 990.396C1003.91 984.645 1002.81 979.613 996.61 977.097C996.793 974.941 996.793 972.964 996.975 970.987C1019.41 970.987 1041.67 970.987 1064.11 970.987C1064.11 973.323 1064.11 975.3 1064.11 977.457C1062.28 977.816 1060.46 978.175 1058.82 978.714C1054.81 979.972 1051.89 982.309 1051.16 986.622C1050.61 990.216 1049.88 993.631 1049.7 997.225C1049.51 1000.82 1048.6 1004.05 1047.33 1007.29C1045.32 1012.5 1043.49 1017.71 1041.31 1022.92C1039.12 1028.32 1040.21 1033.89 1040.76 1039.46C1041.67 1052.22 1047.51 1063.18 1053.16 1074.32C1054.08 1076.3 1055.9 1076.66 1057.91 1076.66C1059.91 1076.66 1060.64 1075.4 1061.19 1073.78C1062.65 1069.65 1063.93 1065.7 1065.39 1061.56C1065.75 1060.66 1066.3 1059.76 1066.85 1058.87C1066.66 1067.13 1066.66 1075.76 1066.66 1084.39ZM976.361 1161.3C975.449 1161.66 975.084 1161.84 974.719 1162.02C970.341 1165.8 967.239 1170.65 964.32 1175.5C961.219 1180.71 958.848 1186.1 956.111 1191.49C953.922 1195.81 951.733 1200.12 949.179 1204.25C946.26 1209.11 943.706 1213.96 942.794 1219.53C942.064 1223.3 941.699 1227.26 943.341 1231.03C946.442 1237.68 949.726 1244.33 952.827 1251.16C953.01 1251.52 953.557 1251.52 954.104 1251.88C954.834 1249.54 955.564 1247.38 956.294 1245.23C958.848 1237.86 961.584 1230.49 963.408 1222.94C965.05 1215.94 967.057 1209.11 968.881 1202.28C969.246 1200.84 969.976 1199.58 970.158 1198.32C970.523 1194.55 970.341 1190.78 970.705 1187C971.435 1180.89 972.347 1174.96 973.624 1168.85C974.172 1166.33 975.449 1164 976.361 1161.3Z" fill="black"/>
<path d="M1066.66 724.781C1051.16 725.14 1035.83 725.32 1020.33 725.679C1020.33 725.499 1020.14 725.14 1020.14 724.96C1020.69 724.601 1021.24 724.062 1021.97 723.882C1028.72 722.983 1034.92 720.647 1040.76 717.412C1042.22 716.694 1042.77 715.615 1042.95 714.178C1044.04 706.63 1045.32 698.902 1046.6 691.354C1046.78 690.096 1047.69 688.838 1048.42 687.58C1049.15 686.322 1050.06 685.244 1050.79 684.166C1050.24 681.47 1048.6 680.571 1046.41 680.571C1044.95 680.571 1043.49 680.392 1042.04 680.571C1035.83 681.29 1029.63 682.189 1023.43 683.087C1023.06 683.087 1022.7 683.447 1021.97 683.986C1024.16 684.525 1025.98 685.064 1028.17 685.603C1026.35 689.018 1023.43 689.557 1020.33 689.737C1017.04 689.916 1013.58 690.096 1010.29 690.276C1009.38 690.276 1008.47 690.456 1007.74 690.815C1005.18 691.714 1003.54 692.792 1003.36 696.027C1003.18 700.879 1002.08 705.731 1002.08 710.583C1002.08 716.154 998.982 718.85 994.239 720.647C993.509 720.827 992.962 721.007 991.32 721.546C992.78 721.905 993.509 722.265 994.239 722.265C998.8 722.265 1003.18 721.905 1007.74 721.905C1010.48 721.905 1010.48 722.085 1011.39 725.14C1010.84 725.14 1010.29 725.32 1009.75 725.32C998.8 725.5 987.854 725.499 976.908 726.039C970.523 726.218 964.138 727.117 957.753 727.836C946.26 729.094 934.767 729.273 923.274 728.555C916.159 728.195 909.227 726.578 902.477 724.242C899.923 723.343 897.369 722.085 895.91 719.569C895.18 718.311 894.633 717.053 895.727 715.615C898.829 711.123 901.565 706.27 905.031 701.957C909.41 696.386 915.247 692.612 921.632 689.557C928.929 685.963 936.227 682.548 943.524 678.954C944.983 678.235 946.625 677.157 947.72 675.899C950.456 672.844 953.922 671.226 957.753 670.148C965.598 667.992 973.807 667.632 982.016 667.093C992.415 666.374 1002.63 667.273 1013.03 668.531C1025.98 670.148 1038.93 669.968 1051.89 669.429C1056.81 669.25 1061.74 668.71 1066.66 668.351C1066.66 686.861 1066.66 705.731 1066.66 724.781ZM942.794 725.859C946.625 725.14 950.091 724.601 953.557 723.882C961.402 722.085 965.963 717.053 967.787 709.325C969.429 701.777 973.077 695.128 979.28 690.096C982.016 687.76 985.483 686.502 988.584 684.705C991.503 683.087 992.597 681.29 992.232 678.415C991.868 675.719 990.773 674.641 987.124 674.102C980.01 673.024 973.26 673.742 967.969 679.493C965.05 682.548 961.584 684.885 957.753 686.682C953.922 688.479 950.456 690.815 946.99 693.331C944.801 694.948 942.612 696.925 941.152 699.082C937.869 704.293 935.132 709.865 932.396 715.256C930.754 718.491 931.848 721.905 935.314 723.523C937.504 724.781 940.422 725.14 942.794 725.859Z" fill="black"/>
<path d="M974.718 14.7364C974.353 18.6901 971.434 20.8466 968.88 23.5423C966.509 26.0583 963.955 28.3945 961.583 30.9105C959.029 33.7859 956.11 35.9425 952.644 37.3802C946.259 40.0759 939.874 43.131 933.307 45.4672C926.557 47.8035 919.625 49.4209 912.875 51.5775C902.111 54.992 891.348 58.4065 880.767 62.3602C873.47 65.0559 865.991 66.4936 858.511 68.111C850.666 69.7284 842.822 70.9864 834.978 72.4241C834.43 72.6038 833.883 72.4241 833.153 71.885C835.89 70.9864 838.626 69.7284 841.545 69.0096C850.849 66.853 859.97 63.9776 868.545 59.4848C880.038 53.1949 892.625 49.6006 905.03 45.1078C911.051 42.9513 917.071 40.7947 923.091 38.6382C929.293 36.3019 934.949 33.4265 940.057 29.1134C943.158 26.4177 947.171 24.8003 950.82 22.6437C953.556 21.0263 956.475 19.5886 959.029 17.7915C960.124 17.0727 960.854 15.8147 961.766 14.7364C965.962 14.7364 970.34 14.7364 974.718 14.7364Z" fill="black"/>
<path d="M315.602 994.529C315.785 991.833 316.15 989.317 316.332 986.262C321.075 986.262 325.636 986.262 330.744 986.262C330.926 984.106 330.926 982.488 331.109 980.332C326.001 980.152 321.44 979.793 316.514 979.613C316.697 970.448 319.798 961.821 318.339 952.297C322.899 951.937 327.278 951.398 332.386 951.039C331.656 949.421 331.291 947.984 330.561 946.726C326.001 937.201 319.433 928.934 312.319 921.206C308.123 916.534 304.109 911.861 300.096 907.189C298.454 905.392 296.812 904.134 294.258 903.954C291.339 903.774 288.603 902.876 285.684 902.876C280.393 902.876 278.752 898.922 276.745 895.328C274.921 891.913 274.008 888.139 271.272 885.084C269.813 883.646 268.718 881.31 268.718 879.333C268.353 873.583 264.34 869.269 262.698 864.058C265.799 860.823 270.36 861.362 274.373 859.745C275.285 857.408 273.826 855.611 272.914 853.635C270.36 848.063 267.806 842.492 266.894 836.382C265.982 830.092 267.441 824.341 270.907 818.95C271.637 817.692 272.002 816.075 272.731 814.817C277.839 807.089 284.042 799.9 291.339 793.97C296.265 789.837 299.548 784.805 302.832 779.413C305.021 775.639 308.487 772.404 311.406 769.17C313.96 766.474 316.697 763.778 319.251 761.083C326.548 753.175 333.663 744.908 340.96 737.181C344.244 733.766 347.892 730.711 351.723 727.836C355.372 724.96 357.378 721.007 359.203 717.053C360.845 713.459 361.939 709.505 363.763 706.091C366.5 701.059 370.331 696.745 375.074 693.151C380.365 689.198 386.385 686.682 392.222 683.626C400.432 679.493 408.641 675 416.85 670.507C423.6 666.913 430.35 663.139 437.1 659.365C444.032 655.412 450.782 651.278 457.714 647.145C458.627 646.606 459.721 645.887 460.451 644.988C463.187 641.214 465.741 637.44 468.295 633.666C473.403 625.939 479.424 619.289 487.998 614.617C493.288 611.741 497.849 607.069 502.774 603.475C508.247 599.341 513.72 595.388 519.193 591.614C523.024 588.918 526.49 586.043 529.409 582.448C531.781 579.393 531.233 575.979 532.693 572.384C527.95 571.486 523.936 570.587 519.74 570.048C517.734 569.868 516.639 569.329 515.909 567.352C515.18 565.376 513.538 563.758 512.078 561.781C514.267 561.063 516.457 560.344 518.646 559.805C524.848 558.007 528.132 553.335 531.051 548.123C535.247 540.755 532.328 534.824 527.767 529.074C523.571 523.862 519.011 518.83 513.173 515.236C509.159 512.72 504.964 510.204 500.585 508.407C487.815 503.195 474.68 500.14 460.816 499.421C458.079 499.241 456.255 498.163 454.613 495.647C459.539 495.288 463.917 495.108 468.843 494.749C465.376 487.919 461.91 481.809 456.985 476.777C451.512 471.206 447.498 464.557 442.755 458.267C440.931 455.751 438.924 453.235 437.282 450.539C436.188 448.742 435.458 446.765 434.364 444.788C432.539 441.374 430.897 437.959 429.073 434.545C427.249 430.951 424.877 427.536 423.418 423.942C421.776 419.629 420.134 414.956 419.769 410.284C419.404 407.049 421.046 403.634 421.958 400.399C423.6 395.008 424.512 389.796 424.33 384.046C424.148 378.115 424.877 372.005 425.425 366.074C425.789 362.84 426.154 359.605 427.066 356.55C427.796 353.854 429.073 351.158 430.533 348.822C438.195 336.781 446.404 325.1 456.255 314.497C465.012 304.972 474.133 295.627 483.072 286.282C487.815 281.25 492.741 276.398 498.031 271.725C503.504 266.873 509.707 262.74 515.18 258.067C519.558 254.293 523.571 250.16 527.767 246.206C533.605 240.635 538.348 234.345 542.909 227.516C547.287 221.046 553.125 215.475 558.78 209.904C563.888 204.872 569.543 200.379 574.651 195.527C582.678 187.8 591.8 181.33 601.286 175.579C609.678 170.547 617.522 164.796 625.914 159.944C633.029 155.811 639.049 150.419 645.434 145.387C648.17 143.231 650.907 141.074 653.643 138.918C654.738 138.019 655.285 137.121 655.103 135.323C654.738 132.268 657.109 130.112 659.846 128.854C664.224 127.057 668.785 125.26 673.346 123.822C680.643 121.306 687.575 118.071 694.325 114.297C702.169 109.804 710.561 106.39 719.318 104.413C736.831 100.28 754.527 96.3259 772.04 92.3722C773.682 92.0128 774.959 92.1925 776.783 92.7316C779.519 93.6302 782.803 93.2708 785.904 92.9113C796.85 91.6533 807.796 90.3954 818.742 88.9577C833.701 86.9808 848.66 84.6446 863.619 82.488C863.984 82.488 864.531 82.488 864.896 82.3083C865.443 83.5663 865.626 84.6446 864.349 85.1837C861.977 86.262 859.606 87.3402 857.052 87.8794C832.424 93.091 807.796 97.9433 783.168 103.335C758.357 108.906 734.642 117.891 711.838 128.674C708.372 130.292 705.271 132.268 701.622 134.425C704.541 138.019 703.446 141.254 701.44 144.129C700.163 146.106 699.98 148.263 701.075 149.88C702.899 153.115 702.169 155.811 699.98 158.147C696.514 161.741 692.865 165.156 688.305 167.672C678.271 173.243 668.602 178.994 658.751 184.744C656.745 186.002 654.738 187.62 652.914 189.058C650.907 190.495 649.083 190.855 647.076 189.417C643.245 186.721 639.231 184.205 634.671 181.15C631.569 183.307 627.556 185.643 624.272 188.518C615.516 196.246 606.941 204.153 598.367 212.24C594.171 216.194 590.158 220.328 586.509 224.641C583.591 228.055 581.766 232.368 578.847 235.963C575.564 240.096 571.733 243.87 568.084 247.644C566.989 248.722 565.53 249.621 564.618 250.879C560.24 256.45 554.402 260.224 548.929 264.357C542.362 269.209 536.524 274.78 530.869 280.351C523.389 287.72 516.274 295.268 509.342 302.816C500.768 312.34 492.194 322.045 483.984 331.749C478.876 337.68 475.045 344.149 471.214 350.979C469.755 353.495 468.113 356.01 467.748 358.706C467.383 361.222 467.566 363.918 467.201 366.434C467.018 368.59 466.471 370.567 466.289 372.724C466.106 376.498 465.924 380.451 466.106 384.225C466.653 390.156 465.741 395.547 463.37 400.939C460.451 407.588 461.363 414.237 463.917 420.887C468.478 432.748 474.863 443.71 481.613 454.493C487.998 464.557 495.66 473.363 503.322 482.528C505.511 485.224 506.97 488.279 508.977 491.334C514.085 490.975 519.193 490.615 524.119 490.076C527.585 489.717 531.233 488.279 534.335 488.998C537.254 489.896 539.625 492.951 542.909 495.467C533.24 496.186 524.301 496.905 514.267 497.624C516.821 499.601 518.463 501.218 520.288 502.296C525.578 505.531 530.869 508.946 536.341 512.001C544.186 516.134 549.659 522.424 554.584 529.613C559.51 536.622 561.881 544.349 564.071 552.436C565.165 556.57 567.537 560.164 570.456 563.219C571.003 563.758 571.915 564.297 572.645 564.477C579.212 565.735 585.78 566.813 592.347 568.071C596.725 568.79 601.104 569.689 606.212 570.767C604.023 574.9 602.198 578.674 600.009 582.089C598.185 584.964 597.09 584.964 593.624 584.066C587.422 582.628 581.219 581.19 575.016 579.932C574.104 579.753 572.462 580.112 572.097 580.651C567.172 587.84 559.51 591.614 552.76 596.466C549.476 598.802 546.193 601.138 543.274 603.834C537.983 608.686 532.146 612.64 526.125 616.234C522.659 618.391 519.376 621.266 516.639 624.321C512.443 628.814 508.065 633.487 505.328 638.878C502.227 644.988 497.302 648.223 491.464 651.098C486.903 653.435 482.707 656.849 478.147 659.365C463.552 667.452 448.775 675.36 433.999 683.087C427.796 686.322 421.229 688.838 415.756 693.151C410.465 697.285 406.087 701.957 403.898 708.427C402.621 712.38 400.797 716.154 399.155 719.928C397.33 724.241 393.499 727.117 390.033 729.992C383.466 735.563 377.628 741.674 372.338 748.503C369.784 751.917 366.682 754.972 363.581 758.027C358.655 763.239 353.365 768.271 348.439 773.483C346.798 775.1 345.338 776.897 344.426 778.874C340.595 786.242 334.94 792.173 328.737 797.564C325.818 800.08 322.899 802.776 320.528 805.831C316.332 811.222 312.136 816.793 309.582 823.263C307.21 829.014 306.846 834.944 308.852 840.875C309.582 843.211 310.494 845.727 311.406 848.063C312.866 851.658 313.96 852.377 317.974 851.658C323.994 850.759 330.014 849.681 336.217 848.782C338.406 848.423 340.048 848.782 341.142 851.119C344.608 857.948 348.439 864.597 351.906 871.426C354.824 877.177 357.561 882.928 360.115 888.858C363.216 896.226 367.412 903.055 371.973 909.705C373.432 911.861 375.257 913.838 377.628 916.714C366.682 914.916 356.831 913.299 346.25 911.502C346.98 912.94 347.345 913.838 347.892 914.377C351.723 918.69 355.372 923.183 359.203 927.496C363.581 932.349 367.412 937.56 370.331 943.491C371.608 946.007 373.25 947.265 376.169 946.546C380.912 945.647 385.655 945.108 390.398 944.21C391.858 944.03 393.317 943.491 394.776 943.311C396.783 943.311 398.79 943.491 399.884 945.827C401.344 948.882 403.351 951.758 404.81 954.813C405.357 955.891 405.357 957.329 405.175 958.587C403.898 965.775 402.438 972.784 400.979 979.972C400.797 980.871 400.067 981.769 399.337 982.309C397.513 983.387 397.33 984.106 399.155 985.364C399.884 985.903 400.614 986.801 400.797 987.52C401.526 991.654 402.256 995.967 402.803 1000.46C392.587 1000.46 382.371 1000.46 371.79 1000.46C369.784 1005.49 367.594 1010.52 365.588 1015.74C362.669 1023.28 359.568 1030.83 356.831 1038.56C354.46 1045.39 352.088 1052.04 350.446 1059.05C349.352 1063.54 349.899 1068.39 351.541 1073.42C361.574 1072.52 371.79 1071.45 382.371 1070.55C381.459 1074.86 380.547 1078.63 380.182 1082.41C379.817 1085.1 378.175 1086.36 375.804 1086.9C373.615 1087.44 371.608 1087.62 369.419 1087.98C363.034 1089.06 356.831 1089.78 350.446 1091.03C348.622 1091.39 346.98 1092.83 345.338 1094.27C340.595 1098.22 336.034 1102.54 331.291 1106.49C328.92 1108.47 326.001 1110.08 323.447 1112.06C322.535 1112.78 321.805 1113.5 320.528 1114.58C327.095 1116.19 333.298 1117.63 340.048 1119.25C338.588 1120.51 337.676 1121.23 336.764 1122.13C332.203 1125.9 327.46 1129.49 323.082 1133.63C321.075 1135.42 319.433 1135.6 317.244 1134.88C311.589 1133.27 305.751 1131.83 300.096 1130.21C297.724 1129.49 296.082 1130.03 294.076 1131.47C287.873 1136.32 282.4 1141.71 277.839 1148.18C274.921 1152.32 271.637 1156.09 268.353 1159.86C263.428 1165.8 260.691 1172.62 259.049 1179.99C257.955 1185.02 257.043 1190.06 255.765 1195.09C254.488 1199.94 253.029 1204.61 251.752 1209.47C251.022 1212.52 250.293 1215.58 249.38 1219.17C260.326 1218.99 270.725 1217.01 281.488 1216.47C279.481 1221.87 277.839 1226.72 275.65 1232.29C266.894 1233.01 257.772 1233.73 248.468 1234.45C248.468 1238.76 248.468 1242.35 248.468 1246.13C248.651 1250.26 248.833 1254.39 249.016 1258.53C249.38 1266.25 249.745 1273.98 249.928 1281.71C250.293 1289.98 250.293 1298.24 250.84 1306.51C251.022 1311.18 251.205 1316.03 252.299 1320.53C254.306 1329.69 261.786 1332.93 270.907 1331.85C273.279 1331.67 275.468 1331.13 277.657 1330.41C279.846 1329.87 282.035 1328.97 284.589 1328.08C284.407 1330.95 284.042 1333.65 283.86 1336.52C273.644 1346.95 260.691 1352.16 246.097 1353.59C239.347 1354.31 232.415 1353.42 226.394 1350C222.381 1347.84 218.55 1345.33 216.543 1341.37C214.719 1337.78 213.624 1333.47 213.26 1329.51C212.347 1315.68 211.983 1301.84 211.435 1288C210.888 1272.54 210.341 1257.09 209.793 1241.63C209.611 1237.68 209.429 1237.5 205.415 1237.5C201.767 1237.68 198.118 1237.86 194.104 1238.22C194.104 1235.34 194.104 1233.01 194.104 1230.13C197.388 1228.51 200.854 1226.72 204.321 1225.1C209.793 1222.58 214.354 1218.81 218.55 1214.68C223.476 1209.82 227.124 1204.07 229.313 1197.42C231.502 1190.24 234.056 1183.41 236.428 1176.22C236.61 1175.5 236.975 1174.78 237.158 1174.24C238.617 1165.97 242.448 1158.97 247.191 1152.14C250.84 1146.75 254.671 1141.53 258.137 1136.14C259.779 1133.63 261.056 1130.93 262.698 1128.42C265.252 1124.28 264.705 1119.97 263.245 1115.3C266.894 1112.6 270.542 1109.37 274.738 1107.03C282.583 1102.54 288.238 1095.89 293.893 1089.24C294.988 1087.8 296.63 1086.54 298.271 1085.82C305.569 1082.05 312.136 1077.38 317.609 1071.27C320.893 1067.49 323.447 1062.82 325.818 1058.33C329.467 1051.5 332.568 1044.49 336.034 1037.66C339.136 1031.91 341.325 1025.8 342.602 1019.51C344.061 1013.04 342.237 1007.65 336.399 1003.87C331.838 1000.82 327.095 998.663 321.987 996.865C319.068 995.787 317.427 995.248 315.602 994.529ZM392.952 983.387C391.858 982.668 391.128 981.77 390.763 981.949C388.756 982.488 386.75 982.129 384.925 981.23C384.56 981.051 383.648 981.59 383.101 981.77C382.554 981.949 382.006 982.129 381.642 981.949C378.905 980.871 375.986 981.77 372.703 981.051C372.703 982.668 372.52 984.106 372.52 985.544C373.797 985.544 374.709 985.544 375.621 985.544C377.993 985.364 380.729 984.286 382.554 985.184C384.925 986.083 386.385 985.723 388.209 984.825C388.391 984.645 388.939 984.645 389.121 984.645C390.945 986.802 391.31 984.465 392.952 983.387ZM393.864 981.41C392.952 983.207 392.77 984.465 394.047 985.903C396.053 984.285 396.418 982.848 393.864 981.41Z" fill="black"/>
<path d="M738.838 967.213C737.196 972.245 735.372 976.917 734.277 981.59C733.182 986.622 733.547 991.834 734.459 996.686C735.372 1002.08 733.182 1006.75 732.27 1011.78C726.797 1012.5 721.507 1011.06 716.399 1010.7C712.568 1010.34 708.737 1009.98 704.723 1009.8C701.622 1009.63 701.257 1010.16 700.345 1013.22C699.433 1016.09 698.521 1018.97 697.426 1022.38C699.615 1022.38 701.805 1022.74 703.811 1022.56C710.379 1021.67 716.764 1020.77 723.149 1019.15C725.338 1018.61 727.345 1017.71 730.081 1018.07C729.716 1019.33 729.716 1020.59 729.169 1021.67C726.615 1026.52 723.879 1031.37 721.325 1036.22C720.048 1038.56 718.953 1040.72 718.041 1043.05C717.311 1044.67 716.399 1045.21 714.757 1045.39C707.642 1046.29 700.528 1047.19 693.413 1048.08C688.67 1048.62 687.393 1049.34 686.663 1054.01C685.751 1059.76 685.021 1065.34 686.298 1071.27C687.21 1075.22 686.845 1079.53 686.663 1083.49C686.481 1087.98 683.562 1091.39 680.46 1094.63C673.711 1101.28 666.413 1107.21 658.569 1112.6C648.171 1119.79 637.59 1126.98 627.556 1134.53C623.36 1137.76 619.894 1141.89 616.61 1145.85C611.685 1151.6 607.124 1157.53 602.381 1163.28C602.016 1163.64 601.469 1164 601.286 1164.54C598.915 1171.01 594.901 1177.12 594.536 1184.13C594.536 1184.49 594.719 1185.2 594.354 1185.38C591.253 1188.62 592.712 1192.93 591.8 1196.71C591.618 1197.6 591.435 1198.5 591.07 1199.22C588.334 1203.89 587.422 1209.11 585.78 1213.96C583.043 1222.05 582.496 1230.31 583.408 1238.76C583.955 1242.89 583.408 1247.03 583.591 1251.16C583.773 1256.19 584.138 1261.22 584.32 1266.25C584.685 1271.83 584.685 1277.22 585.232 1282.79C585.597 1287.28 586.145 1291.77 588.699 1295.91C590.341 1298.78 592.712 1300.58 595.813 1301.66C601.834 1303.81 607.854 1302.74 613.691 1301.12C615.333 1300.58 616.975 1300.04 619.347 1299.32C618.982 1302.38 618.799 1305.07 618.252 1307.59C618.07 1308.31 617.158 1308.85 616.428 1309.39C606.577 1316.57 595.631 1321.43 583.408 1322.86C575.564 1323.76 567.537 1323.4 560.24 1319.99C551.848 1316.21 548.017 1308.85 546.922 1300.22C546.01 1293.39 545.281 1286.56 544.916 1279.91C544.368 1270.75 544.368 1261.58 544.004 1252.42C543.821 1247.03 543.274 1241.63 542.909 1236.24C542.727 1232.65 542.544 1229.05 543.091 1225.46C544.368 1216.83 546.01 1208.57 550.024 1200.66C551.483 1197.6 551.483 1193.83 552.395 1190.42C553.307 1187.18 554.584 1183.95 555.314 1180.71C555.679 1179.09 555.314 1177.3 555.861 1175.86C558.598 1168.31 562.611 1161.48 567.902 1155.37C570.091 1152.86 572.462 1150.7 574.652 1148.36C574.834 1148.18 575.016 1148 575.199 1147.64C576.293 1144.41 579.212 1142.61 581.402 1140.1C587.057 1133.63 594.354 1128.95 601.286 1124.28C605.847 1121.23 610.408 1118.17 614.968 1114.94C621.536 1110.08 628.286 1105.23 634.671 1100.02C639.231 1096.25 643.61 1092.47 645.799 1086.54C646.894 1083.49 646.894 1080.61 646.711 1077.56C646.529 1073.24 645.799 1069.11 645.434 1064.8C645.252 1062.64 645.617 1060.3 645.981 1058.15C646.164 1057.07 646.346 1055.99 646.529 1054.19C641.421 1054.91 636.495 1055.45 630.84 1056.17C631.934 1051.86 632.664 1047.9 633.759 1044.13C633.941 1043.23 635.4 1042.51 636.495 1041.97C645.434 1037.3 652.914 1031.01 659.299 1023.1C661.123 1020.95 662.4 1018.25 663.677 1015.74C665.319 1012.32 662.218 1005.85 658.022 1003.34C655.468 1001.9 652.914 1000.64 650.36 999.381C650.907 990.216 651.454 981.051 652.184 971.706C661.67 969.19 670.062 965.056 674.075 954.813C672.981 953.016 671.886 950.679 670.062 949.062C666.778 946.007 665.319 942.233 664.042 938.1C662.947 934.685 661.123 931.091 658.751 928.395C654.373 923.363 651.819 917.253 648.17 911.862C644.704 906.83 642.88 901.258 640.873 895.508C638.867 890.116 635.218 885.444 633.211 880.052C630.657 873.583 626.826 867.832 622.995 862.261C618.435 855.791 613.144 849.861 607.306 844.469C602.563 839.976 596.178 838 589.611 836.742C588.881 836.562 588.151 836.382 587.604 836.202C587.422 835.843 587.239 835.663 587.239 835.304C587.239 829.553 587.239 829.553 593.259 829.014C596.361 828.834 599.644 828.655 602.928 828.475C603.475 827.576 604.205 826.857 604.388 825.959C606.029 818.052 610.955 811.762 616.063 805.831C620.989 800.26 626.461 795.408 632.482 791.095C636.13 788.399 638.502 784.445 640.691 780.671C643.245 776.538 645.799 772.584 649.995 769.529C653.461 767.013 656.38 763.778 659.299 760.544C659.846 759.825 659.664 758.567 659.846 757.848C656.562 756.051 652.366 756.77 651.089 752.816C652.184 751.378 653.096 750.12 654.008 748.862C655.103 747.245 656.197 745.448 657.292 743.83C659.846 740.056 663.312 738.259 668.055 737.9C671.157 737.72 674.258 736.821 677.177 735.923C681.008 734.845 683.197 731.61 685.933 729.094C691.224 724.601 693.413 718.131 696.332 712.021C698.703 706.989 700.892 701.778 704.359 697.644C708.555 692.612 714.21 688.838 720.412 685.963C729.899 681.47 739.02 676.618 748.506 671.945C750.513 671.047 752.337 669.968 754.344 668.89C755.621 668.171 756.716 667.452 757.628 666.015C754.344 665.835 750.878 665.476 747.594 665.296C747.594 664.757 747.594 664.397 747.777 664.218C754.344 660.983 760.547 656.849 768.026 655.412C776.418 653.974 783.898 649.661 791.56 646.246C797.762 643.551 803.6 640.496 808.708 636.182C811.992 633.307 815.093 630.252 818.194 627.377C819.836 625.759 820.566 623.603 820.019 621.446C819.106 617.492 821.296 615.875 824.579 614.257C835.525 608.866 847.201 605.272 858.694 600.779C864.349 598.622 870.187 596.466 875.842 594.13C878.761 592.872 881.315 592.872 884.416 594.669C883.686 595.208 883.139 595.567 882.592 595.747C872.011 599.341 862.342 604.553 852.856 610.124C849.39 612.101 845.924 615.156 843.552 618.391C838.809 624.861 834.613 631.69 830.417 638.698C827.863 643.012 824.762 646.606 820.201 648.942C817.465 650.38 814.911 651.997 812.357 653.794C811.627 654.333 811.08 655.412 811.08 656.131C811.08 656.67 812.174 657.389 813.086 657.568C816.917 658.287 820.931 658.646 824.762 659.186C826.404 659.365 828.045 659.725 829.687 660.084C829.687 660.444 829.87 660.623 829.87 660.983C828.41 662.061 826.768 662.96 825.491 664.038C820.383 668.351 814.546 669.609 807.978 668.171C807.613 667.992 807.066 668.171 806.701 668.171C799.039 667.093 792.472 668.89 785.904 673.203C778.79 677.876 770.945 681.47 763.101 684.885C753.614 689.018 746.135 695.308 740.48 703.754C737.926 707.528 736.284 712.021 734.824 716.334C733.73 719.749 732.453 722.984 729.899 725.679C729.351 726.218 729.169 727.117 728.439 728.375C737.926 727.836 747.047 727.476 756.716 726.937C754.709 730.172 752.885 732.868 751.06 735.563C750.696 736.103 750.148 736.462 749.966 736.821C749.054 741.135 745.77 742.393 741.939 742.393C738.655 742.393 736.649 744.909 733.912 746.167C732.453 746.885 733 751.378 734.642 752.277C735.189 752.636 735.919 752.996 736.284 753.535C736.649 753.714 736.831 754.254 737.196 754.793C735.007 758.028 731.541 760.184 728.804 762.88C723.331 768.451 716.216 772.584 712.021 779.413C710.926 781.031 709.467 782.648 708.19 784.086C707.095 785.164 706.001 785.524 704.359 784.984C697.609 782.828 691.041 781.031 683.927 779.054C682.285 781.21 680.46 783.367 678.636 785.524C676.265 787.86 673.893 790.196 671.339 792.353C663.13 799.721 654.92 807.449 649.083 816.973C647.988 818.77 647.441 820.747 646.164 823.623C656.562 822.005 666.049 820.747 676.082 819.13C672.981 824.521 674.258 829.373 674.988 834.765C664.772 836.023 654.556 836.023 643.975 837.82C645.981 843.032 647.623 847.884 649.63 852.556C654.556 863.878 659.481 875.02 664.589 886.163C667.326 892.093 670.244 898.024 673.711 903.595C677.542 909.705 682.65 915.096 688.122 920.128C691.771 923.543 695.42 927.137 698.703 931.091C703.082 936.123 705.453 942.413 708.372 948.343C708.919 949.421 709.649 950.5 710.014 951.758C710.379 953.016 710.926 954.274 710.744 955.352C710.561 958.407 710.014 961.642 709.467 965.236C718.223 967.033 728.439 966.674 738.838 967.213Z" fill="black"/>
<path d="M512.443 733.766C513.356 731.25 513.903 729.633 514.633 728.016C517.004 722.444 517.369 717.233 513.72 711.841C509.707 706.27 509.525 705.911 503.869 709.865C501.133 711.841 498.396 713.998 495.842 716.155C495.295 716.694 495.113 717.772 494.748 718.491C492.194 723.882 487.086 726.758 482.707 730.352C477.052 735.204 472.309 740.955 467.566 746.526C464.829 749.94 461.911 753.175 458.992 756.41C455.526 760.184 451.877 763.958 448.046 767.373C442.938 771.865 439.472 777.077 436.37 783.008C434.729 786.242 431.81 789.298 428.891 791.634C420.134 798.463 413.02 806.55 406.999 815.895C404.628 819.489 403.168 823.084 402.074 827.037C405.54 832.608 410.83 833.327 416.486 832.069C419.04 831.53 421.411 830.272 423.783 829.373C427.249 828.115 430.898 826.857 434.364 825.599C440.201 823.443 445.127 825.599 449.14 829.194C452.242 832.069 454.978 835.484 457.532 838.898C458.444 839.976 458.809 841.953 458.444 843.211C457.167 849.322 457.35 855.252 458.262 861.183C458.809 864.957 458.627 868.73 458.262 872.504C457.897 876.458 458.262 879.873 460.269 883.467C464.1 889.757 469.025 894.968 474.316 900C479.059 904.673 484.897 908.447 490.187 912.58C493.836 915.456 497.667 918.331 500.95 921.925C503.504 924.621 505.329 927.856 508.612 929.833C510.254 930.731 510.984 933.247 511.896 935.224C512.991 937.021 513.72 938.998 514.815 940.795C515.362 941.873 516.092 942.952 516.822 944.03C518.828 947.445 518.464 951.039 517.551 954.633C515.91 960.743 516.457 966.674 521.018 971.706C523.024 974.042 522.477 976.738 521.747 979.074C520.835 982.488 520.653 985.544 521.382 988.958C521.93 991.115 521.018 992.912 519.376 994.709C510.437 1003.69 499.673 1005.49 487.815 1002.8C482.16 1001.54 477.964 997.944 474.681 993.451C473.404 991.654 472.309 989.857 471.214 987.88C469.573 984.645 469.937 981.41 471.762 978.535C474.316 974.581 477.235 970.807 479.971 967.033C482.525 963.439 482.89 959.485 481.795 955.352C481.43 954.274 479.971 953.555 479.241 952.656C475.775 948.163 472.491 943.671 469.208 939.178C466.836 935.943 464.282 932.708 461.911 929.653C455.708 921.925 449.688 914.018 447.134 904.314C446.951 903.595 446.404 902.516 446.769 901.977C447.681 900.719 446.769 900.36 446.039 899.461C445.309 898.563 443.85 897.484 445.857 896.406C446.039 896.406 446.039 895.687 445.857 895.328C443.485 891.015 443.668 885.983 441.661 881.67C440.384 878.794 438.377 875.919 436.37 873.403C435.093 871.786 434.181 869.629 431.81 869.27C429.803 865.316 426.154 862.8 423.418 859.385C418.31 853.095 413.02 846.985 407.547 840.875C405.357 838.539 402.803 836.562 400.432 834.585C400.249 834.765 399.885 834.945 399.885 835.124C401.162 840.336 402.256 845.727 404.993 850.4C406.27 852.377 406.635 854.893 407.912 856.869C413.202 866.394 416.668 876.638 421.411 886.342C425.607 895.148 430.35 903.595 436.918 910.963C442.755 917.433 448.776 923.902 454.249 930.731C457.532 934.685 460.269 939.178 462.458 943.85C463.735 946.546 466.471 948.523 466.471 951.937C466.471 956.61 467.931 961.103 466.106 965.955C465.012 969.19 465.012 972.784 464.647 976.378C464.282 983.567 463.917 990.755 463.552 997.944C463.552 999.381 462.823 1001 462.458 1002.8C460.998 1002.8 459.539 1002.8 458.08 1002.44C442.938 999.381 427.979 996.326 412.837 993.091C411.013 992.732 409.189 992.373 410.101 989.857C411.925 985.004 411.013 980.152 410.83 975.3C410.648 970.807 410.83 970.807 415.026 969.19C417.58 968.291 420.317 967.752 422.506 966.314C424.513 965.056 427.249 963.978 427.431 961.103C423.418 957.688 419.04 955.352 414.114 953.914C413.202 953.734 412.472 952.297 411.925 951.398C410.466 948.343 409.006 945.108 407.912 941.873C406.635 938.279 404.445 935.224 402.074 932.349C397.878 927.496 394.047 922.465 390.033 917.792C387.115 914.557 383.466 912.041 380.73 908.447C379.453 906.65 377.993 904.853 376.716 903.235C380.365 900.899 383.648 898.742 387.115 896.406C386.02 892.093 390.033 890.296 391.675 886.881C391.31 885.623 390.581 884.006 390.033 882.209C391.128 882.209 392.405 882.029 394.412 881.85C392.04 880.232 392.587 876.458 388.574 878.435C387.297 875.02 384.561 873.403 381.459 872.145C377.081 870.528 372.885 868.012 368.507 866.394C364.858 865.136 361.21 863.339 357.561 861.901C356.467 861.542 355.554 860.464 354.825 859.385C352.635 855.971 350.629 852.377 349.899 848.243C349.717 846.806 348.987 845.548 348.622 844.29C351.359 842.313 353.913 840.336 356.649 838.539C358.838 836.921 359.933 834.765 359.933 832.249C360.115 821.466 366.318 813.559 372.52 805.651C376.899 799.901 382.189 795.048 388.027 790.556C392.223 787.321 394.777 782.828 397.331 778.335C398.79 775.639 400.979 773.303 403.351 771.147C408.276 766.294 413.02 761.622 417.398 756.23C423.418 748.862 429.803 741.494 436.37 734.485C439.654 730.891 443.485 727.836 447.316 724.601C450.417 722.085 451.33 718.491 452.789 715.256C454.248 711.841 455.161 708.247 456.802 705.012C458.262 702.137 460.269 699.441 462.458 696.925C467.383 691.534 473.586 687.76 480.153 684.705C488.91 680.392 497.667 676.258 506.241 671.766C517.916 665.476 529.409 658.646 540.902 651.997C543.821 650.38 546.74 648.762 549.659 647.325C552.943 645.707 555.132 643.012 557.321 639.956C562.976 631.69 568.449 623.243 576.294 616.774C577.206 616.055 578.3 615.516 579.212 614.976C586.327 610.843 593.077 606.71 595.996 598.623C596.543 597.185 598.185 596.107 599.28 594.669C599.827 593.95 600.739 593.411 600.921 592.692C601.469 587.121 607.307 584.785 609.313 580.112C609.678 579.214 612.05 578.854 613.509 578.854C623.543 578.495 633.576 578.135 643.61 577.776C649.63 577.596 655.468 577.416 661.488 577.237C662.947 577.237 664.224 577.416 666.049 577.776C664.224 581.37 662.4 584.066 659.299 586.043C654.556 589.098 649.812 592.153 645.434 595.567C638.867 600.42 632.482 605.631 625.914 610.663C624.455 611.742 622.813 612.64 621.536 614.078C622.631 613.718 623.725 613.359 624.637 613C628.468 610.843 632.482 608.686 636.313 606.35C645.799 600.599 655.833 595.567 666.049 591.614C670.609 589.817 674.988 587.84 679.731 586.402C684.292 584.964 688.852 583.347 693.778 584.964C697.062 586.043 698.339 588.199 697.062 591.434C696.879 591.793 696.697 592.153 696.514 592.512C693.595 596.466 691.224 600.599 689.764 605.272C689.4 606.35 688.123 607.428 687.21 608.147C684.292 610.124 681.555 612.281 678.271 613.539C673.528 615.336 670.427 618.75 667.326 622.524C662.035 628.994 656.562 635.284 650.907 641.394C647.806 644.629 644.157 647.325 640.144 649.301C636.678 651.099 633.394 653.075 629.928 655.232C625.002 658.107 620.077 660.803 614.786 662.96C606.759 666.194 598.915 670.148 591.253 673.922C583.226 677.876 575.017 681.65 566.99 685.963C558.051 690.635 550.936 697.105 546.558 706.27C545.098 709.505 542.362 712.021 539.443 714.178C537.801 715.436 536.342 717.233 535.429 719.21C531.963 726.398 525.396 729.633 518.646 732.508C517.004 733.766 515.18 733.407 512.443 733.766ZM574.834 664.218C574.652 663.858 574.287 663.499 574.104 663.139C569.726 664.757 565.165 666.374 560.97 668.351C555.862 670.508 551.118 673.203 546.01 675.539C537.254 679.493 528.497 683.267 520.653 688.838C518.281 690.635 515.727 692.432 513.72 694.589C512.261 696.206 511.166 698.363 512.443 700.699C513.173 700.52 513.903 700.34 514.633 700.16C515.362 699.801 516.274 699.621 516.822 699.082C524.666 693.151 533.24 689.018 542.362 685.603C552.578 681.829 562.429 677.337 570.091 669.07C571.733 667.093 573.375 665.655 574.834 664.218ZM586.51 657.029C590.158 655.591 593.442 654.333 596.543 652.896C600.739 651.099 604.935 648.942 609.131 646.965C610.59 646.246 611.685 644.988 610.955 643.551C610.408 642.652 608.401 641.754 607.306 641.933C605.117 642.293 602.746 643.191 600.921 644.449C595.813 648.223 590.523 651.278 586.51 657.029ZM506.606 961.822H506.788C506.788 961.282 506.788 960.743 506.788 960.204C506.788 960.204 506.788 960.204 506.606 960.204C506.606 960.743 506.606 961.282 506.606 961.822Z" fill="black"/>
<path d="M765.108 1309.21C762.554 1307.95 760.365 1307.05 758.358 1306.15C751.973 1303.46 748.325 1299.14 747.595 1291.95C746.865 1285.3 748.325 1279.73 751.973 1274.16C755.439 1268.59 760.365 1265.18 765.838 1262.3C767.297 1261.4 768.757 1260.5 770.399 1259.61C766.02 1256.91 761.824 1254.39 757.629 1251.7C755.987 1250.62 754.345 1249.18 753.25 1247.56C750.696 1243.97 747.413 1240.74 745.771 1236.24C744.494 1232.65 743.582 1229.23 744.129 1225.46C744.859 1220.79 745.588 1216.11 747.23 1211.44C749.419 1205.33 751.791 1199.22 754.345 1193.29C754.892 1191.85 754.71 1190.06 755.075 1188.44C756.534 1179.45 760.365 1171.19 766.203 1164.18C769.669 1159.86 773.5 1155.55 778.973 1153.04C781.892 1151.6 784.628 1149.44 787 1147.28C790.831 1143.69 795.574 1142.07 800.135 1140.1C804.695 1138.12 809.621 1136.86 814.729 1135.06C814.546 1133.99 814.364 1132.73 813.999 1131.47C812.722 1126.98 813.634 1124.1 818.013 1121.41C822.573 1118.53 827.134 1115.66 831.877 1113.14C837.715 1109.9 843.553 1106.67 849.39 1103.79C855.228 1100.92 861.248 1098.22 867.633 1095.17C865.079 1091.75 862.708 1088.34 860.336 1085.1C857.052 1080.61 853.404 1076.12 850.303 1071.27C846.289 1065.16 846.107 1058.69 849.208 1051.86C852.857 1044.13 857.417 1037.12 863.437 1031.01C867.998 1026.34 872.376 1021.31 877.12 1016.63C880.768 1013.04 880.403 1008.55 880.038 1004.23C879.856 1001.54 878.579 999.022 878.032 996.326C877.484 993.631 876.755 990.755 876.937 987.88C877.302 983.387 879.856 979.973 883.505 977.277C893.721 969.909 905.214 967.213 917.619 967.033C926.923 966.854 936.227 967.752 945.166 970.807C948.449 971.886 951.915 972.245 955.564 972.245C966.327 972.245 977.091 972.245 988.401 972.245C988.036 973.683 987.854 974.581 987.489 975.48C985.482 981.231 984.753 987.341 984.753 993.271C984.753 1000.46 982.564 1006.75 979.827 1013.22C975.084 1024.72 977.456 1021.67 965.963 1023.1C962.861 1023.46 959.942 1023.64 956.841 1024C956.111 1024.18 955.199 1024.54 954.47 1024.9C955.017 1027.96 955.747 1030.83 956.294 1033.71C957.206 1037.66 956.841 1041.61 955.929 1045.57C955.017 1049.34 954.834 1053.3 953.557 1056.89C949.726 1066.41 944.253 1075.04 936.044 1081.51C930.389 1086.18 923.821 1089.42 916.889 1091.57C909.774 1093.91 902.477 1096.07 895.18 1097.32C887.701 1098.58 880.038 1099.3 871.464 1096.97C861.248 1104.15 850.485 1112.06 839.357 1119.97C837.533 1121.23 835.343 1122.3 833.519 1123.74C830.783 1125.9 828.229 1128.06 825.675 1130.39C825.127 1130.93 825.127 1131.83 824.762 1132.91C825.675 1133.09 826.222 1133.27 826.769 1133.27C831.695 1133.27 836.62 1133.27 841.546 1133.27C847.931 1133.45 853.221 1135.96 858.147 1139.92C860.883 1142.25 862.343 1145.49 862.525 1148.9C862.89 1153.22 862.16 1157.53 861.796 1161.66C861.248 1167.77 860.701 1174.06 859.971 1180.17C858.877 1187.72 859.971 1195.45 856.87 1202.82C854.863 1207.67 854.134 1213.06 852.674 1218.09C851.215 1223.12 849.938 1228.34 847.931 1233.01C843.917 1241.99 837.168 1248.46 828.593 1253.32C819.472 1258.53 809.621 1261.4 799.222 1262.12C793.567 1262.48 787.912 1261.94 782.439 1261.58C780.797 1261.58 778.973 1260.14 777.513 1261.94C775.689 1263.92 774.23 1266.07 774.23 1268.77C774.412 1271.65 775.689 1274.16 778.426 1275.24C780.432 1276.14 782.621 1276.86 784.628 1276.86C790.648 1277.04 796.851 1277.04 802.871 1276.68C813.817 1276.14 824.762 1274.52 835.891 1275.42C843.188 1276.14 850.485 1277.22 856.688 1281.17C863.073 1285.3 867.086 1290.88 867.816 1298.6C868.91 1309.92 864.35 1318.73 856.505 1326.28C847.201 1335.26 835.891 1341.73 823.668 1346.05C812.722 1349.82 801.412 1352.16 789.554 1352.34C782.621 1352.52 775.689 1352.34 768.757 1351.26C761.46 1350.18 754.71 1347.84 748.872 1343.35C743.217 1338.86 740.48 1332.39 742.669 1325.92C744.494 1320.35 748.69 1316.57 753.798 1313.88C757.264 1312.62 760.73 1311.18 765.108 1309.21ZM837.897 1148.9C837.532 1146.21 836.803 1144.95 834.431 1144.77C832.607 1144.59 830.6 1144.95 828.958 1145.67C825.675 1147.11 822.391 1148.9 819.472 1150.7C816.371 1152.68 813.269 1154.65 810.533 1157.17C808.344 1158.97 806.884 1161.48 804.878 1163.46C801.047 1167.23 798.675 1171.91 797.033 1176.94C794.844 1183.77 792.29 1190.42 790.283 1197.42C788.094 1204.97 784.446 1212.16 782.621 1220.07C781.162 1226.54 781.527 1232.47 783.898 1238.58C785.905 1243.79 788.459 1248.82 793.75 1252.06C797.581 1254.21 801.047 1253.67 804.33 1251.7C808.161 1249.36 809.803 1245.23 811.263 1241.27C813.087 1236.06 813.452 1230.49 814.546 1224.92C815.641 1219.35 816.736 1213.78 818.925 1208.39C821.661 1202.1 823.668 1195.63 824.762 1188.98C826.404 1178.91 828.411 1169.03 833.154 1159.86C835.343 1156.27 836.438 1152.5 837.897 1148.9ZM909.045 1001.18C909.41 1008.37 907.403 1014.84 902.477 1020.05C897.004 1025.98 892.808 1032.45 889.342 1039.64C886.606 1045.39 884.964 1051.14 884.782 1057.25C884.782 1059.05 884.417 1061.02 884.782 1062.82C886.241 1070.37 889.707 1077.02 894.815 1082.77C896.64 1084.92 899.011 1086.36 902.112 1086C907.038 1085.28 911.051 1082.95 913.788 1078.63C916.159 1075.04 916.707 1070.91 917.436 1066.77C918.896 1057.61 920.173 1048.44 921.815 1039.28C923.092 1032.63 923.457 1026.16 921.997 1019.69C921.085 1015.56 921.632 1011.96 923.821 1008.55C924.551 1007.47 924.916 1006.21 925.828 1005.13C929.477 1000.28 930.571 994.709 930.754 988.958C930.936 986.262 930.389 983.567 929.294 981.051C927.835 977.636 924.734 975.839 921.085 975.66C916.889 975.48 913.058 976.558 910.869 980.332C909.227 983.028 907.95 985.903 908.315 989.318C908.68 993.271 908.68 997.225 909.045 1001.18ZM801.594 1341.55C809.803 1341.37 818.56 1339.22 826.587 1334.55C830.418 1332.39 834.066 1329.87 835.891 1325.74C839.357 1317.47 837.35 1312.26 830.053 1309.92C825.127 1308.49 820.384 1308.67 815.459 1309.21C810.351 1309.75 805.425 1310.28 800.317 1310.46C792.655 1310.64 784.993 1310.64 777.148 1310.46C774.777 1310.46 773.5 1311 772.223 1313.16C767.48 1321.79 770.216 1330.77 778.79 1336.52C785.358 1340.84 792.837 1341.37 801.594 1341.55Z" fill="black"/>
<path d="M823.668 1016.81C824.945 1019.51 826.039 1021.13 826.587 1023.1C827.681 1026.7 828.593 1030.29 829.141 1033.89C830.053 1039.1 830.6 1044.49 831.147 1049.88C831.877 1056.53 832.607 1063.18 833.154 1069.83C833.336 1071.27 832.972 1072.7 832.972 1074.5C825.31 1075.4 817.83 1076.12 810.168 1077.2C800.499 1078.28 791.013 1079.53 781.344 1080.79C774.594 1081.69 767.844 1082.59 760.912 1083.31C758.358 1083.49 757.081 1084.21 756.351 1086.9C755.439 1090.5 753.433 1093.73 750.149 1095.89C749.602 1096.25 748.872 1096.79 748.689 1097.32C747.23 1101.28 743.946 1103.43 740.845 1105.77C730.811 1114.04 720.048 1121.59 708.737 1127.88C702.535 1131.29 697.427 1135.6 692.501 1140.82C697.062 1142.25 701.623 1143.51 706.001 1144.95C710.562 1146.39 715.122 1148.18 719.866 1149.62C722.967 1150.52 726.068 1151.24 729.169 1151.96C735.554 1153.57 741.939 1155.01 748.325 1156.63C749.966 1156.99 751.243 1158.07 752.52 1158.79C750.331 1162.92 748.324 1166.87 745.953 1170.47C744.129 1173.52 743.034 1176.76 742.487 1179.99C741.21 1185.92 739.75 1191.85 737.379 1197.6C735.19 1203 733.73 1208.75 731.723 1214.14C729.352 1220.61 729.534 1227.08 729.169 1233.73C728.987 1235.52 729.352 1237.5 729.352 1239.84C704.359 1241.63 679.366 1243.43 654.738 1245.05C651.819 1253.49 659.299 1276.32 673.346 1282.61C683.197 1286.92 693.048 1288 703.447 1285.12C714.21 1282.25 720.413 1274.16 726.251 1265.36C728.44 1266.07 730.264 1266.79 732.636 1267.69C731.906 1270.75 731.359 1273.8 730.446 1276.68C727.163 1285.84 722.784 1294.29 715.305 1300.94C707.278 1308.13 697.974 1312.8 687.211 1314.6C677.542 1316.39 667.691 1316.21 658.204 1314.06C645.434 1311.36 635.766 1304.17 628.833 1293.39C625.367 1287.82 622.266 1282.07 619.712 1275.96C618.253 1272.72 617.888 1268.95 617.888 1265.36C617.888 1257.09 617.888 1248.64 618.617 1240.38C618.982 1235.16 620.989 1229.95 623.178 1225.1C627.009 1216.47 631.023 1207.67 632.847 1198.32C633.212 1196.89 633.941 1195.45 634.489 1194.01C634.671 1193.65 634.854 1193.29 634.854 1192.93C633.759 1189.34 635.218 1186.28 635.766 1182.87C636.131 1180.89 636.86 1178.91 637.225 1176.94C637.59 1174.78 638.32 1172.62 638.502 1170.29C639.049 1165.44 641.421 1161.48 643.975 1157.53C646.894 1152.86 649.995 1148 653.644 1143.87C660.758 1135.6 668.421 1127.7 678.454 1122.66C682.103 1120.87 685.022 1117.99 688.305 1115.84C692.319 1113.14 696.515 1110.62 700.163 1107.57C704.177 1104.33 708.008 1100.92 711.656 1097.32C714.575 1094.45 717.676 1091.39 719.683 1087.98C721.507 1085.1 722.237 1081.33 722.967 1077.92C724.061 1071.99 725.156 1065.88 728.257 1060.48C730.446 1056.53 733.365 1052.94 736.102 1049.34C743.399 1039.46 753.068 1031.91 762.007 1023.46C764.926 1020.59 768.027 1017.89 769.121 1013.76C770.034 1010.7 769.486 1008.37 768.027 1005.67C765.473 1001 762.919 996.506 760.73 991.654C757.993 985.903 759.453 981.949 764.196 977.457C773.317 969.01 784.628 965.056 796.486 964.158C807.614 963.259 818.56 965.056 828.411 970.987C832.242 973.323 836.255 976.019 838.262 980.512C839.721 983.746 840.269 986.622 839.357 990.216C837.715 997.584 833.519 1002.98 828.228 1008.19C824.215 1009.63 824.945 1014.3 823.668 1016.81ZM677.542 1158.43C675.9 1160.58 674.076 1162.38 672.981 1164.72C670.245 1170.29 668.238 1176.22 666.961 1182.33C666.231 1185.92 665.684 1189.34 664.772 1192.93C663.495 1198.14 661.671 1203 660.029 1208.03C657.292 1215.76 655.103 1223.48 653.826 1231.57C653.644 1232.65 653.826 1233.73 653.826 1235.34C667.326 1234.45 680.643 1233.37 693.413 1232.47C693.961 1227.8 694.69 1223.66 695.055 1219.35C695.785 1212.88 698.521 1207.13 700.528 1201.2C700.893 1200.12 702.352 1198.86 702.17 1197.96C701.805 1192.93 704.724 1188.8 705.636 1184.13C706.548 1179.09 708.555 1174.24 710.014 1169.39C699.981 1164.18 688.67 1162.02 677.542 1158.43ZM797.033 1068.57C796.851 1062.1 796.668 1056.17 796.486 1050.24C796.486 1043.41 797.763 1036.4 795.026 1029.57C794.114 1027.6 793.384 1026.16 791.743 1025.08C789.736 1023.82 787.547 1024.36 785.54 1025.44C779.52 1028.49 774.959 1032.45 770.398 1038.38C767.844 1041.61 765.29 1044.85 763.284 1048.62C759.635 1055.45 756.716 1062.1 757.446 1070.01C757.628 1072.7 757.811 1072.88 760.547 1072.52C767.844 1071.81 775.324 1071.09 782.621 1070.37C787.547 1070.01 792.472 1069.29 797.033 1068.57ZM809.621 986.622C808.891 984.286 808.344 981.59 807.067 979.254C805.06 975.839 801.594 974.222 797.398 974.761C792.472 975.48 788.459 977.636 786.635 982.309C783.716 989.497 786.27 995.787 790.83 1001.36C793.202 1004.23 796.668 1004.59 800.317 1002.98C807.067 999.741 807.614 993.091 809.621 986.622Z" fill="black"/>
<path d="M602.016 492.772C582.861 492.053 564.618 491.514 546.193 490.975C545.28 488.279 542.726 486.122 544.551 482.708C544.916 482.169 544.368 481.09 543.821 480.372C540.537 474.98 536.524 470.308 533.97 464.377C532.146 460.064 528.314 457.189 525.031 453.954C522.294 451.258 519.923 448.383 517.369 445.687C517.186 445.507 517.004 445.148 516.821 444.968C511.531 441.913 509.889 436.522 507.518 431.49C505.146 426.458 502.774 421.426 500.768 416.214C498.579 410.463 499.856 404.892 501.68 399.321C502.774 395.907 503.687 392.492 504.781 388.179C507.335 386.382 510.984 384.225 514.45 381.889C517.004 380.272 518.281 378.115 518.646 374.88C519.193 368.59 520.105 362.48 521.2 356.37C521.565 354.213 522.477 351.877 523.754 350.08C527.038 344.868 530.321 339.657 534.152 334.804C538.166 329.593 542.362 324.381 546.74 319.529C554.402 310.723 561.881 301.737 569.908 293.111C574.651 287.899 580.124 283.407 585.232 278.375C587.604 276.218 589.611 273.882 592.165 271.905C596.178 268.491 600.009 265.256 604.205 262.021C609.313 258.247 614.421 254.653 618.434 249.621C620.259 247.464 622.448 245.487 624.637 243.69C629.015 239.916 632.664 235.603 635.583 230.571C639.414 223.922 644.704 218.53 649.63 212.78C652.731 209.365 654.555 205.411 655.65 201.098C656.197 199.121 655.65 196.965 655.65 194.449C657.839 192.292 660.211 189.956 662.765 187.44C664.589 185.643 666.778 185.104 669.515 185.104C679.731 185.643 689.764 185.823 699.98 186.182C705.088 186.362 710.196 186.721 715.122 186.901C715.852 186.901 716.399 187.26 717.676 187.8C712.385 193.73 706 197.863 700.528 203.075C695.055 208.467 689.399 213.498 684.291 219.429C685.021 219.249 685.751 219.07 686.298 218.71C697.609 210.803 709.831 204.153 722.784 199.481C727.345 197.863 731.905 196.605 736.831 196.965C741.209 197.324 743.216 199.121 744.31 203.255C745.587 208.287 743.946 213.139 743.216 217.812C743.033 219.07 741.756 220.328 740.844 221.226C734.094 227.157 727.162 233.087 719.318 237.4C716.034 239.197 712.203 240.455 708.372 241.534C704.176 242.612 703.081 242.073 701.075 238.119C699.98 235.963 698.886 233.806 697.974 231.649C695.784 225.719 691.406 223.562 685.386 225.899C680.825 227.696 676.812 230.391 673.71 234.345C670.974 237.939 667.69 241.174 664.407 244.229C657.474 250.879 650.907 257.708 642.88 263.099C636.312 267.412 630.657 272.804 625.184 278.375C622.63 281.07 620.076 283.946 617.157 286.282C609.678 292.213 604.935 300.479 597.82 306.59C595.448 308.566 593.989 311.622 591.8 313.958C587.057 319.169 582.314 324.201 577.753 329.413C576.841 330.491 576.658 331.929 575.746 333.187C572.827 337.32 569.726 341.094 566.989 345.407C563.523 350.619 560.969 356.19 561.152 362.84C561.152 364.637 560.787 366.434 560.604 368.411C564.253 372.724 569.361 373.263 574.469 372.005C579.212 370.747 583.773 368.59 588.334 366.793C590.158 366.074 591.8 365.535 593.442 364.637C598.55 361.582 603.293 362.84 607.671 366.074C611.32 368.95 615.151 371.825 617.157 376.677C615.333 378.115 613.691 379.733 611.685 380.991C606.394 384.225 602.928 388.718 601.833 395.008C601.104 399.86 598.915 404.713 599.827 409.745C600.192 411.721 600.192 413.878 600.921 415.675C602.746 420.527 604.57 425.38 607.124 429.872C609.131 433.287 612.232 435.983 614.603 439.038C618.434 443.71 622.265 448.383 625.914 453.055C628.65 456.47 631.752 459.884 633.941 463.658C636.677 468.511 639.961 473.003 643.245 477.496C646.346 481.989 645.069 486.122 639.961 487.56C630.84 490.076 621.901 489.537 613.326 485.044C608.948 482.708 606.029 478.934 602.746 475.699C598.732 471.925 594.719 467.792 590.888 463.658C589.063 461.681 587.604 459.345 586.327 457.009C584.138 453.235 581.584 449.461 579.942 445.507C578.665 442.632 578.847 439.217 577.935 436.162C577.023 432.209 577.023 427.896 573.739 424.481C567.354 417.652 566.989 403.275 572.645 395.907C575.016 392.672 575.016 389.437 572.28 386.382C571.003 384.944 569.726 383.686 568.266 382.428C565.348 380.092 562.429 377.756 558.963 375.06C558.963 378.115 558.598 380.631 558.78 383.147C558.963 388.179 558.78 393.031 556.409 397.704C553.672 402.915 554.037 408.307 555.132 413.878C556.226 419.449 558.78 424.301 561.334 429.154C563.888 433.826 565.712 438.858 568.084 443.531C569.543 446.406 571.55 449.102 573.374 451.797C576.658 456.65 580.124 461.502 583.773 466.174C587.057 470.487 590.705 474.621 594.354 478.574C597.455 483.427 599.644 487.74 602.016 492.772Z" fill="black"/>
<path d="M415.757 1120.33C418.858 1119.79 421.594 1119.79 424.148 1118.89C431.446 1116.73 438.743 1114.4 445.857 1111.88C448.594 1110.98 451.33 1109.72 454.432 1108.29C453.702 1112.42 452.06 1115.66 449.871 1118.53C446.04 1123.38 442.026 1128.06 438.378 1133.09C434.364 1138.3 430.351 1143.87 426.337 1149.08C423.419 1153.04 420.135 1156.81 417.216 1160.58C417.216 1160.76 417.034 1160.94 417.034 1160.94C411.378 1162.74 409.736 1168.49 406.088 1172.44C404.446 1174.24 403.351 1176.76 402.804 1179.27C401.345 1185.56 400.433 1191.85 399.52 1198.32C398.973 1201.56 397.514 1204.79 398.061 1208.39C398.243 1210.18 398.061 1211.8 399.156 1213.6C400.25 1215.58 399.703 1218.09 398.608 1220.25C396.419 1224.74 393.865 1228.87 391.676 1233.37C385.838 1244.87 375.805 1246.85 365.041 1242.17C362.305 1241.09 359.751 1239.66 357.014 1238.94C351.724 1237.32 346.251 1239.84 343.88 1244.51C342.785 1246.85 341.873 1249 341.873 1251.7C342.42 1262.84 342.785 1273.98 343.15 1285.3C343.515 1296.45 343.88 1307.59 344.609 1318.55C345.157 1328.79 346.981 1330.05 357.562 1331.49C360.116 1331.85 362.67 1331.85 365.406 1331.85C365.589 1334.55 365.953 1336.7 366.136 1339.4C340.778 1341.73 315.603 1344.25 289.881 1346.23C289.698 1343.53 289.516 1341.55 289.333 1339.58C292.435 1338.14 295.536 1337.24 298.09 1335.62C303.015 1332.57 305.387 1328.08 304.657 1322.32C304.475 1320.53 304.475 1318.55 304.475 1316.75C304.11 1305.25 303.745 1293.75 303.38 1282.07C303.015 1272.19 302.651 1262.12 302.103 1252.24C301.921 1249.9 301.921 1247.74 301.738 1245.41C301.374 1240.38 299.002 1236.78 294.259 1234.8C292.07 1233.91 289.698 1233.19 287.327 1232.47C287.144 1231.75 286.962 1231.21 286.779 1230.49C285.867 1226.72 286.414 1225.82 290.245 1224.56C300.826 1220.79 311.407 1217.19 321.623 1213.06C326.184 1211.26 331.11 1209.47 334.758 1205.69C335.123 1205.33 335.67 1204.97 336.035 1204.43C338.772 1200.84 341.326 1197.24 344.244 1193.83C347.346 1190.24 347.711 1185.56 349.9 1181.43C350.265 1180.71 350.812 1179.99 351.906 1179.45C350.812 1184.84 350.265 1190.42 348.805 1195.81C346.981 1202.64 344.244 1209.29 342.42 1216.11C340.778 1222.76 339.866 1229.59 340.596 1236.78C341.143 1236.6 341.873 1236.42 341.873 1236.24C345.521 1227.08 352.089 1220.07 358.474 1212.7C360.481 1210.36 362.852 1208.39 363.764 1205.33C364.129 1203.89 365.771 1202.82 366.866 1201.38C367.231 1200.84 367.778 1200.12 367.96 1199.58C370.149 1192.39 372.521 1185.02 374.345 1177.66C375.257 1174.06 374.893 1170.29 375.44 1166.51C375.805 1164.18 376.899 1162.02 377.811 1159.68C381.642 1148.54 388.392 1139.02 395.325 1129.49C396.966 1127.16 399.338 1125.36 400.98 1123.02C396.966 1123.92 394.23 1126.98 391.129 1128.95C387.663 1131.29 384.379 1133.99 381.278 1136.68C378.359 1139.38 375.44 1142.25 372.886 1145.31C370.149 1148.36 367.778 1151.6 365.406 1154.83C362.852 1158.25 360.298 1161.48 358.291 1165.08C356.285 1168.49 354.825 1172.09 352.636 1176.76C351.542 1173.52 350.265 1171.37 350.082 1169.21C349.9 1165.62 348.988 1162.56 347.528 1159.33C346.981 1158.07 346.981 1156.45 346.981 1155.01C346.981 1151.78 345.521 1148.54 348.258 1145.67C348.623 1145.31 348.623 1144.59 348.44 1144.05C346.981 1138.66 347.346 1132.37 341.143 1129.31C340.596 1128.95 340.049 1128.41 339.136 1127.88C340.049 1126.98 340.778 1126.26 341.508 1125.54C345.704 1122.48 350.082 1120.51 355.373 1119.79C363.764 1118.71 371.609 1115.48 378.359 1110.26C379.636 1109.37 381.278 1109.01 382.555 1108.11C387.663 1104.69 392.223 1100.56 395.872 1095.53C398.061 1092.29 397.149 1089.42 393.318 1087.8C392.223 1087.44 391.129 1086.9 390.034 1086.54C390.034 1083.85 390.034 1081.15 390.034 1078.45C407.547 1072.52 424.878 1066.59 442.574 1060.48C442.756 1064.8 443.121 1068.93 443.303 1073.06C443.303 1073.78 443.303 1074.5 443.486 1075.04C444.398 1079.53 444.398 1084.03 442.574 1088.7C443.303 1087.98 444.216 1087.44 444.58 1086.54C447.499 1081.51 450.053 1076.3 453.337 1071.45C458.445 1064.08 465.56 1058.51 473.404 1054.19C479.424 1050.96 486.721 1052.94 491.465 1058.51C493.471 1061.02 495.843 1063.36 498.215 1065.52C499.674 1066.77 500.404 1068.21 500.039 1070.01C498.762 1077.74 495.113 1084.57 488.911 1089.42C482.343 1094.63 475.046 1098.76 467.019 1101.46C465.377 1102 463.735 1103.61 462.276 1102C460.999 1100.56 460.452 1098.58 459.904 1096.79C459.54 1095.53 459.357 1094.09 458.992 1092.83C458.445 1090.86 457.168 1090.14 455.161 1090.32C453.337 1090.68 451.33 1090.86 449.871 1091.75C443.668 1095.71 437.466 1099.66 431.446 1103.97C427.25 1107.03 423.419 1110.44 419.405 1113.86C416.669 1115.66 416.121 1116.73 415.757 1120.33Z" fill="black"/>
<path d="M740.297 602.576C744.676 603.115 749.054 603.475 753.25 604.014C754.709 604.194 756.351 604.912 757.628 605.811C761.642 608.327 761.824 613.898 757.811 616.414C754.162 618.75 750.149 620.547 746.318 622.524C744.858 623.243 743.034 623.962 741.574 624.861C736.466 627.916 736.831 628.994 738.473 633.127C739.385 635.643 740.115 637.98 740.662 640.496C741.757 644.629 741.21 646.246 737.379 648.762C735.007 650.2 732.635 651.638 730.629 653.435C728.075 655.591 725.886 657.748 724.244 660.803C722.237 664.577 719.136 667.632 715.122 669.968C713.48 670.867 712.021 671.945 710.379 673.023C701.987 678.595 692.684 682.728 683.562 687.041C676.812 690.276 670.792 694.589 666.596 700.879C664.407 704.114 662.583 707.528 661.488 711.123C659.481 718.311 655.65 723.702 649.995 728.555C644.705 733.047 639.597 737.72 634.854 742.932C631.752 746.166 629.745 750.3 627.191 753.894C624.455 757.488 621.719 761.083 618.617 764.497C616.428 766.833 614.786 769.529 611.685 771.147C609.861 772.225 608.766 774.92 607.489 776.897C605.847 779.593 604.935 782.648 602.928 785.164C600.557 788.219 597.82 791.634 594.537 793.611C589.429 796.666 585.963 801.338 581.949 805.292C575.929 811.222 571.551 818.411 567.172 825.599C564.253 830.092 560.605 834.046 556.409 837.281C550.936 841.594 547.47 847.165 543.274 852.377C540.355 855.791 537.436 859.385 534.153 862.44C532.876 863.698 530.504 863.698 528.68 864.417C523.754 866.574 518.646 865.675 513.721 864.597C510.802 864.058 508.065 861.901 505.511 860.284C502.045 858.307 498.579 856.151 495.113 853.994C492.194 852.197 489.458 850.04 486.539 848.063C480.336 843.571 474.134 839.258 467.931 834.765C466.836 833.866 465.742 832.788 465.012 831.71C463.37 829.014 463.37 827.936 465.924 825.779C469.938 822.544 473.951 819.489 478.147 816.254C478.512 815.895 479.242 815.536 479.424 815.176C482.343 809.066 488.181 806.011 493.106 801.877C499.309 796.845 506.606 795.587 514.085 794.689C514.815 794.509 516.092 795.408 516.457 795.947C516.822 796.845 516.457 798.103 515.91 798.822C512.808 803.674 509.525 808.347 506.424 813.02C504.052 816.614 503.14 820.388 503.14 824.881C503.14 830.811 505.329 834.765 508.977 838.898C513.173 843.571 519.923 842.672 523.754 837.46C527.585 832.249 529.592 826.139 532.328 820.567C532.693 819.669 532.876 818.591 533.423 817.872C536.524 813.738 539.261 809.425 542.727 805.651C547.288 800.799 552.213 796.127 557.504 791.634C560.422 789.118 562.977 786.602 564.983 783.367C569.909 774.561 577.023 767.732 584.321 760.903C588.152 757.309 591.8 753.355 594.719 749.042C600.192 741.494 605.482 733.766 613.144 728.016C617.158 724.96 618.8 720.647 620.806 716.334C622.996 711.482 624.638 706.091 627.739 701.777C631.752 696.027 637.043 691.174 643.61 687.94C651.637 683.986 659.846 680.212 667.691 675.899C673.711 672.664 679.366 668.89 685.204 665.296C690.13 662.42 695.055 659.725 699.798 656.67C704.906 653.615 709.832 650.38 714.94 647.325C718.041 645.348 720.23 642.832 719.501 638.878C718.953 635.284 716.947 633.487 713.298 633.846C710.014 634.026 706.913 635.284 704.724 637.62C697.244 646.246 687.211 651.278 677.359 656.49C658.569 666.374 639.779 675.899 620.806 685.244C610.226 690.456 602.016 697.644 597.273 708.427C596.908 709.146 596.543 710.044 595.996 710.583C592.712 713.459 591.618 717.412 590.341 721.366C589.611 723.523 588.517 725.679 586.875 727.117C579.942 732.868 574.652 739.877 569.362 746.706C567.902 748.503 566.26 750.12 564.618 751.558C561.152 754.613 557.686 757.668 554.22 760.723C547.47 766.474 540.538 772.225 533.605 777.976C529.045 781.75 525.943 781.75 521.018 778.694C519.011 777.436 518.281 775.28 519.558 773.303C521.2 771.146 523.025 768.99 524.666 767.013C527.585 763.778 530.139 760.364 530.139 755.691C530.139 755.332 530.139 754.793 530.322 754.433C535.065 747.604 536.342 739.158 543.274 733.587C547.835 729.992 551.301 724.96 555.314 720.827C557.139 718.85 557.504 716.514 557.321 714.178C557.321 712.201 557.686 710.404 558.781 708.607C561.335 704.833 563.524 700.879 566.078 697.105C567.355 695.308 569.179 693.69 571.003 692.253C575.929 688.838 581.219 685.603 586.875 683.267C593.625 680.392 599.827 676.797 606.395 673.563C615.881 668.89 625.367 664.038 634.854 659.365C647.988 652.896 660.941 646.067 671.887 636.182C674.988 633.307 678.636 631.15 682.103 628.814C684.839 626.837 686.663 624.501 686.663 620.907C686.663 618.571 687.758 616.774 689.947 615.875C706.183 609.585 722.237 602.756 740.297 602.576ZM738.838 614.617C733.912 612.64 724.973 614.437 722.055 617.492C720.778 618.93 720.96 620.188 722.784 620.727C723.696 620.907 724.791 620.907 725.886 620.907C730.994 620.547 735.007 618.211 738.838 614.617Z" fill="black"/>
<path d="M509.342 1100.74C506.058 1095.71 508.612 1090.68 506.971 1086.18C508.612 1081.87 509.707 1077.2 511.714 1073.06C516.092 1064.62 523.936 1059.23 531.051 1053.12C536.524 1048.26 542.727 1044.85 549.294 1041.79C555.132 1039.1 560.97 1037.12 567.355 1036.22C572.645 1035.5 577.753 1034.96 582.861 1036.22C588.334 1037.48 593.077 1039.64 596.908 1043.95C601.651 1048.98 604.752 1054.73 606.577 1061.38C607.307 1063.9 608.401 1066.41 609.678 1068.75C612.415 1073.42 612.779 1078.63 612.232 1083.67C611.685 1088.52 608.583 1092.11 605.3 1095.53C593.807 1107.57 579.395 1116.01 565.713 1125.18C558.963 1129.67 552.578 1134.35 546.922 1140.28C541.632 1145.85 536.524 1151.6 531.416 1157.35C528.68 1160.4 525.761 1163.28 523.389 1166.69C520.653 1170.47 518.646 1174.78 517.187 1179.09C515.727 1183.41 514.268 1187.36 513.72 1192.03C513.356 1196.17 511.349 1200.12 509.707 1204.07C508.795 1206.41 508.795 1208.93 507.518 1211.26C506.788 1212.7 507.883 1214.86 507.7 1216.65C507.335 1224.02 508.065 1231.39 508.612 1238.94C509.16 1245.41 509.16 1251.88 509.525 1258.53C509.889 1265.18 510.254 1271.65 510.437 1278.3C510.437 1279.37 510.437 1280.63 510.619 1281.71C511.166 1288.72 511.714 1295.91 512.261 1302.92C512.991 1311 518.646 1312.8 525.213 1311C525.943 1310.82 526.855 1310.64 527.585 1310.28C528.497 1314.78 526.673 1317.65 523.207 1320.35C513.903 1327.54 503.322 1330.95 491.647 1330.77C484.532 1330.59 478.512 1327.36 474.863 1320.89C474.316 1319.99 473.951 1319.09 473.221 1317.83C472.127 1318.73 471.032 1319.45 470.302 1320.35C463.37 1328.44 454.431 1333.11 444.033 1335.08C435.276 1336.88 426.884 1335.98 419.04 1332.03C409.553 1327.18 405.54 1318.73 404.263 1308.67C403.898 1305.25 403.351 1301.84 403.533 1298.42C403.716 1293.57 405.54 1289.08 408.641 1285.48C412.107 1281.35 416.121 1277.76 421.047 1275.6C429.438 1271.83 437.83 1268.41 446.222 1265C453.519 1262.12 460.816 1259.43 468.113 1256.55C469.573 1256.01 470.485 1255.11 470.302 1253.32C469.937 1249.18 469.937 1244.87 469.755 1240.56C469.573 1235.52 469.208 1230.67 469.025 1225.64C468.843 1223.12 469.39 1220.61 469.208 1218.09C468.478 1210.54 472.491 1204.25 473.951 1197.24C475.045 1192.03 476.14 1186.82 477.417 1181.61C478.329 1178.2 478.876 1174.96 481.613 1172.09C483.255 1170.47 483.255 1167.41 484.714 1165.62C490.005 1159.15 495.478 1153.04 501.133 1146.93C506.241 1141.35 510.984 1135.24 517.369 1131.11C524.119 1126.62 531.051 1122.48 537.619 1117.81C544.551 1112.96 551.301 1107.57 558.233 1102.54C563.341 1098.76 567.719 1094.27 571.003 1088.88C571.915 1087.44 572.463 1085.82 572.645 1084.21C573.922 1077.2 571.733 1070.55 568.996 1064.26C568.267 1062.64 567.355 1061.02 566.625 1059.23C564.071 1052.4 558.233 1051.32 553.307 1056.89C550.206 1060.3 548.2 1064.44 547.287 1069.11C546.74 1071.99 546.558 1075.04 546.01 1077.92C545.098 1082.05 543.091 1085.64 539.99 1088.7C534.7 1093.55 528.862 1097.32 521.747 1099.12C519.193 1099.84 516.457 1100.56 513.903 1101.1C512.261 1100.92 510.619 1100.74 509.342 1100.74ZM471.397 1265C464.465 1268.05 458.262 1270.75 452.059 1273.62C443.85 1277.22 440.202 1283.15 441.114 1291.77C441.843 1297.7 443.668 1303.46 447.499 1308.49C453.336 1316.03 464.829 1316.93 471.579 1309.92C472.309 1309.03 473.039 1307.77 473.039 1306.51C473.039 1302.02 472.674 1297.34 472.309 1292.85C471.944 1288.18 471.397 1283.69 471.214 1279.01C471.214 1274.7 471.397 1270.39 471.397 1265Z" fill="black"/>
<path d="M749.784 364.637C749.236 357.269 751.608 351.158 756.169 345.947C757.993 343.97 761.642 343.61 764.378 342.532C768.574 340.915 773.317 340.376 776.966 337.5C777.878 336.781 778.972 336.062 779.52 335.164C781.891 330.491 786.269 327.436 789.553 323.483C791.377 321.326 793.202 318.99 795.026 316.833C802.688 308.566 810.168 300.3 818.012 292.033C823.303 286.462 828.775 281.25 834.248 275.679C836.437 273.523 836.437 273.523 834.613 270.467C834.431 270.108 834.248 269.569 834.431 269.389C835.89 266.873 832.606 263.818 835.343 261.482C836.802 260.224 838.444 259.325 839.904 258.067C842.458 255.911 844.647 253.574 847.201 251.418C848.295 250.519 849.755 249.441 851.214 249.261C861.43 247.824 870.917 244.589 880.038 240.096C888.977 235.783 897.004 230.212 905.031 224.641C909.044 221.945 913.058 219.429 917.071 216.733C917.801 216.374 918.713 215.835 919.443 215.835C923.274 216.733 927.287 217.812 930.936 218.89C926.74 225.18 922.909 231.29 918.531 237.041C916.341 240.096 913.605 242.612 911.051 245.308C907.22 249.082 903.206 252.856 898.828 256.809C899.923 258.067 901.017 259.325 901.929 260.763C903.389 263.279 904.666 265.795 906.125 268.311C903.571 270.647 906.673 271.905 907.22 273.702C905.943 277.117 903.389 279.633 900.835 282.149C893.72 288.978 886.97 295.987 880.038 302.995C878.031 304.972 876.572 307.668 874.565 309.824C871.464 313.239 867.998 316.474 865.079 319.888C860.883 324.741 856.87 329.593 853.221 334.625C850.484 338.578 846.836 340.915 842.64 342.352C834.613 344.868 826.586 347.205 818.559 349.541C817.282 349.9 816.188 350.799 814.911 350.979C808.891 352.057 806.702 356.011 806.519 361.582C806.337 364.457 805.424 367.512 805.06 370.388C804.512 374.162 803.6 378.115 803.783 381.889C803.783 385.483 803.235 388.718 799.952 391.234C802.141 394.289 801.776 397.344 800.317 400.579C797.58 407.049 798.127 413.519 800.499 419.809C802.323 424.481 804.695 428.974 806.884 433.467C809.073 438.139 811.262 442.812 813.816 447.125C819.289 456.65 825.309 465.635 832.789 473.902C835.16 476.418 837.532 478.754 838.991 481.989C839.904 483.966 841.728 485.583 843.552 487.56C838.627 489.178 833.701 488.998 828.958 489.537C828.411 489.537 827.498 488.998 827.134 488.638C822.755 484.505 818.559 480.192 814.364 475.879C813.816 475.34 812.904 474.98 812.357 474.441C806.884 469.769 801.046 465.456 797.945 458.626C797.58 457.908 797.215 457.368 796.668 456.829C793.019 452.337 790.83 447.305 789.553 441.374C788.276 435.803 786.999 430.052 783.898 424.84C781.161 420.168 779.702 414.777 779.702 409.205C779.702 406.869 780.432 404.713 781.526 402.736C783.533 399.321 784.992 395.547 786.452 391.953C786.634 391.414 786.452 390.875 786.452 390.336C785.905 384.046 782.438 379.733 777.33 375.959C769.121 370.208 760.182 366.614 749.784 364.637Z" fill="black"/>
<path d="M676.447 322.225C676.63 322.943 676.812 323.123 676.63 323.123C675.17 327.975 673.711 332.828 672.069 337.68C670.245 343.431 668.056 349.182 666.231 355.112C664.59 360.144 665.137 365.356 666.779 370.208C667.691 373.083 669.88 374.88 673.529 374.88C679.731 374.88 685.204 373.263 688.488 367.872C689.947 365.356 690.859 362.121 691.589 359.245C692.684 354.393 694.873 350.26 697.974 346.486C700.71 343.071 702.717 339.118 705.636 335.703C714.21 325.28 722.967 315.036 731.723 304.793C736.649 299.042 741.939 293.471 747.412 288.079C750.149 285.204 753.615 283.047 756.534 280.352C758.905 278.195 760.912 275.32 763.284 273.163C767.662 269.209 772.04 265.256 776.966 262.021C780.979 259.146 784.628 256.27 787.729 252.496C791.013 248.363 794.661 244.589 797.58 240.276C799.405 237.76 800.864 234.705 798.857 231.11C797.763 229.134 796.121 228.235 793.932 228.235C790.648 228.235 788.094 229.673 785.722 231.649C778.973 237.4 771.858 242.971 765.29 248.902C756.899 256.45 747.23 261.661 737.926 267.772C733.913 270.288 730.082 272.983 726.251 275.859C723.149 278.015 719.866 279.453 716.217 281.25C716.582 278.554 714.393 276.218 717.676 274.421C716.582 273.702 715.852 273.343 714.757 272.624C715.852 270.827 716.764 269.03 718.041 267.412C720.23 264.537 722.602 262.021 724.609 259.145C725.886 257.348 726.798 255.012 726.798 252.856C726.798 248.542 729.352 245.487 731.906 242.971C739.75 235.603 747.777 228.055 758.358 224.102C769.851 219.788 781.344 216.913 793.749 218.171C804.513 219.249 814.364 222.844 823.12 229.313C827.681 232.728 829.87 238.479 825.492 246.026C824.762 247.284 824.215 248.542 823.668 249.8C822.391 254.293 819.107 257.528 815.641 260.583C812.357 263.459 808.891 266.154 805.79 269.03C801.229 273.343 797.033 278.015 792.472 282.508C788.824 286.102 784.993 289.157 781.527 292.752C777.331 297.065 772.587 301.019 769.669 306.41C768.939 307.848 767.297 308.926 766.202 310.184C763.831 313.059 761.459 315.935 758.905 318.81C756.534 321.506 753.98 324.022 751.608 326.717C748.872 329.773 746.318 333.187 743.764 336.242C741.027 339.477 738.473 342.712 735.554 345.587C730.629 350.26 726.615 355.471 724.791 362.121C723.696 365.715 721.325 367.872 718.406 369.848C712.021 373.982 704.906 375.779 697.609 377.396C684.292 380.272 670.975 381.889 657.292 381.17C649.265 380.811 641.421 379.193 633.941 376.138C632.117 375.42 630.293 374.341 628.651 373.263C625.732 371.106 624.82 366.614 625.915 364.098C626.644 362.48 627.192 360.863 627.556 359.245C629.016 353.315 634.306 350.619 638.502 347.205C640.326 345.587 642.516 344.509 644.705 343.251C650.542 339.657 656.563 336.242 662.4 332.648C663.313 332.109 664.042 331.39 664.772 330.851C665.502 330.312 666.049 329.413 666.779 329.233C670.792 327.975 673.164 324.741 676.447 322.225Z" fill="black"/>
<path d="M809.803 28.0352C810.168 33.6062 810.168 34.1454 805.607 35.7628C797.945 38.4585 790.101 40.9745 782.439 43.4904C766.203 48.8818 750.331 54.992 735.737 63.798C732.636 65.7748 728.805 66.4936 725.156 67.5719C718.954 69.1893 712.751 70.4473 706.548 72.0647C700.163 73.6821 693.596 75.659 687.211 77.4561C674.988 80.6909 662.765 84.2852 650.543 87.3403C630.293 92.3723 609.679 97.0448 589.429 102.077C570.092 106.929 551.119 113.399 533.058 121.665C527.221 124.361 521.018 125.979 514.998 128.135C512.444 129.034 509.89 130.292 507.518 131.729C505.876 132.628 504.417 134.066 503.87 136.222C503.505 137.66 502.228 138.918 501.133 139.816C498.944 141.614 496.573 142.871 494.383 144.669C493.106 145.747 491.282 146.825 490.735 148.263C488.181 153.475 483.62 155.991 478.877 158.686C473.587 161.741 467.931 164.078 462.823 167.492C458.262 170.547 452.972 173.243 449.506 177.915C448.776 178.994 447.317 179.713 446.04 180.611C435.094 188.339 425.973 198.043 417.763 208.467C413.75 213.499 409.554 218.53 406.818 224.461C406.27 225.719 405.541 227.157 405.541 228.415C405.176 235.064 402.439 240.815 398.608 246.206C396.966 248.722 395.872 251.598 394.047 253.934C392.406 256.45 390.399 258.786 388.392 260.943C386.385 263.099 384.196 265.076 382.007 266.693C377.629 270.108 375.257 275.14 371.426 278.914C363.764 286.462 356.285 294.01 348.805 301.558C342.238 308.207 335.853 315.036 329.103 321.865C319.981 331.21 310.677 340.196 300.279 348.283C295.536 352.057 292.617 356.55 291.157 362.48C290.063 367.153 286.414 370.567 283.678 374.521C283.131 375.42 282.036 375.959 281.854 376.857C280.029 383.147 274.921 381.889 270.178 381.889C269.996 375.959 268.719 370.208 270.908 364.817C271.273 364.098 271.638 363.379 272.002 362.66C272.185 362.301 272.55 361.582 272.367 361.402C269.996 358.527 272.002 356.011 273.097 353.674C274.739 349.721 276.928 345.947 279.117 342.352C281.854 337.68 284.772 332.828 287.874 328.515C289.88 325.819 292.617 323.483 294.988 320.967C296.995 318.99 299.002 317.193 300.826 315.216C305.569 309.465 311.225 304.433 317.245 299.94C319.069 298.503 320.346 296.526 321.988 294.908C324.907 292.213 328.008 289.517 330.927 286.821C335.488 282.688 339.136 277.656 342.238 272.265C343.515 270.288 345.156 268.311 346.981 266.873C351.724 263.099 356.832 259.864 361.575 256.27C362.852 255.372 363.582 253.934 364.676 252.856C367.778 249.8 370.879 246.745 373.98 243.69C378.906 239.018 382.919 233.626 386.385 227.876C388.757 223.922 391.493 219.968 394.96 216.554C400.25 211.162 406.088 206.31 411.926 201.458C417.398 196.965 423.236 193.011 428.891 188.698C429.621 188.159 430.533 187.8 430.898 187.081C433.999 179.892 441.297 177.197 447.134 173.243C455.708 167.312 464.83 162.101 473.222 155.811C480.336 150.599 486.904 144.669 493.654 138.918C500.221 133.347 507.336 128.674 515.18 125.26C525.396 120.767 535.248 115.735 545.646 112.141C559.693 107.288 574.287 103.335 588.699 99.2013C606.212 94.3491 623.908 90.036 641.421 85.3635C652.002 82.4881 662.765 79.4329 673.346 76.5575C685.022 73.3227 696.88 69.9082 708.555 66.4936C711.474 65.5951 714.393 64.5168 716.947 63.0791C729.899 55.3515 743.764 50.1398 758.358 45.8267C770.581 42.2324 782.986 38.4585 795.026 34.6845C800.135 32.3483 804.695 30.012 809.803 28.0352Z" fill="black"/>
<path d="M580.49 1007.83C571.551 1008.01 562.794 1006.39 554.403 1003.34C547.47 1000.82 542.18 996.326 537.254 991.115C534.335 987.88 534.7 980.871 537.437 977.996C541.085 974.222 544.916 970.627 549.295 967.393C552.031 965.416 554.585 963.619 555.315 959.665C556.044 955.532 555.862 954.274 552.396 952.117C548.2 949.242 544.551 945.827 541.633 941.334C538.166 935.943 534.7 930.731 531.234 925.52C528.68 921.386 527.586 916.893 528.133 912.221C528.68 907.009 532.693 904.853 536.889 903.595C539.626 902.876 542.727 902.516 545.281 904.313C545.828 904.673 546.376 904.853 546.923 904.853C554.22 905.392 560.605 908.447 566.99 911.502C573.922 914.916 580.855 918.151 587.422 922.105C594.902 926.598 601.287 932.169 606.76 939.178C610.408 943.85 610.226 948.343 607.854 953.195C606.76 955.532 607.307 957.329 608.402 959.665C610.956 965.236 616.064 968.291 620.077 972.424C624.638 976.917 627.192 984.825 624.82 989.497C622.266 994.709 618.435 999.022 612.78 1001.72C602.746 1006.39 591.801 1007.83 580.49 1007.83ZM590.706 982.848C590.159 981.051 589.611 977.816 588.152 975.12C585.598 969.729 577.389 968.291 574.287 972.784C569.909 979.613 568.085 986.802 572.098 994.529C573.558 997.584 576.112 999.202 579.395 998.663C581.402 998.303 583.409 997.584 584.868 996.506C588.882 993.451 590.159 988.958 590.706 982.848Z" fill="black"/>
<path d="M883.869 662.061C889.16 662.6 894.633 662.959 899.923 663.678C902.112 664.038 904.484 664.757 906.673 665.655C908.132 666.194 912.511 675.719 912.146 677.336C911.416 680.212 909.227 682.009 906.855 683.267C904.301 684.525 901.93 685.603 899.376 686.682C892.808 689.737 887.883 694.409 884.052 700.519C881.498 704.473 880.221 708.607 879.673 712.92C879.309 715.975 878.032 718.131 875.66 719.569C872.741 721.366 869.822 722.984 866.721 723.882C851.579 728.375 836.255 732.868 820.931 736.462C812.357 738.439 803.601 739.337 794.661 736.821C792.472 736.282 790.648 735.384 789.189 733.587C785.175 729.094 780.979 724.781 777.148 720.108C774.594 717.053 774.959 716.514 777.331 713.459C780.432 709.505 783.351 705.192 786.635 701.238C789.006 698.543 791.56 696.027 794.479 694.05C804.877 686.682 816.553 682.009 828.411 677.336C835.161 674.641 841.546 671.226 848.478 668.89C859.606 664.577 871.464 662.241 883.869 662.061ZM879.309 667.093C878.214 667.093 877.302 667.093 876.207 667.093C869.822 667.812 863.437 668.71 859.241 674.641C858.694 675.36 857.782 675.899 856.87 676.438C846.836 681.47 836.985 686.502 826.769 691.174C822.208 693.331 818.56 696.745 815.641 700.519C811.992 704.833 809.438 710.044 806.702 715.076C805.972 716.514 805.607 718.311 805.972 719.928C807.067 726.758 811.81 729.273 816.553 729.273C824.762 729.273 831.877 726.578 838.627 722.085C842.458 719.569 845.012 715.975 845.924 711.482C848.478 699.082 856.687 691.174 867.816 685.963C870.005 684.884 872.376 683.986 874.565 682.908C878.214 680.931 882.045 679.134 885.511 676.797C888.248 675.18 888.612 673.203 888.065 670.148C887.518 667.093 884.964 667.452 882.957 667.093C881.68 666.913 880.586 667.093 879.309 667.093Z" fill="black"/>
<path d="M500.221 1116.91C497.849 1120.15 495.66 1123.74 492.924 1126.8C487.816 1132.55 481.978 1137.76 477.6 1144.05C471.032 1153.22 463.553 1162.2 461.181 1173.7C459.904 1179.45 458.81 1185.2 457.35 1190.78C456.256 1195.09 455.161 1199.4 453.519 1203.53C450.6 1211.08 447.134 1218.45 444.033 1226C443.303 1227.62 443.121 1229.59 442.573 1231.39C441.479 1234.45 440.749 1237.68 438.925 1240.38C436.736 1243.97 433.087 1245.59 428.709 1246.31C419.587 1247.56 411.925 1245.41 405.54 1238.76C404.446 1237.5 403.716 1236.42 404.263 1234.98C404.993 1232.83 405.358 1230.49 406.635 1228.69C409.554 1224.2 412.29 1219.71 415.939 1215.93C423.418 1207.67 427.979 1198.32 429.621 1187.36C430.351 1182.15 431.08 1176.94 431.992 1171.73C433.269 1164.36 435.094 1157.17 439.472 1150.52C442.391 1145.85 445.127 1140.99 448.229 1136.32C451.695 1131.29 455.891 1127.16 461.546 1124.82C469.208 1121.77 476.87 1118.71 484.532 1115.84C486.904 1114.94 489.275 1114.4 491.647 1113.86C494.93 1113.14 496.39 1113.68 500.221 1116.91Z" fill="black"/>
<path d="M780.98 768.99C781.709 769.349 782.621 769.529 783.351 770.068C785.54 772.225 788.094 773.842 789.736 776.897C791.196 779.593 793.932 781.75 795.939 784.086C798.675 787.321 798.675 788.04 795.756 791.095C792.655 794.509 789.189 797.385 786.088 800.799C782.986 804.214 780.25 807.808 777.513 811.402C776.966 811.941 777.148 813.02 776.784 813.738C776.601 814.457 776.419 815.895 775.871 815.895C773.5 816.434 773.135 818.591 771.676 820.028C765.291 826.678 757.446 830.452 748.507 832.608C737.197 835.124 725.886 835.663 714.575 831.71C711.656 830.811 708.92 829.553 706.366 827.936C701.988 825.06 700.893 818.052 704.177 814.098C709.467 807.269 716.035 801.518 722.42 795.767C731.541 787.5 742.669 782.289 753.25 776.538C759.27 773.303 765.655 771.686 771.676 769.349C773.682 768.631 776.601 767.013 779.338 768.81C779.703 768.99 780.615 768.271 781.344 768.091C781.344 768.451 781.162 768.631 780.98 768.99ZM770.581 789.118C765.838 787.5 762.554 788.219 759.635 790.376C756.352 792.532 753.433 795.228 750.514 797.564C746.318 800.799 743.034 805.112 738.656 808.167C736.284 809.785 734.278 812.48 732.453 814.817C730.812 816.794 730.811 819.849 732.088 821.107C733.548 822.724 736.832 823.802 738.838 822.724C743.217 820.388 747.413 818.052 749.784 813.379C753.798 805.292 759.088 798.283 766.932 793.431C768.027 792.353 768.939 790.915 770.581 789.118Z" fill="black"/>
<path d="M205.598 730.352C203.957 732.868 202.132 735.384 200.673 738.08C199.031 740.955 197.572 743.83 196.477 746.885C193.376 755.871 187.72 762.88 180.241 768.631C175.315 772.584 171.302 777.257 168.93 783.008C167.471 786.422 164.917 788.758 161.633 790.735C159.262 792.173 156.89 793.611 154.518 794.869C144.85 800.08 137.917 808.167 131.35 816.614C129.343 819.31 127.701 822.365 125.512 825.06C124.782 826.139 123.141 826.858 121.864 827.037C119.674 827.397 117.303 827.037 114.566 827.037C115.296 825.06 115.661 823.263 116.391 821.646C117.85 818.411 119.31 815.176 121.134 812.301C123.141 808.707 126.059 805.651 128.796 802.596C132.262 798.643 136.64 795.408 140.106 791.454C142.843 788.399 145.579 784.984 147.404 781.39C149.958 776.538 153.424 772.225 157.255 768.451C164.734 760.903 172.214 753.355 178.964 745.088C182.43 740.775 187.173 737.54 191.369 733.766C191.734 733.407 192.464 733.227 192.828 732.688C196.477 728.555 200.855 728.555 205.598 730.352Z" fill="black"/>
<path d="M234.057 1118.35C227.672 1122.66 221.834 1126.8 215.997 1131.11C209.976 1135.42 205.051 1140.82 200.672 1146.93C197.571 1151.06 194.47 1155.19 191.186 1159.15C185.713 1165.62 182.794 1173.16 181.153 1181.25C179.146 1191.31 176.957 1201.2 173.855 1210.9C172.396 1215.4 171.484 1220.07 170.389 1225.1C167.835 1225.28 165.281 1225.28 162.362 1225.46C161.998 1223.12 161.45 1221.33 161.268 1219.35C160.903 1212.16 160.538 1205.15 161.815 1197.96C162.727 1192.39 161.998 1186.64 162.362 1180.89C162.727 1172.98 165.829 1166.33 171.301 1160.58C176.045 1155.55 180.24 1149.98 184.801 1144.95C189.362 1140.1 193.74 1135.06 199.578 1131.83C207.97 1127.16 216.361 1122.66 224.753 1118.17C227.854 1116.55 229.131 1116.55 234.057 1118.35Z" fill="black"/>
<path d="M272.914 1081.87C269.813 1082.23 266.894 1082.59 263.975 1082.95C262.516 1076.48 259.78 1070.91 256.678 1065.34C255.036 1062.64 254.854 1059.76 255.584 1056.71C256.131 1054.19 256.313 1051.68 256.678 1049.16C257.773 1042.15 258.685 1034.96 263.246 1028.85C265.252 1026.16 266.347 1023.1 267.989 1020.23C270.36 1015.74 273.462 1011.78 277.11 1008.19C279.847 1005.49 282.401 1002.62 285.32 999.381C287.691 999.381 290.61 999.381 294.076 999.381C293.711 1001.18 293.711 1002.98 292.982 1004.41C287.509 1017.53 283.131 1031.01 277.475 1044.13C274.739 1050.42 272.367 1057.25 272.367 1064.44C272.367 1066.77 272.914 1069.29 273.097 1071.63C273.097 1074.68 272.914 1078.1 272.914 1081.87Z" fill="black"/>
<path d="M288.056 656.67C292.616 653.794 297.177 650.739 301.738 647.864C304.474 646.246 306.663 644.09 307.576 641.214C308.305 639.238 311.042 639.417 311.042 636.542C311.042 634.745 313.596 633.127 314.873 631.33C316.15 629.713 317.062 627.556 318.704 626.298C322.9 622.704 326.183 618.032 331.291 615.516C337.494 612.46 342.602 608.147 347.528 603.475C351.906 599.341 353 599.521 356.649 603.834C351.906 609.944 344.974 613.359 338.771 617.672C332.386 622.165 328.008 628.275 324.724 635.104C321.623 641.394 317.974 646.965 310.859 649.841C307.211 651.278 303.927 653.255 300.461 655.232C296.812 657.568 292.616 657.748 288.056 656.67Z" fill="black"/>
<path d="M485.81 551.538C482.161 550.999 479.425 550.819 476.871 550.1C475.958 549.92 475.046 548.842 474.681 547.764C470.486 536.981 464.283 527.636 456.803 519.01C453.884 515.595 449.506 513.259 445.858 510.743C442.574 508.407 439.108 506.43 435.642 503.914C439.108 503.375 442.391 501.937 445.858 504.094C450.418 506.969 455.161 509.305 459.905 512.001C471.215 518.65 478.512 528.714 483.62 540.396C484.533 543.81 484.897 547.404 485.81 551.538Z" fill="black"/>
<path d="M678.089 462.76C676.63 460.424 677.177 458.626 679.001 456.29C679.913 455.032 680.278 455.931 680.826 455.931C683.38 455.751 688.305 456.29 689.582 457.189C691.954 458.806 694.143 460.424 696.332 462.221C695.42 463.479 694.873 464.377 694.325 465.455C691.589 464.557 688.852 466.893 685.934 465.815C683.197 465.096 680.643 464.197 678.089 462.76Z" fill="black"/>
<path d="M680.826 316.294C682.468 314.497 684.292 312.88 685.934 311.082C686.117 311.262 686.481 311.622 686.664 311.801C684.84 313.419 685.022 317.013 680.826 316.294Z" fill="black"/>
<rect y="1513" width="1513" height="1086" transform="rotate(-90 0 1513)" fill="url(#paint0_linear)"/>
<defs>
<linearGradient id="paint0_linear" x1="756.5" y1="1513" x2="756.5" y2="2599" gradientUnits="userSpaceOnUse">
<stop stop-color="#FFF9F7" stop-opacity="0"/>
<stop offset="1" stop-color="#FFF9F7"/>
</linearGradient>
</defs>
</svg>
