<svg width="1171" height="1786" viewBox="0 0 1171 1786" fill="none" xmlns="http://www.w3.org/2000/svg">
<path d="M698.872 1011.92C606.942 977.85 576.682 985.08 566.642 1034.43C559.092 1081.81 574.942 1168.27 628.642 1263.16C675.582 1358.29 769.452 1454.8 817.732 1530.89C869.032 1612.36 861.192 1667.51 804.952 1785.89H821.952C876.092 1671.49 885.512 1615.53 834.312 1535.65C786.372 1460.76 690.812 1366.86 642.252 1273.14C586.872 1179.88 569.812 1094.03 576.802 1047.03C586.352 997.74 616.182 990.78 709.482 1019.92C820.362 1034.92 875.042 962.86 878.202 910.23C883.202 852.45 849.832 804.85 827.202 725.91C800.802 653.35 779.972 549.68 762.572 439.25C749.512 323.21 736.182 215.59 821.882 0.03L804.882 0.03C718.962 214.94 733.262 317.31 748.242 433.19C767.512 542.88 790.152 648.58 816.462 723.37C839.332 804.46 871.372 854.79 865.752 912.28C861.882 964.85 807.682 1032.74 698.872 1011.92ZM684.512 999.86C594.402 959.5 563.402 967.44 552.742 1016.86C544.482 1064.74 558.852 1151.68 609.932 1248.59C654.542 1345.39 745.522 1445.53 794.042 1523.49C845.202 1607.39 839.672 1661.56 780.632 1785.83H797.632C854.722 1665.73 861.882 1610.9 810.582 1528.7C762.182 1452.04 669.112 1354.39 622.872 1258.7C569.992 1163.16 554.622 1076.56 562.392 1029.05C572.652 979.73 603.112 972.32 694.512 1008.37C802.422 1031.59 856.362 965.46 860.512 912.92C866.412 855.56 835.012 804.03 812.042 722.09C785.752 646.35 762.272 539.8 742.182 430.45C726.332 314.67 711.682 214.45 797.632 0.03L780.632 0.03C694.722 213.1 710.092 308.27 727.952 423.74C749.952 532.22 775.442 640.62 801.672 718.54C824.942 802.54 854.912 856.78 848.452 913.83C843.582 966.3 790.322 1028.35 684.512 999.86ZM714.132 1023.18C620.232 996.29 590.562 1003.18 581.252 1052.48C574.512 1099.42 592.162 1184.98 648.252 1277.48C697.502 1370.48 793.672 1463.22 841.392 1537.6C892.492 1616.8 882.392 1673.13 829.092 1785.85H846.092C897.322 1676.85 908.872 1619.62 858.142 1541.91C810.982 1468.61 713.572 1378.6 662.782 1287.24C605.062 1196.61 586.012 1111.98 592.142 1065.33C600.872 1016.08 630.202 1009.16 725.542 1030.49C839.222 1036.49 894.312 958.49 896.422 905.76C900.512 847.61 865.382 803.86 842.962 728.03C816.422 658.68 797.912 558.13 783.122 446.79C772.722 330.79 761.122 215.51 846.122 0.01L829.122 0.01C743.582 215.67 756.432 325.59 768.662 441.61C785.252 552.32 805.322 655.07 831.762 726.61C854.332 804.61 888.292 851.09 883.572 908.98C880.782 961.71 825.932 1035.53 714.182 1023.18H714.132ZM591.512 887.8C504.182 834.51 462.292 854.3 450.872 905C439.272 956.84 458.142 1039.58 488.152 1138.45C518.612 1236.45 572.362 1345.69 612.742 1442.87C650.902 1546.5 669.352 1619.01 586.742 1785.87H603.742C685.572 1622.44 667.672 1553.21 627.742 1451.01C585.822 1355.45 529.402 1246.01 497.842 1147.42C466.242 1047.52 448.212 963.67 459.932 912.21C471.602 861.72 513.022 843.62 598.932 898.1C686.262 951.39 728.152 931.6 739.572 880.9C751.172 829.06 732.302 746.32 702.292 647.45C671.832 549.45 618.072 440.21 577.702 343.02C539.512 239.39 521.112 166.88 603.712 0.03L586.712 0.03C504.882 163.46 522.782 232.69 562.712 334.89C604.632 430.45 661.052 539.89 692.612 638.48C724.212 738.38 742.242 822.22 730.522 873.69C718.892 924.17 677.462 942.28 591.512 887.8ZM730.632 1033.49C634.632 1014.68 605.462 1021.66 597.012 1070.92C591.162 1117.48 610.882 1201.71 669.262 1291.49C720.722 1382.03 818.512 1470.85 865.372 1543.68C915.872 1620.76 903.712 1678.45 853.372 1785.86H870.372C918.502 1681.95 932.042 1623.25 882.162 1547.52C836.102 1475.65 737.562 1389.59 684.672 1300.95C624.872 1213.28 603.582 1130.28 608.792 1083.95C616.512 1034.71 645.512 1027.4 742.912 1040.03C859.082 1036.2 914.192 952.4 915.262 899.58C918.402 841.05 881.732 801.01 859.462 728.41C832.822 662.29 816.272 565.03 804.012 452.96C796.082 337.31 786.512 214.21 870.362 0.03L853.362 0.03C768.642 215.26 779.682 332.93 789.362 448.81C803.362 560.38 821.222 659.94 847.782 728.34C870.162 803.19 905.782 845.83 902.032 904.1C900.252 956.86 845.102 1036.59 730.642 1033.49H730.632ZM646.362 960.15C560.042 906.21 525.882 918.54 514.202 968.48C504.382 1018.07 516.482 1104.16 559.592 1204.8C597.462 1304.1 677.032 1413.53 724.442 1497.73C773.142 1589.42 774.742 1642.37 707.952 1785.86H724.952C789.992 1647.03 790.052 1594.03 740.512 1504.2C692.602 1421.51 610.062 1313.95 570.712 1214.89C525.712 1114.82 513.432 1028.27 522.972 979.12C534.512 929.33 567.822 918.31 654.752 969.79C753.592 1012.79 803.872 963.48 811.032 911.33C819.202 855.43 794.282 792.65 769.492 702.46C743.092 617.81 709.492 504.38 681.342 399.26C656.632 285.8 640.302 205.38 724.912 0.03L707.912 0.03C623.992 202.23 640.212 278.75 667.012 391.31C697.012 495.25 733.332 609.84 759.902 696.38C785.352 788.23 808.772 853.45 800.182 908.96C792.452 961.03 743.252 1006.64 646.372 960.15H646.362ZM623.662 931.71C460.022 824.2 458.002 977.58 530.662 1177.71C566.302 1278.13 631.662 1386.65 677.902 1476.71C723.012 1573.71 738.112 1634.17 659.462 1785.91H676.462C746.312 1633.64 741.712 1580.19 694.952 1485.02C648.822 1397.91 575.122 1285.4 539.842 1186.15C500.062 1084.99 487.902 1000.31 498.102 949.9C509.832 899.7 545.772 884.47 631.452 941.83C724.972 993.83 772.062 954.51 780.902 902.73C790.202 847.97 769.532 778.45 742.622 683.82C715.512 594.03 673.652 477.78 640.282 376.22C609.622 265.67 594.082 195.55 676.432 0.03L659.432 0.03C578.072 191.6 593.012 258.71 625.672 368.03C660.742 468.25 705.672 585.03 733.212 676.41C761.062 772.36 780.382 844.01 770.782 898.34C761.512 949.95 715.572 986.03 623.672 931.71H623.662ZM658.422 973.87C571.172 923.57 538.212 934.08 526.742 983.87C517.332 1032.87 529.822 1119.6 575.572 1219.38C615.572 1318.27 699.362 1424.92 747.432 1506.95C797.282 1595.95 796.502 1649.02 732.192 1785.9H749.192C811.712 1653.53 814.192 1600.24 763.692 1513.03C715.322 1432.45 628.842 1327.9 587.252 1229.55C539.632 1130.61 526.662 1043.66 535.712 995.09C546.922 945.43 579.132 936.03 667.242 983.21C769.032 1020.42 820.722 965.74 826.942 913.43C834.422 857.03 807.312 797.87 783.292 710.24C757.032 628.43 727.172 516.96 701.662 410.24C679.952 295.76 663.792 209.28 749.152 0.03L732.152 0.03C647.282 206.63 663.612 288.81 687.402 402.61C714.832 508.22 747.212 621.1 773.512 704.92C798.062 794.37 823.662 856.06 815.712 912.12C808.872 964.32 758.152 1015.2 658.432 973.87H658.422ZM612.802 917.17C446.002 810.63 447.682 966.53 516.152 1164.17C549.862 1264.17 611.372 1373.33 655.892 1465.77C698.892 1565.08 715.382 1628.98 635.222 1785.87H652.222C731.342 1632.57 715.792 1571.13 671.292 1473.43C625.512 1382.66 561.362 1273.88 526.442 1173.93C454.862 974.16 455.912 819.93 620.442 927.36C711.692 982.56 757.072 947.81 766.642 896.24C776.382 842.1 757.642 769.54 729.372 673.06C701.612 581.06 655.282 464.06 619.492 364.48C585.922 255.75 571.292 189.84 652.192 0.03L635.192 0.03C551.462 173.03 570.512 252.3 605.152 358.4C642.392 458.54 691.222 566.87 720.232 662.83C747.522 759.62 768.232 840 756.922 892.59C746.052 943.77 703.242 967.16 612.812 917.17H612.802ZM634.802 946.07C549.032 889.36 513.522 903.87 501.802 954.07C491.672 1004.29 503.802 1089.37 544.282 1190.48C580.152 1289.8 655.282 1401.63 701.712 1488.05C748.962 1582.41 752.882 1635.69 683.712 1785.91H700.712C768.222 1640.41 765.922 1587.41 717.622 1494.91C670.472 1410.03 592.222 1299.8 554.972 1200.45C512.622 1099.58 500.512 1013.79 510.512 964.03C522.222 914.03 556.772 901.09 642.882 955.95C738.952 1003.84 787.672 959.7 795.712 907.72C804.502 852.38 781.712 786.13 755.992 693.6C729.312 606.28 691.762 491.26 660.932 387.85C633.202 275.72 617.082 200.77 700.672 0.03L683.672 0.03C600.922 197.18 616.672 268.68 646.442 379.73C679.052 481.87 719.532 597.73 746.502 686.84C773.052 780.84 794.362 849.41 785.222 904.34C776.662 956.18 729.072 996.89 634.822 946.03L634.802 946.07ZM748.362 1042.69C650.362 1032.8 621.502 1040.32 614.032 1089.59C609.122 1135.84 631.152 1218.31 691.522 1305.04C745.012 1392.78 843.722 1477.62 889.352 1549.04C938.892 1624.2 924.802 1683.36 877.622 1785.82H894.622C939.552 1686.61 954.872 1626.37 906.232 1552.41C861.612 1481.77 762.732 1399.63 707.972 1314.07C646.412 1229.64 622.702 1148.7 626.912 1102.64C633.652 1053.35 662.382 1045.18 761.672 1048.32C879.862 1034.03 934.512 944.63 934.612 891.68C936.792 832.79 898.932 796.24 876.792 726.84C850.112 663.84 835.212 569.99 825.352 457.39C819.702 342.3 812.442 211.55 894.602 0.03L877.602 0.03C794.202 213.56 803.122 339.03 810.322 454.47C821.872 566.71 837.862 662.93 864.512 728.14C886.742 799.79 923.832 838.77 920.992 897.41C920.252 950.27 865.212 1035.78 748.382 1042.69H748.362ZM671.102 987.14C582.592 941.36 550.692 950.41 539.512 1000.03C530.622 1048.44 543.872 1135.47 592.292 1234.03C634.582 1332.03 722.162 1435.62 770.612 1515.56C821.282 1601.99 818.122 1655.43 756.392 1785.9H773.392C833.252 1659.79 838.082 1605.9 787.022 1521.21C738.482 1442.65 648.462 1341.42 604.562 1244.21C554.292 1146.78 540.292 1059.8 548.752 1011.79C559.572 962.31 590.822 954.07 680.432 996.16C785.272 1026.78 838.202 966.47 843.432 914.03C850.152 857.12 820.852 801.77 797.432 716.88C771.212 638.03 744.712 528.83 721.922 420.73C703.172 305.44 687.512 212.35 773.392 0.03L756.392 0.03C670.852 210.29 686.902 298.7 707.692 413.48C732.382 520.6 761.162 631.41 787.392 712.35C811.222 799.18 839.022 857.19 831.782 913.76C825.912 966.11 773.832 1022.46 671.122 987.14H671.102ZM924.102 1053.07C833.162 1122.39 798.752 1152.07 799.882 1202.92C800.582 1250.78 842.692 1310.43 900.032 1372.92C956.682 1435.48 1027.25 1501.03 1056.38 1568.8C1088.29 1637.63 1075.28 1705.17 1047.26 1785.8H1064.26C1089.03 1706.8 1102.08 1637.86 1073.17 1568.92C1046.94 1500.79 981.292 1436.06 927.112 1375.28C872.432 1314.45 830.862 1257.14 829.542 1208.43C827.702 1156.91 860.782 1122.95 948.542 1045.62C1055.54 947.82 1084.12 846.49 1080.45 788.54C1076.73 726.66 1049.18 690.78 1030.28 638.23C1010.41 586.23 998.152 519.13 1000.44 410.5C1003.51 306.47 1016.37 146.62 1064.28 0.03L1047.28 0.03C994.952 154.25 982.512 318.33 979.672 424.1C977.792 534.57 991.032 602.2 1012.18 654.25C1032.29 706.83 1061.45 741.9 1065.08 802.81C1068.79 859.44 1037.22 961.03 924.162 1053.03L924.102 1053.07ZM998.282 1025.37C920.032 1115.48 890.362 1158.68 893.222 1212.14C895.462 1263.28 934.222 1317.42 981.932 1376.4C1029.39 1435.11 1083.73 1499.4 1104.06 1568.55C1126.74 1638.1 1114.43 1709.48 1095.74 1785.86H1112.74C1128.18 1710.53 1139.62 1638.03 1120.57 1567.93C1103.57 1498.03 1056.52 1433.29 1014.05 1374.72C971.522 1315.72 935.612 1262.35 933.132 1209.25C929.962 1154.25 957.082 1105.35 1027.8 1010.33C1108.8 903.33 1127.49 807.23 1124.46 744.33C1121.08 678.86 1100.35 636.1 1086.34 580.52C1071.59 525.52 1062.79 458.02 1065.34 357.52C1068.19 260.45 1079.85 121.52 1112.76 0.08L1095.76 0.08C1057.2 130.86 1044.67 278.67 1041.6 378.62C1038.98 482.52 1049.1 549.49 1065.91 602.86C1081.91 656.8 1105.43 696.34 1109.04 760.42C1112.43 821.35 1090.01 920.03 998.342 1025.37H998.282ZM959.512 1041.79C873.512 1122.38 841.102 1158.31 843.222 1210.2C844.802 1259.37 886.002 1315.8 939.332 1376.04C992.222 1436.17 1055.47 1500.65 1080.33 1568.97C1107.85 1637.97 1094.88 1707.56 1071.51 1785.86H1088.51C1108.61 1708.95 1121.2 1638.09 1097 1568.73C1075.24 1499.85 1018 1435.6 968.722 1376.59C919.162 1317.36 879.502 1262.68 877.442 1212.23C874.782 1159.31 905.372 1118.4 986.282 1030.89C1082 926.84 1105.92 827.3 1102.51 767.09C1098.85 703.57 1074.26 665.16 1057.51 611.73C1039.91 558.86 1029.25 491.95 1031.84 386.73C1034.93 285.74 1047.68 134.64 1088.51 0.03L1071.51 0.03C1025.63 143.15 1012.72 300.72 1009.6 403.96C1007.18 511.64 1018.97 578.58 1038.21 630.72C1056.51 683.42 1083.28 719.92 1087.01 782.27C1090.69 840.86 1063.42 941.83 959.512 1041.79ZM1041.07 1002.87C974.212 1099.39 948.392 1150.78 951.632 1206.69C954.182 1260.81 988.532 1314.27 1028.53 1373.46C1068.53 1432.24 1112.17 1497.35 1127.61 1567.59C1145.02 1637.99 1134.07 1710.9 1120.04 1785.86H1137.04C1147.86 1711.55 1157.36 1637.86 1143.88 1566.62C1132.03 1495.47 1096.97 1429.1 1064.23 1369.35C1028.17 1308.16 1002.04 1253.88 998.802 1197.24C995.672 1139.56 1015.43 1079.52 1073.52 982.91C1134.34 875.53 1148.76 788.03 1146.64 720.67C1144.38 652.04 1125.57 603.67 1116.92 544.31C1105.69 485.62 1099.05 416.81 1101.18 322.31C1103.46 230.43 1112.94 107.42 1137 0.03L1120 0.03C1089.65 117.37 1078.52 251.89 1075.8 347.53C1073.34 446.4 1081.5 514.21 1095.69 570.4C1105.98 627.22 1129.14 670.13 1131.51 737.49C1133.82 803.03 1115.34 893.11 1041.07 1002.87ZM1088.09 973.11C983.192 1160.81 1015.4 1236.95 1079.51 1366.49C1109.51 1427.43 1140.51 1494.49 1150.76 1566.1C1162.48 1637.69 1153.76 1711.72 1144.28 1785.83H1161.28C1181.31 1638.43 1168.38 1486.34 1118.51 1359.03C1072.66 1225.39 1048.42 1132.03 1123.83 947.41C1198.17 746.03 1159.35 627.27 1149.34 502.24C1135.2 383.81 1133.24 196.22 1161.24 0.03L1144.24 0.03C1123.07 103.03 1114.51 220.56 1112.42 310.59C1110.49 402.92 1116.42 472.27 1126.73 532.59C1134.41 593.14 1151.06 644.17 1153.17 713.36C1155.11 781.43 1142.51 867.68 1088.09 973.14V973.11ZM835.632 1063.63C732.892 1097.3 704.532 1112.13 701.782 1161.94C701.072 1207.94 733.032 1279.23 796.982 1351.72C855.222 1425.42 948.462 1495.89 985.852 1563.99C1027.52 1633.82 1008.28 1699.37 974.602 1785.83H991.512C1022.7 1701.51 1042.27 1634.83 1002.64 1565.51C967.292 1497.63 876.752 1429.13 818.582 1358.03C755.082 1288.11 721.642 1219.31 721.642 1173.18C723.502 1123.18 751.782 1106 854.212 1063.73C979.122 995.51 1018.31 897.73 1015.21 844.13C1012.51 785.71 980.512 749.25 957.792 693.8C933.912 638.71 917.792 567.27 917.252 453.11C918.422 343.4 927.122 174.7 991.512 0.03L974.512 0.03C907.092 179.48 900.042 347.27 899.682 457.79C901.282 572.5 918.162 645.53 942.502 702.18C965.732 759.18 997.972 797.06 1000.24 854.97C1003.06 908.03 962.172 1003.37 835.632 1063.66V1063.63ZM811.002 1061.33C708.592 1083.1 680.152 1095.2 676.132 1144.79C674.362 1190.64 703.922 1265.31 767.842 1341.52C825.592 1418.98 921.752 1492.64 961.722 1561.24C1005.98 1632.03 987.512 1696.03 950.362 1785.86H967.362C1002.1 1698.42 1021.14 1633.35 978.632 1563.25C940.402 1495.02 846.132 1423.6 787.982 1348.76C723.982 1275.15 692.752 1202.82 693.792 1156.93C696.932 1107.2 725.312 1093.26 828.052 1063.22C955.052 1006.37 996.592 912.16 994.052 859.35C992.002 801.67 959.762 763.09 936.362 705.41C911.812 648.03 894.512 574.21 892.462 459.31C892.462 348.46 898.722 181.31 967.322 0.03L950.322 0.03C874.322 199.94 875.622 346.34 876.902 459.26C881.822 572.21 893.972 657.93 920.212 714.42C941.932 776.78 980.972 806.89 980.912 866.68C982.912 920.27 931.322 1020.75 811.002 1061.36V1061.33ZM891.952 1060.03C798.202 1117.24 762.282 1141.6 762.282 1191.77C761.942 1238.77 803.872 1302.1 863.862 1367.54C922.942 1433.21 999.382 1500.54 1032.36 1568.05C1068.22 1637.05 1055.65 1702.42 1023.08 1785.85H1040.08C1069.48 1704.39 1082.41 1637.49 1049.24 1568.64C1018.9 1500.98 946.382 1434.93 888.872 1371.49C830.622 1308.16 788.502 1247.49 788.122 1199.9C787.322 1149.29 822.232 1121.31 914.212 1055.58C1029.45 966.35 1062.2 864.81 1058.51 808.7C1054.96 748.18 1025.25 713.3 1004.68 660.58C983.052 608.36 969.392 540.37 971.042 429.21C973.772 322.77 985.882 157.33 1040.04 0.03L1023.04 0.03C965.002 164.03 953.832 331.72 951.512 439.47C950.512 551.93 965.032 620.87 987.612 673.77C1009.11 727.14 1039.93 762.13 1043.26 821.84C1046.82 876.93 1011.51 977.73 891.952 1060.03ZM788.382 1056.87C687.022 1067.34 658.482 1077.36 653.252 1126.79C650.402 1172.67 677.432 1250.34 740.682 1330.23C797.402 1411.35 895.382 1488.53 937.582 1557.86C984.002 1629.86 966.732 1692.18 926.122 1785.86H943.122C981.342 1694.86 999.462 1631.44 954.502 1560.31C913.802 1491.5 816.952 1416.78 759.502 1338.19C695.732 1260.87 666.962 1185.3 669.062 1139.47C673.462 1089.95 701.932 1078.53 804.062 1060.23C924.312 1023.18 976.512 923.94 974.782 870.48C975.122 810.83 936.102 780.07 914.302 716.84C887.942 659.59 875.482 572.84 869.962 459.84C868.182 346.51 866.122 201.9 943.082 0.03L926.082 0.03C847.012 205.95 850.962 346.03 853.962 460.03C860.912 573.03 874.092 662.23 900.632 721.4C922.572 786.74 961.432 819.32 960.472 878.69C961.652 931.94 908.322 1028.03 788.382 1056.88V1056.87ZM767.572 1050.56C667.762 1050.45 639.082 1058.96 632.682 1108.29C628.792 1154.29 653.272 1234.59 715.302 1318C770.572 1402.57 869.362 1483.51 913.462 1553.8C961.632 1627.26 945.822 1687.97 901.882 1785.8H918.882C960.512 1690.9 977.362 1629.07 930.362 1556.65C887.512 1487.1 789.142 1408.77 732.812 1326.58C669.902 1245.58 643.672 1167.17 646.812 1121.27C652.412 1071.9 680.982 1062.38 781.922 1055.17C901.572 1029.74 955.302 935.12 954.432 881.97C955.682 822.71 917.012 789.3 895.012 723.05C868.412 663.05 854.852 572.7 847.252 459.78C843.692 345.48 838.962 207.47 918.842 0.03L901.842 0.03C820.292 210.48 826.842 343.46 831.842 458.33C840.992 571.03 855.442 663.8 882.102 725.9C904.202 794.36 942.382 829.9 940.492 888.9C940.742 941.96 886.292 1033.03 767.572 1050.57V1050.56ZM862.572 1063.37C760.452 1109.37 732.222 1127.65 730.752 1177.79C731.072 1224.04 765.142 1291.79 828.352 1360.61C886.352 1430.55 975.502 1498.26 1009.96 1566.11C1048.63 1635.28 1028.96 1702.39 998.882 1785.85H1015.88C1043.46 1704.24 1063.12 1636.09 1026.79 1567.19C994.562 1499.36 909.042 1433.19 851.662 1365.83C789.512 1299.43 754.212 1234.33 753.242 1187.75C753.832 1137.32 781.902 1116.12 882.832 1061.4C1003.96 982.23 1040.23 881.93 1036.74 827.25C1033.54 767.87 1002.38 732.71 980.542 678.96C957.602 625.66 942.692 556.19 943.382 443.23C945.512 334.97 956.152 166.7 1015.8 0.03L998.802 0.03C935.732 172.44 926.392 341.25 924.912 450.54C925.062 564.37 940.792 635.15 964.412 689.64C986.922 744.53 1018.73 780.54 1021.6 839.26C1024.88 893.16 986.512 991.81 862.512 1063.38L862.572 1063.37ZM602.132 902.51C516.722 847.64 475.512 865.03 463.762 915.41C452.002 966.69 469.762 1050.89 502.012 1151.04C534.012 1250.21 591.622 1359.63 634.182 1454.46C674.852 1556.01 692.462 1623.92 611.002 1785.86H628.002C708.572 1627.44 691.712 1562.4 649.392 1462.39C605.392 1369.21 545.142 1259.9 512.002 1160.44C444.592 963.44 441.722 806.86 609.632 912.78C699.302 963.65 741.882 941.14 752.872 890.09C764.212 837.68 743.952 756.73 716.022 659.44C686.882 562.88 636.902 454.28 598.902 354.82C563.392 249.27 544.422 171.61 627.952 0.03L610.952 0.03C528.052 168.32 546.692 242.32 584.052 346.55C623.722 444.44 676.312 553.55 706.482 650.97C735.832 749.46 755.062 831.73 743.482 883.76C732.232 934.58 690.122 955.16 602.132 902.51ZM408.512 730.72C288.852 756.15 235.132 850.72 236.002 903.91C234.752 963.17 273.432 996.58 295.422 1062.83C322.032 1122.83 335.582 1213.18 343.182 1326.11C346.772 1440.4 351.502 1578.42 271.622 1785.86H288.622C370.172 1575.41 363.622 1442.42 358.622 1327.56C349.472 1214.85 335.022 1122.09 308.362 1059.98C286.262 991.52 248.082 955.98 249.972 896.98C249.732 843.98 304.192 752.98 422.902 735.36C522.712 735.47 551.402 726.96 557.792 677.63C561.682 631.63 537.202 551.33 475.172 467.92C419.902 383.35 321.112 302.4 277.022 232.12C228.842 158.62 244.652 97.9 288.592 0.03L271.592 0.03C229.972 94.92 213.102 156.75 260.112 229.18C302.942 298.78 401.292 377.12 457.622 459.31C520.532 540.31 546.762 618.72 543.622 664.62C538.032 714.03 509.462 723.51 408.512 730.72ZM336.252 722.12C211.332 790.35 172.152 888.12 175.252 941.72C177.942 1000.17 209.922 1036.64 232.672 1092.09C256.552 1147.17 272.672 1218.61 273.212 1332.78C272.042 1442.49 263.352 1611.19 198.902 1785.86H215.902C283.322 1606.41 290.372 1438.61 290.742 1328.09C289.132 1213.39 272.252 1140.36 247.912 1083.7C224.682 1026.7 192.442 988.82 190.172 930.92C187.442 877.92 228.332 782.51 354.862 722.23C457.612 688.55 485.972 673.73 488.722 623.91C489.432 577.91 457.482 506.62 393.522 434.13C335.252 360.43 242.012 289.97 204.622 221.87C162.952 152.03 182.192 86.48 215.872 0.03L198.872 0.03C167.682 84.34 148.112 151.03 187.742 220.34C223.152 288.25 313.682 356.76 371.852 427.83C435.352 497.75 468.792 566.55 468.792 612.68C466.972 662.7 438.692 679.86 336.262 722.12H336.252ZM276.252 730.3C160.982 819.54 128.252 921.07 131.922 977.19C135.462 1037.7 165.182 1072.59 185.752 1125.31C207.382 1177.52 221.032 1245.51 219.392 1356.67C216.662 1463.11 204.552 1628.56 150.392 1785.86H167.392C225.472 1621.86 236.642 1454.16 238.972 1346.42C239.972 1233.95 225.452 1165.02 202.872 1112.11C181.372 1058.75 150.562 1023.75 147.222 964.04C143.652 908.96 178.922 808.16 298.532 725.84C392.282 668.64 428.192 644.29 428.202 594.11C428.542 547.11 386.612 483.78 326.612 418.34C267.542 352.67 191.102 285.34 158.122 217.82C122.252 148.82 134.822 83.46 167.392 0.03L150.392 0.03C120.992 81.49 108.062 148.39 141.232 217.23C171.572 284.89 244.092 350.95 301.602 414.39C359.852 477.71 401.962 538.39 402.352 585.97C403.182 636.59 368.282 664.57 276.292 730.3H276.252ZM362.422 722.67C235.422 779.52 193.882 873.73 196.422 926.54C198.422 984.22 230.722 1022.79 254.112 1080.48C278.632 1137.87 295.872 1211.68 297.972 1326.58C297.972 1437.43 291.712 1604.58 223.112 1785.86H240.112C316.112 1585.95 314.812 1439.54 313.542 1326.62C308.622 1213.68 296.462 1127.95 270.222 1071.47C248.512 1009.11 209.462 979.03 209.512 919.21C207.512 865.62 259.132 765.14 379.512 724.53C481.882 702.76 510.322 690.66 514.342 641.03C516.112 595.22 486.512 520.55 422.632 444.34C364.872 366.87 268.722 293.21 228.742 224.61C184.512 153.84 202.922 89.89 240.112 0.03L223.112 0.03C188.372 87.46 169.332 152.53 211.842 222.64C250.102 290.87 344.382 362.28 402.512 437.13C466.512 510.73 497.742 583.06 496.702 628.96C493.572 678.69 465.202 692.62 362.462 722.67H362.422ZM580.882 873.11C491.212 822.24 448.632 844.75 437.642 895.8C426.302 948.21 446.562 1029.16 474.502 1126.45C503.632 1223.03 553.612 1331.6 591.612 1431.03C627.082 1536.58 646.052 1614.24 562.512 1785.83H579.512C662.412 1617.54 643.772 1543.54 606.412 1439.31C566.742 1341.42 514.162 1232.31 483.982 1134.89C454.642 1036.4 435.402 954.13 446.982 902.1C458.302 851.28 500.412 830.7 588.402 883.35C673.812 938.21 715.032 920.79 726.772 870.45C738.532 819.17 720.772 734.97 688.522 634.81C656.522 535.65 598.912 426.23 556.352 331.39C515.612 229.88 498.002 161.97 579.512 0.03L562.512 0.03C481.942 158.44 498.802 223.48 541.122 323.5C585.082 416.68 645.372 526.03 678.512 625.44C745.912 822.44 748.792 979.03 580.882 873.11ZM386.512 725.66C266.192 762.66 214.022 861.94 215.732 915.41C215.392 975.06 254.422 1005.82 276.212 1069.04C302.572 1126.3 315.032 1213.1 320.552 1326.1C322.332 1439.37 324.392 1583.98 247.432 1785.86H264.432C343.512 1579.94 339.572 1439.86 336.562 1325.86C329.562 1212.86 316.432 1123.67 289.902 1064.5C267.952 999.16 229.092 966.58 230.052 907.2C228.822 853.94 282.152 757.87 402.092 729.03C503.452 718.57 531.992 708.54 537.232 659.12C540.072 613.24 513.042 535.56 449.792 455.68C393.072 374.53 295.092 297.34 252.892 228.03C206.512 156.03 223.742 93.7 264.352 0.03L247.352 0.03C209.132 91.03 191.012 154.45 235.972 225.57C276.672 294.38 373.522 369.1 430.972 447.69C494.822 525.03 523.592 600.59 521.512 646.42C517.092 695.94 488.622 707.36 386.512 725.66ZM307.672 724.49C186.552 803.66 150.282 903.95 153.772 958.63C156.982 1018.02 188.132 1053.18 209.972 1106.92C232.912 1160.22 247.822 1229.7 247.142 1342.65C245.042 1450.92 234.362 1619.19 174.712 1785.86H191.712C254.792 1613.44 264.132 1444.64 265.612 1335.35C265.462 1221.51 249.732 1150.74 226.112 1096.25C203.602 1041.36 171.792 1005.35 168.922 946.63C165.672 892.73 204.052 794.08 328.022 722.51C430.142 676.51 458.372 658.24 459.842 608.09C459.522 561.84 425.452 494.09 362.242 425.26C304.142 355.33 215.012 287.62 180.512 219.77C141.882 150.59 161.512 83.49 191.632 0.03L174.632 0.03C147.052 81.64 127.392 149.78 163.722 218.68C195.992 286.51 281.512 352.64 338.902 420.03C401.002 486.45 436.262 551.55 437.242 598.13C436.642 648.57 408.512 669.77 307.632 724.49H307.672ZM11.2722 883.62C-3.72778 1046.98 2.68215 1186.62 6.58215 1330.85C11.1522 1474.34 13.2122 1622.36 5.02222 1785.85H22.0222C43.1822 1596.78 43.2022 1425.6 31.0822 1296.85C22.2022 1163.62 -6.91779 1046.74 50.6422 851.02C115.812 670.29 86.7222 567.55 55.0222 431.1C19.2822 300.45 1.88222 146.8 22.0222 0.1L5.02222 0.1C-5.84778 150.32 2.91224 299.23 12.5422 442.36C21.6122 586.66 31.5822 725.25 11.2322 883.62H11.2722ZM66.7122 838.52C-7.66784 1039.82 31.1522 1158.62 41.1722 1283.65C55.3022 1402.08 57.2722 1589.65 29.2722 1785.86H46.2722C67.4822 1682.86 76.0822 1565.33 78.1322 1475.29C80.0622 1382.97 74.1323 1313.62 63.8223 1253.29C56.1423 1192.75 39.4822 1141.72 37.3822 1072.53C35.3822 1004.45 48.0322 918.19 102.452 812.73C207.362 625.03 175.162 548.89 111.042 419.35C81.0422 358.41 50.0422 291.29 39.7822 219.73C28.0722 148.15 36.7822 74.12 46.2722 0.01L29.2722 0.01C9.20222 147.44 22.1322 299.52 72.0322 426.88C117.832 560.54 142.082 653.95 66.6722 838.52H66.7122ZM116.982 803.03C56.1322 910.41 41.7122 997.96 43.8322 1065.27C46.0922 1133.9 64.9022 1182.27 73.5522 1241.62C84.7822 1300.32 91.4222 1369.13 89.2922 1463.62C87.0122 1555.5 77.5322 1678.51 53.4722 1785.91H70.4722C100.832 1668.56 111.962 1534.05 114.672 1438.4C117.132 1339.53 108.972 1271.72 94.7922 1215.53C84.5322 1158.71 61.3722 1115.81 59.0122 1048.44C56.6922 982.87 75.1821 892.82 149.452 783.07C216.312 686.54 242.132 635.15 238.892 579.25C236.332 525.12 201.992 471.66 161.992 412.47C121.992 353.69 78.3422 288.59 62.9122 218.35C45.4522 147.89 56.4123 75.03 70.4323 0.03L53.4323 0.03C42.6123 74.33 33.1122 148.03 46.5922 219.27C58.4422 290.41 93.5022 356.78 126.242 416.54C162.342 477.73 188.512 532.03 191.712 588.65C194.842 646.33 175.082 706.37 116.982 803.03ZM204.182 755.03C108.482 859.03 84.5522 958.63 88.0022 1018.84C91.6722 1082.36 116.252 1120.76 133.002 1174.2C150.592 1227.07 161.262 1293.97 158.672 1399.14C155.552 1500.14 142.802 1651.29 101.962 1785.9H118.962C164.842 1642.78 177.752 1485.2 180.872 1381.97C183.292 1274.28 171.502 1207.35 152.262 1155.21C133.962 1102.5 107.192 1066.01 103.462 1003.66C99.7722 945.03 127.052 844.03 230.962 744.1C316.962 663.51 349.372 627.57 347.252 575.68C345.672 526.52 304.472 470.09 251.132 409.85C198.252 349.72 134.992 285.24 110.132 216.91C82.5722 147.89 95.5122 78.32 118.912 0.03L101.912 0.03C81.8122 76.93 69.2323 147.79 93.4323 217.15C115.192 286.04 172.432 350.29 221.712 409.3C271.262 468.53 310.932 523.21 312.982 573.66C315.682 626.57 285.092 667.49 204.182 755.03ZM162.672 775.6C81.6722 882.6 62.9822 978.7 66.0122 1041.6C69.3922 1107.07 90.1122 1149.82 104.142 1205.4C118.882 1260.4 127.692 1327.9 125.142 1428.45C122.292 1525.52 110.622 1664.45 77.7122 1785.9H94.7122C133.272 1655.12 145.802 1507.3 148.872 1407.35C151.492 1303.45 141.372 1236.48 124.562 1183.12C108.562 1129.12 85.0523 1089.64 81.4323 1025.56C78.0823 964.56 100.502 865.88 192.172 760.56C270.422 670.46 300.102 627.26 297.232 573.8C295.002 522.65 256.232 468.52 208.522 409.53C161.062 350.82 106.722 286.53 86.3922 217.39C63.7122 147.84 76.0222 76.46 94.7122 0.08L77.7122 0.08C62.2922 75.41 50.8422 147.89 69.8922 218.01C86.8922 287.9 133.952 352.65 176.422 411.22C218.962 470.16 254.862 523.59 257.352 576.69C260.512 631.69 233.392 680.53 162.672 775.56V775.6ZM241.922 740.25C134.972 838.05 106.342 939.38 110.012 997.33C113.732 1059.21 141.282 1095.09 160.182 1147.63C180.052 1199.63 192.312 1266.74 190.022 1375.37C186.952 1479.46 174.102 1639.31 126.192 1785.9H143.192C195.562 1631.67 207.962 1467.6 210.842 1361.82C212.722 1251.35 199.482 1183.73 178.332 1131.67C158.222 1079.1 129.062 1044.03 125.432 983.12C121.722 926.48 153.292 824.85 266.352 732.85C357.292 663.54 391.712 633.85 390.572 583.01C389.882 535.15 347.762 475.49 290.422 413.01C233.732 350.39 163.162 284.83 134.032 217.03C102.122 148.21 115.132 80.66 143.152 0.03L126.152 0.03C101.372 79.03 88.3322 147.97 117.242 216.9C143.512 285.03 209.162 349.77 263.342 410.55C318.022 471.37 359.592 528.69 360.912 577.39C362.742 628.92 329.672 662.87 241.922 740.21V740.25ZM547.622 829.97C451.512 782.03 402.832 826.18 394.792 878.16C386.012 933.51 408.792 999.76 434.512 1092.29C461.192 1179.61 498.742 1294.62 529.572 1398.03C557.272 1510.16 573.392 1585.11 489.792 1785.86H506.792C589.532 1588.71 573.792 1517.21 544.022 1406.15C511.422 1304.01 470.932 1188.15 443.962 1099.05C417.412 1005.05 396.102 936.48 405.242 881.54C413.842 829.71 461.432 788.99 555.682 839.82C641.442 896.53 676.962 882.02 688.682 831.87C698.812 781.65 686.682 696.56 646.202 595.46C610.342 496.14 535.202 384.3 488.772 297.89C441.512 203.52 437.592 150.25 506.752 0.03L489.752 0.03C422.232 145.53 424.542 198.53 472.832 291.03C520.032 375.92 598.282 486.15 635.512 585.5C677.832 686.3 689.892 772.09 679.972 821.86C668.282 871.85 633.732 884.8 547.622 829.93V829.97ZM535.722 816.14C436.882 773.14 386.602 822.44 379.442 874.6C371.272 930.5 396.182 993.28 420.982 1083.46C447.382 1168.12 480.932 1281.55 509.132 1386.67C533.832 1500.12 550.132 1580.54 465.552 1785.9H482.512C566.432 1583.7 550.212 1507.17 523.422 1394.61C493.422 1290.67 457.092 1176.09 430.522 1089.54C405.072 997.7 381.652 932.48 390.242 876.97C398.002 824.97 447.242 779.28 544.092 825.78C630.402 879.72 664.572 867.39 676.252 817.45C686.072 767.86 673.972 681.77 630.862 581.13C592.992 481.83 513.422 372.39 466.012 288.2C417.322 196.47 415.722 143.51 482.512 0.03L465.512 0.03C400.512 138.88 400.422 191.84 449.962 281.69C497.872 364.38 580.402 471.94 619.762 571.03C664.712 671.03 677.042 757.62 667.512 806.77C655.962 856.56 622.652 867.58 535.722 816.1V816.14ZM523.232 802.72C421.432 765.51 369.752 820.19 363.532 872.5C356.052 928.92 383.162 988.05 407.182 1075.68C433.442 1157.5 463.302 1268.97 488.812 1375.68C510.522 1490.2 526.682 1576.68 441.322 1785.93H458.322C543.192 1579.33 526.862 1497.14 503.062 1383.34C475.682 1277.74 443.302 1164.85 416.972 1081.03C392.422 991.59 366.822 929.89 374.772 873.83C381.642 821.64 432.362 770.76 532.082 812.09C619.332 862.39 652.292 851.88 663.762 802.09C673.172 753.09 660.682 666.36 614.932 566.57C574.932 467.69 491.142 361.03 443.072 279C393.222 190 393.992 136.94 458.312 0.06L441.312 0.06C378.792 132.43 376.312 185.71 426.812 272.93C475.182 353.48 561.662 458.03 603.252 556.37C650.872 655.32 663.852 742.27 654.792 790.84C643.512 840.46 611.352 849.91 523.232 802.68V802.72ZM570.082 858.56C478.832 803.37 433.442 838.12 423.882 889.68C414.142 943.83 432.882 1016.38 461.152 1112.87C488.912 1204.87 535.242 1321.87 571.032 1421.44C604.512 1530.14 619.182 1596.03 538.272 1785.86H555.272C639.052 1612.86 619.992 1533.58 585.352 1427.49C548.082 1327.35 499.252 1219.03 470.242 1123.03C442.952 1026.25 422.242 945.87 433.552 893.28C444.422 842.1 487.232 818.71 577.662 868.7C744.452 975.24 742.782 819.34 674.312 621.7C640.602 521.7 579.102 412.54 534.572 320.1C491.572 220.79 475.082 156.89 555.232 0L538.232 0C459.112 153.29 474.662 214.73 519.162 312.43C564.962 403.23 629.112 512.03 664.032 611.95C735.612 811.73 734.512 965.94 570.082 858.52V858.56ZM559.032 844.14C465.522 792.14 418.442 831.47 409.592 883.25C400.282 938.01 420.962 1007.53 447.872 1102.16C475.002 1191.95 516.822 1308.16 550.192 1409.71C580.842 1520.26 596.392 1590.37 514.032 1785.9H531.032C612.392 1594.32 597.452 1527.22 564.792 1417.9C529.722 1317.69 484.792 1200.9 457.252 1109.53C429.402 1013.53 410.082 941.92 419.682 887.6C429.032 835.97 474.932 799.89 566.832 854.2C730.472 961.72 732.482 808.34 659.832 608.2C624.192 507.78 558.832 399.26 512.592 309.2C467.482 212.2 452.382 151.75 531.022 0.01L514.022 0.01C444.182 152.29 448.772 205.74 495.512 300.92C541.672 388.03 615.372 500.54 650.652 599.79C690.432 700.95 702.592 785.63 692.392 836.03C680.662 886.24 644.712 901.47 559.032 844.1V844.14ZM496.032 777.55C388.132 754.34 334.192 820.47 330.032 873.01C324.142 930.37 355.542 981.86 378.512 1063.84C404.802 1139.57 428.282 1246.12 448.362 1355.47C464.212 1471.26 478.872 1571.47 392.912 1785.9H409.912C495.822 1572.83 480.462 1477.65 462.602 1362.19C440.602 1253.7 415.112 1145.3 388.882 1067.39C365.512 983.31 335.512 929.1 341.982 872.03C346.882 819.56 400.152 757.51 505.912 786.03C596.022 826.4 627.022 818.46 637.682 769.03C645.942 721.16 631.572 634.21 580.492 537.3C535.882 440.5 444.902 340.36 396.382 262.41C345.222 178.47 350.752 124.3 409.792 0.03L392.792 0.03C335.702 120.12 328.542 174.95 379.792 257.16C428.192 333.81 521.262 431.47 567.502 527.16C620.382 622.69 635.752 709.3 627.972 756.81C617.822 806.16 587.362 813.57 495.992 777.51L496.032 777.55ZM510.032 789.82C405.182 759.2 352.262 819.51 347.032 871.95C340.322 928.86 369.612 984.21 393.032 1069.1C419.262 1147.93 445.762 1257.1 468.552 1365.19C487.302 1480.49 502.912 1573.57 417.082 1785.9H434.032C519.582 1575.62 503.542 1487.22 482.732 1372.45C458.052 1265.32 429.272 1154.51 403.042 1073.58C379.212 986.75 351.412 928.74 358.652 872.16C364.562 819.82 416.652 763.47 519.352 798.79C607.882 844.56 639.782 835.52 650.912 785.93C659.802 737.52 646.552 650.48 598.132 551.93C555.842 453.88 468.252 350.33 419.812 270.4C369.132 183.94 372.302 130.49 434.032 0.03L417.032 0.03C357.172 126.13 352.352 180.03 403.402 264.72C451.942 343.28 541.962 444.51 585.862 541.72C636.132 639.15 650.132 726.12 641.672 774.14C630.892 823.63 599.642 831.86 510.032 789.78V789.82ZM447.512 745.83C331.352 749.66 276.232 833.46 275.162 886.28C272.022 944.8 308.692 984.84 330.962 1057.45C357.602 1123.6 374.152 1220.86 386.412 1332.93C394.332 1448.57 403.922 1571.68 320.062 1785.86H337.062C421.782 1570.62 410.742 1452.96 401.062 1337.07C387.062 1225.51 369.202 1125.94 342.642 1057.55C320.272 982.69 284.642 940.06 288.392 881.78C290.222 829.03 345.372 749.3 459.832 752.39C555.832 771.22 585.002 764.23 593.452 714.97C599.312 668.41 579.592 584.18 521.212 494.4C469.762 403.82 371.952 315.03 325.102 242.21C274.602 165.12 286.762 107.44 337.102 0.03L320.102 0.03C271.972 103.94 258.432 162.64 308.312 238.37C354.372 310.24 452.912 396.3 505.802 484.93C565.602 572.61 586.882 655.61 581.692 701.93C573.912 751.17 544.942 758.49 447.512 745.83ZM464.852 755.38C351.172 749.38 296.082 827.38 293.972 880.11C289.942 938.28 325.092 982.03 347.512 1057.84C374.052 1127.18 392.512 1227.73 407.352 1339.08C417.752 1455.08 429.352 1570.36 344.352 1785.86H361.352C446.892 1570.19 434.052 1460.27 421.812 1344.26C405.222 1233.54 385.152 1130.8 358.712 1059.2C336.142 981.2 302.182 934.73 306.902 876.84C309.692 824.18 364.512 750.36 476.292 762.71C570.192 789.6 599.862 782.71 609.172 733.41C615.912 686.47 598.262 600.91 542.172 508.41C492.932 415.36 396.762 322.66 349.032 248.28C297.922 169.08 307.992 112.74 361.312 0.03L344.312 0.03C293.082 109.03 281.532 166.26 332.262 243.97C379.422 317.27 476.832 407.27 527.632 498.64C585.342 589.26 604.392 673.9 598.262 720.55C589.572 769.79 560.242 776.72 464.902 755.38H464.852ZM480.992 766.03C370.112 751.03 315.432 823.03 312.272 875.69C307.272 933.46 340.642 981.07 363.272 1060.01C389.672 1132.57 410.492 1236.23 427.902 1346.67C440.962 1462.67 454.282 1570.3 368.572 1785.86H385.512C471.432 1570.95 457.132 1468.57 442.152 1352.7C422.892 1243.01 400.272 1137.31 373.962 1062.52C351.092 981.43 319.062 931.1 324.672 873.61C328.542 821.04 382.742 753.15 491.552 773.97C583.512 808.03 613.792 800.81 623.832 751.46C631.382 704.08 615.532 617.62 561.832 522.73C514.832 427.6 421.012 331.09 372.732 255C321.512 173.52 329.312 118.37 385.512 0.03L368.512 0.03C314.302 114.4 304.882 170.35 356.082 250.24C404.102 325.13 499.662 419.03 548.222 512.75C603.612 606.03 620.662 691.84 613.672 738.89C604.122 788.18 574.302 795.14 480.992 766.03ZM428.822 737.53C310.612 751.85 255.932 841.26 255.822 894.21C253.632 953.09 291.502 989.64 313.642 1059.04C340.322 1122.04 355.222 1215.9 365.082 1328.5C370.722 1443.59 378.002 1574.34 295.832 1785.86H312.832C396.242 1572.33 387.322 1446.86 380.122 1331.41C368.612 1219.17 352.612 1122.95 325.962 1057.75C303.732 986.09 266.632 947.11 269.512 888.48C270.262 835.62 325.302 750.1 442.132 743.2C540.132 753.08 568.992 745.57 576.462 696.3C581.372 650.05 559.342 567.58 498.962 480.84C445.482 393.1 346.772 308.26 301.132 236.84C251.512 161.64 265.652 102.49 312.832 0.03L295.832 0.03C250.902 99.24 235.582 159.48 284.222 233.44C328.882 304.03 427.762 386.22 482.512 471.77C544.072 556.21 567.782 637.15 563.572 683.21C556.842 732.5 528.112 740.67 428.822 737.53Z" fill="#FFF9F7"/>
</svg>
