<svg width="1272" height="1773" viewBox="0 0 1272 1773" fill="none" xmlns="http://www.w3.org/2000/svg">
<path d="M1271.39 1417.46C1262.69 1415.98 1254 1414.44 1245.31 1413.04C1237.3 1411.75 1229.29 1410.54 1221.28 1409.41C1208.72 1407.63 1196.16 1405.96 1183.6 1404.19C1177.53 1403.33 1171.49 1402.36 1165.47 1400.34C1166.96 1400.12 1168.44 1399.91 1169.93 1399.69C1169.93 1399.4 1169.93 1399.1 1169.93 1398.8C1153.57 1396.06 1137.14 1393.83 1120.87 1390.46C1094.19 1384.92 1067.58 1378.94 1043.87 1360.83C1036.03 1354.82 1027.4 1350.46 1019.6 1344.35C1017.08 1342.39 1015.12 1337.49 1014.63 1333.62C1013.9 1327.67 1012.06 1323.25 1008.52 1319.51C1004.57 1315.37 1003.35 1310.85 1004.48 1303.69C1005.57 1296.71 1003.63 1288.96 1002.75 1281.59C1001.87 1274.24 1000.66 1266.97 999.589 1259.65C1000.1 1259.92 1000.64 1260.19 1001.15 1260.46C1003.09 1257.88 1007.02 1254.7 1006.66 1252.84C1005.01 1244.5 1010.18 1239.65 1012.02 1233.28C1016.19 1218.71 1016.25 1216.4 1007.06 1206.58C999.973 1198.98 992.54 1191.91 985.321 1184.5C984.701 1183.89 984.616 1182.49 984.061 1181.71C981.583 1178.18 980.024 1173.66 974.577 1176.35C970.22 1178.5 965.35 1176 962.189 1171.26C957.66 1164.48 953.517 1157.4 953.068 1147.85C952.833 1142.95 951.103 1138.78 946.981 1136.38C936.472 1130.32 925.92 1124.29 915.817 1117.3C909.623 1113.02 902.382 1108.47 901.336 1098.4C900.609 1091.38 901.485 1083.81 902.681 1076.79C905.052 1063.01 905.479 1050.09 898.367 1037.9C895.355 1032.73 894.415 1026.27 897.982 1020.48C904.475 1009.93 902.532 999.542 898.26 988.803C895.504 981.886 893.39 974.591 890.933 967.486C890.015 964.875 889.332 961.914 887.858 959.869C881.023 950.287 878.203 938.148 873.931 926.898C868.335 912.121 862.419 897.775 852.038 886.551C844.84 878.773 839.585 868.06 833.861 858.29C828.649 849.354 824.335 839.584 818.931 830.837C813.527 822.089 810.28 812.319 807.14 802.172C805.389 796.466 802.1 791.406 799.024 786.507C795.884 781.501 792.296 776.871 788.686 772.376C783.901 766.401 780.462 760.184 781.061 750.844C781.274 747.291 778.732 743.119 776.874 739.728C772.709 732.138 772.73 721.318 765.361 716.177C764.016 715.235 763.055 713.27 761.645 712.597C745.86 704.98 733.45 691.792 721.276 677.284C714.376 669.075 711.108 659.143 707.114 649.427C703.504 640.652 697.31 635.727 692.034 629.294C686.609 622.673 682.081 614.787 677.702 606.954C676.784 605.313 678.065 601.464 678.663 598.745C679.859 593.308 681.355 587.979 682.615 582.542C685.071 572.045 688.702 562.436 694.042 553.635C698.036 547.041 697.695 541.469 692.91 535.898C686.63 528.577 679.71 522.09 673.195 515.065C670.889 512.562 669.073 509.359 666.766 506.829C663.861 503.626 660.7 500.746 658.094 498.189C657.176 495.094 656.663 491.837 655.339 489.253C652.477 483.628 652.947 478.245 653.737 471.866C654.42 466.295 652.519 460.023 651.131 454.29C648.974 445.381 647.201 436.688 648.013 427.052C648.547 420.539 646.966 413.729 645.279 406.946C644.894 408.373 644.531 409.772 644.147 411.199C643.719 411.064 643.271 410.93 642.844 410.795C643.42 407.781 643.997 404.739 644.403 402.613C641.498 393.758 638.7 385.226 635.902 376.666C635.646 375.859 635.432 375.052 635.133 374.271C633.723 370.449 631.245 366.708 631.053 362.778C630.605 353.573 633.702 345.472 638.978 339.146C647.756 328.596 657.069 318.745 665.57 307.844C668.368 304.237 670.141 298.558 670.953 293.471C672.939 280.928 673.943 268.171 678.172 256.301C679.261 253.259 679.966 249.976 680.5 246.719C680.628 245.885 679.347 244.7 678.727 243.678C682.679 243.059 682.658 239.56 682.423 235.791C682.337 234.553 682.743 233.288 682.658 232.05C682.529 230.193 682.145 228.39 681.889 226.559C682.337 226.452 682.786 226.344 683.256 226.236C683.661 227.501 684.067 228.766 684.473 230.032C684.687 230.005 684.879 229.978 685.093 229.978C684.26 221.445 683.405 212.886 682.572 204.354C682.957 204.031 683.32 203.708 683.704 203.385C683.704 204.3 683.683 205.216 683.683 206.131C684.238 205.942 684.772 205.727 685.328 205.538C687.741 189.255 690.283 173.025 692.526 156.714C695.003 138.842 704.594 125.223 716.918 123.177C727.32 121.455 736.078 126.569 743.34 135.397C744.984 137.416 745.711 142.045 745.284 145.113C742.678 164.304 742.101 183.952 736.782 202.632C735.202 208.176 735.907 215.04 736.483 221.176C737.551 232.346 733.087 241.74 731.101 251.914C727.961 268.063 724.821 284.185 721.425 300.254C719.716 308.328 714.633 312.904 709.207 316.941C707.541 318.179 705.747 319.444 704.487 321.248C698.229 330.264 691.565 338.958 686.203 348.782C682.551 355.457 681.825 363.343 686.096 371.391C690.603 379.896 695.11 388.913 697.46 398.549C700.001 408.965 700.6 420.35 700.984 431.359C701.304 440.483 702.501 448.988 705.918 456.982C708.481 462.957 709.442 468.771 707.05 475.419C705.042 481.017 706.666 486.804 709.741 490.895C716.555 499.912 723.817 508.444 731.058 516.922C737.274 524.19 744.13 530.649 749.876 538.428C751.52 540.662 750.623 546.341 750.218 550.324C750.047 552.074 748.295 553.689 747.099 555.142C739.815 564.159 736.569 574.871 737.423 587.898C737.637 591.236 736.291 595.408 734.604 598.126C732.361 601.706 731.72 604.586 733.279 608.758C737.423 619.901 745.326 626.549 751.99 634.785C759.851 644.528 766.579 655.752 774.311 665.657C785.995 680.622 795.991 698.386 811.818 707.026C822.904 713.082 830.23 722.906 834.502 736.606C836.51 743.039 837.514 749.983 839.222 756.577C840.141 760.076 841.102 763.871 842.917 766.643C846.954 772.753 851.269 778.648 855.947 783.923C862.953 791.836 866.007 802.387 869.638 812.749C875.427 829.168 883.329 843.837 893.005 857.16C897 862.651 899.2 870.16 902.724 876.323C905.479 881.141 908.64 885.771 912.25 889.566C921.371 899.094 925.514 912.632 931.41 924.852C934.379 930.989 934.421 938.202 937.283 944.123C940.85 951.471 944.994 958.415 948.177 966.006C952.47 976.233 956.016 986.973 960.053 997.389C963.15 1005.33 961.313 1012.68 958.621 1019.86C956.272 1026.11 955.887 1031.98 959.006 1038.06C965.414 1050.63 963.47 1064.11 961.676 1077.7C960.736 1084.84 959.583 1092.48 960.651 1099.37C962.423 1110.73 970.54 1116.09 977.781 1121.47C985.342 1127.09 993.331 1131.8 1001.13 1136.92C1005.46 1139.77 1006.02 1144.54 1004.95 1149.81C1003.18 1158.5 998.606 1164.4 991.002 1169.22C995.338 1175.68 999.204 1181.44 1003.69 1188.14C1003.65 1180.84 1005.57 1176.65 1009.97 1174.17C1026.07 1165.21 1042.14 1156.14 1058.2 1147.01C1060.83 1145.5 1063.28 1143.49 1067.04 1140.82C1063.6 1138.61 1061.51 1137.21 1059.4 1135.92C1048.42 1129.25 1036.58 1126.85 1024.73 1123.97C1014.33 1121.44 1005.98 1113.8 1000.81 1101.87C999.418 1098.67 998.863 1093.99 999.525 1090.46C1001.15 1081.66 1003.71 1073.13 1005.87 1064.49C1007.81 1056.71 1006.79 1049.34 1003.2 1042.74C998.606 1034.32 997.154 1026.11 1001.94 1016.9C1006.53 1008.05 1002.77 999.677 1000.1 991.467C997.41 983.151 994.441 974.941 991.6 966.705C990.896 964.66 990.533 962.21 989.379 960.676C980.216 948.268 976.969 931.984 971.309 917.316C966.802 905.661 961.505 895.164 953.346 886.632C947.963 881.007 944.118 872.851 940.082 865.396C932.648 851.723 925.279 837.969 918.508 823.785C914.813 816.06 912.635 807.205 909.303 799.157C907.359 794.501 904.689 790.221 901.998 786.184C897.128 778.89 891.766 772.107 887.067 764.678C885.423 762.068 885.102 758.138 884.163 754.828C882.454 748.906 880.745 742.985 878.994 737.09C876.665 729.258 873.526 722.125 867.929 717.119C865.815 715.235 864.021 712.409 861.692 711.278C843.259 702.504 829.867 685.413 816.603 668.106C815.471 666.626 814.851 664.257 814.488 662.158C812.459 649.911 807.653 640.114 799.878 632.093C794.346 626.36 789.668 619.282 784.798 612.553C781.125 607.466 782.577 601.921 783.645 595.811C784.948 588.329 784.457 580.335 784.521 572.557C784.521 571.722 783.004 570.888 782.193 570.053C783.453 569.354 785.033 569.031 785.888 567.846C790.373 561.683 795.329 555.842 798.853 548.844C801.758 543.111 798.041 537.943 794.688 534.014C783.965 521.471 773.029 509.171 762.243 496.709C756.262 489.792 754.084 481.663 756.241 471.355C756.967 467.883 756.07 463.253 754.724 459.862C751.392 451.41 750.474 442.636 750.047 433.377C749.513 421.857 748.124 410.391 746.864 398.926C746.608 396.611 745.412 394.431 744.45 392.304C740.734 384.149 736.013 376.478 733.386 367.784C730.31 357.637 733.771 348.136 739.41 340.519C747.313 329.834 754.318 317.991 764.699 310.455C770.124 306.498 771.812 298.666 772.389 291.479C773.862 273.069 779.565 256.22 783.538 238.698C785.097 231.781 784.628 224.164 785.119 216.843C785.61 209.522 785.802 202.093 786.806 194.88C788.259 184.518 790.395 174.317 792.082 164.035C792.21 163.174 791.121 162.016 790.822 161.424C791.847 156.445 793.193 151.277 793.94 146.002C795.841 132.571 800.476 122.316 812.074 119.544C813.078 119.302 813.997 118.683 814.937 118.252C815.556 108.105 815.577 107.943 807.803 105.709C790.16 100.649 772.495 95.7238 754.81 90.9059C752.823 90.3676 750.687 90.8252 748.124 90.8252C748.124 102.21 748.124 113.03 748.124 123.258C741.46 115.937 735.565 107.755 728.431 101.941C710.233 87.0839 690.432 84.5808 670.312 94.9163C657.646 101.43 651.046 115.533 647.756 131.467C645.215 143.795 644.467 156.687 642.587 169.23C641.498 176.497 639.533 183.549 638.337 190.816C636.649 201.097 633.595 211.379 638.956 221.715C640.943 225.537 641.669 230.381 643.036 234.984C635.539 234.15 637.717 226.882 636.799 221.742C636.03 228.74 635.261 235.738 634.385 243.705C634.407 243.731 635.453 244.754 637.077 246.342C635.88 247.984 635.047 249.787 633.809 250.622C630.327 252.99 629.152 257.404 629.857 262.949C630.092 264.672 628.084 266.879 626.931 269.247C627.315 269.543 628.234 270.243 630.242 271.804C628.02 271.643 626.974 271.589 626.119 271.535C624.645 276.003 624.667 281.171 624.218 285.989C623.748 291.183 622.488 295.57 621.228 300.361C619.733 305.987 616.892 308.92 613.474 312.5C604.824 321.571 596.921 331.799 588.591 341.676C590.257 343.345 591.09 344.207 592.393 345.498C589.958 346.602 588.163 347.436 587.074 347.921C586.177 351.689 585.686 355.053 584.618 358.068C582.802 363.209 583.913 367.677 586.369 371.687C588.313 374.836 591.047 377.232 592.905 380.462C594.294 382.884 594.742 386.141 595.81 388.886C597.797 393.973 599.932 398.979 602.432 405.116C600.253 409.53 600.36 415.021 602.645 422.369C604.226 427.429 607.387 433.566 605.187 440.86C602.987 448.208 606.041 455.286 609.758 461.262C612.834 466.187 615.653 470.197 609.694 475.554C606.234 478.676 607.921 487.746 611.104 491.326C614.179 494.771 616.422 499.374 619.391 503.007C622.509 506.802 626.076 510.005 629.409 513.531C636.35 520.933 643.399 528.2 650.149 535.871C656.151 542.707 655.894 547.66 651.387 556.057C646.347 565.451 642.139 575.463 640.814 587.118C640.387 590.859 638.593 594.6 636.842 597.83C633.745 603.509 633.552 608.758 637.247 613.926C640.964 619.12 644.317 624.988 648.653 629.16C657.304 637.477 662.986 648.592 668.838 659.655C680.244 681.187 694.149 699.086 713.372 709.556C721.19 713.808 728.281 719.218 730.994 730.523C731.357 732.057 733.301 732.918 734.39 734.264C737.786 738.409 741.417 742.339 744.322 746.995C745.369 748.637 744.963 752.163 744.621 754.666C743.831 760.453 744.963 764.732 748.658 768.77C754.532 775.202 760.363 781.931 765.148 789.575C768.48 794.878 770.701 801.66 772.239 808.228C775.592 822.466 783.175 833.474 789.156 845.694C794.004 855.572 798.447 865.773 803.552 875.435C806.137 880.334 809.319 885.044 812.95 888.651C824.676 900.305 830.358 916.374 834.31 933.653C836.146 941.701 838.881 948.834 842.939 955.509C845.951 960.488 847.958 966.49 850.116 972.196C853.191 980.378 856.16 988.668 858.894 997.066C861.308 1004.47 861.436 1012.03 857.762 1018.87C853.832 1026.22 853.747 1033.16 857.784 1040.45C864.832 1053.18 859.749 1065.67 857.207 1078.3C855.84 1085.05 853.789 1092.53 854.921 1098.91C855.947 1104.78 860.176 1110.59 864.149 1114.55C869.296 1119.67 875.597 1123 881.45 1126.96C886.234 1130.19 891.382 1132.72 895.825 1136.57C898.302 1138.72 901.101 1142.73 901.357 1146.18C903.087 1170.21 915.027 1185.26 928.996 1198.98C935.276 1205.15 941.021 1211.99 944.439 1221.57C948.155 1231.93 952.577 1241.89 956.699 1252.04C956.934 1252.6 957.254 1253.25 957.233 1253.84C956.293 1270.18 965.862 1281.45 969.792 1295.45C970.305 1297.31 971.138 1299.22 971.117 1301.08C970.967 1309.26 973.893 1315.29 979.276 1319.22C985.534 1323.79 988.268 1331.84 992.263 1338.68C993.202 1340.26 994.057 1342.52 995.338 1343.14C1007.51 1349.01 1014.26 1363.76 1024.75 1371.81C1034.15 1379.02 1044.98 1384.16 1055.7 1387.55C1072.62 1392.91 1089.9 1396.6 1107.16 1399.91C1125.01 1403.33 1143.04 1405.56 1161 1408.06C1175.48 1410.08 1190.07 1411.16 1204.49 1413.72C1213.76 1415.36 1222.86 1418.7 1231.94 1421.79C1233.88 1422.46 1236.19 1424.86 1236.91 1427.17C1240.48 1438.4 1244 1449.7 1246.63 1461.33C1247.83 1466.63 1247.32 1472.74 1246.85 1478.37C1246.38 1483.99 1247.76 1487.92 1251.18 1491.26C1252.63 1492.69 1253.68 1494.76 1255.22 1496.97C1260.49 1492.55 1265.9 1488.03 1271.28 1483.51C1271.39 1461.44 1271.39 1439.45 1271.39 1417.46Z" fill="#FEEDE7"/>
<path d="M1271.39 778.217C1267.95 773.049 1264.38 767.989 1261.22 762.552C1260.77 761.799 1262.08 759.026 1262.93 757.492C1268.63 747.022 1267.61 743.711 1262.57 732.38C1256.29 718.223 1245.54 715.154 1235.06 710.982C1215.23 703.123 1195.2 696.125 1175.44 688.024C1168.16 685.036 1162.63 679.491 1159.85 668.806C1158.1 662.023 1156.84 656.613 1157.88 649.346C1158.78 643.102 1154.96 637.692 1150.62 633.951C1145.6 629.617 1142.95 623.857 1142.72 616.025C1142.55 609.888 1144.49 605.636 1148.59 602.917C1152.46 600.36 1156.39 597.776 1160.47 595.811C1167.88 592.259 1172.17 584.991 1175.98 576.863C1179.71 568.896 1183.77 561.387 1189.2 554.792C1195.31 547.337 1193.7 542.681 1186.87 535.871C1169.46 518.564 1148.74 510.14 1128.77 499.508C1121.53 495.659 1114.72 490.438 1107.95 485.351C1103.95 482.336 1104.08 479.268 1107.56 475.204C1108.48 474.127 1109.33 472.862 1110.42 472.216C1114.93 469.498 1115.31 464.922 1112.9 460.589C1105.81 447.938 1110.36 437.63 1115.7 426.433C1119.69 418.062 1122.17 408.507 1124.8 399.248C1125.25 397.634 1123.5 394.296 1122.11 392.708C1117.45 387.46 1111.88 383.611 1109.74 375.159C1109.08 372.548 1105.4 371.014 1102.97 369.238C1096.56 364.581 1096.65 360.033 1099.06 352.416C1101.07 346.037 1105.81 341.084 1109.16 335.351C1110.1 333.763 1110.94 331.583 1110.89 329.699C1110.68 319.229 1113.71 313.711 1121.51 309.432C1135.37 301.842 1147.1 290.457 1157.31 276.434C1164.33 266.771 1171.72 257.539 1178.67 247.769C1180.08 245.777 1180.05 242.278 1180.99 239.64C1181.44 238.429 1182.49 237.191 1183.49 236.733C1185.97 235.603 1186.93 234.338 1185.29 231.027C1184.86 230.193 1185.91 228.04 1186.48 226.613C1187.17 224.918 1188.66 223.437 1188.77 221.742C1189.41 212.563 1192.64 204.435 1195.16 196.064C1197.78 187.344 1200.86 178.865 1203.25 170.064C1203.98 167.399 1202.18 163.55 1203.06 161.074C1206.69 150.712 1205.94 139.946 1205.54 129.233C1204.66 105.763 1197.55 84.9845 1187.83 65.3363C1172.05 33.5223 1148.55 15.7851 1120.55 5.77257C1107.84 1.22387 1094.94 -1.3869 1081.99 0.766331C1068.96 2.91956 1056.11 7.19909 1043.29 11.1556C1036.84 13.1474 1030.62 16.2965 1024.43 19.4187C1023.11 20.0916 1021.59 22.7831 1021.57 24.5595C1021.38 49.1063 1021.44 73.6531 1021.44 98.6306C1024.07 98.6306 1025.84 98.3346 1027.55 98.6845C1031.14 99.4381 1032.31 96.8811 1033.4 93.1937C1037.1 80.8934 1040.09 68.0548 1045.13 56.6426C1057.13 29.485 1074.45 16.458 1099.04 19.4456C1109.55 20.7106 1118.67 27.1972 1126.21 36.806C1139.37 53.5474 1144.73 74.7567 1148.59 97.0426C1151.39 113.219 1151.41 129.422 1149.47 145.463C1147.12 164.789 1143.3 183.71 1135.35 200.99C1133.43 205.162 1133.02 210.437 1131.8 215.686C1132.59 215.524 1133.53 215.336 1134.47 215.147C1134.56 215.578 1134.77 216.332 1134.71 216.358C1129.92 219.158 1130.2 224.918 1129.37 230.193C1129.05 232.212 1127.7 234.042 1126.68 235.791C1115.21 255.063 1101.62 271.454 1085.69 284.912C1071.19 297.185 1043.65 300.631 1027.68 290.699C1020.18 286.042 1013.3 279.475 1009.63 269.866C1006.96 262.922 1006.23 254.821 1004.65 247.338C1003.92 247.338 1003.56 247.204 1003.37 247.365C1000.08 250.191 994.142 252.856 994.014 255.897C993.672 264.214 995.061 272.962 997.111 281.009C998.841 287.846 1002.47 293.902 1005.19 300.361C1008.26 307.682 1007.32 309.836 1001.47 313.981C992.583 320.306 983.399 326.362 975.431 334.275C958.686 350.882 957.447 374.029 966.076 395.911C975.239 419.139 984.723 442.017 991.408 466.645C993.865 475.688 992.263 484.274 992.135 493.156C992.028 500.235 992.284 507.502 993.523 514.392C995.766 527.016 1005.06 528.927 1013.9 534.364C1011.59 528.738 1009.88 524.943 1008.43 520.987C1005.95 514.204 1007.83 508.929 1012.21 504.568C1020.88 495.902 1031.29 494.421 1041.45 495.982C1063.24 499.32 1084.58 505.86 1104.57 517.515C1114.35 523.221 1123.79 530.38 1132.51 538.401C1139.49 544.834 1138.64 548.871 1133.6 556.004C1128.07 563.863 1122.02 571.399 1117.54 580.174C1112.56 589.917 1105.42 594.197 1097.46 598.019C1088.15 602.487 1078.96 607.466 1069.86 612.607C1061.51 617.317 1053.29 615.944 1044.98 612.903C1030.92 607.762 1017.64 601.248 1008.11 585.907C1004.03 579.339 1001.47 587.387 998.307 588.49C1000.42 603.455 1009.56 610.696 1017.66 618.77C1027.78 628.864 1038.89 637.557 1045.53 652.199C1046.3 653.895 1047.33 655.779 1047.33 657.582C1047.31 666.626 1051.09 671.874 1057.88 674.916C1062.02 665.872 1068.96 662.4 1077 660.624C1088.49 658.067 1100.02 660.758 1108.8 668.348C1134.84 690.85 1165.62 696.69 1194.17 710.229C1200.52 713.243 1206.67 716.958 1212.71 720.86C1216.3 723.175 1217.65 732.245 1215.26 739.728C1213.31 745.811 1210.79 751.813 1207.72 757.061C1205.62 760.641 1205.96 762.471 1207.42 766.24C1211.05 775.687 1216.79 782.173 1223.18 788.391C1230.59 795.604 1231.19 800.799 1227.81 811.78C1226.19 817.083 1224.97 822.681 1224.16 828.307C1222.9 836.866 1218.12 841.172 1212.54 844.429C1204.51 849.112 1196.18 848.062 1187.98 845.263C1167.86 838.4 1151.24 824.108 1137.42 804.971C1131.31 796.492 1127.28 785.699 1121.59 776.656C1114.16 764.813 1106.07 753.67 1098.08 741.989C1096.2 743.631 1094.49 745.138 1092.12 747.264C1094.13 752.324 1095.43 758.192 1098.29 762.337C1108.63 777.275 1118.41 792.617 1127.47 808.954C1138.68 829.195 1154.36 844.267 1170.38 858.586C1186.98 873.39 1200 892.284 1208.68 915.781C1212.41 925.902 1219.7 931.931 1226.79 937.96C1232.96 943.208 1239.35 948.107 1245.35 953.678C1250.46 958.415 1250.56 963.637 1248.11 970.823C1242.17 988.345 1233.73 1004.71 1231.1 1023.71C1230.51 1028.05 1233.37 1034.37 1236.12 1037.95C1245.67 1050.47 1257.89 1056.84 1271.41 1059.51C1271.39 965.736 1271.39 871.99 1271.39 778.217ZM1029.96 333.198C1029.32 334.356 1029.13 334.975 1028.77 335.324C1022.21 341.892 1020.93 351.339 1024.64 360.625C1027.23 367.085 1032.08 368.107 1036.54 370.449C1039.74 372.118 1043.27 373.437 1045.9 376.101C1050.92 381.134 1055.12 387.486 1060.19 392.385C1063.56 395.669 1063.73 398.737 1061.72 402.478C1054.53 415.963 1046.24 427.806 1032.55 430.659C1029.81 431.224 1026.97 431.735 1024.24 431.412C1007.56 429.528 996.513 415.936 986.09 401.402C982.63 396.584 981.07 377.931 983.911 373.625C988.055 367.327 992.647 361.459 997.368 355.807C1002.11 350.128 1008.24 345.821 1011.96 339.281C1017.04 330.399 1023.06 332.633 1029.96 333.198Z" fill="#FEEDE7"/>
<path d="M1271.39 1755.24C1259.6 1753.76 1247.81 1752.31 1236.02 1750.83C1236.06 1750.13 1236.1 1749.43 1236.14 1748.73C1240.42 1748.73 1244.71 1748.73 1248.98 1748.73C1249.07 1748.33 1249.13 1747.92 1249.22 1747.55C1247.4 1746.63 1245.46 1745.96 1243.79 1744.72C1240.5 1742.24 1237.21 1739.71 1234.31 1736.62C1233.41 1735.65 1233.05 1731.99 1233.75 1730.89C1236.29 1726.82 1234.93 1723.94 1232.79 1720.93C1217.11 1727.36 1206.28 1720.04 1205.47 1701.58C1196.44 1700.2 1187.27 1698.51 1178.07 1697.46C1160.34 1695.47 1142.61 1693.72 1124.86 1692.07C1112.73 1690.97 1100.53 1690.57 1088.4 1689.22C1068.15 1686.93 1048.01 1683.7 1028.34 1676.89C1002.94 1668.09 977.482 1659.56 952.235 1650.11C942.26 1646.37 933.097 1639.97 928.099 1627.26C927.565 1625.89 927.009 1624.41 926.924 1622.93C926.305 1613.64 926.241 1604.28 925.194 1595.07C923.976 1584.57 918.039 1578.28 911.075 1573.4C901.784 1566.92 892.877 1559.95 889.481 1546.14C888.541 1542.32 888.221 1538.25 887.366 1534.38C886.683 1531.28 885.999 1528.03 884.632 1525.39C881.813 1519.92 882.176 1516.64 887.281 1514.97C901.57 1510.32 915.753 1509.88 929.274 1518.93C932.563 1521.14 936.215 1522.86 938.992 1525.85C943.777 1530.99 948.882 1536.18 952.299 1542.67C958.878 1555.13 966.204 1566.08 976.414 1574.13C982.437 1578.87 985.171 1586.59 983.697 1595.93C983.591 1596.58 983.27 1597.41 983.462 1597.87C987.67 1607.21 987.03 1617.38 987.393 1627.61C987.67 1635.55 993.437 1640.34 998.606 1643.36C1006.62 1648.07 1015.1 1651.67 1023.58 1654.88C1039.96 1661.04 1056.4 1667.1 1073 1672.29C1088.74 1677.22 1104.61 1681.79 1120.63 1685C1133.62 1687.61 1146.93 1687.9 1160.06 1689.36C1175.12 1691.02 1190.18 1692.77 1205.22 1694.69C1218.16 1696.33 1231.06 1698.24 1243.98 1700.15C1246.23 1700.47 1248.45 1701.33 1250.35 1701.84C1250.35 1706.26 1250.35 1710.48 1250.35 1714.68C1250.97 1715.01 1251.59 1715.33 1252.21 1715.65C1256.14 1711.56 1260.09 1707.47 1265.24 1702.14C1254.56 1699.91 1245.48 1697.78 1236.36 1696.14C1222.82 1693.72 1209.23 1691.7 1195.67 1689.38C1185.07 1687.58 1174.29 1686.75 1164.01 1683.43C1154.72 1680.45 1146.11 1674.23 1136.99 1670.22C1127.92 1666.24 1118.65 1662.76 1109.29 1659.99C1105.17 1658.78 1100.47 1660.8 1096.33 1659.7C1083 1656.17 1069.58 1652.75 1056.64 1647.58C1048.76 1644.43 1041.11 1638.92 1036.56 1629.33C1035.28 1626.62 1035.39 1622.79 1034.96 1619.46C1034.87 1618.86 1035.43 1618.14 1035.34 1617.55C1034.08 1608.45 1033.49 1599.06 1031.22 1590.33C1029.19 1582.45 1023.21 1578.36 1017.49 1574.7C1012.45 1571.49 1006.64 1569.26 1002.62 1564.6C994.89 1555.69 988.29 1545.22 981.006 1535.67C978.101 1531.85 974.919 1528.13 971.373 1525.41C965.841 1521.16 961.099 1516.4 957.553 1509.27C953.153 1500.38 947.643 1492.42 943.05 1483.67C941.085 1479.93 939.654 1475.41 938.992 1470.99C937.924 1464.05 938.074 1456.78 936.899 1449.86C936.557 1447.82 933.289 1444.8 931.751 1445.13C921.776 1447.25 911.887 1450 902.062 1452.99C898.794 1453.98 897.683 1457.21 900.609 1460.39C902.873 1462.86 905.671 1464.56 908.213 1466.6C907.594 1467.41 906.953 1468.19 906.334 1469C906.205 1469.4 906.141 1470 905.906 1470.18C897.897 1477.16 898.003 1476.97 906.184 1483.96C908.747 1486.15 912.506 1490.13 912.229 1492.69C911.631 1498.15 906.782 1498.23 903.087 1498.31C897.405 1498.42 891.681 1498.5 886.063 1497.69C872.244 1495.73 860.112 1501.08 848.813 1510.48C844.391 1514.16 844.028 1519.98 848.449 1523.64C852.892 1527.33 854.58 1532.3 854.644 1538.33C854.793 1553.73 860.518 1564.5 870.813 1572.27C875.661 1575.93 880.745 1581.32 878.865 1589.1C876.858 1597.41 878.929 1603.98 880.873 1611.22C881.493 1613.54 881.236 1616.71 880.467 1619.03C878.246 1625.67 879.527 1630.9 883.116 1636.14C889.93 1646.16 899.071 1650.03 908.726 1653.34C926.411 1659.4 943.862 1666.51 961.569 1672.35C976.435 1677.24 991.451 1681.5 1006.55 1685.05C1014.99 1687.04 1023.7 1687.07 1032.31 1688.01C1048.25 1689.76 1064.2 1691.59 1080.14 1693.29C1085.58 1693.88 1091.05 1694.15 1096.5 1694.74C1112.26 1696.49 1128.02 1698.27 1143.79 1700.18C1145.99 1700.45 1148.14 1701.44 1149.38 1701.82C1150.43 1706.55 1150.92 1710.67 1152.22 1714.31C1154.94 1721.95 1158.31 1729.19 1160.92 1736.86C1163.2 1743.56 1167.6 1746.74 1172.56 1748.3C1179.18 1750.37 1185.99 1751.53 1192.78 1752.55C1205.9 1754.52 1219.04 1756.19 1232.17 1757.86C1237.28 1758.5 1242.38 1758.96 1247.51 1759.31C1255.47 1759.85 1263.42 1760.25 1271.39 1760.68C1271.39 1758.85 1271.39 1757.05 1271.39 1755.24Z" fill="#FEEDE7"/>
<path d="M1271.39 1767.36C1266.35 1766.47 1261.33 1765.18 1256.24 1764.75C1243.02 1763.62 1229.76 1763.05 1216.54 1761.92C1197.74 1760.3 1178.92 1758.74 1160.17 1756.43C1148.17 1754.95 1136.27 1752.2 1124.33 1749.97C1114.99 1748.22 1108.56 1741.92 1105.1 1730.67C1103.52 1725.56 1101.05 1720.87 1099.49 1715.73C1098.25 1711.62 1097.78 1707.12 1096.71 1701.47C1089.04 1700.23 1080.24 1698.48 1071.4 1697.46C1054.23 1695.44 1037.03 1693.72 1019.84 1692.07C1008.24 1690.97 996.577 1690.65 985 1689.22C966.888 1686.99 948.839 1684.4 931.217 1677.92C906.227 1668.71 880.98 1660.64 856.053 1651.16C849.154 1648.55 842.682 1643.36 836.659 1638.14C831.64 1633.78 829.845 1626.94 830.828 1618.7C831.426 1613.7 830.465 1608.31 829.717 1603.2C829.012 1598.36 827.581 1593.7 826.663 1588.91C825.061 1580.67 819.443 1577.28 814.638 1572.97C811.455 1570.15 807.909 1567.91 804.834 1564.9C800.946 1561.1 801.245 1558.84 805.154 1554.94C807.546 1552.57 809.704 1549.85 811.968 1547.27C808.999 1545.55 806.137 1542.86 803.039 1542.29C784.798 1539.03 767.903 1530.12 750.538 1523.15C747.462 1521.92 744.173 1521.48 739.986 1520.41C741.076 1522.51 741.439 1523.93 742.165 1524.47C748.701 1529.37 750.73 1538.39 754.66 1545.68C757.053 1550.12 755.878 1553.65 752.482 1555.56C747.654 1558.28 742.592 1560.38 737.551 1562.5C734.796 1563.66 731.912 1564.36 727.619 1565.76C733.044 1570.52 737.573 1570.17 742.08 1570.07C750.431 1569.88 758.783 1569.77 767.113 1569.77C773.841 1569.77 778.668 1574.4 781.659 1581.4C782.812 1584.09 782.983 1588.88 781.851 1591.46C779.202 1597.39 781.68 1602.07 782.513 1607.4C783.111 1611.27 783.09 1615.58 782.406 1619.43C781.402 1624.97 781.53 1629.63 784.158 1634.66C788.814 1643.6 795.499 1648.47 803.232 1651.43C822.284 1658.67 841.315 1666.02 860.518 1672.61C874.465 1677.41 888.584 1681.52 902.788 1685.02C910.67 1686.96 918.85 1687.07 926.903 1688.01C942.474 1689.79 958.045 1691.59 973.616 1693.29C979.404 1693.9 985.235 1694.09 991.024 1694.77C1005.89 1696.46 1020.78 1698.29 1035.62 1700.2C1037.29 1700.42 1038.87 1701.44 1039.1 1702.87C1039.96 1707.04 1040.45 1711.4 1041.75 1715.36C1043.91 1721.98 1047.11 1728.09 1048.84 1734.84C1050.83 1742.59 1055 1746.98 1060.68 1748.41C1070.44 1750.83 1080.37 1752.53 1090.26 1753.9C1105.13 1755.94 1120.06 1757.51 1134.96 1759.17C1140.77 1759.82 1146.63 1760.28 1152.46 1760.68C1166.06 1761.62 1179.67 1762.3 1193.28 1763.45C1206.65 1764.58 1220 1766.12 1233.35 1767.57C1234.29 1767.68 1235.18 1768.54 1237.06 1769.59C1233.9 1769.99 1231.85 1770.24 1229.78 1770.51C1243.68 1774.25 1257.53 1770.8 1271.37 1770.13C1271.39 1769.16 1271.39 1768.27 1271.39 1767.36Z" fill="#FEEDE7"/>
<path d="M1271.39 1406.69C1270.92 1406.37 1270.45 1405.8 1269.98 1405.8C1257.72 1405.75 1245.48 1405.78 1233.2 1404.94C1245.93 1405.96 1258.66 1407.01 1271.39 1408.04C1271.39 1407.61 1271.39 1407.15 1271.39 1406.69Z" fill="#FEEDE7"/>
<path d="M1124.03 1071.27C1133.32 1066.1 1143.1 1061.66 1149.68 1051.09C1151.56 1048.07 1152.97 1042.9 1152.29 1039.43C1150.7 1031.33 1152.48 1024.65 1155.15 1017.66C1158.05 1010.04 1157.33 1006.06 1151.56 1001.29C1143.7 994.805 1135.52 988.938 1127.44 982.909C1117.68 975.588 1107.77 968.59 1098.14 961.053C1090.64 955.186 1090.96 949.668 1098.27 943.451C1102.95 939.467 1107.45 935.026 1111.66 930.289C1115.65 925.794 1115.74 920.546 1113.8 913.924C1110.14 901.463 1103.91 892.688 1094.83 886.255C1089.64 882.568 1087.22 868.384 1090.17 860.524C1094.17 849.893 1094.47 839.127 1092.65 827.795C1091.86 822.897 1092.07 817.54 1092.69 812.534C1094.02 801.876 1091.67 793.613 1085.35 786.103C1080.03 779.778 1075.63 772.161 1071.29 764.679C1070.27 762.902 1070.44 758.973 1071.25 756.685C1074.24 748.233 1072.25 741.262 1069.24 733.403C1063.75 719.084 1053.54 714.428 1042.99 709.179C1030.39 702.881 1017.81 696.233 1005.87 688.185C994.61 680.568 987.903 668.349 986.515 651.392C986.045 645.659 982.542 639.63 979.253 635.108C974.917 629.133 970.474 623.561 968.637 615.514C967.185 609.162 967.334 603.698 972.311 599.634C978.121 594.87 980.876 588.41 981.517 579.151C982.094 570.78 984.742 562.517 990.616 556.623C998.006 549.221 996.554 542.465 989.249 534.283C975.216 518.564 958.79 507.798 942.664 496.278C939.93 494.314 937.388 491.757 935.081 489.011C929.144 481.879 929.421 480.856 932.561 471.193C933.629 467.937 933.544 462.634 932.113 459.781C926.495 448.558 928.759 437.63 931.301 426.272C933.245 417.524 934.654 408.561 935.722 399.598C936 397.284 934.313 394.404 933.18 392.008C930.788 386.921 928.161 381.969 925.641 376.963C925.171 376.048 925 374.675 924.359 374.163C919.147 369.938 916.67 363.747 918.464 356.507C920.066 349.993 923.142 344.018 925.769 337.935C927.349 334.302 929.165 330.776 931.13 327.438C934.248 322.109 936.833 315.596 940.977 312.043C952.575 302.138 960.542 288.573 967.398 273.796C973.208 261.253 978.527 248.361 984.037 235.63C984.529 234.5 984.977 233.235 985.041 231.996C985.468 222.038 985.746 212.052 986.152 202.067C986.216 200.479 986.729 198.891 987.113 197.356C991 181.53 989.911 165.892 985.703 150.55C983.93 144.064 981.538 137.739 978.762 131.844C968.103 109.128 951.08 97.904 931.493 92.0903C912.077 86.3035 893.302 89.3987 875.168 99.8688C859.213 109.101 847.251 123.824 837.939 142.18C828.605 160.536 824.29 181.584 818.63 201.878C817.562 205.727 817.391 210.222 817.562 214.34C818.074 225.806 816.344 236.707 814.08 247.769C810.791 263.837 809.403 280.067 814.166 296.405C816.494 304.426 814.208 309.62 807.672 313.55C796.01 320.548 786.228 330.587 777.427 342.269C769.781 352.416 768.713 361.567 773.091 374.54C778.346 390.151 783.771 405.708 788.363 421.642C790.991 430.793 792.016 440.671 793.981 450.146C794.6 453.133 796.416 455.771 796.822 458.758C797.548 464.088 798.68 469.901 797.698 474.908C795.284 487.289 798.125 497.221 804.768 505.833C812.735 516.196 821.15 526.047 829.053 536.49C834.158 543.246 833.517 547.66 829.779 553.877C825.892 560.337 822.41 567.174 819.057 574.091C818.245 575.786 818.48 578.424 818.502 580.631C818.544 587.064 818.929 593.308 816.024 599.391C814.999 601.545 815.511 606.578 816.9 608.543C823.158 617.505 830.121 625.688 836.55 634.462C843.663 644.179 850.904 653.841 857.354 664.257C868.226 681.806 879.269 699.301 895.951 708.076C907.848 714.32 913.103 725.894 916.798 739.836C917.695 743.227 918.72 746.592 919.254 750.091C921.112 762.525 928.353 770.6 934.612 779.078C941.254 788.068 946.701 797.623 951.913 808.039C958.855 821.928 968.381 833.932 977.544 845.855C989.463 861.386 1002.24 875.893 1014.32 891.208C1017.51 895.218 1020.2 900.278 1022.04 905.473C1028.53 923.829 1039.76 936.506 1052.6 947.353C1062.53 955.751 1062.73 959.358 1057.39 972.654C1054.44 979.975 1054.25 988.965 1052.24 996.958C1050.12 1005.38 1047.8 1013.83 1044.66 1021.72C1042.33 1027.59 1042.48 1032.89 1045.47 1037.3C1054.42 1050.49 1054.57 1067.5 1058.43 1082.82C1060.7 1091.81 1064.11 1096.81 1071.91 1097.78C1082.35 1099.1 1091.5 1094.61 1100.06 1087.69C1103.56 1084.86 1106.79 1081.53 1111.4 1077.25C1108.43 1076.63 1107.13 1076.17 1105.85 1076.12C1101.77 1075.87 1097.69 1075.87 1093.61 1075.61C1082.57 1074.93 1080.09 1071.97 1080.6 1058.03C1080.88 1050.65 1077.53 1045.81 1074.64 1040.59C1069.45 1031.19 1069.39 1027.78 1073.77 1018.06C1075.73 1013.7 1076.82 1008.67 1078.04 1003.82C1078.96 1000.22 1079.34 996.393 1080.13 992.733C1081.44 986.784 1084.36 983.124 1089.45 982.424C1105.25 980.217 1117.92 987.753 1128.15 1002.42C1131.46 1007.16 1131.14 1013.03 1129.07 1018.3C1126.01 1026 1126.55 1033.32 1129.05 1040.91C1131.37 1047.99 1130.16 1054.37 1126.4 1060.32C1124.69 1063.04 1123.6 1066.35 1122.23 1069.41C1122.83 1069.98 1123.43 1070.63 1124.03 1071.27ZM869.081 218.512C870.512 210.679 871.943 200.963 874.1 191.516C875.724 184.356 879.419 177.735 880.209 170.522C882.281 152.085 888.753 132.786 898.77 115.937C907.207 101.726 920.835 100.273 930.468 115.507C934.804 122.37 936.299 130.229 936.577 138.735C936.961 150.524 938.328 162.42 937.581 174.075C936.577 190.197 932.625 206.158 932.54 222.199C932.476 236.088 926.922 247.015 924.316 259.423C922.586 267.686 919.553 275.653 916.413 283.324C912.974 291.722 910.112 301.761 904.58 307.225C893.495 318.233 886.168 332.714 877.945 346.333C873.844 353.143 873.075 361.89 877.091 370.072C881.085 378.201 885.079 386.329 888.966 394.538C889.757 396.234 890.398 398.28 890.483 400.191C890.803 408.238 892.256 416.744 890.739 424.28C888.048 437.711 890.547 449.177 894.862 461.046C896.036 464.303 895.417 469.148 894.541 472.889C893.431 477.707 892.619 482.04 895.481 486.131C897.767 489.415 899.945 492.941 902.594 495.74C914.47 508.256 926.666 520.341 938.435 533.018C947.812 543.111 947.726 546.153 939.46 557.349C938.969 557.995 938.456 558.615 937.944 559.234C933.309 564.913 930.831 571.695 931.408 579.932C931.899 586.795 931.707 593.066 927.478 598.584C924.872 602.002 923.676 606.632 926.41 611.315C930.041 617.505 932.903 624.799 937.388 629.725C945.441 638.553 952.041 648.431 957.253 660.086C962.87 672.655 969.427 684.525 979.637 691.873C989.27 698.79 999.502 704.415 1009.05 711.521C1013.75 715.02 1019.13 719.542 1021.35 725.328C1025.22 735.368 1028.51 746.295 1027.03 758.219C1026.8 760.13 1027.46 762.741 1028.44 764.275C1032.84 771.165 1037.33 777.975 1042.11 784.461C1047.37 791.594 1051.96 798.861 1052.77 809.116C1053.16 814.176 1054.54 819.102 1055.53 824.081C1058.01 836.812 1060.63 849.462 1062.96 862.247C1064.65 871.56 1064.65 882.38 1071.76 887.897C1080.11 894.384 1085.05 903.508 1089.06 914.194C1092.31 922.833 1089.96 929.293 1082.44 930.908C1068.41 933.949 1058.75 926.467 1053.58 909.833C1051.36 902.701 1048.41 895.407 1044.4 889.754C1033.23 873.901 1021.12 859.098 1009.78 843.433C1002.58 833.501 994.589 823.946 991.086 810.758C987.732 798.161 981.816 788.23 974.682 778.621C969.47 771.623 963.746 764.867 962.101 753.966C959.132 734.264 949.435 720.268 935.338 710.902C924.637 703.796 913.487 697.363 903.79 688.454C895.972 681.295 889.65 671.471 889.885 657.286C890.013 648.943 887.45 641.191 882.409 634.973C876.792 628.002 871.558 620.547 866.112 613.333C862.032 607.924 861.925 602.217 864.489 595.677C865.749 592.474 866.71 588.491 866.432 585.045C865.492 573.31 868.077 564.051 875.232 555.95C882.665 547.552 882.131 543.084 874.784 534.256C866.518 524.297 858.38 514.177 850.092 504.245C842.851 495.606 837.875 486.158 840.715 472.674C841.356 469.632 841.292 465.541 840.16 462.877C835.589 452.057 834.158 440.321 833.945 428.506C833.581 408.481 826.661 391.201 820.168 373.894C816.707 364.689 816.579 356.561 820.851 348.755C828.199 335.271 837.17 323.374 848.683 315.649C857.034 310.051 859.918 302.084 859.213 291.103C858.401 278.587 861.327 267.013 863.848 255.117C866.24 243.758 872.477 233.315 869.081 218.512Z" fill="#FEEDE7"/>
<path d="M1154.49 1524.26C1157.48 1528.24 1160.08 1531.85 1162.82 1535.27C1163.63 1536.26 1164.8 1536.99 1165.91 1537.37C1180.37 1542.29 1194.92 1544.15 1209.21 1536.83C1213.57 1534.59 1219.44 1533.03 1220.21 1525.79C1221.41 1514.84 1222.11 1503.67 1221.92 1492.63C1221.85 1489.51 1218.22 1486.06 1215.77 1483.51C1211.41 1478.99 1205.88 1476.46 1203.63 1468.76C1199.66 1455.03 1195.07 1441.6 1190.84 1428.01C1188.94 1421.93 1184.54 1420.01 1180.37 1419.07C1168.16 1416.3 1155.83 1414.09 1143.51 1412.18C1127.49 1409.68 1111.43 1407.63 1095.36 1405.45C1084.7 1404.03 1074.03 1402.98 1063.41 1401.28C1038.76 1397.32 1014.26 1392.51 991.129 1380.13C984.593 1376.63 979.531 1371.16 976.84 1363.47C973.7 1354.53 968.018 1350.47 961.504 1347.67C954.989 1344.87 948.987 1341.23 944.95 1334.15C940.507 1326.4 934.527 1318.73 932.946 1309.96C930.148 1294.54 922.758 1282.45 917.952 1268.56C917.589 1267.54 917.119 1266.49 917.033 1265.41C915.474 1247.89 906.546 1234.86 900.159 1220.19C892.79 1203.29 879.505 1194.09 869.38 1180.82C862.716 1172.1 859.427 1161.41 858.38 1150.08C857.59 1141.41 854.215 1137.83 848.576 1134.28C836.7 1126.77 825.017 1118.64 813.76 1109.73C806.007 1103.6 804.469 1094.04 807.118 1082.74C808.954 1074.88 810.364 1066.32 809.873 1058.27C809.424 1050.82 806.498 1043.47 804.063 1036.39C802.226 1031.06 801.735 1026.35 804.255 1021.32C809.553 1010.77 809.595 1000.05 805.302 988.857C801.906 980.002 800.453 969.478 795.818 961.995C786.036 946.25 783.131 926.521 774.865 910.156C771.447 903.401 767.282 897.237 763.203 891.073C758.076 883.322 752.181 876.27 747.503 868.142C738.618 852.692 730.16 836.812 721.915 820.797C719.223 815.576 716.789 809.601 715.849 803.599C714.119 792.671 707.946 786.05 702.542 778.648C699.466 774.422 695.814 770.896 692.46 767.021C689.235 763.306 688.402 758.004 690.025 753.724C691.627 749.526 689.79 747.561 688.466 745.273C684.536 738.517 679.474 733.161 676.697 724.898C674.839 719.38 669.819 714.213 665.248 711.79C651.941 704.738 641.197 693.649 631.137 681.134C629.386 678.953 627.762 676.558 625.755 674.862C618.984 669.156 617.104 659.413 613.622 651.204C610.312 643.425 606.018 637.342 600.849 631.663C595.851 626.172 591.28 620.009 586.752 613.872C583.143 609 582.16 603.59 585.385 597.454C586.688 594.951 586.987 591.667 588.055 588.921C588.717 587.253 589.849 585.799 590.981 584.561C591.601 583.888 592.626 583.7 593.502 583.565C601.148 582.381 607.3 579.124 608.966 568.116C609.479 564.644 611.337 561.495 612.683 557.915C611.401 557.35 609.82 556.354 608.154 555.977C603.306 554.874 600.401 552.855 602.473 545.345C603.114 543.058 601.533 538.724 599.91 536.706C590.875 525.616 581.498 515.012 572.292 504.138C568.02 499.105 563.385 494.798 561.057 487.208C559.519 482.175 560.245 478.326 560.843 473.751C561.335 469.875 561.826 465.218 560.608 461.935C556.486 450.872 555.653 439.272 555.076 427.348C554.414 413.379 552.898 399.975 546.554 387.325C542.56 379.358 538.053 370.53 538.459 359.656C538.843 349.159 544.418 343.184 548.967 335.863C555.888 324.774 565.307 317.695 573.638 308.867C577.14 305.153 579.939 297.293 579.64 291.587C578.956 278.399 584.36 267.713 586.56 255.817C587.82 249.034 589.743 242.386 590.469 235.523C591.067 229.763 590.362 223.76 590.234 217.893C589.7 217.785 589.166 217.678 588.653 217.57C590.17 216.197 591.665 214.825 593.117 213.506C591.943 207.315 590.917 201.771 595.189 196.414C596.684 194.557 595.787 189.793 596.172 186.402C596.364 184.679 596.727 182.822 597.475 181.423C599.995 176.766 600.529 169.338 599.333 168.019C602.58 150.739 602.601 133.675 604.929 116.584C611.252 116.584 617.446 116.584 623.64 116.584C623.811 116.153 624.046 115.803 624.11 115.426C625.456 106.894 622.807 102.48 616.015 99.8152C602.174 94.4321 592.861 80.9475 583.954 67.5706C580.323 62.0799 578.465 54.6781 575.944 48.057C574.834 45.0963 573.787 43.0776 570.626 43.4006C565.863 43.8851 561.035 43.5352 556.251 43.5352C556.379 46.4689 556.635 49.2143 556.593 51.9328C556.379 64.5292 556.187 77.1256 555.61 89.6681C555.546 90.987 553.026 93.1402 551.616 93.1671C539.697 93.4363 527.8 93.3286 515.561 93.3286C516.373 98.7655 517.078 103.449 517.783 108.132C518.808 115.049 522.717 116.476 527.523 116.395C535.148 116.261 542.773 116.368 550.398 116.261C554.564 116.207 556.443 117.176 555.333 123.689C553.496 134.428 552.727 145.491 551.723 156.445C551.466 159.217 552.107 162.124 552.342 164.762C550.612 174.694 548.797 184.975 547.002 195.257C547.344 194.934 547.985 194.342 549.929 192.539C549.096 195.634 549.031 198.218 548.177 198.729C544.268 201.152 545.507 205.324 545.699 208.93C546.191 217.597 547.088 226.237 547.579 234.903C547.664 236.384 546.596 238.053 545.892 239.506C542.773 246.02 539.42 252.425 541.193 260.688C541.406 261.684 541.449 263.434 541.022 263.838C533.567 270.566 536.579 282.086 533.29 290.699C532.713 292.206 533.759 294.709 533.93 295.974C532.051 299.743 530.833 303.672 528.633 306.283C522.503 313.631 515.668 320.064 509.687 327.6C505.223 333.198 501.571 339.847 497.726 346.225C492.749 354.488 492.942 363.828 497.534 372.387C501.549 379.87 506.334 387.191 508.641 395.534C511.439 405.655 513.297 416.798 513.169 427.429C512.998 440.456 515.518 452.003 519.534 463.55C520.388 465.972 520.816 469.552 520.025 471.813C516.757 481.098 518.637 488.985 524.148 495.121C532.563 504.488 541.662 512.859 550.249 522.01C555.653 527.77 560.63 534.122 566.717 541.308C553.923 547.23 542.431 541.416 530.919 541.739C530.107 544.403 529.359 546.933 528.292 550.459C533.909 551.94 539.569 552.855 544.866 555.062C548.07 556.381 553.474 554.362 553.773 561.898C554.115 570.673 550.035 579.905 544.738 581.816C537.561 584.4 530.321 586.688 523.058 588.868C516.416 590.859 509.944 592.851 509.944 605.501C511.781 605.501 514.151 605.824 516.437 605.448C523.977 604.209 531.453 602.46 539.014 601.464C542.624 600.98 544.439 603.698 546.49 608.004C550.206 615.783 555.012 623.185 560.523 629.025C569.067 638.042 573.445 649.75 577.205 662.266C577.867 664.473 578.529 666.841 579.725 668.591C585.449 676.908 591.345 685.036 598.115 694.537C583.377 695.749 570.348 688.616 555.845 687.97C563.684 698.521 572.441 705.034 581.946 710.444C589.123 714.535 596.279 719.165 599.888 729.043C600.358 730.335 601.234 731.654 602.216 732.354C607.834 736.445 613.601 740.267 619.219 744.385C623.982 747.884 628.894 748.987 634.469 748.449C640.599 747.857 646.858 748.53 653.031 749.229C656.299 749.606 658.541 751.598 657.238 756.927C655.871 762.499 657.431 766.967 661.788 769.658C662.877 770.331 663.668 771.785 664.757 772.457C675.672 779.186 681.439 791.325 684.322 805.133C687.483 820.394 695.258 831.994 701.41 844.967C706.365 855.384 710.829 866.177 715.891 876.512C718.027 880.873 720.548 885.475 723.816 888.301C733.791 897.049 739.429 909.188 742.398 923.48C745.239 937.126 748.785 950.18 756.752 960.704C758.119 962.507 758.802 965.252 759.486 967.728C762.412 978.118 765.573 988.399 767.923 998.977C769.461 1005.92 769.247 1013.67 765.296 1019.33C760.212 1026.62 760.832 1033.56 764.548 1040.64C769.269 1049.63 769.44 1057.55 765.467 1067.77C761.686 1077.57 757.03 1088.36 759.166 1100.15C759.956 1104.49 762.284 1109.41 765.104 1111.89C771.64 1117.62 778.88 1122.17 785.929 1126.96C790.842 1130.3 796.032 1133.02 800.859 1136.57C803.935 1138.83 805.686 1142.25 805.986 1147.47C806.776 1160.82 810.749 1172.99 818.609 1182.14C826.213 1190.99 834.97 1198.26 842.489 1207.19C846.077 1211.45 848.17 1217.83 850.627 1223.45C854.514 1232.36 858.124 1241.46 861.862 1250.47C862.588 1252.22 864.04 1253.92 864.04 1255.67C864.126 1271.04 872.905 1281.86 876.856 1295.15C877.347 1296.8 878.287 1298.38 878.351 1300.03C878.736 1309.85 882.559 1316.74 888.732 1322.55C892.235 1325.86 894.243 1331.68 897.682 1335.15C902.851 1340.37 908.639 1344.68 914.278 1349.15C917.674 1351.84 920.985 1354.07 922.138 1359.7C925.171 1374.58 935.146 1379.24 945.206 1383.68C962.956 1391.54 981.282 1396.09 999.951 1398.78C1017.36 1401.28 1034.7 1404.27 1052.11 1406.69C1061.55 1408.01 1071.12 1408.06 1080.54 1409.6C1097.37 1412.34 1114.27 1414.93 1130.88 1419.13C1144.43 1422.54 1145.15 1424.24 1145.94 1441.28C1146.45 1452.37 1149.42 1462.24 1153.91 1471.21C1156.37 1476.11 1160.89 1479.52 1164.8 1483.08C1171.83 1489.48 1177.11 1501.06 1174.26 1508.19C1170.74 1517.07 1164.65 1523.18 1156.17 1523.96C1155.6 1523.93 1155.13 1524.1 1154.49 1524.26Z" fill="#FEEDE7"/>
<path d="M574.491 779.267C578.571 770.735 573.039 768.124 569.472 764.813C558.814 754.962 546.639 754.585 534.229 756.927C530.555 757.627 526.86 758.704 523.421 760.426C522.182 761.045 521.712 764.087 520.879 766.024C522.225 766.428 523.549 767.155 524.895 767.209C530.128 767.343 535.382 767.263 540.679 768.232C538.351 768.877 536.023 769.523 533.695 770.142C533.609 771.004 533.503 771.838 533.417 772.699C538.522 774.987 543.627 777.275 549.202 779.778C547.899 781.797 546.852 783.385 545.528 785.457C549.714 791.917 556.443 787.88 561.334 792.052C558.6 793.236 556.08 794.339 551.936 796.17C555.588 797.65 557.724 799.373 559.775 799.238C576.221 798.188 587.243 810.273 597.517 823.893C603.604 831.94 609.286 840.499 614.818 849.166C621.717 859.932 620.478 865.665 610.845 872.286C607 874.924 603.369 878.262 600.08 881.868C595.616 886.767 595.958 892.904 600.529 897.694C602.173 899.417 604.096 900.736 605.505 902.674C606.552 904.1 607.833 906.63 607.449 907.976C606.894 909.914 605.121 912.121 603.54 912.659C594.292 915.889 586.987 911.071 582.886 900.225C581.903 897.641 579.81 895.38 577.802 893.792C572.12 889.27 565.35 886.309 560.65 880.603C556.208 875.193 553.73 867.119 550.612 860.04C549.159 856.756 548.347 853.042 547.023 849.651C545.079 844.671 543.008 839.773 540.872 834.901C538.415 829.303 535.809 823.785 532.648 816.868C532.306 821.12 532.093 823.731 531.794 827.176C531.559 824 531.388 821.659 531.217 819.317C530.94 819.29 530.683 819.263 530.406 819.236C530.128 822.035 529.829 824.835 529.508 828.037C529.252 826.449 529.06 825.211 528.868 824C528.227 832.99 527.073 841.953 531.153 850.377C532.136 852.423 532.221 855.706 531.794 858.156C529.295 872.609 534.143 882.756 543.136 890.75C549.565 896.456 554.584 903.616 556.571 913.332C557.575 918.258 557.468 923.506 558.151 928.566C559.091 935.564 560.287 942.536 565.371 946.923C566.268 947.676 568.126 948.403 568.639 947.838C577.354 938.498 588.097 935.295 598.713 931.635C608.816 928.136 618.812 923.802 629.065 921.272C634.789 919.873 641.047 920.761 646.943 921.73C652.176 922.591 654.055 928.916 654.482 934.192C655.23 943.531 658.989 950.314 663.624 956.881C665.248 959.196 666.764 961.726 668.046 964.364C671.143 970.743 669.199 976.126 663.389 976.799C659.331 977.256 655.102 977.768 651.172 976.826C627.612 971.093 604.096 964.983 580.579 958.927C578.187 958.308 575.88 957.231 573.124 956.182C572.761 958.2 572.12 959.734 572.334 961.053C574.598 974.726 576.969 988.319 584.189 999.677C589.272 1007.7 592.497 1016.45 593.48 1027.27C594.121 1034.26 598.521 1041.21 602.237 1047.18C607.129 1055.04 607.727 1058.59 602.173 1065.48C596.107 1073.02 592.262 1082.2 589.293 1092C586.26 1102.04 593.095 1119.07 602.344 1125.69C605.997 1128.31 609.435 1131.48 613.216 1133.77C618.834 1137.21 620.393 1142.95 618.769 1149.73C613.793 1170.37 622.187 1184.32 634.191 1194.65C645.811 1204.66 652.731 1218.23 658.605 1233.41C660.976 1239.57 664.479 1245.2 666.081 1251.63C669.178 1264.09 675.586 1274.16 680.007 1285.55C682.378 1291.63 681.887 1299.43 682.933 1306.4C683.403 1309.53 683.83 1313.13 685.325 1315.47C689.555 1322.15 694.019 1328.69 698.953 1334.5C703.139 1339.43 708.201 1343.12 712.73 1347.61C716.617 1351.46 720.996 1354.96 723.901 1359.8C730.736 1371.22 740.006 1377.19 750.429 1381.18C771.618 1389.3 793.233 1394.66 815.276 1397.43C836.337 1400.07 857.376 1402.92 878.457 1405.45C898.322 1407.85 918.271 1409.49 938.093 1412.37C950.353 1414.15 962.486 1417.62 974.66 1420.39C976.049 1420.71 977.394 1421.36 978.697 1422.06C984.892 1425.48 985.596 1428.01 982.286 1435.33C981.325 1437.46 980.192 1439.47 978.996 1441.41C972.653 1451.64 973.357 1466.47 980.62 1475.81C987.54 1484.72 994.781 1493.28 1001.12 1502.78C1005.03 1508.62 1008.69 1508.14 1013.17 1505.39C1025.73 1497.72 1036.99 1487.76 1046.98 1475.41C1051.49 1469.83 1059.59 1468.81 1064.2 1473.12C1068.41 1477.05 1072.7 1481.09 1076.25 1485.9C1082.31 1494.19 1088.14 1502.67 1087.99 1515.35C1087.95 1518.58 1090.6 1522.53 1092.84 1525.01C1096.73 1529.32 1097.56 1533.68 1096.07 1539.84C1091.99 1556.66 1078.79 1566.68 1063.75 1563.72C1056.13 1562.21 1048.52 1560.59 1040.32 1559.81C1041.69 1561.02 1042.93 1562.67 1044.42 1563.42C1056.06 1569.18 1067.85 1574.51 1079.41 1580.54C1084.92 1583.39 1090.15 1587.21 1095.23 1591.14C1096.88 1592.41 1097.48 1595.66 1098.99 1597.47C1100.45 1599.22 1102.41 1601.34 1104.21 1601.42C1113.35 1601.83 1122.53 1601.94 1131.65 1601.4C1133.38 1601.29 1134.98 1597.79 1136.63 1595.85C1139.06 1592.97 1141.22 1589.55 1143.98 1587.29C1149.74 1582.56 1151.24 1578.3 1148.21 1571.01C1145.24 1563.9 1143.68 1557.01 1143.96 1548.54C1144.28 1539.41 1141.2 1530.88 1136.12 1523.21C1131.61 1516.43 1128.23 1507.97 1125.86 1499.58C1123.24 1490.24 1118.07 1485.01 1111.75 1480.82C1105.57 1476.7 1101.54 1471.48 1100.98 1461.79C1100.66 1456.16 1097.67 1450.75 1095.81 1445.29C1094.08 1440.2 1092.14 1435.19 1090.47 1430.05C1087.25 1420.07 1079.62 1419.15 1073 1417.78C1058.45 1414.74 1043.76 1412.94 1029.08 1410.81C1009.88 1408.04 990.637 1405.8 971.478 1402.65C952.596 1399.53 933.693 1396.25 915.003 1391.67C905.306 1389.3 896.058 1384.11 886.66 1379.91C880.636 1377.22 876.663 1371.35 874.762 1364C873.032 1357.3 870.213 1352.78 865.108 1349.98C854.877 1344.36 847.914 1333.94 840.63 1323.76C835.632 1316.79 831.104 1310.76 829.587 1300.4C828.199 1290.85 822.304 1282.42 818.95 1273.16C817.391 1268.86 817.263 1263.72 816.28 1259.03C815.725 1256.34 814.956 1253.7 813.973 1251.23C812.158 1246.71 809.958 1242.45 808.228 1237.88C802.098 1221.73 795.946 1205.63 783.408 1195.43C771.724 1185.93 764.035 1172.5 759.336 1156.22C758.93 1154.79 758.802 1153.18 758.716 1151.64C758.183 1143.32 754.744 1138.05 748.635 1134.87C738.617 1129.68 728.557 1124.54 718.903 1118.43C712.858 1114.61 707.368 1109.3 701.943 1104.16C697.265 1099.72 697.97 1092.27 698.269 1086.43C699.166 1069.5 701.26 1052.65 694.083 1036.9C691.413 1031.06 692.609 1026.19 696.326 1021.91C697.757 1020.27 699.423 1018.89 700.768 1017.14C707.133 1008.69 711.854 997.766 706.322 985.762C704.357 981.482 704.186 975.937 702.904 971.12C701.965 967.594 701.153 963.61 699.252 960.973C691.883 950.664 688.935 937.691 684.749 925.417C679.665 910.452 673.642 896.779 662.919 886.229C656.084 879.5 652.197 868.249 646.046 860.174C634.981 845.613 623.17 831.994 611.785 817.837C605.548 810.058 599.738 801.741 593.394 794.124C590.02 790.087 585.983 786.83 582.031 783.627C579.831 781.743 577.225 780.801 574.491 779.267ZM664.906 1177.7C660.185 1168.54 657.9 1158.45 658.391 1147.58C658.605 1142.62 657.281 1139.42 654.034 1137.19C648.801 1133.58 643.546 1130.08 638.292 1126.53C629.321 1120.45 621.14 1113.21 618.214 1100.07C615.651 1088.58 615.95 1077.06 620.435 1066.27C623.362 1059.24 623.362 1052.89 619.432 1046.43C617.616 1043.44 616.121 1040 615.074 1036.47C613.921 1032.57 612.148 1027.88 612.917 1024.3C615.715 1011.2 613.344 999.892 607.748 988.911C605.783 985.035 606.424 981.401 610.674 980.594C613.131 980.109 615.715 979.49 618.107 980.029C635.75 984.039 653.393 988.157 670.951 992.813C672.766 993.298 674.838 997.254 675.308 1000C676.76 1008.64 672.852 1014.94 668.323 1020.59C661.061 1029.66 661.36 1029.96 665.376 1041.31C667.298 1046.72 669.05 1053.75 667.918 1059C665.504 1070.03 661.104 1080.4 657.58 1091.05C655.807 1096.41 655.764 1102.2 659.502 1105.7C666.145 1111.94 673.172 1117.73 680.477 1122.65C688.786 1128.25 697.714 1132.34 706.087 1137.78C711.405 1141.22 713.071 1151.94 709.227 1154.84C706.856 1156.65 704.186 1157.91 701.601 1159.2C689.597 1165.26 677.572 1171.32 664.906 1177.7ZM1034.32 1472.23C1027.1 1482.89 1017.98 1481.89 1008.94 1477.77C1006.06 1476.46 1003.22 1472.53 1001.85 1468.89C998.113 1458.93 997.323 1448.54 999.096 1437.32C1001.1 1424.62 999.843 1422.33 989.655 1419.72C975.173 1416 960.52 1413.18 945.847 1410.92C930.105 1408.49 914.235 1407.36 898.429 1405.37C878.65 1402.87 858.892 1400.02 839.113 1397.35C819.655 1394.71 800.837 1388.98 782.511 1380.34C775.441 1377 769.759 1371.54 767.794 1362.77C765.893 1354.21 761.066 1351.25 755.876 1347.42C750.621 1343.57 745.602 1338.95 741.095 1333.8C736.182 1328.23 731.846 1321.83 727.553 1315.45C725.802 1312.84 724.648 1309.5 723.58 1306.3C722.042 1301.69 720.91 1296.85 719.415 1292.22C717.172 1285.22 714.737 1278.33 712.003 1270.26C714.46 1270.26 715.464 1269.88 716.126 1270.31C725.738 1276.74 736.652 1281.51 737.443 1298.68C737.806 1306.54 740.454 1312.81 745.986 1317.63C752.394 1323.23 758.652 1329.58 758.994 1340.99C759.037 1342.47 760.959 1343.95 762.134 1345.24C770.678 1354.74 781.486 1358.11 791.93 1362.36C810.022 1369.71 828.177 1376.9 846.354 1383.92C855.197 1387.34 864.04 1391 873.075 1393.13C885.805 1396.14 898.728 1397.97 911.586 1400.07C923.419 1402.01 935.295 1403.84 947.171 1405.35C956.825 1406.58 966.544 1407.09 976.198 1408.28C988.993 1409.84 1001.81 1411.29 1014.54 1413.61C1026.54 1415.79 1038.5 1418.59 1050.34 1421.93C1056.85 1423.76 1058.24 1427.74 1058.47 1436.08C1058.67 1442.87 1055.4 1445.69 1051.3 1447.82L1034.32 1472.23ZM823.841 1364.46C815.02 1359.48 806.754 1355.31 798.894 1350.14C795.198 1347.72 790.67 1344.17 789.346 1339.78C786.847 1331.44 783.259 1325.03 777.855 1319.46C774.181 1315.66 770.208 1312.41 768.371 1305.62C766.043 1297.04 763.715 1288.1 757.542 1281.59C747.802 1271.31 736.759 1262.72 729.262 1249.24C728.13 1247.22 725.567 1246.33 724.691 1244.26C718.134 1228.65 710.444 1214.03 700.961 1201C697.693 1196.51 697.992 1192.31 700.085 1187.6C703.631 1179.63 709.056 1174.57 715.079 1171.91C721.081 1179.04 726.677 1186.07 732.615 1192.63C736.802 1197.26 741.522 1201.14 745.858 1205.55C756.132 1215.97 759.635 1231.39 764.185 1245.93C766.79 1254.24 768.179 1263.12 770.742 1271.44C772.835 1278.22 776.552 1284.25 778.26 1291.14C781.678 1304.9 784.433 1317.79 794.216 1328.23C800.325 1334.75 805.387 1342.85 812.905 1347.5C817.989 1350.65 823.692 1353.56 823.841 1364.46Z" fill="#FEEDE7"/>
<path d="M285.459 88.2959C285.459 101.027 285.459 111.954 285.459 122.855C279.329 115.75 273.861 108.59 267.709 102.561C264.612 99.5196 260.832 97.151 257.286 94.9171C252.736 92.091 247.567 90.5029 242.527 89.3456C237.528 88.2151 232.338 87.5153 227.297 87.9998C207.711 89.8301 194.596 98.5507 187.12 125.654C186.437 128.131 187.59 131.387 187.74 132.895C186.33 135.263 184.835 136.69 184.6 138.412C183.382 146.675 182.635 155.073 181.481 163.363C179.644 176.471 177.444 189.498 175.736 202.605C175.073 207.612 175.287 212.779 175.159 217.893C174.924 227.879 175.159 237.945 174.411 247.85C173.407 261.12 171.741 274.335 170.182 287.524C168.879 298.451 165.654 308.195 157.452 313.685C145.64 321.598 140.514 336.079 135.516 350.129C132.91 357.477 136.861 364.582 141.475 370.1C148.096 378.04 154.718 385.98 161.126 394.189C164.394 398.361 166.295 403.26 163.817 409.396C163.112 411.119 162.834 413.326 162.877 415.291C163.39 432.974 165.077 449.877 173.001 465.676C181.46 482.552 193.336 489.335 208.095 489.281C213.243 489.254 219.01 486.778 223.367 483.225C233.876 474.666 244.705 476.604 255.684 479.619C257.585 480.13 259.379 483.575 260.426 486.159C264.057 495.23 269.204 500.343 277.727 499.967C288.343 499.509 298.979 499.859 309.595 499.859C309.809 499.267 310.001 498.702 310.215 498.109C308.506 496.656 306.84 495.041 305.046 493.776C300.731 490.762 296.352 487.828 291.952 485.002C288.556 482.795 287.21 479.215 287.809 474.693C288.791 467.211 285.737 461.208 284.049 454.533C282.298 447.697 282.469 440.026 282.063 432.678C281.443 421.562 281.059 410.446 280.525 399.33C280.482 398.253 280.311 397.015 279.841 396.127C275.249 387.595 270.742 379.009 265.915 370.692C263.245 366.116 262.092 354.22 265.082 349.16C272.537 336.536 280.29 323.967 291.077 315.623C299.044 309.46 303.956 301.789 304.789 289.865C306.028 271.913 312.116 255.656 316.494 238.78C317.84 233.558 318.673 228.014 318.993 222.55C319.613 211.165 320.659 200.049 324.589 189.552C325.764 186.429 325.786 182.634 326.32 179.135C328.413 165.624 330.314 152.058 332.621 138.628C334.393 128.292 340.203 122.398 347.786 118.953C349.388 118.226 351.054 117.687 352.741 117.015C352.741 113.623 352.741 110.528 352.741 107.029C330.613 100.865 308.57 94.7287 285.459 88.2959ZM213.392 247.15C215.785 237.865 221.744 229.844 218.946 218.324C219.757 211.622 220.569 204.382 221.594 197.196C221.872 195.285 223.004 193.589 223.367 191.678C224.798 184.411 225.845 177.009 227.447 169.796C229.476 160.618 231.356 151.278 234.346 142.557C236.268 136.986 239.323 131.172 243.146 127.646C254.765 116.961 267.816 121.456 277.385 131.71C280.803 135.371 284.263 140.915 283.109 148.317C282.17 154.319 281.977 160.483 281.507 166.593C281.294 169.5 281.465 172.487 281.038 175.34C279.008 189.336 275.078 202.902 276.21 217.544C276.787 225.053 277.471 232.885 276.445 240.206C273.968 257.917 270.657 275.465 267.41 293.014C266.086 300.201 263.993 307.118 258.397 311.155C247.268 319.149 241.01 332.768 234.004 345.392C229.348 353.762 225.418 362.806 220.804 371.203C219.437 373.707 216.917 376.479 214.717 376.802C200.555 378.874 187.505 374.406 176.056 363.721C170.246 358.311 168.922 351.178 171.293 343.023C174.689 331.288 180.435 321.302 189.171 315.758L213.392 247.15ZM246.158 432.463C246.585 440.887 246.307 449.366 247.012 457.736C247.567 464.061 246.264 467.641 241.202 468.664C237.379 469.418 233.47 469.633 231.334 469.902C226.037 469.471 222.235 470.117 219.01 468.664C214.14 466.484 207.988 464.331 205.404 459.567C200.342 450.254 194.596 440.591 197.821 427.107C199.786 418.817 200.897 413.595 207.412 412.68" fill="#FEEDE7"/>
<path d="M497.449 162.232C500.546 157.145 496.765 150.686 496.103 144.414C495.526 139.112 493.433 133.944 491.425 129.099C489.311 123.959 488.349 118.01 482.647 115.588C479.379 114.215 477.648 107.917 474.487 105.199C452.081 85.7387 427.86 83.6931 403.125 96.2357C388.836 103.476 379.651 118.091 373.137 135.64C366.238 154.265 364.358 174.344 361.133 194.1C359.445 204.382 359.787 214.287 360.791 224.622C361.432 231.324 359.467 238.51 358.249 245.374C356.733 253.933 354.768 262.357 352.653 272.397C359.766 270.62 366.28 268.952 372.816 267.364C390.246 263.192 407.675 258.912 425.147 254.956C431.768 253.448 438.454 252.345 445.161 251.78C450.116 251.376 451.141 253.556 449.774 259.639C447.275 270.701 444.755 281.736 442.234 292.799C440.184 301.735 435.25 308.033 430.166 314.304C425.937 319.526 422.199 325.42 417.842 330.48C415.428 333.279 412.16 336.778 409.298 336.751C401.032 336.644 392.766 335.002 384.5 333.818C366.494 331.261 348.531 328.515 330.503 326.147C328.73 325.905 326.103 327.17 325.057 328.892C320.806 335.89 316.79 343.13 313.138 350.667C310.489 356.131 313.501 365.793 317.752 371.876C323.262 379.762 328.068 388.483 333.045 396.961C333.707 398.118 333.75 399.949 333.857 401.51C334.497 410.123 335.95 418.816 335.437 427.322C334.626 440.672 337.103 452.703 341.525 464.519C342.529 467.183 342.956 470.521 342.806 473.482C342.336 482.229 345.476 488.904 350.966 492.888C359.744 499.24 368.907 504.892 378.242 509.871C395.18 518.888 412.096 528.227 429.547 535.306C439.137 539.182 449.817 538.94 460.027 540.097C462.547 540.393 465.303 539.182 467.78 538.105C472.394 536.141 474.359 531.942 472.543 526.02C469.767 516.923 466.883 507.852 463.722 498.97C460.967 491.165 459.151 483.575 462.398 475.204C464.235 470.521 464.833 465.434 462.675 460.508C458.019 449.904 458.04 438.303 457.528 426.622C456.951 413.514 453.598 401.268 448.322 389.721C444.819 382.05 441.145 373.652 440.291 365.147C439.223 354.435 444.029 345.337 450.65 338.124C459.386 328.623 467.823 318.718 476.516 309.109C481.493 303.592 482.732 296.055 484.184 288.519C487.645 270.405 491.19 252.345 494.65 234.258C495.142 231.728 495.377 229.117 495.59 226.533C496.487 215.067 497.278 203.601 498.196 192.135C498.816 184.464 499.713 176.847 500.097 169.176C500.204 167.346 498.709 165.381 497.449 162.232ZM438.347 532.211C428.137 532.991 419.081 528.335 410.452 522.36C397.572 513.424 384.713 504.434 372.111 494.879C366.067 490.277 364.123 482.929 365.276 473.778C365.853 469.175 365.469 463.765 364.038 459.512C361.026 450.603 359.958 441.587 360.364 432.113C360.492 429.206 360.62 426.245 360.385 423.365C359.659 414.51 360.043 405.036 357.544 397.015C354.703 387.837 349.577 379.681 344.857 371.607C340.222 363.694 341.332 346.629 350.944 345.203C355.109 344.584 359.659 344.126 363.589 345.553C375.016 349.671 386.273 354.569 397.465 359.683C400.114 360.895 402.719 363.613 404.364 366.52C408.764 374.325 412.374 382.858 416.795 390.69C425.659 406.382 425.211 421.239 414.36 434.939C411.092 439.057 411.028 443.013 413.976 447.293C418.483 453.833 423.16 460.185 427.326 467.049C428.821 469.525 430.038 473.401 429.696 476.361C428.607 485.997 432.003 492.807 436.66 499.697C441.636 507.045 445.972 515.066 450.415 522.952C453.064 527.662 451.569 530.542 447.339 531.323C444.392 531.834 441.359 531.915 438.347 532.211ZM405.347 176.067C406.671 172.083 407.782 169.526 408.401 166.808C412.054 150.793 415.001 134.456 419.401 118.764C421.879 109.909 428.159 104.149 435.933 103.718C443.388 103.314 449.582 107.298 453.769 115.615C455.178 118.441 458.873 121.052 458.638 123.286C457.442 135.128 462.334 146.621 459.557 158.41C459.365 159.191 459.792 160.187 459.749 161.048C459.6 164.493 459.343 167.938 459.172 171.383C459.023 174.048 458.703 176.74 458.831 179.377C459.301 188.448 457.763 190.951 450.864 192.135C450.095 192.27 449.411 193.05 448.578 193.616C449.048 195.634 450.137 197.76 449.689 198.918C448.834 201.098 447.233 204.112 445.695 204.355C441.166 205.081 436.51 204.624 431.533 204.624C432.025 202.309 432.452 200.237 433.05 197.303C431.277 197.115 429.825 196.684 428.415 196.872C420.875 197.841 413.356 199.025 405.838 200.021C402.25 200.506 400.84 198.514 401.993 194.046C403.253 189.174 404.62 184.33 405.667 179.377C405.945 177.924 405.347 176.121 405.347 176.067Z" fill="#FEEDE7"/>
<path d="M116.079 55.6471C114.178 51.3406 112.298 47.0611 110.205 42.324C105.313 42.324 99.4823 42.324 93.6299 42.324C93.6085 42.7277 93.5658 43.1314 93.5445 43.5621C95.7659 43.7236 98.0086 43.8851 101.811 44.1542C98.1581 45.6615 95.8726 46.6035 92.7114 47.9224C95.0182 48.5145 96.4279 48.8644 97.8376 49.2143C97.8162 49.5373 97.795 49.8334 97.7736 50.1564C96.6843 50.3717 95.5736 50.587 94.2066 50.8561C94.2066 58.2848 94.1638 65.6327 94.2279 72.9537C94.2492 77.3409 94.3988 81.7281 94.5483 86.1153C94.6765 90.045 93.3095 92.5481 90.1483 92.7903C86.7948 93.0595 83.3986 92.4943 80.0665 92.9518C73.9577 93.7862 67.8917 95.132 61.8043 96.2086C60.8644 96.3701 59.8819 96.2355 58.878 95.4011C60.4586 95.132 62.0393 94.8628 63.6413 94.6206C63.6199 94.3245 63.5985 94.0284 63.5771 93.7323C60.6936 93.7323 57.7887 93.7323 54.4994 93.7323C56.0159 99.4115 57.4256 104.687 59.1985 111.308C58.814 111.2 60.181 111.12 61.0995 111.846C67.9345 117.283 75.3248 112.977 82.3948 113.946C85.9191 114.43 89.6357 114.215 92.8396 115.695C94.0784 116.261 94.826 120.755 94.6765 123.366C94.3133 130.606 93.5231 137.82 92.6047 144.952C90.2124 163.389 88.29 181.961 84.9152 200.102C83.3346 208.58 83.4841 216.332 83.954 224.783C84.5093 234.85 82.8433 245.104 82.0957 255.278C81.6899 260.823 81.2628 266.395 80.7288 271.912C79.9172 280.229 80.1734 289.138 77.7171 296.647C75.6025 303.161 70.9034 308.921 66.3538 313.416C60.779 318.933 55.2043 323.805 51.3382 331.799C49.6295 335.352 45.1439 338.097 41.6409 338.662C33.6952 339.981 25.536 340.546 17.5476 339.847C10.264 339.201 5.43669 342.484 1.33568 349.563C-0.97113 353.573 -0.223557 355.888 3.0658 357.019C8.72604 358.956 14.4504 360.544 20.1961 362.025C32.8623 365.335 41.876 374.352 50.3984 386.76C57.4043 396.961 60.0741 406.247 59.1129 419.193C57.9382 435.127 61.8043 449.904 68.7461 463.415C70.049 465.945 70.3695 469.444 70.6898 472.566C71.0102 475.608 70.7539 478.757 70.7539 483.494C80.4083 477.411 89.2725 472.136 97.8376 466.187C99.2901 465.165 99.8667 461.396 100.23 458.786C100.7 455.287 100.401 451.626 100.657 448.073C101.319 439.299 102.665 430.524 102.579 421.75C102.537 418.736 99.5037 414.295 97.0473 413.056C87.521 408.265 85.2783 397.58 83.0355 387.11C82.5229 384.715 85.321 381.323 86.3676 378.255C87.2647 375.698 87.9268 372.979 88.4822 370.261C88.7812 368.834 88.4395 367.22 88.6958 365.766C89.9133 358.633 87.8842 354.058 82.1599 351.339C73.6374 347.302 73.5734 343.938 80.0239 335.648C87.6065 325.904 95.2958 316.672 104.523 309.378C111.187 304.103 111.593 293.929 111.807 285.854C112.191 270.755 118.279 258.831 123.277 246.45C127.186 236.734 129.407 227.475 129.834 216.493C130.347 203.197 133.422 190.062 135.11 176.793C135.494 173.859 134.725 170.683 133.722 167.615C139.296 153.135 139.403 136.905 140.834 121.078C141.24 116.691 142.5 114.565 145.96 114.861C148.972 115.103 152.005 116.072 154.931 115.668C156.875 115.399 159.759 113.757 160.25 111.9C160.848 109.586 160.079 105.683 158.712 103.826C156.234 100.434 153.479 96.1009 148.78 99.1693C148.395 99.4115 147.413 98.7386 146.922 98.2003C140.087 90.0988 133.102 82.1587 126.545 73.7073C123.17 69.347 120.628 63.9909 117.595 59.1999C116.912 58.1233 115.651 57.6388 114.669 56.8852C115.16 56.4276 115.63 56.0239 116.079 55.6471Z" fill="#FEEDE7"/>
<path d="M704.657 1371.27C704.145 1364.16 699.253 1362.66 695.259 1359.8C688.552 1355.04 681.888 1350.19 675.331 1345.13C673.601 1343.79 671.935 1341.77 670.995 1339.54C666.915 1329.82 660.785 1322.71 653.95 1316.2C651.686 1314.05 650.062 1310.58 648.546 1307.4C643.377 1296.61 638.486 1285.62 633.317 1274.83C630.775 1269.53 629.216 1264.36 628.468 1257.88C627.315 1248.05 623.406 1238.74 620.544 1229.26C616.208 1214.89 608.305 1204.29 598.586 1195.24C593.674 1190.67 589.594 1184.72 585.194 1179.28C581.157 1174.3 581.435 1168.57 584.254 1163.11C586.454 1158.85 589.274 1155.06 591.794 1151.07C595.147 1145.83 594.143 1141.41 589.829 1137.27C582.033 1129.76 573.638 1130.05 564.71 1132.37C555.846 1134.68 546.875 1136.38 537.968 1138.37C529.083 1140.36 525.558 1147.47 527.758 1158.88C530.087 1171.07 534.273 1181.79 542.774 1189.13C543.628 1189.86 544.227 1191.04 544.526 1192.98C540.019 1189.91 535.619 1186.58 530.984 1183.88C520.795 1177.91 510.991 1170.88 499.414 1169.16C490.529 1167.84 482.476 1169.83 474.851 1175.24C468.208 1179.96 466.564 1191.18 471.882 1198.96C480.34 1211.37 488.201 1224.34 498.645 1234.7C507.04 1243.04 515.199 1251.23 525.003 1256.74C534.23 1261.94 543.607 1263.64 553.539 1261.35C564.368 1258.84 568.469 1253.38 569.495 1239.55C569.666 1237.34 569.772 1235.1 569.965 1231.96C571.246 1233.19 572.485 1233.81 572.869 1234.92C575.903 1243.53 578.807 1252.22 581.67 1260.92C582.887 1264.6 583.613 1268.53 585.002 1272.09C589.359 1283.26 592.798 1294.35 589.551 1307.24C588.975 1309.55 590.769 1313.54 592.307 1315.85C595.34 1320.48 599.099 1324.33 602.324 1328.8C604.14 1331.33 605.293 1334.64 607.109 1337.17C608.924 1339.7 611.06 1342.04 613.346 1343.87C619.006 1348.42 625.521 1350.63 630.476 1357.52C633.06 1361.1 639.746 1360.05 644.594 1360.93C656.556 1363.09 668.517 1365.19 680.5 1367.26C688.488 1368.63 696.455 1369.9 704.657 1371.27Z" fill="#FEEDE7"/>
<path d="M494.862 1014.43C496.869 1014.78 498.578 1015.34 500.287 1015.34C514.512 1015.34 528.759 1015.39 542.985 1015.02C545.014 1014.96 547 1012.54 549.008 1011.22C547.449 1009.42 546.146 1006.89 544.33 1005.92C531.301 999.164 524.936 986.299 522.309 969.557C521.71 965.762 520.856 961.241 518.806 958.737C510.006 947.837 507.549 933.249 503.79 919.495C500.415 907.06 495.289 896.967 486.831 888.838C482.131 884.316 478.522 877.507 475.51 870.912C474.079 867.763 475.04 862.757 475.254 858.612C475.339 856.943 476.45 855.382 476.877 853.687C479.462 843.27 476.856 837.295 468.419 836.569C460.323 835.869 452.1 836.165 443.983 836.945C438.665 837.457 438.067 839.879 440.459 845.962C443.727 854.333 442.787 857.024 435.44 858.451C424.974 860.496 414.55 859.743 404.319 856.432C391.589 852.287 379.734 854.198 368.627 863.349C359.571 870.805 358.738 879.822 366.598 888.973C369.46 892.31 372.472 895.405 375.377 898.662C380.482 904.314 381.785 911.366 379.798 919.36C376.359 933.168 377.064 945.441 386.035 956.234C389.731 960.675 392.593 966.893 394.472 972.976C397.911 984.119 403.935 991.897 412.201 996.715C427.387 1005.6 443.321 1009.34 459.918 1004.6C464.168 1003.39 468.355 1001.1 472.221 998.438C478.522 994.131 484.972 995.181 491.423 996.661C492.768 996.957 494.413 999.864 494.669 1001.8C495.225 1005.73 494.862 1009.82 494.862 1014.43ZM465.108 990.578C447.059 988.963 432.642 983.473 421.941 963.744C420.146 960.46 417.861 957.58 415.704 954.619C408.335 944.391 406.498 932.872 410.342 919.925C412.863 911.474 411.859 904.207 406.113 898.178C403.956 895.917 402.119 893.118 400.282 890.372C396.309 884.424 398.125 880.494 402.418 876.484C404.148 874.869 406.69 874.465 408.933 874.008C424.568 870.751 438.003 877.749 451.459 887.008C463.186 895.056 470.341 907.087 473.481 922.321C476.407 936.586 479.91 949.721 487.792 961.025C492.854 968.292 490.44 981.158 483.456 984.818C477.71 987.86 471.259 988.748 465.108 990.578Z" fill="#FEEDE7"/>
<path d="M265.358 868.545C260.51 869.461 258.374 872.986 260.809 877.912C263.372 883.16 266.853 887.736 270.143 892.365C272.492 895.703 275.312 898.502 277.704 901.786C282.595 908.515 281.378 917.558 274.714 920.573C268.733 923.264 262.389 924.664 256.152 926.387C247.395 928.809 245.28 935.645 250.855 944.339C254.422 949.884 258.737 954.378 261.108 961.43C262.24 964.768 267.024 966.706 270.442 968.078C274.821 969.828 279.52 970.151 284.026 971.443C297.12 975.211 298.893 977.849 300.067 994.698C300.302 998.035 300.217 1001.43 300.388 1004.76C300.687 1010.52 302.374 1011.92 306.475 1009.02C310.768 1005.95 314.592 1001.8 318.906 998.789C326.617 993.406 334.648 988.696 342.359 983.259C344.367 981.832 346.631 978.925 346.909 976.368C347.101 974.646 344.281 971.174 342.359 970.528C331.637 966.894 323.221 959.708 317.326 947.677C312.285 937.395 313.075 932.442 321.427 926.602C328.839 921.407 328.967 920.25 323.798 911.879C321.79 908.649 320.572 904.558 318.351 901.651C315.211 897.587 311.879 893.2 307.928 890.777C295.945 883.483 283.642 877.051 271.424 870.429C269.523 869.407 267.387 869.164 265.358 868.545Z" fill="#FEEDE7"/>
<path d="M425.103 651.23C426.47 654.783 427.987 656.801 427.709 658.309C426.299 665.899 430.443 668.375 434.544 670.528C446.463 676.746 458.125 684.12 471.197 685.708C477.156 686.435 483.265 686.704 489.203 686.005C495.483 685.251 497.811 680.648 497.362 673.274C496.273 654.648 489.801 641.19 475.469 634.139C468.89 630.909 462.952 625.472 456.309 622.511C451.461 620.331 445.907 619.604 440.717 619.9C435.27 620.196 434.352 623.615 436.509 629.967C436.958 631.259 436.787 633.573 436.125 634.65C432.558 640.383 428.713 645.874 425.103 651.23ZM438.41 652.28C443.836 642.59 451.247 643.317 458.83 646.6C465.964 649.696 468.954 658.605 465.088 664.069C460.987 669.855 446.014 667.917 442.746 661.162C441.358 658.362 439.991 655.536 438.41 652.28Z" fill="#FEEDE7"/>
<path d="M993.268 1699.64C993.973 1701.55 994.763 1703.03 994.571 1703.25C990.512 1708.09 994.443 1711.19 996.173 1714.52C997.732 1717.51 999.868 1718.45 1002.35 1715.76C1003.93 1714.04 1005.91 1712.72 1007.13 1710.7C1008.3 1708.74 1008.75 1706.04 1009.5 1703.68C1007.73 1702.92 1006.02 1701.9 1004.2 1701.5C1000.83 1700.72 997.369 1700.31 993.268 1699.64Z" fill="#FEEDE7"/>
<path d="M1109.95 1626.56C1112 1628.29 1113.97 1631.19 1116.12 1631.46C1119.78 1631.89 1123.56 1630.6 1127.3 1630.06C1126.76 1627.96 1126.36 1624.14 1125.69 1624.06C1120.76 1623.55 1115.8 1623.79 1110.83 1623.79C1110.53 1624.68 1110.23 1625.62 1109.95 1626.56Z" fill="#FEEDE7"/>
<path d="M1083 1756.59C1065.01 1754.65 1047.03 1752.74 1029.06 1750.8C1029.02 1751.42 1028.98 1752.04 1028.94 1752.66C1047.05 1754.63 1065.18 1756.59 1083.3 1758.58C1083.19 1757.94 1083.08 1757.26 1083 1756.59Z" fill="#FEEDE7"/>
<path d="M446.379 193.211C442.961 200.155 442.47 200.209 437.664 195.095C440.569 194.449 442.897 193.938 446.379 193.211Z" fill="#FEEDE7"/>
<path d="M446.379 193.211C442.897 193.965 440.569 194.449 437.664 195.095C442.47 200.209 442.961 200.128 446.379 193.211Z" fill="#FEEDE7"/>
</svg>
