<svg width="1086" height="1514" viewBox="0 0 1086 1514" fill="none" xmlns="http://www.w3.org/2000/svg">
<path d="M1085.98 1210.75C1078.56 1209.49 1071.13 1208.17 1063.71 1206.98C1056.86 1205.88 1050.02 1204.84 1043.18 1203.88C1032.45 1202.36 1021.72 1200.93 1011 1199.42C1005.82 1198.68 1000.65 1197.85 995.507 1196.13C996.784 1195.94 998.043 1195.76 999.32 1195.58C999.32 1195.32 999.32 1195.07 999.32 1194.82C985.345 1192.47 971.315 1190.56 957.412 1187.69C934.625 1182.95 911.892 1177.85 891.641 1162.38C884.945 1157.25 877.574 1153.53 870.915 1148.31C868.762 1146.63 867.083 1142.45 866.664 1139.14C866.043 1134.05 864.474 1130.28 861.446 1127.09C858.071 1123.55 857.031 1119.69 857.998 1113.57C858.928 1107.62 857.268 1100.99 856.52 1094.69C855.772 1088.42 854.732 1082.21 853.82 1075.96C854.257 1076.19 854.714 1076.42 855.151 1076.65C856.812 1074.44 860.169 1071.73 859.859 1070.14C858.454 1063.01 862.869 1058.88 864.438 1053.43C867.996 1040.99 868.05 1039.01 860.205 1030.62C854.148 1024.14 847.799 1018.09 841.632 1011.77C841.103 1011.24 841.03 1010.04 840.556 1009.38C838.439 1006.37 837.108 1002.5 832.455 1004.8C828.733 1006.64 824.573 1004.5 821.873 1000.46C818.005 994.664 814.466 988.617 814.083 980.456C813.882 976.272 812.404 972.708 808.883 970.662C799.907 965.489 790.894 960.339 782.264 954.362C776.973 950.706 770.788 946.821 769.894 938.223C769.274 932.222 770.022 925.762 771.044 919.761C773.069 907.99 773.434 896.955 767.358 886.54C764.786 882.126 763.983 876.609 767.03 871.666C772.576 862.653 770.916 853.779 767.267 844.606C764.914 838.698 763.107 832.467 761.009 826.398C760.225 824.168 759.641 821.639 758.382 819.891C752.544 811.707 750.136 801.338 746.487 791.728C741.707 779.107 736.653 766.853 727.786 757.266C721.637 750.622 717.149 741.471 712.26 733.126C707.808 725.493 704.123 717.148 699.507 709.676C694.891 702.204 692.118 693.859 689.436 685.191C687.94 680.317 685.13 675.995 682.503 671.811C679.821 667.535 676.756 663.58 673.672 659.741C669.586 654.637 666.648 649.326 667.159 641.349C667.342 638.314 665.17 634.75 663.583 631.854C660.025 625.37 660.044 616.128 653.749 611.737C652.6 610.932 651.779 609.254 650.575 608.679C637.092 602.173 626.492 590.908 616.093 578.516C610.2 571.504 607.408 563.021 603.996 554.721C600.913 547.226 595.622 543.019 591.116 537.524C586.482 531.869 582.614 525.133 578.873 518.442C578.089 517.04 579.184 513.752 579.695 511.43C580.716 506.786 581.993 502.234 583.07 497.59C585.168 488.624 588.269 480.416 592.831 472.899C596.242 467.266 595.951 462.507 591.864 457.748C586.5 451.495 580.589 445.954 575.024 439.953C573.053 437.815 571.503 435.08 569.532 432.918C567.051 430.183 564.351 427.723 562.125 425.539C561.34 422.895 560.903 420.113 559.771 417.906C557.327 413.101 557.728 408.503 558.403 403.054C558.987 398.295 557.363 392.938 556.177 388.041C554.334 380.432 552.82 373.006 553.513 364.775C553.97 359.212 552.62 353.395 551.178 347.601C550.85 348.82 550.54 350.015 550.211 351.234C549.846 351.119 549.463 351.004 549.098 350.889C549.591 348.314 550.083 345.716 550.43 343.9C547.949 336.336 545.559 329.048 543.169 321.737C542.95 321.048 542.767 320.358 542.512 319.691C541.308 316.427 539.191 313.231 539.027 309.874C538.644 302.012 541.29 295.092 545.796 289.689C553.295 280.677 561.249 272.262 568.511 262.951C570.901 259.87 572.415 255.019 573.108 250.674C574.805 239.961 575.662 229.063 579.275 218.925C580.205 216.327 580.807 213.522 581.264 210.74C581.373 210.027 580.278 209.016 579.749 208.142C583.125 207.613 583.106 204.625 582.906 201.406C582.833 200.348 583.179 199.268 583.106 198.21C582.997 196.624 582.668 195.084 582.449 193.52C582.833 193.428 583.216 193.336 583.617 193.244C583.964 194.325 584.31 195.406 584.657 196.486C584.839 196.463 585.004 196.44 585.186 196.44C584.475 189.152 583.745 181.841 583.033 174.553C583.362 174.277 583.672 174.002 584 173.726C584 174.507 583.982 175.289 583.982 176.071C584.456 175.91 584.912 175.726 585.387 175.565C587.448 161.656 589.62 147.793 591.535 133.86C593.652 118.595 601.843 106.962 612.371 105.215C621.256 103.743 628.736 108.111 634.939 115.652C636.344 117.376 636.964 121.331 636.599 123.952C634.374 140.344 633.881 157.127 629.338 173.082C627.988 177.818 628.59 183.68 629.083 188.922C629.995 198.463 626.182 206.487 624.485 215.177C621.803 228.971 619.121 242.743 616.22 256.468C614.761 263.365 610.418 267.273 605.784 270.722C604.361 271.779 602.829 272.86 601.752 274.4C596.407 282.102 590.714 289.528 586.135 297.919C583.015 303.621 582.395 310.357 586.044 317.231C589.893 324.496 593.743 332.198 595.75 340.428C597.921 349.326 598.432 359.051 598.76 368.454C599.034 376.247 600.055 383.512 602.975 390.34C605.164 395.444 605.985 400.41 603.942 406.089C602.227 410.871 603.613 415.814 606.24 419.308C612.06 427.01 618.264 434.298 624.448 441.54C629.758 447.747 635.614 453.265 640.522 459.909C641.927 461.817 641.161 466.668 640.814 470.071C640.668 471.565 639.172 472.945 638.15 474.186C631.929 481.888 629.156 491.038 629.885 502.165C630.068 505.016 628.918 508.58 627.477 510.902C625.561 513.959 625.014 516.419 626.346 519.983C629.885 529.501 636.636 535.179 642.328 542.214C649.042 550.537 654.789 560.124 661.394 568.584C671.374 581.367 679.912 596.541 693.431 603.92C702.9 609.093 709.158 617.485 712.807 629.187C714.522 634.681 715.38 640.613 716.839 646.246C717.624 649.234 718.445 652.476 719.995 654.844C723.444 660.063 727.129 665.098 731.125 669.604C737.109 676.363 739.718 685.375 742.819 694.226C747.764 708.25 754.514 720.78 762.779 732.16C766.191 736.85 768.07 743.265 771.08 748.529C773.434 752.645 776.134 756.599 779.217 759.841C787.008 767.979 790.547 779.543 795.583 789.981C798.119 795.223 798.155 801.384 800.6 806.442C803.647 812.718 807.186 818.65 809.905 825.133C813.572 833.87 816.601 843.043 820.049 851.94C822.694 858.722 821.125 864.998 818.826 871.137C816.82 876.471 816.491 881.482 819.155 886.678C824.628 897.415 822.968 908.933 821.435 920.543C820.633 926.635 819.647 933.165 820.56 939.05C822.074 948.752 829.007 953.327 835.192 957.925C841.65 962.73 848.474 966.754 855.133 971.122C858.837 973.559 859.311 977.628 858.399 982.134C856.885 989.56 852.98 994.595 846.485 998.71C850.189 1004.23 853.491 1009.15 857.323 1014.87C857.286 1008.64 858.928 1005.06 862.686 1002.94C876.443 995.285 890.163 987.537 903.883 979.743C906.127 978.456 908.225 976.731 911.436 974.455C908.499 972.57 906.711 971.375 904.904 970.271C895.527 964.57 885.419 962.523 875.293 960.063C866.408 957.902 859.275 951.373 854.859 941.188C853.674 938.452 853.199 934.452 853.765 931.44C855.151 923.923 857.341 916.635 859.183 909.255C860.844 902.611 859.968 896.311 856.903 890.679C852.98 883.483 851.74 876.471 855.826 868.608C859.749 861.044 856.538 853.894 854.257 846.882C851.959 839.778 849.423 832.766 846.996 825.731C846.394 823.984 846.084 821.892 845.099 820.581C837.272 809.983 834.499 796.073 829.664 783.544C825.814 773.589 821.289 764.623 814.32 757.335C809.722 752.53 806.438 745.564 802.99 739.195C796.641 727.516 790.347 715.768 784.563 703.652C781.407 697.054 779.546 689.49 776.7 682.616C775.039 678.639 772.759 674.984 770.46 671.535C766.3 665.305 761.721 659.511 757.707 653.166C756.302 650.936 756.029 647.579 755.226 644.751C753.766 639.693 752.307 634.635 750.811 629.601C748.822 622.91 746.14 616.818 741.36 612.542C739.554 610.932 738.021 608.518 736.032 607.553C720.287 600.058 708.848 585.459 697.518 570.676C696.551 569.412 696.022 567.389 695.712 565.596C693.979 555.135 689.874 546.767 683.233 539.915C678.507 535.018 674.512 528.972 670.352 523.224C667.214 518.879 668.454 514.143 669.367 508.924C670.48 502.533 670.06 495.705 670.115 489.061C670.115 488.348 668.819 487.635 668.126 486.923C669.203 486.325 670.553 486.049 671.282 485.038C675.114 479.773 679.347 474.784 682.357 468.806C684.838 463.909 681.664 459.495 678.799 456.139C669.64 445.425 660.299 434.919 651.086 424.274C645.977 418.366 644.116 411.423 645.959 402.617C646.579 399.651 645.813 395.697 644.664 392.8C641.817 385.581 641.033 378.087 640.668 370.178C640.212 360.338 639.026 350.544 637.95 340.75C637.731 338.773 636.709 336.911 635.888 335.095C632.713 328.129 628.681 321.576 626.437 314.151C623.81 305.483 626.766 297.368 631.582 290.861C638.333 281.734 644.317 271.618 653.184 265.181C657.818 261.802 659.259 255.111 659.752 248.973C661.011 233.248 665.882 218.856 669.276 203.889C670.607 197.98 670.206 191.474 670.626 185.221C671.045 178.967 671.209 172.622 672.067 166.461C673.308 157.609 675.132 148.896 676.573 140.114C676.683 139.378 675.752 138.39 675.497 137.884C676.373 133.631 677.522 129.216 678.161 124.71C679.784 113.238 683.743 104.479 693.65 102.111C694.508 101.904 695.292 101.375 696.095 101.007C696.624 92.34 696.642 92.202 690.001 90.2938C674.931 85.9716 659.843 81.7644 644.737 77.6491C643.04 77.1893 641.215 77.5802 639.026 77.5802C639.026 87.3051 639.026 96.5472 639.026 105.284C633.334 99.0301 628.298 92.0411 622.204 87.0752C606.66 74.3845 589.747 72.2464 572.561 81.0747C561.742 86.6383 556.104 98.6853 553.295 112.296C551.123 122.825 550.485 133.837 548.879 144.551C547.949 150.758 546.27 156.782 545.249 162.989C543.807 171.771 541.198 180.554 545.778 189.382C547.475 192.647 548.095 196.785 549.263 200.716C542.859 200.004 544.72 193.796 543.935 189.405C543.278 195.383 542.621 201.36 541.873 208.165C541.892 208.188 542.786 209.062 544.172 210.418C543.151 211.821 542.439 213.361 541.381 214.074C538.407 216.097 537.404 219.867 538.006 224.603C538.206 226.075 536.491 227.96 535.506 229.983C535.834 230.236 536.619 230.834 538.334 232.167C536.437 232.029 535.543 231.983 534.813 231.937C533.554 235.754 533.572 240.168 533.189 244.283C532.788 248.72 531.711 252.467 530.635 256.56C529.358 261.365 526.931 263.871 524.012 266.928C516.623 274.676 509.872 283.412 502.757 291.85C504.18 293.275 504.892 294.011 506.005 295.115C503.925 296.057 502.392 296.77 501.462 297.184C500.695 300.402 500.276 303.276 499.364 305.851C497.813 310.242 498.761 314.059 500.86 317.484C502.52 320.174 504.855 322.22 506.442 324.979C507.628 327.048 508.011 329.83 508.924 332.175C510.62 336.52 512.445 340.796 514.58 346.038C512.719 349.809 512.81 354.499 514.762 360.775C516.112 365.097 518.812 370.339 516.933 376.569C515.054 382.846 517.663 388.892 520.837 393.996C523.465 398.203 525.873 401.629 520.783 406.204C517.827 408.871 519.268 416.618 521.987 419.676C524.614 422.619 526.53 426.55 529.066 429.654C531.729 432.895 534.776 435.631 537.622 438.643C543.552 444.965 549.573 451.173 555.338 457.725C560.465 463.565 560.246 467.795 556.396 474.968C552.09 482.991 548.496 491.544 547.365 501.499C547 504.694 545.468 507.89 543.972 510.649C541.326 515.5 541.162 519.983 544.318 524.397C547.493 528.834 550.357 533.846 554.061 537.409C561.45 544.513 566.303 554.008 571.302 563.457C581.045 581.85 592.922 597.138 609.342 606.082C616.02 609.714 622.077 614.335 624.394 623.991C624.704 625.301 626.364 626.037 627.295 627.187C630.196 630.727 633.297 634.084 635.778 638.061C636.672 639.464 636.326 642.475 636.034 644.613C635.359 649.556 636.326 653.212 639.482 656.66C644.499 662.155 649.48 667.902 653.567 674.432C656.413 678.961 658.31 684.754 659.624 690.364C662.488 702.526 668.965 711.929 674.074 722.367C678.215 730.804 682.01 739.517 686.371 747.771C688.578 751.955 691.297 755.978 694.398 759.059C704.415 769.014 709.268 782.739 712.643 797.499C714.212 804.373 716.547 810.465 720.014 816.167C722.586 820.42 724.301 825.547 726.144 830.421C728.771 837.41 731.307 844.491 733.642 851.664C735.704 857.986 735.814 864.447 732.675 870.286C729.318 876.563 729.245 882.494 732.694 888.724C738.714 899.599 734.372 910.266 732.201 921.049C731.033 926.819 729.282 933.211 730.249 938.659C731.125 943.671 734.737 948.637 738.131 952.017C742.528 956.385 747.91 959.236 752.909 962.615C756.995 965.374 761.392 967.535 765.187 970.823C767.304 972.662 769.694 976.088 769.913 979.03C771.39 999.561 781.589 1012.41 793.521 1024.14C798.885 1029.4 803.793 1035.24 806.712 1043.43C809.887 1052.28 813.663 1060.78 817.184 1069.45C817.385 1069.93 817.659 1070.49 817.641 1070.99C816.838 1084.95 825.011 1094.58 828.368 1106.53C828.806 1108.12 829.518 1109.75 829.5 1111.34C829.372 1118.33 831.871 1123.48 836.469 1126.84C841.815 1130.74 844.15 1137.62 847.562 1143.46C848.364 1144.81 849.094 1146.74 850.189 1147.27C860.588 1152.29 866.354 1164.88 875.312 1171.76C883.339 1177.92 892.589 1182.31 901.748 1185.21C916.198 1189.78 930.958 1192.93 945.699 1195.76C960.952 1198.68 976.35 1200.59 991.694 1202.73C1004.06 1204.45 1016.52 1205.37 1028.84 1207.55C1036.76 1208.96 1044.53 1211.81 1052.28 1214.45C1053.94 1215.03 1055.91 1217.07 1056.54 1219.05C1059.58 1228.64 1062.59 1238.29 1064.84 1248.22C1065.86 1252.75 1065.42 1257.97 1065.02 1262.78C1064.62 1267.58 1065.8 1270.94 1068.72 1273.79C1069.96 1275.01 1070.86 1276.78 1072.17 1278.66C1076.68 1274.89 1081.29 1271.03 1085.89 1267.17C1085.98 1248.32 1085.98 1229.53 1085.98 1210.75Z" fill="url(#paint0_linear)"/>
<path d="M1085.98 664.73C1083.04 660.316 1080 655.994 1077.3 651.35C1076.91 650.706 1078.03 648.338 1078.76 647.027C1083.63 638.084 1082.75 635.256 1078.45 625.577C1073.08 613.484 1063.91 610.864 1054.95 607.3C1038.02 600.587 1020.9 594.609 1004.03 587.689C997.806 585.137 993.08 580.401 990.709 571.274C989.213 565.481 988.136 560.86 989.03 554.652C989.796 549.319 986.531 544.697 982.827 541.502C978.539 537.8 976.277 532.88 976.076 526.19C975.931 520.948 977.591 517.316 981.094 514.994C984.396 512.81 987.753 510.603 991.238 508.924C997.569 505.89 1001.24 499.682 1004.48 492.739C1007.68 485.934 1011.14 479.52 1015.78 473.887C1020.99 467.519 1019.63 463.542 1013.79 457.725C998.919 442.942 981.221 435.746 964.163 426.665C957.978 423.378 952.158 418.917 946.374 414.572C942.963 411.997 943.072 409.376 946.046 405.905C946.83 404.985 947.56 403.905 948.491 403.353C952.34 401.031 952.669 397.123 950.607 393.421C944.55 382.616 948.436 373.81 952.997 364.246C956.409 357.096 958.525 348.935 960.769 341.026C961.152 339.647 959.656 336.796 958.47 335.44C954.493 330.956 949.731 327.669 947.907 320.45C947.341 318.22 944.203 316.909 942.123 315.392C936.65 311.415 936.723 307.529 938.784 301.023C940.499 295.574 944.55 291.344 947.414 286.447C948.217 285.091 948.929 283.229 948.892 281.619C948.71 272.676 951.3 267.963 957.96 264.308C969.8 257.824 979.817 248.099 988.538 236.121C994.54 227.868 1000.85 219.982 1006.78 211.637C1007.99 209.935 1007.97 206.947 1008.77 204.694C1009.15 203.659 1010.05 202.602 1010.91 202.211C1013.02 201.245 1013.84 200.165 1012.44 197.337C1012.07 196.624 1012.97 194.785 1013.46 193.566C1014.04 192.118 1015.32 190.853 1015.41 189.405C1015.96 181.565 1018.71 174.622 1020.87 167.472C1023.11 160.023 1025.74 152.782 1027.78 145.264C1028.4 142.988 1026.87 139.7 1027.62 137.585C1030.72 128.734 1030.08 119.538 1029.73 110.387C1028.99 90.3398 1022.91 72.5913 1014.61 55.8083C1001.13 28.6338 981.057 13.4832 957.139 4.93076C946.283 1.0454 935.263 -1.18465 924.207 0.654578C913.078 2.4938 902.095 6.14925 891.148 9.52882C885.638 11.2301 880.329 13.92 875.038 16.5869C873.907 17.1616 872.611 19.4606 872.593 20.978C872.429 41.9452 872.484 62.9123 872.484 84.2474C874.728 84.2474 876.242 83.9945 877.702 84.2933C880.767 84.9371 881.77 82.753 882.701 79.6033C885.857 69.0967 888.411 58.1304 892.717 48.3825C902.97 25.1852 917.767 14.0579 938.766 16.6098C947.743 17.6904 955.533 23.2311 961.973 31.4386C973.212 45.7386 977.791 63.8549 981.094 82.8909C983.484 96.7081 983.502 110.548 981.842 124.251C979.835 140.758 976.569 156.92 969.782 171.68C968.14 175.243 967.793 179.749 966.753 184.232C967.429 184.094 968.231 183.933 969.034 183.772C969.107 184.14 969.289 184.784 969.235 184.807C965.148 187.198 965.385 192.118 964.674 196.624C964.4 198.348 963.25 199.912 962.375 201.406C952.577 217.867 940.974 231.868 927.363 243.363C914.975 253.847 891.458 256.79 877.811 248.306C871.407 244.329 865.532 238.719 862.394 230.512C860.114 224.58 859.493 217.66 858.143 211.269C857.523 211.269 857.213 211.154 857.049 211.292C854.239 213.706 849.167 215.982 849.058 218.58C848.766 225.684 849.952 233.156 851.703 240.03C853.181 245.869 856.282 251.042 858.599 256.56C861.227 262.813 860.424 264.652 855.425 268.193C847.835 273.596 839.99 278.768 833.185 285.528C818.881 299.713 817.823 319.484 825.194 338.175C833.021 358.016 841.121 377.558 846.832 398.594C848.93 406.319 847.562 413.653 847.452 421.239C847.361 427.286 847.58 433.493 848.638 439.379C850.554 450.161 858.49 451.794 866.043 456.438C864.073 451.633 862.613 448.391 861.373 445.011C859.256 439.218 860.862 434.712 864.602 430.987C872.009 423.584 880.894 422.32 889.579 423.653C908.188 426.504 926.415 432.091 943.492 442.046C951.848 446.92 959.912 453.035 967.356 459.886C973.322 465.381 972.592 468.829 968.286 474.922C963.561 481.635 958.397 488.072 954.566 495.567C950.315 503.89 944.221 507.545 937.416 510.81C929.462 514.626 921.616 518.879 913.844 523.27C906.711 527.294 899.686 526.121 892.589 523.523C880.584 519.132 869.236 513.569 861.099 500.464C857.614 494.854 855.425 501.729 852.725 502.671C854.531 515.454 862.34 521.638 869.254 528.535C877.902 537.157 887.389 544.583 893.064 557.089C893.72 558.538 894.596 560.147 894.596 561.687C894.578 569.412 897.807 573.895 903.609 576.493C907.148 568.768 913.078 565.803 919.938 564.285C929.753 562.101 939.606 564.4 947.104 570.883C969.344 590.103 995.635 595.092 1020.03 606.656C1025.45 609.231 1030.7 612.404 1035.86 615.737C1038.93 617.715 1040.08 625.462 1038.04 631.854C1036.37 637.05 1034.22 642.176 1031.59 646.659C1029.81 649.717 1030.1 651.281 1031.34 654.499C1034.44 662.569 1039.35 668.109 1044.8 673.42C1051.13 679.582 1051.65 684.019 1048.76 693.399C1047.38 697.928 1046.34 702.71 1045.64 707.515C1044.57 714.826 1040.48 718.504 1035.72 721.286C1028.86 725.286 1021.74 724.39 1014.74 721.999C997.55 716.136 983.356 703.928 971.552 687.582C966.334 680.34 962.886 671.121 958.033 663.396C951.683 653.281 944.769 643.763 937.945 633.785C936.34 635.187 934.88 636.475 932.855 638.291C934.57 642.613 935.683 647.625 938.128 651.166C946.958 663.925 955.314 677.03 963.05 690.985C972.628 708.274 986.02 721.148 999.703 733.379C1013.88 746.024 1025.01 762.163 1032.42 782.233C1035.61 790.878 1041.83 796.028 1047.89 801.177C1053.16 805.661 1058.62 809.845 1063.74 814.604C1068.1 818.65 1068.19 823.11 1066.1 829.249C1061.02 844.215 1053.82 858.193 1051.57 874.425C1051.06 878.126 1053.51 883.529 1055.86 886.586C1064.02 897.277 1074.45 902.726 1086 905.002C1085.98 824.903 1085.98 744.828 1085.98 664.73ZM879.763 284.608C879.216 285.597 879.052 286.125 878.742 286.424C873.14 292.034 872.046 300.103 875.22 308.035C877.428 313.553 881.569 314.426 885.383 316.427C888.119 317.852 891.13 318.978 893.374 321.255C897.661 325.554 901.255 330.979 905.579 335.164C908.462 337.969 908.608 340.589 906.893 343.785C900.745 355.303 893.666 365.419 881.971 367.856C879.636 368.339 877.209 368.776 874.874 368.5C860.625 366.89 851.192 355.28 842.289 342.865C839.333 338.75 838.001 322.818 840.428 319.139C843.967 313.76 847.89 308.748 851.922 303.92C855.972 299.069 861.208 295.39 864.383 289.804C868.725 282.217 873.87 284.125 879.763 284.608Z" fill="url(#paint1_linear)"/>
<path d="M1085.98 1499.28C1075.91 1498.01 1065.84 1496.77 1055.77 1495.51C1055.81 1494.91 1055.84 1494.31 1055.88 1493.71C1059.53 1493.71 1063.19 1493.71 1066.84 1493.71C1066.92 1493.37 1066.97 1493.02 1067.04 1492.7C1065.49 1491.92 1063.83 1491.35 1062.41 1490.29C1059.6 1488.17 1056.79 1486.01 1054.31 1483.37C1053.54 1482.54 1053.23 1479.41 1053.84 1478.47C1056.01 1475 1054.84 1472.54 1053.01 1469.97C1039.62 1475.46 1030.37 1469.21 1029.68 1453.44C1021.96 1452.26 1014.13 1450.81 1006.27 1449.92C991.128 1448.22 975.985 1446.72 960.824 1445.32C950.461 1444.38 940.044 1444.03 929.681 1442.88C912.385 1440.93 895.18 1438.17 878.377 1432.35C856.684 1424.84 834.936 1417.55 813.371 1409.48C804.851 1406.28 797.024 1400.81 792.755 1389.96C792.299 1388.79 791.824 1387.52 791.751 1386.26C791.222 1378.33 791.168 1370.33 790.274 1362.46C789.234 1353.5 784.162 1348.12 778.214 1343.96C770.278 1338.42 762.67 1332.46 759.769 1320.67C758.966 1317.4 758.692 1313.93 757.962 1310.62C757.379 1307.98 756.795 1305.19 755.627 1302.94C753.219 1298.27 753.529 1295.47 757.889 1294.04C770.095 1290.07 782.21 1289.7 793.758 1297.42C796.568 1299.31 799.688 1300.78 802.06 1303.33C806.146 1307.72 810.507 1312.16 813.426 1317.7C819.045 1328.35 825.303 1337.7 834.024 1344.58C839.169 1348.62 841.504 1355.22 840.246 1363.2C840.154 1363.75 839.881 1364.46 840.045 1364.85C843.639 1372.83 843.092 1381.52 843.402 1390.26C843.639 1397.04 848.565 1401.13 852.98 1403.71C859.822 1407.73 867.065 1410.81 874.308 1413.55C888.302 1418.81 902.35 1423.98 916.526 1428.42C929.973 1432.63 943.528 1436.54 957.212 1439.27C968.304 1441.5 979.671 1441.76 990.891 1443C1003.75 1444.42 1016.62 1445.92 1029.46 1447.55C1040.52 1448.95 1051.54 1450.58 1062.57 1452.22C1064.49 1452.49 1066.39 1453.23 1068.01 1453.67C1068.01 1457.44 1068.01 1461.05 1068.01 1464.63C1068.54 1464.91 1069.07 1465.18 1069.6 1465.46C1072.96 1461.97 1076.33 1458.47 1080.73 1453.92C1071.61 1452.01 1063.85 1450.19 1056.06 1448.79C1044.49 1446.72 1032.89 1445 1021.3 1443.02C1012.26 1441.48 1003.04 1440.77 994.266 1437.94C986.33 1435.39 978.978 1430.08 971.187 1426.65C963.433 1423.25 955.515 1420.28 947.524 1417.92C944.003 1416.88 939.989 1418.61 936.449 1417.66C925.065 1414.65 913.607 1411.73 902.551 1407.32C895.819 1404.63 889.287 1399.91 885.401 1391.73C884.306 1389.41 884.397 1386.14 884.033 1383.29C883.96 1382.79 884.434 1382.17 884.361 1381.66C883.285 1373.89 882.774 1365.87 880.84 1358.42C879.107 1351.68 873.998 1348.19 869.109 1345.06C864.803 1342.32 859.84 1340.42 856.41 1336.44C849.806 1328.83 844.168 1319.88 837.947 1311.72C835.466 1308.46 832.747 1305.29 829.718 1302.96C824.993 1299.33 820.943 1295.26 817.914 1289.17C814.156 1281.58 809.449 1274.78 805.526 1267.31C803.848 1264.11 802.625 1260.25 802.06 1256.48C801.147 1250.55 801.275 1244.34 800.272 1238.43C799.98 1236.68 797.188 1234.11 795.875 1234.38C787.355 1236.2 778.907 1238.55 770.515 1241.1C767.723 1241.95 766.775 1244.71 769.274 1247.42C771.208 1249.53 773.598 1250.98 775.769 1252.73C775.24 1253.42 774.693 1254.09 774.164 1254.78C774.054 1255.12 773.999 1255.63 773.799 1255.79C766.957 1261.74 767.048 1261.58 774.036 1267.56C776.225 1269.42 779.436 1272.82 779.199 1275.01C778.688 1279.67 774.547 1279.74 771.39 1279.81C766.537 1279.9 761.648 1279.97 756.85 1279.28C745.045 1277.61 734.682 1282.18 725.031 1290.2C721.254 1293.35 720.944 1298.32 724.721 1301.45C728.516 1304.6 729.957 1308.85 730.012 1314C730.139 1327.15 735.029 1336.35 743.823 1342.99C747.964 1346.12 752.307 1350.71 750.701 1357.36C748.986 1364.46 750.756 1370.07 752.416 1376.26C752.945 1378.23 752.726 1380.95 752.069 1382.92C750.172 1388.6 751.267 1393.06 754.332 1397.55C760.152 1406.1 767.96 1409.41 776.207 1412.24C791.314 1417.41 806.219 1423.48 821.344 1428.47C834.042 1432.65 846.868 1436.28 859.767 1439.32C866.974 1441.02 874.418 1441.04 881.77 1441.85C895.381 1443.34 909.009 1444.91 922.62 1446.35C927.272 1446.86 931.943 1447.09 936.595 1447.6C950.06 1449.09 963.524 1450.61 976.989 1452.24C978.868 1452.47 980.711 1453.32 981.769 1453.64C982.663 1457.69 983.083 1461.21 984.195 1464.31C986.512 1470.84 989.395 1477.02 991.621 1483.58C993.573 1489.3 997.332 1492.01 1001.56 1493.35C1007.22 1495.12 1013.04 1496.11 1018.84 1496.98C1030.04 1498.66 1041.26 1500.08 1052.48 1501.51C1056.85 1502.06 1061.21 1502.45 1065.58 1502.75C1072.39 1503.21 1079.18 1503.55 1085.98 1503.92C1085.98 1502.36 1085.98 1500.82 1085.98 1499.28Z" fill="url(#paint2_linear)"/>
<path d="M1085.98 1509.62C1081.68 1508.87 1077.39 1507.76 1073.05 1507.39C1061.75 1506.43 1050.42 1505.95 1039.13 1504.98C1023.07 1503.6 1007 1502.27 990.982 1500.29C980.729 1499.03 970.567 1496.68 960.368 1494.77C952.395 1493.28 946.904 1487.9 943.948 1478.29C942.598 1473.92 940.481 1469.92 939.15 1465.53C938.091 1462.01 937.69 1458.17 936.778 1453.34C930.228 1452.29 922.711 1450.79 915.158 1449.92C900.489 1448.19 885.802 1446.72 871.115 1445.32C861.209 1444.38 851.247 1444.1 841.359 1442.88C825.887 1440.97 810.47 1438.77 795.419 1433.23C774.072 1425.36 752.507 1418.47 731.216 1410.37C725.323 1408.14 719.795 1403.71 714.65 1399.25C710.362 1395.52 708.83 1389.68 709.669 1382.65C710.18 1378.37 709.359 1373.77 708.72 1369.41C708.118 1365.27 706.896 1361.29 706.111 1357.2C704.743 1350.16 699.945 1347.27 695.84 1343.59C693.121 1341.17 690.093 1339.27 687.465 1336.69C684.145 1333.45 684.4 1331.52 687.739 1328.18C689.782 1326.16 691.625 1323.84 693.559 1321.63C691.023 1320.16 688.578 1317.86 685.933 1317.38C670.352 1314.6 655.92 1306.99 641.088 1301.03C638.46 1299.98 635.651 1299.61 632.075 1298.69C633.005 1300.48 633.315 1301.7 633.936 1302.16C639.519 1306.34 641.252 1314.05 644.609 1320.28C646.652 1324.07 645.649 1327.08 642.748 1328.71C638.625 1331.04 634.301 1332.83 629.995 1334.64C627.641 1335.63 625.178 1336.23 621.511 1337.43C626.145 1341.5 630.013 1341.2 633.863 1341.1C640.996 1340.94 648.13 1340.85 655.245 1340.85C660.992 1340.85 665.116 1344.81 667.67 1350.78C668.655 1353.08 668.801 1357.18 667.834 1359.38C665.572 1364.44 667.688 1368.44 668.4 1372.99C668.911 1376.3 668.892 1379.98 668.309 1383.27C667.451 1388.01 667.56 1391.98 669.805 1396.28C673.782 1403.91 679.492 1408.08 686.097 1410.6C702.371 1416.79 718.627 1423.07 735.029 1428.7C746.943 1432.79 759.002 1436.31 771.135 1439.3C777.867 1440.95 784.855 1441.04 791.733 1441.85C805.034 1443.37 818.334 1444.91 831.634 1446.35C836.578 1446.88 841.559 1447.04 846.503 1447.62C859.202 1449.07 871.918 1450.63 884.598 1452.26C886.021 1452.45 887.371 1453.32 887.572 1454.54C888.302 1458.1 888.721 1461.83 889.834 1465.21C891.677 1470.86 894.414 1476.08 895.892 1481.85C897.588 1488.47 901.146 1492.22 905.999 1493.44C914.337 1495.51 922.821 1496.96 931.268 1498.13C943.966 1499.88 956.719 1501.21 969.454 1502.63C974.416 1503.19 979.415 1503.58 984.396 1503.92C996.018 1504.73 1007.64 1505.3 1019.26 1506.29C1030.68 1507.26 1042.09 1508.57 1053.49 1509.81C1054.29 1509.9 1055.06 1510.64 1056.66 1511.53C1053.96 1511.88 1052.21 1512.08 1050.44 1512.31C1062.32 1515.51 1074.14 1512.57 1085.96 1511.99C1085.98 1511.16 1085.98 1510.41 1085.98 1509.62Z" fill="url(#paint3_linear)"/>
<path d="M1085.98 1201.55C1085.58 1201.28 1085.18 1200.8 1084.78 1200.8C1074.31 1200.75 1063.85 1200.77 1053.36 1200.06C1064.23 1200.93 1075.11 1201.83 1085.98 1202.7C1085.98 1202.34 1085.98 1201.94 1085.98 1201.55Z" fill="url(#paint4_linear)"/>
<path d="M960.111 915.048C968.047 910.634 976.403 906.841 982.023 897.806C983.628 895.231 984.832 890.817 984.249 887.851C982.899 880.931 984.413 875.229 986.693 869.252C989.175 862.746 988.554 859.343 983.628 855.274C976.914 849.733 969.927 844.721 963.03 839.571C954.692 833.318 946.227 827.34 937.999 820.903C931.595 815.891 931.868 811.178 938.108 805.867C942.104 802.465 945.953 798.672 949.547 794.625C952.959 790.786 953.032 786.303 951.372 780.647C948.252 770.003 942.925 762.508 935.171 757.013C930.737 753.863 928.676 741.747 931.193 735.034C934.605 725.953 934.861 716.757 933.31 707.078C932.635 702.894 932.817 698.319 933.346 694.043C934.477 684.938 932.471 677.88 927.07 671.466C922.527 666.063 918.769 659.557 915.065 653.166C914.189 651.648 914.335 648.292 915.029 646.338C917.583 639.119 915.886 633.164 913.314 626.451C908.625 614.22 899.904 610.243 890.891 605.76C880.127 600.38 869.381 594.701 859.182 587.827C849.567 581.321 843.838 570.883 842.652 556.4C842.251 551.503 839.259 546.353 836.449 542.49C832.745 537.387 828.951 532.628 827.382 525.753C826.141 520.328 826.269 515.661 830.52 512.189C835.482 508.12 837.836 502.602 838.383 494.694C838.876 487.544 841.138 480.486 846.155 475.451C852.468 469.128 851.227 463.358 844.988 456.369C833.001 442.942 818.971 433.746 805.196 423.906C802.861 422.228 800.69 420.044 798.719 417.699C793.647 411.607 793.885 410.733 796.566 402.479C797.479 399.698 797.406 395.168 796.183 392.732C791.385 383.145 793.319 373.81 795.49 364.109C797.15 356.637 798.354 348.981 799.267 341.325C799.504 339.348 798.063 336.888 797.096 334.842C795.052 330.497 792.808 326.266 790.655 321.99C790.254 321.209 790.108 320.036 789.561 319.599C785.109 315.99 782.993 310.702 784.525 304.518C785.893 298.954 788.521 293.85 790.765 288.654C792.115 285.551 793.666 282.539 795.344 279.688C798.008 275.136 800.215 269.572 803.755 266.538C813.662 258.077 820.467 246.49 826.323 233.868C831.286 223.155 835.829 212.143 840.536 201.268C840.956 200.303 841.339 199.222 841.393 198.164C841.758 189.658 841.996 181.129 842.342 172.599C842.397 171.243 842.835 169.886 843.163 168.576C846.484 155.058 845.553 141.7 841.959 128.596C840.445 123.055 838.401 117.652 836.03 112.617C826.925 93.2136 812.385 83.6267 795.654 78.6608C779.07 73.7179 763.033 76.3618 747.543 85.305C733.915 93.1907 723.698 105.766 715.743 121.446C707.77 137.125 704.085 155.104 699.25 172.438C698.338 175.726 698.192 179.565 698.338 183.083C698.775 192.877 697.298 202.188 695.364 211.637C692.554 225.362 691.368 239.225 695.437 253.18C697.425 260.031 695.473 264.469 689.89 267.825C679.929 273.803 671.573 282.378 664.056 292.356C657.524 301.023 656.612 308.84 660.352 319.921C664.84 333.256 669.475 346.544 673.397 360.154C675.641 367.971 676.517 376.408 678.196 384.501C678.725 387.053 680.275 389.306 680.622 391.858C681.242 396.41 682.209 401.376 681.37 405.652C679.308 416.228 681.735 424.711 687.409 432.068C694.214 440.919 701.403 449.334 708.153 458.254C712.514 464.024 711.966 467.795 708.773 473.106C705.453 478.623 702.479 484.463 699.615 490.371C698.921 491.82 699.122 494.073 699.14 495.958C699.177 501.453 699.505 506.786 697.024 511.982C696.148 513.822 696.586 518.121 697.772 519.799C703.118 527.455 709.065 534.444 714.557 541.939C720.632 550.238 726.817 558.492 732.327 567.389C741.614 582.379 751.046 597.322 765.295 604.817C775.457 610.151 779.946 620.037 783.102 631.946C783.868 634.843 784.744 637.716 785.2 640.705C786.787 651.327 792.972 658.224 798.318 665.466C803.992 673.144 808.644 681.306 813.096 690.203C819.026 702.066 827.163 712.32 834.99 722.505C845.17 735.77 856.08 748.162 866.407 761.243C869.125 764.669 871.424 768.991 872.993 773.428C878.539 789.108 888.136 799.936 899.101 809.201C907.585 816.374 907.749 819.455 903.188 830.812C900.67 837.065 900.506 844.744 898.791 851.572C896.985 858.768 894.996 865.987 892.314 872.723C890.325 877.735 890.453 882.264 893.007 886.035C900.652 897.3 900.78 911.83 904.082 924.911C906.016 932.59 908.935 936.866 915.594 937.694C924.516 938.82 932.325 934.981 939.641 929.073C942.633 926.659 945.388 923.808 949.328 920.152C946.792 919.624 945.68 919.233 944.585 919.187C941.1 918.98 937.615 918.98 934.131 918.75C924.698 918.175 922.582 915.646 923.02 903.737C923.257 897.438 920.393 893.3 917.93 888.84C913.496 880.816 913.441 877.896 917.182 869.597C918.86 865.872 919.79 861.573 920.83 857.435C921.615 854.354 921.943 851.089 922.618 847.963C923.731 842.882 926.231 839.755 930.573 839.157C944.074 837.272 954.893 843.71 963.632 856.239C966.46 860.286 966.187 865.297 964.417 869.804C961.808 876.379 962.264 882.632 964.399 889.115C966.387 895.162 965.347 900.611 962.136 905.691C960.677 908.013 959.746 910.841 958.579 913.462C959.089 913.945 959.6 914.497 960.111 915.048ZM742.344 186.646C743.566 179.956 744.788 171.657 746.631 163.587C748.018 157.472 751.174 151.816 751.849 145.655C753.619 129.906 759.147 113.422 767.704 99.0302C774.91 86.8913 786.55 85.6498 794.779 98.6624C798.482 104.525 799.759 111.238 799.996 118.503C800.325 128.573 801.493 138.734 800.854 148.689C799.997 162.46 796.621 176.094 796.548 189.796C796.494 201.659 791.75 210.993 789.524 221.592C788.046 228.65 785.456 235.455 782.774 242.007C779.836 249.18 777.391 257.755 772.666 262.422C763.197 271.825 756.939 284.194 749.915 295.827C746.412 301.644 745.755 309.116 749.185 316.105C752.597 323.048 756.009 329.991 759.329 337.003C760.004 338.451 760.552 340.199 760.625 341.831C760.898 348.705 762.139 355.97 760.844 362.407C758.545 373.879 760.679 383.673 764.365 393.812C765.368 396.594 764.839 400.732 764.091 403.928C763.142 408.043 762.449 411.744 764.894 415.239C766.846 418.044 768.707 421.056 770.969 423.447C781.113 434.137 791.531 444.46 801.584 455.288C809.593 463.91 809.52 466.507 802.46 476.071C802.04 476.623 801.602 477.152 801.164 477.681C797.205 482.532 795.089 488.325 795.581 495.36C796.001 501.223 795.837 506.58 792.224 511.293C789.998 514.212 788.977 518.167 791.312 522.167C794.414 527.455 796.858 533.685 800.69 537.892C807.568 545.433 813.206 553.871 817.657 563.825C822.456 574.562 828.057 584.701 836.778 590.977C845.006 596.885 853.745 601.69 861.9 607.76C865.914 610.749 870.512 614.611 872.409 619.554C875.712 628.129 878.521 637.463 877.262 647.648C877.062 649.28 877.627 651.51 878.466 652.821C882.225 658.706 886.056 664.523 890.143 670.064C894.631 676.156 898.554 682.364 899.247 691.123C899.575 695.445 900.761 699.652 901.601 703.905C903.717 714.78 905.961 725.585 907.95 736.506C909.391 744.46 909.391 753.702 915.467 758.415C922.6 763.956 926.815 771.75 930.245 780.877C933.018 788.257 931.011 793.775 924.589 795.154C912.602 797.752 904.356 791.361 899.94 777.153C898.043 771.06 895.525 764.83 892.095 760.002C882.553 746.461 872.209 733.816 862.521 720.435C856.372 711.952 849.549 703.791 846.557 692.525C843.692 681.766 838.639 673.282 832.545 665.075C828.093 659.097 823.204 653.327 821.799 644.016C819.263 627.187 810.98 615.232 798.938 607.231C789.798 601.162 780.274 595.667 771.991 588.057C765.314 581.942 759.913 573.55 760.114 561.434C760.223 554.307 758.034 547.686 753.728 542.375C748.93 536.421 744.46 530.053 739.808 523.891C736.323 519.27 736.232 514.396 738.421 508.81C739.497 506.074 740.318 502.671 740.081 499.728C739.278 489.705 741.486 481.796 747.598 474.876C753.947 467.703 753.491 463.887 747.215 456.346C740.154 447.839 733.203 439.195 726.124 430.712C719.939 423.332 715.688 415.262 718.115 403.744C718.662 401.146 718.607 397.651 717.64 395.375C713.736 386.133 712.514 376.109 712.331 366.017C712.021 348.912 706.11 334.152 700.563 319.369C697.608 311.507 697.498 304.564 701.147 297.896C707.423 286.378 715.086 276.217 724.92 269.618C732.054 264.836 734.517 258.031 733.915 248.651C733.221 237.961 735.721 228.075 737.874 217.913C739.917 208.211 745.244 199.291 742.344 186.646Z" fill="url(#paint5_linear)"/>
<path d="M986.128 1301.98C988.682 1305.38 990.908 1308.46 993.243 1311.38C993.937 1312.23 994.94 1312.85 995.889 1313.17C1008.24 1317.38 1020.66 1318.97 1032.87 1312.71C1036.59 1310.8 1041.61 1309.47 1042.27 1303.29C1043.29 1293.93 1043.89 1284.39 1043.73 1274.96C1043.67 1272.3 1040.57 1269.35 1038.47 1267.17C1034.75 1263.31 1030.02 1261.14 1028.11 1254.57C1024.72 1242.84 1020.79 1231.37 1017.18 1219.76C1015.56 1214.57 1011.8 1212.93 1008.24 1212.13C997.804 1209.76 987.277 1207.88 976.75 1206.24C963.067 1204.11 949.347 1202.36 935.627 1200.5C926.523 1199.28 917.4 1198.38 908.333 1196.93C887.279 1193.55 866.352 1189.44 846.593 1178.86C841.01 1175.87 836.686 1171.21 834.388 1164.63C831.706 1157 826.852 1153.53 821.288 1151.14C815.723 1148.75 810.597 1145.64 807.148 1139.59C803.354 1132.97 798.245 1126.42 796.895 1118.93C794.505 1105.75 788.192 1095.43 784.087 1083.57C783.777 1082.69 783.376 1081.8 783.303 1080.88C781.971 1065.91 774.345 1054.78 768.889 1042.25C762.595 1027.82 751.247 1019.95 742.599 1008.62C736.907 1001.17 734.097 992.043 733.203 982.364C732.528 974.961 729.645 971.904 724.829 968.869C714.685 962.455 704.705 955.512 695.09 947.902C688.467 942.66 687.154 934.498 689.416 924.842C690.985 918.129 692.189 910.818 691.77 903.944C691.386 897.576 688.887 891.3 686.807 885.253C685.238 880.701 684.818 876.678 686.971 872.378C691.496 863.366 691.532 854.216 687.865 844.652C684.964 837.088 683.724 828.099 679.765 821.708C671.409 808.258 668.927 791.407 661.867 777.429C658.948 771.658 655.39 766.393 651.905 761.128C647.526 754.507 642.491 748.484 638.495 741.541C630.906 728.344 623.681 714.78 616.638 701.101C614.339 696.641 612.26 691.537 611.457 686.41C609.979 677.076 604.706 671.42 600.09 665.098C597.463 661.488 594.343 658.477 591.479 655.166C588.724 651.993 588.013 647.464 589.399 643.809C590.767 640.222 589.198 638.544 588.067 636.59C584.71 630.819 580.386 626.244 578.014 619.186C576.427 614.473 572.14 610.059 568.235 607.99C556.869 601.966 547.692 592.494 539.099 581.804C537.603 579.942 536.216 577.896 534.501 576.447C528.718 571.573 527.112 563.251 524.138 556.239C521.31 549.594 517.643 544.399 513.228 539.548C508.959 534.858 505.054 529.593 501.186 524.351C498.103 520.19 497.264 515.569 500.019 510.327C501.132 508.189 501.387 505.384 502.299 503.039C502.865 501.614 503.832 500.372 504.799 499.315C505.328 498.74 506.204 498.579 506.952 498.464C513.483 497.452 518.738 494.671 520.161 485.268C520.599 482.302 522.186 479.612 523.335 476.554C522.241 476.071 520.891 475.221 519.468 474.899C515.326 473.956 512.845 472.232 514.614 465.818C515.162 463.864 513.812 460.162 512.425 458.438C504.708 448.966 496.698 439.908 488.835 430.62C485.186 426.32 481.227 422.642 479.238 416.159C477.925 411.859 478.545 408.572 479.056 404.663C479.475 401.353 479.895 397.376 478.855 394.571C475.334 385.122 474.622 375.213 474.13 365.028C473.564 353.096 472.269 341.647 466.85 330.842C463.438 324.036 459.589 316.496 459.935 307.208C460.264 298.241 465.026 293.137 468.912 286.884C474.823 277.412 482.869 271.366 489.984 263.825C492.976 260.652 495.366 253.939 495.111 249.065C494.527 237.8 499.143 228.673 501.022 218.511C502.099 212.717 503.741 207.039 504.361 201.176C504.872 196.256 504.27 191.129 504.16 186.118C503.704 186.026 503.248 185.934 502.81 185.842C504.106 184.669 505.383 183.497 506.623 182.37C505.62 177.082 504.744 172.346 508.393 167.771C509.67 166.185 508.904 162.116 509.232 159.219C509.397 157.747 509.707 156.161 510.345 154.966C512.498 150.988 512.954 144.643 511.932 143.516C514.706 128.757 514.724 114.181 516.713 99.582C522.113 99.582 527.404 99.582 532.695 99.582C532.841 99.2141 533.042 98.9153 533.096 98.5934C534.246 91.3055 531.983 87.5351 526.182 85.259C514.359 80.661 506.404 69.1428 498.796 57.7166C495.695 53.0266 494.108 46.7043 491.955 41.0486C491.006 38.5197 490.112 36.7954 487.412 37.0713C483.343 37.4851 479.22 37.1863 475.133 37.1863C475.243 39.6922 475.462 42.0372 475.425 44.3592C475.243 55.1187 475.078 65.8782 474.586 76.5917C474.531 77.7182 472.378 79.5574 471.174 79.5804C460.994 79.8103 450.831 79.7184 440.377 79.7184C441.07 84.3624 441.673 88.3627 442.275 92.363C443.15 98.2715 446.489 99.49 450.594 99.4211C457.107 99.3061 463.621 99.3981 470.134 99.3061C473.692 99.2601 475.297 100.088 474.349 105.651C472.78 114.825 472.123 124.274 471.265 133.631C471.046 135.999 471.594 138.482 471.794 140.735C470.317 149.218 468.766 158 467.233 166.783C467.525 166.507 468.073 166.001 469.733 164.461C469.021 167.105 468.966 169.312 468.237 169.748C464.898 171.818 465.956 175.381 466.12 178.462C466.54 185.865 467.306 193.245 467.726 200.647C467.799 201.912 466.887 203.337 466.285 204.579C463.621 210.142 460.756 215.614 462.271 222.672C462.453 223.523 462.49 225.017 462.125 225.362C455.757 231.11 458.33 240.949 455.52 248.306C455.028 249.594 455.922 251.732 456.068 252.812C454.462 256.031 453.422 259.388 451.543 261.618C446.307 267.894 440.468 273.389 435.36 279.826C431.547 284.608 428.427 290.287 425.143 295.735C420.892 302.793 421.056 310.771 424.979 318.082C428.409 324.473 432.496 330.727 434.466 337.854C436.856 346.498 438.443 356.016 438.334 365.097C438.188 376.224 440.341 386.087 443.771 395.95C444.5 398.019 444.865 401.077 444.19 403.008C441.399 410.94 443.004 417.676 447.712 422.918C454.9 430.918 462.672 438.068 470.006 445.885C474.622 450.805 478.873 456.231 484.073 462.369C473.145 467.427 463.329 462.461 453.495 462.737C452.802 465.013 452.163 467.174 451.251 470.186C456.049 471.45 460.884 472.232 465.409 474.117C468.145 475.244 472.761 473.519 473.017 479.957C473.309 487.452 469.824 495.337 465.299 496.97C459.169 499.177 452.984 501.131 446.781 502.993C441.107 504.694 435.579 506.396 435.579 517.201C437.148 517.201 439.173 517.477 441.125 517.155C447.566 516.098 453.951 514.603 460.41 513.753C463.493 513.339 465.044 515.661 466.795 519.339C469.97 525.983 474.075 532.306 478.782 537.295C486.08 544.996 489.82 554.997 493.031 565.688C493.597 567.573 494.162 569.596 495.184 571.09C500.074 578.194 505.109 585.137 510.893 593.253C498.304 594.288 487.175 588.195 474.787 587.643C481.482 596.656 488.963 602.219 497.081 606.84C503.212 610.335 509.324 614.289 512.407 622.727C512.808 623.83 513.556 624.957 514.396 625.555C519.194 629.049 524.12 632.314 528.918 635.831C532.987 638.82 537.183 639.762 541.945 639.303C547.181 638.797 552.527 639.372 557.799 639.969C560.591 640.291 562.507 641.993 561.394 646.545C560.226 651.304 561.558 655.12 565.28 657.419C566.21 657.994 566.885 659.235 567.816 659.81C577.139 665.558 582.065 675.926 584.528 687.72C587.228 700.756 593.869 710.665 599.123 721.746C603.356 730.643 607.169 739.862 611.493 748.691C613.318 752.415 615.471 756.346 618.262 758.76C626.782 766.232 631.599 776.601 634.135 788.809C636.561 800.465 639.59 811.615 646.395 820.604C647.563 822.145 648.147 824.49 648.731 826.605C651.23 835.479 653.93 844.261 655.937 853.297C657.251 859.228 657.068 865.849 653.693 870.677C649.351 876.908 649.88 882.839 653.055 888.886C657.087 896.564 657.233 903.323 653.839 912.06C650.61 920.428 646.632 929.647 648.457 939.717C649.132 943.419 651.121 947.626 653.529 949.741C659.112 954.638 665.297 958.523 671.317 962.615C675.514 965.466 679.947 967.788 684.07 970.823C686.698 972.754 688.194 975.674 688.449 980.134C689.124 991.537 692.518 1001.93 699.232 1009.75C705.727 1017.31 713.207 1023.52 719.629 1031.15C722.694 1034.78 724.482 1040.23 726.58 1045.04C729.901 1052.65 732.984 1060.42 736.177 1068.12C736.797 1069.61 738.038 1071.06 738.038 1072.56C738.111 1085.68 745.609 1094.92 748.985 1106.28C749.404 1107.68 750.207 1109.04 750.262 1110.44C750.59 1118.83 753.856 1124.72 759.129 1129.69C762.121 1132.51 763.836 1137.48 766.773 1140.45C771.188 1144.91 776.133 1148.58 780.949 1152.4C783.85 1154.7 786.678 1156.61 787.663 1161.41C790.254 1174.13 798.774 1178.1 807.367 1181.9C822.529 1188.61 838.182 1192.5 854.128 1194.79C868.998 1196.93 883.812 1199.48 898.682 1201.55C906.746 1202.68 914.919 1202.73 922.965 1204.04C937.342 1206.38 951.773 1208.59 965.968 1212.18C977.535 1215.1 978.155 1216.54 978.83 1231.1C979.268 1240.57 981.804 1249.01 985.635 1256.66C987.733 1260.85 991.601 1263.77 994.94 1266.8C1000.94 1272.27 1005.45 1282.16 1003.02 1288.25C1000.01 1295.84 994.812 1301.06 987.569 1301.72C987.077 1301.7 986.675 1301.84 986.128 1301.98Z" fill="url(#paint6_linear)"/>
<path d="M490.713 665.627C494.198 658.339 489.473 656.109 486.426 653.281C477.322 644.866 466.922 644.544 456.322 646.545C453.184 647.142 450.028 648.062 447.09 649.533C446.032 650.062 445.631 652.66 444.919 654.315C446.069 654.66 447.2 655.281 448.349 655.327C452.819 655.442 457.307 655.373 461.832 656.2C459.843 656.752 457.855 657.304 455.866 657.833C455.793 658.568 455.702 659.281 455.629 660.017C459.989 661.971 464.35 663.925 469.112 666.063C467.999 667.788 467.105 669.144 465.974 670.914C469.55 676.432 475.297 672.983 479.475 676.547C477.139 677.558 474.986 678.501 471.447 680.064C474.567 681.329 476.391 682.8 478.143 682.685C492.191 681.789 501.605 692.111 510.381 703.744C515.581 710.618 520.434 717.929 525.159 725.332C531.052 734.528 529.994 739.425 521.766 745.081C518.482 747.334 515.38 750.185 512.57 753.266C508.757 757.45 509.049 762.692 512.953 766.784C514.358 768.255 516 769.382 517.204 771.037C518.098 772.256 519.193 774.417 518.865 775.566C518.39 777.222 516.876 779.107 515.526 779.567C507.626 782.325 501.386 778.21 497.883 768.945C497.044 766.738 495.256 764.807 493.541 763.45C488.688 759.588 482.905 757.059 478.891 752.185C475.096 747.564 472.98 740.667 470.316 734.62C469.075 731.816 468.382 728.643 467.251 725.746C465.59 721.493 463.821 717.309 461.996 713.148C459.898 708.366 457.672 703.652 454.972 697.744C454.68 701.376 454.498 703.606 454.242 706.549C454.042 703.836 453.896 701.836 453.75 699.836C453.513 699.813 453.294 699.79 453.056 699.767C452.819 702.158 452.564 704.549 452.29 707.285C452.071 705.928 451.907 704.871 451.743 703.836C451.195 711.515 450.21 719.171 453.695 726.367C454.534 728.114 454.607 730.919 454.242 733.011C452.108 745.357 456.249 754.024 463.93 760.852C469.422 765.726 473.709 771.842 475.406 780.141C476.264 784.348 476.172 788.832 476.756 793.154C477.559 799.131 478.581 805.086 482.923 808.833C483.689 809.477 485.276 810.098 485.714 809.615C493.158 801.637 502.335 798.901 511.403 795.775C520.032 792.786 528.571 789.084 537.328 786.923C542.218 785.728 547.563 786.487 552.599 787.314C557.069 788.05 558.674 793.453 559.039 797.959C559.678 805.936 562.889 811.73 566.848 817.34C568.235 819.317 569.53 821.478 570.625 823.731C573.27 829.18 571.61 833.778 566.647 834.352C563.181 834.743 559.568 835.18 556.211 834.375C536.088 829.478 516 824.26 495.913 819.087C493.87 818.558 491.899 817.639 489.546 816.742C489.235 818.466 488.688 819.777 488.871 820.903C490.805 832.582 492.83 844.192 498.996 853.894C503.339 860.745 506.093 868.217 506.933 877.459C507.48 883.437 511.238 889.368 514.413 894.472C518.591 901.185 519.102 904.22 514.358 910.106C509.177 916.543 505.893 924.383 503.357 932.751C500.766 941.326 506.604 955.879 514.504 961.535C517.624 963.765 520.561 966.478 523.791 968.432C528.589 971.375 529.921 976.272 528.534 982.065C524.283 999.699 531.453 1011.61 541.707 1020.44C551.632 1028.99 557.543 1040.58 562.56 1053.54C564.586 1058.81 567.578 1063.61 568.946 1069.11C571.592 1079.75 577.065 1088.35 580.842 1098.07C582.867 1103.27 582.447 1109.94 583.341 1115.89C583.742 1118.56 584.107 1121.64 585.384 1123.64C588.997 1129.34 592.81 1134.93 597.025 1139.89C600.6 1144.1 604.924 1147.25 608.792 1151.09C612.113 1154.38 615.853 1157.37 618.334 1161.5C624.172 1171.25 632.091 1176.36 640.994 1179.76C659.093 1186.7 677.556 1191.28 696.385 1193.65C714.374 1195.9 732.345 1198.34 750.352 1200.5C767.32 1202.54 784.36 1203.94 801.291 1206.4C811.763 1207.92 822.126 1210.89 832.526 1213.26C833.712 1213.53 834.861 1214.08 835.974 1214.68C841.265 1217.6 841.867 1219.76 839.039 1226.02C838.218 1227.83 837.251 1229.56 836.229 1231.21C830.811 1239.95 831.413 1252.62 837.616 1260.59C843.527 1268.2 849.712 1275.51 855.131 1283.63C858.47 1288.62 861.589 1288.2 865.421 1285.86C876.149 1279.31 885.764 1270.8 894.302 1260.25C898.152 1255.49 905.066 1254.62 909.007 1258.29C912.601 1261.65 916.269 1265.1 919.297 1269.21C924.479 1276.3 929.459 1283.54 929.332 1294.37C929.295 1297.12 931.557 1300.5 933.473 1302.62C936.794 1306.3 937.505 1310.02 936.228 1315.29C932.743 1329.66 921.468 1338.21 908.624 1335.68C902.111 1334.39 895.616 1333.01 888.61 1332.35C889.777 1333.38 890.836 1334.78 892.113 1335.43C902.056 1340.35 912.127 1344.9 921.997 1350.05C926.704 1352.49 931.174 1355.75 935.517 1359.11C936.921 1360.19 937.432 1362.97 938.728 1364.51C939.968 1366 941.647 1367.82 943.179 1367.89C950.988 1368.23 958.833 1368.33 966.624 1367.87C968.101 1367.77 969.47 1364.78 970.875 1363.13C972.954 1360.67 974.797 1357.75 977.151 1355.82C982.077 1351.77 983.354 1348.14 980.763 1341.91C978.227 1335.84 976.895 1329.95 977.133 1322.71C977.406 1314.92 974.779 1307.63 970.437 1301.08C966.587 1295.29 963.704 1288.07 961.679 1280.89C959.435 1272.92 955.02 1268.46 949.62 1264.87C944.347 1261.35 940.899 1256.89 940.424 1248.61C940.151 1243.81 937.596 1239.19 936.009 1234.52C934.531 1230.18 932.871 1225.9 931.448 1221.51C928.693 1212.98 922.18 1212.2 916.524 1211.03C904.099 1208.43 891.547 1206.89 879.013 1205.07C862.611 1202.7 846.173 1200.8 829.807 1198.11C813.679 1195.44 797.533 1192.63 781.569 1188.73C773.286 1186.7 765.386 1182.26 757.358 1178.68C752.213 1176.38 748.82 1171.37 747.196 1165.09C745.718 1159.37 743.31 1155.5 738.949 1153.11C730.21 1148.31 724.262 1139.41 718.041 1130.72C713.772 1124.77 709.904 1119.62 708.609 1110.77C707.423 1102.6 702.387 1095.41 699.523 1087.5C698.191 1083.82 698.081 1079.43 697.242 1075.43C696.768 1073.13 696.111 1070.88 695.272 1068.76C693.721 1064.9 691.842 1061.27 690.364 1057.36C685.128 1043.56 679.873 1029.82 669.164 1021.1C659.184 1012.99 652.616 1001.52 648.602 987.606C648.255 986.387 648.146 985.008 648.073 983.698C647.617 976.594 644.679 972.087 639.461 969.375C630.905 964.937 622.312 960.546 614.065 955.328C608.902 952.063 604.213 947.534 599.579 943.143C595.583 939.349 596.185 932.981 596.441 927.992C597.207 913.531 598.995 899.139 592.865 885.69C590.584 880.701 591.606 876.54 594.78 872.884C596.003 871.482 597.426 870.309 598.575 868.815C604.012 861.596 608.044 852.262 603.319 842.008C601.64 838.353 601.495 833.617 600.4 829.501C599.597 826.49 598.904 823.087 597.28 820.834C590.986 812.029 588.468 800.947 584.892 790.464C580.55 777.681 575.405 766.002 566.246 756.99C560.408 751.242 557.087 741.632 551.833 734.735C542.382 722.298 532.293 710.664 522.568 698.572C517.241 691.927 512.278 684.823 506.86 678.317C503.977 674.869 500.529 672.087 497.154 669.351C495.274 667.742 493.049 666.937 490.713 665.627ZM567.943 1005.95C563.911 998.135 561.958 989.514 562.378 980.226C562.561 975.996 561.429 973.26 558.656 971.352C554.186 968.271 549.698 965.282 545.21 962.248C537.547 957.052 530.56 950.867 528.06 939.648C525.871 929.831 526.126 919.991 529.957 910.772C532.457 904.772 532.457 899.346 529.1 893.828C527.549 891.276 526.272 888.334 525.378 885.322C524.393 881.988 522.879 877.988 523.535 874.93C525.925 863.734 523.9 854.078 519.12 844.698C517.442 841.387 517.989 838.284 521.62 837.594C523.718 837.18 525.925 836.651 527.969 837.111C543.039 840.537 558.109 844.054 573.106 848.032C574.657 848.445 576.426 851.825 576.828 854.17C578.068 861.55 574.73 866.93 570.862 871.758C564.659 879.505 564.914 879.758 568.344 889.46C569.986 894.081 571.482 900.082 570.515 904.565C568.453 913.991 564.695 922.842 561.685 931.946C560.17 936.521 560.134 941.464 563.327 944.453C569.001 949.787 575.003 954.73 581.243 958.937C588.34 963.719 595.966 967.214 603.118 971.858C607.661 974.8 609.084 983.95 605.8 986.433C603.775 987.974 601.494 989.054 599.287 990.158C589.033 995.331 578.762 1000.5 567.943 1005.95ZM883.483 1257.54C877.316 1266.64 869.526 1265.79 861.808 1262.27C859.345 1261.14 856.919 1257.79 855.751 1254.68C852.558 1246.18 851.883 1237.3 853.398 1227.72C855.113 1216.87 854.036 1214.91 845.334 1212.68C832.964 1209.51 820.448 1207.09 807.914 1205.16C794.468 1203.09 780.912 1202.13 767.411 1200.43C750.516 1198.29 733.64 1195.85 716.746 1193.58C700.125 1191.32 684.051 1186.43 668.397 1179.05C662.358 1176.2 657.505 1171.53 655.827 1164.03C654.203 1156.72 650.08 1154.19 645.646 1150.93C641.158 1147.64 636.871 1143.69 633.021 1139.3C628.825 1134.54 625.121 1129.07 621.454 1123.62C619.958 1121.39 618.973 1118.54 618.061 1115.8C616.747 1111.87 615.78 1107.73 614.503 1103.78C612.587 1097.8 610.507 1091.91 608.172 1085.02C610.27 1085.02 611.128 1084.69 611.693 1085.06C619.903 1090.56 629.226 1094.63 629.901 1109.29C630.211 1116.01 632.474 1121.36 637.199 1125.48C642.673 1130.26 648.018 1135.69 648.31 1145.43C648.347 1146.7 649.989 1147.96 650.992 1149.07C658.29 1157.18 667.522 1160.06 676.443 1163.69C691.896 1169.97 707.404 1176.1 722.931 1182.1C730.484 1185.02 738.037 1188.15 745.755 1189.97C756.628 1192.54 767.666 1194.1 778.65 1195.9C788.757 1197.55 798.901 1199.12 809.045 1200.4C817.292 1201.46 825.593 1201.9 833.839 1202.91C844.768 1204.24 855.715 1205.49 866.589 1207.46C876.842 1209.32 887.059 1211.72 897.166 1214.57C902.731 1216.13 903.917 1219.53 904.118 1226.66C904.282 1232.45 901.49 1234.87 897.987 1236.68L883.483 1257.54ZM703.701 1165.48C696.166 1161.23 689.105 1157.67 682.391 1153.25C679.235 1151.18 675.367 1148.15 674.236 1144.4C672.101 1137.27 669.036 1131.8 664.42 1127.04C661.282 1123.8 657.889 1121.02 656.32 1115.23C654.331 1107.89 652.342 1100.26 647.069 1094.69C638.75 1085.91 629.317 1078.58 622.914 1067.06C621.947 1065.34 619.757 1064.58 619.009 1062.81C613.408 1049.47 606.84 1036.99 598.74 1025.86C595.948 1022.02 596.204 1018.44 597.992 1014.41C601.02 1007.61 605.654 1003.29 610.799 1001.01C615.926 1007.1 620.706 1013.1 625.778 1018.71C629.354 1022.67 633.386 1025.98 637.09 1029.75C645.865 1038.64 648.857 1051.82 652.744 1064.23C654.969 1071.34 656.155 1078.92 658.345 1086.03C660.133 1091.82 663.307 1096.97 664.767 1102.86C667.686 1114.6 670.039 1125.62 678.395 1134.54C683.613 1140.1 687.937 1147.02 694.359 1151C698.702 1153.69 703.573 1156.17 703.701 1165.48Z" fill="url(#paint7_linear)"/>
<path d="M243.831 75.4196C243.831 86.2941 243.831 95.6281 243.831 104.939C238.594 98.8698 233.924 92.7543 228.669 87.6045C226.024 85.0066 222.795 82.9835 219.766 81.0753C215.88 78.6613 211.465 77.3048 207.159 76.3163C202.89 75.3507 198.456 74.7529 194.151 75.1667C177.42 76.7301 166.218 84.179 159.833 107.33C159.249 109.445 160.234 112.227 160.362 113.515C159.157 115.538 157.88 116.756 157.68 118.228C156.64 125.286 156.001 132.459 155.016 139.54C153.447 150.736 151.568 161.863 150.108 173.06C149.543 177.336 149.725 181.75 149.616 186.118C149.415 194.647 149.616 203.246 148.977 211.706C148.12 223.04 146.696 234.329 145.365 245.594C144.252 254.928 141.497 263.251 134.491 267.941C124.402 274.7 120.023 287.069 115.754 299.069C113.528 305.346 116.903 311.415 120.844 316.128C126.5 322.91 132.155 329.693 137.629 336.705C140.42 340.268 142.044 344.452 139.928 349.694C139.326 351.166 139.088 353.051 139.125 354.729C139.563 369.834 141.004 384.272 147.773 397.767C154.998 412.182 165.142 417.975 177.749 417.929C182.146 417.906 187.072 415.791 190.794 412.757C199.77 405.446 209.02 407.101 218.398 409.676C220.021 410.113 221.554 413.055 222.448 415.263C225.55 423.01 229.947 427.378 237.226 427.057C246.294 426.666 255.379 426.965 264.447 426.965C264.629 426.459 264.794 425.976 264.976 425.47C263.517 424.229 262.093 422.849 260.561 421.769C256.876 419.194 253.135 416.688 249.377 414.274C246.476 412.389 245.327 409.331 245.838 405.469C246.677 399.077 244.068 393.951 242.626 388.249C241.13 382.409 241.276 375.857 240.93 369.581C240.401 360.086 240.072 350.591 239.616 341.096C239.58 340.176 239.434 339.119 239.032 338.36C235.11 331.072 231.26 323.738 227.137 316.634C224.856 312.726 223.871 302.564 226.425 298.242C232.793 287.459 239.415 276.723 248.629 269.596C255.434 264.331 259.63 257.779 260.342 247.594C261.4 232.26 266.6 218.373 270.34 203.959C271.489 199.498 272.201 194.762 272.475 190.095C273.004 180.37 273.898 170.875 277.255 161.909C278.258 159.242 278.276 156.001 278.733 153.012C280.521 141.471 282.144 129.884 284.115 118.412C285.629 109.583 290.592 104.548 297.068 101.606C298.437 100.985 299.86 100.525 301.301 99.9503C301.301 97.0535 301.301 94.4096 301.301 91.4209C282.4 86.1561 263.571 80.9143 243.831 75.4196ZM182.273 211.109C184.317 203.177 189.407 196.326 187.017 186.486C187.71 180.761 188.404 174.577 189.279 168.438C189.516 166.806 190.483 165.358 190.794 163.725C192.016 157.518 192.91 151.196 194.278 145.034C196.012 137.195 197.617 129.217 200.171 121.768C201.813 117.009 204.422 112.043 207.688 109.031C217.613 99.9043 228.761 103.744 236.934 112.503C239.853 115.63 242.809 120.366 241.824 126.688C241.021 131.815 240.857 137.08 240.455 142.298C240.273 144.781 240.419 147.333 240.054 149.77C238.321 161.725 234.964 173.312 235.931 185.819C236.423 192.233 237.007 198.924 236.131 205.177C234.015 220.305 231.187 235.294 228.414 250.284C227.283 256.422 225.495 262.331 220.715 265.779C211.209 272.608 205.864 284.241 199.879 295.023C195.902 302.173 192.545 309.898 188.604 317.071C187.437 319.209 185.284 321.577 183.405 321.853C171.308 323.623 160.161 319.807 150.382 310.68C145.419 306.059 144.288 299.966 146.313 293C149.214 282.976 154.122 274.447 161.584 269.711L182.273 211.109ZM210.261 369.397C210.625 376.593 210.388 383.835 210.99 390.985C211.465 396.387 210.352 399.445 206.028 400.319C202.762 400.963 199.423 401.146 197.599 401.376C193.074 401.009 189.827 401.56 187.072 400.319C182.912 398.457 177.657 396.617 175.45 392.548C171.126 384.593 166.218 376.34 168.973 364.822C170.652 357.741 171.6 353.281 177.165 352.499" fill="url(#paint8_linear)"/>
<path d="M424.906 138.574C427.551 134.229 424.322 128.711 423.756 123.354C423.264 118.825 421.476 114.411 419.761 110.273C417.954 105.882 417.133 100.801 412.262 98.7317C409.471 97.5592 407.993 92.1795 405.293 89.8574C386.154 73.2354 365.465 71.4882 344.337 82.2017C332.132 88.3861 324.287 100.87 318.722 115.859C312.829 131.769 311.224 148.92 308.469 165.794C307.027 174.577 307.319 183.037 308.177 191.865C308.724 197.59 307.046 203.728 306.006 209.591C304.71 216.902 303.032 224.098 301.225 232.673C307.301 231.156 312.866 229.731 318.448 228.374C333.336 224.811 348.224 221.155 363.148 217.776C368.803 216.488 374.514 215.546 380.243 215.063C384.476 214.718 385.351 216.58 384.184 221.776C382.049 231.225 379.896 240.651 377.743 250.1C375.992 257.733 371.777 263.112 367.435 268.469C363.823 272.929 360.63 277.964 356.908 282.286C354.846 284.677 352.055 287.666 349.61 287.643C342.55 287.551 335.489 286.149 328.428 285.137C313.048 282.953 297.704 280.608 282.306 278.585C280.792 278.378 278.548 279.459 277.654 280.93C274.023 286.907 270.593 293.092 267.473 299.529C265.211 304.196 267.783 312.45 271.414 317.646C276.121 324.382 280.226 331.831 284.477 339.072C285.043 340.061 285.079 341.624 285.17 342.958C285.718 350.315 286.958 357.741 286.52 365.006C285.827 376.409 287.943 386.685 291.72 396.778C292.578 399.054 292.943 401.905 292.815 404.434C292.413 411.906 295.095 417.607 299.784 421.01C307.283 426.436 315.11 431.264 323.083 435.517C337.551 443.219 352 451.196 366.906 457.243C375.098 460.553 384.22 460.346 392.941 461.335C395.094 461.588 397.448 460.553 399.564 459.634C403.505 457.955 405.183 454.369 403.632 449.311C401.261 441.54 398.798 433.793 396.097 426.206C393.744 419.539 392.193 413.055 394.966 405.905C396.535 401.905 397.046 397.56 395.203 393.353C391.226 384.294 391.244 374.386 390.806 364.408C390.314 353.212 387.45 342.751 382.943 332.888C379.951 326.336 376.813 319.163 376.083 311.898C375.171 302.748 379.276 294.977 384.932 288.816C392.394 280.7 399.6 272.24 407.026 264.032C411.277 259.319 412.335 252.882 413.576 246.444C416.531 230.972 419.56 215.545 422.516 200.096C422.935 197.935 423.136 195.705 423.318 193.498C424.085 183.704 424.76 173.91 425.544 164.116C426.073 157.564 426.84 151.058 427.168 144.505C427.259 142.942 425.982 141.264 424.906 138.574ZM374.423 454.599C365.702 455.266 357.966 451.288 350.595 446.184C339.594 438.552 328.611 430.873 317.846 422.711C312.683 418.78 311.023 412.504 312.008 404.687C312.501 400.755 312.172 396.134 310.95 392.502C308.377 384.892 307.465 377.19 307.812 369.098C307.921 366.615 308.031 364.086 307.83 361.626C307.21 354.062 307.538 345.97 305.404 339.118C302.977 331.279 298.598 324.313 294.566 317.416C290.607 310.656 291.556 296.081 299.766 294.862C303.324 294.333 307.21 293.942 310.567 295.161C320.328 298.678 329.943 302.863 339.503 307.231C341.765 308.265 343.991 310.587 345.396 313.07C349.154 319.738 352.237 327.026 356.014 333.716C363.586 347.119 363.202 359.81 353.934 371.512C351.143 375.029 351.088 378.409 353.606 382.064C357.455 387.651 361.451 393.077 365.009 398.939C366.286 401.054 367.326 404.365 367.034 406.894C366.103 415.124 369.004 420.941 372.982 426.827C377.233 433.103 380.936 439.954 384.731 446.69C386.993 450.713 385.716 453.173 382.104 453.84C379.586 454.277 376.995 454.346 374.423 454.599ZM346.235 150.391C347.366 146.988 348.315 144.804 348.844 142.482C351.964 128.803 354.481 114.848 358.24 101.445C360.356 93.8808 365.72 88.9608 372.361 88.593C378.729 88.2481 384.019 91.6507 387.595 98.7547C388.8 101.169 391.956 103.399 391.755 105.307C390.733 115.423 394.912 125.24 392.54 135.309C392.376 135.976 392.74 136.827 392.704 137.562C392.576 140.505 392.357 143.448 392.211 146.391C392.084 148.667 391.81 150.966 391.919 153.219C392.321 160.966 391.007 163.105 385.114 164.116C384.457 164.231 383.874 164.898 383.162 165.381C383.563 167.105 384.494 168.921 384.111 169.91C383.381 171.772 382.013 174.347 380.699 174.554C376.831 175.174 372.854 174.784 368.603 174.784C369.022 172.807 369.387 171.036 369.898 168.53C368.384 168.369 367.143 168.002 365.939 168.162C359.499 168.99 353.077 170.002 346.655 170.852C343.589 171.266 342.385 169.565 343.371 165.748C344.447 161.587 345.615 157.449 346.509 153.219C346.746 151.977 346.235 150.437 346.235 150.391Z" fill="url(#paint9_linear)"/>
<path d="M99.1509 47.532C97.5272 43.8535 95.9216 40.198 94.1337 36.1517C89.9556 36.1517 84.9749 36.1517 79.9758 36.1517C79.9576 36.4966 79.9211 36.8414 79.9029 37.2093C81.8003 37.3472 83.716 37.4852 86.9635 37.7151C83.8437 39.0025 81.8915 39.8072 79.1913 40.9337C81.1617 41.4395 82.3658 41.7384 83.57 42.0373C83.5517 42.3131 83.5335 42.566 83.5153 42.8419C82.5848 43.0258 81.6361 43.2098 80.4685 43.4397C80.4685 49.785 80.4319 56.0614 80.4866 62.3147C80.5049 66.0621 80.6326 69.8096 80.7603 73.557C80.8698 76.9136 79.7022 79.0517 77.002 79.2586C74.1376 79.4885 71.2366 79.0057 68.3904 79.3965C63.1725 80.1092 57.9911 81.2587 52.7913 82.1784C51.9886 82.3163 51.1493 82.2013 50.2918 81.4886C51.6419 81.2587 52.9921 81.0288 54.3605 80.8219C54.3422 80.569 54.3239 80.3161 54.3057 80.0632C51.8427 80.0632 49.3614 80.0632 46.5517 80.0632C47.8471 84.9142 49.0513 89.4203 50.5656 95.0759C50.2372 94.984 51.4048 94.915 52.1894 95.5357C58.0276 100.18 64.3402 96.5013 70.3792 97.329C73.3895 97.7428 76.5641 97.5589 79.3008 98.8233C80.359 99.3061 80.9975 103.146 80.8698 105.376C80.5596 111.56 79.8846 117.721 79.1001 123.814C77.0567 139.562 75.4147 155.425 72.532 170.921C71.1819 178.163 71.3096 184.784 71.711 192.003C72.1853 200.601 70.7623 209.361 70.1237 218.051C69.7771 222.787 69.4123 227.546 68.9561 232.259C68.2628 239.363 68.4817 246.973 66.3836 253.387C64.5774 258.951 60.5635 263.871 56.6775 267.71C51.9156 272.423 47.1538 276.584 43.8516 283.413C42.392 286.447 38.5606 288.792 35.5684 289.275C28.7815 290.402 21.8121 290.884 14.9886 290.287C8.76717 289.735 4.64385 292.54 1.14089 298.586C-0.829525 302.012 -0.190976 303.989 2.61869 304.955C7.45351 306.61 12.3431 307.966 17.2509 309.231C28.0699 312.059 35.7692 319.76 43.0488 330.359C49.033 339.072 51.3135 347.004 50.4925 358.062C49.4891 371.672 52.7913 384.294 58.7208 395.835C59.8338 397.996 60.1075 400.985 60.3812 403.652C60.6548 406.25 60.4358 408.94 60.4358 412.986C68.6824 407.79 76.2539 403.284 83.57 398.203C84.8106 397.33 85.3032 394.111 85.6133 391.881C86.0147 388.892 85.7593 385.766 85.9783 382.731C86.5439 375.236 87.6933 367.741 87.6203 360.246C87.5838 357.671 84.9931 353.878 82.8949 352.82C74.7578 348.728 72.8422 339.601 70.9265 330.658C70.4886 328.612 72.8786 325.715 73.7726 323.094C74.5389 320.91 75.1045 318.588 75.5788 316.266C75.8343 315.047 75.5424 313.668 75.7613 312.426C76.8013 306.334 75.0681 302.426 70.1785 300.104C62.8989 296.655 62.8442 293.781 68.354 286.7C74.8309 278.378 81.3989 270.492 89.2805 264.262C94.9728 259.756 95.3196 251.065 95.502 244.168C95.8304 231.271 101.03 221.086 105.299 210.51C108.638 202.211 110.536 194.302 110.9 184.922C111.338 173.565 113.965 162.346 115.407 151.011C115.735 148.505 115.078 145.793 114.221 143.172C118.983 130.803 119.074 116.94 120.296 103.421C120.643 99.674 121.719 97.8578 124.675 98.1106C127.248 98.3176 129.838 99.1452 132.338 98.8003C133.998 98.5704 136.461 97.168 136.881 95.5817C137.392 93.6045 136.735 90.2709 135.567 88.6846C133.451 85.7878 131.097 82.0864 127.083 84.7073C126.755 84.9142 125.916 84.3394 125.496 83.8796C119.658 76.9596 113.692 70.1774 108.091 62.9585C105.208 59.234 103.037 54.6589 100.446 50.5667C99.8624 49.6471 98.786 49.2332 97.9467 48.5895C98.3663 48.1987 98.7678 47.8538 99.1509 47.532Z" fill="url(#paint10_linear)"/>
<path d="M601.898 1171.3C601.46 1165.23 597.282 1163.94 593.87 1161.5C588.141 1157.43 582.449 1153.3 576.848 1148.97C575.37 1147.82 573.947 1146.1 573.144 1144.19C569.66 1135.89 564.423 1129.82 558.585 1124.26C556.651 1122.42 555.265 1119.45 553.969 1116.74C549.554 1107.52 545.376 1098.14 540.961 1088.92C538.79 1084.39 537.458 1079.98 536.819 1074.44C535.834 1066.05 532.495 1058.09 530.051 1050C526.347 1037.72 519.596 1028.67 511.295 1020.94C507.099 1017.03 503.614 1011.95 499.856 1007.31C496.407 1003.05 496.645 998.158 499.053 993.491C500.932 989.858 503.34 986.617 505.493 983.214C508.358 978.731 507.5 974.961 503.815 971.42C497.156 965.006 489.985 965.259 482.359 967.236C474.788 969.213 467.125 970.661 459.517 972.363C451.927 974.064 448.917 980.133 450.796 989.881C452.785 1000.3 456.361 1009.45 463.622 1015.72C464.352 1016.34 464.863 1017.35 465.118 1019.01C461.268 1016.39 457.51 1013.54 453.551 1011.24C444.848 1006.14 436.474 1000.14 426.585 998.664C418.996 997.537 412.117 999.238 405.604 1003.86C399.93 1007.88 398.525 1017.47 403.068 1024.11C410.293 1034.71 417.007 1045.79 425.929 1054.65C433.099 1061.77 440.068 1068.76 448.442 1073.47C456.324 1077.91 464.334 1079.36 472.817 1077.41C482.067 1075.27 485.57 1070.6 486.446 1058.78C486.592 1056.9 486.683 1054.99 486.847 1052.3C487.942 1053.36 489 1053.89 489.329 1054.83C491.919 1062.19 494.401 1069.61 496.845 1077.04C497.885 1080.19 498.506 1083.54 499.692 1086.58C503.413 1096.12 506.351 1105.59 503.578 1116.6C503.085 1118.58 504.618 1121.98 505.931 1123.96C508.522 1127.92 511.733 1131.2 514.488 1135.02C516.039 1137.18 517.024 1140.01 518.575 1142.17C520.125 1144.33 521.95 1146.33 523.902 1147.89C528.737 1151.78 534.302 1153.66 538.534 1159.55C540.742 1162.61 546.452 1161.71 550.594 1162.47C560.811 1164.31 571.028 1166.1 581.263 1167.87C588.087 1169.04 594.892 1170.13 601.898 1171.3Z" fill="url(#paint11_linear)"/>
<path d="M422.697 866.492C424.411 866.791 425.871 867.274 427.331 867.274C439.482 867.274 451.651 867.32 463.802 866.998C465.535 866.952 467.232 864.883 468.947 863.756C467.615 862.216 466.502 860.055 464.951 859.227C453.822 853.457 448.385 842.467 446.141 828.167C445.63 824.926 444.9 821.063 443.149 818.925C435.632 809.614 433.534 797.153 430.323 785.405C427.44 774.784 423.061 766.162 415.837 759.219C411.823 755.357 408.739 749.54 406.167 743.908C404.944 741.218 405.765 736.942 405.948 733.401C406.021 731.976 406.97 730.642 407.335 729.194C409.542 720.297 407.316 715.193 400.11 714.572C393.195 713.975 386.171 714.227 379.238 714.894C374.695 715.331 374.184 717.4 376.228 722.596C379.019 729.746 378.216 732.045 371.94 733.263C363 735.011 354.097 734.367 345.358 731.539C334.484 727.999 324.358 729.631 314.871 737.448C307.135 743.816 306.424 751.518 313.138 759.334C315.582 762.185 318.155 764.829 320.636 767.611C324.997 772.439 326.11 778.462 324.413 785.29C321.475 797.084 322.078 807.568 329.74 816.787C332.897 820.581 335.341 825.891 336.947 831.087C339.884 840.605 345.029 847.249 352.09 851.365C365.062 858.951 378.672 862.147 392.848 858.101C396.479 857.066 400.055 855.112 403.357 852.836C408.739 849.158 414.249 850.054 419.759 851.319C420.909 851.572 422.313 854.054 422.532 855.71C423.007 859.066 422.697 862.561 422.697 866.492ZM397.282 846.123C381.865 844.743 369.55 840.053 360.409 823.201C358.877 820.397 356.925 817.937 355.082 815.408C348.788 806.671 347.219 796.832 350.503 785.773C352.655 778.554 351.798 772.347 346.89 767.197C345.047 765.266 343.478 762.875 341.909 760.53C338.516 755.449 340.067 752.092 343.734 748.667C345.212 747.287 347.383 746.943 349.298 746.552C362.654 743.77 374.129 749.747 385.623 757.656C395.64 764.53 401.752 774.807 404.434 787.819C406.933 800.004 409.925 811.224 416.658 820.879C420.981 827.087 418.92 838.076 412.954 841.203C408.046 843.801 402.536 844.56 397.282 846.123Z" fill="url(#paint12_linear)"/>
<path d="M226.661 741.886C222.52 742.667 220.695 745.679 222.775 749.886C224.964 754.37 227.938 758.278 230.748 762.232C232.755 765.083 235.163 767.474 237.206 770.279C241.384 776.026 240.345 783.751 234.652 786.326C229.544 788.625 224.125 789.821 218.798 791.292C211.317 793.361 209.511 799.201 214.273 806.626C217.32 811.362 221.005 815.202 223.03 821.225C223.997 824.076 228.084 825.731 231.003 826.904C234.743 828.398 238.757 828.674 242.607 829.778C253.791 832.996 255.305 835.249 256.309 849.641C256.509 852.492 256.436 855.389 256.582 858.24C256.838 863.16 258.279 864.355 261.782 861.872C265.449 859.251 268.715 855.711 272.4 853.136C278.987 848.538 285.847 844.515 292.433 839.871C294.148 838.652 296.082 836.169 296.319 833.985C296.483 832.514 294.075 829.548 292.433 828.996C283.274 825.892 276.086 819.754 271.05 809.477C266.744 800.695 267.419 796.465 274.553 791.476C280.884 787.039 280.993 786.05 276.578 778.9C274.863 776.141 273.823 772.647 271.926 770.164C269.244 766.692 266.398 762.945 263.023 760.876C252.787 754.645 242.278 749.151 231.843 743.495C230.219 742.621 228.394 742.415 226.661 741.886Z" fill="url(#paint13_linear)"/>
<path d="M363.111 556.261C364.278 559.296 365.574 561.02 365.337 562.308C364.132 568.791 367.672 570.906 371.175 572.745C381.355 578.056 391.317 584.355 402.483 585.712C407.573 586.333 412.791 586.563 417.863 585.965C423.227 585.321 425.215 581.39 424.832 575.09C423.902 559.181 418.374 547.686 406.132 541.662C400.512 538.904 395.44 534.26 389.766 531.731C385.625 529.868 380.881 529.248 376.448 529.501C371.795 529.754 371.011 532.673 372.853 538.099C373.237 539.203 373.091 541.18 372.525 542.099C369.478 546.996 366.194 551.686 363.111 556.261ZM374.477 557.158C379.111 548.881 385.442 549.502 391.919 552.307C398.013 554.951 400.567 562.561 397.265 567.228C393.762 572.171 380.972 570.515 378.181 564.745C376.995 562.354 375.827 559.94 374.477 557.158Z" fill="url(#paint14_linear)"/>
<path d="M848.421 1451.78C849.023 1453.41 849.698 1454.68 849.534 1454.86C846.067 1459 849.424 1461.64 850.902 1464.49C852.234 1467.05 854.058 1467.85 856.175 1465.55C857.525 1464.08 859.222 1462.95 860.262 1461.23C861.265 1459.55 861.648 1457.25 862.287 1455.23C860.772 1454.59 859.313 1453.71 857.762 1453.37C854.879 1452.7 851.924 1452.36 848.421 1451.78Z" fill="url(#paint15_linear)"/>
<path d="M948.088 1389.36C949.84 1390.83 951.518 1393.32 953.361 1393.55C956.481 1393.91 959.71 1392.81 962.903 1392.35C962.447 1390.56 962.1 1387.29 961.535 1387.22C957.32 1386.79 953.087 1386.99 948.836 1386.99C948.581 1387.75 948.325 1388.56 948.088 1389.36Z" fill="url(#paint16_linear)"/>
<path d="M925.064 1500.43C909.702 1498.77 894.34 1497.14 878.996 1495.48C878.96 1496.01 878.923 1496.54 878.887 1497.07C894.358 1498.75 909.848 1500.43 925.319 1502.13C925.228 1501.58 925.137 1501 925.064 1500.43Z" fill="url(#paint17_linear)"/>
<path d="M381.283 165.035C378.364 170.967 377.944 171.013 373.839 166.645C376.321 166.093 378.309 165.656 381.283 165.035Z" fill="url(#paint18_linear)"/>
<path d="M381.283 165.035C378.309 165.679 376.321 166.093 373.839 166.645C377.944 171.013 378.364 170.944 381.283 165.035Z" fill="url(#paint19_linear)"/>
<defs>
<linearGradient id="paint0_linear" x1="543" y1="0" x2="543" y2="1513.78" gradientUnits="userSpaceOnUse">
<stop/>
<stop offset="1" stop-opacity="0"/>
</linearGradient>
<linearGradient id="paint1_linear" x1="543" y1="0" x2="543" y2="1513.78" gradientUnits="userSpaceOnUse">
<stop/>
<stop offset="1" stop-opacity="0"/>
</linearGradient>
<linearGradient id="paint2_linear" x1="543" y1="0" x2="543" y2="1513.78" gradientUnits="userSpaceOnUse">
<stop/>
<stop offset="1" stop-opacity="0"/>
</linearGradient>
<linearGradient id="paint3_linear" x1="543" y1="0" x2="543" y2="1513.78" gradientUnits="userSpaceOnUse">
<stop/>
<stop offset="1" stop-opacity="0"/>
</linearGradient>
<linearGradient id="paint4_linear" x1="543" y1="0" x2="543" y2="1513.78" gradientUnits="userSpaceOnUse">
<stop/>
<stop offset="1" stop-opacity="0"/>
</linearGradient>
<linearGradient id="paint5_linear" x1="543" y1="0" x2="543" y2="1513.78" gradientUnits="userSpaceOnUse">
<stop/>
<stop offset="1" stop-opacity="0"/>
</linearGradient>
<linearGradient id="paint6_linear" x1="543" y1="0" x2="543" y2="1513.78" gradientUnits="userSpaceOnUse">
<stop/>
<stop offset="1" stop-opacity="0"/>
</linearGradient>
<linearGradient id="paint7_linear" x1="543" y1="0" x2="543" y2="1513.78" gradientUnits="userSpaceOnUse">
<stop/>
<stop offset="1" stop-opacity="0"/>
</linearGradient>
<linearGradient id="paint8_linear" x1="543" y1="0" x2="543" y2="1513.78" gradientUnits="userSpaceOnUse">
<stop/>
<stop offset="1" stop-opacity="0"/>
</linearGradient>
<linearGradient id="paint9_linear" x1="543" y1="0" x2="543" y2="1513.78" gradientUnits="userSpaceOnUse">
<stop/>
<stop offset="1" stop-opacity="0"/>
</linearGradient>
<linearGradient id="paint10_linear" x1="543" y1="0" x2="543" y2="1513.78" gradientUnits="userSpaceOnUse">
<stop/>
<stop offset="1" stop-opacity="0"/>
</linearGradient>
<linearGradient id="paint11_linear" x1="543" y1="0" x2="543" y2="1513.78" gradientUnits="userSpaceOnUse">
<stop/>
<stop offset="1" stop-opacity="0"/>
</linearGradient>
<linearGradient id="paint12_linear" x1="543" y1="0" x2="543" y2="1513.78" gradientUnits="userSpaceOnUse">
<stop/>
<stop offset="1" stop-opacity="0"/>
</linearGradient>
<linearGradient id="paint13_linear" x1="543" y1="0" x2="543" y2="1513.78" gradientUnits="userSpaceOnUse">
<stop/>
<stop offset="1" stop-opacity="0"/>
</linearGradient>
<linearGradient id="paint14_linear" x1="543" y1="0" x2="543" y2="1513.78" gradientUnits="userSpaceOnUse">
<stop/>
<stop offset="1" stop-opacity="0"/>
</linearGradient>
<linearGradient id="paint15_linear" x1="543" y1="0" x2="543" y2="1513.78" gradientUnits="userSpaceOnUse">
<stop/>
<stop offset="1" stop-opacity="0"/>
</linearGradient>
<linearGradient id="paint16_linear" x1="543" y1="0" x2="543" y2="1513.78" gradientUnits="userSpaceOnUse">
<stop/>
<stop offset="1" stop-opacity="0"/>
</linearGradient>
<linearGradient id="paint17_linear" x1="543" y1="0" x2="543" y2="1513.78" gradientUnits="userSpaceOnUse">
<stop/>
<stop offset="1" stop-opacity="0"/>
</linearGradient>
<linearGradient id="paint18_linear" x1="543" y1="0" x2="543" y2="1513.78" gradientUnits="userSpaceOnUse">
<stop/>
<stop offset="1" stop-opacity="0"/>
</linearGradient>
<linearGradient id="paint19_linear" x1="543" y1="0" x2="543" y2="1513.78" gradientUnits="userSpaceOnUse">
<stop/>
<stop offset="1" stop-opacity="0"/>
</linearGradient>
</defs>
</svg>
