<svg width="1014" height="1352" viewBox="0 0 1014 1352" fill="none" xmlns="http://www.w3.org/2000/svg">
<path d="M853.49 0.736403C851.484 1.81468 849.294 2.71324 847.47 3.97123C843.092 6.66692 838.531 9.54232 834.335 12.4177C832.876 13.3163 831.781 14.754 830.869 16.1917C828.497 20.1454 824.849 22.3019 820.653 23.9193C810.437 28.2324 800.221 32.1861 790.37 37.218C784.35 40.2732 779.242 44.9457 773.769 48.8994C771.944 50.1574 770.12 51.4153 768.296 52.1342C762.823 53.9313 757.168 55.5487 751.512 57.1661C743.668 59.5024 736.006 61.8387 728.161 63.9952C724.331 65.0735 720.135 65.7923 716.304 67.23C697.696 73.8794 677.994 76.9345 658.839 81.7868C639.136 86.8187 619.434 92.2101 600.461 99.3986C589.88 103.352 579.482 107.845 568.901 112.158C562.881 114.674 557.226 117.729 553.577 123.66C552.117 126.176 549.016 127.613 546.827 129.59C545.368 130.848 543.543 132.106 542.449 133.724C538.983 138.756 534.057 141.99 528.949 145.225C518.915 151.515 509.247 158.524 500.125 166.072C496.477 169.127 493.375 172.721 491.369 177.034C489.727 180.629 486.808 183.684 484.436 186.919C481.153 191.232 477.686 195.185 474.768 199.678C471.119 205.07 467.47 210.461 464.187 216.212C460.538 222.861 455.065 228.252 449.41 233.284C440.836 241.012 431.532 247.841 422.046 254.49C416.755 258.444 411.83 263.117 407.269 267.789C398.33 276.775 389.573 286.12 380.817 295.285C377.898 298.52 375.526 302.294 372.607 305.349C364.945 313.257 360.749 323.141 355.277 332.306C351.628 338.416 349.986 344.706 349.256 351.715C348.892 356.208 346.702 360.161 343.419 363.396C341.412 365.373 339.223 367.17 337.034 369.147C334.845 371.124 333.203 373.281 332.29 376.156C331.013 380.289 329.554 384.243 327.73 388.197C325.541 392.869 325.358 397.721 326.635 402.394C327.912 406.887 329.189 411.559 331.378 415.693C336.486 425.757 343.054 434.742 350.716 443.189C353.27 446.064 355.094 449.299 357.466 452.174C361.114 456.667 364.945 460.98 368.594 465.473C372.425 470.325 371.513 474.099 365.857 476.256C357.831 479.491 349.439 482.007 341.23 484.882C337.946 485.96 334.662 487.218 331.378 488.476C330.284 488.836 329.372 489.734 327.73 490.812C329.372 492.61 330.466 494.047 331.926 495.126C334.297 496.923 336.669 498.54 339.04 499.978C344.513 503.392 347.615 508.424 349.804 513.995C351.446 517.949 353.635 521.364 356.736 524.239C359.837 526.935 362.574 529.81 365.857 532.326C371.695 536.819 378.445 539.515 385.195 541.851C393.587 544.906 402.161 547.602 410.735 550.477C416.938 552.454 422.593 555.868 427.701 559.822C428.795 560.721 429.708 561.44 430.802 562.158C435.363 565.393 435.91 569.886 432.079 573.84C429.89 576.176 427.336 577.973 424.964 580.309C422.046 583.185 418.944 585.88 416.755 589.115C412.924 594.327 408.546 598.999 402.526 601.515C399.06 602.953 397.965 606.368 395.229 608.524C390.303 612.118 388.844 618.049 385.925 622.721C384.648 624.878 383.553 627.214 381.911 629.191C380.269 630.988 378.445 632.606 376.256 633.684C363.668 640.513 350.533 646.623 337.034 651.475C333.203 652.913 329.372 654.531 326.088 656.507C315.325 662.977 303.832 667.65 292.156 672.142C281.575 676.276 271.359 680.948 261.873 687.418C256.4 691.192 256.4 698.56 262.055 702.514C264.609 704.311 267.163 706.288 269.717 708.265C271.359 709.523 271.542 711.14 270.629 712.757C269.717 714.555 268.805 716.352 267.528 717.789C260.778 726.775 253.664 735.581 245.454 743.488C240.346 748.341 235.421 753.372 230.678 758.404C229.036 760.202 227.759 762.358 226.847 764.515C224.293 770.266 220.462 775.118 215.536 779.071C206.414 786.44 199.117 795.425 192.732 804.95C188.536 811.42 183.428 816.811 176.496 820.765C171.571 823.64 167.192 827.594 162.632 831.188C161.355 832.087 160.625 833.704 159.895 835.142C157.888 839.275 156.064 843.588 155.699 848.44C155.517 851.675 154.97 855.09 153.875 858.145C152.051 863.177 154.057 867.49 157.159 870.725C161.355 875.397 166.645 878.992 171.206 883.305C177.956 889.595 186.347 893.009 194.009 897.861C197.658 900.198 201.489 902.354 204.773 905.05C208.239 907.925 211.158 911.34 214.077 914.754C215.901 916.731 217.725 918.888 216.266 921.943C216.083 922.122 216.266 922.482 216.448 922.841C218.09 925.537 217.543 928.053 216.266 930.569C214.806 933.804 212.8 936.859 209.333 938.476C206.232 940.094 203.131 941.711 200.029 943.329C196.198 945.305 193.462 948.54 191.09 951.775C189.813 953.393 191.455 954.83 192.915 956.088C196.198 958.964 199.3 961.839 202.583 964.714C205.867 967.59 205.685 969.387 201.854 971.544C199.3 972.981 196.746 974.059 193.827 974.958C184.341 977.833 175.037 980.889 166.098 985.202C161.172 987.538 156.794 990.593 154.24 995.445C153.51 996.883 153.328 998.68 152.78 1000.3C150.956 1006.59 149.497 1013.06 147.307 1019.35C144.206 1028.33 139.828 1036.96 137.091 1046.3C135.632 1051.34 135.632 1056.01 137.456 1060.86C138.551 1063.74 139.098 1066.97 140.375 1069.85C141.287 1071.64 141.105 1073.26 140.74 1075.06C139.281 1082.61 134.902 1087.46 127.97 1090.51C120.126 1093.93 112.281 1097.52 104.619 1101.3C97.6868 1104.71 90.5721 1108.12 84.0046 1112.44C79.8087 1115.31 76.525 1119.45 73.0589 1123.4C68.4981 1128.61 64.1198 1134 59.924 1139.39C54.9984 1145.68 51.7147 1152.87 48.9782 1160.42C46.0594 1168.51 43.8702 1177.13 41.3162 1185.4C40.7689 1187.02 40.2216 1188.64 39.3095 1190.07C36.9379 1194.21 36.5731 1198.7 36.5731 1203.37C36.5731 1207.87 39.3095 1210.92 42.4108 1213.44C47.1539 1217.21 52.6268 1219.73 58.4645 1221.88C72.1467 1226.74 86.3762 1229.79 99.6935 1235.72C109.91 1240.39 118.849 1246.68 125.051 1256.03C129.794 1263.04 132.166 1270.76 132.896 1279.21C133.443 1285.5 133.443 1291.61 132.166 1297.54C129.794 1308.68 125.598 1318.93 117.572 1327.73C106.991 1339.24 94.0382 1345.88 78.8966 1349.12C64.1199 1352.35 49.1607 1351.99 34.2015 1349.48C25.8098 1348.04 17.418 1346.6 9.756 1342.83C8.479 1342.11 6.6547 1342.11 5.3777 1341.75C4.28313 1321.44 3.91827 1301.5 5.19527 1281.19C8.29656 1280.83 11.2154 1280.65 14.1343 1280.47C16.141 1287.66 17.6004 1294.67 19.7896 1301.32C23.803 1314.61 30.3705 1326.12 42.9581 1333.66C49.1607 1337.26 55.9105 1338.34 62.478 1340.13C71.9643 1339.24 81.0857 1337.8 88.9302 1331.87C97.6868 1325.22 101.153 1316.23 100.971 1305.99C100.788 1299.16 100.241 1291.97 94.7679 1286.58C91.8491 1283.7 88.7478 1281.19 85.2816 1279.21C76.1602 1274.18 66.1266 1270.94 56.093 1267.89C50.2552 1266.27 44.7824 1263.58 39.1271 1261.42C37.8501 1261.06 36.5731 1261.06 35.2961 1260.7C28.3638 1258.01 22.1612 1253.87 16.5059 1249.2C13.2221 1246.32 10.8506 1242.37 8.11414 1238.96C2.64127 1231.59 0.634546 1223.14 0.816975 1214.16C0.816975 1211.28 1.54669 1208.22 2.64127 1205.53C4.46556 1201.22 7.20199 1197.26 9.39114 1193.13C11.5803 1189.18 13.7694 1185.4 15.5937 1181.45C18.8774 1174.44 21.7963 1167.25 24.8976 1160.06C26.5395 1155.93 28.1813 1151.97 29.8232 1147.84C32.7421 1140.47 37.8501 1134.72 42.5932 1128.61C45.5121 1124.84 48.431 1121.06 51.5322 1117.65C55.9105 1112.98 60.4713 1108.3 65.3969 1104.17C73.971 1097.16 82.91 1090.51 91.8491 1083.68C96.4098 1080.27 99.6935 1075.78 102.612 1070.92C104.072 1068.59 104.072 1065.53 104.802 1062.84C105.531 1059.78 106.079 1056.73 106.991 1053.85C108.815 1048.46 110.822 1043.07 112.828 1037.68C114.47 1033.54 116.295 1029.59 118.301 1025.64C121.403 1019.53 122.497 1013.06 123.409 1006.23C123.957 1002.27 123.592 998.321 123.227 994.367C122.862 990.054 123.409 985.741 124.686 981.607C125.963 977.833 127.058 974.059 127.97 970.106C128.335 968.488 128.335 966.871 128.152 965.074C127.97 961.12 127.24 956.987 127.788 953.033C128.152 949.618 129.612 946.024 131.071 942.789C132.531 939.375 132.713 935.601 132.713 932.007C132.896 925.717 130.706 919.966 127.788 914.575C127.24 913.676 126.511 912.957 125.963 912.238C119.396 904.511 111.369 898.58 103.16 892.47C98.7814 889.055 94.5855 885.461 92.2139 880.25C91.3018 878.273 89.2951 876.835 88.0181 875.038C84.9168 870.905 83.6397 866.232 81.4506 861.739C80.356 859.583 79.6263 856.887 79.4439 854.371C79.4439 852.035 78.1669 850.417 77.6196 848.44C75.7953 842.869 74.5183 837.119 75.9777 831.368C76.7074 828.133 79.4439 826.336 81.9979 824.898C85.6465 822.921 89.6599 821.304 93.6733 820.226C104.072 817.17 114.47 814.654 124.869 811.779C133.078 809.623 140.375 805.489 147.672 801.176C148.22 800.817 148.949 800.457 149.314 799.918C154.422 793.808 161.355 789.674 167.74 785.002C171.388 782.306 175.766 780.329 179.597 777.813C182.516 775.837 185.07 773.68 187.624 771.344C188.536 770.445 189.449 769.367 189.813 768.109C192.003 760.92 197.111 756.068 203.131 751.755C204.59 750.677 205.867 749.599 206.962 748.341C210.245 744.027 213.347 739.535 216.266 734.862C221.191 727.135 217.543 721.743 212.982 718.329C209.516 715.813 205.137 713.656 200.942 712.398C192.367 709.702 183.611 707.726 174.854 705.389C172.118 704.67 169.746 703.412 167.01 702.694C165.003 701.975 164.273 700.537 164.456 698.74C164.638 693.349 166.463 688.856 171.023 685.441C179.962 678.612 190.178 674.838 200.577 671.064C211.887 666.931 223.38 663.157 234.144 657.765C243.63 653.093 254.028 650.577 264.427 648.42C276.102 645.904 287.778 643.568 299.271 640.693C308.575 638.356 317.514 635.122 326.818 632.246C329.919 631.348 331.926 629.371 332.29 625.956C332.655 622.003 334.297 618.229 332.838 614.275C332.655 613.916 332.655 613.376 332.838 613.017C335.392 608.704 337.034 604.031 341.959 601.336C347.067 598.46 350.533 594.507 350.351 588.037C350.351 584.982 351.628 582.106 354.729 580.669C357.831 579.231 359.29 576.356 360.932 573.84C362.939 570.425 361.479 566.651 357.466 563.956C353.635 561.26 349.986 558.384 346.155 556.048C341.594 553.173 337.034 550.477 332.108 548.32C326.088 545.805 321.345 541.851 317.696 536.999C315.507 534.123 314.595 530.17 313.135 526.755C312.953 526.396 313.318 525.856 313.135 525.677C310.217 521.184 307.298 516.511 304.379 512.019C304.196 511.839 303.832 511.659 303.649 511.479C296.899 503.033 294.345 500.337 285.954 495.665C283.035 494.047 280.116 492.43 277.562 490.453C273.184 487.398 273.731 482.007 278.656 479.491C282.852 477.334 287.778 476.256 291.244 472.841C291.974 471.943 293.251 471.044 293.251 470.146C293.251 468.348 292.703 466.551 291.791 465.114C291.062 463.856 289.602 462.777 288.325 461.879C286.501 460.621 284.129 460.082 284.494 457.027C284.677 456.308 282.67 455.229 281.758 454.511C280.846 453.792 279.386 453.432 279.021 452.534C277.562 449.299 274.643 447.142 273.366 443.908C273.001 443.189 272.454 442.29 271.724 441.931C268.258 440.673 266.798 437.797 265.339 434.742C264.609 433.125 263.88 431.328 261.508 430.609C259.684 430.07 258.589 427.194 257.312 425.397C255.123 422.162 253.116 418.927 251.292 415.513C250.015 413.177 248.373 410.481 250.927 407.785C251.11 407.606 250.927 406.887 250.927 406.527C248.92 402.394 250.562 398.081 250.015 393.947C250.015 393.229 250.38 392.51 250.562 391.971C250.745 391.252 251.11 390.173 250.745 389.634C249.65 387.837 250.745 386.579 251.474 385.142C252.934 382.086 254.576 379.211 256.582 376.336C257.495 374.718 258.772 373.101 260.413 372.202C263.88 370.225 267.528 368.428 271.359 367.17C280.846 363.935 290.514 361.24 300.001 358.005C302.919 356.927 305.656 355.13 308.392 353.512C310.946 351.895 312.223 349.558 312.588 346.503C312.771 343.987 314.048 341.471 315.325 339.495C317.879 335.541 320.98 331.767 323.899 327.813C326.27 324.578 328.46 321.344 330.831 318.109C334.845 312.897 338.676 307.506 343.054 302.474C353.087 290.972 362.574 278.931 373.884 268.508C379.175 263.656 384.1 258.804 389.573 254.311C394.864 249.998 400.519 246.224 405.992 242.09C408.181 240.473 410.005 238.496 411.647 236.16C413.836 233.105 416.573 230.229 419.492 227.534C423.687 223.58 425.694 218.907 425.877 213.336C426.241 205.07 425.512 196.803 427.518 188.716C427.518 188.536 427.336 188.356 427.518 188.356C430.62 182.426 430.62 175.776 432.262 169.486C432.626 168.228 433.539 166.97 434.451 166.072C440.106 160.321 447.038 155.828 453.788 151.515C458.349 148.64 462.91 145.764 467.288 142.889C471.119 140.373 474.585 137.857 477.139 133.903C478.963 131.208 482.065 129.411 484.436 127.254C486.625 125.277 488.632 122.941 490.821 120.964C493.193 118.987 495.747 116.831 498.483 115.213C502.314 113.236 506.51 111.619 510.524 110.181C521.287 106.048 531.868 101.735 542.814 97.9609C562.516 90.9521 582.766 86.2796 603.015 81.607C619.981 77.8331 637.129 74.4185 654.095 70.1054C665.406 67.23 676.899 64.3546 688.392 61.4792C699.885 58.6038 711.196 54.8299 722.689 51.2356C723.966 50.8762 725.243 49.9776 726.337 49.0791C733.27 43.3283 740.932 38.476 749.141 35.0615C758.992 30.9281 769.026 26.9744 778.877 22.6613C781.431 21.5831 784.167 19.7859 785.809 17.6294C790.187 11.8786 796.572 9.00318 802.593 5.58864C805.329 4.15094 808.248 3.07267 810.984 1.81468C811.714 1.45525 812.261 0.736403 812.991 0.197266C826.673 0.736403 839.99 0.736403 853.49 0.736403Z" fill="url(#paint0_linear)"/>
<path d="M1013.66 1070.39C1010.56 1074.88 1006.73 1078.65 1002.35 1082.07C993.414 1088.9 984.11 1095.37 974.441 1101.3C968.968 1104.71 963.495 1108.3 958.57 1112.44C952.002 1117.83 947.989 1125.38 943.793 1132.57C942.698 1134.54 941.604 1136.7 940.327 1138.5C935.766 1145.33 932.3 1152.87 931.023 1160.96C930.111 1166.17 929.563 1171.56 929.563 1176.78C929.563 1184.32 927.922 1191.51 926.097 1198.88C924.82 1203.73 923.726 1208.58 922.266 1213.26C920.259 1219.55 917.888 1225.66 915.699 1231.77C910.408 1245.96 905.118 1259.98 899.827 1274.18C897.091 1281.19 894.355 1288.38 891.071 1295.21C887.605 1302.21 883.956 1309.22 878.483 1314.97C871.368 1322.34 862.977 1327.55 852.396 1328.27C844.916 1328.81 837.619 1327.55 830.869 1324.32C828.862 1323.42 828.133 1322.16 828.862 1320.01C830.869 1313.36 834.335 1307.61 840.538 1304.01C844.187 1301.86 848.2 1300.96 852.578 1301.68C856.774 1302.39 861.152 1302.93 865.348 1303.29C870.274 1303.83 874.287 1302.57 877.024 1298.26C878.848 1295.39 880.49 1292.33 882.497 1289.46C883.591 1287.66 883.409 1286.04 882.497 1284.6C878.301 1277.77 875.017 1270.41 871.733 1263.22C868.267 1255.67 863.889 1248.66 860.058 1241.29C856.227 1234.1 852.578 1226.92 849.112 1219.55C846.741 1214.34 846.741 1208.76 848.018 1203.19C849.112 1198.52 851.301 1194.57 853.855 1190.43C856.957 1185.58 859.146 1180.19 861.7 1175.16C864.071 1170.31 866.078 1165.27 868.814 1160.6C870.639 1157.37 872.828 1154.31 875.382 1151.62C881.22 1145.33 887.422 1139.22 894.902 1134.54C900.74 1130.77 906.395 1126.64 912.05 1122.68C914.969 1120.71 918.07 1118.55 921.354 1117.11C933.759 1111.72 943.793 1103.45 953.097 1094.11C956.928 1090.15 960.394 1086.02 963.495 1081.35C966.049 1077.57 966.414 1073.8 965.32 1069.85C964.225 1066.25 962.401 1062.66 960.576 1059.24C957.657 1054.03 954.374 1049 951.637 1043.61C948.171 1036.6 947.441 1028.87 946.712 1021.14C946.164 1016.65 946.164 1011.98 945.435 1007.49C944.523 1001.92 945.07 996.703 947.624 991.671C949.995 986.819 951.272 981.787 951.09 976.396C950.908 970.645 949.813 965.613 943.61 963.097C943.793 960.941 943.793 958.964 943.975 956.987C966.414 956.987 988.67 956.987 1011.11 956.987C1011.11 959.323 1011.11 961.3 1011.11 963.457C1009.28 963.816 1007.46 964.175 1005.82 964.714C1001.81 965.972 998.886 968.309 998.157 972.622C997.609 976.216 996.88 979.631 996.697 983.225C996.515 986.819 995.603 990.054 994.326 993.289C992.319 998.5 990.495 1003.71 988.306 1008.92C986.116 1014.32 987.211 1019.89 987.758 1025.46C988.67 1038.22 994.508 1049.18 1000.16 1060.32C1001.08 1062.3 1002.9 1062.66 1004.91 1062.66C1006.91 1062.66 1007.64 1061.4 1008.19 1059.78C1009.65 1055.65 1010.93 1051.7 1012.39 1047.56C1012.75 1046.66 1013.3 1045.76 1013.85 1044.87C1013.66 1053.13 1013.66 1061.76 1013.66 1070.39ZM923.361 1147.3C922.449 1147.66 922.084 1147.84 921.719 1148.02C917.341 1151.8 914.239 1156.65 911.32 1161.5C908.219 1166.71 905.848 1172.1 903.111 1177.49C900.922 1181.81 898.733 1186.12 896.179 1190.25C893.26 1195.11 890.706 1199.96 889.794 1205.53C889.064 1209.3 888.699 1213.26 890.341 1217.03C893.442 1223.68 896.726 1230.33 899.827 1237.16C900.01 1237.52 900.557 1237.52 901.104 1237.88C901.834 1235.54 902.564 1233.38 903.294 1231.23C905.848 1223.86 908.584 1216.49 910.408 1208.94C912.05 1201.94 914.057 1195.11 915.881 1188.28C916.246 1186.84 916.976 1185.58 917.158 1184.32C917.523 1180.55 917.341 1176.78 917.705 1173C918.435 1166.89 919.347 1160.96 920.624 1154.85C921.172 1152.33 922.449 1150 923.361 1147.3Z" fill="url(#paint1_linear)"/>
<path d="M1013.66 710.781C998.157 711.14 982.833 711.32 967.326 711.679C967.326 711.499 967.144 711.14 967.144 710.96C967.691 710.601 968.238 710.062 968.968 709.882C975.718 708.984 981.92 706.647 987.758 703.412C989.218 702.694 989.765 701.615 989.947 700.178C991.042 692.63 992.319 684.902 993.596 677.354C993.778 676.096 994.69 674.838 995.42 673.58C996.15 672.322 997.062 671.244 997.792 670.166C997.244 667.47 995.603 666.571 993.413 666.571C991.954 666.571 990.495 666.392 989.035 666.571C982.833 667.29 976.63 668.189 970.427 669.087C970.063 669.087 969.698 669.447 968.968 669.986C971.157 670.525 972.981 671.064 975.17 671.603C973.346 675.018 970.427 675.557 967.326 675.737C964.042 675.916 960.576 676.096 957.292 676.276C956.38 676.276 955.468 676.456 954.739 676.815C952.185 677.714 950.543 678.792 950.36 682.027C950.178 686.879 949.083 691.731 949.083 696.583C949.083 702.154 945.982 704.85 941.239 706.647C940.509 706.827 939.962 707.007 938.32 707.546C939.779 707.905 940.509 708.265 941.239 708.265C945.799 708.265 950.178 707.905 954.739 707.905C957.475 707.905 957.475 708.085 958.387 711.14C957.84 711.14 957.292 711.32 956.745 711.32C945.799 711.499 934.854 711.5 923.908 712.039C917.523 712.218 911.138 713.117 904.753 713.836C893.26 715.094 881.767 715.273 870.274 714.555C863.159 714.195 856.227 712.578 849.477 710.242C846.923 709.343 844.369 708.085 842.909 705.569C842.18 704.311 841.632 703.053 842.727 701.615C845.828 697.123 848.565 692.27 852.031 687.957C856.409 682.386 862.247 678.612 868.632 675.557C875.929 671.963 883.226 668.548 890.523 664.954C891.983 664.235 893.625 663.157 894.719 661.899C897.456 658.844 900.922 657.226 904.753 656.148C912.597 653.992 920.807 653.632 929.016 653.093C939.414 652.374 949.63 653.273 960.029 654.531C972.981 656.148 985.934 655.968 998.886 655.429C1003.81 655.25 1008.74 654.71 1013.66 654.351C1013.66 672.861 1013.66 691.731 1013.66 710.781ZM889.794 711.859C893.625 711.14 897.091 710.601 900.557 709.882C908.401 708.085 912.962 703.053 914.786 695.325C916.428 687.777 920.077 681.128 926.279 676.096C929.016 673.76 932.482 672.502 935.583 670.705C938.502 669.087 939.597 667.29 939.232 664.415C938.867 661.719 937.772 660.641 934.124 660.102C927.009 659.023 920.259 659.742 914.969 665.493C912.05 668.548 908.584 670.885 904.753 672.682C900.922 674.479 897.456 676.815 893.99 679.331C891.8 680.948 889.611 682.925 888.152 685.082C884.868 690.293 882.132 695.864 879.395 701.256C877.753 704.491 878.848 707.905 882.314 709.523C884.503 710.781 887.422 711.14 889.794 711.859Z" fill="url(#paint2_linear)"/>
<path d="M921.719 0.736391C921.354 4.69007 918.435 6.84662 915.881 9.54231C913.509 12.0583 910.955 14.3945 908.584 16.9105C906.03 19.7859 903.111 21.9425 899.645 23.3802C893.26 26.0759 886.875 29.131 880.307 31.4672C873.557 33.8035 866.625 35.4209 859.875 37.5775C849.112 40.992 838.349 44.4065 827.768 48.3602C820.471 51.0559 812.991 52.4936 805.511 54.111C797.667 55.7284 789.822 56.9864 781.978 58.4241C781.431 58.6038 780.883 58.4241 780.154 57.885C782.89 56.9864 785.627 55.7284 788.545 55.0096C797.849 52.853 806.971 49.9776 815.545 45.4848C827.038 39.1949 839.626 35.6006 852.031 31.1078C858.051 28.9513 864.071 26.7947 870.091 24.6382C876.294 22.3019 881.949 19.4265 887.057 15.1134C890.158 12.4177 894.172 10.8003 897.82 8.64375C900.557 7.02633 903.476 5.58863 906.03 3.7915C907.124 3.07265 907.854 1.81467 908.766 0.736391C912.962 0.736391 917.34 0.736391 921.719 0.736391Z" fill="url(#paint3_linear)"/>
<path d="M262.603 980.529C262.785 977.833 263.15 975.317 263.332 972.262C268.075 972.262 272.636 972.262 277.744 972.262C277.927 970.106 277.927 968.488 278.109 966.332C273.001 966.152 268.44 965.793 263.515 965.613C263.697 956.448 266.798 947.821 265.339 938.297C269.9 937.937 274.278 937.398 279.386 937.039C278.656 935.421 278.291 933.984 277.562 932.726C273.001 923.201 266.434 914.934 259.319 907.206C255.123 902.534 251.11 897.861 247.096 893.189C245.454 891.392 243.812 890.134 241.258 889.954C238.339 889.774 235.603 888.876 232.684 888.876C227.394 888.876 225.752 884.922 223.745 881.328C221.921 877.913 221.009 874.139 218.272 871.084C216.813 869.646 215.718 867.31 215.718 865.333C215.353 859.583 211.34 855.269 209.698 850.058C212.799 846.823 217.36 847.362 221.374 845.745C222.286 843.408 220.826 841.611 219.914 839.635C217.36 834.063 214.806 828.492 213.894 822.382C212.982 816.092 214.441 810.341 217.907 804.95C218.637 803.692 219.002 802.075 219.732 800.817C224.84 793.089 231.042 785.9 238.339 779.97C243.265 775.837 246.549 770.805 249.833 765.413C252.022 761.639 255.488 758.404 258.407 755.17C260.961 752.474 263.697 749.778 266.251 747.083C273.548 739.175 280.663 730.908 287.96 723.181C291.244 719.766 294.893 716.711 298.724 713.836C302.372 710.96 304.379 707.007 306.203 703.053C307.845 699.459 308.939 695.505 310.764 692.091C313.5 687.059 317.331 682.745 322.074 679.151C327.365 675.198 333.385 672.682 339.223 669.626C347.432 665.493 355.641 661 363.851 656.507C370.601 652.913 377.35 649.139 384.1 645.365C391.033 641.412 397.782 637.278 404.715 633.145C405.627 632.606 406.721 631.887 407.451 630.988C410.188 627.214 412.742 623.44 415.296 619.666C420.404 611.939 426.424 605.289 434.998 600.617C440.288 597.741 444.849 593.069 449.775 589.475C455.248 585.341 460.72 581.388 466.193 577.614C470.024 574.918 473.491 572.043 476.409 568.448C478.781 565.393 478.234 561.979 479.693 558.384C474.95 557.486 470.936 556.587 466.741 556.048C464.734 555.868 463.639 555.329 462.91 553.352C462.18 551.376 460.538 549.758 459.079 547.781C461.268 547.062 463.457 546.344 465.646 545.805C471.849 544.007 475.132 539.335 478.051 534.123C482.247 526.755 479.328 520.824 474.767 515.074C470.572 509.862 466.011 504.83 460.173 501.236C456.16 498.72 451.964 496.204 447.586 494.407C434.816 489.195 421.681 486.14 407.816 485.421C405.08 485.241 403.255 484.163 401.613 481.647C406.539 481.288 410.917 481.108 415.843 480.749C412.377 473.919 408.911 467.809 403.985 462.777C398.512 457.206 394.499 450.557 389.756 444.267C387.931 441.751 385.925 439.235 384.283 436.539C383.188 434.742 382.458 432.765 381.364 430.788C379.54 427.374 377.898 423.959 376.073 420.545C374.249 416.951 371.878 413.536 370.418 409.942C368.776 405.629 367.134 400.956 366.77 396.284C366.405 393.049 368.047 389.634 368.959 386.4C370.601 381.008 371.513 375.796 371.33 370.046C371.148 364.115 371.878 358.005 372.425 352.074C372.79 348.84 373.155 345.605 374.067 342.55C374.796 339.854 376.073 337.158 377.533 334.822C385.195 322.781 393.404 311.1 403.255 300.497C412.012 290.972 421.133 281.627 430.072 272.282C434.816 267.25 439.741 262.398 445.032 257.725C450.504 252.873 456.707 248.74 462.18 244.067C466.558 240.293 470.572 236.16 474.767 232.206C480.605 226.635 485.348 220.345 489.909 213.516C494.287 207.046 500.125 201.475 505.78 195.904C510.888 190.872 516.544 186.379 521.652 181.527C529.679 173.8 538.8 167.33 548.286 161.579C556.678 156.547 564.523 150.796 572.914 145.944C580.029 141.811 586.049 136.419 592.434 131.387C595.171 129.231 597.907 127.074 600.644 124.918C601.738 124.019 602.285 123.121 602.103 121.324C601.738 118.268 604.11 116.112 606.846 114.854C611.224 113.057 615.785 111.26 620.346 109.822C627.643 107.306 634.575 104.071 641.325 100.297C649.17 95.8043 657.561 92.3898 666.318 90.4129C683.831 86.2796 701.527 82.3259 719.04 78.3722C720.682 78.0128 721.959 78.1925 723.783 78.7316C726.52 79.6302 729.803 79.2708 732.905 78.9114C743.85 77.6534 754.796 76.3954 765.742 74.9577C780.701 72.9808 795.66 70.6446 810.619 68.488C810.984 68.488 811.532 68.488 811.896 68.3083C812.444 69.5663 812.626 70.6446 811.349 71.1837C808.977 72.262 806.606 73.3403 804.052 73.8794C779.424 79.0911 754.796 83.9433 730.168 89.3347C705.358 94.9058 681.642 103.891 658.838 114.674C655.372 116.292 652.271 118.268 648.622 120.425C651.541 124.019 650.447 127.254 648.44 130.129C647.163 132.106 646.98 134.263 648.075 135.88C649.899 139.115 649.17 141.811 646.981 144.147C643.514 147.741 639.866 151.156 635.305 153.672C625.271 159.243 615.603 164.994 605.752 170.744C603.745 172.002 601.738 173.62 599.914 175.058C597.907 176.495 596.083 176.855 594.076 175.417C590.245 172.721 586.232 170.205 581.671 167.15C578.57 169.307 574.556 171.643 571.273 174.518C562.516 182.246 553.942 190.153 545.368 198.24C541.172 202.194 537.158 206.328 533.51 210.641C530.591 214.055 528.767 218.368 525.848 221.963C522.564 226.096 518.733 229.87 515.084 233.644C513.99 234.722 512.53 235.621 511.618 236.879C507.24 242.45 501.402 246.224 495.929 250.357C489.362 255.209 483.524 260.78 477.869 266.352C470.389 273.72 463.275 281.268 456.342 288.816C447.768 298.34 439.194 308.045 430.985 317.749C425.877 323.68 422.046 330.149 418.215 336.979C416.755 339.495 415.113 342.011 414.748 344.706C414.383 347.222 414.566 349.918 414.201 352.434C414.019 354.59 413.471 356.567 413.289 358.724C413.107 362.498 412.924 366.451 413.107 370.225C413.654 376.156 412.742 381.547 410.37 386.939C407.451 393.588 408.363 400.237 410.917 406.887C415.478 418.748 421.863 429.71 428.613 440.493C434.998 450.557 442.66 459.363 450.322 468.528C452.511 471.224 453.971 474.279 455.977 477.334C461.085 476.975 466.193 476.615 471.119 476.076C474.585 475.717 478.234 474.279 481.335 474.998C484.254 475.896 486.625 478.951 489.909 481.467C480.24 482.186 471.301 482.905 461.268 483.624C463.822 485.601 465.464 487.218 467.288 488.297C472.578 491.531 477.869 494.946 483.342 498.001C491.186 502.134 496.659 508.424 501.585 515.613C506.51 522.622 508.882 530.349 511.071 538.436C512.165 542.57 514.537 546.164 517.456 549.219C518.003 549.758 518.915 550.297 519.645 550.477C526.213 551.735 532.78 552.813 539.347 554.071C543.726 554.79 548.104 555.689 553.212 556.767C551.023 560.9 549.199 564.674 547.009 568.089C545.185 570.964 544.091 570.964 540.624 570.066C534.422 568.628 528.219 567.19 522.017 565.932C521.105 565.753 519.463 566.112 519.098 566.651C514.172 573.84 506.51 577.614 499.76 582.466C496.477 584.802 493.193 587.138 490.274 589.834C484.984 594.686 479.146 598.64 473.126 602.234C469.659 604.391 466.376 607.266 463.639 610.321C459.444 614.814 455.065 619.487 452.329 624.878C449.227 630.988 444.302 634.223 438.464 637.098C433.903 639.435 429.708 642.849 425.147 645.365C410.553 653.452 395.776 661.36 380.999 669.087C374.796 672.322 368.229 674.838 362.756 679.151C357.466 683.285 353.087 687.957 350.898 694.427C349.621 698.38 347.797 702.154 346.155 705.928C344.331 710.242 340.5 713.117 337.034 715.992C330.466 721.563 324.628 727.674 319.338 734.503C316.784 737.917 313.683 740.972 310.581 744.027C305.656 749.239 300.365 754.271 295.44 759.483C293.798 761.1 292.338 762.897 291.426 764.874C287.595 772.242 281.94 778.173 275.737 783.564C272.819 786.08 269.9 788.776 267.528 791.831C263.332 797.222 259.136 802.793 256.582 809.263C254.211 815.014 253.846 820.944 255.853 826.875C256.582 829.211 257.495 831.727 258.407 834.063C259.866 837.658 260.961 838.377 264.974 837.658C270.994 836.759 277.014 835.681 283.217 834.782C285.406 834.423 287.048 834.782 288.143 837.119C291.609 843.948 295.44 850.597 298.906 857.426C301.825 863.177 304.561 868.928 307.115 874.858C310.217 882.226 314.412 889.055 318.973 895.705C320.433 897.861 322.257 899.838 324.628 902.714C313.683 900.917 303.832 899.299 293.251 897.502C293.98 898.94 294.345 899.838 294.892 900.377C298.723 904.69 302.372 909.183 306.203 913.496C310.581 918.349 314.412 923.56 317.331 929.491C318.608 932.007 320.25 933.265 323.169 932.546C327.912 931.647 332.655 931.108 337.398 930.21C338.858 930.03 340.317 929.491 341.777 929.311C343.783 929.311 345.79 929.491 346.885 931.827C348.344 934.882 350.351 937.758 351.81 940.813C352.358 941.891 352.358 943.329 352.175 944.587C350.898 951.775 349.439 958.784 347.979 965.972C347.797 966.871 347.067 967.769 346.337 968.309C344.513 969.387 344.331 970.106 346.155 971.364C346.885 971.903 347.614 972.802 347.797 973.52C348.527 977.654 349.256 981.967 349.804 986.46C339.588 986.46 329.372 986.46 318.791 986.46C316.784 991.492 314.595 996.524 312.588 1001.74C309.669 1009.28 306.568 1016.83 303.832 1024.56C301.46 1031.39 299.088 1038.04 297.447 1045.05C296.352 1049.54 296.899 1054.39 298.541 1059.42C308.575 1058.52 318.791 1057.45 329.372 1056.55C328.459 1060.86 327.547 1064.63 327.182 1068.41C326.818 1071.1 325.176 1072.36 322.804 1072.9C320.615 1073.44 318.608 1073.62 316.419 1073.98C310.034 1075.06 303.832 1075.78 297.447 1077.03C295.622 1077.39 293.98 1078.83 292.338 1080.27C287.595 1084.22 283.035 1088.54 278.291 1092.49C275.92 1094.47 273.001 1096.08 270.447 1098.06C269.535 1098.78 268.805 1099.5 267.528 1100.58C274.096 1102.19 280.298 1103.63 287.048 1105.25C285.589 1106.51 284.676 1107.23 283.764 1108.13C279.204 1111.9 274.46 1115.49 270.082 1119.63C268.075 1121.42 266.434 1121.6 264.244 1120.88C258.589 1119.27 252.751 1117.83 247.096 1116.21C244.724 1115.49 243.083 1116.03 241.076 1117.47C234.873 1122.32 229.4 1127.71 224.84 1134.18C221.921 1138.32 218.637 1142.09 215.353 1145.86C210.428 1151.8 207.691 1158.62 206.05 1165.99C204.955 1171.02 204.043 1176.06 202.766 1181.09C201.489 1185.94 200.029 1190.61 198.752 1195.47C198.023 1198.52 197.293 1201.58 196.381 1205.17C207.327 1204.99 217.725 1203.01 228.488 1202.47C226.482 1207.87 224.84 1212.72 222.651 1218.29C213.894 1219.01 204.773 1219.73 195.469 1220.45C195.469 1224.76 195.469 1228.35 195.469 1232.13C195.651 1236.26 195.834 1240.39 196.016 1244.53C196.381 1252.25 196.746 1259.98 196.928 1267.71C197.293 1275.98 197.293 1284.24 197.84 1292.51C198.023 1297.18 198.205 1302.03 199.3 1306.53C201.306 1315.69 208.786 1318.93 217.907 1317.85C220.279 1317.67 222.468 1317.13 224.657 1316.41C226.846 1315.87 229.036 1314.97 231.59 1314.08C231.407 1316.95 231.042 1319.65 230.86 1322.52C220.644 1332.95 207.691 1338.16 193.097 1339.59C186.347 1340.31 179.415 1339.42 173.395 1336C169.381 1333.84 165.55 1331.33 163.544 1327.37C161.719 1323.78 160.625 1319.47 160.26 1315.51C159.348 1301.68 158.983 1287.84 158.436 1274C157.888 1258.54 157.341 1243.09 156.794 1227.63C156.611 1223.68 156.429 1223.5 152.415 1223.5C148.767 1223.68 145.118 1223.86 141.105 1224.22C141.105 1221.34 141.105 1219.01 141.105 1216.13C144.389 1214.51 147.855 1212.72 151.321 1211.1C156.794 1208.58 161.354 1204.81 165.55 1200.68C170.476 1195.82 174.124 1190.07 176.314 1183.42C178.503 1176.24 181.057 1169.41 183.428 1162.22C183.611 1161.5 183.976 1160.78 184.158 1160.24C185.617 1151.97 189.448 1144.97 194.192 1138.14C197.84 1132.75 201.671 1127.53 205.137 1122.14C206.779 1119.63 208.056 1116.93 209.698 1114.42C212.252 1110.28 211.705 1105.97 210.245 1101.3C213.894 1098.6 217.543 1095.37 221.738 1093.03C229.583 1088.54 235.238 1081.89 240.893 1075.24C241.988 1073.8 243.63 1072.54 245.272 1071.82C252.569 1068.05 259.136 1063.38 264.609 1057.27C267.893 1053.49 270.447 1048.82 272.819 1044.33C276.467 1037.5 279.568 1030.49 283.035 1023.66C286.136 1017.91 288.325 1011.8 289.602 1005.51C291.061 999.039 289.237 993.648 283.399 989.874C278.839 986.819 274.096 984.663 268.988 982.865C266.069 981.787 264.427 981.248 262.603 980.529ZM339.952 969.387C338.858 968.668 338.128 967.77 337.763 967.949C335.757 968.488 333.75 968.129 331.926 967.23C331.561 967.051 330.649 967.59 330.101 967.77C329.554 967.949 329.007 968.129 328.642 967.949C325.905 966.871 322.987 967.77 319.703 967.051C319.703 968.668 319.52 970.106 319.52 971.544C320.797 971.544 321.71 971.544 322.622 971.544C324.993 971.364 327.73 970.286 329.554 971.184C331.926 972.083 333.385 971.723 335.209 970.825C335.392 970.645 335.939 970.645 336.121 970.645C337.946 972.802 338.311 970.465 339.952 969.387ZM340.865 967.41C339.952 969.207 339.77 970.465 341.047 971.903C343.054 970.285 343.419 968.848 340.865 967.41Z" fill="url(#paint4_linear)"/>
<path d="M685.838 953.213C684.196 958.245 682.372 962.917 681.277 967.59C680.182 972.622 680.547 977.834 681.459 982.686C682.372 988.077 680.182 992.75 679.27 997.782C673.797 998.501 668.507 997.063 663.399 996.703C659.568 996.344 655.737 995.985 651.724 995.805C648.622 995.625 648.257 996.164 647.345 999.219C646.433 1002.09 645.521 1004.97 644.426 1008.38C646.616 1008.38 648.805 1008.74 650.811 1008.56C657.379 1007.67 663.764 1006.77 670.149 1005.15C672.338 1004.61 674.345 1003.71 677.081 1004.07C676.716 1005.33 676.716 1006.59 676.169 1007.67C673.615 1012.52 670.879 1017.37 668.325 1022.22C667.048 1024.56 665.953 1026.72 665.041 1029.05C664.311 1030.67 663.399 1031.21 661.757 1031.39C654.642 1032.29 647.528 1033.19 640.413 1034.08C635.67 1034.62 634.393 1035.34 633.663 1040.01C632.751 1045.76 632.021 1051.34 633.298 1057.27C634.21 1061.22 633.846 1065.53 633.663 1069.49C633.481 1073.98 630.562 1077.39 627.461 1080.63C620.711 1087.28 613.413 1093.21 605.569 1098.6C595.171 1105.79 584.59 1112.98 574.556 1120.53C570.36 1123.76 566.894 1127.89 563.61 1131.85C558.685 1137.6 554.124 1143.53 549.381 1149.28C549.016 1149.64 548.469 1150 548.286 1150.54C545.915 1157.01 541.901 1163.12 541.536 1170.13C541.536 1170.49 541.719 1171.2 541.354 1171.38C538.253 1174.62 539.712 1178.93 538.8 1182.71C538.618 1183.6 538.435 1184.5 538.07 1185.22C535.334 1189.89 534.422 1195.11 532.78 1199.96C530.043 1208.05 529.496 1216.31 530.408 1224.76C530.956 1228.89 530.408 1233.03 530.591 1237.16C530.773 1242.19 531.138 1247.22 531.32 1252.25C531.685 1257.83 531.685 1263.22 532.233 1268.79C532.597 1273.28 533.145 1277.77 535.699 1281.91C537.341 1284.78 539.712 1286.58 542.813 1287.66C548.834 1289.81 554.854 1288.74 560.691 1287.12C562.333 1286.58 563.975 1286.04 566.347 1285.32C565.982 1288.38 565.799 1291.07 565.252 1293.59C565.07 1294.31 564.158 1294.85 563.428 1295.39C553.577 1302.57 542.631 1307.43 530.408 1308.86C522.564 1309.76 514.537 1309.4 507.24 1305.99C498.848 1302.21 495.017 1294.85 493.922 1286.22C493.01 1279.39 492.281 1272.56 491.916 1265.91C491.368 1256.75 491.368 1247.58 491.004 1238.42C490.821 1233.03 490.274 1227.63 489.909 1222.24C489.727 1218.65 489.544 1215.05 490.091 1211.46C491.368 1202.83 493.01 1194.57 497.024 1186.66C498.483 1183.6 498.483 1179.83 499.395 1176.42C500.307 1173.18 501.584 1169.95 502.314 1166.71C502.679 1165.09 502.314 1163.3 502.862 1161.86C505.598 1154.31 509.611 1147.48 514.902 1141.37C517.091 1138.86 519.463 1136.7 521.652 1134.36C521.834 1134.18 522.017 1134 522.199 1133.64C523.294 1130.41 526.212 1128.61 528.402 1126.1C534.057 1119.63 541.354 1114.95 548.286 1110.28C552.847 1107.23 557.408 1104.17 561.969 1100.94C568.536 1096.08 575.286 1091.23 581.671 1086.02C586.232 1082.25 590.61 1078.47 592.799 1072.54C593.894 1069.49 593.894 1066.61 593.711 1063.56C593.529 1059.24 592.799 1055.11 592.434 1050.8C592.252 1048.64 592.617 1046.3 592.981 1044.15C593.164 1043.07 593.346 1041.99 593.529 1040.19C588.421 1040.91 583.495 1041.45 577.84 1042.17C578.934 1037.86 579.664 1033.9 580.759 1030.13C580.941 1029.23 582.401 1028.51 583.495 1027.97C592.434 1023.3 599.914 1017.01 606.299 1009.1C608.123 1006.95 609.4 1004.25 610.677 1001.74C612.319 998.321 609.218 991.851 605.022 989.335C602.468 987.898 599.914 986.639 597.36 985.381C597.907 976.216 598.454 967.051 599.184 957.706C608.67 955.19 617.062 951.056 621.076 940.813C619.981 939.016 618.886 936.679 617.062 935.062C613.778 932.007 612.319 928.233 611.042 924.1C609.947 920.685 608.123 917.091 605.751 914.395C601.373 909.363 598.819 903.253 595.171 897.862C591.704 892.83 589.88 887.258 587.873 881.508C585.867 876.116 582.218 871.444 580.211 866.052C577.657 859.583 573.826 853.832 569.995 848.261C565.435 841.791 560.144 835.861 554.306 830.469C549.563 825.976 543.178 824 536.611 822.742C535.881 822.562 535.151 822.382 534.604 822.203C534.422 821.843 534.239 821.663 534.239 821.304C534.239 815.553 534.239 815.553 540.259 815.014C543.361 814.834 546.644 814.655 549.928 814.475C550.475 813.576 551.205 812.857 551.388 811.959C553.029 804.052 557.955 797.762 563.063 791.831C567.989 786.26 573.462 781.408 579.482 777.095C583.13 774.399 585.502 770.445 587.691 766.671C590.245 762.538 592.799 758.584 596.995 755.529C600.461 753.013 603.38 749.778 606.299 746.544C606.846 745.825 606.664 744.567 606.846 743.848C603.562 742.051 599.366 742.77 598.089 738.816C599.184 737.378 600.096 736.12 601.008 734.862C602.103 733.245 603.197 731.448 604.292 729.83C606.846 726.056 610.312 724.259 615.055 723.9C618.157 723.72 621.258 722.821 624.177 721.923C628.008 720.845 630.197 717.61 632.933 715.094C638.224 710.601 640.413 704.131 643.332 698.021C645.703 692.989 647.893 687.778 651.359 683.644C655.555 678.612 661.21 674.838 667.412 671.963C676.899 667.47 686.02 662.618 695.506 657.945C697.513 657.047 699.338 655.968 701.344 654.89C702.621 654.171 703.716 653.452 704.628 652.015C701.344 651.835 697.878 651.476 694.594 651.296C694.594 650.757 694.594 650.397 694.777 650.218C701.344 646.983 707.547 642.849 715.026 641.412C723.418 639.974 730.898 635.661 738.56 632.246C744.762 629.551 750.6 626.496 755.708 622.182C758.992 619.307 762.093 616.252 765.194 613.377C766.836 611.759 767.566 609.603 767.019 607.446C766.107 603.492 768.296 601.875 771.579 600.258C782.525 594.866 794.201 591.272 805.694 586.779C811.349 584.623 817.187 582.466 822.842 580.13C825.761 578.872 828.315 578.872 831.416 580.669C830.686 581.208 830.139 581.567 829.592 581.747C819.011 585.341 809.342 590.553 799.856 596.124C796.39 598.101 792.924 601.156 790.552 604.391C785.809 610.861 781.613 617.69 777.417 624.698C774.863 629.012 771.762 632.606 767.201 634.942C764.465 636.38 761.911 637.997 759.357 639.794C758.627 640.333 758.08 641.412 758.08 642.131C758.08 642.67 759.174 643.389 760.086 643.568C763.917 644.287 767.931 644.646 771.762 645.186C773.404 645.365 775.046 645.725 776.687 646.084C776.687 646.444 776.87 646.623 776.87 646.983C775.41 648.061 773.769 648.96 772.492 650.038C767.384 654.351 761.546 655.609 754.978 654.171C754.613 653.992 754.066 654.171 753.701 654.171C746.039 653.093 739.472 654.89 732.904 659.203C725.79 663.876 717.945 667.47 710.101 670.885C700.615 675.018 693.135 681.308 687.48 689.754C684.926 693.528 683.284 698.021 681.824 702.334C680.73 705.749 679.453 708.984 676.899 711.679C676.352 712.218 676.169 713.117 675.439 714.375C684.926 713.836 694.047 713.476 703.716 712.937C701.709 716.172 699.885 718.868 698.061 721.563C697.696 722.103 697.148 722.462 696.966 722.821C696.054 727.135 692.77 728.393 688.939 728.393C685.655 728.393 683.649 730.909 680.912 732.167C679.453 732.885 680 737.378 681.642 738.277C682.189 738.636 682.919 738.996 683.284 739.535C683.649 739.714 683.831 740.254 684.196 740.793C682.007 744.028 678.541 746.184 675.804 748.88C670.331 754.451 663.217 758.584 659.021 765.413C657.926 767.031 656.467 768.648 655.19 770.086C654.095 771.164 653.001 771.524 651.359 770.984C644.609 768.828 638.041 767.031 630.927 765.054C629.285 767.211 627.461 769.367 625.636 771.524C623.265 773.86 620.893 776.196 618.339 778.353C610.13 785.721 601.92 793.449 596.083 802.973C594.988 804.77 594.441 806.747 593.164 809.623C603.562 808.005 613.049 806.747 623.082 805.13C619.981 810.521 621.258 815.373 621.988 820.765C611.772 822.023 601.556 822.023 590.975 823.82C592.981 829.032 594.623 833.884 596.63 838.556C601.556 849.878 606.481 861.02 611.589 872.163C614.326 878.093 617.244 884.024 620.711 889.595C624.542 895.705 629.65 901.096 635.123 906.128C638.771 909.543 642.42 913.137 645.703 917.091C650.082 922.123 652.453 928.413 655.372 934.343C655.919 935.421 656.649 936.5 657.014 937.758C657.379 939.016 657.926 940.274 657.744 941.352C657.561 944.407 657.014 947.642 656.467 951.236C665.223 953.033 675.439 952.674 685.838 953.213Z" fill="url(#paint5_linear)"/>
<path d="M459.444 719.766C460.356 717.25 460.903 715.633 461.633 714.016C464.005 708.444 464.369 703.233 460.721 697.841C456.707 692.27 456.525 691.911 450.87 695.865C448.133 697.841 445.397 699.998 442.843 702.155C442.295 702.694 442.113 703.772 441.748 704.491C439.194 709.882 434.086 712.758 429.708 716.352C424.053 721.204 419.309 726.955 414.566 732.526C411.83 735.94 408.911 739.175 405.992 742.41C402.526 746.184 398.877 749.958 395.046 753.373C389.938 757.865 386.472 763.077 383.371 769.008C381.729 772.242 378.81 775.298 375.891 777.634C367.135 784.463 360.02 792.55 354 801.895C351.628 805.489 350.169 809.083 349.074 813.037C352.54 818.608 357.831 819.327 363.486 818.069C366.04 817.53 368.412 816.272 370.783 815.373C374.249 814.115 377.898 812.857 381.364 811.599C387.202 809.443 392.127 811.599 396.141 815.194C399.242 818.069 401.979 821.484 404.533 824.898C405.445 825.976 405.81 827.953 405.445 829.211C404.168 835.322 404.35 841.252 405.262 847.183C405.81 850.957 405.627 854.73 405.262 858.504C404.897 862.458 405.262 865.873 407.269 869.467C411.1 875.757 416.026 880.968 421.316 886C426.059 890.673 431.897 894.447 437.187 898.58C440.836 901.456 444.667 904.331 447.951 907.925C450.505 910.621 452.329 913.856 455.613 915.833C457.255 916.731 457.984 919.247 458.897 921.224C459.991 923.021 460.721 924.998 461.815 926.795C462.363 927.873 463.092 928.952 463.822 930.03C465.829 933.445 465.464 937.039 464.552 940.633C462.91 946.743 463.457 952.674 468.018 957.706C470.025 960.042 469.477 962.738 468.748 965.074C467.836 968.488 467.653 971.544 468.383 974.958C468.93 977.115 468.018 978.912 466.376 980.709C457.437 989.695 446.674 991.492 434.816 988.796C429.161 987.538 424.965 983.944 421.681 979.451C420.404 977.654 419.309 975.857 418.215 973.88C416.573 970.645 416.938 967.41 418.762 964.535C421.316 960.581 424.235 956.807 426.971 953.033C429.525 949.439 429.89 945.485 428.796 941.352C428.431 940.274 426.971 939.555 426.242 938.656C422.776 934.163 419.492 929.671 416.208 925.178C413.837 921.943 411.283 918.708 408.911 915.653C402.708 907.925 396.688 900.018 394.134 890.314C393.952 889.595 393.404 888.516 393.769 887.977C394.681 886.719 393.769 886.36 393.04 885.461C392.31 884.563 390.85 883.484 392.857 882.406C393.04 882.406 393.04 881.687 392.857 881.328C390.486 877.015 390.668 871.983 388.661 867.67C387.384 864.794 385.378 861.919 383.371 859.403C382.094 857.786 381.182 855.629 378.81 855.27C376.803 851.316 373.155 848.8 370.418 845.385C365.31 839.095 360.02 832.985 354.547 826.875C352.358 824.539 349.804 822.562 347.432 820.585C347.25 820.765 346.885 820.945 346.885 821.124C348.162 826.336 349.257 831.727 351.993 836.4C353.27 838.377 353.635 840.893 354.912 842.869C360.202 852.394 363.668 862.638 368.412 872.342C372.608 881.148 377.351 889.595 383.918 896.963C389.756 903.433 395.776 909.902 401.249 916.731C404.533 920.685 407.269 925.178 409.458 929.85C410.735 932.546 413.472 934.523 413.472 937.937C413.472 942.61 414.931 947.103 413.107 951.955C412.012 955.19 412.012 958.784 411.647 962.378C411.282 969.567 410.918 976.755 410.553 983.944C410.553 985.381 409.823 986.999 409.458 988.796C407.999 988.796 406.539 988.796 405.08 988.437C389.938 985.381 374.979 982.326 359.837 979.091C358.013 978.732 356.189 978.373 357.101 975.857C358.925 971.004 358.013 966.152 357.831 961.3C357.648 956.807 357.831 956.807 362.027 955.19C364.581 954.291 367.317 953.752 369.506 952.314C371.513 951.056 374.249 949.978 374.432 947.103C370.418 943.688 366.04 941.352 361.115 939.914C360.202 939.734 359.473 938.297 358.925 937.398C357.466 934.343 356.007 931.108 354.912 927.873C353.635 924.279 351.446 921.224 349.074 918.349C344.878 913.496 341.047 908.465 337.034 903.792C334.115 900.557 330.466 898.041 327.73 894.447C326.453 892.65 324.994 890.853 323.717 889.235C327.365 886.899 330.649 884.742 334.115 882.406C333.02 878.093 337.034 876.296 338.676 872.881C338.311 871.623 337.581 870.006 337.034 868.209C338.128 868.209 339.405 868.029 341.412 867.849C339.041 866.232 339.588 862.458 335.574 864.435C334.297 861.02 331.561 859.403 328.46 858.145C324.081 856.528 319.886 854.012 315.507 852.394C311.859 851.136 308.21 849.339 304.561 847.901C303.467 847.542 302.555 846.464 301.825 845.385C299.636 841.971 297.629 838.377 296.899 834.243C296.717 832.806 295.987 831.548 295.622 830.29C298.359 828.313 300.913 826.336 303.649 824.539C305.838 822.921 306.933 820.765 306.933 818.249C307.116 807.466 313.318 799.559 319.521 791.651C323.899 785.901 329.189 781.048 335.027 776.555C339.223 773.321 341.777 768.828 344.331 764.335C345.79 761.639 347.98 759.303 350.351 757.147C355.277 752.294 360.02 747.622 364.398 742.23C370.418 734.862 376.803 727.494 383.371 720.485C386.655 716.891 390.486 713.836 394.317 710.601C397.418 708.085 398.33 704.491 399.789 701.256C401.249 697.841 402.161 694.247 403.803 691.012C405.262 688.137 407.269 685.441 409.458 682.925C414.384 677.534 420.586 673.76 427.154 670.705C435.91 666.392 444.667 662.258 453.241 657.766C464.917 651.476 476.41 644.646 487.903 637.997C490.822 636.38 493.74 634.762 496.659 633.325C499.943 631.707 502.132 629.012 504.321 625.956C509.977 617.69 515.449 609.243 523.294 602.773C524.206 602.055 525.301 601.516 526.213 600.976C533.328 596.843 540.077 592.71 542.996 584.623C543.544 583.185 545.185 582.107 546.28 580.669C546.827 579.95 547.739 579.411 547.922 578.692C548.469 573.121 554.307 570.785 556.314 566.112C556.678 565.214 559.05 564.854 560.509 564.854C570.543 564.495 580.577 564.135 590.61 563.776C596.63 563.596 602.468 563.416 608.488 563.237C609.948 563.237 611.225 563.416 613.049 563.776C611.225 567.37 609.4 570.066 606.299 572.043C601.556 575.098 596.813 578.153 592.435 581.567C585.867 586.42 579.482 591.631 572.915 596.663C571.455 597.742 569.813 598.64 568.536 600.078C569.631 599.718 570.726 599.359 571.638 599C575.469 596.843 579.482 594.686 583.313 592.35C592.799 586.599 602.833 581.567 613.049 577.614C617.61 575.817 621.988 573.84 626.731 572.402C631.292 570.964 635.853 569.347 640.778 570.964C644.062 572.043 645.339 574.199 644.062 577.434C643.88 577.793 643.697 578.153 643.515 578.512C640.596 582.466 638.224 586.599 636.765 591.272C636.4 592.35 635.123 593.428 634.211 594.147C631.292 596.124 628.556 598.281 625.272 599.539C620.529 601.336 617.427 604.75 614.326 608.524C609.036 614.994 603.563 621.284 597.907 627.394C594.806 630.629 591.158 633.325 587.144 635.301C583.678 637.099 580.394 639.075 576.928 641.232C572.003 644.107 567.077 646.803 561.786 648.96C553.76 652.194 545.915 656.148 538.253 659.922C530.226 663.876 522.017 667.65 513.99 671.963C505.051 676.635 497.936 683.105 493.558 692.27C492.099 695.505 489.362 698.021 486.443 700.178C484.801 701.436 483.342 703.233 482.43 705.21C478.964 712.398 472.396 715.633 465.646 718.508C464.005 719.766 462.18 719.407 459.444 719.766ZM521.835 650.218C521.652 649.858 521.287 649.499 521.105 649.139C516.727 650.757 512.166 652.374 507.97 654.351C502.862 656.508 498.119 659.203 493.011 661.539C484.254 665.493 475.498 669.267 467.653 674.838C465.281 676.635 462.728 678.432 460.721 680.589C459.261 682.206 458.167 684.363 459.444 686.699C460.173 686.52 460.903 686.34 461.633 686.16C462.363 685.801 463.275 685.621 463.822 685.082C471.667 679.151 480.241 675.018 489.362 671.603C499.578 667.829 509.429 663.337 517.091 655.07C518.733 653.093 520.375 651.655 521.835 650.218ZM533.51 643.029C537.159 641.591 540.442 640.333 543.544 638.896C547.739 637.099 551.935 634.942 556.131 632.965C557.591 632.246 558.685 630.988 557.956 629.551C557.408 628.652 555.401 627.754 554.307 627.933C552.118 628.293 549.746 629.191 547.922 630.449C542.814 634.223 537.523 637.278 533.51 643.029ZM453.606 947.822H453.788C453.788 947.282 453.788 946.743 453.788 946.204C453.788 946.204 453.789 946.204 453.606 946.204C453.606 946.743 453.606 947.282 453.606 947.822Z" fill="url(#paint6_linear)"/>
<path d="M712.108 1295.21C709.554 1293.95 707.365 1293.05 705.358 1292.15C698.973 1289.46 695.324 1285.14 694.594 1277.95C693.865 1271.3 695.324 1265.73 698.973 1260.16C702.439 1254.59 707.364 1251.18 712.837 1248.3C714.297 1247.4 715.756 1246.5 717.398 1245.61C713.02 1242.91 708.824 1240.39 704.628 1237.7C702.986 1236.62 701.344 1235.18 700.25 1233.56C697.696 1229.97 694.412 1226.74 692.77 1222.24C691.493 1218.65 690.581 1215.23 691.128 1211.46C691.858 1206.79 692.588 1202.11 694.23 1197.44C696.419 1191.33 698.79 1185.22 701.344 1179.29C701.892 1177.85 701.709 1176.06 702.074 1174.44C703.534 1165.45 707.365 1157.19 713.202 1150.18C716.668 1145.86 720.499 1141.55 725.972 1139.04C728.891 1137.6 731.628 1135.44 733.999 1133.28C737.83 1129.69 742.573 1128.07 747.134 1126.1C751.695 1124.12 756.62 1122.86 761.728 1121.06C761.546 1119.99 761.364 1118.73 760.999 1117.47C759.722 1112.98 760.634 1110.1 765.012 1107.41C769.573 1104.53 774.134 1101.66 778.877 1099.14C784.714 1095.9 790.552 1092.67 796.39 1089.79C802.228 1086.92 808.248 1084.22 814.633 1081.17C812.079 1077.75 809.707 1074.34 807.336 1071.1C804.052 1066.61 800.403 1062.12 797.302 1057.27C793.289 1051.16 793.106 1044.69 796.207 1037.86C799.856 1030.13 804.417 1023.12 810.437 1017.01C814.998 1012.34 819.376 1007.31 824.119 1002.63C827.768 999.04 827.403 994.547 827.038 990.234C826.856 987.538 825.579 985.022 825.031 982.326C824.484 979.631 823.754 976.755 823.937 973.88C824.302 969.387 826.855 965.973 830.504 963.277C840.72 955.909 852.213 953.213 864.618 953.033C873.922 952.853 883.226 953.752 892.165 956.807C895.449 957.886 898.915 958.245 902.564 958.245C913.327 958.245 924.09 958.245 935.401 958.245C935.036 959.683 934.854 960.581 934.489 961.48C932.482 967.231 931.752 973.341 931.752 979.271C931.752 986.46 929.563 992.75 926.827 999.219C922.084 1010.72 924.455 1007.67 912.962 1009.1C909.861 1009.46 906.942 1009.64 903.841 1010C903.111 1010.18 902.199 1010.54 901.469 1010.9C902.016 1013.96 902.746 1016.83 903.293 1019.71C904.205 1023.66 903.841 1027.61 902.928 1031.57C902.016 1035.34 901.834 1039.3 900.557 1042.89C896.726 1052.41 891.253 1061.04 883.044 1067.51C877.388 1072.18 870.821 1075.42 863.889 1077.57C856.774 1079.91 849.477 1082.07 842.18 1083.32C834.7 1084.58 827.038 1085.3 818.464 1082.97C808.248 1090.15 797.484 1098.06 786.356 1105.97C784.532 1107.23 782.343 1108.3 780.519 1109.74C777.782 1111.9 775.228 1114.06 772.674 1116.39C772.127 1116.93 772.127 1117.83 771.762 1118.91C772.674 1119.09 773.221 1119.27 773.769 1119.27C778.694 1119.27 783.62 1119.27 788.545 1119.27C794.93 1119.45 800.221 1121.96 805.146 1125.92C807.883 1128.25 809.342 1131.49 809.525 1134.9C809.89 1139.22 809.16 1143.53 808.795 1147.66C808.248 1153.77 807.7 1160.06 806.971 1166.17C805.876 1173.72 806.971 1181.45 803.87 1188.82C801.863 1193.67 801.133 1199.06 799.674 1204.09C798.214 1209.12 796.937 1214.34 794.93 1219.01C790.917 1227.99 784.167 1234.46 775.593 1239.32C766.472 1244.53 756.62 1247.4 746.222 1248.12C740.567 1248.48 734.911 1247.94 729.438 1247.58C727.797 1247.58 725.972 1246.14 724.513 1247.94C722.689 1249.92 721.229 1252.07 721.229 1254.77C721.412 1257.65 722.689 1260.16 725.425 1261.24C727.432 1262.14 729.621 1262.86 731.628 1262.86C737.648 1263.04 743.85 1263.04 749.87 1262.68C760.816 1262.14 771.762 1260.52 782.89 1261.42C790.187 1262.14 797.484 1263.22 803.687 1267.17C810.072 1271.3 814.086 1276.88 814.815 1284.6C815.91 1295.92 811.349 1304.73 803.505 1312.28C794.201 1321.26 782.89 1327.73 770.667 1332.05C759.722 1335.82 748.411 1338.16 736.553 1338.34C729.621 1338.52 722.689 1338.34 715.756 1337.26C708.459 1336.18 701.709 1333.84 695.871 1329.35C690.216 1324.86 687.48 1318.39 689.669 1311.92C691.493 1306.35 695.689 1302.57 700.797 1299.88C704.263 1298.62 707.729 1297.18 712.108 1295.21ZM784.897 1134.9C784.532 1132.21 783.802 1130.95 781.431 1130.77C779.606 1130.59 777.6 1130.95 775.958 1131.67C772.674 1133.11 769.39 1134.9 766.472 1136.7C763.37 1138.68 760.269 1140.65 757.532 1143.17C755.343 1144.97 753.884 1147.48 751.877 1149.46C748.046 1153.23 745.675 1157.91 744.033 1162.94C741.844 1169.77 739.29 1176.42 737.283 1183.42C735.094 1190.97 731.445 1198.16 729.621 1206.07C728.161 1212.54 728.526 1218.47 730.898 1224.58C732.905 1229.79 735.459 1234.82 740.749 1238.06C744.58 1240.21 748.046 1239.67 751.33 1237.7C755.161 1235.36 756.803 1231.23 758.262 1227.27C760.087 1222.06 760.451 1216.49 761.546 1210.92C762.641 1205.35 763.735 1199.78 765.924 1194.39C768.661 1188.1 770.667 1181.63 771.762 1174.98C773.404 1164.91 775.411 1155.03 780.154 1145.86C782.343 1142.27 783.437 1138.5 784.897 1134.9ZM856.044 987.179C856.409 994.367 854.402 1000.84 849.477 1006.05C844.004 1011.98 839.808 1018.45 836.342 1025.64C833.605 1031.39 831.964 1037.14 831.781 1043.25C831.781 1045.05 831.416 1047.02 831.781 1048.82C833.241 1056.37 836.707 1063.02 841.815 1068.77C843.639 1070.92 846.011 1072.36 849.112 1072C854.037 1071.28 858.051 1068.95 860.787 1064.63C863.159 1061.04 863.706 1056.91 864.436 1052.77C865.895 1043.61 867.172 1034.44 868.814 1025.28C870.091 1018.63 870.456 1012.16 868.997 1005.69C868.085 1001.56 868.632 997.961 870.821 994.547C871.551 993.469 871.916 992.211 872.828 991.132C876.476 986.28 877.571 980.709 877.753 974.958C877.936 972.263 877.388 969.567 876.294 967.051C874.834 963.636 871.733 961.839 868.085 961.66C863.889 961.48 860.058 962.558 857.868 966.332C856.227 969.028 854.95 971.903 855.314 975.318C855.679 979.271 855.679 983.225 856.044 987.179ZM748.594 1327.55C756.803 1327.37 765.559 1325.22 773.586 1320.55C777.417 1318.39 781.066 1315.87 782.89 1311.74C786.356 1303.47 784.35 1298.26 777.052 1295.92C772.127 1294.49 767.384 1294.67 762.458 1295.21C757.35 1295.74 752.425 1296.28 747.317 1296.46C739.655 1296.64 731.992 1296.64 724.148 1296.46C721.776 1296.46 720.499 1297 719.222 1299.16C714.479 1307.79 717.216 1316.77 725.79 1322.52C732.357 1326.84 739.837 1327.37 748.594 1327.55Z" fill="url(#paint7_linear)"/>
<path d="M770.668 1002.81C771.945 1005.51 773.039 1007.13 773.586 1009.1C774.681 1012.7 775.593 1016.29 776.14 1019.89C777.053 1025.1 777.6 1030.49 778.147 1035.88C778.877 1042.53 779.607 1049.18 780.154 1055.83C780.336 1057.27 779.971 1058.7 779.971 1060.5C772.309 1061.4 764.83 1062.12 757.168 1063.2C747.499 1064.28 738.013 1065.53 728.344 1066.79C721.594 1067.69 714.844 1068.59 707.912 1069.31C705.358 1069.49 704.081 1070.21 703.351 1072.9C702.439 1076.5 700.432 1079.73 697.149 1081.89C696.601 1082.25 695.872 1082.79 695.689 1083.32C694.23 1087.28 690.946 1089.43 687.845 1091.77C677.811 1100.04 667.048 1107.59 655.737 1113.88C649.535 1117.29 644.427 1121.6 639.501 1126.82C644.062 1128.25 648.622 1129.51 653.001 1130.95C657.561 1132.39 662.122 1134.18 666.865 1135.62C669.967 1136.52 673.068 1137.24 676.169 1137.96C682.554 1139.57 688.939 1141.01 695.324 1142.63C696.966 1142.99 698.243 1144.07 699.52 1144.79C697.331 1148.92 695.324 1152.87 692.953 1156.47C691.128 1159.52 690.034 1162.76 689.487 1165.99C688.21 1171.92 686.75 1177.85 684.379 1183.6C682.189 1189 680.73 1194.75 678.723 1200.14C676.352 1206.61 676.534 1213.08 676.169 1219.73C675.987 1221.52 676.352 1223.5 676.352 1225.84C651.359 1227.63 626.366 1229.43 601.738 1231.05C598.819 1239.49 606.299 1262.32 620.346 1268.61C630.197 1272.92 640.048 1274 650.447 1271.12C661.21 1268.25 667.413 1260.16 673.25 1251.36C675.44 1252.07 677.264 1252.79 679.635 1253.69C678.906 1256.75 678.358 1259.8 677.446 1262.68C674.162 1271.84 669.784 1280.29 662.305 1286.94C654.278 1294.13 644.974 1298.8 634.211 1300.6C624.542 1302.39 614.691 1302.21 605.204 1300.06C592.434 1297.36 582.766 1290.17 575.833 1279.39C572.367 1273.82 569.266 1268.07 566.712 1261.96C565.252 1258.72 564.888 1254.95 564.888 1251.36C564.888 1243.09 564.887 1234.64 565.617 1226.38C565.982 1221.16 567.989 1215.95 570.178 1211.1C574.009 1202.47 578.022 1193.67 579.847 1184.32C580.212 1182.89 580.941 1181.45 581.489 1180.01C581.671 1179.65 581.853 1179.29 581.853 1178.93C580.759 1175.34 582.218 1172.28 582.766 1168.87C583.13 1166.89 583.86 1164.91 584.225 1162.94C584.59 1160.78 585.32 1158.62 585.502 1156.29C586.049 1151.44 588.421 1147.48 590.975 1143.53C593.894 1138.86 596.995 1134 600.644 1129.87C607.758 1121.6 615.42 1113.7 625.454 1108.66C629.103 1106.87 632.021 1103.99 635.305 1101.84C639.319 1099.14 643.514 1096.62 647.163 1093.57C651.176 1090.33 655.007 1086.92 658.656 1083.32C661.575 1080.45 664.676 1077.39 666.683 1073.98C668.507 1071.1 669.237 1067.33 669.967 1063.92C671.061 1057.99 672.156 1051.88 675.257 1046.48C677.446 1042.53 680.365 1038.94 683.102 1035.34C690.399 1025.46 700.068 1017.91 709.007 1009.46C711.925 1006.59 715.027 1003.89 716.121 999.758C717.033 996.703 716.486 994.367 715.027 991.671C712.473 986.999 709.919 982.506 707.729 977.654C704.993 971.903 706.452 967.949 711.196 963.456C720.317 955.01 731.628 951.056 743.486 950.158C754.614 949.259 765.56 951.056 775.411 956.987C779.242 959.323 783.255 962.019 785.262 966.512C786.721 969.746 787.269 972.622 786.356 976.216C784.715 983.584 780.519 988.976 775.228 994.187C771.215 995.625 771.945 1000.3 770.668 1002.81ZM624.542 1144.43C622.9 1146.58 621.076 1148.38 619.981 1150.72C617.245 1156.29 615.238 1162.22 613.961 1168.33C613.231 1171.92 612.684 1175.34 611.772 1178.93C610.495 1184.14 608.67 1189 607.029 1194.03C604.292 1201.76 602.103 1209.48 600.826 1217.57C600.644 1218.65 600.826 1219.73 600.826 1221.34C614.326 1220.45 627.643 1219.37 640.413 1218.47C640.96 1213.8 641.69 1209.66 642.055 1205.35C642.785 1198.88 645.521 1193.13 647.528 1187.2C647.893 1186.12 649.352 1184.86 649.17 1183.96C648.805 1178.93 651.724 1174.8 652.636 1170.13C653.548 1165.09 655.555 1160.24 657.014 1155.39C646.981 1150.18 635.67 1148.02 624.542 1144.43ZM744.033 1054.57C743.85 1048.1 743.668 1042.17 743.486 1036.24C743.486 1029.41 744.763 1022.4 742.026 1015.57C741.114 1013.6 740.384 1012.16 738.742 1011.08C736.736 1009.82 734.547 1010.36 732.54 1011.44C726.52 1014.49 721.959 1018.45 717.398 1024.38C714.844 1027.61 712.29 1030.85 710.284 1034.62C706.635 1041.45 703.716 1048.1 704.446 1056.01C704.628 1058.7 704.811 1058.88 707.547 1058.52C714.844 1057.81 722.324 1057.09 729.621 1056.37C734.547 1056.01 739.472 1055.29 744.033 1054.57ZM756.62 972.622C755.891 970.286 755.343 967.59 754.066 965.254C752.06 961.839 748.594 960.222 744.398 960.761C739.472 961.48 735.459 963.636 733.634 968.309C730.716 975.497 733.27 981.787 737.83 987.358C740.202 990.234 743.668 990.593 747.317 988.976C754.066 985.741 754.614 979.091 756.62 972.622Z" fill="url(#paint8_linear)"/>
<path d="M549.016 478.772C529.861 478.053 511.618 477.514 493.193 476.975C492.281 474.279 489.727 472.122 491.551 468.708C491.916 468.169 491.369 467.09 490.821 466.372C487.538 460.98 483.524 456.308 480.97 450.377C479.146 446.064 475.315 443.189 472.031 439.954C469.295 437.258 466.923 434.383 464.369 431.687C464.187 431.507 464.004 431.148 463.822 430.968C458.531 427.913 456.889 422.522 454.518 417.49C452.146 412.458 449.775 407.426 447.768 402.214C445.579 396.463 446.856 390.892 448.68 385.321C449.775 381.907 450.687 378.492 451.781 374.179C454.335 372.382 457.984 370.225 461.45 367.889C464.004 366.272 465.281 364.115 465.646 360.88C466.193 354.59 467.105 348.48 468.2 342.37C468.565 340.213 469.477 337.877 470.754 336.08C474.038 330.868 477.321 325.657 481.152 320.804C485.166 315.593 489.362 310.381 493.74 305.529C501.402 296.723 508.882 287.737 516.909 279.111C521.652 273.899 527.125 269.407 532.233 264.375C534.604 262.218 536.611 259.882 539.165 257.905C543.178 254.491 547.009 251.256 551.205 248.021C556.313 244.247 561.421 240.653 565.435 235.621C567.259 233.464 569.448 231.487 571.637 229.69C576.016 225.916 579.664 221.603 582.583 216.571C586.414 209.922 591.704 204.53 596.63 198.78C599.731 195.365 601.556 191.411 602.65 187.098C603.197 185.121 602.65 182.965 602.65 180.449C604.839 178.292 607.211 175.956 609.765 173.44C611.589 171.643 613.778 171.104 616.515 171.104C626.731 171.643 636.764 171.823 646.98 172.182C652.088 172.362 657.196 172.721 662.122 172.901C662.852 172.901 663.399 173.26 664.676 173.8C659.386 179.73 653.001 183.863 647.528 189.075C642.055 194.467 636.4 199.498 631.292 205.429C632.021 205.249 632.751 205.07 633.298 204.71C644.609 196.803 656.832 190.153 669.784 185.481C674.345 183.863 678.906 182.605 683.831 182.965C688.209 183.324 690.216 185.121 691.311 189.255C692.588 194.287 690.946 199.139 690.216 203.812C690.034 205.07 688.757 206.328 687.845 207.226C681.095 213.157 674.162 219.087 666.318 223.4C663.034 225.197 659.203 226.455 655.372 227.534C651.176 228.612 650.082 228.073 648.075 224.119C646.98 221.963 645.886 219.806 644.974 217.649C642.785 211.719 638.406 209.562 632.386 211.899C627.825 213.696 623.812 216.391 620.711 220.345C617.974 223.939 614.691 227.174 611.407 230.229C604.475 236.879 597.907 243.708 589.88 249.099C583.313 253.412 577.657 258.804 572.185 264.375C569.631 267.07 567.077 269.946 564.158 272.282C556.678 278.213 551.935 286.479 544.82 292.59C542.449 294.566 540.989 297.622 538.8 299.958C534.057 305.169 529.314 310.201 524.753 315.413C523.841 316.491 523.658 317.929 522.746 319.187C519.827 323.32 516.726 327.094 513.99 331.407C510.524 336.619 507.97 342.19 508.152 348.84C508.152 350.637 507.787 352.434 507.605 354.411C511.253 358.724 516.361 359.263 521.469 358.005C526.212 356.747 530.773 354.59 535.334 352.793C537.158 352.074 538.8 351.535 540.442 350.637C545.55 347.582 550.293 348.84 554.671 352.074C558.32 354.95 562.151 357.825 564.158 362.677C562.333 364.115 560.692 365.733 558.685 366.991C553.394 370.225 549.928 374.718 548.834 381.008C548.104 385.86 545.915 390.713 546.827 395.745C547.192 397.721 547.192 399.878 547.922 401.675C549.746 406.527 551.57 411.38 554.124 415.872C556.131 419.287 559.232 421.983 561.604 425.038C565.435 429.71 569.266 434.383 572.914 439.055C575.651 442.47 578.752 445.884 580.941 449.658C583.678 454.511 586.961 459.003 590.245 463.496C593.346 467.989 592.069 472.122 586.961 473.56C577.84 476.076 568.901 475.537 560.327 471.044C555.948 468.708 553.03 464.934 549.746 461.699C545.732 457.925 541.719 453.792 537.888 449.658C536.064 447.681 534.604 445.345 533.327 443.009C531.138 439.235 528.584 435.461 526.942 431.507C525.665 428.632 525.848 425.217 524.935 422.162C524.023 418.209 524.023 413.896 520.74 410.481C514.355 403.652 513.99 389.275 519.645 381.907C522.017 378.672 522.017 375.437 519.28 372.382C518.003 370.944 516.726 369.686 515.267 368.428C512.348 366.092 509.429 363.756 505.963 361.06C505.963 364.115 505.598 366.631 505.78 369.147C505.963 374.179 505.78 379.031 503.409 383.704C500.672 388.916 501.037 394.307 502.132 399.878C503.226 405.449 505.78 410.301 508.334 415.154C510.888 419.826 512.713 424.858 515.084 429.531C516.544 432.406 518.55 435.102 520.375 437.797C523.658 442.65 527.125 447.502 530.773 452.174C534.057 456.487 537.705 460.621 541.354 464.574C544.455 469.427 546.644 473.74 549.016 478.772Z" fill="url(#paint9_linear)"/>
<path d="M362.756 1106.33C365.858 1105.79 368.594 1105.79 371.148 1104.89C378.445 1102.73 385.743 1100.4 392.857 1097.88C395.594 1096.98 398.33 1095.72 401.431 1094.29C400.702 1098.42 399.06 1101.66 396.871 1104.53C393.04 1109.38 389.026 1114.06 385.378 1119.09C381.364 1124.3 377.351 1129.87 373.337 1135.08C370.418 1139.04 367.135 1142.81 364.216 1146.58C364.216 1146.76 364.033 1146.94 364.033 1146.94C358.378 1148.74 356.736 1154.49 353.088 1158.44C351.446 1160.24 350.351 1162.76 349.804 1165.27C348.345 1171.56 347.432 1177.85 346.52 1184.32C345.973 1187.56 344.514 1190.79 345.061 1194.39C345.243 1196.18 345.061 1197.8 346.155 1199.6C347.25 1201.58 346.703 1204.09 345.608 1206.25C343.419 1210.74 340.865 1214.87 338.676 1219.37C332.838 1230.87 322.805 1232.85 312.041 1228.17C309.305 1227.09 306.751 1225.66 304.014 1224.94C298.724 1223.32 293.251 1225.84 290.879 1230.51C289.785 1232.85 288.873 1235 288.873 1237.7C289.42 1248.84 289.785 1259.98 290.15 1271.3C290.515 1282.45 290.879 1293.59 291.609 1304.55C292.156 1314.79 293.981 1316.05 304.562 1317.49C307.116 1317.85 309.67 1317.85 312.406 1317.85C312.589 1320.55 312.953 1322.7 313.136 1325.4C287.778 1327.73 262.603 1330.25 236.88 1332.23C236.698 1329.53 236.516 1327.55 236.333 1325.58C239.434 1324.14 242.536 1323.24 245.09 1321.62C250.015 1318.57 252.387 1314.08 251.657 1308.32C251.475 1306.53 251.475 1304.55 251.475 1302.75C251.11 1291.25 250.745 1279.75 250.38 1268.07C250.015 1258.19 249.65 1248.12 249.103 1238.24C248.921 1235.9 248.921 1233.74 248.738 1231.41C248.373 1226.38 246.002 1222.78 241.259 1220.8C239.07 1219.91 236.698 1219.19 234.326 1218.47C234.144 1217.75 233.962 1217.21 233.779 1216.49C232.867 1212.72 233.414 1211.82 237.245 1210.56C247.826 1206.79 258.407 1203.19 268.623 1199.06C273.184 1197.26 278.109 1195.47 281.758 1191.69C282.123 1191.33 282.67 1190.97 283.035 1190.43C285.771 1186.84 288.325 1183.24 291.244 1179.83C294.346 1176.24 294.71 1171.56 296.9 1167.43C297.264 1166.71 297.812 1165.99 298.906 1165.45C297.812 1170.84 297.264 1176.42 295.805 1181.81C293.981 1188.64 291.244 1195.29 289.42 1202.11C287.778 1208.76 286.866 1215.59 287.596 1222.78C288.143 1222.6 288.873 1222.42 288.873 1222.24C292.521 1213.08 299.089 1206.07 305.474 1198.7C307.48 1196.36 309.852 1194.39 310.764 1191.33C311.129 1189.89 312.771 1188.82 313.866 1187.38C314.23 1186.84 314.778 1186.12 314.96 1185.58C317.149 1178.39 319.521 1171.02 321.345 1163.66C322.257 1160.06 321.892 1156.29 322.44 1152.51C322.805 1150.18 323.899 1148.02 324.811 1145.68C328.642 1134.54 335.392 1125.02 342.324 1115.49C343.966 1113.16 346.338 1111.36 347.98 1109.02C343.966 1109.92 341.23 1112.98 338.129 1114.95C334.662 1117.29 331.379 1119.99 328.277 1122.68C325.359 1125.38 322.44 1128.25 319.886 1131.31C317.149 1134.36 314.778 1137.6 312.406 1140.83C309.852 1144.25 307.298 1147.48 305.291 1151.08C303.285 1154.49 301.825 1158.09 299.636 1162.76C298.541 1159.52 297.264 1157.37 297.082 1155.21C296.9 1151.62 295.987 1148.56 294.528 1145.33C293.981 1144.07 293.981 1142.45 293.981 1141.01C293.981 1137.78 292.521 1134.54 295.258 1131.67C295.623 1131.31 295.623 1130.59 295.44 1130.05C293.981 1124.66 294.346 1118.37 288.143 1115.31C287.596 1114.95 287.048 1114.41 286.136 1113.88C287.048 1112.98 287.778 1112.26 288.508 1111.54C292.704 1108.48 297.082 1106.51 302.372 1105.79C310.764 1104.71 318.609 1101.48 325.358 1096.26C326.635 1095.37 328.277 1095.01 329.554 1094.11C334.662 1090.69 339.223 1086.56 342.872 1081.53C345.061 1078.29 344.149 1075.42 340.318 1073.8C339.223 1073.44 338.129 1072.9 337.034 1072.54C337.034 1069.85 337.034 1067.15 337.034 1064.45C354.547 1058.52 371.878 1052.59 389.574 1046.48C389.756 1050.8 390.121 1054.93 390.303 1059.06C390.303 1059.78 390.303 1060.5 390.486 1061.04C391.398 1065.53 391.398 1070.03 389.574 1074.7C390.303 1073.98 391.215 1073.44 391.58 1072.54C394.499 1067.51 397.053 1062.3 400.337 1057.45C405.445 1050.08 412.56 1044.51 420.404 1040.19C426.424 1036.96 433.721 1038.94 438.465 1044.51C440.471 1047.02 442.843 1049.36 445.214 1051.52C446.674 1052.77 447.404 1054.21 447.039 1056.01C445.762 1063.74 442.113 1070.57 435.91 1075.42C429.343 1080.63 422.046 1084.76 414.019 1087.46C412.377 1088 410.735 1089.61 409.276 1088C407.999 1086.56 407.452 1084.58 406.904 1082.79C406.539 1081.53 406.357 1080.09 405.992 1078.83C405.445 1076.86 404.168 1076.14 402.161 1076.32C400.337 1076.68 398.33 1076.86 396.871 1077.75C390.668 1081.71 384.466 1085.66 378.445 1089.97C374.249 1093.03 370.418 1096.44 366.405 1099.86C363.669 1101.66 363.121 1102.73 362.756 1106.33Z" fill="url(#paint10_linear)"/>
<path d="M687.297 588.576C691.676 589.115 696.054 589.475 700.25 590.014C701.709 590.194 703.351 590.912 704.628 591.811C708.641 594.327 708.824 599.898 704.81 602.414C701.162 604.75 697.148 606.547 693.317 608.524C691.858 609.243 690.034 609.962 688.574 610.861C683.466 613.916 683.831 614.994 685.473 619.127C686.385 621.643 687.115 623.98 687.662 626.496C688.757 630.629 688.209 632.246 684.378 634.762C682.007 636.2 679.635 637.638 677.629 639.435C675.075 641.591 672.885 643.748 671.244 646.803C669.237 650.577 666.136 653.632 662.122 655.968C660.48 656.867 659.021 657.945 657.379 659.023C648.987 664.595 639.683 668.728 630.562 673.041C623.812 676.276 617.792 680.589 613.596 686.879C611.407 690.114 609.582 693.528 608.488 697.123C606.481 704.311 602.65 709.702 596.995 714.555C591.704 719.047 586.596 723.72 581.853 728.932C578.752 732.166 576.745 736.3 574.191 739.894C571.455 743.488 568.718 747.083 565.617 750.497C563.428 752.833 561.786 755.529 558.685 757.147C556.86 758.225 555.766 760.92 554.489 762.897C552.847 765.593 551.935 768.648 549.928 771.164C547.557 774.219 544.82 777.634 541.536 779.611C536.428 782.666 532.962 787.338 528.949 791.292C522.929 797.222 518.55 804.411 514.172 811.599C511.253 816.092 507.605 820.046 503.409 823.281C497.936 827.594 494.47 833.165 490.274 838.377C487.355 841.791 484.436 845.385 481.152 848.44C479.875 849.698 477.504 849.698 475.68 850.417C470.754 852.574 465.646 851.675 460.72 850.597C457.802 850.058 455.065 847.901 452.511 846.284C449.045 844.307 445.579 842.151 442.113 839.994C439.194 838.197 436.457 836.04 433.539 834.063C427.336 829.571 421.133 825.258 414.931 820.765C413.836 819.866 412.742 818.788 412.012 817.71C410.37 815.014 410.37 813.936 412.924 811.779C416.937 808.544 420.951 805.489 425.147 802.254C425.512 801.895 426.241 801.536 426.424 801.176C429.343 795.066 435.18 792.011 440.106 787.877C446.308 782.845 453.606 781.587 461.085 780.689C461.815 780.509 463.092 781.408 463.457 781.947C463.822 782.845 463.457 784.103 462.91 784.822C459.808 789.675 456.525 794.347 453.423 799.02C451.052 802.614 450.139 806.388 450.139 810.881C450.139 816.811 452.329 820.765 455.977 824.898C460.173 829.571 466.923 828.672 470.754 823.46C474.585 818.249 476.592 812.139 479.328 806.567C479.693 805.669 479.875 804.591 480.423 803.872C483.524 799.738 486.26 795.425 489.727 791.651C494.287 786.799 499.213 782.127 504.503 777.634C507.422 775.118 509.976 772.602 511.983 769.367C516.909 760.561 524.023 753.732 531.32 746.903C535.151 743.309 538.8 739.355 541.719 735.042C547.192 727.494 552.482 719.766 560.144 714.016C564.158 710.96 565.799 706.647 567.806 702.334C569.995 697.482 571.637 692.091 574.739 687.777C578.752 682.027 584.042 677.174 590.61 673.94C598.637 669.986 606.846 666.212 614.69 661.899C620.711 658.664 626.366 654.89 632.204 651.296C637.129 648.42 642.055 645.725 646.798 642.67C651.906 639.615 656.832 636.38 661.94 633.325C665.041 631.348 667.23 628.832 666.5 624.878C665.953 621.284 663.946 619.487 660.298 619.846C657.014 620.026 653.913 621.284 651.724 623.62C644.244 632.246 634.21 637.278 624.359 642.49C605.569 652.374 586.779 661.899 567.806 671.244C557.225 676.456 549.016 683.644 544.273 694.427C543.908 695.146 543.543 696.044 542.996 696.583C539.712 699.459 538.618 703.412 537.341 707.366C536.611 709.523 535.516 711.679 533.874 713.117C526.942 718.868 521.652 725.877 516.361 732.706C514.902 734.503 513.26 736.12 511.618 737.558C508.152 740.613 504.686 743.668 501.22 746.723C494.47 752.474 487.537 758.225 480.605 763.976C476.044 767.75 472.943 767.75 468.018 764.694C466.011 763.436 465.281 761.28 466.558 759.303C468.2 757.146 470.024 754.99 471.666 753.013C474.585 749.778 477.139 746.364 477.139 741.691C477.139 741.332 477.139 740.793 477.321 740.433C482.065 733.604 483.342 725.158 490.274 719.587C494.835 715.992 498.301 710.96 502.314 706.827C504.139 704.85 504.503 702.514 504.321 700.178C504.321 698.201 504.686 696.404 505.78 694.607C508.334 690.833 510.524 686.879 513.078 683.105C514.355 681.308 516.179 679.69 518.003 678.253C522.929 674.838 528.219 671.603 533.874 669.267C540.624 666.392 546.827 662.797 553.394 659.563C562.881 654.89 572.367 650.038 581.853 645.365C594.988 638.896 607.941 632.067 618.886 622.182C621.988 619.307 625.636 617.15 629.102 614.814C631.839 612.837 633.663 610.501 633.663 606.907C633.663 604.571 634.758 602.774 636.947 601.875C653.183 595.585 669.237 588.756 687.297 588.576ZM685.838 600.617C680.912 598.64 671.973 600.437 669.054 603.492C667.777 604.93 667.96 606.188 669.784 606.727C670.696 606.907 671.791 606.907 672.885 606.907C677.993 606.547 682.007 604.211 685.838 600.617Z" fill="url(#paint11_linear)"/>
<path d="M456.342 1086.74C453.059 1081.71 455.613 1076.68 453.971 1072.18C455.613 1067.87 456.707 1063.2 458.714 1059.06C463.092 1050.62 470.937 1045.23 478.051 1039.12C483.524 1034.26 489.727 1030.85 496.294 1027.79C502.132 1025.1 507.97 1023.12 514.355 1022.22C519.645 1021.5 524.753 1020.96 529.861 1022.22C535.334 1023.48 540.077 1025.64 543.908 1029.95C548.651 1034.98 551.753 1040.73 553.577 1047.38C554.307 1049.9 555.401 1052.41 556.678 1054.75C559.415 1059.42 559.78 1064.63 559.232 1069.67C558.685 1074.52 555.584 1078.11 552.3 1081.53C540.807 1093.57 526.395 1102.01 512.713 1111.18C505.963 1115.67 499.578 1120.35 493.923 1126.28C488.632 1131.85 483.524 1137.6 478.416 1143.35C475.68 1146.4 472.761 1149.28 470.389 1152.69C467.653 1156.47 465.646 1160.78 464.187 1165.09C462.727 1169.41 461.268 1173.36 460.721 1178.03C460.356 1182.17 458.349 1186.12 456.707 1190.07C455.795 1192.41 455.795 1194.93 454.518 1197.26C453.788 1198.7 454.883 1200.86 454.701 1202.65C454.336 1210.02 455.065 1217.39 455.613 1224.94C456.16 1231.41 456.16 1237.88 456.525 1244.53C456.89 1251.18 457.254 1257.65 457.437 1264.3C457.437 1265.37 457.437 1266.63 457.619 1267.71C458.167 1274.72 458.714 1281.91 459.261 1288.92C459.991 1297 465.646 1298.8 472.214 1297C472.943 1296.82 473.856 1296.64 474.585 1296.28C475.497 1300.78 473.673 1303.65 470.207 1306.35C460.903 1313.54 450.322 1316.95 438.647 1316.77C431.532 1316.59 425.512 1313.36 421.863 1306.89C421.316 1305.99 420.951 1305.09 420.221 1303.83C419.127 1304.73 418.032 1305.45 417.303 1306.35C410.37 1314.44 401.431 1319.11 391.033 1321.08C382.276 1322.88 373.884 1321.98 366.04 1318.03C356.554 1313.18 352.54 1304.73 351.263 1294.67C350.898 1291.25 350.351 1287.84 350.534 1284.42C350.716 1279.57 352.54 1275.08 355.642 1271.48C359.108 1267.35 363.121 1263.76 368.047 1261.6C376.438 1257.83 384.83 1254.41 393.222 1251C400.519 1248.12 407.816 1245.43 415.113 1242.55C416.573 1242.01 417.485 1241.11 417.303 1239.32C416.938 1235.18 416.938 1230.87 416.755 1226.56C416.573 1221.52 416.208 1216.67 416.026 1211.64C415.843 1209.12 416.39 1206.61 416.208 1204.09C415.478 1196.54 419.492 1190.25 420.951 1183.24C422.046 1178.03 423.14 1172.82 424.417 1167.61C425.329 1164.2 425.877 1160.96 428.613 1158.09C430.255 1156.47 430.255 1153.41 431.714 1151.62C437.005 1145.15 442.478 1139.04 448.133 1132.93C453.241 1127.35 457.984 1121.24 464.369 1117.11C471.119 1112.62 478.051 1108.48 484.619 1103.81C491.551 1098.96 498.301 1093.57 505.233 1088.54C510.341 1084.76 514.72 1080.27 518.003 1074.88C518.915 1073.44 519.463 1071.82 519.645 1070.21C520.922 1063.2 518.733 1056.55 515.997 1050.26C515.267 1048.64 514.355 1047.02 513.625 1045.23C511.071 1038.4 505.233 1037.32 500.308 1042.89C497.206 1046.3 495.2 1050.44 494.288 1055.11C493.74 1057.99 493.558 1061.04 493.011 1063.92C492.098 1068.05 490.092 1071.64 486.99 1074.7C481.7 1079.55 475.862 1083.32 468.748 1085.12C466.194 1085.84 463.457 1086.56 460.903 1087.1C459.261 1086.92 457.619 1086.74 456.342 1086.74ZM418.397 1251C411.465 1254.05 405.262 1256.75 399.06 1259.62C390.85 1263.22 387.202 1269.15 388.114 1277.77C388.844 1283.7 390.668 1289.46 394.499 1294.49C400.337 1302.03 411.83 1302.93 418.58 1295.92C419.309 1295.03 420.039 1293.77 420.039 1292.51C420.039 1288.02 419.674 1283.34 419.309 1278.85C418.944 1274.18 418.397 1269.69 418.215 1265.01C418.215 1260.7 418.397 1256.39 418.397 1251Z" fill="url(#paint12_linear)"/>
<path d="M696.784 350.637C696.236 343.269 698.608 337.158 703.169 331.947C704.993 329.97 708.642 329.61 711.378 328.532C715.574 326.915 720.317 326.376 723.966 323.5C724.878 322.781 725.972 322.062 726.52 321.164C728.891 316.491 733.27 313.436 736.553 309.483C738.378 307.326 740.202 304.99 742.026 302.833C749.688 294.566 757.168 286.3 765.012 278.033C770.303 272.462 775.776 267.25 781.248 261.679C783.438 259.522 783.438 259.522 781.613 256.467C781.431 256.108 781.248 255.569 781.431 255.389C782.89 252.873 779.607 249.818 782.343 247.482C783.802 246.224 785.444 245.325 786.904 244.067C789.458 241.911 791.647 239.574 794.201 237.418C795.295 236.519 796.755 235.441 798.214 235.261C808.43 233.824 817.917 230.589 827.038 226.096C835.977 221.783 844.004 216.212 852.031 210.641C856.044 207.945 860.058 205.429 864.071 202.733C864.801 202.374 865.713 201.835 866.443 201.835C870.274 202.733 874.287 203.812 877.936 204.89C873.74 211.18 869.909 217.29 865.531 223.041C863.341 226.096 860.605 228.612 858.051 231.308C854.22 235.082 850.207 238.856 845.828 242.809C846.923 244.067 848.017 245.325 848.93 246.763C850.389 249.279 851.666 251.795 853.125 254.311C850.571 256.647 853.673 257.905 854.22 259.702C852.943 263.117 850.389 265.633 847.835 268.149C840.72 274.978 833.97 281.987 827.038 288.995C825.031 290.972 823.572 293.668 821.565 295.824C818.464 299.239 814.998 302.474 812.079 305.888C807.883 310.741 803.87 315.593 800.221 320.625C797.485 324.578 793.836 326.915 789.64 328.352C781.613 330.868 773.586 333.205 765.56 335.541C764.283 335.9 763.188 336.799 761.911 336.979C755.891 338.057 753.702 342.011 753.519 347.582C753.337 350.457 752.425 353.512 752.06 356.388C751.512 360.162 750.6 364.115 750.783 367.889C750.783 371.483 750.235 374.718 746.952 377.234C749.141 380.289 748.776 383.344 747.317 386.579C744.58 393.049 745.127 399.519 747.499 405.809C749.323 410.481 751.695 414.974 753.884 419.467C756.073 424.139 758.262 428.812 760.816 433.125C766.289 442.65 772.309 451.635 779.789 459.902C782.161 462.418 784.532 464.754 785.992 467.989C786.904 469.966 788.728 471.583 790.552 473.56C785.627 475.178 780.701 474.998 775.958 475.537C775.411 475.537 774.499 474.998 774.134 474.638C769.755 470.505 765.56 466.192 761.364 461.879C760.816 461.34 759.904 460.98 759.357 460.441C753.884 455.769 748.046 451.456 744.945 444.626C744.58 443.908 744.215 443.368 743.668 442.829C740.019 438.337 737.83 433.305 736.553 427.374C735.276 421.803 733.999 416.052 730.898 410.84C728.162 406.168 726.702 400.777 726.702 395.205C726.702 392.869 727.432 390.713 728.526 388.736C730.533 385.321 731.993 381.547 733.452 377.953C733.634 377.414 733.452 376.875 733.452 376.336C732.905 370.046 729.439 365.733 724.331 361.959C716.121 356.208 707.182 352.614 696.784 350.637Z" fill="url(#paint13_linear)"/>
<path d="M623.447 308.225C623.63 308.943 623.812 309.123 623.63 309.123C622.17 313.975 620.711 318.828 619.069 323.68C617.245 329.431 615.055 335.181 613.231 341.112C611.589 346.144 612.137 351.356 613.778 356.208C614.691 359.083 616.88 360.88 620.528 360.88C626.731 360.88 632.204 359.263 635.487 353.872C636.947 351.356 637.859 348.121 638.589 345.245C639.683 340.393 641.873 336.26 644.974 332.486C647.71 329.071 649.717 325.118 652.636 321.703C661.21 311.28 669.967 301.036 678.723 290.792C683.649 285.042 688.939 279.471 694.412 274.079C697.148 271.204 700.615 269.047 703.534 266.352C705.905 264.195 707.912 261.32 710.283 259.163C714.662 255.209 719.04 251.256 723.966 248.021C727.979 245.145 731.628 242.27 734.729 238.496C738.013 234.363 741.661 230.589 744.58 226.276C746.404 223.76 747.864 220.705 745.857 217.11C744.762 215.133 743.121 214.235 740.931 214.235C737.648 214.235 735.094 215.673 732.722 217.649C725.972 223.4 718.858 228.971 712.29 234.902C703.898 242.45 694.23 247.661 684.926 253.772C680.912 256.288 677.081 258.983 673.25 261.859C670.149 264.015 666.865 265.453 663.217 267.25C663.582 264.554 661.392 262.218 664.676 260.421C663.582 259.702 662.852 259.343 661.757 258.624C662.852 256.827 663.764 255.03 665.041 253.412C667.23 250.537 669.602 248.021 671.608 245.145C672.885 243.348 673.798 241.012 673.798 238.856C673.798 234.542 676.352 231.487 678.906 228.971C686.75 221.603 694.777 214.055 705.358 210.102C716.851 205.788 728.344 202.913 740.749 204.171C751.512 205.249 761.364 208.844 770.12 215.313C774.681 218.728 776.87 224.479 772.492 232.026C771.762 233.284 771.215 234.542 770.667 235.8C769.39 240.293 766.107 243.528 762.641 246.583C759.357 249.459 755.891 252.154 752.789 255.03C748.229 259.343 744.033 264.015 739.472 268.508C735.823 272.102 731.992 275.157 728.526 278.752C724.33 283.065 719.587 287.019 716.668 292.41C715.939 293.848 714.297 294.926 713.202 296.184C710.831 299.059 708.459 301.935 705.905 304.81C703.534 307.506 700.979 310.022 698.608 312.717C695.871 315.773 693.317 319.187 690.763 322.242C688.027 325.477 685.473 328.712 682.554 331.587C677.629 336.26 673.615 341.471 671.791 348.121C670.696 351.715 668.325 353.872 665.406 355.848C659.021 359.982 651.906 361.779 644.609 363.396C631.292 366.272 617.974 367.889 604.292 367.17C596.265 366.811 588.421 365.193 580.941 362.138C579.117 361.42 577.293 360.341 575.651 359.263C572.732 357.106 571.82 352.614 572.914 350.098C573.644 348.48 574.191 346.863 574.556 345.245C576.016 339.315 581.306 336.619 585.502 333.205C587.326 331.587 589.515 330.509 591.705 329.251C597.542 325.657 603.562 322.242 609.4 318.648C610.312 318.109 611.042 317.39 611.772 316.851C612.501 316.312 613.049 315.413 613.778 315.233C617.792 313.975 620.163 310.741 623.447 308.225Z" fill="url(#paint14_linear)"/>
<path d="M756.803 14.0351C757.168 19.6062 757.168 20.1454 752.607 21.7628C744.945 24.4585 737.101 26.9744 729.439 29.4904C713.202 34.8818 697.331 40.992 682.737 49.7979C679.636 51.7748 675.805 52.4936 672.156 53.5719C665.953 55.1893 659.751 56.4473 653.548 58.0647C647.163 59.6821 640.596 61.659 634.211 63.4561C621.988 66.6909 609.765 70.2852 597.542 73.3403C577.293 78.3722 556.678 83.0448 536.429 88.0767C517.091 92.929 498.119 99.3986 480.058 107.665C474.22 110.361 468.018 111.979 461.998 114.135C459.444 115.034 456.89 116.292 454.518 117.729C452.876 118.628 451.417 120.066 450.87 122.222C450.505 123.66 449.228 124.918 448.133 125.816C445.944 127.614 443.572 128.871 441.383 130.669C440.106 131.747 438.282 132.825 437.735 134.263C435.181 139.475 430.62 141.991 425.877 144.686C420.586 147.741 414.931 150.078 409.823 153.492C405.262 156.547 399.972 159.243 396.506 163.915C395.776 164.994 394.317 165.713 393.04 166.611C382.094 174.339 372.972 184.043 364.763 194.467C360.75 199.499 356.554 204.53 353.817 210.461C353.27 211.719 352.54 213.157 352.54 214.415C352.175 221.064 349.439 226.815 345.608 232.206C343.966 234.722 342.872 237.598 341.047 239.934C339.405 242.45 337.399 244.786 335.392 246.943C333.385 249.099 331.196 251.076 329.007 252.693C324.629 256.108 322.257 261.14 318.426 264.914C310.764 272.462 303.284 280.01 295.805 287.558C289.237 294.207 282.852 301.036 276.102 307.865C266.981 317.21 257.677 326.196 247.279 334.283C242.536 338.057 239.617 342.55 238.157 348.48C237.063 353.153 233.414 356.567 230.678 360.521C230.13 361.42 229.036 361.959 228.853 362.857C227.029 369.147 221.921 367.889 217.178 367.889C216.995 361.959 215.718 356.208 217.908 350.816C218.272 350.098 218.637 349.379 219.002 348.66C219.185 348.301 219.549 347.582 219.367 347.402C216.995 344.527 219.002 342.011 220.097 339.674C221.739 335.721 223.928 331.947 226.117 328.352C228.853 323.68 231.772 318.828 234.874 314.515C236.88 311.819 239.617 309.483 241.988 306.967C243.995 304.99 246.002 303.193 247.826 301.216C252.569 295.465 258.224 290.433 264.245 285.94C266.069 284.503 267.346 282.526 268.988 280.908C271.907 278.213 275.008 275.517 277.927 272.821C282.487 268.688 286.136 263.656 289.237 258.265C290.514 256.288 292.156 254.311 293.981 252.873C298.724 249.099 303.832 245.864 308.575 242.27C309.852 241.372 310.582 239.934 311.676 238.856C314.777 235.8 317.879 232.745 320.98 229.69C325.906 225.018 329.919 219.626 333.385 213.876C335.757 209.922 338.493 205.968 341.959 202.554C347.25 197.162 353.088 192.31 358.925 187.458C364.398 182.965 370.236 179.011 375.891 174.698C376.621 174.159 377.533 173.8 377.898 173.081C380.999 165.892 388.296 163.197 394.134 159.243C402.708 153.312 411.83 148.101 420.221 141.811C427.336 136.599 433.904 130.669 440.654 124.918C447.221 119.347 454.336 114.674 462.18 111.26C472.396 106.767 482.247 101.735 492.646 98.1406C506.693 93.2884 521.287 89.3347 535.699 85.2013C553.212 80.3491 570.908 76.036 588.421 71.3634C599.002 68.488 609.765 65.4329 620.346 62.5575C632.022 59.3227 643.879 55.9082 655.555 52.4936C658.474 51.5951 661.393 50.5168 663.947 49.0791C676.899 41.3515 690.764 36.1398 705.358 31.8267C717.581 28.2324 729.986 24.4585 742.026 20.6845C747.134 18.3482 751.695 16.012 756.803 14.0351Z" fill="url(#paint15_linear)"/>
<path d="M527.49 993.828C518.551 994.008 509.794 992.39 501.402 989.335C494.47 986.819 489.18 982.326 484.254 977.115C481.335 973.88 481.7 966.871 484.436 963.996C488.085 960.222 491.916 956.627 496.294 953.393C499.031 951.416 501.585 949.619 502.314 945.665C503.044 941.532 502.862 940.273 499.396 938.117C495.2 935.242 491.551 931.827 488.632 927.334C485.166 921.943 481.7 916.731 478.234 911.52C475.68 907.386 474.585 902.893 475.132 898.221C475.68 893.009 479.693 890.853 483.889 889.595C486.626 888.876 489.727 888.516 492.281 890.313C492.828 890.673 493.375 890.853 493.923 890.853C501.22 891.392 507.605 894.447 513.99 897.502C520.922 900.916 527.854 904.151 534.422 908.105C541.901 912.598 548.287 918.169 553.759 925.178C557.408 929.85 557.226 934.343 554.854 939.195C553.759 941.532 554.307 943.329 555.401 945.665C557.955 951.236 563.063 954.291 567.077 958.424C571.637 962.917 574.191 970.825 571.82 975.497C569.266 980.709 565.435 985.022 559.779 987.718C549.746 992.39 538.8 993.828 527.49 993.828ZM537.706 968.848C537.158 967.051 536.611 963.816 535.152 961.12C532.598 955.729 524.388 954.291 521.287 958.784C516.909 965.613 515.084 972.802 519.098 980.529C520.557 983.584 523.111 985.202 526.395 984.663C528.402 984.303 530.408 983.584 531.868 982.506C535.881 979.451 537.158 974.958 537.706 968.848Z" fill="url(#paint16_linear)"/>
<path d="M830.869 648.061C836.16 648.6 841.633 648.959 846.923 649.678C849.112 650.038 851.484 650.757 853.673 651.655C855.133 652.194 859.511 661.719 859.146 663.336C858.416 666.212 856.227 668.009 853.856 669.267C851.302 670.525 848.93 671.603 846.376 672.682C839.809 675.737 834.883 680.409 831.052 686.519C828.498 690.473 827.221 694.607 826.674 698.92C826.309 701.975 825.032 704.131 822.66 705.569C819.741 707.366 816.822 708.984 813.721 709.882C798.58 714.375 783.255 718.868 767.931 722.462C759.357 724.439 750.601 725.337 741.662 722.821C739.473 722.282 737.648 721.384 736.189 719.587C732.175 715.094 727.979 710.781 724.148 706.108C721.594 703.053 721.959 702.514 724.331 699.459C727.432 695.505 730.351 691.192 733.635 687.238C736.006 684.543 738.56 682.027 741.479 680.05C751.878 672.682 763.553 668.009 775.411 663.336C782.161 660.641 788.546 657.226 795.478 654.89C806.606 650.577 818.464 648.241 830.869 648.061ZM826.309 653.093C825.214 653.093 824.302 653.093 823.207 653.093C816.822 653.812 810.437 654.71 806.242 660.641C805.694 661.36 804.782 661.899 803.87 662.438C793.836 667.47 783.985 672.502 773.769 677.174C769.208 679.331 765.56 682.745 762.641 686.519C758.992 690.833 756.438 696.044 753.702 701.076C752.972 702.514 752.607 704.311 752.972 705.928C754.067 712.757 758.81 715.273 763.553 715.273C771.762 715.273 778.877 712.578 785.627 708.085C789.458 705.569 792.012 701.975 792.924 697.482C795.478 685.082 803.688 677.174 814.816 671.963C817.005 670.884 819.376 669.986 821.566 668.908C825.214 666.931 829.045 665.134 832.511 662.797C835.248 661.18 835.613 659.203 835.065 656.148C834.518 653.093 831.964 653.452 829.957 653.093C828.68 652.913 827.586 653.093 826.309 653.093Z" fill="url(#paint17_linear)"/>
<path d="M447.221 1102.91C444.849 1106.15 442.66 1109.74 439.924 1112.8C434.816 1118.55 428.978 1123.76 424.6 1130.05C418.032 1139.22 410.553 1148.2 408.181 1159.7C406.904 1165.45 405.809 1171.2 404.35 1176.78C403.255 1181.09 402.161 1185.4 400.519 1189.53C397.6 1197.08 394.134 1204.45 391.033 1212C390.303 1213.62 390.121 1215.59 389.573 1217.39C388.479 1220.45 387.749 1223.68 385.925 1226.38C383.736 1229.97 380.087 1231.59 375.709 1232.31C366.587 1233.56 358.925 1231.41 352.54 1224.76C351.446 1223.5 350.716 1222.42 351.263 1220.98C351.993 1218.83 352.358 1216.49 353.635 1214.69C356.554 1210.2 359.29 1205.71 362.939 1201.93C370.418 1193.67 374.979 1184.32 376.621 1173.36C377.35 1168.15 378.08 1162.94 378.992 1157.73C380.269 1150.36 382.094 1143.17 386.472 1136.52C389.391 1131.85 392.127 1126.99 395.229 1122.32C398.695 1117.29 402.891 1113.16 408.546 1110.82C416.208 1107.77 423.87 1104.71 431.532 1101.84C433.903 1100.94 436.275 1100.4 438.647 1099.86C441.93 1099.14 443.39 1099.68 447.221 1102.91Z" fill="url(#paint18_linear)"/>
<path d="M727.979 754.99C728.709 755.349 729.621 755.529 730.351 756.068C732.54 758.225 735.094 759.842 736.736 762.897C738.195 765.593 740.932 767.75 742.938 770.086C745.675 773.321 745.675 774.04 742.756 777.095C739.655 780.509 736.189 783.385 733.087 786.799C729.986 790.214 727.25 793.808 724.513 797.402C723.966 797.941 724.148 799.02 723.783 799.738C723.601 800.457 723.419 801.895 722.871 801.895C720.5 802.434 720.135 804.591 718.675 806.028C712.29 812.678 704.446 816.452 695.507 818.608C684.196 821.124 672.886 821.663 661.575 817.71C658.656 816.811 655.92 815.553 653.366 813.936C648.988 811.06 647.893 804.052 651.177 800.098C656.467 793.269 663.035 787.518 669.42 781.767C678.541 773.5 689.669 768.289 700.25 762.538C706.27 759.303 712.655 757.686 718.675 755.349C720.682 754.631 723.601 753.013 726.337 754.81C726.702 754.99 727.614 754.271 728.344 754.091C728.344 754.451 728.162 754.631 727.979 754.99ZM717.581 775.118C712.838 773.5 709.554 774.219 706.635 776.376C703.351 778.532 700.433 781.228 697.514 783.564C693.318 786.799 690.034 791.112 685.656 794.167C683.284 795.785 681.277 798.48 679.453 800.817C677.811 802.794 677.811 805.849 679.088 807.107C680.548 808.724 683.831 809.802 685.838 808.724C690.216 806.388 694.412 804.052 696.784 799.379C700.797 791.292 706.088 784.283 713.932 779.431C715.027 778.353 715.939 776.915 717.581 775.118Z" fill="url(#paint19_linear)"/>
<path d="M152.598 716.352C150.956 718.868 149.132 721.384 147.673 724.08C146.031 726.955 144.571 729.83 143.477 732.885C140.375 741.871 134.72 748.88 127.24 754.631C122.315 758.584 118.301 763.257 115.93 769.008C114.47 772.422 111.916 774.758 108.633 776.735C106.261 778.173 103.89 779.611 101.518 780.869C91.8492 786.08 84.9169 794.167 78.3495 802.614C76.3428 805.31 74.7009 808.365 72.5118 811.06C71.782 812.139 70.1402 812.858 68.8632 813.037C66.674 813.397 64.3024 813.037 61.566 813.037C62.2957 811.06 62.6606 809.263 63.3903 807.646C64.8497 804.411 66.3092 801.176 68.1335 798.301C70.1402 794.707 73.059 791.651 75.7955 788.596C79.2616 784.643 83.6399 781.408 87.1061 777.454C89.8425 774.399 92.5789 770.984 94.4032 767.39C96.9572 762.538 100.423 758.225 104.254 754.451C111.734 746.903 119.214 739.355 125.963 731.088C129.43 726.775 134.173 723.54 138.369 719.766C138.733 719.407 139.463 719.227 139.828 718.688C143.477 714.555 147.855 714.555 152.598 716.352Z" fill="url(#paint20_linear)"/>
<path d="M181.057 1104.35C174.672 1108.66 168.834 1112.8 162.996 1117.11C156.976 1121.42 152.051 1126.82 147.672 1132.93C144.571 1137.06 141.47 1141.19 138.186 1145.15C132.713 1151.62 129.794 1159.16 128.152 1167.25C126.146 1177.31 123.957 1187.2 120.855 1196.9C119.396 1201.4 118.484 1206.07 117.389 1211.1C114.835 1211.28 112.281 1211.28 109.362 1211.46C108.997 1209.12 108.45 1207.33 108.268 1205.35C107.903 1198.16 107.538 1191.15 108.815 1183.96C109.727 1178.39 108.997 1172.64 109.362 1166.89C109.727 1158.98 112.828 1152.33 118.301 1146.58C123.044 1141.55 127.24 1135.98 131.801 1130.95C136.362 1126.1 140.74 1121.06 146.578 1117.83C154.97 1113.16 163.361 1108.66 171.753 1104.17C174.854 1102.55 176.131 1102.55 181.057 1104.35Z" fill="url(#paint21_linear)"/>
<path d="M219.914 1067.87C216.813 1068.23 213.894 1068.59 210.975 1068.95C209.516 1062.48 206.78 1056.91 203.678 1051.34C202.036 1048.64 201.854 1045.76 202.584 1042.71C203.131 1040.19 203.313 1037.68 203.678 1035.16C204.773 1028.15 205.685 1020.96 210.246 1014.85C212.252 1012.16 213.347 1009.1 214.989 1006.23C217.36 1001.74 220.462 997.782 224.11 994.187C226.847 991.492 229.401 988.616 232.32 985.381C234.691 985.381 237.61 985.381 241.076 985.381C240.711 987.178 240.711 988.976 239.982 990.413C234.509 1003.53 230.13 1017.01 224.475 1030.13C221.739 1036.42 219.367 1043.25 219.367 1050.44C219.367 1052.77 219.914 1055.29 220.097 1057.63C220.097 1060.68 219.914 1064.1 219.914 1067.87Z" fill="url(#paint22_linear)"/>
<path d="M235.056 642.67C239.616 639.794 244.177 636.739 248.738 633.864C251.474 632.246 253.664 630.09 254.576 627.214C255.305 625.238 258.042 625.417 258.042 622.542C258.042 620.745 260.596 619.127 261.873 617.33C263.15 615.713 264.062 613.556 265.704 612.298C269.9 608.704 273.183 604.032 278.291 601.516C284.494 598.46 289.602 594.147 294.528 589.475C298.906 585.341 300 585.521 303.649 589.834C298.906 595.945 291.974 599.359 285.771 603.672C279.386 608.165 275.008 614.275 271.724 621.104C268.623 627.394 264.974 632.965 257.859 635.841C254.211 637.278 250.927 639.255 247.461 641.232C243.812 643.568 239.616 643.748 235.056 642.67Z" fill="url(#paint23_linear)"/>
<path d="M432.809 537.538C429.161 536.999 426.424 536.819 423.87 536.1C422.958 535.92 422.046 534.842 421.681 533.764C417.485 522.981 411.283 513.636 403.803 505.01C400.884 501.595 396.506 499.259 392.857 496.743C389.574 494.407 386.107 492.43 382.641 489.914C386.107 489.375 389.391 487.937 392.857 490.094C397.418 492.969 402.161 495.305 406.904 498.001C418.215 504.65 425.512 514.714 430.62 526.396C431.532 529.81 431.897 533.404 432.809 537.538Z" fill="url(#paint24_linear)"/>
<path d="M625.089 448.76C623.629 446.424 624.177 444.626 626.001 442.29C626.913 441.032 627.278 441.931 627.825 441.931C630.379 441.751 635.305 442.29 636.582 443.189C638.953 444.806 641.143 446.424 643.332 448.221C642.42 449.479 641.872 450.377 641.325 451.455C638.589 450.557 635.852 452.893 632.933 451.815C630.197 451.096 627.643 450.197 625.089 448.76Z" fill="url(#paint25_linear)"/>
<path d="M627.826 302.294C629.468 300.497 631.292 298.88 632.934 297.082C633.116 297.262 633.481 297.622 633.663 297.801C631.839 299.419 632.022 303.013 627.826 302.294Z" fill="url(#paint26_linear)"/>
<defs>
<linearGradient id="paint0_linear" x1="0.999994" y1="676" x2="1014" y2="676" gradientUnits="userSpaceOnUse">
<stop stop-color="#222222"/>
<stop offset="1" stop-color="#222222" stop-opacity="0"/>
</linearGradient>
<linearGradient id="paint1_linear" x1="0.999994" y1="676" x2="1014" y2="676" gradientUnits="userSpaceOnUse">
<stop stop-color="#222222"/>
<stop offset="1" stop-color="#222222" stop-opacity="0"/>
</linearGradient>
<linearGradient id="paint2_linear" x1="0.999994" y1="676" x2="1014" y2="676" gradientUnits="userSpaceOnUse">
<stop stop-color="#222222"/>
<stop offset="1" stop-color="#222222" stop-opacity="0"/>
</linearGradient>
<linearGradient id="paint3_linear" x1="0.999994" y1="676" x2="1014" y2="676" gradientUnits="userSpaceOnUse">
<stop stop-color="#222222"/>
<stop offset="1" stop-color="#222222" stop-opacity="0"/>
</linearGradient>
<linearGradient id="paint4_linear" x1="0.999994" y1="676" x2="1014" y2="676" gradientUnits="userSpaceOnUse">
<stop stop-color="#222222"/>
<stop offset="1" stop-color="#222222" stop-opacity="0"/>
</linearGradient>
<linearGradient id="paint5_linear" x1="0.999994" y1="676" x2="1014" y2="676" gradientUnits="userSpaceOnUse">
<stop stop-color="#222222"/>
<stop offset="1" stop-color="#222222" stop-opacity="0"/>
</linearGradient>
<linearGradient id="paint6_linear" x1="0.999994" y1="676" x2="1014" y2="676" gradientUnits="userSpaceOnUse">
<stop stop-color="#222222"/>
<stop offset="1" stop-color="#222222" stop-opacity="0"/>
</linearGradient>
<linearGradient id="paint7_linear" x1="0.999994" y1="676" x2="1014" y2="676" gradientUnits="userSpaceOnUse">
<stop stop-color="#222222"/>
<stop offset="1" stop-color="#222222" stop-opacity="0"/>
</linearGradient>
<linearGradient id="paint8_linear" x1="0.999994" y1="676" x2="1014" y2="676" gradientUnits="userSpaceOnUse">
<stop stop-color="#222222"/>
<stop offset="1" stop-color="#222222" stop-opacity="0"/>
</linearGradient>
<linearGradient id="paint9_linear" x1="0.999994" y1="676" x2="1014" y2="676" gradientUnits="userSpaceOnUse">
<stop stop-color="#222222"/>
<stop offset="1" stop-color="#222222" stop-opacity="0"/>
</linearGradient>
<linearGradient id="paint10_linear" x1="0.999994" y1="676" x2="1014" y2="676" gradientUnits="userSpaceOnUse">
<stop stop-color="#222222"/>
<stop offset="1" stop-color="#222222" stop-opacity="0"/>
</linearGradient>
<linearGradient id="paint11_linear" x1="0.999994" y1="676" x2="1014" y2="676" gradientUnits="userSpaceOnUse">
<stop stop-color="#222222"/>
<stop offset="1" stop-color="#222222" stop-opacity="0"/>
</linearGradient>
<linearGradient id="paint12_linear" x1="0.999994" y1="676" x2="1014" y2="676" gradientUnits="userSpaceOnUse">
<stop stop-color="#222222"/>
<stop offset="1" stop-color="#222222" stop-opacity="0"/>
</linearGradient>
<linearGradient id="paint13_linear" x1="0.999994" y1="676" x2="1014" y2="676" gradientUnits="userSpaceOnUse">
<stop stop-color="#222222"/>
<stop offset="1" stop-color="#222222" stop-opacity="0"/>
</linearGradient>
<linearGradient id="paint14_linear" x1="0.999994" y1="676" x2="1014" y2="676" gradientUnits="userSpaceOnUse">
<stop stop-color="#222222"/>
<stop offset="1" stop-color="#222222" stop-opacity="0"/>
</linearGradient>
<linearGradient id="paint15_linear" x1="0.999994" y1="676" x2="1014" y2="676" gradientUnits="userSpaceOnUse">
<stop stop-color="#222222"/>
<stop offset="1" stop-color="#222222" stop-opacity="0"/>
</linearGradient>
<linearGradient id="paint16_linear" x1="0.999994" y1="676" x2="1014" y2="676" gradientUnits="userSpaceOnUse">
<stop stop-color="#222222"/>
<stop offset="1" stop-color="#222222" stop-opacity="0"/>
</linearGradient>
<linearGradient id="paint17_linear" x1="0.999994" y1="676" x2="1014" y2="676" gradientUnits="userSpaceOnUse">
<stop stop-color="#222222"/>
<stop offset="1" stop-color="#222222" stop-opacity="0"/>
</linearGradient>
<linearGradient id="paint18_linear" x1="0.999994" y1="676" x2="1014" y2="676" gradientUnits="userSpaceOnUse">
<stop stop-color="#222222"/>
<stop offset="1" stop-color="#222222" stop-opacity="0"/>
</linearGradient>
<linearGradient id="paint19_linear" x1="0.999994" y1="676" x2="1014" y2="676" gradientUnits="userSpaceOnUse">
<stop stop-color="#222222"/>
<stop offset="1" stop-color="#222222" stop-opacity="0"/>
</linearGradient>
<linearGradient id="paint20_linear" x1="0.999994" y1="676" x2="1014" y2="676" gradientUnits="userSpaceOnUse">
<stop stop-color="#222222"/>
<stop offset="1" stop-color="#222222" stop-opacity="0"/>
</linearGradient>
<linearGradient id="paint21_linear" x1="0.999994" y1="676" x2="1014" y2="676" gradientUnits="userSpaceOnUse">
<stop stop-color="#222222"/>
<stop offset="1" stop-color="#222222" stop-opacity="0"/>
</linearGradient>
<linearGradient id="paint22_linear" x1="0.999994" y1="676" x2="1014" y2="676" gradientUnits="userSpaceOnUse">
<stop stop-color="#222222"/>
<stop offset="1" stop-color="#222222" stop-opacity="0"/>
</linearGradient>
<linearGradient id="paint23_linear" x1="0.999994" y1="676" x2="1014" y2="676" gradientUnits="userSpaceOnUse">
<stop stop-color="#222222"/>
<stop offset="1" stop-color="#222222" stop-opacity="0"/>
</linearGradient>
<linearGradient id="paint24_linear" x1="0.999994" y1="676" x2="1014" y2="676" gradientUnits="userSpaceOnUse">
<stop stop-color="#222222"/>
<stop offset="1" stop-color="#222222" stop-opacity="0"/>
</linearGradient>
<linearGradient id="paint25_linear" x1="0.999994" y1="676" x2="1014" y2="676" gradientUnits="userSpaceOnUse">
<stop stop-color="#222222"/>
<stop offset="1" stop-color="#222222" stop-opacity="0"/>
</linearGradient>
<linearGradient id="paint26_linear" x1="0.999994" y1="676" x2="1014" y2="676" gradientUnits="userSpaceOnUse">
<stop stop-color="#222222"/>
<stop offset="1" stop-color="#222222" stop-opacity="0"/>
</linearGradient>
</defs>
</svg>
