<svg width="534" height="322" viewBox="0 0 534 322" fill="none" xmlns="http://www.w3.org/2000/svg">
<path d="M217.972 257.486C219.373 258.517 220.673 258.443 222.074 258.296C227.376 257.633 231.978 255.719 236.48 253.73C241.482 251.447 245.483 248.354 249.185 245.04C251.886 242.683 251.886 242.683 248.985 240.474C248.885 240.4 248.785 240.327 248.685 240.179C247.184 239.148 245.183 237.97 245.283 236.571C245.283 234.656 246.284 232.667 248.084 231.047C249.985 229.427 251.886 227.733 253.987 226.26C255.087 225.524 255.187 224.566 254.987 223.903C254.487 222.283 254.187 220.663 253.687 219.043C253.186 217.496 252.086 216.097 251.886 214.55C251.686 213.298 250.285 212.194 250.886 210.868C250.886 210.794 250.886 210.647 250.785 210.5C248.585 207.407 247.284 203.945 244.583 201.073C241.882 198.201 239.181 195.402 236.68 192.53C234.979 190.615 233.478 188.701 231.978 186.712C231.478 185.976 230.877 185.534 229.777 185.239C224.775 184.208 219.773 183.104 214.871 181.999C208.869 180.673 202.866 179.274 197.364 176.844C195.563 176.033 193.762 175.076 192.662 173.677C192.062 172.867 191.562 172.057 191.562 171.099C191.562 170.142 191.461 169.111 191.061 168.153C189.861 165.281 189.961 162.335 189.961 159.389C189.961 157.548 191.261 155.928 192.862 154.529C194.463 153.203 196.464 152.246 198.664 151.436C202.966 149.889 207.468 149.153 212.07 148.416C218.172 147.385 224.475 146.649 230.277 144.881C231.478 144.513 232.778 144.366 233.779 143.85C235.379 143.114 236.38 141.935 237.08 140.757C237.48 140.168 237.78 139.579 238.08 138.99C239.681 136.486 242.782 135.086 245.884 133.834C247.584 133.171 249.485 132.582 251.586 131.772C250.285 131.183 249.285 131.183 248.184 131.109C242.982 130.667 237.88 130.226 232.678 129.71C231.978 129.636 231.278 129.489 230.577 129.268C228.577 128.605 228.176 127.795 229.577 126.543C230.977 125.218 232.578 123.966 234.279 122.861C237.18 120.946 239.481 118.81 240.681 116.012C242.082 112.624 245.283 110.12 249.185 108.058C254.087 105.628 258.989 103.198 264.391 101.504C269.293 99.9571 274.395 98.926 279.697 98.7787C285.7 98.7051 291.802 98.7787 297.805 98.6314C299.905 98.5578 302.106 98.926 304.007 97.7477C305.107 97.0849 306.308 96.4957 307.308 95.7592C310.109 93.7708 312.711 91.6351 315.412 89.6466C318.213 87.5845 321.214 85.6697 324.715 84.1232C328.217 82.5766 331.218 80.5145 333.519 78.0105C335.62 75.7275 337.921 73.5918 341.022 71.677C339.621 71.677 338.321 71.6033 336.92 71.6033C330.518 71.6033 324.115 71.677 317.713 71.6033C315.112 71.6033 312.51 71.1615 309.909 70.9405C309.309 70.8669 308.809 70.6459 308.009 70.3513C308.209 69.9095 308.409 69.6149 308.609 69.3203C309.709 68.142 309.709 66.89 309.409 65.638C308.809 63.2813 308.009 60.9983 307.709 58.6416C307.508 57.5369 307.909 56.2113 308.609 55.2539C310.41 52.8972 312.41 50.6878 314.611 48.4785C315.412 47.6683 316.712 47.0792 317.813 46.3427C320.013 44.8698 319.813 43.986 318.613 42.734C317.813 41.8503 317.012 40.9666 316.212 40.0828C315.412 39.1254 315.312 38.168 316.212 37.2842C317.412 36.1059 318.713 35.0012 320.114 33.9702C323.115 31.6135 326.316 29.3305 330.118 27.7102C337.02 24.7644 344.523 23.7333 352.427 24.3225C357.629 24.6907 362.731 25.2063 367.933 25.6482C369.534 25.7955 371.134 25.9427 372.735 25.9427C373.435 25.9427 374.335 25.7218 374.936 25.3536C378.337 23.3651 381.939 21.524 384.74 18.9464C386.24 17.5471 388.041 16.4424 389.442 15.0431C390.742 13.7911 391.642 12.3182 390.842 10.6244C390.042 8.9305 388.241 8.34132 386.24 9.29872C382.839 10.9189 379.438 12.5392 376.136 14.233C373.835 15.4114 371.334 16.2951 368.633 16.737C365.532 17.2525 362.731 16.5897 360.23 15.3377C357.529 13.8648 357.529 10.1088 360.23 8.56225C363.431 6.7211 367.033 5.24818 370.734 4.06984C374.335 2.8915 377.937 1.63954 381.939 1.05037C385.54 0.534845 389.041 -0.275276 392.843 0.0929548C395.044 0.313893 397.345 0.53484 398.745 2.08141C399.146 2.52328 399.446 3.11246 399.546 3.62798C399.646 4.36444 399.646 5.17453 399.546 5.91099C399.346 7.38391 400.146 8.63591 401.146 9.81425C402.647 11.5818 404.548 13.2756 405.148 15.3377C405.948 17.989 405.348 20.4929 402.747 22.4814C400.746 23.9543 398.545 25.2799 396.244 26.6056C391.943 29.0359 387.641 31.3926 383.239 33.8229C381.939 34.4857 380.638 35.2221 379.337 35.8113C375.636 37.4315 373.135 39.7146 371.534 42.6604C370.634 44.2806 369.534 45.9008 368.233 47.3001C366.632 48.994 366.232 50.7615 367.033 52.6026C368.133 55.1803 369.333 57.7579 370.534 60.3355C370.534 60.4091 370.634 60.4091 370.634 60.4828C370.634 62.5448 372.235 64.5333 371.634 66.5954C371.234 68.142 370.034 69.2466 368.233 70.0568C364.932 71.456 361.73 73.0026 359.029 75.0647C358.429 75.5066 357.829 76.0221 357.429 76.5376C354.928 79.3362 351.926 81.8401 347.925 83.6813C344.323 85.3015 341.022 87.069 338.221 89.4257C335.62 91.5614 332.919 93.6235 330.218 95.612C329.217 96.4221 328.017 97.0849 326.816 97.7477C322.615 100.325 318.413 102.829 314.111 105.333C312.61 106.217 310.91 107.027 309.209 107.837C306.108 109.31 303.707 111.078 302.506 113.729C301.706 115.496 300.706 117.19 299.305 118.737C298.105 120.062 296.504 121.314 294.803 122.345C289.301 125.586 282.998 127.943 276.596 130.078C272.994 131.257 269.493 132.435 266.092 133.982C262.79 135.454 260.189 137.443 258.889 140.315C257.988 142.377 256.088 144.071 253.687 145.47C250.585 147.164 249.385 149.521 249.285 152.319C249.185 154.455 248.985 156.591 248.785 158.8C248.385 162.114 249.385 165.428 250.085 168.669C250.385 169.921 250.485 171.246 250.485 172.498C250.285 175.002 250.785 177.359 251.586 179.716C251.986 180.894 252.186 182.146 252.386 183.324C252.686 185.239 253.387 187.007 254.787 188.627C256.288 190.321 257.888 192.015 259.389 193.709C261.09 195.697 262.79 197.685 264.491 199.747C264.691 199.968 264.891 200.263 265.191 200.484C267.592 202.693 269.393 205.124 270.593 207.849C271.394 209.616 272.194 211.457 272.894 213.298C274.195 216.392 275.495 219.485 276.296 222.651C277.096 225.45 277.396 228.396 277.596 231.268C277.696 232.667 277.196 234.067 276.896 235.466C276.496 236.865 276.196 238.264 275.495 239.59C273.995 242.315 271.794 244.745 269.093 246.881C265.491 249.68 261.79 252.405 257.188 254.393C247.984 258.443 238.18 261.316 227.276 261.537C220.673 261.684 214.171 261.021 208.068 259.033C206.868 258.664 205.767 258.002 204.767 257.339C203.566 256.455 203.066 255.277 203.666 254.098C205.567 250.637 208.268 247.618 213.47 246.292C215.171 245.85 216.772 245.261 218.472 244.745C221.073 243.935 223.775 244.082 226.376 244.819C228.476 245.408 229.177 246.218 228.276 247.691C227.276 249.238 225.975 250.784 224.475 252.11C223.074 253.362 221.274 254.393 219.773 255.645C218.973 256.16 218.472 256.897 217.972 257.486ZM228.176 149.521C224.075 150.405 220.073 151.215 216.272 152.172C213.871 152.761 211.97 154.013 211.27 155.928C210.869 157.254 210.569 158.727 210.669 160.052C210.869 161.967 211.37 163.882 211.87 165.723C212.47 167.932 212.67 170.068 212.17 172.351C211.77 174.192 212.27 176.107 214.671 177.359C215.771 178.022 216.972 178.758 218.272 179.127C222.274 180.305 226.376 181.41 230.877 182.662C230.477 181.41 230.377 180.526 229.977 179.642C229.177 177.58 228.476 175.518 228.977 173.382C229.477 170.878 228.677 168.522 228.176 166.091C227.676 164.103 227.276 162.041 227.276 159.979C227.376 156.517 227.876 153.13 228.176 149.521ZM249.885 127.427C250.185 127.574 250.385 127.869 250.585 127.869C253.086 128.311 255.587 128.753 258.088 128.974C259.689 129.121 261.29 128.826 262.69 128.164C264.991 127.059 267.392 125.954 269.693 124.702C274.595 122.051 278.497 118.81 280.297 114.392C281.498 111.446 283.799 109.016 287.7 107.543C288.801 107.101 289.701 106.512 290.802 105.996C286 105.701 281.498 106.438 277.196 107.69C274.895 108.353 272.594 108.942 270.493 109.826C266.992 111.225 264.391 113.066 262.69 115.717C262.09 116.675 261.49 117.632 260.689 118.516C258.789 120.799 256.188 122.64 253.287 124.26C251.786 125.144 250.385 126.028 249.885 127.427ZM348.325 67.9947C350.326 65.3434 347.725 63.0604 348.325 60.7037C348.325 60.6301 348.225 60.6301 348.225 60.5564C345.824 57.8315 345.924 54.5911 344.123 51.7189C344.023 51.5716 344.023 51.3506 344.023 51.2033C343.323 48.4048 341.022 47.5947 337.721 49.1413C337.421 49.2886 337.22 49.4359 336.92 49.5831C334.519 51.2034 332.118 52.8972 330.518 54.9593C329.117 56.6532 328.717 58.4207 330.018 60.3355C330.318 60.7037 330.418 61.2192 330.618 61.6611C331.018 62.6185 331.218 63.7232 332.018 64.6069C333.419 66.3008 335.22 67.8474 338.221 67.9947C339.721 68.0683 341.222 68.1419 342.823 68.1419C344.723 68.0683 346.624 67.9947 348.325 67.9947ZM368.233 29.3305C368.233 29.1832 368.233 29.1095 368.133 28.9622C367.433 28.8886 366.732 28.7413 366.032 28.7413C363.931 28.6676 361.83 28.7413 359.83 28.5204C357.229 28.2258 354.728 28.5204 352.327 29.0359C348.225 29.9196 345.024 31.9081 341.922 33.8965C340.522 34.8539 339.121 35.8113 337.921 36.8424C336.22 38.3153 336.22 39.2727 337.921 40.7456C338.721 41.4821 339.922 42.1449 340.922 42.734C344.123 44.5015 348.225 43.7651 349.726 41.0402C350.726 39.0517 352.627 37.7261 354.828 36.4741C359.229 34.1911 363.731 31.7608 368.233 29.3305Z" fill="#FEEDE7"/>
<path d="M371.734 96.4957C369.233 97.0849 367.533 98.2632 365.832 99.4415C361.03 102.608 355.828 105.407 350.426 108.058C347.525 109.457 345.424 111.151 344.023 113.508C342.823 115.496 342.022 117.558 340.122 119.326C337.22 122.125 333.419 124.039 329.317 125.66C324.515 127.574 319.413 129.268 314.411 130.962C310.009 132.435 305.608 133.761 302.206 136.486C301.206 137.296 300.105 138.179 299.705 139.21C298.605 142.083 296.204 144.218 293.203 145.986C291.002 147.312 289.801 149.005 289.601 150.92C289.201 153.792 289.001 156.738 289.001 159.684C289.001 162.041 288.901 164.471 289.901 166.754C291.002 169.479 290.602 172.204 290.802 174.929C290.902 176.623 291.602 178.317 292.102 180.01C292.202 180.526 292.602 181.041 292.602 181.557C292.802 185.46 294.903 188.774 298.005 191.867C300.806 194.666 303.507 197.538 305.808 200.558C308.509 204.019 311.41 207.48 312.911 211.457C313.711 213.814 314.511 216.244 315.512 218.527C317.012 221.841 317.412 225.229 318.313 228.617C318.813 230.384 318.713 232.078 318.013 233.772C317.613 234.95 317.112 236.202 316.912 237.381C316.512 239.958 314.811 242.02 312.811 244.009C309.109 247.691 304.807 250.932 299.605 253.509C295.303 255.645 291.202 257.928 287 260.211C286.1 260.726 285.299 261.316 284.599 261.905C283.199 263.01 282.999 263.672 283.199 265.587C283.899 265.808 284.699 266.029 285.6 266.25C288.801 266.986 290.502 268.754 291.602 270.89C291.802 271.332 291.802 271.7 292.602 271.552C292.702 271.552 293.003 271.552 293.003 271.626C293.403 272.952 295.303 273.099 296.404 273.983C295.604 277.96 295.904 281.937 298.205 285.987C296.104 285.692 294.203 285.545 292.602 285.103C289.901 284.367 287.1 283.704 284.599 282.526C283.399 281.937 282.198 281.421 280.998 280.832C280.598 280.611 279.997 280.537 279.297 280.316C279.397 283.115 280.898 285.619 281.698 288.123C282.498 290.7 283.299 293.204 284.299 296.077C282.498 295.929 280.898 295.708 279.297 295.708C276.096 295.635 273.895 294.751 272.094 292.689C270.193 290.553 267.592 288.712 265.191 286.871C263.19 285.251 261.99 283.483 261.09 281.421C260.089 279.138 258.989 276.781 256.988 274.719C255.788 273.467 255.187 272.068 255.587 270.448C255.888 268.754 255.587 267.06 254.387 265.513C254.187 265.219 254.087 264.851 253.987 264.556C253.687 263.82 253.487 263.009 253.186 262.052C253.687 261.61 254.487 261.021 255.287 260.432C256.088 259.769 257.188 259.548 258.389 259.769C258.789 259.843 259.189 259.916 259.589 259.99C262.19 260.432 264.391 260.432 266.792 258.959C270.894 256.381 275.696 254.467 279.997 252.036C284.999 249.238 289.201 245.776 292.602 241.799C293.903 240.253 294.603 238.559 295.003 236.792C295.504 234.508 296.504 232.225 296.404 229.942C296.304 228.175 295.604 226.334 295.203 224.566C294.603 221.547 293.603 218.601 292.202 215.729C290.802 212.783 289.801 209.69 288.401 206.744C287.8 205.566 286.6 204.534 285.8 203.43C283.499 200.042 280.297 196.949 277.496 193.782C275.495 191.573 273.595 189.29 271.894 186.933C271.294 186.123 271.094 185.018 270.894 184.061C270.493 182.441 270.393 180.673 269.693 179.127C268.793 176.917 268.793 174.781 268.793 172.498C268.793 171.099 268.693 169.7 268.493 168.301C267.992 165.649 266.892 162.998 267.192 160.273C267.392 157.106 267.592 153.94 267.892 150.773C268.092 148.637 269.393 146.796 271.694 145.47C274.595 143.85 276.496 141.641 277.796 139.284C278.497 138.106 279.497 137.222 280.698 136.338C283.099 134.718 285.9 133.613 288.801 132.582C294.003 130.815 299.305 129.047 304.407 127.206C308.409 125.733 311.81 123.671 315.011 121.462C317.613 119.694 319.513 117.558 320.614 115.055C321.114 113.876 321.814 112.771 322.615 111.667C323.915 109.678 326.316 108.426 328.717 107.322C333.119 105.26 337.22 102.977 341.122 100.473C343.923 98.6314 347.024 97.0112 349.726 95.1701C352.527 93.2553 355.328 91.2668 357.829 89.2047C361.13 86.4062 365.432 84.786 369.333 82.5766C372.735 80.7354 375.536 78.5261 377.337 75.6539C377.737 75.0647 378.337 74.5492 379.037 74.1809C381.538 72.8553 384.139 71.6033 386.74 70.2777C387.241 69.9831 387.841 69.8358 388.341 69.5412C390.842 68.142 391.342 66.2271 390.942 64.0914C390.742 62.9867 389.742 61.882 390.342 60.7037C390.342 60.6301 390.342 60.5564 390.242 60.5564C388.341 58.4943 388.341 55.8431 386.941 53.6337C386.04 52.1608 386.04 50.6878 386.14 49.1413C386.24 48.6257 386.64 48.1102 387.041 47.742C389.542 45.238 391.642 42.6604 393.143 39.7146C393.643 38.8308 394.844 38.168 395.844 37.5788C399.646 35.5167 403.447 33.5283 407.249 31.4662C411.25 29.3305 415.152 27.1211 419.054 24.9117C419.354 24.7644 419.554 24.4698 419.954 24.1752C418.253 23.5124 416.653 22.8496 414.852 22.1131C416.052 21.1557 416.953 20.3456 418.153 19.6092C418.553 19.3882 419.354 19.3882 419.954 19.3882C426.056 19.8301 431.859 18.9464 437.561 17.6207C441.463 16.6633 445.264 15.7059 448.766 14.1594C449.666 13.7175 450.666 13.6438 451.667 14.0857C453.267 14.6749 454.968 15.1904 456.869 15.8532C452.067 19.0936 447.565 22.1131 442.963 25.2799C446.265 26.8265 450.166 27.7102 454.168 29.1832C451.267 30.4351 448.666 31.5398 446.065 32.5709C445.564 32.7918 444.664 32.5709 444.064 32.4236C441.463 31.6135 438.962 30.8034 436.461 29.9196C435.46 29.5514 434.76 29.6251 433.86 30.1406C430.758 31.8344 427.557 33.5283 424.356 35.2222C423.755 35.5167 423.155 35.8113 422.555 36.1059C418.854 37.5788 416.753 39.9355 415.152 42.734C414.452 43.986 413.251 45.0907 412.251 46.2691C412.151 46.4164 411.951 46.5637 411.851 46.711C409.45 48.994 409.15 51.4243 410.55 54.0756C411.451 55.6958 411.751 57.4633 412.651 59.0835C413.751 61.1456 413.951 63.355 414.252 65.5643C414.652 67.7001 412.951 69.0994 410.65 70.1304C409.35 70.7196 407.949 71.2351 406.549 71.7506C406.649 71.8979 406.649 71.9716 406.749 72.1189C410.55 71.677 414.352 71.2351 418.053 70.7932C421.855 70.3513 425.656 70.0568 429.458 68.2156C429.058 68.8048 428.958 69.173 428.657 69.3203C425.956 70.9405 423.255 72.6344 420.454 74.1073C419.154 74.7701 417.353 75.0647 415.752 75.2856C413.451 75.6539 412.051 76.5376 410.95 78.0842C409.45 80.1463 407.149 81.6928 404.148 82.6502C401.146 83.6076 398.145 84.565 395.244 85.5961C393.943 86.038 392.743 86.7744 391.642 87.3636C392.043 88.8365 392.743 89.8676 393.843 90.7513C395.244 91.856 395.044 92.4452 393.443 93.5499C389.342 96.2748 384.64 98.3369 380.238 100.767C379.538 101.135 378.937 101.283 378.137 100.767C375.736 99.4416 372.835 98.7051 371.734 96.4957Z" fill="#FEEDE7"/>
<path d="M405.148 254.835C408.549 254.982 411.551 255.056 414.452 255.35C417.753 255.645 420.754 256.455 422.955 258.443C423.755 259.18 424.356 260.137 424.756 261.021C426.557 264.998 427.157 269.122 428.057 273.246C428.457 274.867 428.057 276.56 428.357 278.254C428.657 280.537 429.058 282.82 429.658 285.03C430.458 287.902 429.858 290.111 427.357 292.615C428.057 292.762 428.657 292.984 429.258 293.057C431.959 293.352 434.66 293.646 437.361 293.794C438.461 293.867 439.162 294.162 439.662 294.898C440.762 296.445 441.963 297.918 443.263 299.612C441.162 299.391 439.362 299.243 437.561 299.022C432.059 298.36 426.557 297.697 421.054 297.108C419.854 296.96 418.453 297.181 417.253 297.402C411.15 298.433 405.048 297.991 399.045 296.96C391.843 295.708 384.94 293.867 378.937 290.627C374.536 288.27 371.234 285.251 369.734 281.274C369.133 279.506 369.133 277.665 369.734 275.898C370.234 274.425 370.534 273.025 370.634 271.552C370.834 268.68 371.934 265.955 374.135 263.672C375.336 262.347 377.437 261.316 379.438 260.506C384.139 258.591 389.242 257.486 394.444 256.529C396.144 256.234 397.845 255.939 399.746 255.645C399.546 255.129 399.446 254.687 399.346 254.246C398.745 252.773 399.045 251.373 399.946 249.974C401.046 248.28 402.247 246.586 403.447 244.966C406.749 240.4 408.049 235.392 408.849 230.237C409.25 227.733 409.75 225.155 410.85 222.872C411.651 221.252 413.551 219.927 415.052 218.454C415.752 217.791 416.653 217.128 417.453 216.391C412.951 214.698 409.15 212.488 406.148 209.69C403.847 207.48 402.347 204.829 400.446 202.399C399.746 201.441 399.045 200.41 398.445 199.379C398.045 198.643 397.745 197.833 397.545 197.096C396.745 194.298 396.244 191.426 397.545 188.553C395.244 187.301 392.943 186.049 390.542 184.797C387.941 183.472 386.34 181.483 384.64 179.642C384.039 178.906 383.639 178.022 383.139 177.285C381.638 174.781 381.438 172.204 382.139 169.553C382.239 169.332 382.339 169.111 382.339 168.89C382.039 166.459 384.239 165.355 386.64 164.324C388.041 163.735 389.642 163.219 391.242 162.63C389.942 161.967 388.841 161.304 387.741 160.789C383.239 158.653 380.538 155.56 378.937 151.878C378.037 149.815 378.637 147.901 381.138 146.501C384.54 144.587 387.441 142.23 390.142 139.726C392.043 137.958 394.744 137.001 397.045 135.675C402.347 132.656 408.549 130.888 414.552 128.753C419.654 126.912 424.356 124.629 429.258 122.493C432.959 120.799 436.561 118.958 440.362 117.338C446.365 114.834 452.867 114.023 459.77 114.686C464.172 115.128 468.273 116.159 471.875 118.148C472.575 118.516 473.376 118.958 473.676 119.547C474.376 121.241 476.277 121.977 478.077 122.787C478.478 122.935 478.778 123.229 479.078 123.45C479.078 124.555 478.478 125.218 477.177 125.807C473.976 127.206 470.774 128.605 467.573 130.005C466.273 130.594 465.072 131.404 463.872 132.14C463.672 132.288 463.271 132.509 463.271 132.656C463.972 133.908 462.371 134.055 461.571 134.571C458.97 136.117 455.968 137.369 454.268 139.505C453.768 140.168 453.067 140.315 452.067 140.241C449.766 140.094 447.465 140.021 445.164 139.947C444.264 139.947 443.463 139.947 442.563 139.947C442.563 140.094 442.463 140.241 442.563 140.315C443.964 142.156 442.963 143.703 441.263 144.955C438.762 146.796 437.961 149.005 437.361 151.436C436.461 155.265 433.459 158.211 429.458 160.494C425.756 162.63 421.555 163.956 416.853 164.397C414.052 164.692 411.35 165.208 408.549 165.134C404.948 165.06 401.246 164.618 397.645 164.176C395.344 163.882 394.244 164.103 393.943 165.797C393.743 166.754 394.143 167.711 394.444 168.669C394.844 170.289 395.944 171.836 395.844 173.456C395.644 176.402 396.344 179.274 397.045 182.146C397.445 183.766 398.545 185.239 400.046 186.491C400.846 187.08 401.647 187.375 402.847 187.007C403.547 186.786 404.548 186.712 405.348 186.639C411.851 186.123 417.753 187.522 423.455 189.584C430.558 192.162 436.561 195.771 442.263 199.6C444.464 201.073 446.265 202.914 447.865 204.829C449.766 207.038 449.766 209.763 447.065 212.12C443.263 215.581 438.261 217.275 432.359 217.644C429.458 217.864 426.557 217.938 423.655 217.57C423.255 217.496 422.755 217.57 422.355 217.644C420.554 220.295 421.054 222.651 423.856 224.345C424.856 224.934 426.457 225.376 427.757 225.376C430.858 225.376 433.86 225.229 436.961 224.861C440.562 224.493 444.164 223.682 447.765 223.388C453.567 222.872 459.27 222.872 464.972 224.272C470.574 225.671 475.176 230.311 474.076 234.877C473.676 236.423 473.776 238.117 472.975 239.516C472.075 241.137 470.674 242.683 469.074 244.009C463.972 248.354 457.469 251.005 449.766 251.742C444.264 252.257 438.762 252.331 433.459 251.153C430.558 250.49 427.657 249.974 424.656 249.385C417.153 247.838 411.15 249.827 406.148 253.877C405.748 254.025 405.548 254.393 405.148 254.835ZM403.047 294.162C405.248 294.162 407.149 293.278 407.949 291.805C408.649 290.479 409.25 289.08 408.949 287.534C408.649 285.84 408.449 284.146 408.149 282.452C407.849 280.832 407.849 279.212 408.549 277.591C409.15 276.119 409.75 274.498 409.65 272.952C409.35 269.417 410.45 265.955 410.85 262.494C410.95 261.831 411.451 261.242 411.551 260.653C411.751 259.548 411.15 259.033 409.65 258.885C409.15 258.812 408.649 258.812 408.249 258.885C404.348 259.475 400.846 260.653 397.845 262.494C395.544 263.893 394.944 265.955 393.543 267.723C393.243 268.091 393.243 268.607 393.043 269.048C392.243 271.479 391.442 273.836 390.742 276.266C390.342 277.739 389.742 279.285 389.842 280.758C390.242 284.588 392.143 288.123 395.544 291.142C397.345 292.762 399.846 294.015 403.047 294.162ZM407.949 161.304C409.65 161.231 411.25 160.715 412.451 159.684C414.752 157.622 416.052 155.265 416.553 152.688C416.953 150.773 416.853 148.858 418.653 147.238C419.554 146.428 420.554 145.691 421.555 144.881C423.655 143.335 425.156 141.567 424.756 139.284C424.556 138.253 425.056 137.369 425.756 136.486C427.457 134.203 429.958 132.73 433.259 131.772C438.361 130.373 443.563 128.826 448.565 127.206C451.667 126.249 454.568 124.923 457.469 123.745C458.87 123.156 460.07 122.345 460.67 121.241C461.171 120.431 460.87 120.062 459.77 119.694C458.57 119.326 457.569 119.621 456.569 119.989C453.968 120.946 451.267 121.904 448.766 123.008C443.463 125.365 437.961 127.574 432.259 129.342C426.757 131.109 421.154 132.656 416.352 135.307C414.152 136.486 411.751 137.517 410.35 139.284C408.149 141.935 405.548 144.366 402.047 146.207C401.747 146.354 401.446 146.575 401.246 146.796C399.746 148.269 399.045 149.815 399.546 151.657C400.046 153.866 400.446 156.002 401.947 157.99C403.047 159.831 404.748 161.304 407.949 161.304ZM418.453 195.697C418.453 197.17 418.653 198.496 419.354 199.968C420.154 201.736 421.455 203.209 422.555 204.829C423.155 205.713 423.555 206.67 424.356 207.407C425.656 208.659 427.257 209.837 428.757 211.015C429.758 211.825 431.058 211.973 432.459 211.531C433.259 211.236 434.46 209.763 434.26 208.953C433.86 207.186 433.259 205.492 431.959 203.872C429.558 201.073 426.657 198.643 423.155 196.581C421.855 195.918 420.354 195.181 418.453 195.697Z" fill="#FEEDE7"/>
<path d="M370.034 152.467C363.331 152.172 356.528 151.878 349.726 151.583C342.923 151.288 336.12 151.141 328.917 150.847C329.017 152.614 328.617 154.161 329.117 155.781C329.617 157.769 330.318 159.61 331.318 161.452C332.519 163.44 333.919 165.281 335.92 166.901C338.421 169.037 338.921 171.615 336.52 173.898C334.92 175.518 335.22 177.506 334.719 179.348C334.319 180.747 334.219 182.146 333.919 183.472C333.619 184.724 333.919 185.828 334.219 187.08C334.92 189.732 337.421 191.499 339.021 193.709C341.022 196.286 343.423 198.643 345.624 201.147C346.524 202.104 347.325 203.062 348.825 203.651C349.625 203.945 350.126 204.461 349.826 205.345C349.525 206.007 349.826 206.818 350.126 207.48C351.526 210.426 353.127 213.298 353.927 216.391C353.927 216.539 354.027 216.76 354.127 216.907C356.828 219.632 357.929 222.872 360.03 225.818C360.83 226.923 361.53 227.954 362.431 228.985C364.231 231.121 365.332 233.33 365.332 235.834C365.332 236.497 365.232 237.012 364.632 237.602C362.631 239.664 360.23 241.431 357.629 243.051C353.627 245.629 349.525 248.133 345.424 250.563C343.123 251.889 340.522 252.994 338.121 254.172C337.32 254.54 336.62 254.982 335.52 255.571C346.824 257.191 357.729 258.664 369.033 260.285C368.133 261.168 367.333 261.831 366.732 262.568C366.132 263.23 365.632 263.967 365.232 264.703C364.531 266.029 363.931 267.428 363.531 268.828C363.231 269.859 363.231 270.89 362.931 271.921C362.531 273.173 362.331 274.498 361.53 275.603C359.529 278.181 358.429 280.832 358.229 283.778C357.829 288.344 353.227 290.553 347.925 291.29C337.921 292.689 328.417 291.363 319.513 287.607C315.512 285.913 313.111 283.409 311.31 280.316C309.609 277.371 308.409 274.425 308.209 271.258C308.009 268.165 307.809 264.924 309.109 261.905C309.709 260.432 310.81 259.033 312.51 258.002C315.612 256.087 318.613 254.172 321.614 252.331C325.016 250.269 327.917 247.838 330.718 245.408C331.918 244.377 332.919 243.272 334.019 242.241C336.82 239.664 337.12 236.571 338.021 233.477C338.621 231.415 337.721 229.501 337.22 227.512C336.52 224.566 335.52 221.694 334.519 218.822C333.919 217.128 333.219 215.434 332.619 213.814C332.418 213.225 332.218 212.709 332.118 212.12C331.818 209.984 330.618 208.143 329.217 206.302C328.217 205.05 327.517 203.651 326.616 202.325C326.516 202.251 326.616 202.104 326.516 202.03C325.016 200.41 323.615 198.864 322.114 197.244C320.214 195.255 318.313 193.193 316.312 191.205C314.811 189.658 313.311 188.038 312.61 186.197C312.31 185.313 311.81 184.429 311.61 183.472C311.31 181.925 311.51 180.305 311.01 178.758C310.61 177.506 310.51 176.254 310.81 175.002C310.91 174.561 310.91 174.045 311.21 173.677C312.811 171.099 311.81 168.595 310.51 166.165C309.609 164.545 309.209 162.851 308.709 161.157C307.909 158.358 308.409 155.56 308.609 152.761C308.809 149.742 310.71 147.532 313.911 145.839C317.512 143.924 320.314 141.567 323.015 138.99C323.315 138.695 323.615 138.253 324.115 138.032C328.217 135.749 331.718 132.877 336.52 131.183C342.923 128.9 349.225 126.543 355.028 123.377C358.629 121.388 361.33 119.031 363.931 116.307C367.133 113.066 370.734 110.12 376.036 108.426C382.839 106.291 389.542 103.934 396.644 102.314C400.846 101.356 405.148 100.694 409.55 100.694C412.451 100.694 415.052 101.283 417.353 102.461C419.754 103.639 420.754 105.775 419.354 107.69C418.053 109.531 418.954 111.225 419.354 112.992C419.654 114.465 420.154 115.938 420.154 117.411C420.054 119.473 418.353 121.094 416.152 122.198C413.451 123.597 410.55 124.923 407.549 126.028C401.947 128.164 396.044 129.784 390.042 131.257C388.441 131.625 386.941 132.14 385.34 132.582C382.439 133.392 380.538 135.086 378.837 136.854C378.137 137.59 377.937 138.769 377.937 139.726C378.037 142.156 376.536 143.997 374.135 145.544C373.135 146.207 372.135 146.87 371.834 147.901C371.334 149.374 370.734 150.773 370.034 152.467ZM407.149 106.659C405.648 105.775 404.148 105.996 402.847 106.217C400.946 106.512 399.146 106.953 397.445 107.543C394.944 108.353 392.343 109.163 389.942 110.194C386.941 111.52 385.14 113.655 383.639 115.865C381.538 118.884 378.537 121.241 374.836 123.156C369.233 126.028 363.131 128.164 356.828 130.152C353.727 131.109 350.626 131.993 347.925 133.54C346.224 134.571 344.423 135.602 342.823 136.78C341.522 137.738 340.322 138.769 339.421 139.873C337.721 142.156 335.72 144.071 332.819 145.618C332.218 145.912 331.718 146.354 330.718 147.017C338.321 147.532 345.224 147.68 351.726 147.827C352.927 146.943 353.827 146.428 354.627 145.839C357.128 143.997 359.529 142.156 359.63 139.358C359.63 138.695 360.03 137.958 360.63 137.443C362.731 135.234 365.332 133.466 368.833 132.509C372.635 131.404 376.336 130.299 380.138 129.195C385.64 127.648 390.842 125.807 395.744 123.45C398.245 122.272 400.546 120.799 402.047 118.737C403.747 116.454 403.847 113.95 404.248 111.446C404.348 110.415 404.848 109.531 405.648 108.721C406.148 108.058 406.649 107.395 407.149 106.659ZM347.725 261.242C341.922 260.432 336.32 259.622 330.818 258.812C329.717 258.664 329.017 258.959 328.217 259.401C325.116 261.389 323.215 263.82 323.015 266.913C322.815 270.595 322.314 274.277 322.915 278.033C323.215 280.39 324.215 282.599 326.116 284.441C328.017 286.355 330.618 287.534 334.019 287.46C335.72 287.386 336.72 286.797 337.421 285.693C338.221 284.514 338.021 283.189 338.221 282.01C338.421 280.758 338.221 279.506 339.121 278.402C341.522 275.677 342.122 272.51 342.823 269.417C343.623 266.545 344.824 263.82 347.725 261.242Z" fill="#FEEDE7"/>
<path d="M177.256 245.113C175.155 246.734 173.154 248.428 170.953 249.974C168.752 251.447 166.251 252.699 163.85 254.098C162.85 254.614 161.749 254.761 160.649 254.467C157.048 253.362 153.446 252.257 149.945 251.005C149.244 250.784 148.744 250.121 148.144 249.68C146.943 248.869 145.743 248.059 144.342 247.102C145.643 246.145 146.743 245.187 148.044 244.377C148.544 244.082 149.344 244.009 150.045 244.009C152.246 243.861 154.246 243.346 156.147 242.536C158.748 241.431 160.249 239.664 160.849 237.528C161.449 235.024 162.05 232.52 162.55 229.942C162.65 229.206 162.35 228.469 162.15 227.659C161.749 225.671 161.549 223.609 160.649 221.694C159.649 219.632 159.148 217.423 157.648 215.508C156.847 214.477 157.048 213.077 156.747 211.825C156.147 209.542 154.947 207.407 153.046 205.492C151.345 203.724 150.345 201.662 148.944 199.747C147.544 197.759 146.243 195.697 144.442 193.782C142.342 191.646 140.741 189.29 139.04 186.933C138.54 186.197 138.34 185.387 138.24 184.576C137.74 182.146 137.64 179.716 136.839 177.359C136.239 175.592 136.639 173.898 136.539 172.13C136.439 170.657 136.439 169.184 136.039 167.785C135.339 165.428 135.039 162.998 135.139 160.568C135.239 157.475 135.039 154.382 135.439 151.288C135.639 149.521 136.439 147.974 137.94 146.649C139.641 145.176 141.941 144.145 143.242 142.377C143.842 141.641 144.643 140.904 144.943 140.094C145.743 137.885 147.544 136.338 150.145 135.234C153.446 133.834 156.948 132.582 160.349 131.404C165.851 129.489 171.353 127.648 175.955 124.629C177.156 123.818 178.156 123.008 178.656 121.83C179.757 119.179 181.958 116.969 184.259 114.834C184.959 114.171 185.559 113.508 186.059 112.771C187.46 110.488 189.861 108.942 192.462 107.395C196.964 104.744 201.265 102.019 205.667 99.2943C208.068 97.8213 210.469 96.4221 212.77 94.8018C215.071 93.2553 217.172 91.5614 219.173 89.8675C221.073 88.321 222.974 86.8481 225.375 85.7434C229.577 83.7549 233.979 81.8401 236.98 78.747C237.28 78.4524 237.58 78.2315 237.88 77.9369C240.081 75.1383 243.282 73.1499 246.584 71.2351C246.984 71.0142 247.384 70.5723 247.284 70.2777C247.184 69.9831 246.584 69.6885 246.084 69.6149C245.183 69.4676 244.183 69.5412 243.282 69.5412C242.482 69.5412 241.782 69.6149 241.182 69.6885C241.982 68.2892 242.682 66.9636 243.583 65.3434C245.783 64.7542 248.385 64.0914 250.886 63.4286C252.186 63.0604 253.387 62.7658 254.687 62.3976C255.087 62.2503 255.788 62.0293 255.788 61.8084C255.888 60.2618 257.588 60.4091 258.889 60.1145C266.492 58.347 274.395 57.2423 282.198 56.2113C282.698 56.1376 283.099 56.064 283.699 55.9167C283.799 56.2113 283.999 56.4322 284.099 56.7268C284.199 57.0214 284.199 57.316 284.199 57.5369C282.198 58.1997 280.297 58.8626 278.297 59.5254C277.096 59.8936 276.696 60.63 276.196 61.5138C275.295 63.134 275.395 64.9015 274.895 66.5954C274.495 68.0683 273.595 69.0994 271.994 69.9095C269.993 71.0142 267.892 72.1189 265.792 73.2235C263.291 74.6228 261.89 76.6113 259.989 78.3788C257.888 80.4409 255.387 82.1347 252.686 83.6076C250.485 84.786 248.184 85.817 246.084 87.069C243.783 88.4683 241.482 89.9412 239.581 91.6351C236.58 94.36 232.678 96.3484 229.277 98.6314C225.875 100.914 222.274 103.124 218.773 105.333C217.172 106.291 215.571 107.248 213.771 108.132C211.37 109.31 209.669 110.857 208.668 112.919C208.068 114.244 207.368 115.57 206.768 116.896C205.567 119.179 203.566 121.02 201.165 122.714C195.763 126.396 189.661 129.195 182.858 131.33C179.157 132.509 175.455 133.908 171.954 135.381C169.453 136.412 167.652 137.811 166.952 140.021C166.251 142.23 164.15 143.997 161.749 145.397C158.748 147.164 157.348 149.374 157.248 152.098C157.148 155.928 157.048 159.684 157.148 163.514C157.248 165.281 157.948 167.122 158.148 168.89C158.348 170.289 158.648 171.688 158.448 173.088C158.048 175.371 158.648 177.506 159.248 179.716C159.649 180.968 159.849 182.293 160.049 183.545C160.349 185.534 160.849 187.449 163.15 188.848C163.65 189.143 164.05 189.658 164.451 190.1C166.551 192.383 168.852 194.445 171.453 196.36C173.954 198.127 176.355 199.821 178.656 201.662C180.557 203.209 181.858 204.903 181.858 207.186C181.858 208.217 182.458 209.174 182.958 210.205C184.359 213.004 184.859 216.023 185.059 218.969C185.159 220.368 184.659 221.768 184.759 223.241C184.959 225.892 184.159 228.543 184.559 231.268C184.859 233.183 184.259 235.098 183.358 236.939C182.358 239.001 181.858 240.989 182.458 243.199C182.858 244.893 184.659 245.482 186.459 245.113C188.16 244.745 189.761 244.23 191.461 243.935C193.462 243.567 195.463 243.199 197.564 243.125C200.665 242.978 202.466 244.23 201.866 246.439C201.065 249.532 199.065 252.331 195.563 254.246C194.163 255.056 191.962 255.203 190.161 255.571C186.559 256.234 182.958 256.75 179.257 256.602C177.956 256.529 176.555 256.381 175.255 256.16C172.854 255.719 171.653 254.025 172.654 252.478C173.854 250.563 175.155 248.649 176.355 246.807C176.655 246.365 176.956 245.924 177.256 245.482C177.456 245.187 177.356 245.187 177.256 245.113Z" fill="#FEEDE7"/>
<path d="M492.583 166.828C495.885 161.967 499.186 157.327 502.187 152.614C503.888 150.11 505.989 147.901 509.09 146.207C510.391 145.47 511.691 144.66 512.791 143.776C514.792 142.156 514.292 140.757 511.491 139.947C510.591 139.652 509.69 139.505 508.59 139.137C509.29 138.4 509.89 137.811 510.491 137.222C510.991 136.706 511.591 136.486 512.491 136.559C515.292 136.706 518.094 136.78 520.895 136.927C525.297 137.148 529.598 137.443 534 137.738C533.9 139.726 533.3 140.168 530.999 140.831C528.298 141.567 525.697 142.304 523.496 143.85C522.095 144.808 520.194 145.544 518.394 146.133C513.992 147.532 511.091 149.963 509.19 153.203C507.489 156.075 505.489 158.874 503.488 161.672C502.787 162.704 501.687 163.661 500.987 164.692C500.386 165.649 499.786 166.607 499.486 167.638C498.786 169.7 498.186 171.762 497.585 173.824C497.185 175.297 497.085 176.696 497.685 178.169C498.486 180.084 499.086 182.072 499.786 183.987C500.587 186.049 502.287 187.817 504.088 189.437C507.589 192.677 511.291 195.844 514.692 199.158C516.593 201 518.194 202.914 519.794 204.903C522.395 208.217 522.896 211.899 522.595 215.581C522.395 218.822 521.695 222.062 521.095 225.303C520.695 227.659 520.295 230.016 519.594 232.373C518.394 235.981 517.693 239.811 515.393 243.199C514.092 245.187 512.491 247.028 510.891 248.943C508.19 252.184 504.288 254.614 500.887 257.339C499.486 258.443 498.286 259.548 497.085 260.726C495.685 262.126 494.884 263.672 494.984 265.513C495.084 266.986 494.584 268.533 494.584 270.08C494.784 273.246 495.084 276.413 495.384 279.58C495.484 280.095 495.785 280.611 495.985 281.053C498.286 285.03 501.587 288.491 505.088 291.952C507.289 294.162 509.59 296.371 511.991 298.507C514.192 300.569 516.593 302.557 518.894 304.546C520.495 305.945 522.095 307.492 523.996 308.67C525.697 309.775 526.297 310.953 526.697 312.5C527.097 314.194 528.198 315.814 528.698 317.581C529.098 318.981 529.098 320.38 529.298 322C520.595 321.19 512.191 320.748 503.788 319.349C503.088 314.562 500.887 310.143 498.986 305.651C499.786 305.503 500.286 305.282 500.887 305.209C503.788 304.693 504.988 303.515 504.588 301.379C504.488 300.569 504.088 299.759 503.588 299.022C501.587 295.708 498.586 292.763 495.685 289.817C494.084 288.123 492.483 286.429 491.083 284.661C489.082 282.084 487.981 279.285 488.182 276.266C488.282 274.719 488.082 273.246 487.881 271.7C487.881 271.332 487.581 270.963 487.381 270.374C486.981 270.963 486.481 271.332 486.381 271.773C485.881 273.615 484.48 275.235 483.18 276.781C480.378 280.169 479.078 283.999 477.877 287.755C477.377 289.375 476.777 290.921 476.177 292.468C474.776 295.635 475.576 297.991 479.278 299.906C481.379 301.011 483.68 301.968 485.981 302.926C486.781 303.294 487.481 303.588 487.681 304.325C488.182 306.387 488.782 308.375 489.382 310.658C488.682 310.585 487.981 310.585 487.281 310.438C484.38 309.996 481.479 309.627 478.678 309.112C477.477 308.891 476.077 308.449 475.276 307.786C474.576 307.124 473.776 306.976 472.975 306.829C469.074 306.166 465.172 305.724 461.371 305.061C457.269 304.325 453.167 303.441 448.966 302.631C448.465 302.557 447.865 302.263 447.665 301.968C446.865 300.716 446.165 299.391 445.464 297.991C449.066 297.181 450.066 294.825 451.367 292.615C453.167 289.375 453.668 285.84 454.968 282.452C455.768 280.537 456.569 278.549 458.47 276.929C460.17 275.456 460.87 273.541 461.671 271.7C462.971 268.828 465.272 266.397 467.573 263.967C468.273 263.304 469.274 262.789 470.274 262.273C474.776 259.769 479.678 257.928 484.58 255.939C490.983 253.362 497.485 250.784 502.988 247.102C505.789 245.261 508.69 243.346 510.09 240.695C511.491 238.043 512.191 235.319 511.791 232.446C511.591 231.415 510.891 230.311 510.291 229.353C507.589 225.155 504.188 221.252 500.186 217.644C495.785 213.667 491.583 209.542 488.482 204.903C486.181 201.368 483.48 197.98 481.379 194.371C479.378 190.763 477.277 187.08 477.477 183.03C477.477 182.146 477.077 181.262 476.777 180.452C475.877 178.022 474.976 175.592 474.076 173.161C473.376 171.32 472.175 169.7 470.875 168.08C468.974 165.723 466.973 163.366 465.572 160.862C463.672 157.696 462.271 154.382 460.67 151.141C460.37 150.405 460.17 149.668 459.97 148.932C459.57 147.459 460.17 146.133 461.671 145.102C463.872 143.556 464.372 141.788 463.171 139.652C462.571 138.695 462.171 137.664 461.671 136.633C465.272 133.466 470.274 131.919 475.676 130.594C475.576 131.404 475.476 131.993 475.376 132.73C483.58 134.571 491.983 134.939 500.386 135.97C499.486 136.854 498.686 137.664 497.885 138.4C497.685 138.621 497.285 138.769 496.885 138.842C496.485 138.989 495.985 139.063 495.485 139.063C491.683 139.284 488.882 140.683 486.881 142.966C486.181 143.776 485.28 144.66 484.28 145.249C481.979 146.575 481.379 148.122 482.279 150.036C483.78 153.277 485.18 156.517 486.881 159.684C487.981 161.746 489.482 163.661 490.883 165.649C491.383 165.944 491.883 166.239 492.583 166.828Z" fill="#FEEDE7"/>
<path d="M86.9192 195.918C90.2205 195.992 93.1217 197.17 96.6231 197.612C95.8228 196.581 95.2225 195.697 94.5223 194.887C92.7215 192.898 90.8208 190.984 89.02 188.922C87.4194 187.08 86.519 185.018 86.6191 182.809C86.6191 181.778 86.519 180.673 86.1188 179.642C85.1184 177.212 84.9184 174.781 85.2185 172.351C85.5186 170.068 84.9184 167.932 84.5182 165.723C84.118 163.44 83.918 161.157 83.918 158.948C83.8179 156.591 83.918 154.234 84.018 151.878C84.118 149.374 85.3185 147.312 88.0196 145.618C90.4206 144.145 92.4214 142.304 93.5218 139.947C94.8224 137.296 97.4234 135.381 100.925 134.203C106.627 132.214 112.429 130.373 118.032 128.311C125.135 125.733 132.538 123.745 139.841 121.535C141.441 121.02 143.142 120.578 144.542 119.842C146.143 119.105 147.144 117.853 145.943 116.233C145.143 115.128 144.542 113.876 143.942 112.698C143.242 111.151 143.642 110.047 145.543 109.236C147.644 108.279 149.945 107.543 152.146 106.733C152.846 106.438 153.646 106.217 154.146 105.775C156.747 103.86 159.248 101.946 160.749 99.4415C161.349 98.4105 162.65 97.6004 163.45 96.643C164.15 95.9065 164.751 95.1701 165.251 94.4336C166.251 93.0343 167.152 91.6351 168.152 90.3094C170.353 87.3636 173.854 85.4488 177.756 83.9022C180.857 82.6502 183.658 80.9564 185.459 78.747C187.96 75.8012 191.361 74.1073 195.763 73.1499C200.365 72.1188 204.967 71.2351 209.769 70.9405C215.071 70.5723 220.473 70.204 225.775 70.0568C228.176 69.9831 230.677 70.2777 233.178 70.4986C233.679 70.4986 234.179 70.7196 234.679 70.8669C233.679 72.1188 232.078 72.2661 230.277 72.3398C225.175 72.4134 220.073 72.8553 215.171 74.1073C212.97 74.6228 211.169 75.5066 209.869 76.9795C206.968 80.0726 203.466 82.6502 198.864 84.4914C195.563 85.817 192.862 87.5845 190.961 90.0148C189.761 91.5614 188.76 93.1816 188.86 94.9491C188.86 95.9802 188.56 97.2322 189.961 98.0423C190.561 98.4105 191.261 98.6314 191.962 98.7787C192.562 98.926 193.162 98.9997 194.263 99.147C193.062 100.031 192.162 100.694 191.161 101.209C186.96 103.639 182.858 106.07 178.556 108.5C176.255 109.752 174.855 111.372 174.154 113.361C173.854 114.097 173.454 114.465 172.754 114.907C171.353 115.717 170.353 116.896 168.552 117.19C167.552 118.884 165.651 120.504 167.352 122.493C166.451 123.229 165.651 123.892 164.851 124.481C164.15 124.997 163.35 125.439 162.15 125.365C153.746 124.849 146.043 126.543 138.54 129.047C134.839 130.299 131.137 131.551 127.436 132.73C124.534 133.687 121.633 134.718 119.232 136.338C117.832 137.296 116.531 138.4 115.931 139.652C114.73 142.083 113.03 144.145 110.129 145.765C107.628 147.164 106.227 148.932 106.227 151.288C106.327 153.94 106.027 156.665 106.027 159.316C106.027 159.979 106.227 160.568 106.327 161.231C106.527 162.483 106.727 163.808 106.827 165.06C107.027 167.491 107.427 169.847 107.127 172.278C106.727 175.592 107.928 178.685 108.428 181.852C108.528 182.514 108.628 183.251 108.728 183.914C109.028 186.27 110.129 188.332 112.029 190.247C113.83 192.162 115.331 194.224 117.031 196.213C118.332 197.612 119.832 198.937 121.033 200.337C122.934 202.62 124.835 204.976 126.435 207.407C127.436 208.88 127.836 210.5 128.436 212.12C128.836 213.077 129.136 214.035 129.436 214.992C130.237 217.57 131.137 220.147 131.937 222.651C132.137 223.241 132.037 223.903 132.037 224.566C132.238 226.334 132.538 228.175 132.638 229.942C132.938 233.772 131.537 237.381 129.436 240.842C129.336 241.063 129.336 241.284 129.136 241.726C133.538 242.389 137.84 243.051 142.442 243.714C141.641 244.745 141.041 245.629 140.241 246.366C139.14 247.544 137.94 248.649 136.839 249.753C135.639 250.932 134.939 251.005 133.238 250.637C129.536 249.753 125.835 248.796 122.133 247.912C117.832 251.521 112.429 253.951 107.227 256.529C106.127 257.118 105.027 257.339 103.626 257.191C101.825 256.971 100.024 256.897 97.9236 256.75C98.1237 256.381 98.2237 256.087 98.5239 255.792C100.825 253.656 102.225 251.153 103.026 248.501C103.926 245.703 102.826 244.009 99.9244 242.168C99.4242 241.873 98.924 241.652 98.2237 241.358C99.0241 239.811 99.7244 238.338 100.525 236.718C103.126 237.233 105.627 237.749 108.328 238.338C109.928 235.024 110.429 231.71 110.229 228.249C106.927 228.69 104.626 230.237 101.825 230.605C100.825 224.934 100.525 219.411 98.0237 214.182C97.9236 214.035 97.9236 213.961 97.9236 213.814C98.3238 212.046 96.5231 210.647 96.5231 208.953C96.5231 208.511 96.0229 208.143 95.7227 207.701C95.4226 207.186 94.9224 206.67 94.7223 206.155C94.4222 205.271 94.1221 204.461 93.0216 203.945C92.8216 203.872 92.6215 203.724 92.6215 203.503C91.521 200.779 88.5198 199.011 86.8191 196.654C87.0192 196.36 87.0192 196.213 86.9192 195.918Z" fill="#FEEDE7"/>
<path d="M1.88476 175.371C1.88476 171.983 1.9848 168.816 0.484197 165.649C-0.116046 164.397 0.284115 162.998 0.084034 161.672C-0.216087 159.463 0.384156 157.327 0.384156 155.192C0.384156 153.94 0.284115 152.761 0.384156 151.509C0.684277 149.226 1.4846 147.164 4.18569 145.691C6.98683 144.145 8.68751 142.009 9.98804 139.652C11.4886 137.075 14.0897 135.16 17.5911 133.908C20.0921 133.024 22.4931 131.993 24.9941 131.109C25.7944 130.815 26.7948 130.667 27.6952 130.594C34.2979 130.005 41.0006 129.342 47.6033 128.753C54.1059 128.164 60.6085 127.501 67.1112 127.059C74.114 126.617 81.1168 126.249 88.1197 127.206C90.1205 127.501 92.1213 127.943 93.822 128.826C95.6227 129.784 95.7227 130.594 93.922 131.551C92.6215 132.288 91.1209 132.877 89.6203 133.54C87.7195 134.423 85.8187 135.307 84.018 136.191C82.2173 137.148 81.1168 138.621 80.6166 140.094C79.9163 142.156 78.2157 143.703 76.1148 144.955C73.3137 146.575 71.9131 148.637 71.2128 151.141C70.3125 154.455 68.2116 157.475 66.1108 160.347C65.0103 161.82 65.0103 163.145 66.0107 164.692C67.4113 166.901 69.112 169.037 71.1128 171.026C72.2132 172.057 72.7134 173.309 72.4133 174.634C72.2132 175.444 72.2132 176.254 72.0131 177.065C71.613 179.2 70.1124 180.747 67.5113 181.778C64.31 183.104 60.7086 183.84 57.1071 184.429C52.4052 185.239 47.6033 186.049 43.0014 187.007C41.901 187.228 40.7005 187.449 39.8001 188.332C39.0998 188.995 39.0998 189.658 39.2999 190.247C39.6 190.984 40.3003 191.646 40.7005 192.383C41.1006 192.972 41.5008 193.635 41.6008 194.298C41.7009 195.181 41.6008 196.139 41.5008 197.096C41.2007 199.968 42.9014 202.325 45.2023 204.461C46.1027 205.345 47.1031 206.155 48.1035 207.039C48.9038 207.701 49.2039 208.438 48.9038 209.322C48.3035 210.721 47.7033 212.12 47.3031 213.519C46.4028 216.612 45.8025 219.706 46.8029 222.872C47.003 223.683 47.1031 224.493 47.3031 225.303C47.5032 226.186 47.8033 226.849 48.6037 227.659C49.7041 228.69 50.3044 230.09 51.0046 231.342C51.2047 231.71 51.2047 232.225 50.9046 232.52C49.7041 234.361 49.404 236.644 46.3027 237.528C41.6008 240.621 37.099 243.862 33.7977 247.838C33.0974 248.722 32.2971 249.606 31.5968 250.563C30.5964 251.889 30.9965 253.141 32.8973 253.804C33.9978 254.246 35.2983 254.54 36.4988 254.688C41.8009 255.424 47.003 255.129 52.2051 254.172C55.8066 253.509 59.408 252.552 62.9095 251.594C64.4101 251.153 65.8106 250.416 67.2112 249.68C70.2124 248.059 73.3137 246.513 76.2148 244.819C77.5154 244.082 78.7159 243.199 79.8163 242.241C80.6166 241.505 81.517 241.284 82.7175 241.505C83.6178 241.652 84.6182 241.726 85.6186 241.873C85.0184 243.272 83.918 244.451 82.6174 245.482C78.8159 248.501 75.1144 251.594 70.3124 253.804C68.1116 254.761 66.1108 256.013 63.9099 256.897C62.6093 257.412 60.9086 257.56 59.308 257.56C52.3052 257.633 45.4024 257.781 38.3995 257.56C33.6976 257.412 28.9957 257.044 24.594 255.719C24.2938 255.645 23.9937 255.571 23.6936 255.498C19.5919 254.172 18.3914 252.552 19.5919 249.385C20.5923 246.66 21.8929 244.082 22.8933 241.358C24.1938 237.675 25.7944 233.919 25.8945 230.09C25.9945 228.322 25.3943 226.481 25.1942 224.714C24.694 221.105 23.8937 217.496 22.6932 213.961C22.193 212.415 21.6928 210.794 21.1926 209.248C20.3923 206.744 18.2914 204.755 16.6908 202.546C14.9901 200.337 13.1893 198.275 11.4886 196.139C11.2886 195.918 10.8884 195.771 10.5883 195.55C10.0881 195.034 9.58788 194.445 9.08768 193.856C7.98723 192.604 6.88679 191.426 5.88638 190.174C5.1861 189.29 4.48582 188.259 3.88557 187.301C3.08525 186.049 3.58545 184.871 5.08606 184.135C6.78675 183.324 8.48744 182.367 10.3882 181.852C17.0909 179.937 24.1938 178.906 31.1966 177.875C36.6989 177.065 42.3011 176.107 47.8033 175.076C49.304 174.782 50.8046 174.192 52.2051 173.75C54.306 173.088 54.9062 170.952 54.0059 169.553C52.9054 168.08 52.1051 166.46 51.1047 164.913C50.1043 163.44 50.0042 162.041 50.9046 160.494C51.0046 160.347 51.1047 160.126 51.2047 159.979C53.2055 156.959 53.6057 153.719 52.8054 150.405C52.6053 149.595 52.8054 148.711 52.8054 147.827C52.8054 146.87 53.4056 146.207 54.406 145.618C57.0071 144.071 58.0075 142.156 56.807 139.726C56.6069 139.21 56.6069 138.621 56.6069 138.032C59.5081 136.191 63.1095 135.454 66.5109 134.571C69.5121 133.761 72.5133 133.024 75.5146 132.14C76.2148 131.993 76.9151 131.699 77.4153 131.404C77.9155 131.109 78.4157 130.667 78.5158 130.226C78.5158 130.005 77.6154 129.563 77.1152 129.489C74.3141 129.195 71.4129 128.753 68.6118 128.826C64.21 128.9 59.9082 129.268 55.5065 129.71C45.8025 130.594 36.1986 131.772 26.9949 134.055C24.4939 134.644 22.293 135.675 19.9921 136.706C18.6916 137.296 17.7912 138.253 17.4911 139.358C17.191 140.315 16.8908 141.273 16.3906 142.23C15.5903 143.703 14.2898 144.881 12.5891 145.765C9.68792 147.312 9.48784 149.815 11.3886 152.393C13.4895 155.192 15.7904 157.917 18.0913 160.715C18.9917 161.82 19.0917 162.851 18.2914 164.029C17.4911 165.134 17.291 166.533 16.4907 167.638C15.6903 168.743 14.6899 169.7 13.5895 170.584C11.7888 172.057 9.78796 173.382 7.98723 174.855C7.38699 175.297 6.88679 175.518 6.1865 175.518C4.78594 175.518 3.48541 175.444 1.88476 175.371Z" fill="#FEEDE7"/>
<path d="M469.574 34.3384C471.275 34.4857 473.676 34.5593 476.077 34.8539C480.979 35.4431 484.58 37.7261 487.581 40.451C487.981 40.8193 488.282 41.1875 488.782 41.5557C490.683 43.1759 490.983 44.8698 489.282 46.711C488.081 48.0366 487.781 49.5095 487.681 51.0561C487.581 52.6763 486.881 54.2965 485.18 55.4748C482.879 57.0214 480.578 58.4943 478.278 60.0409C477.877 60.3355 477.377 60.5564 477.177 60.9246C475.977 62.9131 473.476 63.7232 471.075 64.5333C468.674 65.3434 466.273 66.0062 463.772 66.669C460.17 67.5528 456.569 67.7001 452.967 66.5954C449.466 65.4907 446.065 64.2387 443.063 62.5449C442.663 62.3239 441.963 62.0293 442.063 61.882C442.463 60.4828 440.762 60.1882 439.762 59.7463C436.561 58.2734 434.16 56.2113 432.059 54.0019C430.658 52.6026 430.258 51.0561 431.259 49.3622C431.859 48.3311 432.159 47.3001 433.459 46.5636C434.56 45.9008 435.26 44.9434 436.06 44.0597C439.362 40.7456 443.463 38.3889 448.866 37.2106C455.368 35.5904 462.071 34.633 469.574 34.3384ZM463.372 60.1145C466.173 60.1145 467.973 59.4517 469.374 58.1997C471.075 56.5795 472.375 54.8857 472.275 52.7499C472.275 52.308 472.475 51.7925 472.375 51.3506C472.175 49.5095 473.276 48.1102 474.876 46.7846C476.977 44.9434 477.777 42.8813 476.177 40.5247C474.876 38.6835 473.376 37.7261 470.574 37.8734C467.673 38.0207 464.772 38.4626 462.571 40.0828C461.271 41.0402 459.87 42.0712 458.67 43.1023C456.769 44.7961 454.868 46.49 452.967 48.2575C452.667 48.4784 452.467 48.8467 452.367 49.1413C451.867 50.246 451.867 51.4243 452.267 52.6026C452.967 54.5911 454.768 56.064 456.469 57.6106C458.269 59.3781 460.971 59.8936 463.372 60.1145Z" fill="#FEEDE7"/>
<path d="M233.178 214.035C233.078 214.845 232.878 216.023 232.678 217.202C232.478 217.938 231.878 218.527 230.877 218.969C227.476 220.663 224.775 220.147 222.074 217.864C220.973 216.907 219.473 216.244 218.873 214.992C218.272 213.74 217.772 212.415 217.172 211.163C216.672 209.984 216.472 208.585 214.671 207.922C212.67 205.197 210.569 202.472 208.668 199.747C208.068 198.937 207.768 197.906 207.868 196.949C207.968 195.55 206.868 194.15 207.768 192.751C208.168 192.015 208.969 191.646 210.069 191.794C214.671 192.53 218.372 194.298 221.574 196.728C223.975 198.569 226.276 200.558 228.476 202.546C230.077 203.945 230.677 205.639 231.378 207.333C232.078 209.101 232.478 211.015 233.078 212.783C232.978 213.004 233.078 213.298 233.178 214.035Z" fill="#FEEDE7"/>
<path d="M183.358 193.561C184.859 192.825 186.259 193.267 187.46 193.929C190.861 195.771 194.263 197.612 197.064 199.968C198.464 201.073 199.665 202.251 200.865 203.503C202.166 204.903 202.266 206.67 202.866 208.217C203.867 210.794 204.967 213.372 204.767 216.171C204.667 217.423 204.667 218.601 203.766 219.706C202.966 220.589 202.066 220.884 200.665 220.737C198.664 220.589 197.164 219.632 195.863 218.601C193.162 216.465 191.962 213.74 190.861 211.015C190.861 210.868 190.761 210.794 190.761 210.647C190.261 208.511 188.36 207.038 186.359 205.566C184.759 204.387 183.458 203.135 183.258 201.368C183.158 200.484 182.658 199.674 182.558 198.79C182.358 197.391 181.858 195.918 183.158 194.666C183.658 194.445 183.358 193.929 183.358 193.561Z" fill="#FEEDE7"/>
<path d="M383.139 251.226C383.939 249.68 384.64 248.133 385.64 246.734C386.841 245.113 386.941 243.346 386.64 241.652C386.44 240.621 386.14 239.59 385.74 238.633C385.04 236.939 386.34 235.539 387.341 234.214C388.841 232.004 390.742 230.016 392.143 227.733C393.243 225.965 393.743 224.051 394.544 222.283C394.744 221.915 394.944 221.547 395.144 221.178C395.444 221.105 395.644 221.105 395.744 221.105C399.246 221.841 399.146 221.915 399.146 224.566C399.146 228.69 397.945 232.667 396.444 236.571C395.944 237.896 395.844 239.295 395.444 240.621C394.744 242.978 393.443 245.187 391.442 247.102C390.642 247.986 389.742 248.796 388.941 249.68C387.541 251.079 386.24 251.447 383.139 251.226Z" fill="#FEEDE7"/>
<path d="M370.834 164.397C370.434 167.859 370.934 171.173 371.334 174.561C371.534 176.77 372.735 178.758 373.935 180.673C375.036 182.514 374.936 182.588 372.635 183.545C372.335 183.693 372.035 183.766 371.634 183.914C370.534 182.735 369.433 181.631 368.433 180.452C367.633 179.495 366.832 178.611 366.132 177.654C365.532 176.844 365.132 175.96 364.732 175.076C364.531 174.634 364.431 174.119 364.131 173.75C363.331 172.793 363.231 171.688 363.331 170.657C363.731 168.227 364.131 165.797 366.232 163.808C367.233 162.851 367.533 162.777 368.933 163.366C369.433 163.587 369.934 163.808 370.334 164.029C370.634 164.176 370.734 164.324 370.834 164.397Z" fill="#FEEDE7"/>
</svg>
