<svg width="1055" height="347" viewBox="0 0 1055 347" fill="none" xmlns="http://www.w3.org/2000/svg">
<mask id="mask0" mask-type="alpha" maskUnits="userSpaceOnUse" x="34" y="-441" width="1013" height="788">
<path d="M886.651 -440.686C884.644 -440.057 882.455 -439.533 880.631 -438.799C876.253 -437.227 871.692 -435.55 867.497 -433.874C866.037 -433.35 864.943 -432.511 864.031 -431.673C861.659 -429.367 858.011 -428.109 853.815 -427.166C843.599 -424.651 833.384 -422.345 823.533 -419.411C817.513 -417.629 812.405 -414.905 806.933 -412.599C805.108 -411.865 803.284 -411.132 801.46 -410.712C795.987 -409.664 790.332 -408.721 784.677 -407.778C776.833 -406.416 769.171 -405.053 761.327 -403.796C757.496 -403.167 753.301 -402.748 749.47 -401.909C730.863 -398.032 711.161 -396.25 692.007 -393.42C672.305 -390.486 652.604 -387.342 633.632 -383.15C623.051 -380.844 612.653 -378.224 602.073 -375.709C596.053 -374.242 590.398 -372.46 586.749 -369.002C585.29 -367.534 582.189 -366.696 580 -365.543C578.54 -364.81 576.716 -364.076 575.622 -363.133C572.156 -360.198 567.23 -358.312 562.122 -356.425C552.089 -352.757 542.421 -348.67 533.3 -344.269C529.651 -342.487 526.55 -340.391 524.544 -337.876C522.902 -335.78 519.983 -333.998 517.612 -332.112C514.328 -329.596 510.862 -327.291 507.943 -324.671C504.295 -321.527 500.646 -318.383 497.363 -315.029C493.714 -311.151 488.242 -308.007 482.587 -305.073C474.013 -300.566 464.709 -296.584 455.223 -292.706C449.933 -290.401 445.008 -287.676 440.447 -284.951C431.509 -279.711 422.752 -274.261 413.996 -268.916C411.077 -267.03 408.706 -264.829 405.787 -263.048C398.125 -258.436 393.93 -252.672 388.457 -247.327C384.809 -243.764 383.167 -240.096 382.437 -236.009C382.072 -233.389 379.883 -231.083 376.6 -229.197C374.593 -228.044 372.404 -226.996 370.215 -225.843C368.026 -224.69 366.384 -223.433 365.472 -221.756C364.195 -219.346 362.735 -217.04 360.911 -214.734C358.722 -212.009 358.54 -209.18 359.817 -206.455C361.094 -203.835 362.371 -201.11 364.56 -198.7C369.667 -192.831 376.235 -187.591 383.896 -182.665C386.45 -180.988 388.275 -179.102 390.646 -177.425C394.294 -174.805 398.125 -172.29 401.774 -169.67C405.605 -166.84 404.692 -164.639 399.037 -163.382C391.011 -161.495 382.619 -160.028 374.41 -158.351C371.127 -157.722 367.843 -156.989 364.56 -156.255C363.465 -156.046 362.553 -155.522 360.911 -154.893C362.553 -153.845 363.648 -153.006 365.107 -152.378C367.478 -151.33 369.85 -150.386 372.221 -149.548C377.694 -147.557 380.795 -144.622 382.984 -141.373C384.626 -139.068 386.815 -137.077 389.916 -135.4C393.017 -133.828 395.754 -132.151 399.037 -130.684C404.875 -128.064 411.624 -126.492 418.374 -125.129C426.766 -123.348 435.339 -121.776 443.913 -120.099C450.116 -118.946 455.771 -116.955 460.878 -114.649C461.973 -114.125 462.885 -113.706 463.98 -113.287C468.54 -111.4 469.087 -108.78 465.257 -106.475C463.067 -105.112 460.514 -104.064 458.142 -102.702C455.223 -101.025 452.122 -99.453 449.933 -97.5666C446.102 -94.5273 441.724 -91.8025 435.704 -90.3353C432.238 -89.4969 431.144 -87.5057 428.407 -86.248C423.482 -84.152 422.023 -80.6936 419.104 -77.9688C417.827 -76.7111 416.732 -75.3487 415.091 -74.1959C413.449 -73.1479 411.625 -72.2047 409.435 -71.5759C396.848 -67.5934 383.714 -64.0302 370.215 -61.2006C366.384 -60.3622 362.553 -59.4189 359.269 -58.2661C348.507 -54.4933 337.014 -51.7685 325.339 -49.1484C314.759 -46.738 304.543 -44.0132 295.057 -40.2404C289.584 -38.0395 289.584 -33.7426 295.239 -31.437C297.793 -30.389 300.347 -29.2362 302.901 -28.0834C304.543 -27.3498 304.725 -26.4066 303.813 -25.4634C302.901 -24.4154 301.989 -23.3673 300.712 -22.5289C293.962 -17.2888 286.848 -12.1536 278.639 -7.54236C273.531 -4.71271 268.606 -1.77829 263.863 1.15613C262.221 2.20413 260.944 3.46176 260.032 4.71939C257.478 8.07303 253.647 10.9026 248.722 13.2083C239.601 17.5051 232.304 22.7452 225.919 28.2997C221.723 32.0725 216.616 35.2165 209.684 37.5222C204.758 39.199 200.38 41.5046 195.819 43.6006C194.543 44.1246 193.813 45.0678 193.083 45.9062C191.077 48.3167 189.252 50.8319 188.887 53.6615C188.705 55.5479 188.158 57.5392 187.063 59.3208C185.239 62.2552 187.246 64.7704 190.347 66.6569C194.543 69.3817 199.833 71.4777 204.393 73.9929C211.143 77.661 219.534 79.6522 227.196 82.4819C230.844 83.8442 234.675 85.1019 237.959 86.6739C241.425 88.3507 244.344 90.3419 247.262 92.3331C249.087 93.486 250.911 94.7435 249.452 96.5251C249.269 96.6299 249.452 96.8395 249.634 97.0492C251.276 98.6212 250.728 100.088 249.452 101.556C247.992 103.442 245.986 105.224 242.519 106.167C239.418 107.11 236.317 108.053 233.216 108.997C229.385 110.149 226.649 112.036 224.277 113.922C223 114.865 224.642 115.704 226.102 116.437C229.385 118.114 232.486 119.791 235.77 121.468C239.053 123.145 238.871 124.193 235.04 125.45C232.486 126.289 229.932 126.918 227.014 127.442C217.528 129.118 208.224 130.9 199.285 133.415C194.36 134.778 189.982 136.559 187.428 139.389C186.698 140.227 186.516 141.275 185.969 142.219C184.144 145.887 182.685 149.659 180.496 153.327C177.395 158.567 173.017 163.598 170.28 169.048C168.821 171.982 168.821 174.707 170.645 177.536C171.74 179.213 172.287 181.1 173.564 182.776C174.476 183.825 174.294 184.768 173.929 185.816C172.469 190.217 168.091 193.047 161.159 194.829C153.315 196.82 145.471 198.916 137.809 201.117C130.877 203.108 123.763 205.099 117.196 207.614C113 209.291 109.716 211.702 106.25 214.007C101.69 217.047 97.3117 220.19 93.116 223.335C88.1906 227.003 84.907 231.195 82.1707 235.596C79.2519 240.312 77.0629 245.343 74.509 250.164C73.9617 251.107 73.4144 252.05 72.5023 252.888C70.1308 255.299 69.766 257.919 69.766 260.644C69.766 263.264 72.5023 265.045 75.6035 266.513C80.3465 268.713 85.8191 270.181 91.6566 271.438C105.338 274.268 119.567 276.05 132.884 279.508C143.1 282.233 152.038 285.901 158.241 291.351C162.984 295.438 165.355 299.944 166.085 304.87C166.632 308.538 166.632 312.101 165.355 315.56C162.984 322.057 158.788 328.031 150.761 333.166C140.181 339.873 127.229 343.751 112.088 345.638C97.3117 347.524 82.3531 347.314 67.3945 345.847C59.0031 345.009 50.6117 344.17 42.95 341.97C41.673 341.55 39.8488 341.55 38.5719 341.341C37.4773 329.498 37.1125 317.865 38.3894 306.023C41.4906 305.813 44.4094 305.708 47.3281 305.603C49.3347 309.796 50.7941 313.883 52.9832 317.76C56.9965 325.516 63.5636 332.223 76.1508 336.625C82.3531 338.721 89.1027 339.349 95.6699 340.398C105.156 339.874 114.277 339.035 122.121 335.577C130.877 331.699 134.343 326.459 134.161 320.485C133.978 316.503 133.431 312.311 127.959 309.167C125.04 307.49 121.939 306.023 118.473 304.87C109.352 301.935 99.3183 300.049 89.2851 298.267C83.4476 297.324 77.975 295.752 72.3199 294.495C71.0429 294.285 69.766 294.285 68.489 294.075C61.557 292.503 55.3547 290.093 49.6996 287.368C46.416 285.691 44.0445 283.386 41.3082 281.394C35.8355 277.098 33.8289 272.172 34.0113 266.932C34.0113 265.255 34.741 263.473 35.8355 261.901C37.6597 259.386 40.3961 257.081 42.5851 254.67C44.7742 252.365 46.9633 250.164 48.7875 247.858C52.0711 243.771 54.9898 239.579 58.091 235.387C59.7328 232.976 61.3746 230.671 63.0164 228.26C65.9351 223.963 71.0429 220.61 75.7859 217.047C78.7047 214.846 81.6234 212.645 84.7246 210.654C89.1027 207.929 93.6633 205.204 98.5886 202.794C107.162 198.706 116.101 194.829 125.04 190.846C129.6 188.855 132.884 186.235 135.803 183.405C137.262 182.043 137.262 180.261 137.992 178.689C138.721 176.908 139.269 175.126 140.181 173.449C142.005 170.305 144.012 167.161 146.018 164.017C147.66 161.607 149.484 159.301 151.491 156.995C154.592 153.432 155.687 149.659 156.599 145.677C157.146 143.371 156.781 141.066 156.416 138.76C156.052 136.245 156.599 133.73 157.876 131.319C159.153 129.118 160.247 126.917 161.159 124.612C161.524 123.669 161.524 122.725 161.342 121.677C161.159 119.372 160.43 116.961 160.977 114.656C161.342 112.664 162.801 110.569 164.261 108.682C165.72 106.691 165.902 104.49 165.902 102.394C166.085 98.726 163.896 95.3724 160.977 92.2283C160.43 91.7043 159.7 91.2852 159.153 90.866C152.586 86.3595 144.559 82.901 136.35 79.3378C131.972 77.3466 127.776 75.2505 125.405 72.2114C124.493 71.0585 122.486 70.2201 121.209 69.1721C118.108 66.7617 116.831 64.0368 114.642 61.4168C113.547 60.1592 112.818 58.5872 112.635 57.12C112.635 55.7576 111.358 54.8143 110.811 53.6615C108.987 50.4127 107.71 47.0591 109.169 43.7054C109.899 41.819 112.635 40.771 115.189 39.9326C118.837 38.7798 122.851 37.8366 126.864 37.2078C137.262 35.4261 147.66 33.9589 158.058 32.2821C166.267 31.0245 173.564 28.614 180.861 26.0988C181.408 25.8892 182.138 25.6796 182.503 25.3652C187.611 21.8019 194.543 19.3915 200.927 16.6667C204.576 15.0947 208.954 13.9419 212.785 12.4747C215.703 11.3219 218.257 10.0642 220.811 8.70181C221.723 8.17783 222.636 7.54901 223 6.8154C225.189 2.62338 230.297 -0.206299 236.317 -2.7215C237.777 -3.35031 239.053 -3.9791 240.148 -4.71271C243.432 -7.22794 246.533 -9.84796 249.452 -12.5728C254.377 -17.0792 250.728 -20.2233 246.168 -22.2145C242.702 -23.6818 238.324 -24.9393 234.128 -25.6729C225.554 -27.245 216.798 -28.3978 208.042 -29.7602C205.305 -30.1794 202.934 -30.913 200.198 -31.3322C198.191 -31.7515 197.461 -32.5898 197.644 -33.6378C197.826 -36.7819 199.65 -39.4019 204.211 -41.3931C213.15 -45.3755 223.365 -47.5764 233.763 -49.7772C245.073 -52.1877 256.566 -54.3885 267.329 -57.5325C276.815 -60.2574 287.213 -61.7245 297.611 -62.9822C309.286 -64.4494 320.961 -65.8118 332.453 -67.4886C341.757 -68.8511 350.696 -70.7375 359.999 -72.4143C363.1 -72.9383 365.107 -74.0911 365.472 -76.0823C365.837 -78.388 367.478 -80.5888 366.019 -82.8944C365.837 -83.104 365.837 -83.4184 366.019 -83.628C368.573 -86.1432 370.215 -88.8681 375.14 -90.4401C380.248 -92.1169 383.714 -94.4225 383.532 -98.1954C383.532 -99.977 384.809 -101.654 387.91 -102.492C391.011 -103.331 392.47 -105.007 394.112 -106.475C396.119 -108.466 394.659 -110.667 390.646 -112.239C386.815 -113.811 383.167 -115.488 379.336 -116.85C374.775 -118.527 370.215 -120.099 365.289 -121.356C359.269 -122.824 354.526 -125.129 350.878 -127.959C348.689 -129.636 347.777 -131.941 346.318 -133.933C346.135 -134.142 346.5 -134.457 346.318 -134.561C343.399 -137.181 340.48 -139.906 337.561 -142.526C337.379 -142.631 337.014 -142.736 336.832 -142.841C330.082 -147.766 327.528 -149.338 319.137 -152.063C316.218 -153.006 313.299 -153.95 310.745 -155.102C306.367 -156.884 306.914 -160.028 311.84 -161.495C316.035 -162.753 320.961 -163.382 324.427 -165.373C325.157 -165.897 326.434 -166.421 326.434 -166.945C326.434 -167.993 325.886 -169.041 324.974 -169.879C324.244 -170.613 322.785 -171.242 321.508 -171.766C319.684 -172.499 317.312 -172.814 317.677 -174.595C317.86 -175.015 315.853 -175.643 314.941 -176.063C314.029 -176.482 312.569 -176.691 312.205 -177.215C310.745 -179.102 307.826 -180.359 306.55 -182.246C306.185 -182.665 305.637 -183.189 304.908 -183.399C301.442 -184.132 299.982 -185.809 298.523 -187.591C297.793 -188.534 297.064 -189.582 294.692 -190.001C292.868 -190.316 291.773 -191.992 290.496 -193.04C288.307 -194.927 286.301 -196.813 284.476 -198.804C283.2 -200.167 281.558 -201.739 284.112 -203.311C284.294 -203.416 284.112 -203.835 284.112 -204.045C282.105 -206.455 283.747 -208.97 283.2 -211.381C283.2 -211.8 283.564 -212.219 283.747 -212.533C283.929 -212.953 284.294 -213.581 283.929 -213.896C282.835 -214.944 283.929 -215.677 284.659 -216.516C286.118 -218.298 287.76 -219.974 289.767 -221.651C290.679 -222.594 291.956 -223.538 293.598 -224.062C297.064 -225.214 300.712 -226.262 304.543 -226.996C314.029 -228.882 323.697 -230.454 333.183 -232.341C336.102 -232.97 338.838 -234.018 341.575 -234.961C344.128 -235.904 345.405 -237.267 345.77 -239.048C345.953 -240.515 347.23 -241.983 348.507 -243.135C351.06 -245.441 354.162 -247.642 357.08 -249.947C359.452 -251.834 361.641 -253.72 364.012 -255.607C368.026 -258.646 371.857 -261.79 376.235 -264.724C386.268 -271.432 395.754 -278.453 407.064 -284.532C412.354 -287.361 417.28 -290.191 422.752 -292.811C428.042 -295.326 433.698 -297.527 439.17 -299.938C441.359 -300.881 443.184 -302.034 444.825 -303.396C447.014 -305.178 449.751 -306.855 452.669 -308.427C456.865 -310.732 458.872 -313.457 459.054 -316.706C459.419 -321.527 458.689 -326.348 460.696 -331.064C460.696 -331.168 460.514 -331.273 460.696 -331.273C463.797 -334.732 463.797 -338.609 465.439 -342.277C465.804 -343.011 466.716 -343.745 467.628 -344.269C473.283 -347.622 480.215 -350.242 486.965 -352.757C491.525 -354.434 496.086 -356.111 500.464 -357.788C504.295 -359.255 507.761 -360.722 510.315 -363.028C512.139 -364.6 515.24 -365.648 517.612 -366.906C519.801 -368.058 521.807 -369.421 523.996 -370.574C526.368 -371.726 528.922 -372.984 531.658 -373.927C535.489 -375.08 539.685 -376.023 543.698 -376.862C554.461 -379.272 565.041 -381.787 575.987 -383.988C595.688 -388.075 615.937 -390.8 636.186 -393.525C653.151 -395.726 670.299 -397.717 687.264 -400.232C698.574 -401.909 710.067 -403.586 721.559 -405.263C733.052 -406.94 744.362 -409.14 755.855 -411.236C757.131 -411.446 758.408 -411.97 759.503 -412.494C766.435 -415.848 774.097 -418.677 782.306 -420.669C792.156 -423.079 802.19 -425.385 812.04 -427.9C814.594 -428.529 817.331 -429.577 818.972 -430.834C823.351 -434.188 829.735 -435.865 835.755 -437.856C838.492 -438.694 841.41 -439.323 844.147 -440.057C844.876 -440.266 845.424 -440.686 846.153 -441C859.835 -440.686 873.152 -440.686 886.651 -440.686Z" fill="#FEEDE7"/>
<path d="M1046.82 183.091C1043.72 185.711 1039.89 187.912 1035.51 189.903C1026.57 193.886 1017.27 197.658 1007.6 201.117C1002.12 203.108 996.652 205.204 991.726 207.615C985.159 210.759 981.146 215.16 976.95 219.352C975.856 220.505 974.761 221.763 973.484 222.811C968.923 226.793 965.457 231.195 964.181 235.911C963.268 238.95 962.721 242.094 962.721 245.133C962.721 249.535 961.079 253.727 959.255 258.024C957.978 260.854 956.884 263.683 955.424 266.408C953.418 270.076 951.046 273.639 948.857 277.202C943.567 285.482 938.277 293.656 932.986 301.936C930.25 306.023 927.514 310.215 924.23 314.197C920.764 318.285 917.116 322.372 911.643 325.725C904.529 330.022 896.137 333.062 885.557 333.481C878.077 333.795 870.78 333.062 864.031 331.175C862.024 330.651 861.294 329.917 862.024 328.66C864.031 324.782 867.497 321.429 873.699 319.333C877.348 318.075 881.361 317.551 885.739 317.97C889.935 318.389 894.313 318.704 898.509 318.913C903.434 319.228 907.447 318.494 910.184 315.979C912.008 314.302 913.65 312.52 915.656 310.844C916.751 309.796 916.568 308.852 915.656 308.014C911.461 304.031 908.177 299.735 904.893 295.543C901.427 291.141 897.049 287.054 893.218 282.757C889.388 278.565 885.739 274.373 882.273 270.076C879.902 267.037 879.902 263.788 881.179 260.539C882.273 257.814 884.462 255.509 887.016 253.098C890.117 250.269 892.306 247.125 894.86 244.19C897.232 241.36 899.238 238.426 901.975 235.701C903.799 233.815 905.988 232.033 908.542 230.461C914.379 226.793 920.582 223.23 928.061 220.505C933.898 218.304 939.554 215.894 945.209 213.588C948.127 212.435 951.228 211.178 954.512 210.339C966.917 207.195 976.95 202.374 986.254 196.925C990.084 194.619 993.55 192.209 996.652 189.484C999.206 187.283 999.57 185.082 998.476 182.777C997.381 180.681 995.557 178.585 993.733 176.593C990.814 173.554 987.531 170.62 984.794 167.476C981.328 163.388 980.598 158.882 979.869 154.375C979.321 151.755 979.321 149.031 978.592 146.411C977.68 143.162 978.227 140.122 980.781 137.188C983.152 134.358 984.429 131.424 984.247 128.28C984.065 124.926 982.97 121.992 976.768 120.525C976.95 119.267 976.95 118.114 977.132 116.961C999.57 116.961 1021.83 116.961 1044.26 116.961C1044.26 118.324 1044.26 119.477 1044.26 120.734C1042.44 120.944 1040.62 121.153 1038.97 121.468C1034.96 122.201 1032.04 123.564 1031.31 126.079C1030.76 128.175 1030.03 130.166 1029.85 132.262C1029.67 134.358 1028.76 136.245 1027.48 138.131C1025.47 141.171 1023.65 144.21 1021.46 147.249C1019.27 150.393 1020.37 153.642 1020.91 156.891C1021.83 164.332 1027.66 170.724 1033.32 177.222C1034.23 178.375 1036.05 178.585 1038.06 178.585C1040.07 178.585 1040.8 177.851 1041.34 176.908C1042.8 174.497 1044.08 172.192 1045.54 169.781C1045.91 169.257 1046.45 168.733 1047 168.209C1046.82 173.03 1046.82 178.061 1046.82 183.091ZM956.519 227.946C955.607 228.156 955.242 228.26 954.877 228.365C950.499 230.566 947.398 233.396 944.479 236.225C941.378 239.264 939.006 242.408 936.27 245.552C934.081 248.068 931.892 250.583 929.338 252.993C926.419 255.823 923.865 258.653 922.953 261.901C922.223 264.102 921.859 266.408 923.5 268.609C926.602 272.486 929.885 276.364 932.986 280.347C933.169 280.556 933.716 280.556 934.263 280.766C934.993 279.403 935.723 278.146 936.452 276.888C939.006 272.591 941.743 268.294 943.567 263.893C945.209 259.805 947.215 255.823 949.039 251.841C949.404 251.002 950.134 250.269 950.316 249.535C950.681 247.334 950.499 245.133 950.864 242.932C951.593 239.369 952.506 235.911 953.782 232.348C954.33 230.88 955.607 229.518 956.519 227.946Z" fill="#FEEDE7"/>
<path d="M1046.82 -26.6162C1031.31 -26.4066 1015.99 -26.3018 1000.48 -26.0922C1000.48 -26.197 1000.3 -26.4066 1000.3 -26.5114C1000.85 -26.721 1001.39 -27.0354 1002.12 -27.1402C1008.87 -27.6642 1015.08 -29.0266 1020.91 -30.913C1022.37 -31.3322 1022.92 -31.961 1023.1 -32.7994C1024.2 -37.2011 1025.47 -41.7075 1026.75 -46.1091C1026.93 -46.8427 1027.85 -47.5764 1028.58 -48.31C1029.3 -49.0436 1030.22 -49.6724 1030.95 -50.3012C1030.4 -51.8732 1028.76 -52.3972 1026.57 -52.3972C1025.11 -52.3972 1023.65 -52.502 1022.19 -52.3972C1015.99 -51.978 1009.79 -51.454 1003.58 -50.93C1003.22 -50.93 1002.85 -50.7204 1002.12 -50.406C1004.31 -50.0916 1006.14 -49.7772 1008.33 -49.4628C1006.5 -47.4716 1003.58 -47.1572 1000.48 -47.0524C997.199 -46.9476 993.733 -46.8428 990.449 -46.738C989.537 -46.738 988.625 -46.6332 987.895 -46.4236C985.341 -45.8996 983.7 -45.2708 983.517 -43.3843C983.335 -40.5547 982.24 -37.7251 982.24 -34.8954C982.24 -31.6466 979.139 -30.0746 974.396 -29.0266C973.666 -28.9218 973.119 -28.817 971.477 -28.5026C972.937 -28.293 973.666 -28.0834 974.396 -28.0834C978.957 -28.0834 983.335 -28.293 987.895 -28.293C990.632 -28.293 990.632 -28.1882 991.544 -26.4066C990.996 -26.4066 990.449 -26.3018 989.902 -26.3018C978.957 -26.197 968.011 -26.197 957.066 -25.8826C950.681 -25.7777 944.296 -25.2538 937.912 -24.8345C926.419 -24.101 914.926 -23.9962 903.434 -24.4154C896.319 -24.625 889.387 -25.5681 882.638 -26.9306C880.084 -27.4546 877.53 -28.1882 876.071 -29.6554C875.341 -30.389 874.794 -31.1226 875.888 -31.961C878.989 -34.581 881.726 -37.4107 885.192 -39.9259C889.57 -43.1747 895.407 -45.3755 901.792 -47.1571C909.089 -49.2532 916.386 -51.2444 923.683 -53.3405C925.142 -53.7596 926.784 -54.3884 927.878 -55.122C930.615 -56.9037 934.081 -57.8469 937.912 -58.4757C945.756 -59.7333 953.965 -59.9429 962.174 -60.2573C972.572 -60.6765 982.787 -60.1525 993.185 -59.4189C1006.14 -58.4757 1019.09 -58.5805 1032.04 -58.8949C1036.97 -58.9997 1041.89 -59.3141 1046.82 -59.5237C1046.82 -48.7292 1046.82 -37.7251 1046.82 -26.6162ZM922.953 -25.9874C926.784 -26.4066 930.25 -26.721 933.716 -27.1402C941.56 -28.1882 946.121 -31.1226 947.945 -35.6291C949.587 -40.0307 953.235 -43.9083 959.437 -46.8427C962.174 -48.2052 965.64 -48.9388 968.741 -49.9868C971.66 -50.93 972.754 -51.978 972.389 -53.6548C972.025 -55.2269 970.93 -55.8557 967.281 -56.1701C960.167 -56.7989 953.417 -56.3796 948.127 -53.026C945.208 -51.2444 941.742 -49.882 937.912 -48.834C934.081 -47.786 930.615 -46.4236 927.149 -44.9564C924.96 -44.0132 922.771 -42.8603 921.311 -41.6027C918.028 -38.5635 915.291 -35.3147 912.555 -32.1707C910.913 -30.2842 912.008 -28.293 915.474 -27.3498C917.663 -26.6162 920.582 -26.4066 922.953 -25.9874Z" fill="#FEEDE7"/>
<path d="M954.877 -440.686C954.512 -438.38 951.593 -437.122 949.039 -435.55C946.668 -434.083 944.114 -432.721 941.742 -431.253C939.188 -429.577 936.27 -428.319 932.804 -427.481C926.419 -425.909 920.034 -424.127 913.467 -422.765C906.717 -421.402 899.785 -420.459 893.036 -419.201C882.273 -417.21 871.51 -415.219 860.929 -412.913C853.633 -411.341 846.153 -410.503 838.674 -409.56C830.83 -408.616 822.986 -407.883 815.142 -407.044C814.594 -406.94 814.047 -407.044 813.317 -407.359C816.054 -407.883 818.79 -408.616 821.709 -409.036C831.012 -410.293 840.133 -411.97 848.707 -414.59C860.2 -418.258 872.787 -420.354 885.192 -422.974C891.211 -424.232 897.231 -425.489 903.251 -426.747C909.454 -428.109 915.109 -429.786 920.217 -432.302C923.318 -433.874 927.331 -434.817 930.979 -436.074C933.716 -437.018 936.635 -437.856 939.188 -438.904C940.283 -439.323 941.013 -440.057 941.925 -440.686C946.12 -440.686 950.499 -440.686 954.877 -440.686Z" fill="#FEEDE7"/>
<path d="M295.787 130.69C295.969 129.118 296.334 127.651 296.516 125.87C301.259 125.87 305.82 125.87 310.928 125.87C311.11 124.612 311.11 123.669 311.292 122.411C306.185 122.306 301.624 122.097 296.699 121.992C296.881 116.647 299.982 111.617 298.523 106.062C303.083 105.853 307.462 105.538 312.569 105.328C311.84 104.385 311.475 103.547 310.745 102.813C306.185 97.2588 299.617 92.4379 292.503 87.9315C288.307 85.2067 284.294 82.4818 280.281 79.757C278.639 78.709 276.997 77.9754 274.443 77.8706C271.524 77.7657 268.788 77.2418 265.869 77.2418C260.579 77.2418 258.937 74.9362 256.931 72.8401C255.106 70.8489 254.194 68.6481 251.458 66.8665C249.999 66.028 248.904 64.6656 248.904 63.5128C248.539 60.1592 244.526 57.644 242.884 54.6047C245.985 52.7183 250.546 53.0327 254.559 52.0895C255.471 50.7271 254.012 49.679 253.1 48.5263C250.546 45.2774 247.992 42.0286 247.08 38.4653C246.168 34.7973 247.627 31.4437 251.093 28.2997C251.823 27.566 252.188 26.6228 252.917 25.8892C258.025 21.3827 264.228 17.1907 271.524 13.7322C276.45 11.3218 279.733 8.38742 283.017 5.24341C285.206 3.04257 288.672 1.15613 291.591 -0.730286C294.145 -2.30231 296.881 -3.87433 299.435 -5.44632C306.732 -10.0576 313.846 -14.8784 321.143 -19.3849C324.427 -21.3761 328.075 -23.1577 331.906 -24.8345C335.555 -26.5114 337.561 -28.817 339.385 -31.1226C341.027 -33.2187 342.122 -35.5243 343.946 -37.5155C346.682 -40.45 350.513 -42.9651 355.256 -45.0612C360.546 -47.3668 366.566 -48.834 372.404 -50.6156C380.613 -53.0261 388.822 -55.6461 397.031 -58.2661C403.78 -60.3622 410.53 -62.563 417.28 -64.7638C424.212 -67.0695 430.961 -69.4799 437.893 -71.8903C438.805 -72.2047 439.9 -72.6239 440.63 -73.1479C443.366 -75.3487 445.92 -77.5495 448.474 -79.7504C453.581 -84.2568 459.601 -88.1345 468.175 -90.8593C473.465 -92.5361 478.026 -95.261 482.951 -97.357C488.424 -99.7674 493.897 -102.073 499.369 -104.274C503.2 -105.846 506.666 -107.523 509.585 -109.619C511.956 -111.4 511.409 -113.392 512.869 -115.488C508.126 -116.012 504.112 -116.536 499.917 -116.85C497.91 -116.955 496.815 -117.269 496.086 -118.422C495.356 -119.575 493.714 -120.518 492.255 -121.671C494.444 -122.09 496.633 -122.509 498.822 -122.824C505.024 -123.872 508.308 -126.596 511.227 -129.636C515.422 -133.933 512.504 -137.391 507.943 -140.745C503.747 -143.784 499.187 -146.718 493.349 -148.814C489.336 -150.282 485.14 -151.749 480.762 -152.797C467.993 -155.836 454.858 -157.618 440.994 -158.037C438.258 -158.142 436.434 -158.77 434.792 -160.238C439.717 -160.447 444.096 -160.552 449.021 -160.762C445.555 -164.744 442.089 -168.307 437.163 -171.242C431.691 -174.491 427.678 -178.368 422.935 -182.036C421.11 -183.504 419.104 -184.971 417.462 -186.543C416.367 -187.591 415.638 -188.744 414.543 -189.896C412.719 -191.888 411.077 -193.879 409.253 -195.87C407.429 -197.966 405.057 -199.957 403.598 -202.053C401.956 -204.569 400.314 -207.293 399.949 -210.018C399.585 -211.905 401.226 -213.896 402.139 -215.782C403.78 -218.926 404.692 -221.966 404.51 -225.319C404.328 -228.778 405.057 -232.341 405.604 -235.799C405.969 -237.686 406.334 -239.572 407.246 -241.354C407.976 -242.926 409.253 -244.498 410.712 -245.86C418.374 -252.882 426.583 -259.694 436.434 -265.877C445.19 -271.432 454.311 -276.881 463.25 -282.331C467.993 -285.265 472.918 -288.095 478.208 -290.82C483.681 -293.65 489.883 -296.06 495.356 -298.785C499.734 -300.986 503.747 -303.396 507.943 -305.702C513.781 -308.951 518.524 -312.619 523.084 -316.601C527.462 -320.374 533.3 -323.623 538.955 -326.872C544.063 -329.806 549.718 -332.426 554.826 -335.256C562.852 -339.762 571.973 -343.535 581.459 -346.889C589.851 -349.823 597.695 -353.177 606.086 -356.006C613.201 -358.417 619.221 -361.561 625.605 -364.495C628.342 -365.753 631.078 -367.01 633.814 -368.268C634.909 -368.792 635.456 -369.316 635.274 -370.364C634.909 -372.146 637.28 -373.403 640.017 -374.137C644.395 -375.185 648.955 -376.233 653.516 -377.071C660.813 -378.539 667.745 -380.425 674.494 -382.626C682.339 -385.246 690.73 -387.237 699.486 -388.39C716.999 -390.8 734.694 -393.106 752.206 -395.411C753.848 -395.621 755.125 -395.516 756.949 -395.202C759.685 -394.678 762.969 -394.887 766.07 -395.097C777.015 -395.831 787.961 -396.564 798.906 -397.403C813.865 -398.556 828.823 -399.918 843.782 -401.176C844.147 -401.176 844.694 -401.176 845.059 -401.28C845.606 -400.547 845.788 -399.918 844.511 -399.604C842.14 -398.975 839.768 -398.346 837.215 -398.032C812.588 -394.992 787.961 -392.163 763.334 -389.019C738.524 -385.77 714.81 -380.53 692.007 -374.242C688.541 -373.298 685.44 -372.146 681.791 -370.888C684.71 -368.792 683.615 -366.906 681.609 -365.229C680.332 -364.076 680.149 -362.818 681.244 -361.875C683.068 -359.989 682.339 -358.417 680.149 -357.054C676.683 -354.958 673.035 -352.967 668.474 -351.5C658.441 -348.251 648.773 -344.897 638.922 -341.544C636.915 -340.81 634.909 -339.867 633.085 -339.028C631.078 -338.19 629.254 -337.98 627.247 -338.819C623.416 -340.391 619.403 -341.858 614.842 -343.64C611.741 -342.382 607.728 -341.02 604.444 -339.343C595.688 -334.836 587.114 -330.225 578.54 -325.509C574.345 -323.203 570.331 -320.793 566.683 -318.278C563.764 -316.287 561.94 -313.771 559.021 -311.675C555.738 -309.265 551.907 -307.064 548.258 -304.863C547.164 -304.234 545.704 -303.71 544.792 -302.977C540.414 -299.728 534.577 -297.527 529.104 -295.117C522.537 -292.287 516.699 -289.038 511.044 -285.789C503.565 -281.493 496.451 -277.091 489.519 -272.689C480.945 -267.135 472.371 -261.476 464.162 -255.816C459.054 -252.358 455.223 -248.585 451.392 -244.603C449.933 -243.135 448.291 -241.668 447.926 -240.096C447.562 -238.629 447.744 -237.057 447.379 -235.59C447.197 -234.332 446.649 -233.179 446.467 -231.922C446.285 -229.721 446.102 -227.415 446.285 -225.214C446.832 -221.756 445.92 -218.612 443.548 -215.468C440.63 -211.59 441.542 -207.713 444.096 -203.835C448.656 -196.918 455.041 -190.525 461.79 -184.237C468.175 -178.368 475.837 -173.233 483.499 -167.888C485.688 -166.316 487.147 -164.535 489.154 -162.753C494.262 -162.962 499.369 -163.172 504.295 -163.486C507.761 -163.696 511.409 -164.535 514.51 -164.115C517.429 -163.591 519.801 -161.81 523.084 -160.342C513.416 -159.923 504.477 -159.504 494.444 -159.085C496.998 -157.932 498.64 -156.989 500.464 -156.36C505.754 -154.474 511.044 -152.482 516.517 -150.701C524.361 -148.29 529.834 -144.622 534.759 -140.43C539.685 -136.343 542.056 -131.837 544.245 -127.121C545.34 -124.71 547.711 -122.614 550.63 -120.832C551.177 -120.518 552.089 -120.204 552.819 -120.099C559.386 -119.365 565.953 -118.736 572.521 -118.003C576.899 -117.584 581.277 -117.06 586.385 -116.431C584.195 -114.02 582.371 -111.82 580.182 -109.828C578.358 -108.151 577.263 -108.151 573.797 -108.675C567.595 -109.514 561.393 -110.352 555.19 -111.086C554.278 -111.191 552.637 -110.981 552.272 -110.667C547.346 -106.475 539.685 -104.274 532.935 -101.444C529.651 -100.082 526.368 -98.7194 523.449 -97.1474C518.159 -94.3177 512.321 -92.0121 506.301 -89.9161C502.835 -88.6585 499.552 -86.9817 496.815 -85.2C492.62 -82.58 488.242 -79.8552 485.505 -76.7111C482.404 -73.1479 477.479 -71.2615 471.641 -69.5847C467.081 -68.2223 462.885 -66.231 458.324 -64.7638C443.731 -60.0478 428.955 -55.4365 414.178 -50.93C407.976 -49.0436 401.409 -47.5764 395.936 -45.0612C390.646 -42.6508 386.268 -39.9259 384.079 -36.1531C382.802 -33.8474 380.978 -31.6466 379.336 -29.4458C377.512 -26.9306 373.681 -25.2538 370.215 -23.5769C363.647 -20.3281 357.81 -16.7649 352.52 -12.7824C349.966 -10.7912 346.865 -9.00961 343.764 -7.228C338.838 -4.18875 333.548 -1.2543 328.622 1.78494C326.981 2.72812 325.521 3.77612 324.609 4.92896C320.778 9.22583 315.123 12.6842 308.921 15.8283C306.002 17.2955 303.083 18.8675 300.712 20.6491C296.516 23.7932 292.321 27.042 289.767 30.8149C287.395 34.1685 287.03 37.6269 289.037 41.0854C289.767 42.4478 290.679 43.915 291.591 45.2774C293.05 47.3734 294.145 47.7927 298.158 47.3734C304.178 46.8494 310.198 46.2206 316.4 45.6966C318.589 45.487 320.231 45.6966 321.326 47.0591C324.792 51.0415 328.622 54.9191 332.089 58.9016C335.007 62.2552 337.744 65.6089 340.297 69.0673C343.399 73.3641 347.594 77.3466 352.155 81.2242C353.614 82.4819 355.439 83.6346 357.81 85.3115C346.865 84.2635 337.014 83.3203 326.433 82.2722C327.163 83.1107 327.528 83.6346 328.075 83.949C331.906 86.4643 335.555 89.0843 339.385 91.5995C343.763 94.4291 347.594 97.4684 350.513 100.927C351.79 102.394 353.432 103.128 356.351 102.708C361.094 102.184 365.837 101.87 370.579 101.346C372.039 101.241 373.498 100.927 374.958 100.822C376.964 100.822 378.971 100.927 380.065 102.289C381.525 104.071 383.531 105.748 384.991 107.529C385.538 108.158 385.538 108.997 385.356 109.73C384.079 113.922 382.619 118.009 381.16 122.201C380.978 122.725 380.248 123.249 379.518 123.564C377.694 124.193 377.512 124.612 379.336 125.346C380.065 125.66 380.795 126.184 380.978 126.603C381.707 129.014 382.437 131.529 382.984 134.149C372.769 134.149 362.553 134.149 351.972 134.149C349.966 137.083 347.777 140.018 345.77 143.057C342.851 147.459 339.75 151.86 337.014 156.367C334.642 160.349 332.271 164.227 330.629 168.314C329.535 170.934 330.082 173.764 331.724 176.698C341.757 176.174 351.973 175.545 362.553 175.021C361.641 177.537 360.729 179.737 360.364 181.938C359.999 183.51 358.357 184.244 355.986 184.558C353.797 184.873 351.79 184.977 349.601 185.187C343.216 185.816 337.014 186.235 330.629 186.969C328.805 187.178 327.163 188.017 325.521 188.855C320.778 191.161 316.218 193.676 311.475 195.982C309.103 197.134 306.185 198.078 303.631 199.23C302.719 199.65 301.989 200.069 300.712 200.698C307.279 201.641 313.481 202.479 320.231 203.422C318.772 204.156 317.86 204.575 316.948 205.099C312.387 207.3 307.644 209.396 303.266 211.807C301.259 212.855 299.617 212.959 297.428 212.54C291.773 211.597 285.936 210.758 280.281 209.815C277.909 209.396 276.267 209.71 274.261 210.549C268.058 213.379 262.586 216.523 258.025 220.295C255.107 222.706 251.823 224.907 248.539 227.107C243.614 230.566 240.878 234.548 239.236 238.845C238.141 241.78 237.229 244.714 235.952 247.648C234.675 250.478 233.216 253.203 231.939 256.033C231.209 257.814 230.48 259.596 229.567 261.692C240.513 261.587 250.911 260.434 261.674 260.12C259.667 263.264 258.025 266.094 255.836 269.342C247.08 269.762 237.959 270.181 228.655 270.6C228.655 273.115 228.655 275.211 228.655 277.412C228.838 279.822 229.02 282.233 229.203 284.643C229.567 289.15 229.932 293.656 230.115 298.163C230.48 302.984 230.48 307.804 231.027 312.625C231.209 315.35 231.392 318.18 232.486 320.8C234.493 326.145 241.972 328.031 251.093 327.402C253.465 327.297 255.654 326.983 257.843 326.564C260.032 326.249 262.221 325.725 264.775 325.201C264.592 326.878 264.228 328.45 264.045 330.127C253.83 336.206 240.878 339.245 226.284 340.083C219.534 340.502 212.602 339.978 206.582 337.987C202.569 336.73 198.738 335.262 196.731 332.957C194.907 330.861 193.813 328.345 193.448 326.04C192.536 317.97 192.171 309.9 191.624 301.831C191.076 292.818 190.529 283.805 189.982 274.792C189.799 272.486 189.617 272.382 185.604 272.382C181.955 272.486 178.307 272.591 174.294 272.801C174.294 271.124 174.294 269.762 174.294 268.085C177.577 267.142 181.043 266.094 184.509 265.15C189.982 263.683 194.542 261.482 198.738 259.072C203.664 256.242 207.312 252.889 209.501 249.011C211.69 244.819 214.244 240.836 216.615 236.644C216.798 236.225 217.163 235.806 217.345 235.492C218.805 230.671 222.635 226.583 227.378 222.601C231.027 219.457 234.858 216.418 238.324 213.274C239.965 211.807 241.242 210.234 242.884 208.767C245.438 206.357 244.891 203.842 243.431 201.117C247.08 199.545 250.728 197.658 254.924 196.296C262.768 193.676 268.423 189.798 274.078 185.921C275.173 185.082 276.815 184.349 278.456 183.929C285.753 181.729 292.321 179.004 297.793 175.44C301.077 173.24 303.631 170.515 306.002 167.895C309.651 163.912 312.752 159.825 316.218 155.843C319.319 152.489 321.508 148.926 322.785 145.258C324.244 141.485 322.42 138.341 316.583 136.14C312.022 134.358 307.279 133.101 302.171 132.053C299.253 131.424 297.611 131.11 295.787 130.69ZM373.133 124.193C372.039 123.773 371.309 123.25 370.944 123.354C368.938 123.669 366.931 123.459 365.107 122.935C364.742 122.83 363.83 123.145 363.283 123.25C362.735 123.354 362.188 123.459 361.823 123.354C359.087 122.726 356.168 123.25 352.885 122.83C352.885 123.773 352.702 124.612 352.702 125.45C353.979 125.45 354.891 125.45 355.803 125.45C358.175 125.346 360.911 124.717 362.735 125.241C365.107 125.765 366.566 125.555 368.39 125.031C368.573 124.926 369.12 124.926 369.303 124.926C371.127 126.184 371.492 124.822 373.133 124.193ZM374.046 123.04C373.133 124.088 372.951 124.821 374.228 125.66C376.235 124.717 376.599 123.878 374.046 123.04Z" fill="#FEEDE7"/>
<path d="M719.005 114.761C717.363 117.695 715.539 120.42 714.445 123.145C713.35 126.079 713.715 129.118 714.627 131.948C715.539 135.092 713.35 137.817 712.438 140.751C706.965 141.171 701.675 140.332 696.567 140.123C692.736 139.913 688.905 139.703 684.892 139.599C681.791 139.494 681.426 139.808 680.514 141.59C679.602 143.267 678.69 144.943 677.595 146.935C679.784 146.935 681.974 147.144 683.98 147.039C690.547 146.515 696.932 145.991 703.317 145.048C705.506 144.734 707.513 144.21 710.249 144.419C709.884 145.153 709.884 145.887 709.337 146.515C706.783 149.345 704.047 152.175 701.493 155.004C700.216 156.367 699.121 157.624 698.209 158.987C697.479 159.93 696.567 160.244 694.925 160.349C687.811 160.873 680.697 161.397 673.582 161.921C668.839 162.236 667.562 162.655 666.832 165.38C665.92 168.733 665.191 171.982 666.468 175.441C667.38 177.746 667.015 180.261 666.832 182.567C666.65 185.187 663.731 187.178 660.63 189.065C653.881 192.942 646.584 196.401 638.74 199.545C628.341 203.737 617.761 207.929 607.728 212.331C603.532 214.217 600.066 216.627 596.783 218.933C591.857 222.287 587.297 225.745 582.554 229.099C582.189 229.308 581.641 229.518 581.459 229.832C579.088 233.605 575.074 237.169 574.709 241.256C574.709 241.465 574.892 241.885 574.527 241.989C571.426 243.876 572.885 246.391 571.973 248.592C571.791 249.116 571.608 249.64 571.243 250.059C568.507 252.784 567.595 255.823 565.953 258.653C563.217 263.369 562.67 268.19 563.582 273.115C564.129 275.526 563.582 277.936 563.764 280.347C563.947 283.281 564.311 286.215 564.494 289.15C564.859 292.399 564.859 295.543 565.406 298.792C565.771 301.412 566.318 304.032 568.872 306.442C570.514 308.119 572.885 309.167 575.986 309.796C582.006 311.053 588.026 310.424 593.864 309.481C595.506 309.167 597.147 308.852 599.519 308.433C599.154 310.215 598.972 311.787 598.424 313.254C598.242 313.673 597.33 313.988 596.6 314.302C586.749 318.494 575.804 321.324 563.582 322.162C555.738 322.686 547.711 322.477 540.414 320.485C532.023 318.285 528.192 313.988 527.097 308.957C526.185 304.975 525.456 300.992 525.091 297.115C524.543 291.77 524.543 286.425 524.179 281.08C523.996 277.936 523.449 274.792 523.084 271.648C522.902 269.552 522.719 267.456 523.267 265.36C524.544 260.33 526.185 255.509 530.199 250.897C531.658 249.116 531.658 246.915 532.57 244.924C533.482 243.037 534.759 241.151 535.489 239.264C535.854 238.321 535.489 237.273 536.036 236.435C538.772 232.033 542.786 228.051 548.076 224.488C550.265 223.02 552.636 221.763 554.826 220.4C555.008 220.295 555.19 220.191 555.373 219.981C556.467 218.095 559.386 217.047 561.575 215.579C567.23 211.807 574.527 209.082 581.459 206.357C586.02 204.575 590.58 202.794 595.141 200.907C601.708 198.078 608.458 195.248 614.842 192.209C619.403 190.008 623.781 187.807 625.97 184.349C627.065 182.567 627.065 180.89 626.882 179.109C626.7 176.593 625.97 174.183 625.605 171.668C625.423 170.41 625.788 169.048 626.152 167.79C626.335 167.161 626.517 166.532 626.7 165.484C621.592 165.904 616.666 166.218 611.011 166.637C612.106 164.122 612.836 161.816 613.93 159.616C614.113 159.092 615.572 158.672 616.667 158.358C625.605 155.633 633.084 151.965 639.469 147.354C641.293 146.096 642.57 144.524 643.847 143.057C645.489 141.066 642.388 137.293 638.192 135.826C635.638 134.987 633.084 134.254 630.531 133.52C631.078 128.175 631.625 122.83 632.355 117.381C641.841 115.914 650.232 113.503 654.245 107.529C653.151 106.481 652.056 105.119 650.232 104.176C646.948 102.394 645.489 100.193 644.212 97.7829C643.118 95.7917 641.293 93.6956 638.922 92.1236C634.544 89.1891 631.99 85.6259 628.341 82.4819C624.875 79.5475 623.051 76.2986 621.045 72.945C619.038 69.801 615.39 67.0761 613.383 63.9321C610.829 60.1593 606.998 56.8056 603.167 53.5568C598.607 49.784 593.316 46.3255 587.479 43.1815C582.736 40.5614 576.351 39.4087 569.784 38.675C569.054 38.5703 568.325 38.4654 567.777 38.3606C567.595 38.151 567.413 38.0462 567.413 37.8366C567.413 34.483 567.413 34.4829 573.433 34.1685C576.534 34.0638 579.817 33.959 583.101 33.8542C583.648 33.3301 584.378 32.911 584.56 32.387C586.202 27.7757 591.128 24.1076 596.235 20.6492C601.161 17.4004 606.633 14.5707 612.653 12.0555C616.302 10.4835 618.673 8.17786 620.862 5.97705C623.416 3.56662 625.97 1.26102 630.166 -0.520599C633.632 -1.98782 636.55 -3.87424 639.469 -5.76065C640.016 -6.17984 639.834 -6.91348 640.017 -7.3327C636.733 -8.38071 632.537 -7.96152 631.26 -10.2672C632.355 -11.1056 633.267 -11.8391 634.179 -12.5728C635.273 -13.5159 636.368 -14.564 637.463 -15.5072C640.016 -17.708 643.483 -18.756 648.225 -18.9656C651.327 -19.0704 654.428 -19.5945 657.347 -20.1184C661.177 -20.7473 663.366 -22.6336 666.103 -24.1009C671.393 -26.7209 673.582 -30.4937 676.501 -34.057C678.872 -36.9914 681.061 -40.0306 684.527 -42.4411C688.723 -45.3755 694.378 -47.5764 700.581 -49.2532C710.066 -51.8732 719.188 -54.7028 728.673 -57.4276C730.68 -57.9517 732.504 -58.5805 734.511 -59.2093C735.788 -59.6285 736.882 -60.0477 737.795 -60.8861C734.511 -60.9909 731.045 -61.2005 727.761 -61.3053C727.761 -61.6197 727.761 -61.8293 727.944 -61.9341C734.511 -63.8205 740.713 -66.231 748.193 -67.0694C756.584 -67.9078 764.063 -70.423 771.725 -72.4142C777.927 -73.9863 783.765 -75.7679 788.873 -78.2831C792.156 -79.9599 795.257 -81.7415 798.359 -83.4184C800 -84.3616 800.73 -85.6192 800.183 -86.8768C799.271 -89.1824 801.46 -90.1256 804.743 -91.0688C815.689 -94.2129 827.364 -96.3089 838.856 -98.929C844.511 -100.187 850.349 -101.444 856.004 -102.807C858.923 -103.54 861.477 -103.54 864.578 -102.492C863.848 -102.178 863.301 -101.968 862.753 -101.863C852.173 -99.7673 842.505 -96.7281 833.019 -93.4793C829.553 -92.3265 826.087 -90.5449 823.715 -88.6584C818.972 -84.8856 814.777 -80.9031 810.581 -76.8159C808.027 -74.3007 804.926 -72.2047 800.365 -70.8422C797.629 -70.0038 795.075 -69.0606 792.521 -68.0126C791.791 -67.6982 791.244 -67.0694 791.244 -66.6501C791.244 -66.3358 792.339 -65.9166 793.251 -65.8118C797.082 -65.3925 801.095 -65.183 804.926 -64.8686C806.568 -64.7638 808.209 -64.5542 809.851 -64.3446C809.851 -64.135 810.034 -64.0302 810.034 -63.8206C808.574 -63.1917 806.932 -62.6677 805.656 -62.0389C800.548 -59.5237 794.71 -58.7901 788.143 -59.6285C787.778 -59.7333 787.231 -59.6285 786.866 -59.6285C779.204 -60.2573 772.637 -59.2093 766.07 -56.694C758.955 -53.9692 751.111 -51.8732 743.267 -49.882C733.781 -47.4716 726.302 -43.8035 720.647 -38.8778C718.093 -36.677 716.451 -34.057 714.992 -31.5418C713.897 -29.5506 712.62 -27.6642 710.067 -26.0921C709.519 -25.7777 709.337 -25.2537 708.607 -24.5201C718.093 -24.8345 727.214 -25.0441 736.882 -25.3585C734.876 -23.4721 733.052 -21.9001 731.227 -20.3281C730.863 -20.0136 730.315 -19.804 730.133 -19.5945C729.221 -17.0792 725.937 -16.3456 722.106 -16.3456C718.823 -16.3456 716.816 -14.8784 714.08 -14.1447C712.62 -13.7256 713.168 -11.1056 714.81 -10.5815C715.357 -10.3719 716.086 -10.1623 716.451 -9.84793C716.816 -9.74313 716.998 -9.42871 717.363 -9.11432C715.174 -7.22791 711.708 -5.97031 708.972 -4.39828C703.499 -1.14944 696.385 1.26102 692.189 5.24347C691.095 6.18668 689.635 7.12982 688.358 7.96823C687.264 8.59705 686.169 8.80667 684.527 8.49228C677.778 7.23465 671.211 6.18668 664.096 5.03387C662.454 6.29147 660.63 7.54907 658.806 8.80667C656.434 10.1691 654.063 11.5315 651.509 12.7891C643.3 17.086 635.091 21.5924 629.254 27.1469C628.159 28.1949 627.612 29.3477 626.335 31.0245C636.733 30.0813 646.219 29.3477 656.252 28.4045C653.151 31.5485 654.428 34.3782 655.157 37.5222C644.942 38.2558 634.726 38.2558 624.146 39.3038C626.152 42.3431 627.794 45.1727 629.801 47.8976C634.726 54.5 639.652 60.9977 644.759 67.4953C647.496 70.9538 650.415 74.4122 653.881 77.6611C657.711 81.2243 662.819 84.3683 668.292 87.3028C671.94 89.294 675.589 91.39 678.872 93.6956C683.25 96.63 685.622 100.298 688.541 103.757C689.088 104.385 689.818 105.014 690.182 105.748C690.547 106.481 691.095 107.215 690.912 107.844C690.73 109.625 690.182 111.512 689.635 113.608C698.391 114.656 708.607 114.446 719.005 114.761Z" fill="#FEEDE7"/>
<path d="M492.62 -21.3761C493.532 -22.8433 494.079 -23.7865 494.809 -24.7297C497.181 -27.9785 497.545 -31.0178 493.897 -34.1618C489.884 -37.4106 489.701 -37.6202 484.046 -35.3146C481.31 -34.1618 478.574 -32.9042 476.02 -31.6466C475.472 -31.3322 475.29 -30.7034 474.925 -30.2841C472.371 -27.1401 467.263 -25.4633 462.885 -23.3673C457.23 -20.5377 452.487 -17.184 447.744 -13.9352C445.008 -11.944 442.089 -10.0575 439.17 -8.17111C435.704 -5.97028 432.056 -3.76947 428.225 -1.77826C423.117 0.841766 419.651 3.88104 416.55 7.33948C414.908 9.22589 411.99 11.0075 409.071 12.3699C400.315 16.3524 393.2 21.0684 387.18 26.5181C384.809 28.6141 383.349 30.7101 382.255 33.0157C385.721 36.2646 391.011 36.6838 396.666 35.9502C399.22 35.6358 401.592 34.9022 403.963 34.3781C407.429 33.6446 411.077 32.9109 414.543 32.1773C420.381 30.9197 425.306 32.1773 429.32 34.2734C432.421 35.9502 435.157 37.9414 437.711 39.9326C438.623 40.5614 438.988 41.7143 438.623 42.4479C437.346 46.0111 437.529 49.4695 438.441 52.928C438.988 55.1288 438.806 57.3296 438.441 59.5304C438.076 61.8361 438.441 63.8273 440.447 65.9233C444.278 69.5914 449.204 72.6306 454.494 75.565C459.237 78.2899 465.074 80.4907 470.365 82.9011C474.013 84.5779 477.844 86.2548 481.128 88.3508C483.681 89.9228 485.506 91.8092 488.789 92.962C490.431 93.486 491.161 94.9532 492.073 96.1061C493.167 97.1541 493.897 98.3069 494.992 99.3549C495.539 99.9837 496.268 100.612 496.998 101.241C499.005 103.233 498.64 105.329 497.728 107.425C496.086 110.988 496.633 114.446 501.194 117.381C503.201 118.743 502.653 120.315 501.924 121.678C501.011 123.669 500.829 125.45 501.559 127.442C502.106 128.699 501.194 129.747 499.552 130.795C490.613 136.035 479.85 137.083 467.993 135.511C462.338 134.778 458.142 132.682 454.859 130.062C453.582 129.014 452.487 127.966 451.393 126.813C449.751 124.926 450.116 123.04 451.94 121.363C454.494 119.057 457.413 116.857 460.149 114.656C462.703 112.56 463.068 110.254 461.973 107.844C461.608 107.215 460.149 106.796 459.419 106.272C455.953 103.652 452.67 101.032 449.386 98.4116C447.015 96.5252 444.461 94.6388 442.089 92.8572C435.887 88.3507 429.867 83.7396 427.313 78.0803C427.131 77.6611 426.583 77.0322 426.948 76.7178C427.86 75.9843 426.948 75.7746 426.218 75.2506C425.489 74.7266 424.029 74.0978 426.036 73.4689C426.218 73.4689 426.218 73.0498 426.036 72.8402C423.665 70.325 423.847 67.3906 421.84 64.8753C420.563 63.1985 418.557 61.5216 416.55 60.0544C415.273 59.1112 414.361 57.8537 411.99 57.644C409.983 55.3384 406.335 53.8712 403.598 51.88C398.49 48.2119 393.2 44.6487 387.727 41.0854C385.538 39.723 382.984 38.5702 380.613 37.4174C380.431 37.5222 380.066 37.627 380.066 37.7318C381.343 40.7711 382.437 43.9151 385.174 46.6399C386.451 47.7927 386.815 49.2599 388.092 50.4127C393.383 55.9672 396.849 61.9409 401.591 67.6001C405.787 72.7354 410.53 77.6611 417.097 81.9579C422.935 85.7307 428.955 89.5036 434.427 93.486C437.711 95.7917 440.447 98.4117 442.636 101.137C443.913 102.709 446.65 103.861 446.65 105.853C446.65 108.577 448.109 111.197 446.285 114.027C445.19 115.913 445.19 118.009 444.826 120.105C444.461 124.298 444.096 128.49 443.731 132.682C443.731 133.52 443.001 134.463 442.636 135.511C441.177 135.511 439.718 135.511 438.258 135.302C423.117 133.52 408.159 131.738 393.018 129.852C391.193 129.642 389.369 129.433 390.281 127.966C392.106 125.136 391.193 122.306 391.011 119.477C390.829 116.857 391.011 116.857 395.207 115.913C397.761 115.389 400.497 115.075 402.686 114.237C404.693 113.503 407.429 112.874 407.611 111.197C403.598 109.206 399.22 107.844 394.295 107.005C393.383 106.901 392.653 106.062 392.106 105.538C390.646 103.757 389.187 101.87 388.092 99.9836C386.815 97.8876 384.626 96.106 382.255 94.4292C378.059 91.5995 374.228 88.6652 370.215 85.9404C367.296 84.054 363.648 82.5867 360.911 80.4907C359.634 79.4426 358.175 78.3947 356.898 77.4515C360.547 76.0891 363.83 74.8314 367.296 73.4689C366.202 70.9537 370.215 69.9058 371.857 67.9146C371.492 67.1809 370.762 66.2377 370.215 65.1897C371.31 65.1897 372.586 65.0849 374.593 64.9801C372.222 64.0369 372.769 61.8361 368.756 62.9889C367.479 60.9977 364.742 60.0544 361.641 59.3209C357.263 58.3776 353.067 56.9104 348.689 55.9672C345.041 55.2336 341.392 54.1856 337.744 53.3472C336.649 53.1375 335.737 52.5088 335.008 51.88C332.818 49.8887 330.812 47.7927 330.082 45.3823C329.9 44.5439 329.17 43.8102 328.805 43.0767C331.542 41.9238 334.095 40.7711 336.832 39.723C339.021 38.7798 340.115 37.5222 340.115 36.055C340.298 29.7669 346.5 25.1557 352.702 20.5444C357.081 17.1908 362.371 14.3611 368.208 11.7411C372.404 9.85468 374.958 7.23468 377.512 4.61465C378.971 3.04263 381.16 1.68021 383.532 0.422607C388.457 -2.40701 393.2 -5.1319 397.578 -8.27591C403.598 -12.5728 409.983 -16.8696 416.55 -20.9568C419.834 -23.0529 423.665 -24.8345 427.495 -26.7209C430.597 -28.1881 431.509 -30.2841 432.968 -32.1706C434.427 -34.1618 435.34 -36.2578 436.981 -38.1443C438.441 -39.8211 440.447 -41.3931 442.636 -42.8603C447.562 -46.0043 453.764 -48.2052 460.331 -49.9868C469.088 -52.502 477.844 -54.9124 486.418 -57.5325C498.093 -61.2005 509.585 -65.183 521.078 -69.0606C523.997 -70.0038 526.915 -70.947 529.834 -71.7854C533.118 -72.7286 535.307 -74.3006 537.496 -76.0823C543.151 -80.9031 548.624 -85.8288 556.468 -89.6016C557.38 -90.0208 558.474 -90.3352 559.386 -90.6496C566.501 -93.0601 573.251 -95.4705 576.169 -100.187C576.717 -101.025 578.358 -101.654 579.453 -102.492C580 -102.911 580.912 -103.226 581.095 -103.645C581.642 -106.894 587.479 -108.256 589.486 -110.981C589.851 -111.505 592.222 -111.715 593.682 -111.715C603.715 -111.924 613.748 -112.134 623.781 -112.343C629.801 -112.448 635.639 -112.553 641.659 -112.658C643.118 -112.658 644.395 -112.553 646.219 -112.343C644.395 -110.247 642.571 -108.675 639.47 -107.523C634.727 -105.741 629.984 -103.959 625.606 -101.968C619.038 -99.1385 612.654 -96.0993 606.086 -93.1649C604.627 -92.536 602.985 -92.012 601.708 -91.1736C602.803 -91.3832 603.897 -91.5929 604.81 -91.8025C608.64 -93.0601 612.654 -94.3177 616.484 -95.6801C625.97 -99.0337 636.004 -101.968 646.219 -104.274C650.78 -105.322 655.158 -106.475 659.901 -107.313C664.461 -108.151 669.022 -109.095 673.947 -108.151C677.231 -107.523 678.508 -106.265 677.231 -104.379C677.049 -104.169 676.866 -103.959 676.684 -103.75C673.765 -101.444 671.394 -99.0338 669.934 -96.3089C669.569 -95.6801 668.292 -95.0513 667.38 -94.6321C664.461 -93.4793 661.725 -92.2217 658.442 -91.4881C653.699 -90.4401 650.597 -88.4488 647.496 -86.248C642.206 -82.4752 636.733 -78.8071 631.078 -75.2439C627.977 -73.3575 624.329 -71.7854 620.315 -70.6326C616.849 -69.5846 613.566 -68.4318 610.1 -67.1742C605.174 -65.4973 600.249 -63.9254 594.959 -62.6677C586.932 -60.7813 579.088 -58.4757 571.426 -56.2749C563.4 -53.9692 555.191 -51.7684 547.164 -49.2532C538.225 -46.5284 531.111 -42.7555 526.733 -37.4106C525.274 -35.5242 522.537 -34.057 519.618 -32.7994C517.977 -32.0658 516.517 -31.0178 515.605 -29.8649C512.139 -25.6729 505.572 -23.7865 498.822 -22.1097C497.181 -21.3761 495.356 -21.5857 492.62 -21.3761ZM555.008 -61.9341C554.826 -62.1437 554.461 -62.3533 554.279 -62.5629C549.901 -61.6197 545.34 -60.6765 541.144 -59.5237C536.036 -58.2661 531.293 -56.6941 526.186 -55.3316C517.429 -53.026 508.673 -50.8252 500.829 -47.5764C498.458 -46.5284 495.904 -45.4803 493.897 -44.2227C492.438 -43.2795 491.343 -42.0219 492.62 -40.6595C493.35 -40.7643 494.079 -40.8691 494.809 -40.9739C495.539 -41.1835 496.451 -41.2883 496.998 -41.6027C504.842 -45.0611 513.416 -47.4716 522.537 -49.4628C532.753 -51.6636 542.604 -54.2836 550.265 -59.1045C551.907 -60.2573 553.549 -61.0957 555.008 -61.9341ZM566.683 -66.1262C570.332 -66.9646 573.615 -67.6982 576.717 -68.5366C580.912 -69.5846 585.108 -70.8422 589.304 -71.995C590.763 -72.4142 591.858 -73.1478 591.128 -73.9862C590.581 -74.5103 588.574 -75.0342 587.479 -74.9294C585.29 -74.7198 582.919 -74.1959 581.095 -73.4622C575.987 -71.2614 570.697 -69.4798 566.683 -66.1262ZM486.783 111.617H486.965C486.965 111.302 486.965 110.988 486.965 110.673C486.965 110.673 486.965 110.673 486.783 110.673C486.783 110.988 486.783 111.302 486.783 111.617Z" fill="#FEEDE7"/>
<path d="M745.274 314.197C742.72 313.464 740.531 312.94 738.524 312.416C732.14 310.844 728.491 308.328 727.761 304.136C727.032 300.259 728.491 297.01 732.14 293.761C735.606 290.512 740.531 288.521 746.004 286.844C747.463 286.32 748.922 285.796 750.564 285.272C746.186 283.7 741.99 282.233 737.795 280.661C736.153 280.032 734.511 279.194 733.417 278.25C730.863 276.154 727.579 274.268 725.937 271.648C724.66 269.552 723.748 267.561 724.295 265.36C725.025 262.635 725.755 259.91 727.397 257.185C729.586 253.622 731.957 250.059 734.511 246.601C735.058 245.762 734.876 244.714 735.241 243.771C736.7 238.531 740.531 233.71 746.369 229.623C749.835 227.107 753.665 224.592 759.138 223.125C762.057 222.287 764.793 221.029 767.165 219.771C770.995 217.675 775.738 216.732 780.299 215.579C784.86 214.427 789.785 213.693 794.893 212.645C794.71 212.016 794.528 211.283 794.163 210.549C792.886 207.929 793.798 206.252 798.176 204.68C802.737 203.003 807.297 201.326 812.04 199.859C817.878 197.973 823.715 196.086 829.553 194.41C835.39 192.733 841.41 191.161 847.795 189.379C845.241 187.388 842.87 185.397 840.498 183.51C837.215 180.89 833.566 178.27 830.465 175.441C826.452 171.877 826.269 168.104 829.37 164.122C833.019 159.616 837.579 155.528 843.599 151.965C848.16 149.24 852.538 146.306 857.281 143.581C860.929 141.485 860.565 138.865 860.2 136.35C860.017 134.778 858.74 133.311 858.193 131.739C857.646 130.167 856.916 128.49 857.099 126.813C857.463 124.193 860.017 122.202 863.666 120.63C873.881 116.333 885.374 114.761 897.779 114.656C907.082 114.551 916.386 115.075 925.324 116.857C928.608 117.486 932.074 117.695 935.722 117.695C946.485 117.695 957.248 117.695 968.558 117.695C968.193 118.534 968.011 119.057 967.646 119.582C965.64 122.935 964.91 126.498 964.91 129.957C964.91 134.149 962.721 137.817 959.984 141.59C955.242 148.297 957.613 146.515 946.12 147.354C943.019 147.563 940.101 147.668 936.999 147.878C936.27 147.983 935.358 148.192 934.628 148.402C935.175 150.183 935.905 151.86 936.452 153.537C937.364 155.843 936.999 158.148 936.087 160.454C935.175 162.655 934.993 164.96 933.716 167.056C929.885 172.611 924.412 177.641 916.203 181.414C910.548 184.139 903.981 186.026 897.049 187.283C889.935 188.646 882.638 189.903 875.341 190.637C867.862 191.37 860.2 191.79 851.626 190.427C841.41 194.619 830.647 199.23 819.52 203.842C817.695 204.575 815.506 205.204 813.682 206.042C810.946 207.3 808.392 208.558 805.838 209.92C805.291 210.235 805.291 210.759 804.926 211.387C805.838 211.492 806.385 211.597 806.933 211.597C811.858 211.597 816.783 211.597 821.709 211.597C828.094 211.702 833.384 213.169 838.309 215.475C841.045 216.837 842.505 218.723 842.687 220.715C843.052 223.23 842.322 225.745 841.958 228.156C841.41 231.719 840.863 235.387 840.133 238.95C839.039 243.352 840.133 247.858 837.032 252.155C835.026 254.985 834.296 258.129 832.836 261.063C831.377 263.997 830.1 267.037 828.093 269.762C824.08 275.002 817.331 278.774 808.757 281.604C799.636 284.643 789.785 286.32 779.387 286.739C773.732 286.949 768.077 286.635 762.604 286.425C760.962 286.425 759.138 285.587 757.679 286.635C755.854 287.787 754.395 289.045 754.395 290.617C754.578 292.294 755.854 293.761 758.591 294.39C760.597 294.914 762.786 295.333 764.793 295.333C770.813 295.438 777.015 295.438 783.035 295.228C793.981 294.914 804.926 293.971 816.054 294.495C823.351 294.914 830.647 295.543 836.85 297.848C843.235 300.259 847.248 303.508 847.978 308.014C849.072 314.616 844.511 319.752 836.667 324.153C827.364 329.393 816.054 333.166 803.831 335.681C792.886 337.882 781.576 339.245 769.719 339.35C762.786 339.454 755.854 339.35 748.922 338.721C741.625 338.092 734.876 336.73 729.038 334.11C723.383 331.49 720.647 327.717 722.836 323.944C724.66 320.695 728.856 318.494 733.964 316.922C737.43 316.188 740.896 315.35 745.274 314.197ZM818.06 220.715C817.695 219.143 816.966 218.409 814.594 218.304C812.77 218.199 810.763 218.409 809.122 218.828C805.838 219.667 802.554 220.715 799.636 221.763C796.535 222.915 793.433 224.068 790.697 225.536C788.508 226.584 787.049 228.051 785.042 229.204C781.211 231.404 778.84 234.129 777.198 237.064C775.009 241.046 772.455 244.924 770.448 249.011C768.259 253.413 764.611 257.605 762.786 262.216C761.327 265.989 761.692 269.447 764.063 273.01C766.07 276.05 768.624 278.984 773.914 280.871C777.745 282.128 781.211 281.814 784.495 280.661C788.326 279.298 789.967 276.888 791.427 274.582C793.251 271.543 793.616 268.294 794.71 265.046C795.805 261.797 796.899 258.548 799.088 255.404C801.825 251.736 803.831 247.963 804.926 244.085C806.568 238.216 808.574 232.452 813.317 227.108C815.506 225.012 816.601 222.811 818.06 220.715ZM889.205 134.568C889.57 138.76 887.563 142.533 882.638 145.572C877.165 149.031 872.969 152.803 869.503 156.996C866.767 160.349 865.125 163.703 864.943 167.266C864.943 168.314 864.578 169.467 864.943 170.515C866.402 174.917 869.868 178.794 874.976 182.148C876.8 183.405 879.172 184.244 882.273 184.034C887.198 183.615 891.211 182.253 893.948 179.737C896.319 177.641 896.867 175.231 897.596 172.82C899.056 167.476 900.333 162.131 901.974 156.786C903.251 152.908 903.616 149.135 902.157 145.363C901.245 142.952 901.792 140.856 903.981 138.865C904.711 138.236 905.076 137.503 905.988 136.874C909.636 134.044 910.731 130.795 910.913 127.442C911.096 125.87 910.548 124.298 909.454 122.83C907.994 120.839 904.893 119.791 901.245 119.686C897.049 119.582 893.218 120.21 891.029 122.411C889.387 123.983 888.11 125.66 888.475 127.651C888.84 129.957 888.84 132.262 889.205 134.568ZM781.758 333.062C789.967 332.957 798.724 331.699 806.75 328.974C810.581 327.717 814.229 326.249 816.054 323.839C819.52 319.018 817.513 315.979 810.216 314.617C805.291 313.778 800.548 313.883 795.622 314.197C790.515 314.512 785.589 314.826 780.481 314.931C772.82 315.036 765.158 315.036 757.314 314.931C754.942 314.931 753.665 315.245 752.388 316.503C747.645 321.533 750.382 326.773 758.956 330.127C765.523 332.642 773.002 332.957 781.758 333.062Z" fill="#FEEDE7"/>
<path d="M803.832 143.686C805.109 145.258 806.203 146.201 806.75 147.354C807.845 149.45 808.757 151.546 809.304 153.642C810.216 156.681 810.764 159.825 811.311 162.969C812.041 166.847 812.77 170.724 813.318 174.602C813.5 175.44 813.135 176.279 813.135 177.327C805.473 177.851 797.994 178.27 790.332 178.899C780.664 179.528 771.178 180.261 761.51 180.995C754.76 181.519 748.01 182.043 741.078 182.462C738.524 182.567 737.248 182.986 736.518 184.558C735.606 186.654 733.599 188.541 730.316 189.798C729.768 190.008 729.039 190.322 728.856 190.637C727.397 192.942 724.113 194.2 721.012 195.562C710.979 200.383 700.216 204.785 688.906 208.453C682.703 210.444 677.596 212.959 672.67 215.999C677.231 216.837 681.791 217.57 686.169 218.409C690.73 219.247 695.29 220.295 700.033 221.134C703.135 221.658 706.236 222.077 709.337 222.496C715.722 223.439 722.107 224.278 728.491 225.221C730.133 225.431 731.41 226.059 732.687 226.479C730.498 228.889 728.491 231.195 726.12 233.291C724.296 235.072 723.201 236.959 722.654 238.845C721.377 242.304 719.917 245.762 717.546 249.116C715.357 252.26 713.898 255.613 711.891 258.757C709.519 262.53 709.702 266.303 709.337 270.181C709.155 271.229 709.519 272.382 709.519 273.744C684.528 274.792 659.536 275.84 634.909 276.783C631.99 281.709 639.469 295.019 653.516 298.687C663.367 301.202 673.217 301.831 683.616 300.154C694.378 298.477 700.581 293.761 706.418 288.626C708.607 289.045 710.432 289.464 712.803 289.988C712.073 291.77 711.526 293.552 710.614 295.228C707.33 300.573 702.952 305.499 695.473 309.376C687.446 313.569 678.143 316.293 667.38 317.341C657.712 318.389 647.861 318.285 638.375 317.027C625.605 315.455 615.937 311.263 609.005 304.975C605.539 301.726 602.438 298.372 599.884 294.809C598.424 292.923 598.06 290.722 598.06 288.626C598.06 283.805 598.06 278.879 598.789 274.058C599.154 271.019 601.161 267.98 603.35 265.15C607.181 260.12 611.194 254.985 613.018 249.535C613.383 248.697 614.113 247.858 614.66 247.02C614.842 246.81 615.025 246.6 615.025 246.391C613.93 244.295 615.39 242.513 615.937 240.522C616.302 239.369 617.031 238.216 617.396 237.064C617.761 235.806 618.491 234.548 618.673 233.186C619.221 230.356 621.592 228.051 624.146 225.745C627.065 223.02 630.166 220.191 633.814 217.78C640.929 212.959 648.59 208.348 658.624 205.414C662.272 204.366 665.191 202.689 668.474 201.431C672.488 199.859 676.683 198.392 680.332 196.61C684.345 194.724 688.176 192.733 691.824 190.637C694.743 188.96 697.844 187.178 699.851 185.187C701.675 183.51 702.405 181.309 703.135 179.318C704.229 175.86 705.324 172.296 708.425 169.152C710.614 166.847 713.533 164.751 716.269 162.655C723.566 156.891 733.234 152.489 742.173 147.563C745.092 145.887 748.193 144.315 749.287 141.904C750.199 140.122 749.652 138.76 748.193 137.188C745.639 134.463 743.085 131.843 740.896 129.014C738.16 125.66 739.619 123.354 744.362 120.734C753.483 115.809 764.793 113.503 776.651 112.979C787.778 112.455 798.724 113.503 808.575 116.961C812.405 118.324 816.419 119.896 818.425 122.516C819.885 124.402 820.432 126.079 819.52 128.175C817.878 132.472 813.682 135.616 808.392 138.655C804.379 139.494 805.109 142.219 803.832 143.686ZM657.712 226.269C656.07 227.527 654.246 228.575 653.151 229.937C650.415 233.186 648.408 236.644 647.131 240.208C646.401 242.304 645.854 244.295 644.942 246.391C643.665 249.43 641.841 252.26 640.199 255.194C637.463 259.701 635.274 264.207 633.997 268.923C633.814 269.552 633.997 270.181 633.997 271.124C647.496 270.6 660.813 269.971 673.582 269.447C674.13 266.722 674.859 264.312 675.224 261.797C675.954 258.024 678.69 254.67 680.697 251.212C681.062 250.583 682.521 249.849 682.339 249.325C681.974 246.391 684.892 243.981 685.805 241.256C686.717 238.321 688.723 235.492 690.183 232.662C680.149 229.623 668.839 228.365 657.712 226.269ZM777.198 173.868C777.015 170.096 776.833 166.637 776.651 163.179C776.651 159.196 777.928 155.109 775.191 151.127C774.279 149.974 773.549 149.135 771.908 148.507C769.901 147.773 767.712 148.087 765.705 148.716C759.685 150.498 755.125 152.803 750.564 156.262C748.01 158.148 745.457 160.035 743.45 162.236C739.801 166.218 736.883 170.096 737.612 174.707C737.795 176.279 737.977 176.384 740.714 176.174C748.01 175.755 755.49 175.336 762.787 174.916C767.712 174.707 772.637 174.288 777.198 173.868ZM789.785 126.079C789.055 124.717 788.508 123.145 787.231 121.782C785.224 119.791 781.758 118.848 777.563 119.162C772.637 119.581 768.624 120.839 766.8 123.564C763.881 127.756 766.435 131.424 770.996 134.673C773.367 136.35 776.833 136.559 780.482 135.616C787.231 133.73 787.778 129.852 789.785 126.079Z" fill="#FEEDE7"/>
<path d="M582.189 -161.914C563.034 -162.334 544.792 -162.648 526.368 -162.962C525.456 -164.534 522.902 -165.792 524.726 -167.783C525.091 -168.098 524.544 -168.727 523.996 -169.146C520.713 -172.29 516.699 -175.015 514.145 -178.473C512.321 -180.988 508.49 -182.665 505.207 -184.552C502.47 -186.124 500.099 -187.8 497.545 -189.372C497.363 -189.477 497.18 -189.687 496.998 -189.792C491.708 -191.573 490.066 -194.717 487.694 -197.652C485.323 -200.586 482.951 -203.521 480.945 -206.56C478.756 -209.913 480.033 -213.162 481.857 -216.411C482.951 -218.402 483.863 -220.394 484.958 -222.909C487.512 -223.957 491.16 -225.214 494.626 -226.577C497.18 -227.52 498.457 -228.778 498.822 -230.664C499.369 -234.332 500.281 -237.895 501.376 -241.459C501.741 -242.716 502.653 -244.079 503.93 -245.127C507.213 -248.166 510.497 -251.205 514.328 -254.035C518.341 -257.074 522.537 -260.113 526.915 -262.943C534.577 -268.078 542.056 -273.318 550.083 -278.349C554.826 -281.388 560.298 -284.008 565.406 -286.942C567.777 -288.2 569.784 -289.562 572.338 -290.715C576.351 -292.706 580.182 -294.593 584.378 -296.479C589.486 -298.68 594.594 -300.776 598.607 -303.71C600.431 -304.968 602.62 -306.121 604.809 -307.169C609.187 -309.37 612.836 -311.885 615.754 -314.819C619.585 -318.697 624.876 -321.841 629.801 -325.195C632.902 -327.186 634.726 -329.492 635.821 -332.007C636.368 -333.16 635.821 -334.417 635.821 -335.884C638.01 -337.142 640.381 -338.504 642.935 -339.972C644.759 -341.02 646.949 -341.334 649.685 -341.334C659.901 -341.02 669.934 -340.915 680.149 -340.705C685.257 -340.6 690.365 -340.391 695.29 -340.286C696.02 -340.286 696.567 -340.076 697.844 -339.762C692.554 -336.304 686.169 -333.893 680.697 -330.854C675.224 -327.71 669.569 -324.775 664.461 -321.317C665.191 -321.422 665.92 -321.527 666.468 -321.736C677.778 -326.348 690 -330.225 702.952 -332.95C707.513 -333.893 712.073 -334.627 716.999 -334.417C721.377 -334.208 723.383 -333.16 724.478 -330.749C725.755 -327.815 724.113 -324.985 723.383 -322.26C723.201 -321.527 721.924 -320.793 721.012 -320.269C714.262 -316.811 707.33 -313.352 699.486 -310.837C696.202 -309.789 692.372 -309.055 688.541 -308.427C684.345 -307.798 683.25 -308.112 681.244 -310.418C680.149 -311.675 679.055 -312.933 678.143 -314.191C675.954 -317.649 671.576 -318.907 665.556 -317.544C660.995 -316.496 656.982 -314.924 653.881 -312.619C651.144 -310.523 647.861 -308.636 644.577 -306.855C637.645 -302.977 631.078 -298.994 623.051 -295.85C616.484 -293.335 610.829 -290.191 605.356 -286.942C602.802 -285.37 600.249 -283.693 597.33 -282.331C589.851 -278.873 585.108 -274.052 577.993 -270.488C575.622 -269.336 574.162 -267.554 571.973 -266.192C567.23 -263.152 562.487 -260.218 557.927 -257.179C557.015 -256.55 556.832 -255.712 555.92 -254.978C553.001 -252.567 549.9 -250.367 547.164 -247.851C543.698 -244.812 541.144 -241.563 541.326 -237.686C541.326 -236.638 540.961 -235.59 540.779 -234.437C544.427 -231.922 549.535 -231.607 554.643 -232.341C559.386 -233.074 563.947 -234.332 568.507 -235.38C570.331 -235.799 571.973 -236.114 573.615 -236.638C578.723 -238.419 583.466 -237.686 587.844 -235.799C591.492 -234.122 595.323 -232.446 597.33 -229.616C595.506 -228.778 593.864 -227.834 591.857 -227.101C586.567 -225.214 583.101 -222.594 582.006 -218.926C581.277 -216.097 579.088 -213.267 580 -210.333C580.365 -209.18 580.365 -207.922 581.094 -206.874C582.919 -204.045 584.743 -201.215 587.297 -198.595C589.303 -196.604 592.404 -195.032 594.776 -193.25C598.607 -190.525 602.438 -187.8 606.086 -185.076C608.822 -183.084 611.924 -181.093 614.113 -178.892C616.849 -176.063 620.133 -173.443 623.416 -170.823C626.517 -168.203 625.24 -165.792 620.133 -164.954C611.011 -163.486 602.073 -163.801 593.499 -166.421C589.121 -167.783 586.202 -169.984 582.919 -171.871C578.905 -174.071 574.892 -176.482 571.061 -178.892C569.237 -180.045 567.777 -181.407 566.5 -182.77C564.311 -184.971 561.758 -187.172 560.116 -189.477C558.839 -191.154 559.021 -193.145 558.109 -194.927C557.197 -197.232 557.197 -199.748 553.913 -201.739C547.529 -205.721 547.164 -214.105 552.819 -218.402C555.19 -220.289 555.19 -222.175 552.454 -223.957C551.177 -224.795 549.9 -225.529 548.441 -226.262C545.522 -227.625 542.603 -228.987 539.137 -230.559C539.137 -228.778 538.772 -227.31 538.955 -225.843C539.137 -222.909 538.955 -220.079 536.583 -217.354C533.847 -214.315 534.212 -211.171 535.306 -207.922C536.401 -204.673 538.955 -201.844 541.509 -199.014C544.063 -196.289 545.887 -193.355 548.258 -190.63C549.718 -188.953 551.724 -187.381 553.549 -185.809C556.832 -182.98 560.298 -180.15 563.947 -177.425C567.23 -174.91 570.879 -172.499 574.527 -170.194C577.628 -167.364 579.817 -164.849 582.189 -161.914Z" fill="#FEEDE7"/>
<path d="M395.937 204.051C399.038 203.737 401.774 203.737 404.328 203.213C411.625 201.955 418.922 200.593 426.036 199.126C428.772 198.602 431.509 197.868 434.61 197.03C433.88 199.44 432.238 201.326 430.049 203.003C426.219 205.833 422.205 208.558 418.557 211.492C414.544 214.531 410.53 217.78 406.517 220.819C403.598 223.125 400.315 225.326 397.396 227.527C397.396 227.631 397.214 227.736 397.214 227.736C391.558 228.784 389.917 232.138 386.268 234.444C384.626 235.492 383.532 236.959 382.985 238.426C381.525 242.094 380.613 245.762 379.701 249.535C379.154 251.421 377.694 253.308 378.242 255.404C378.424 256.452 378.242 257.395 379.336 258.443C380.431 259.596 379.883 261.063 378.789 262.321C376.6 264.941 374.046 267.351 371.857 269.971C366.019 276.678 355.986 277.831 345.223 275.106C342.487 274.478 339.933 273.639 337.197 273.22C331.906 272.277 326.434 273.744 324.062 276.469C322.968 277.831 322.056 279.089 322.056 280.661C322.603 287.159 322.968 293.656 323.333 300.259C323.698 306.756 324.062 313.254 324.792 319.647C325.339 325.621 327.164 326.354 337.744 327.193C340.298 327.402 342.852 327.402 345.588 327.402C345.771 328.974 346.135 330.232 346.318 331.804C320.961 333.166 295.787 334.633 270.065 335.786C269.883 334.214 269.701 333.061 269.518 331.909C272.619 331.07 275.721 330.546 278.274 329.603C283.2 327.821 285.571 325.201 284.842 321.848C284.659 320.8 284.659 319.647 284.659 318.599C284.294 311.892 283.93 305.184 283.565 298.372C283.2 292.608 282.835 286.739 282.288 280.975C282.105 279.613 282.105 278.355 281.923 276.993C281.558 274.058 279.187 271.962 274.444 270.81C272.255 270.286 269.883 269.866 267.512 269.447C267.329 269.028 267.147 268.714 266.964 268.294C266.052 266.094 266.599 265.57 270.43 264.836C281.011 262.635 291.591 260.539 301.807 258.129C306.367 257.081 311.293 256.033 314.941 253.832C315.306 253.622 315.853 253.413 316.218 253.098C318.955 251.002 321.508 248.906 324.427 246.915C327.528 244.819 327.893 242.094 330.082 239.684C330.447 239.264 330.994 238.845 332.089 238.531C330.994 241.675 330.447 244.924 328.988 248.068C327.163 252.05 324.427 255.928 322.603 259.91C320.961 263.788 320.049 267.77 320.779 271.962C321.326 271.858 322.056 271.753 322.056 271.648C325.704 266.303 332.271 262.216 338.656 257.919C340.663 256.557 343.034 255.404 343.946 253.622C344.311 252.784 345.953 252.155 347.048 251.317C347.412 251.002 347.96 250.583 348.142 250.269C350.331 246.076 352.703 241.78 354.527 237.483C355.439 235.387 355.074 233.186 355.621 230.985C355.986 229.623 357.081 228.365 357.993 227.003C361.824 220.505 368.573 214.951 375.505 209.396C377.147 208.034 379.519 206.986 381.16 205.623C377.147 206.147 374.411 207.929 371.31 209.082C367.844 210.444 364.56 212.016 361.459 213.588C358.54 215.16 355.621 216.837 353.067 218.619C350.331 220.4 347.96 222.287 345.588 224.173C343.034 226.164 340.48 228.051 338.474 230.147C336.467 232.138 335.008 234.234 332.819 236.959C331.724 235.072 330.447 233.815 330.265 232.557C330.082 230.461 329.17 228.68 327.711 226.793C327.164 226.059 327.164 225.116 327.164 224.278C327.164 222.391 325.704 220.505 328.44 218.828C328.805 218.619 328.805 218.199 328.623 217.885C327.164 214.741 327.528 211.073 321.326 209.291C320.779 209.082 320.231 208.767 319.319 208.453C320.231 207.929 320.961 207.51 321.691 207.09C325.887 205.309 330.265 204.156 335.555 203.737C343.946 203.108 351.79 201.222 358.54 198.182C359.817 197.658 361.459 197.449 362.736 196.925C367.844 194.933 372.404 192.523 376.053 189.589C378.242 187.702 377.329 186.025 373.499 185.082C372.404 184.873 371.31 184.558 370.215 184.349C370.215 182.777 370.215 181.205 370.215 179.633C387.728 176.174 405.058 172.716 422.753 169.152C422.935 171.668 423.3 174.078 423.482 176.488C423.482 176.908 423.482 177.327 423.665 177.641C424.577 180.261 424.577 182.881 422.753 185.606C423.482 185.187 424.394 184.873 424.759 184.349C427.678 181.414 430.232 178.375 433.515 175.545C438.623 171.248 445.738 168 453.582 165.484C459.602 163.598 466.899 164.751 471.642 168C473.648 169.467 476.02 170.829 478.391 172.087C479.851 172.82 480.58 173.659 480.215 174.707C478.938 179.213 475.29 183.196 469.088 186.025C462.521 189.065 455.224 191.475 447.197 193.047C445.555 193.362 443.913 194.305 442.454 193.362C441.177 192.523 440.63 191.37 440.083 190.322C439.718 189.589 439.535 188.75 439.171 188.017C438.623 186.864 437.346 186.445 435.34 186.549C433.515 186.759 431.509 186.864 430.049 187.388C423.847 189.693 417.645 191.999 411.625 194.514C407.429 196.296 403.598 198.287 399.585 200.278C396.849 201.326 396.301 201.955 395.937 204.051Z" fill="#FEEDE7"/>
<path d="M720.465 -97.8809C724.843 -97.5665 729.221 -97.3569 733.417 -97.0425C734.876 -96.9377 736.518 -96.5185 737.795 -95.9945C741.808 -94.5273 741.99 -91.2784 737.977 -89.8112C734.329 -88.4488 730.315 -87.4008 726.484 -86.248C725.025 -85.8288 723.201 -85.4095 721.742 -84.8856C716.634 -83.1039 716.999 -82.4752 718.64 -80.0647C719.552 -78.5975 720.282 -77.2351 720.829 -75.7679C721.924 -73.3575 721.377 -72.4142 717.546 -70.947C715.174 -70.1086 712.803 -69.2702 710.796 -68.2222C708.242 -66.9646 706.053 -65.707 704.411 -63.9254C702.405 -61.7245 699.304 -59.9429 695.29 -58.5805C693.649 -58.0565 692.189 -57.4277 690.547 -56.7989C682.156 -53.55 672.852 -51.1396 663.731 -48.6244C656.982 -46.738 650.962 -44.2227 646.766 -40.5547C644.577 -38.6683 642.753 -36.677 641.658 -34.581C639.652 -30.389 635.821 -27.245 630.166 -24.4153C624.875 -21.7953 619.768 -19.0705 615.025 -16.0312C611.924 -14.1448 609.917 -11.7344 607.363 -9.63837C604.627 -7.54233 601.89 -5.44632 598.789 -3.45511C596.6 -2.09268 594.958 -0.52063 591.857 0.422577C590.033 1.05139 588.938 2.62335 587.661 3.77618C586.02 5.34821 585.108 7.12982 583.101 8.59702C580.729 10.3787 577.993 12.3699 574.709 13.5227C569.602 15.3043 566.136 18.0291 562.122 20.3348C556.102 23.7932 551.724 27.9852 547.346 32.1773C544.427 34.7973 540.779 37.103 536.583 38.9894C531.111 41.5046 527.645 44.7534 523.449 47.7927C520.53 49.7839 517.611 51.8799 514.328 53.6615C513.051 54.3951 510.679 54.3951 508.855 54.8144C503.93 56.072 498.822 55.548 493.897 54.9192C490.978 54.6048 488.242 53.3471 485.688 52.4039C482.222 51.2511 478.756 49.9935 475.29 48.7359C472.371 47.6879 469.635 46.4303 466.716 45.2775C460.513 42.6574 454.311 40.1422 448.109 37.5222C447.014 36.9982 445.92 36.3693 445.19 35.7405C443.548 34.1685 443.548 33.5397 446.102 32.2821C450.115 30.3957 454.129 28.6141 458.324 26.7277C458.689 26.5181 459.419 26.3084 459.601 26.0988C462.52 22.5356 468.358 20.754 473.283 18.3436C479.485 15.4091 486.782 14.6755 494.261 14.1515C494.991 14.0467 496.268 14.5707 496.633 14.8851C496.998 15.4091 496.633 16.1428 496.086 16.562C492.984 19.3916 489.701 22.1164 486.6 24.8412C484.228 26.9373 483.316 29.1381 483.316 31.7581C483.316 35.2166 485.505 37.5221 489.154 39.9326C493.349 42.6574 500.099 42.1334 503.93 39.0942C507.761 36.055 509.767 32.4917 512.504 29.2429C512.868 28.7189 513.051 28.0901 513.598 27.6709C516.699 25.2604 519.436 22.7452 522.902 20.5444C527.462 17.7148 532.388 14.9899 537.678 12.3699C540.597 10.9026 543.151 9.43542 545.157 7.54901C550.083 2.41376 557.197 -1.56866 564.494 -5.55112C568.325 -7.64713 571.973 -9.95276 574.892 -12.468C580.365 -16.8696 585.655 -21.3761 593.317 -24.7297C597.33 -26.5114 598.972 -29.0266 600.978 -31.5418C603.167 -34.3714 604.809 -37.5155 607.91 -40.0307C611.924 -43.3843 617.214 -46.214 623.781 -48.1004C631.807 -50.406 640.017 -52.6068 647.861 -55.122C653.881 -57.0085 659.536 -59.2093 665.373 -61.3053C670.299 -62.9821 675.224 -64.5542 679.967 -66.3358C685.075 -68.1174 690 -70.0038 695.108 -71.7854C698.209 -72.9382 700.398 -74.4055 699.668 -76.7111C699.121 -78.8071 697.115 -79.8551 693.466 -79.6455C690.182 -79.5407 687.081 -78.8071 684.892 -77.4447C677.413 -72.4142 667.38 -69.4798 657.529 -66.4406C638.74 -60.6765 619.95 -55.1221 600.978 -49.6724C590.398 -46.6332 582.189 -42.4411 577.446 -36.153C577.081 -35.7338 576.716 -35.2098 576.169 -34.8954C572.885 -33.2186 571.791 -30.913 570.514 -28.6074C569.784 -27.3497 568.69 -26.0921 567.048 -25.2537C560.116 -21.9001 554.826 -17.8128 549.535 -13.8304C548.076 -12.7824 546.434 -11.8392 544.792 -11.0008C541.326 -9.21915 537.86 -7.43756 534.394 -5.65594C527.645 -2.30231 520.713 1.05136 513.781 4.405C509.22 6.6058 506.119 6.60583 501.194 4.82422C499.187 4.09061 498.457 2.83298 499.734 1.68015C501.376 0.422546 503.2 -0.835052 504.842 -1.98788C507.761 -3.8743 510.315 -5.86551 510.315 -8.59036C510.315 -8.79996 510.315 -9.11435 510.497 -9.32397C515.24 -13.3064 516.517 -18.2321 523.449 -21.4809C528.009 -23.5769 531.475 -26.5113 535.489 -28.9218C537.313 -30.0746 537.678 -31.437 537.495 -32.7994C537.495 -33.9522 537.86 -35.0002 538.955 -36.0482C541.509 -38.2491 543.698 -40.5547 546.252 -42.7555C547.529 -43.8035 549.353 -44.7467 551.177 -45.5851C556.102 -47.5764 561.393 -49.4628 567.048 -50.8252C573.797 -52.502 580 -54.5981 586.567 -56.4845C596.053 -59.2093 605.539 -62.0389 615.025 -64.7638C628.159 -68.5366 641.111 -72.519 652.056 -78.2831C655.158 -79.9599 658.806 -81.2175 662.272 -82.58C665.008 -83.7328 666.832 -85.0952 666.832 -87.1912C666.832 -88.5536 667.927 -89.6016 670.116 -90.1256C686.352 -93.7937 702.405 -97.7761 720.465 -97.8809ZM719.005 -90.8592C714.08 -92.0121 705.141 -90.964 702.222 -89.1824C700.945 -88.344 701.128 -87.6104 702.952 -87.296C703.864 -87.1912 704.959 -87.1912 706.053 -87.1912C711.161 -87.4008 715.174 -88.7632 719.005 -90.8592Z" fill="#FEEDE7"/>
<path d="M489.519 192.628C486.235 189.693 488.789 186.759 487.147 184.139C488.789 181.624 489.884 178.899 491.89 176.488C496.268 171.563 504.113 168.419 511.227 164.856C516.7 162.026 522.902 160.035 529.469 158.253C535.307 156.681 541.144 155.528 547.529 155.004C552.819 154.585 557.927 154.271 563.035 155.004C568.507 155.738 573.25 156.995 577.081 159.511C581.824 162.445 584.925 165.799 586.75 169.676C587.479 171.144 588.574 172.611 589.851 173.973C592.587 176.698 592.952 179.737 592.405 182.672C591.857 185.501 588.756 187.597 585.473 189.589C573.98 196.61 559.569 201.536 545.887 206.881C539.138 209.501 532.753 212.226 527.098 215.684C521.807 218.933 516.7 222.287 511.592 225.64C508.855 227.422 505.937 229.099 503.565 231.09C500.829 233.291 498.822 235.806 497.363 238.321C495.904 240.836 494.444 243.142 493.897 245.867C493.532 248.277 491.525 250.583 489.884 252.889C488.971 254.251 488.972 255.718 487.695 257.081C486.965 257.919 488.059 259.177 487.877 260.225C487.512 264.522 488.242 268.818 488.789 273.22C489.336 276.993 489.336 280.766 489.701 284.643C490.066 288.521 490.431 292.294 490.613 296.171C490.613 296.8 490.613 297.534 490.796 298.163C491.343 302.25 491.89 306.442 492.438 310.529C493.167 315.245 498.822 316.293 505.389 315.245C506.119 315.141 507.031 315.036 507.761 314.826C508.673 317.446 506.849 319.123 503.383 320.695C494.079 324.887 483.499 326.878 471.824 326.773C464.709 326.669 458.689 324.782 455.041 321.009C454.494 320.485 454.129 319.961 453.399 319.228C452.305 319.752 451.21 320.171 450.48 320.695C443.548 325.411 434.61 328.136 424.212 329.289C415.456 330.337 407.064 329.813 399.22 327.507C389.734 324.677 385.721 319.752 384.444 313.883C384.079 311.892 383.532 309.9 383.714 307.909C383.897 305.08 385.721 302.46 388.822 300.363C392.288 297.953 396.301 295.857 401.227 294.599C409.618 292.399 418.009 290.407 426.401 288.416C433.698 286.739 440.995 285.167 448.291 283.491C449.751 283.176 450.663 282.652 450.48 281.604C450.116 279.194 450.116 276.678 449.933 274.163C449.751 271.229 449.386 268.399 449.204 265.465C449.021 263.997 449.568 262.53 449.386 261.063C448.656 256.661 452.67 252.993 454.129 248.906C455.223 245.867 456.318 242.828 457.595 239.788C458.507 237.797 459.054 235.911 461.791 234.234C463.432 233.291 463.432 231.509 464.892 230.461C470.182 226.688 475.655 223.125 481.31 219.562C486.418 216.313 491.161 212.75 497.545 210.339C504.295 207.719 511.227 205.309 517.794 202.584C524.726 199.754 531.476 196.61 538.408 193.676C543.516 191.475 547.894 188.855 551.177 185.711C552.089 184.873 552.637 183.929 552.819 182.986C554.096 178.899 551.907 175.021 549.171 171.353C548.441 170.41 547.529 169.467 546.799 168.419C544.245 164.436 538.408 163.808 533.482 167.056C530.381 169.048 528.375 171.458 527.462 174.183C526.915 175.86 526.733 177.641 526.186 179.318C525.273 181.729 523.267 183.825 520.166 185.606C514.875 188.436 509.038 190.637 501.923 191.685C499.37 192.104 496.633 192.523 494.079 192.838C492.438 192.733 490.796 192.628 489.519 192.628ZM451.575 288.416C444.643 290.198 438.441 291.77 432.238 293.447C424.029 295.543 420.381 299.001 421.293 304.031C422.023 307.49 423.847 310.844 427.678 313.778C433.515 318.18 445.008 318.704 451.757 314.617C452.487 314.093 453.217 313.359 453.217 312.625C453.217 310.005 452.852 307.28 452.487 304.66C452.122 301.936 451.575 299.315 451.393 296.591C451.393 294.075 451.575 291.56 451.575 288.416Z" fill="#FEEDE7"/>
<path d="M729.951 -236.638C729.403 -240.935 731.775 -244.498 736.335 -247.537C738.16 -248.69 741.808 -248.899 744.544 -249.528C748.74 -250.471 753.483 -250.786 757.132 -252.463C758.044 -252.882 759.138 -253.301 759.685 -253.825C762.057 -256.55 766.435 -258.332 769.719 -260.637C771.543 -261.895 773.367 -263.257 775.191 -264.515C782.853 -269.336 790.332 -274.157 798.176 -278.977C803.467 -282.226 808.939 -285.265 814.412 -288.514C816.601 -289.772 816.601 -289.772 814.777 -291.554C814.594 -291.763 814.412 -292.078 814.594 -292.182C816.054 -293.65 812.77 -295.431 815.507 -296.794C816.966 -297.527 818.608 -298.051 820.067 -298.785C822.621 -300.042 824.81 -301.405 827.364 -302.662C828.458 -303.186 829.918 -303.815 831.377 -303.92C841.593 -304.758 851.079 -306.645 860.2 -309.265C869.139 -311.78 877.165 -315.029 885.192 -318.278C889.205 -319.85 893.218 -321.317 897.232 -322.889C897.961 -323.099 898.873 -323.413 899.603 -323.413C903.434 -322.889 907.447 -322.26 911.096 -321.631C906.9 -317.963 903.069 -314.4 898.691 -311.047C896.502 -309.265 893.766 -307.798 891.212 -306.226C887.381 -304.025 883.367 -301.824 878.989 -299.518C880.084 -298.785 881.178 -298.051 882.091 -297.213C883.55 -295.746 884.827 -294.278 886.286 -292.811C883.732 -291.449 886.833 -290.715 887.381 -289.667C886.104 -287.676 883.55 -286.209 880.996 -284.741C873.882 -280.759 867.132 -276.672 860.2 -272.584C858.193 -271.432 856.734 -269.86 854.727 -268.602C851.626 -266.611 848.16 -264.724 845.241 -262.733C841.046 -259.904 837.032 -257.074 833.384 -254.139C830.648 -251.834 826.999 -250.471 822.803 -249.633C814.777 -248.166 806.75 -246.803 798.724 -245.441C797.447 -245.231 796.352 -244.707 795.075 -244.603C789.055 -243.974 786.866 -241.668 786.684 -238.419C786.501 -236.742 785.589 -234.961 785.224 -233.284C784.677 -231.083 783.765 -228.778 783.948 -226.577C783.948 -224.481 783.4 -222.594 780.117 -221.127C782.306 -219.345 781.941 -217.564 780.482 -215.677C777.745 -211.905 778.292 -208.132 780.664 -204.464C782.488 -201.739 784.86 -199.119 787.049 -196.499C789.238 -193.774 791.427 -191.049 793.981 -188.534C799.453 -182.979 805.473 -177.739 812.953 -172.919C815.324 -171.451 817.696 -170.089 819.155 -168.203C820.067 -167.05 821.891 -166.107 823.716 -164.954C818.79 -164.01 813.865 -164.115 809.122 -163.801C808.574 -163.801 807.662 -164.115 807.298 -164.325C802.919 -166.735 798.724 -169.251 794.528 -171.766C793.981 -172.08 793.069 -172.29 792.521 -172.604C787.049 -175.329 781.211 -177.844 778.11 -181.827C777.745 -182.246 777.38 -182.56 776.833 -182.875C773.185 -185.495 770.996 -188.429 769.719 -191.888C768.442 -195.136 767.165 -198.49 764.064 -201.529C761.327 -204.254 759.868 -207.398 759.868 -210.647C759.868 -212.009 760.597 -213.267 761.692 -214.42C763.699 -216.411 765.158 -218.612 766.617 -220.708C766.8 -221.022 766.617 -221.337 766.617 -221.651C766.07 -225.319 762.604 -227.834 757.496 -230.035C749.287 -233.389 740.349 -235.485 729.951 -236.638Z" fill="#FEEDE7"/>
<path d="M656.617 -261.371C656.799 -260.952 656.982 -260.847 656.799 -260.847C655.34 -258.017 653.881 -255.188 652.239 -252.358C650.415 -249.004 648.226 -245.651 646.401 -242.192C644.76 -239.258 645.307 -236.218 646.949 -233.389C647.861 -231.712 650.05 -230.664 653.698 -230.664C659.901 -230.664 665.373 -231.607 668.657 -234.751C670.116 -236.218 671.028 -238.105 671.758 -239.782C672.853 -242.611 675.042 -245.022 678.143 -247.223C680.879 -249.214 682.886 -251.519 685.804 -253.511C694.378 -259.589 703.135 -265.563 711.891 -271.536C716.816 -274.89 722.106 -278.139 727.579 -281.283C730.315 -282.96 733.781 -284.217 736.7 -285.789C739.072 -287.047 741.078 -288.724 743.45 -289.982C747.828 -292.287 752.206 -294.593 757.131 -296.479C761.145 -298.156 764.793 -299.833 767.894 -302.034C771.178 -304.444 774.826 -306.645 777.745 -309.16C779.569 -310.627 781.029 -312.409 779.022 -314.505C777.927 -315.658 776.286 -316.182 774.097 -316.182C770.813 -316.182 768.259 -315.343 765.888 -314.191C759.138 -310.837 752.024 -307.588 745.456 -304.13C737.065 -299.728 727.397 -296.689 718.093 -293.126C714.08 -291.658 710.249 -290.086 706.418 -288.409C703.317 -287.152 700.033 -286.313 696.385 -285.265C696.75 -286.837 694.561 -288.2 697.844 -289.248C696.75 -289.667 696.02 -289.877 694.925 -290.296C696.02 -291.344 696.932 -292.392 698.209 -293.335C700.398 -295.012 702.77 -296.479 704.776 -298.156C706.053 -299.204 706.965 -300.566 706.965 -301.824C706.965 -304.339 709.519 -306.121 712.073 -307.588C719.917 -311.885 727.944 -316.287 738.524 -318.592C750.017 -321.107 761.51 -322.784 773.914 -322.051C784.677 -321.422 794.528 -319.326 803.284 -315.553C807.845 -313.562 810.034 -310.208 805.656 -305.806C804.926 -305.073 804.379 -304.339 803.831 -303.606C802.554 -300.986 799.271 -299.099 795.805 -297.318C792.521 -295.641 789.055 -294.069 785.954 -292.392C781.394 -289.877 777.198 -287.152 772.637 -284.532C768.989 -282.436 765.158 -280.654 761.692 -278.558C757.496 -276.043 752.753 -273.737 749.835 -270.593C749.105 -269.755 747.463 -269.126 746.368 -268.392C743.997 -266.716 741.626 -265.039 739.072 -263.362C736.7 -261.79 734.146 -260.323 731.775 -258.751C729.038 -256.969 726.485 -254.978 723.931 -253.196C721.194 -251.31 718.64 -249.423 715.722 -247.747C710.796 -245.022 706.783 -241.983 704.959 -238.105C703.864 -236.009 701.493 -234.751 698.574 -233.598C692.189 -231.188 685.075 -230.14 677.778 -229.197C664.461 -227.52 651.144 -226.577 637.463 -226.996C629.436 -227.206 621.592 -228.149 614.113 -229.93C612.289 -230.35 610.464 -230.978 608.822 -231.607C605.904 -232.865 604.992 -235.485 606.086 -236.952C606.816 -237.895 607.363 -238.839 607.728 -239.782C609.187 -243.24 614.478 -244.812 618.673 -246.803C620.497 -247.747 622.687 -248.375 624.876 -249.109C630.713 -251.205 636.733 -253.196 642.57 -255.292C643.483 -255.607 644.212 -256.026 644.942 -256.34C645.672 -256.655 646.219 -257.179 646.949 -257.284C650.962 -258.017 653.333 -259.904 656.617 -261.371Z" fill="#FEEDE7"/>
<path d="M789.968 -432.93C790.332 -429.681 790.332 -429.367 785.772 -428.424C778.11 -426.852 770.266 -425.385 762.604 -423.917C746.369 -420.773 730.498 -417.21 715.904 -412.075C712.803 -410.922 708.972 -410.503 705.324 -409.874C699.122 -408.931 692.919 -408.197 686.717 -407.254C680.332 -406.311 673.765 -405.158 667.38 -404.11C655.158 -402.224 642.936 -400.128 630.713 -398.346C610.464 -395.411 589.851 -392.687 569.602 -389.752C550.265 -386.923 531.293 -383.15 513.234 -378.329C507.396 -376.757 501.194 -375.814 495.174 -374.556C492.62 -374.032 490.066 -373.298 487.695 -372.46C486.053 -371.936 484.593 -371.098 484.046 -369.84C483.681 -369.002 482.404 -368.268 481.31 -367.744C479.121 -366.696 476.749 -365.962 474.56 -364.914C473.283 -364.286 471.459 -363.657 470.912 -362.818C468.358 -359.779 463.797 -358.312 459.054 -356.74C453.764 -354.958 448.109 -353.596 443.001 -351.605C438.441 -349.823 433.15 -348.251 429.684 -345.526C428.955 -344.897 427.495 -344.478 426.218 -343.954C415.273 -339.448 406.152 -333.788 397.943 -327.71C393.93 -324.775 389.734 -321.841 386.998 -318.383C386.45 -317.649 385.721 -316.811 385.721 -316.077C385.356 -312.199 382.62 -308.846 378.789 -305.702C377.147 -304.234 376.052 -302.558 374.228 -301.195C372.586 -299.728 370.58 -298.366 368.573 -297.108C366.566 -295.85 364.377 -294.698 362.188 -293.754C357.81 -291.763 355.439 -288.829 351.608 -286.628C343.946 -282.226 336.467 -277.825 328.988 -273.423C322.42 -269.545 316.036 -265.563 309.286 -261.58C300.165 -256.131 290.861 -250.891 280.463 -246.175C275.72 -243.974 272.802 -241.354 271.342 -237.895C270.248 -235.17 266.599 -233.179 263.863 -230.874C263.316 -230.35 262.221 -230.035 262.039 -229.511C260.214 -225.843 255.107 -226.577 250.364 -226.577C250.181 -230.035 248.904 -233.389 251.093 -236.533C251.458 -236.952 251.823 -237.371 252.188 -237.79C252.37 -238 252.735 -238.419 252.553 -238.524C250.181 -240.201 252.188 -241.668 253.282 -243.031C254.924 -245.336 257.113 -247.537 259.302 -249.633C262.039 -252.358 264.957 -255.187 268.059 -257.703C270.065 -259.275 272.802 -260.637 275.173 -262.104C277.18 -263.257 279.186 -264.305 281.011 -265.458C285.754 -268.812 291.409 -271.746 297.429 -274.366C299.253 -275.205 300.53 -276.357 302.172 -277.301C305.09 -278.873 308.191 -280.445 311.11 -282.017C315.671 -284.427 319.319 -287.361 322.42 -290.505C323.697 -291.658 325.339 -292.811 327.163 -293.65C331.906 -295.85 337.014 -297.737 341.757 -299.833C343.034 -300.357 343.764 -301.195 344.858 -301.824C347.959 -303.606 351.061 -305.387 354.162 -307.169C359.087 -309.894 363.1 -313.038 366.566 -316.391C368.938 -318.697 371.674 -321.003 375.14 -322.994C380.431 -326.138 386.268 -328.968 392.106 -331.797C397.578 -334.417 403.416 -336.723 409.071 -339.238C409.8 -339.552 410.713 -339.762 411.077 -340.181C414.179 -344.373 421.475 -345.945 427.313 -348.251C435.887 -351.709 445.008 -354.749 453.399 -358.417C460.514 -361.456 467.081 -364.914 473.831 -368.268C480.398 -371.517 487.512 -374.242 495.356 -376.233C505.572 -378.853 515.423 -381.787 525.821 -383.883C539.867 -386.713 554.461 -389.019 568.872 -391.429C586.385 -394.259 604.08 -396.774 621.592 -399.499C632.173 -401.176 642.936 -402.957 653.516 -404.634C665.191 -406.52 677.048 -408.512 688.723 -410.503C691.642 -411.027 694.561 -411.656 697.115 -412.494C710.067 -417.001 723.931 -420.04 738.525 -422.555C750.747 -424.651 763.152 -426.852 775.191 -429.053C780.299 -430.415 784.86 -431.777 789.968 -432.93Z" fill="#FEEDE7"/>
<path d="M560.663 138.446C551.725 138.55 542.968 137.607 534.577 135.826C527.645 134.358 522.355 131.738 517.429 128.699C514.51 126.813 514.875 122.726 517.612 121.049C521.26 118.848 525.091 116.752 529.469 114.865C532.205 113.713 534.759 112.665 535.489 110.359C536.219 107.949 536.036 107.215 532.57 105.957C528.375 104.28 524.726 102.289 521.807 99.6693C518.341 96.5252 514.875 93.486 511.409 90.4467C508.855 88.0363 507.761 85.4163 508.308 82.6915C508.855 79.6522 512.869 78.3946 517.064 77.6609C519.801 77.2418 522.902 77.0322 525.456 78.0802C526.003 78.2898 526.55 78.3946 527.098 78.3946C534.394 78.709 540.779 80.4906 547.164 82.2722C554.096 84.2635 561.028 86.1498 567.595 88.4554C575.074 91.0755 581.459 94.3243 586.932 98.4116C590.58 101.136 590.398 103.757 588.026 106.586C586.932 107.949 587.479 108.997 588.574 110.359C591.128 113.608 596.235 115.389 600.249 117.8C604.809 120.42 607.363 125.031 604.992 127.756C602.438 130.795 598.607 133.31 592.952 134.882C582.919 137.607 571.973 138.446 560.663 138.446ZM570.879 123.878C570.331 122.83 569.784 120.944 568.325 119.372C565.771 116.228 557.562 115.389 554.461 118.009C550.083 121.992 548.259 126.184 552.272 130.69C553.731 132.472 556.285 133.415 559.569 133.101C561.575 132.891 563.582 132.472 565.041 131.843C569.055 130.062 570.331 127.442 570.879 123.878Z" fill="#FEEDE7"/>
<path d="M864.031 -63.1918C869.321 -62.8774 874.794 -62.6678 880.084 -62.2486C882.273 -62.039 884.645 -61.6198 886.834 -61.0958C888.293 -60.7814 892.671 -55.2269 892.307 -54.2837C891.577 -52.6069 889.388 -51.5589 887.016 -50.8253C884.462 -50.0916 882.091 -49.4628 879.537 -48.834C872.97 -47.0524 868.044 -44.3276 864.214 -40.7643C861.66 -38.4587 860.383 -36.0482 859.835 -33.533C859.471 -31.7514 858.194 -30.4938 855.822 -29.6554C852.903 -28.6074 849.985 -27.6642 846.883 -27.1402C831.742 -24.5201 816.419 -21.9001 801.096 -19.8041C792.522 -18.6513 783.766 -18.1273 774.827 -19.5945C772.638 -19.9089 770.814 -20.4329 769.354 -21.4809C765.341 -24.1009 761.145 -26.6161 757.314 -29.341C754.76 -31.1226 755.125 -31.437 757.497 -33.2187C760.598 -35.5243 763.517 -38.0395 766.8 -40.3451C769.172 -41.9171 771.726 -43.3843 774.644 -44.5372C785.042 -48.834 796.717 -51.5589 808.575 -54.2837C815.325 -55.8557 821.709 -57.8469 828.641 -59.2094C839.769 -61.7246 851.626 -63.087 864.031 -63.1918ZM859.471 -60.2574C858.376 -60.2574 857.464 -60.2574 856.369 -60.2574C849.985 -59.8382 843.6 -59.3141 839.404 -55.8557C838.857 -55.4365 837.945 -55.1221 837.033 -54.8077C827 -51.8733 817.149 -48.9388 806.933 -46.214C802.372 -44.9564 798.724 -42.9652 795.805 -40.7643C792.157 -38.2491 789.603 -35.2099 786.867 -32.2754C786.137 -31.437 785.772 -30.389 786.137 -29.4458C787.231 -25.4633 791.974 -23.9962 796.717 -23.9962C804.926 -23.9962 812.041 -25.5681 818.79 -28.1882C822.621 -29.6554 825.175 -31.7514 826.087 -34.3714C828.641 -41.6027 836.85 -46.214 847.978 -49.2532C850.167 -49.882 852.538 -50.406 854.728 -51.0349C858.376 -52.1877 862.207 -53.2357 865.673 -54.5981C868.409 -55.5413 868.774 -56.6941 868.227 -58.4757C867.68 -60.2574 865.126 -60.0478 863.119 -60.2574C861.842 -60.3622 860.747 -60.2574 859.471 -60.2574Z" fill="#FEEDE7"/>
<path d="M480.398 202.06C478.026 203.946 475.837 206.042 473.101 207.824C467.993 211.178 462.155 214.217 457.777 217.885C451.21 223.23 443.731 228.47 441.359 235.177C440.082 238.531 438.988 241.884 437.528 245.133C436.434 247.648 435.339 250.164 433.698 252.574C430.779 256.976 427.313 261.273 424.212 265.674C423.482 266.618 423.3 267.77 422.752 268.818C421.658 270.6 420.928 272.486 419.104 274.058C416.915 276.154 413.266 277.098 408.888 277.517C399.767 278.25 392.105 276.993 385.721 273.115C384.626 272.382 383.896 271.753 384.444 270.914C385.173 269.657 385.538 268.294 386.815 267.246C389.734 264.626 392.47 262.006 396.119 259.805C403.598 254.985 408.158 249.535 409.8 243.142C410.53 240.103 411.26 237.064 412.172 234.024C413.449 229.727 415.273 225.535 419.651 221.658C422.57 218.933 425.306 216.103 428.407 213.379C431.873 210.444 436.069 208.034 441.724 206.671C449.386 204.89 457.048 203.108 464.709 201.431C467.081 200.907 469.452 200.593 471.824 200.278C475.107 199.859 476.567 200.174 480.398 202.06Z" fill="#FEEDE7"/>
<path d="M761.145 -0.835052C761.875 -0.625427 762.787 -0.52063 763.516 -0.206207C765.706 1.05139 768.259 1.9946 769.901 3.77621C771.361 5.34824 774.097 6.60583 776.104 7.96823C778.84 9.85468 778.84 10.2739 775.921 12.0555C772.82 14.0468 769.354 15.7235 766.253 17.7148C763.152 19.706 760.415 21.802 757.679 23.898C757.132 24.2124 757.314 24.8412 756.949 25.2604C756.767 25.6797 756.584 26.5181 756.037 26.5181C753.666 26.8325 753.301 28.0901 751.841 28.9285C745.457 32.8062 737.613 35.007 728.674 36.2646C717.364 37.7318 706.054 38.0462 694.743 35.7406C691.825 35.2166 689.088 34.483 686.534 33.5398C682.156 31.863 681.062 27.7757 684.345 25.4701C689.636 21.4876 696.203 18.134 702.588 14.7803C711.709 9.95947 722.836 6.92029 733.417 3.56662C739.437 1.68021 745.822 0.736969 751.841 -0.625427C753.848 -1.04465 756.767 -1.98788 759.503 -0.93985C759.868 -0.835052 760.78 -1.25424 761.51 -1.35904C761.51 -1.14944 761.327 -1.04465 761.145 -0.835052ZM750.747 10.9027C746.004 9.95947 742.72 10.3787 739.802 11.6363C736.518 12.8939 733.599 14.4659 730.681 15.8283C726.485 17.7148 723.201 20.23 718.823 22.0116C716.452 22.9548 714.445 24.5269 712.621 25.8893C710.979 27.0421 710.979 28.8237 712.256 29.5573C713.715 30.5005 716.999 31.1293 719.006 30.5005C723.384 29.1381 727.579 27.7757 729.951 25.0509C733.964 20.3348 739.254 16.2476 747.099 13.4179C748.193 12.7891 749.105 11.9507 750.747 10.9027Z" fill="#FEEDE7"/>
<path d="M185.786 -23.3672C184.145 -21.9 182.32 -20.4328 180.861 -18.8608C179.219 -17.184 177.76 -15.5071 176.665 -13.7255C173.564 -8.48547 167.909 -4.39822 160.43 -1.04459C155.504 1.26105 151.491 3.98584 149.12 7.33948C147.66 9.33072 145.106 10.6931 141.823 11.8459C139.451 12.6844 137.08 13.5228 134.708 14.2563C125.04 17.2956 118.108 22.0117 111.541 26.9373C109.534 28.5093 107.892 30.291 105.703 31.8629C104.974 32.4918 103.332 32.911 102.055 33.0158C99.8658 33.2254 97.4943 33.0158 94.7579 33.0158C95.4876 31.863 95.8525 30.815 96.5822 29.8718C98.0415 27.9854 99.5009 26.0989 101.325 24.4221C103.332 22.326 106.251 20.5444 108.987 18.7628C112.453 16.4572 116.831 14.5708 120.297 12.2651C123.033 10.4835 125.77 8.49228 127.594 6.39627C130.148 3.56662 133.614 1.05142 137.445 -1.14941C144.924 -5.55106 152.403 -9.9527 159.153 -14.7735C162.619 -17.2888 167.362 -19.1752 171.558 -21.3761C171.922 -21.5857 172.652 -21.6904 173.017 -22.0048C176.665 -24.4153 181.043 -24.4153 185.786 -23.3672Z" fill="#FEEDE7"/>
<path d="M214.244 202.898C207.859 205.414 202.022 207.824 196.184 210.339C190.164 212.855 185.239 215.999 180.861 219.562C177.76 221.972 174.659 224.383 171.375 226.688C165.902 230.461 162.984 234.863 161.342 239.579C159.335 245.448 157.146 251.212 154.045 256.871C152.586 259.491 151.673 262.216 150.579 265.15C148.025 265.255 145.471 265.255 142.552 265.36C142.187 263.997 141.64 262.95 141.458 261.797C141.093 257.605 140.728 253.517 142.005 249.325C142.917 246.076 142.187 242.723 142.552 239.369C142.917 234.758 146.018 230.88 151.491 227.527C156.234 224.592 160.43 221.343 164.99 218.409C169.551 215.579 173.929 212.645 179.766 210.758C188.158 208.034 196.549 205.414 204.941 202.794C208.042 201.85 209.319 201.85 214.244 202.898Z" fill="#FEEDE7"/>
<path d="M253.1 181.624C249.999 181.833 247.08 182.043 244.161 182.253C242.702 178.48 239.966 175.231 236.865 171.982C235.223 170.41 235.04 168.733 235.77 166.952C236.317 165.484 236.5 164.017 236.865 162.55C237.959 158.463 238.871 154.271 243.432 150.707C245.438 149.135 246.533 147.354 248.175 145.677C250.546 143.057 253.647 140.751 257.296 138.655C260.032 137.083 262.586 135.406 265.505 133.52C267.876 133.52 270.795 133.52 274.261 133.52C273.896 134.568 273.896 135.616 273.167 136.454C267.694 144.105 263.316 151.965 257.661 159.616C254.924 163.284 252.553 167.266 252.553 171.458C252.553 172.82 253.1 174.288 253.283 175.65C253.283 177.432 253.1 179.423 253.1 181.624Z" fill="#FEEDE7"/>
<path d="M268.241 -66.3357C272.801 -68.0125 277.362 -69.7942 281.923 -71.471C284.659 -72.4142 286.848 -73.6718 287.76 -75.3486C288.49 -76.5014 291.226 -76.3966 291.226 -78.0734C291.226 -79.1214 293.78 -80.0647 295.057 -81.1127C296.334 -82.0559 297.246 -83.3135 298.888 -84.0471C303.083 -86.1431 306.367 -88.868 311.475 -90.3352C317.677 -92.1168 322.785 -94.632 327.71 -97.3569C332.089 -99.7673 333.183 -99.6625 336.831 -97.1472C332.089 -93.584 325.156 -91.5928 318.954 -89.0775C312.569 -86.4575 308.191 -82.8943 304.908 -78.9119C301.806 -75.2438 298.158 -71.995 291.044 -70.3181C287.395 -69.4797 284.112 -68.3269 280.646 -67.1741C276.997 -65.8117 272.801 -65.7069 268.241 -66.3357Z" fill="#FEEDE7"/>
<path d="M465.987 -127.645C462.338 -127.959 459.602 -128.064 457.048 -128.483C456.136 -128.588 455.224 -129.217 454.859 -129.845C450.663 -136.133 444.461 -141.583 436.982 -146.614C434.063 -148.605 429.685 -149.967 426.036 -151.434C422.753 -152.797 419.287 -153.95 415.821 -155.417C419.287 -155.731 422.57 -156.57 426.036 -155.312C430.597 -153.635 435.34 -152.273 440.083 -150.701C451.393 -146.823 458.69 -140.954 463.797 -134.142C464.71 -132.151 465.074 -130.055 465.987 -127.645Z" fill="#FEEDE7"/>
<path d="M658.259 -179.416C656.799 -180.779 657.346 -181.827 659.171 -183.189C660.083 -183.923 660.448 -183.399 660.995 -183.399C663.549 -183.504 668.474 -183.189 669.751 -182.665C672.123 -181.722 674.312 -180.779 676.501 -179.731C675.589 -178.997 675.041 -178.473 674.494 -177.844C671.758 -178.368 669.021 -177.006 666.103 -177.635C663.366 -178.054 660.812 -178.578 658.259 -179.416Z" fill="#FEEDE7"/>
<path d="M660.995 -264.829C662.637 -265.877 664.461 -266.82 666.103 -267.868C666.286 -267.764 666.65 -267.554 666.833 -267.449C665.009 -266.506 665.191 -264.41 660.995 -264.829Z" fill="#FEEDE7"/>
</mask>
<g mask="url(#mask0)">
<path d="M34 24H1047V342H34V24Z" fill="#FDECE6"/>
</g>
</svg>
