<svg width="1160" height="1240" viewBox="0 0 1160 1240" fill="none" xmlns="http://www.w3.org/2000/svg">
<g clip-path="url(#clip0)">
<path fill-rule="evenodd" clip-rule="evenodd" d="M862.328 1275.98C836.808 1220.1 817.625 1168.24 826.512 1100.59C829.337 1079.08 834.406 1056.61 839.307 1034.89C850.608 984.768 862.297 932.945 849.111 885.1C831.042 819.525 768.275 774.231 712.898 734.267C706.278 729.491 699.76 724.786 693.428 720.131C687.701 715.919 681.852 711.679 675.931 707.387C619.618 666.564 555.791 620.29 535.105 551.899C522.301 509.561 531.102 468.229 539.611 428.26C543.026 412.222 546.554 395.643 548.717 379.039C558.964 300.343 523.889 242.921 463.978 175.78C441.757 150.878 417.848 126.568 394.727 103.058C340.35 47.7731 284.125 -9.39881 245.534 -78.6358L252.4 -82.3708C290.54 -13.9455 346.434 42.8874 400.487 97.8492C423.669 121.416 447.635 145.787 469.969 170.815C520.13 227.034 568.123 289.452 556.389 379.574C554.19 396.465 550.63 413.194 547.184 429.365C538.482 470.259 530.258 508.882 542.544 549.508C562.559 615.696 625.382 661.233 680.804 701.413C686.735 705.712 692.601 709.964 698.341 714.184C704.655 718.831 711.156 723.518 717.756 728.282C774.064 768.916 837.878 814.964 856.598 882.874C870.246 932.399 858.358 985.107 846.862 1036.08C841.997 1057.65 836.968 1079.96 834.184 1101.13C824.285 1176.47 850.448 1232.37 880.741 1297.07C883.663 1303.31 886.62 1309.63 889.579 1316.03C899.869 1338.32 910.135 1360.63 920.399 1382.94C945.54 1437.55 971.533 1494.03 997.505 1549.38L990.423 1552.7C964.436 1497.32 938.438 1440.83 913.295 1386.2C903.032 1363.9 892.764 1341.6 882.475 1319.31C879.522 1312.91 876.571 1306.61 873.654 1300.37C869.791 1292.12 865.991 1284 862.328 1275.98Z" fill="#F8C3B3" fill-opacity="0.1"/>
<path fill-rule="evenodd" clip-rule="evenodd" d="M803.424 1239.28C784.13 1197.03 769.937 1153.98 773.127 1102.67C774.991 1072.72 786.004 1041.96 796.655 1012.2C811.005 972.135 825.838 930.696 817.969 891.517C805.905 831.497 741.312 784.887 689.403 747.44C680.093 740.721 671.301 734.378 663.102 728.187C657.482 723.941 651.735 719.66 645.919 715.331C590.148 673.784 526.939 626.693 506.293 558.778C493.436 516.473 502.066 477.25 511.2 435.724C514.701 419.808 518.319 403.351 520.571 386.829C531.283 308.099 494.445 248.633 435.836 183.57C413.849 159.155 390.242 135.403 367.417 112.433C313.455 58.1296 257.652 1.97766 219.448 -66.7281L226.318 -70.4568C264.062 -2.58077 319.519 53.2255 373.151 107.194C396.039 130.226 419.704 154.042 441.812 178.58C490.083 232.17 540.549 296.925 528.237 387.406C525.948 404.22 522.297 420.825 518.764 436.882C509.834 477.471 501.399 515.811 513.73 556.38C533.719 622.157 595.96 668.509 650.864 709.408C656.697 713.751 662.454 718.04 668.086 722.296C676.222 728.439 684.986 734.761 694.265 741.457C747.153 779.612 812.977 827.099 825.564 889.763C833.821 930.861 818.639 973.258 803.959 1014.27C793.481 1043.53 782.645 1073.79 780.846 1102.72C776.676 1169.79 803.366 1223.02 831.618 1279.36C837.232 1290.56 843.037 1302.13 848.605 1313.85C859.953 1337.72 871.261 1362.07 882.199 1385.62C909.568 1444.53 937.866 1505.46 969.03 1563.83L962.107 1567.46C930.856 1508.92 902.513 1447.91 875.104 1388.91C864.174 1365.37 852.869 1341.04 841.534 1317.19C835.997 1305.54 830.212 1294 824.614 1282.84C817.282 1268.21 810.052 1253.79 803.424 1239.28Z" fill="#F8C3B3" fill-opacity="0.1"/>
<path fill-rule="evenodd" clip-rule="evenodd" d="M755.807 1219.12C740.058 1184.63 727.563 1148.63 725.372 1109.64C723.286 1072.51 739.578 1037.16 755.335 1002.96C772.538 965.633 788.788 930.374 782.812 893.373C773.667 836.751 709.495 789.785 657.926 752.04C647.295 744.261 637.25 736.913 628.363 729.963C622.895 725.687 617.303 721.37 611.64 716.999C556.638 674.551 494.307 626.435 473.871 558.921C461.111 516.739 470.07 477.996 479.558 436.978C483.194 421.251 486.956 404.99 489.345 388.606C500.817 309.876 464.218 251.237 405.738 187.417C384.162 163.868 361.051 141.059 338.703 119C285.638 66.6176 230.759 12.4558 193.362 -54.817L200.235 -58.546C237.157 7.86991 291.672 61.6783 344.393 113.715C366.802 135.834 389.975 158.71 411.669 182.385C463.42 238.859 509.572 303.006 496.999 389.248C494.571 405.932 490.776 422.343 487.104 438.209C477.838 478.278 469.084 516.125 481.31 556.532C501.094 621.931 562.504 669.34 616.683 711.15C622.359 715.536 627.965 719.856 633.444 724.143C642.242 731.023 652.236 738.339 662.825 746.088C715.411 784.573 780.86 832.473 790.457 891.877C796.777 931.014 779.294 968.956 762.385 1005.65C747.007 1039.02 731.105 1073.52 733.093 1108.87C736.336 1166.54 763.027 1218.15 788.838 1268.05C797.612 1285.02 806.685 1302.57 814.668 1320.04C814.704 1320.12 814.743 1320.21 814.78 1320.29C826.188 1345.27 837.35 1370.75 848.146 1395.41C875.33 1457.48 903.433 1521.66 937.398 1582.07L930.546 1585.82C896.416 1525.11 868.242 1460.77 840.991 1398.56C830.206 1373.93 819.053 1348.47 807.669 1323.54C807.632 1323.45 807.593 1323.37 807.556 1323.29C799.641 1305.97 790.608 1288.5 781.868 1271.6C772.96 1254.38 763.95 1236.95 755.807 1219.12Z" fill="#F8C3B3" fill-opacity="0.1"/>
<path fill-rule="evenodd" clip-rule="evenodd" d="M861.181 1537.68C842.511 1496.78 826.326 1455.1 810.48 1414.28C800.561 1388.72 790.299 1362.29 779.572 1336.4C768.734 1310.25 754.478 1283.76 740.692 1258.15C717.054 1214.23 692.608 1168.81 682.537 1120.83C673.202 1076.39 693.774 1037.05 713.667 999.005C732.453 963.065 750.201 929.121 744.376 891.521C735.918 836.888 672.681 789.344 621.874 751.142C610.305 742.446 599.378 734.23 590.004 726.587C584.74 722.298 579.353 717.963 573.896 713.57C526.029 675.036 472.502 631.941 446.938 575.967C443.62 568.707 440.778 561.239 438.48 553.53C425.944 511.539 435.323 473.448 445.256 433.116C449.069 417.64 453.01 401.634 455.579 385.434C473.933 269.842 383.086 184.407 295.232 101.789C244.055 53.6589 195.715 8.20031 167.276 -42.9011L174.143 -46.6342C202.064 3.53667 250.024 48.639 300.798 96.3912C389.957 180.238 482.151 266.941 463.227 386.165C460.605 402.671 456.628 418.83 452.778 434.451C443.085 473.814 433.93 510.988 445.925 551.165C465.365 616.296 525.765 664.917 579.051 707.814C584.52 712.215 589.918 716.561 595.193 720.857C604.461 728.412 615.335 736.587 626.847 745.245C678.66 784.195 743.138 832.676 752.029 890.066C758.211 929.988 739.065 966.612 720.548 1002.03C701.256 1038.92 681.313 1077.07 690.12 1119.02C699.99 1166.03 724.195 1211.01 747.61 1254.51C761.473 1280.27 775.81 1306.9 786.781 1333.38C797.543 1359.34 807.815 1385.8 817.746 1411.39C842.632 1475.49 868.355 1541.78 903.168 1603.42L896.319 1607.19C883.516 1584.49 871.93 1561.22 861.181 1537.68Z" fill="#F8C3B3" fill-opacity="0.1"/>
<path fill-rule="evenodd" clip-rule="evenodd" d="M839.441 1589.71C816.28 1539.01 799.428 1486.29 783.005 1434.95C774.654 1408.84 766.014 1381.84 756.632 1355.31C742.648 1315.75 724.813 1276.14 702.115 1234.21C695.156 1221.34 686.687 1208.84 678.505 1196.76C665.519 1177.6 652.087 1157.77 643.899 1135.52C625.084 1084.42 648.53 1040.41 671.203 997.853C690.815 961.051 709.335 926.289 703.406 886.737C695.456 833.774 633.039 785.321 582.876 746.377C570.395 736.687 558.608 727.535 548.813 719.175C543.765 714.862 538.603 710.503 533.365 706.086C486.893 666.857 434.976 623.028 409.721 567.732C406.184 559.987 403.174 552.024 400.771 543.811C388.554 502.058 398.427 464.749 408.881 425.251C412.896 410.073 417.048 394.378 419.842 378.4C439.483 266.003 351.35 185.419 266.117 107.488C216.065 61.7241 168.786 18.4989 141.195 -30.9885L148.056 -34.7236C175.111 13.7891 221.986 56.6442 271.61 102.02C358.215 181.2 447.766 263.083 427.468 379.244C424.622 395.533 420.428 411.382 416.372 426.71C406.182 465.218 396.555 501.591 408.225 541.481C427.204 606.352 486.412 656.338 538.649 700.435C543.898 704.86 549.071 709.228 554.13 713.548C563.795 721.803 575.523 730.907 587.936 740.542C639.07 780.247 702.713 829.657 711.058 885.316C717.344 927.203 697.372 964.684 678.056 1000.93C655.132 1043.96 633.482 1084.6 651.208 1132.75C659.126 1154.22 672.304 1173.69 685.062 1192.53C693.343 1204.74 701.899 1217.38 709.024 1230.54C731.894 1272.8 749.866 1312.73 763.977 1352.62C773.388 1379.24 782.042 1406.3 790.409 1432.46C812.196 1500.56 832.77 1564.88 866.908 1627.2L860.021 1630.88C852.612 1617.36 845.786 1603.61 839.441 1589.71Z" fill="#F8C3B3" fill-opacity="0.1"/>
<path fill-rule="evenodd" clip-rule="evenodd" d="M812.44 1636.18C787.071 1580.63 773.26 1522 759.849 1465.1C750.999 1427.54 741.845 1388.7 729.458 1350.92C718.411 1317.24 702.439 1274.12 676.761 1239.45C668.418 1228.19 658.829 1217.44 649.55 1207.04C628.647 1183.6 607.027 1159.39 597.672 1127.22C584.284 1081.22 606.821 1037.44 628.614 995.085C651.71 950.198 673.528 907.797 655.277 863.6C635.082 814.71 583.002 772.218 537.05 734.738C521.553 722.096 506.913 710.157 494.018 698.463C490.981 695.708 487.9 692.927 484.783 690.113C433.187 643.525 374.702 590.723 359.148 522.614C350.385 484.236 360.837 448.642 370.945 414.226C375.754 397.847 380.727 380.911 383.697 363.645C402.002 257.351 317.913 183.428 236.602 111.938C189.889 70.8728 141.59 28.406 115.105 -19.0756L121.971 -22.812C147.878 23.6372 193.592 63.8283 241.993 106.379C324.734 179.123 410.288 254.345 391.331 364.473C388.283 382.152 383.251 399.296 378.382 415.876C368.082 450.954 358.351 484.085 366.706 520.683C381.779 586.681 439.401 638.713 490.246 684.616C493.365 687.429 496.45 690.217 499.492 692.976C512.25 704.546 526.817 716.428 542.244 729.01C588.831 767.007 641.651 810.141 662.492 860.585C681.976 907.779 658.357 953.677 635.517 998.065C614.382 1039.13 592.528 1081.6 605.131 1124.9C614.057 1155.57 634.207 1178.15 655.543 1202.07C664.923 1212.59 674.622 1223.46 683.152 1234.98C709.41 1270.43 725.644 1314.21 736.848 1348.39C749.325 1386.44 758.515 1425.42 767.401 1463.11C782.342 1526.53 797.79 1592.1 829.183 1652.73L822.218 1656.28C818.78 1649.62 815.522 1642.92 812.44 1636.18Z" fill="#F8C3B3" fill-opacity="0.1"/>
<path fill-rule="evenodd" clip-rule="evenodd" d="M781.104 1677.58C753.567 1617.28 744.721 1553.62 736.158 1491.99C730.953 1454.56 725.577 1415.86 716.087 1377.86C708.129 1346 694.153 1299.7 664.768 1265.51C653.249 1252.1 639.893 1239.78 626.982 1227.87C601.132 1204.01 574.403 1179.35 560.608 1144.56C540.6 1094.1 564.245 1044.6 587.112 996.727C610.692 947.356 632.91 900.758 610.106 853.986C586.531 805.785 539.94 765.409 494.885 726.362C478.844 712.458 463.696 699.332 449.876 686.097C446.789 683.142 443.653 680.153 440.483 677.129C390.398 629.403 333.63 575.304 318.801 507.931C310.431 469.916 320.972 436.791 332.132 401.717C337.221 385.726 342.482 369.188 345.737 352.218C365.428 249.452 284.799 181.636 206.823 116.053C161.458 77.8938 114.544 38.4329 89.0244 -7.15752L95.8838 -10.9063C120.792 33.5908 167.21 72.6352 212.102 110.395C291.598 177.26 373.797 246.404 353.337 353.181C350.003 370.58 344.676 387.33 339.521 403.529C328.662 437.651 318.408 469.88 326.371 506.054C340.75 571.389 396.707 624.715 446.081 671.761C449.26 674.79 452.396 677.779 455.489 680.737C469.184 693.85 484.267 706.927 500.239 720.769C545.822 760.271 592.952 801.118 617.142 850.575C641.531 900.463 617.4 950.75 594.117 999.5C571.926 1045.96 548.976 1094.01 567.858 1141.63C581.09 1174.96 606.054 1198.02 632.501 1222.42C645.558 1234.47 659.06 1246.93 670.844 1260.64C701.179 1295.93 715.486 1343.26 723.612 1375.79C733.19 1414.14 738.596 1453.03 743.822 1490.65C752.958 1556.39 761.589 1618.49 790.562 1679.35L783.495 1682.7C782.682 1681 781.888 1679.28 781.104 1677.58Z" fill="#F8C3B3" fill-opacity="0.1"/>
<path fill-rule="evenodd" clip-rule="evenodd" d="M744.421 1709.49C717.779 1647.13 715.725 1582.67 713.746 1520.34C712.567 1483.39 711.348 1445.17 705.135 1407.13C696.805 1356.12 681.063 1320.21 655.599 1294.11C640.932 1279.1 624.047 1265.6 607.715 1252.55C576.321 1227.45 543.857 1201.5 525.238 1163.34C524.78 1162.4 524.331 1161.45 523.902 1160.51C499.073 1106.14 522.725 1051.68 545.609 998.977C569.06 944.969 591.199 893.995 564.439 843.758C539.498 796.982 495.576 756.916 453.1 718.174C436.106 702.67 420.053 688.031 405.276 673.072C402.115 669.871 398.891 666.627 395.629 663.338C347.128 614.509 292.158 559.16 278.074 492.541C270.109 454.874 281.214 422.654 292.968 388.54C298.342 372.948 303.9 356.824 307.444 340.156C328.561 240.762 251.53 179.315 177.034 119.889C133.021 84.7793 87.5099 48.4756 62.9403 4.76092L69.7949 0.998973C93.7058 43.5445 138.676 79.4216 182.167 114.113C258.305 174.847 337.033 237.647 315.018 341.264C311.382 358.372 305.751 374.717 300.305 390.52C288.882 423.658 278.095 454.958 285.656 490.72C299.322 555.365 353.534 609.949 401.367 658.102C404.635 661.391 407.86 664.642 411.03 667.85C425.677 682.68 441.662 697.263 458.587 712.701C501.498 751.839 545.869 792.312 571.368 840.134C599.73 893.322 575.829 948.304 552.725 1001.5C530.476 1052.75 507.479 1105.72 531.043 1157.32C531.443 1158.19 531.852 1159.06 532.278 1159.93C550.216 1196.7 582.062 1222.16 612.857 1246.77C629.353 1259.96 646.412 1273.59 661.379 1288.93C696.188 1324.59 707.387 1372.61 712.78 1405.62C719.064 1444.1 720.289 1482.55 721.472 1519.74C723.525 1584.27 725.466 1645.22 751.601 1706.39L744.421 1709.49Z" fill="#F8C3B3" fill-opacity="0.1"/>
<path fill-rule="evenodd" clip-rule="evenodd" d="M705.588 1735.99C681.737 1672.68 686.729 1612.37 692.02 1548.5C694.887 1513.82 697.854 1477.97 695.736 1441.65C692.798 1391.1 679.504 1355.42 653.901 1329.36C634.35 1309.44 611.082 1292.94 588.578 1276.97C555.991 1253.86 522.295 1229.95 498.777 1195.11C455.006 1130.27 480.633 1066.68 505.42 1005.19C527.231 951.077 547.835 899.969 526.06 847.017C506.345 799.135 459.11 755.017 417.442 716.147C400.864 700.688 385.206 686.08 371.524 671.649C366.899 666.777 362.12 661.793 357.235 656.703C308 605.389 246.722 541.531 236.135 469.931C231.054 435.536 242.764 404.793 254.092 375.059C260.354 358.62 266.83 341.619 270.493 324.039C290.074 230.036 220.745 178.259 147.34 123.441C104.591 91.5138 60.3892 58.5027 36.854 16.6734L43.7081 12.9129C66.5295 53.4701 110.131 86.0365 152.294 117.524C224.206 171.227 298.561 226.758 278.072 325.118C274.29 343.272 267.708 360.553 261.342 377.265C249.842 407.451 238.98 435.962 243.796 468.523C254.06 537.951 314.494 600.94 363.055 651.555C367.951 656.655 372.744 661.648 377.375 666.533C390.907 680.805 406.491 695.341 422.986 710.727C465.175 750.081 512.997 794.7 533.275 844.008C556.13 899.579 534.008 954.459 512.617 1007.53C487.422 1070.04 463.621 1129.05 505.339 1190.88C528.154 1224.67 561.318 1248.2 593.392 1270.95C616.146 1287.1 639.675 1303.8 659.668 1324.15C686.498 1351.47 700.416 1388.55 703.459 1440.85C705.607 1477.67 702.615 1513.79 699.725 1548.71C694.503 1611.76 689.571 1671.32 712.88 1733.16L705.588 1735.99Z" fill="#F8C3B3" fill-opacity="0.1"/>
<path fill-rule="evenodd" clip-rule="evenodd" d="M667.568 1761.54C646.619 1697.35 658.39 1638.66 670.843 1576.52C677.629 1542.7 684.641 1507.72 685.895 1471.71C688.916 1385.09 629.978 1345.1 567.58 1302.78C531.097 1278.03 493.369 1252.44 466.503 1216.38C459.284 1206.69 453.568 1196.99 449.145 1187.31C421.793 1127.43 444.036 1067.94 465.641 1010.15C487.486 951.709 508.118 896.517 483.09 839.717C462.486 793.106 419.408 751.391 377.697 711.078C359.728 693.707 342.756 677.303 328.007 660.916C323.367 655.757 318.551 650.472 313.618 645.058C265.88 592.671 206.467 527.474 196.629 456.795C191.886 422.727 204.137 392.806 215.986 363.874C222.547 347.851 229.332 331.285 233.271 314.026C254.176 222.488 188.015 176.418 117.975 127.636C76.4376 98.7089 33.4823 68.7981 10.7698 28.5899L17.6168 24.8219C39.5572 63.6586 81.8434 93.1094 122.735 121.584C191.583 169.531 262.776 219.108 240.825 315.243C236.745 333.094 229.843 349.947 223.167 366.253C211.162 395.578 199.817 423.28 204.294 455.449C213.838 524.027 272.459 588.352 319.562 640.042C324.504 645.465 329.332 650.763 333.98 655.93C348.566 672.137 365.456 688.459 383.335 705.742C424.874 745.891 467.807 787.388 489.251 834.348C489.586 835.082 489.916 835.814 490.241 836.551C516.411 895.937 494.296 955.1 472.909 1012.31C447.357 1080.67 423.206 1145.22 472.881 1211.89C499.047 1247.01 536.273 1272.26 572.268 1296.67C636.298 1340.11 696.776 1381.14 693.627 1471.56C692.35 1508.16 685.279 1543.43 678.44 1577.55C666.164 1638.76 654.578 1696.55 674.957 1759.02L667.568 1761.54Z" fill="#F8C3B3" fill-opacity="0.1"/>
<path fill-rule="evenodd" clip-rule="evenodd" d="M630.934 1785.51C612.55 1720.35 630.578 1663.24 649.662 1602.79C660.045 1569.88 670.79 1535.85 675.146 1500.32C686.306 1409.45 617.001 1367.04 543.623 1322.15C503.329 1297.49 461.662 1272 434.056 1237.68C377.559 1167.44 392.241 1101.31 415.537 1028.33C418.802 1018.09 422.438 1007.76 426.286 996.824C444.698 944.507 465.62 885.169 442.145 834.67C421.227 789.522 380.012 748.599 340.158 709.028C320.647 689.656 302.221 671.357 286.399 652.881C281.681 647.37 276.76 641.707 271.713 635.892C225.436 582.595 167.845 516.262 158.67 446.539C154.221 412.742 166.958 383.578 179.28 355.372C186.111 339.735 193.176 323.562 197.371 306.592C219.541 216.899 156.164 175.936 89.0616 132.566C48.5592 106.385 6.67691 79.3129 -15.3137 40.5068L-8.47047 36.731C12.6852 74.0612 53.8272 100.654 93.6184 126.374C159.811 169.159 228.258 213.402 204.893 307.933C200.547 325.517 193.349 341.985 186.392 357.914C173.927 386.451 162.151 413.412 166.34 445.245C175.252 512.924 232.091 578.392 277.766 630.998C282.823 636.823 287.755 642.502 292.482 648.023C308.123 666.286 326.456 684.486 345.862 703.759C386.15 743.76 427.811 785.125 449.245 831.391C473.902 884.497 452.468 945.243 433.603 998.845C429.773 1009.73 426.158 1020.01 422.92 1030.14C399.454 1103.67 385.84 1165.3 440.279 1232.98C467.119 1266.35 508.25 1291.52 548.028 1315.86C620.056 1359.93 694.528 1405.5 682.837 1500.79C678.388 1537 667.545 1571.35 657.061 1604.57C638.305 1663.99 620.589 1720.11 638.403 1783.25L630.934 1785.51Z" fill="#F8C3B3" fill-opacity="0.1"/>
<path fill-rule="evenodd" clip-rule="evenodd" d="M596.264 1807.25C579.706 1741.17 603.174 1685.4 628.023 1626.36C641.503 1594.33 655.438 1561.22 662.397 1526.25C680.957 1432.98 597.81 1386.2 517.392 1340.98C473.728 1316.42 428.578 1291.02 400.774 1258.51C342.929 1190.86 347.564 1128.71 376.341 1037.67C379.858 1026.56 383.806 1015.33 387.988 1003.44C407.38 948.282 429.483 885.748 403.999 832.793C383.115 789.163 343.525 749.196 305.24 710.547C284.167 689.276 264.264 669.183 247.474 648.674C242.65 642.78 237.591 636.699 232.391 630.444C187.444 576.394 131.513 509.122 122.864 440.35C118.644 406.755 131.806 378.235 144.538 350.659C151.606 335.35 158.914 319.52 163.328 302.789C186.67 214.302 125.498 177.543 60.737 138.625C21.0323 114.769 -20.0195 90.0969 -41.4009 52.4208L-34.5583 48.6382C-14.0754 84.7356 26.1689 108.92 65.0871 132.307C129.205 170.837 195.502 210.678 170.82 304.244C166.239 321.604 158.791 337.737 151.589 353.343C138.725 381.205 126.575 407.522 130.544 439.094C138.939 505.883 194.163 572.3 238.54 625.662C243.75 631.932 248.82 638.028 253.655 643.933C270.24 664.188 290.033 684.17 310.984 705.319C349.672 744.376 389.681 784.763 411.062 829.433C411.368 830.077 411.675 830.729 411.969 831.373C437.138 886.491 414.93 949.648 395.306 1005.46C391.143 1017.29 387.211 1028.47 383.736 1039.47C355.722 1128.08 351.106 1188.46 406.862 1253.66C433.858 1285.22 478.449 1310.3 521.566 1334.55C604.151 1381 689.545 1429.03 669.993 1527.25C662.89 1562.95 648.8 1596.43 635.18 1628.8C610.813 1686.7 587.801 1741.38 603.784 1805.19L596.264 1807.25Z" fill="#F8C3B3" fill-opacity="0.1"/>
<path fill-rule="evenodd" clip-rule="evenodd" d="M564.137 1826.13C548.191 1759.25 575.978 1704.44 605.389 1646.41C621.274 1615.08 637.696 1582.67 646.516 1548.24C659.193 1498.73 649.928 1468.18 613.463 1439.29C581.276 1413.81 543.953 1394.38 507.858 1375.58C457.583 1349.42 405.605 1322.36 366.025 1278.36C302.539 1207.79 307.297 1143.16 338.285 1048.58C342.164 1036.73 346.585 1024.69 351.262 1011.94C372.283 954.675 396.036 889.805 369.458 834.97C348.953 792.808 310.597 753.902 273.509 716.277C250.928 693.369 229.598 671.734 212.02 649.426C207.052 643.112 201.81 636.577 196.409 629.835C152.63 575.219 98.1515 507.246 89.878 439.423C85.7983 405.943 99.2964 377.949 112.347 350.875C119.606 335.826 127.11 320.262 131.695 303.702C156.038 215.779 96.3337 182.014 33.1138 146.267C-6.06165 124.114 -46.5692 101.203 -67.4873 64.3333L-60.6459 60.5536C-40.6771 95.7558 -1.0327 118.172 37.3026 139.852C100.066 175.345 164.967 212.05 139.163 305.244C134.398 322.451 126.746 338.325 119.342 353.677C106.172 380.994 93.7317 406.793 97.5614 438.191C105.593 504.08 159.401 571.21 202.636 625.15C208.049 631.904 213.302 638.461 218.288 644.783C235.624 666.793 256.82 688.296 279.264 711.06C316.745 749.08 355.502 788.399 376.5 831.571C404.49 889.078 380.06 955.453 358.547 1014.06C353.891 1026.74 349.496 1038.73 345.654 1050.45C315.489 1142.52 310.754 1205.32 371.999 1273.38C410.723 1316.42 462.118 1343.17 511.822 1369.05C548.224 1387.99 585.856 1407.6 618.579 1433.51C657.57 1464.4 667.516 1496.96 654.018 1549.65C644.997 1584.88 628.386 1617.65 612.317 1649.35C583.529 1706.15 556.334 1759.79 571.68 1824.14L564.137 1826.13Z" fill="#F8C3B3" fill-opacity="0.1"/>
<path fill-rule="evenodd" clip-rule="evenodd" d="M535.124 1841.51C517.909 1774.06 550.08 1716.95 581.185 1661.74C597.92 1632.03 615.214 1601.33 625.221 1568.84C639.69 1521.84 632.575 1490.31 601.461 1463.39C566.056 1432.77 521.591 1411.96 478.587 1391.85C431.468 1369.81 382.745 1347.03 344.1 1310.95C299.046 1268.87 278.171 1225.37 278.418 1174.05C278.635 1128.67 294.529 1081.97 316.959 1020.96L319.015 1015.37C344.274 946.815 370.385 875.928 320.891 815.805C300.65 791.225 278.753 767.371 257.574 744.299C228.463 712.589 198.36 679.797 171.935 644.46C166.93 637.773 161.58 630.782 156.032 623.536C114.855 569.721 63.6107 502.752 59.5785 437.855C57.6701 407.202 70.7959 381.214 83.4879 356.083C91.503 340.215 99.7913 323.807 104.213 306.352C117.662 253.295 90.6911 195.304 40.0889 168.456C25.1625 160.538 11.406 154.709 -1.90172 149.07C-37.5723 133.954 -68.3769 120.898 -93.5772 76.238L-86.7284 72.4739C-62.6925 115.07 -34.3497 127.077 1.53373 142.283C14.9855 147.983 28.8973 153.881 44.1066 161.948C97.5121 190.288 125.949 251.596 111.725 307.735C107.098 325.988 98.6203 342.775 90.4196 359.01C77.6118 384.374 65.5087 408.329 67.2952 437.033C71.2053 499.845 121.744 565.895 162.356 618.969C167.919 626.242 173.284 633.252 178.303 639.96C204.522 675.017 234.505 707.675 263.499 739.264C284.74 762.401 306.701 786.326 327.061 811.05C379.093 874.229 352.249 947.061 326.294 1017.5L324.241 1023.08C284.677 1130.69 253.433 1215.69 349.65 1305.53C387.472 1340.84 435.663 1363.38 482.268 1385.18C525.723 1405.5 570.653 1426.53 606.807 1457.8C640.319 1486.78 648.047 1520.52 632.624 1570.59C622.38 1603.86 604.878 1634.92 587.952 1664.96C556.158 1721.41 526.126 1774.73 542.646 1839.4L535.124 1841.51Z" fill="#F8C3B3" fill-opacity="0.1"/>
<path fill-rule="evenodd" clip-rule="evenodd" d="M509.687 1852.52C495.119 1785.51 524.747 1731.81 556.107 1674.96C572.864 1644.58 590.184 1613.19 600.061 1579.6C613.744 1533.07 606.149 1501.84 574.682 1475.16C539.381 1445.24 495.615 1424.74 453.293 1404.91C405.86 1382.68 356.81 1359.7 317.839 1323.07C218.95 1230.15 251.81 1138.9 289.862 1033.24L292.257 1026.61C316.859 958.499 342.287 888.076 294.898 827.532C273.112 799.703 248.859 772.891 225.403 746.96C199.27 718.071 172.25 688.202 148.312 656.592C143.202 649.846 137.752 642.822 132.115 635.547C90.9546 582.458 39.7354 516.387 35.8377 451.242C34.024 420.95 46.001 394.38 57.5874 368.687C64.8881 352.487 72.4392 335.735 76.4437 318.217C88.5539 265.169 63.8561 207.729 16.3752 178.531C-0.74112 168.007 -17.2042 161.011 -33.1265 154.246C-65.3747 140.545 -95.8317 127.603 -119.611 88.2381L-112.865 84.2985C-90.252 121.731 -62.1851 133.656 -29.6839 147.466C-13.5139 154.338 3.20944 161.442 20.7915 172.255C70.778 202.99 96.7642 263.514 83.9907 319.43C79.8265 337.673 72.1179 354.774 64.6618 371.311C52.931 397.334 41.8507 421.914 43.5574 450.438C47.3267 513.463 97.8343 578.605 138.412 630.95C144.068 638.244 149.534 645.293 154.652 652.056C178.412 683.426 205.331 713.182 231.364 741.958C254.904 767.98 279.24 794.885 301.177 822.911C350.917 886.471 324.812 958.767 299.553 1028.69L297.161 1035.32C254.169 1154.69 232.437 1232.19 323.401 1317.67C361.551 1353.51 410.068 1376.25 456.983 1398.24C499.738 1418.26 543.95 1438.98 579.976 1469.52C613.854 1498.23 622.082 1531.64 607.497 1581.25C597.387 1615.63 579.861 1647.4 562.912 1678.13C532.233 1733.73 503.26 1786.24 517.262 1850.65L509.687 1852.52Z" fill="#F8C3B3" fill-opacity="0.1"/>
<path fill-rule="evenodd" clip-rule="evenodd" d="M487.699 1859.46C477.182 1794.48 503.486 1742.57 531.343 1687.61C548.123 1654.5 565.472 1620.27 573.901 1582.94C584.849 1534.48 574.658 1505.94 536.299 1477.6C503.892 1453.66 467.02 1435.18 431.361 1417.32C378.345 1390.73 323.517 1363.26 281.874 1317.22C217.73 1246.33 222.617 1178.25 252.746 1084.62C256.903 1071.7 261.721 1058.53 266.825 1044.59C287.818 987.229 311.612 922.226 287.686 866.785C268.526 822.491 229.724 781.664 192.146 742.149C172.779 721.783 154.486 702.551 139.043 683.137C133.987 676.778 128.695 670.239 123.265 663.53C80.5733 610.781 27.4371 545.133 18.3963 477.675C14.042 445.2 23.7992 415.28 33.2323 386.348C38.4095 370.465 43.762 354.046 46.7744 337.295C56.5814 282.763 35.7746 225.24 -6.22293 190.752C-24.9593 175.365 -45.544 166.58 -65.4484 158.082C-95.6107 145.211 -124.1 133.052 -145.623 100.256L-139.014 96.0998C-118.649 127.127 -91.1293 138.873 -61.9973 151.306C-41.6179 160.006 -20.5415 169 -1.01146 185.038C42.8894 221.089 64.6411 281.199 54.3952 338.176C51.2908 355.426 45.8586 372.091 40.6029 388.207C30.9988 417.663 21.9292 445.488 26.0665 476.363C34.8574 541.914 87.3174 606.736 129.473 658.82C134.913 665.541 140.219 672.097 145.288 678.473C160.54 697.648 178.728 716.773 197.988 737.024C235.983 776.973 275.294 818.209 294.857 863.669C319.88 921.651 295.565 988.083 274.107 1046.7C269.031 1060.57 264.238 1073.67 260.129 1086.45C230.085 1179.81 225.6 1243.44 287.834 1312.23C328.59 1357.27 382.804 1384.44 435.23 1410.72C471.161 1428.73 508.315 1447.36 541.225 1471.66C581.707 1501.57 592.988 1533.1 581.46 1584.13C572.823 1622.36 555.254 1657.03 538.268 1690.55C510.974 1744.41 485.197 1795.26 495.341 1857.96L487.699 1859.46Z" fill="#F8C3B3" fill-opacity="0.1"/>
<path fill-rule="evenodd" clip-rule="evenodd" d="M468.606 1863.12C460.752 1801.08 484.41 1748.03 507.287 1696.72C522.762 1662.02 538.768 1626.13 545.424 1587.16C553.45 1540.18 541.921 1511.03 504.299 1483.19C473.73 1460.56 439.213 1442.59 405.827 1425.21C353.924 1398.2 300.247 1370.28 259.953 1324.14C199.224 1254.59 203.467 1187.54 231.324 1095.25C235.298 1082.08 239.913 1068.72 244.797 1054.58C265.122 995.711 286.136 934.843 264.54 880.099C246.222 833.671 207.008 791.561 169.078 750.83C153.017 733.58 137.844 717.284 124.495 700.953C120.19 695.685 115.77 690.338 111.286 684.912C66.8381 631.117 16.4614 570.146 4.49117 501.702C-1.18193 469.237 4.65977 437.356 10.3136 406.524C13.3976 389.688 16.5877 372.279 17.873 354.951C21.9644 299.809 2.66192 241.524 -32.4947 202.852C-50.6688 182.856 -74.2802 172.982 -97.1171 163.432C-124.132 152.133 -152.064 140.451 -171.661 112.245L-165.153 107.937C-146.721 134.464 -120.973 145.233 -93.7146 156.633C-70.1452 166.487 -45.7786 176.683 -26.5442 197.839C9.83504 237.862 29.8127 298.119 25.5899 355.094C24.2729 372.804 21.0485 390.406 17.9251 407.43C12.1335 439.035 6.66272 468.886 12.1199 500.115C23.7755 566.775 73.5405 627.008 117.448 680.146C121.94 685.585 126.366 690.941 130.682 696.216C143.886 712.372 158.986 728.589 174.971 745.757C213.338 786.956 253.022 829.57 271.792 877.176C294.334 934.317 271.911 999.26 252.126 1056.56C247.267 1070.63 242.679 1083.92 238.745 1096.95C210.95 1189.03 207.053 1251.72 265.998 1319.22C305.416 1364.37 358.478 1391.98 409.792 1418.68C443.426 1436.18 478.202 1454.29 509.226 1477.25C549.308 1506.91 561.596 1537.97 553.054 1587.98C546.24 1627.87 530.038 1664.2 514.376 1699.32C490.879 1752.02 468.679 1801.8 476.287 1861.85L468.606 1863.12Z" fill="#F8C3B3" fill-opacity="0.1"/>
<path fill-rule="evenodd" clip-rule="evenodd" d="M451.85 1864.12C445.756 1806.04 465.089 1754.46 483.791 1704.58C497.582 1667.8 511.84 1629.76 515.969 1589.12C520.637 1543.16 507.919 1514.46 470.607 1486.77C442.06 1465.58 410.06 1448.31 379.108 1431.6C328.481 1404.27 276.136 1376.01 237.41 1329.86C224.41 1314.36 214.568 1298.96 207.448 1283.36C183.353 1230.61 190.261 1175.47 210.334 1105.5C214.177 1092.09 218.646 1078.54 223.379 1064.19C242.276 1006.9 261.819 947.65 242.815 893.792C225.54 844.824 185.792 801.524 147.36 759.659C135.096 746.303 123.513 733.682 112.825 721.059L106.751 713.892C61.595 660.647 10.4097 600.296 -5.99841 529.445C-13.676 496.302 -12.5995 462.269 -11.558 429.355C-10.9907 411.425 -10.4076 392.883 -11.2489 374.726C-13.8517 318.661 -32.1701 259.198 -60.2657 215.668C-76.4618 190.573 -101.356 180.619 -127.709 170.083C-153.175 159.901 -179.506 149.371 -197.707 124.207L-191.272 119.796C-174.265 143.31 -150.053 152.993 -124.416 163.239C-98.1724 173.733 -71.0333 184.584 -53.6266 211.554C-24.9072 256.053 -6.17839 316.79 -3.52517 374.018C-2.66802 392.444 -3.25881 411.128 -3.83127 429.194C-4.8558 461.663 -5.91764 495.231 1.55519 527.492C17.5889 596.729 66.0221 653.837 112.862 709.06L118.936 716.227C129.534 728.749 141.07 741.317 153.284 754.624C192.183 796.996 232.4 840.789 250.155 891.111C269.95 947.207 249.121 1010.36 230.744 1066.08C226.034 1080.35 221.588 1093.83 217.784 1107.1C192.433 1195.48 188.521 1259.48 243.542 1325.05C281.405 1370.18 333.141 1398.11 383.171 1425.12C414.35 1441.94 446.584 1459.35 475.543 1480.85C514.61 1509.85 528.552 1541.3 523.663 1589.45C519.445 1631.03 505.009 1669.53 491.057 1706.75C471.805 1758.1 453.625 1806.59 459.542 1863.01L451.85 1864.12Z" fill="#F8C3B3" fill-opacity="0.1"/>
<path fill-rule="evenodd" clip-rule="evenodd" d="M436.829 1863.14C431.949 1810.65 446.74 1761.62 461.04 1714.2C473.168 1673.99 485.705 1632.4 485.782 1589.43C485.936 1506.21 409.999 1463.84 336.564 1422.87C290.771 1397.32 243.428 1370.89 214.399 1334.71C203.829 1321.53 195.711 1308.27 189.647 1295C158.969 1227.84 180.754 1159.76 201.934 1093.55C221.307 1032.98 241.341 970.347 222.149 907.788C206.108 855.514 163.717 809.188 126.318 768.316C118.281 759.534 110.688 751.238 103.323 742.885C51.4225 684.039 6.77348 629.659 -13.9267 559.984C-24.2061 525.394 -28.4948 489.17 -32.643 454.144C-34.9069 435.034 -37.2453 415.271 -40.5281 396.05C-49.9899 340.691 -67.7033 279.816 -89.1292 229.034C-102.087 198.319 -128.682 188.466 -156.86 177.969C-181.215 168.895 -206.401 159.514 -223.769 136.158L-217.39 131.673C-201.263 153.354 -177.099 162.357 -153.731 171.061C-125.367 181.629 -96.0217 192.59 -81.9356 225.968C-60.3167 277.213 -42.4408 338.634 -32.8973 394.493C-29.583 413.887 -27.23 433.74 -24.9568 452.935C-20.8454 487.679 -16.5921 523.602 -6.48013 557.627C13.828 625.96 57.9893 679.721 109.342 737.951C116.664 746.258 124.236 754.528 132.251 763.288C170.14 804.693 213.091 851.623 229.576 905.373C249.412 970.018 229.029 1033.74 209.317 1095.37C183.382 1176.46 158.887 1253.06 220.627 1330.02C248.794 1365.14 295.524 1391.22 340.715 1416.44C415.91 1458.39 493.67 1501.78 493.518 1589.05C493.441 1633.07 480.739 1675.18 468.459 1715.91C454.361 1762.65 439.785 1811 444.533 1862.11L436.829 1863.14Z" fill="#F8C3B3" fill-opacity="0.1"/>
<path fill-rule="evenodd" clip-rule="evenodd" d="M422.989 1860.83C418.894 1813.71 429.229 1767.21 439.229 1722.23C448.959 1678.46 459.023 1633.17 455.133 1588.51C448.294 1509.81 381.765 1471.13 311.337 1430.18C266.523 1404.12 220.183 1377.18 191.065 1338.96C131.314 1260.55 156.462 1179.47 180.772 1101.05C198.901 1042.58 217.643 982.133 202.201 921.966C187.582 865.022 143.341 817.505 104.303 775.579C101.273 772.322 98.2582 769.085 95.2785 765.868C43.702 710.165 4.33486 659.341 -20.1239 592.376C-33.5345 555.666 -43.523 517.286 -53.1852 480.169C-58.4764 459.847 -63.9457 438.834 -69.9071 418.372C-75.4971 399.176 -82.4758 380.194 -89.222 361.84C-93.6966 349.667 -98.3205 337.082 -102.522 324.499C-108.128 307.715 -110.54 291.366 -112.875 275.556C-114.444 264.904 -116.075 253.888 -118.665 242.785C-127.182 206.328 -155.017 196.888 -184.498 186.899C-208.266 178.843 -232.842 170.511 -249.835 148.096L-243.494 143.56C-227.81 164.248 -204.309 172.215 -181.581 179.918C-151.553 190.095 -120.498 200.624 -111.116 240.822C-108.457 252.201 -106.808 263.363 -105.218 274.154C-102.821 290.382 -100.557 305.71 -95.1439 321.924C-90.9761 334.412 -86.3663 346.946 -81.9118 359.071C-75.1249 377.533 -68.1072 396.626 -62.4495 416.052C-56.4611 436.605 -50.9796 457.67 -45.6771 478.037C-36.0556 514.997 -26.1067 553.218 -12.8072 589.621C11.2583 655.52 50.1713 705.713 101.185 760.811C104.16 764.024 107.17 767.255 110.196 770.505C149.793 813.033 194.673 861.247 209.717 919.858C225.651 981.944 206.601 1043.38 188.181 1102.81C163.305 1183.05 139.791 1258.83 197.398 1334.41C225.677 1371.51 271.393 1398.09 315.605 1423.81C384.467 1463.86 455.678 1505.28 462.836 1587.52C466.821 1633.26 456.634 1679.1 446.783 1723.42C436.908 1767.86 426.695 1813.8 430.696 1859.84L422.989 1860.83Z" fill="#F8C3B3" fill-opacity="0.1"/>
<path fill-rule="evenodd" clip-rule="evenodd" d="M148.34 1310.79C117.468 1243.19 138.714 1172.89 159.321 1104.72C177.723 1043.83 196.755 980.874 178.386 920.271C161.507 864.594 120.714 822.998 81.2663 782.77L80.7857 782.279C1.53749 701.465 -36.0805 604.048 -75.9103 500.916C-82.7261 483.267 -89.776 465.014 -96.9883 447.019C-103.051 431.89 -109.689 416.64 -116.103 401.891C-123.769 384.277 -131.694 366.068 -138.729 347.862C-147.863 324.254 -147.925 305.946 -148.001 284.747C-148.026 276.618 -148.058 268.212 -148.623 259.002C-151.319 215.132 -178.803 206.731 -210.626 197.001C-234.217 189.783 -258.613 182.325 -275.898 160.037L-269.601 155.442C-253.694 175.95 -230.427 183.067 -207.927 189.949C-175.002 200.022 -143.897 209.527 -140.903 258.187C-140.324 267.599 -140.296 276.109 -140.266 284.338C-140.194 304.847 -140.132 322.561 -131.461 344.987C-124.474 363.059 -116.578 381.206 -108.941 398.755C-102.505 413.546 -95.8487 428.844 -89.7495 444.066C-82.5209 462.101 -75.4637 480.375 -68.6369 498.048C-29.0683 600.502 8.30392 697.279 86.5522 777.074L87.0338 777.567C127.064 818.39 168.456 860.601 185.819 917.881C204.804 980.504 185.454 1044.52 166.741 1106.43C143.699 1182.66 121.945 1254.67 164.828 1325.19C192.836 1371.28 242.131 1401.26 289.797 1430.28C351.876 1468.06 416.056 1507.15 431.25 1581.82C441.219 1630.83 433.618 1682.88 426.262 1733.24C420.276 1774.19 414.093 1816.54 417.458 1856.86L409.746 1857.83C406.313 1816.7 412.563 1773.94 418.604 1732.58C425.867 1682.84 433.383 1631.41 423.659 1583.58C409.061 1511.84 348.997 1475.28 285.41 1436.58C237.014 1407.13 186.985 1376.67 158.093 1329.15C154.382 1323.07 151.145 1316.94 148.34 1310.79Z" fill="#F8C3B3" fill-opacity="0.1"/>
<path fill-rule="evenodd" clip-rule="evenodd" d="M128.413 1319.67C97.2781 1251.5 118.259 1180.19 138.592 1111.07C155.701 1052.89 173.395 992.739 159.93 934.785C147.09 879.556 111.962 842.772 74.0053 806.879C-1.00158 735.954 -45.4387 640.441 -88.41 548.068C-100.42 522.254 -112.84 495.56 -125.628 470.123C-130.858 459.718 -136.508 449.09 -141.969 438.814C-154.409 415.414 -167.269 391.216 -176.93 366.541C-187.368 339.873 -184.72 320.784 -181.655 298.682C-180.553 290.745 -179.416 282.535 -178.746 273.264C-175.176 223.56 -201.969 216.355 -235.9 207.241C-258.654 201.131 -284.444 194.203 -301.964 171.97L-295.702 167.332C-279.639 187.715 -256.158 194.02 -233.453 200.117C-199.303 209.29 -167.043 217.958 -171.033 273.387C-171.719 282.894 -172.871 291.221 -173.987 299.278C-177.038 321.274 -179.448 338.651 -169.667 363.643C-160.153 387.944 -147.386 411.967 -135.037 435.198C-129.558 445.509 -123.893 456.167 -118.624 466.644C-105.792 492.176 -93.3472 518.917 -81.3187 544.778C-38.6174 636.564 5.53535 731.473 79.5881 801.495C118.335 838.135 154.212 875.75 167.485 932.831C181.369 992.578 163.403 1053.66 146.028 1112.73C123.762 1188.42 102.742 1259.92 142.297 1329.65C169.758 1378.08 218.065 1408.93 264.786 1438.76C321.059 1474.7 379.239 1511.85 399.896 1579.74C415.729 1631.81 411.31 1689.66 407.036 1745.61C404.276 1781.73 401.422 1819.09 404.239 1853.84L396.529 1854.79C393.667 1819.49 396.544 1781.84 399.323 1745.45C403.553 1690.14 407.921 1632.95 392.465 1582.13C372.56 1516.69 318.011 1481.85 260.265 1444.97C212.815 1414.68 163.756 1383.35 135.444 1333.44C132.855 1328.87 130.513 1324.28 128.413 1319.67Z" fill="#F8C3B3" fill-opacity="0.1"/>
<path fill-rule="evenodd" clip-rule="evenodd" d="M108.647 1329.22C77.0927 1260.14 97.8652 1187.07 117.983 1116.31C133.684 1061.07 149.921 1003.96 141.126 949.173C132.766 897.058 106.386 865.293 66.5468 830.927C22.7527 793.147 -2.73485 754.45 -31.9561 700.373C-58.2953 651.637 -87.503 603.386 -115.753 556.725C-128.433 535.771 -141.55 514.102 -154.24 492.671C-159.501 483.785 -165.219 474.604 -170.743 465.721C-186.943 439.703 -203.699 412.798 -214.636 384.916C-225.981 356.022 -220.725 336.341 -214.641 313.548C-212.472 305.419 -210.23 297.013 -208.457 287.403C-198.28 232.13 -225.731 225.758 -260.487 217.688C-283.762 212.284 -310.137 206.16 -328.034 183.909L-321.806 179.218C-305.458 199.55 -281.48 205.115 -258.3 210.497C-222.894 218.717 -189.456 226.481 -200.846 288.314C-202.668 298.209 -204.948 306.758 -207.157 315.022C-213.151 337.488 -217.89 355.236 -207.378 382.009C-196.66 409.305 -180.079 435.945 -164.045 461.702C-158.495 470.614 -152.76 479.829 -147.461 488.779C-134.792 510.186 -121.681 531.835 -109.008 552.777C-80.7159 599.51 -51.4632 647.83 -25.0483 696.715C3.79541 750.09 28.9049 788.242 71.8897 825.325C111.768 859.722 140.101 893.696 148.773 947.683C157.814 1004.01 141.353 1061.91 125.435 1117.9C103.905 1193.65 83.6068 1265.22 119.886 1334.39C146.433 1384.99 194.245 1417.12 240.484 1448.19C291.493 1482.46 344.259 1517.96 368.759 1578.22C391.701 1634.63 390.526 1699.48 389.385 1762.18C388.845 1791.98 388.286 1822.8 390.481 1851.47L382.771 1852.39C380.551 1823.39 381.115 1792.39 381.657 1762.43C382.781 1700.43 383.944 1636.32 361.53 1581.2C337.797 1522.79 288.266 1489.56 235.82 1454.31C188.861 1422.75 140.295 1390.11 112.935 1337.98C111.409 1335.06 109.979 1332.15 108.647 1329.22Z" fill="#F8C3B3" fill-opacity="0.1"/>
<path fill-rule="evenodd" clip-rule="evenodd" d="M89.2529 1339.99C58.089 1271.74 78.0065 1193.54 97.2747 1117.86C122.819 1017.54 146.946 922.776 57.6959 853.831C11.1405 817.869 -11.0583 779.634 -39.1587 731.234C-69.1351 679.613 -103.709 629.504 -137.144 581.049C-152.223 559.191 -167.819 536.592 -182.791 514.143C-188.279 505.913 -194.046 497.687 -200.154 488.981C-219.559 461.309 -239.617 432.697 -251.329 402.673C-263.292 371.999 -255.582 351.717 -246.656 328.233C-243.466 319.836 -240.166 311.157 -237.397 301.212C-227.294 264.907 -223.861 241.756 -261.347 226.408C-272.662 221.774 -285.295 222.236 -297.51 222.683C-319.461 223.488 -342.134 224.326 -354.6 195.016L-347.412 191.935C-336.943 216.696 -318.587 216.073 -297.405 215.298C-284.348 214.819 -270.849 214.325 -257.995 219.588C-215.318 237.066 -219.443 265.084 -229.93 302.761C-232.789 313.036 -236.152 321.881 -239.403 330.435C-248.147 353.437 -255.053 371.606 -244.066 399.781C-232.665 429.052 -212.832 457.31 -193.663 484.649C-187.532 493.388 -181.74 501.642 -176.207 509.944C-161.267 532.347 -145.686 554.925 -130.622 576.761C-97.1123 625.325 -62.4608 675.541 -32.3567 727.393C-4.63103 775.146 17.2675 812.859 62.742 847.985C155.595 919.709 129.767 1021.15 104.782 1119.25C85.5388 1194.83 65.6501 1272.9 97.7419 1339.66C123.085 1392.33 171.056 1426.19 217.44 1458.95C263.653 1491.59 311.441 1525.34 338.099 1577.87C369.806 1640.34 371.509 1713.84 373.156 1784.91C373.661 1806.64 374.178 1829.13 375.604 1850.42L367.885 1851.27C366.445 1829.83 365.93 1807.26 365.425 1785.44C363.8 1715.16 362.113 1642.47 331.107 1581.36C305.224 1530.37 258.156 1497.12 212.635 1464.98C165.524 1431.7 116.805 1397.3 90.6885 1343.03C90.1964 1342.02 89.7197 1341 89.2529 1339.99Z" fill="#F8C3B3" fill-opacity="0.1"/>
<path fill-rule="evenodd" clip-rule="evenodd" d="M70.8469 1355.38C69.5473 1352.54 68.3169 1349.65 67.152 1346.72C38.1117 1273.49 57.2729 1192.71 75.809 1114.6C86.3499 1070.18 97.2486 1024.24 98.5444 981.353C100.099 929.907 90.1634 909.104 52.3226 884.572C7.57178 855.56 -10.9484 825.725 -36.5726 784.429C-38.5623 781.229 -40.5954 777.951 -42.6927 774.595C-77.9485 718.106 -121.07 665.226 -162.769 614.089C-181.744 590.818 -201.366 566.753 -219.973 542.685C-225.695 535.283 -231.811 527.753 -238.282 519.783C-261.4 491.31 -287.593 459.051 -299.981 425.984C-313.408 390.14 -298.774 364.813 -281.834 335.492C-278.497 329.714 -275.045 323.741 -271.736 317.537C-258.103 291.977 -254.065 272.475 -259.395 257.926C-263.416 246.935 -272.632 238.827 -287.591 233.065C-299.566 228.45 -313.382 230.505 -326.742 232.489C-349.656 235.901 -373.354 239.421 -387.123 209.804L-380.027 206.514C-368.512 231.28 -349.528 228.457 -327.539 225.189C-313.152 223.048 -298.273 220.837 -284.383 226.188C-267.625 232.647 -256.758 242.389 -252.079 255.163C-246.026 271.702 -250.213 293.111 -264.881 320.618C-268.255 326.939 -271.74 332.969 -275.11 338.802C-291.115 366.511 -304.943 390.443 -292.684 423.174C-280.696 455.19 -254.868 486.996 -232.078 515.062C-225.58 523.067 -219.442 530.628 -213.671 538.099C-195.118 562.093 -175.525 586.12 -156.575 609.359C-114.742 660.662 -71.4836 713.71 -35.9983 770.567C-33.8965 773.933 -31.8591 777.212 -29.8685 780.419C-3.77993 822.459 13.4569 850.231 56.8855 878.386C100.938 906.941 107.724 933.174 106.275 981.18C104.955 1024.81 93.9735 1071.1 83.3495 1115.87C65.0667 1192.91 46.1595 1272.59 74.4042 1343.8C97.1224 1401.01 147.119 1439.29 195.487 1476.3C233.142 1505.11 272.081 1534.91 298.91 1573.77C355.144 1655.26 357.623 1756.48 359.807 1845.79L352.078 1846.34C349.917 1758.01 347.467 1657.87 292.392 1578.06C266.179 1540.1 227.689 1510.64 190.466 1482.17C143.789 1446.45 95.5985 1409.57 70.8469 1355.38Z" fill="#F8C3B3" fill-opacity="0.1"/>
<path fill-rule="evenodd" clip-rule="evenodd" d="M52.4378 1369.54C50.285 1364.84 48.312 1360.02 46.5357 1355.04C18.9517 1278.05 37.2959 1191.32 55.0341 1107.45C63.4187 1067.8 71.339 1030.36 74.6324 994.102C79.1526 944.354 73.8165 922.721 34.8219 900.429C-11.1094 874.178 -27.7896 847.144 -53.0413 806.224C-55.4012 802.405 -57.8326 798.455 -60.3771 794.378C-96.6942 736.091 -142.654 682.468 -187.099 630.606C-207.395 606.924 -228.386 582.436 -248.135 557.871C-253.671 550.994 -259.568 543.973 -265.816 536.539C-290.339 507.367 -318.149 474.293 -330.511 440.059C-343.754 403.395 -326.495 376.677 -308.225 348.392C-304.205 342.173 -300.048 335.739 -296.132 329.083C-280.041 301.74 -274.866 280.893 -280.306 265.361C-284.19 254.278 -293.889 245.824 -309.132 240.242C-321.653 235.653 -336.183 238.63 -350.237 241.513C-373.766 246.335 -398.1 251.325 -413.152 221.829L-406.17 218.315C-393.603 242.926 -374.085 238.924 -351.478 234.287C-336.322 231.178 -320.651 227.966 -306.041 233.319C-288.691 239.677 -277.564 249.544 -272.96 262.693C-266.791 280.302 -272.183 303.121 -289.439 332.447C-293.438 339.245 -297.637 345.75 -301.702 352.034C-319.698 379.895 -335.242 403.956 -323.185 437.325C-311.226 470.419 -283.847 502.993 -259.689 531.731C-253.417 539.193 -247.49 546.24 -241.913 553.179C-222.233 577.659 -201.281 602.106 -181.017 625.746C-136.403 677.801 -90.2729 731.627 -53.678 790.354C-51.1314 794.443 -48.69 798.397 -46.3255 802.226C-21.6341 842.243 -5.32071 868.675 39.0378 894.033C81.9394 918.559 86.9385 943.695 82.3384 994.364C79.0056 1031.04 71.0438 1068.69 62.6113 1108.55C45.0739 1191.46 26.9436 1277.19 53.8669 1352.32C75.3336 1412.25 126.632 1452.69 176.239 1491.77C210.285 1518.6 245.49 1546.34 271.3 1580.34C328.579 1655.82 339.449 1743.81 338.136 1852.71L330.401 1853.01C331.702 1745.53 321.069 1658.81 264.959 1584.89C239.677 1551.6 204.835 1524.14 171.138 1497.58C124.815 1461.07 77.0354 1423.4 52.4378 1369.54Z" fill="#F8C3B3" fill-opacity="0.1"/>
<path fill-rule="evenodd" clip-rule="evenodd" d="M35.8186 1384.8C32.8815 1378.38 30.2727 1371.73 28.02 1364.84C1.45642 1283.62 18.6013 1192.31 35.1746 1104.02C41.5955 1069.82 47.6592 1037.52 51.2357 1006.01C56.5554 959.168 54.4975 934.676 12.7685 912.549C-36.1882 886.592 -52.2864 859.948 -78.9548 815.807L-83.8421 807.729C-119.844 748.398 -167.279 694.669 -213.155 642.71C-234.004 619.092 -255.564 594.674 -275.686 570.129C-280.786 563.901 -286.189 557.557 -291.911 550.841C-317.108 521.239 -345.67 487.688 -357.795 452.535C-370.497 415.703 -352.498 389.085 -333.448 360.902C-329.06 354.414 -324.525 347.705 -320.29 340.761C-303.433 313.127 -297.68 291.088 -303.185 275.257C-307.129 263.907 -317.106 255.351 -332.84 249.793C-345.575 245.3 -360.482 248.75 -374.901 252.088C-398.928 257.648 -423.775 263.402 -439.226 233.77L-432.268 230.197C-419.401 254.871 -399.45 250.256 -376.347 244.909C-360.8 241.309 -344.719 237.587 -329.835 242.845C-311.941 249.161 -300.5 259.172 -295.832 272.603C-289.602 290.524 -295.603 314.623 -313.659 344.233C-317.987 351.33 -322.58 358.121 -327.017 364.686C-345.781 392.44 -361.989 416.409 -350.437 449.895C-338.738 483.835 -310.617 516.858 -285.81 545.997C-280.071 552.738 -274.651 559.11 -269.502 565.382C-249.463 589.83 -227.947 614.202 -207.138 637.772C-161.065 689.958 -113.426 743.923 -77.1033 803.775L-72.2076 811.866C-46.156 854.979 -30.4334 881.003 16.7848 906.04C60.266 929.099 64.8152 954.514 58.9225 1006.43C55.32 1038.19 49.231 1070.62 42.7848 1104.95C26.3751 1192.37 9.40468 1282.77 35.4123 1362.3C55.7505 1424.53 107.286 1467.02 157.118 1508.12C188.084 1533.67 220.108 1560.08 244.621 1591.09C311.635 1675.86 316.838 1776.4 313.094 1863.59L305.366 1863.67C309.062 1777.76 303.985 1678.74 238.365 1595.75C214.312 1565.32 182.576 1539.15 151.889 1513.83C106.734 1476.58 60.204 1438.19 35.8186 1384.8Z" fill="#F8C3B3" fill-opacity="0.1"/>
<path fill-rule="evenodd" clip-rule="evenodd" d="M21.1196 1413.75C18.1131 1407.15 15.4187 1400.36 13.0857 1393.31C-12.9997 1314.69 0.297502 1227.98 13.1502 1144.15C18.8085 1107.22 24.158 1072.35 26.4095 1037.94C29.9912 983.277 17.7267 952.384 -18.8431 923.958C-60.7604 891.369 -80.7502 858.17 -106.06 816.136C-108.753 811.656 -111.515 807.072 -114.368 802.371C-148.945 745.485 -195.667 694.801 -240.848 645.787C-260.887 624.051 -281.606 601.573 -300.891 578.943C-305.498 573.539 -310.334 568.043 -315.455 562.227C-340.325 533.968 -368.52 501.956 -380.393 467.893C-392.456 433.322 -376.741 407.009 -360.097 379.146C-356.14 372.522 -352.046 365.671 -348.301 358.637C-334.636 332.975 -330.566 312.212 -336.213 296.93C-340.506 285.317 -350.673 276.38 -366.416 270.406C-377.811 266.081 -391.698 268.028 -405.131 269.91C-428.104 273.131 -454.145 276.758 -465.496 245.259L-458.173 242.532C-448.76 268.604 -428.89 265.823 -405.861 262.601C-391.427 260.577 -376.506 258.483 -363.249 263.515C-345.48 270.256 -333.928 280.577 -328.907 294.153C-322.535 311.395 -326.755 334.123 -341.447 361.713C-345.281 368.91 -349.423 375.85 -353.428 382.557C-369.845 410.038 -384.021 433.772 -373.047 465.233C-361.603 498.018 -333.889 529.51 -309.434 557.297C-304.29 563.136 -299.435 568.65 -294.797 574.1C-275.598 596.624 -254.925 619.051 -234.933 640.743C-189.519 690.003 -142.564 740.942 -107.634 798.413C-104.771 803.123 -102.004 807.712 -99.3033 812.2C-74.3677 853.621 -54.6696 886.338 -13.7803 918.124C30.402 952.481 37.306 989.466 34.1287 1038.02C31.8533 1072.74 26.2339 1109.39 20.7979 1144.84C8.06709 1227.87 -5.08954 1313.71 20.4646 1390.75C40.9024 1452.39 90.0959 1495.59 137.669 1537.37C166.625 1562.8 196.578 1589.1 220.033 1619.43C282.301 1699.99 288.056 1795.94 285.468 1879.18L277.744 1879.35C280.287 1797.35 274.677 1702.87 213.734 1624.03C190.688 1594.22 160.993 1568.14 132.278 1542.93C89.3793 1505.24 45.1845 1466.44 21.1196 1413.75Z" fill="#F8C3B3" fill-opacity="0.1"/>
<path fill-rule="evenodd" clip-rule="evenodd" d="M3.23335 1457.58C0.963148 1452.62 -1.13073 1447.53 -3.05208 1442.32C-29.682 1369.83 -22.6531 1290.37 -15.8544 1213.53C-6.96785 1113.1 1.43012 1018.26 -58.3249 936.804C-80.352 906.787 -97.4537 874.887 -113.996 844.04C-124.839 823.821 -136.049 802.916 -148.589 782.613C-180.478 730.995 -225.249 686.294 -268.546 643.061C-287.286 624.347 -306.665 604.997 -324.599 585.466C-328.949 580.725 -333.788 575.697 -338.908 570.374C-361.871 546.524 -390.445 516.84 -398.874 487.066C-408.406 453.397 -396.683 429.028 -383.106 400.809C-379.85 394.033 -376.476 387.025 -373.311 379.663C-354.582 336.075 -362.815 307.589 -398.472 292.572C-413.943 286.059 -426.79 286.236 -438.129 286.392C-457.148 286.652 -473.573 286.877 -491.28 257.786L-484.546 253.824C-468.962 279.429 -455.909 279.247 -437.837 279.002C-425.728 278.834 -412.001 278.645 -395.053 285.78C-355.559 302.416 -345.848 334.84 -366.184 382.162C-369.409 389.672 -372.819 396.757 -376.111 403.607C-389.041 430.483 -400.207 453.692 -391.402 484.792C-383.433 512.918 -355.521 541.921 -333.096 565.219C-327.944 570.571 -323.077 575.627 -318.671 580.427C-300.845 599.849 -281.517 619.145 -262.828 637.805C-219.249 681.316 -174.189 726.313 -141.874 778.614C-129.227 799.093 -117.967 820.092 -107.078 840.398C-90.6448 871.041 -73.6595 902.724 -51.9219 932.355C9.35948 1015.87 0.462818 1116.48 -8.14758 1213.76C-14.8835 1289.85 -21.8405 1368.52 4.26028 1439.54C26.3 1499.49 73.6459 1541.95 119.441 1582.99C147.32 1607.99 176.164 1633.82 199.321 1663.54C254.524 1734.32 258.952 1822.44 255.999 1899.33L248.271 1899.44C251.174 1823.81 246.875 1737.18 193.034 1668.16C170.256 1638.93 141.653 1613.3 113.997 1588.51C71.5125 1550.42 27.701 1511.15 3.23335 1457.58Z" fill="#F8C3B3" fill-opacity="0.1"/>
<path fill-rule="evenodd" clip-rule="evenodd" d="M-16.4543 1506.08C-17.5442 1503.68 -18.5977 1501.26 -19.6169 1498.81C-51.7894 1421.49 -50.4975 1334.18 -49.2417 1249.73C-48.7722 1217.91 -48.2842 1184.99 -49.6951 1153.73C-52.8139 1084.52 -69.5016 1017.93 -100.987 950.228C-111.954 926.554 -121.914 900.963 -131.525 876.244C-147.183 835.955 -163.376 794.296 -184.849 758.548C-212.002 713.338 -254.359 675.961 -295.322 639.815C-312.634 624.534 -330.542 608.735 -346.71 592.798C-350.089 589.463 -353.718 585.989 -357.484 582.392C-378.614 562.186 -404.913 537.047 -413.82 510.02C-423.545 480.53 -414.415 455.704 -404.748 429.417C-401.647 420.996 -398.445 412.292 -395.878 403.357C-383.067 358.813 -393.933 330.271 -429.09 316.102C-442.946 310.519 -454.613 308.823 -464.903 307.325C-485.753 304.291 -502.22 301.898 -517.544 269.381L-510.466 266.06C-496.747 295.159 -483.464 297.09 -463.357 300.015C-452.63 301.574 -440.478 303.342 -425.777 309.267C-387.201 324.817 -374.637 357.01 -388.426 404.965C-391.072 414.162 -394.32 422.997 -397.465 431.54C-406.687 456.612 -415.397 480.294 -406.435 507.465C-398.065 532.873 -372.452 557.355 -351.873 577.031C-348.086 580.654 -344.429 584.152 -341.023 587.512C-324.995 603.316 -307.162 619.047 -289.918 634.262C-248.56 670.76 -205.799 708.498 -178.093 754.623C-156.321 790.869 -140.018 832.804 -124.259 873.359C-114.685 897.982 -104.775 923.435 -93.8907 946.949C-62.105 1015.57 -45.1288 1082.91 -41.9656 1153.01C-40.5476 1184.5 -41.042 1217.53 -41.5127 1249.46C-42.7524 1333.19 -44.039 1419.77 -12.4162 1495.78C11.5589 1553.39 57.1781 1594.75 101.297 1634.77C128.642 1659.55 156.908 1685.18 180.063 1714.58C217.986 1762.74 233.103 1832.96 225.001 1923.29L217.295 1923.04C225.239 1834.52 210.603 1765.96 173.797 1719.21C151.002 1690.28 122.955 1664.85 95.8246 1640.25C52.9983 1601.4 8.76263 1561.29 -16.4543 1506.08Z" fill="#F8C3B3" fill-opacity="0.1"/>
<path fill-rule="evenodd" clip-rule="evenodd" d="M-36.2866 1548.8C-72.0299 1470.52 -77.0181 1380.45 -81.8439 1293.19C-83.1489 1269.59 -84.4984 1245.2 -86.4532 1221.9C-93.4695 1138.45 -110.413 1057.94 -138.258 975.798C-145.844 953.423 -152.61 929.645 -159.774 904.469C-176.948 844.108 -194.708 781.691 -225.366 734.514C-248.782 698.472 -285.073 670.057 -320.172 642.579C-337.713 628.844 -355.855 614.645 -371.882 599.823C-374.115 597.756 -376.423 595.654 -378.773 593.521C-397.602 576.381 -418.937 556.962 -427.315 532.834C-435.636 508.836 -429.42 485.604 -423.412 463.138C-420.171 451.015 -416.814 438.478 -415.887 426.116C-412.492 380.704 -425.416 355.736 -460.504 339.929C-472.314 334.61 -482.459 331.612 -491.407 328.963C-515.018 321.982 -530.604 317.361 -543.748 280.996L-536.43 278.266C-524.475 311.331 -511.792 315.081 -488.776 321.889C-479.599 324.608 -469.191 327.683 -456.915 333.212C-409.433 354.599 -405.634 392.253 -408.179 426.263C-409.148 439.293 -412.595 452.167 -415.927 464.617C-421.922 487.028 -427.586 508.198 -419.961 530.183C-412.166 552.636 -391.511 571.456 -373.287 588.042C-370.925 590.192 -368.609 592.303 -366.357 594.38C-350.544 609.006 -332.518 623.118 -315.09 636.761C-279.54 664.595 -242.78 693.374 -218.733 730.381C-187.521 778.425 -169.621 841.34 -152.305 902.189C-145.162 927.279 -138.418 950.975 -130.891 973.19C-102.864 1055.87 -85.8043 1136.91 -78.746 1220.93C-76.7823 1244.33 -75.4241 1268.77 -74.1218 1292.42C-69.0782 1383.49 -63.8774 1477.65 -23.4616 1557.41C-1.49773 1600.75 32.9304 1636.27 66.2266 1670.62C75.4263 1680.1 84.9404 1689.92 94.0586 1699.75C102.497 1708.87 112.379 1717.56 121.929 1725.97C135.918 1738.31 150.388 1751.04 161.329 1765.8C199.703 1817.58 199.646 1894.56 192.833 1950.01L185.153 1949.53C191.805 1895.34 191.968 1820.25 154.941 1770.28C144.439 1756.1 130.251 1743.62 116.532 1731.53C106.847 1723 96.8387 1714.19 88.1509 1704.81C79.0897 1695.03 69.6035 1685.24 60.4316 1675.79C26.7818 1641.08 -8.02062 1605.18 -30.4596 1560.91C-32.4824 1556.91 -34.4283 1552.86 -36.2866 1548.8Z" fill="#F8C3B3" fill-opacity="0.1"/>
<path fill-rule="evenodd" clip-rule="evenodd" d="M-54.0329 1577.76C-90.6755 1497.54 -100.266 1406.46 -109.566 1318.18C-111.892 1296.11 -114.3 1273.27 -117.084 1251.3C-127.501 1169.05 -146.742 1083.1 -175.917 988.546C-184.146 961.883 -192.915 934.891 -201.4 908.791C-208.649 886.479 -216.147 863.41 -223.281 840.626C-226.509 830.31 -229.358 819.328 -232.117 808.712C-238.941 782.422 -245.997 755.245 -259.785 733.011C-279.588 701.087 -312.428 677.242 -344.189 654.189C-359.809 642.847 -375.962 631.12 -390.078 618.716L-392.844 616.29C-410.031 601.234 -429.511 584.168 -437.267 561.093C-444.677 539.031 -441.563 516.414 -438.547 494.535C-436.664 480.876 -434.717 466.75 -435.477 453.177C-437.921 409.567 -454.618 382.358 -489.628 364.957C-498.176 360.71 -505.932 357.322 -512.777 354.337C-541.083 341.974 -558.17 334.518 -569.913 292.679L-562.442 290.416C-551.583 329.111 -537.441 335.279 -509.264 347.582C-502.345 350.606 -494.501 354.031 -485.784 358.358C-448.248 377.013 -430.349 406.018 -427.754 452.404C-426.956 466.656 -428.954 481.132 -430.879 495.125C-433.921 517.166 -436.789 537.983 -429.892 558.505C-422.725 579.821 -404.797 595.534 -387.462 610.724L-384.688 613.155C-370.82 625.342 -355.512 636.452 -339.311 648.216C-307.005 671.67 -273.593 695.921 -253.08 729.002C-238.744 752.116 -231.556 779.807 -224.606 806.584C-221.743 817.607 -219.041 828.018 -215.862 838.174C-208.742 860.923 -201.25 883.973 -194.002 906.269C-185.513 932.392 -176.734 959.405 -168.492 986.12C-139.198 1081.06 -119.875 1167.38 -109.407 1250.04C-106.614 1272.08 -104.202 1294.95 -101.872 1317.06C-92.013 1410.61 -81.8273 1507.32 -39.3377 1590.17C-17.932 1631.9 13.7102 1667.6 44.319 1702.12C54.8883 1714.04 65.8171 1726.37 76.1976 1738.79C83.8984 1748 93.1805 1756.85 102.158 1765.41C114.839 1777.49 127.956 1789.98 137.474 1804.21C169.807 1852.55 167.472 1925.81 159.829 1978.74L152.164 1978.12C159.642 1926.38 162.013 1854.92 130.897 1808.42C121.801 1794.82 108.964 1782.6 96.5595 1770.78C87.4416 1762.09 78.0061 1753.1 70.0556 1743.58C59.7456 1731.24 48.8495 1718.95 38.3123 1707.06C7.41943 1672.23 -24.5199 1636.21 -46.318 1593.7C-49.0097 1588.44 -51.588 1583.12 -54.0329 1577.76Z" fill="#F8C3B3" fill-opacity="0.1"/>
<path fill-rule="evenodd" clip-rule="evenodd" d="M-90.5698 1573.67C-128.208 1491.25 -143.951 1398.59 -159.242 1308.5C-162.719 1288.03 -166.316 1266.86 -170.082 1246.43C-187.971 1149.4 -204.861 1069.6 -223.233 995.284C-228.613 973.506 -233.129 950.173 -237.912 925.472C-250.207 861.964 -262.919 796.292 -292.123 747.456C-309.014 719.212 -337.3 698.368 -364.653 678.212C-379.982 666.919 -395.832 655.238 -409.386 642.435C-445.417 608.405 -447.139 571.85 -448.958 533.147C-449.783 515.527 -450.641 497.313 -454.599 478.048C-463.731 433.592 -495.13 411.666 -525.495 390.46C-555.644 369.404 -586.815 347.633 -596.046 304.376L-588.476 302.541C-579.802 343.159 -551.104 363.196 -520.722 384.411C-489.243 406.398 -456.694 429.132 -447.007 476.262C-442.943 496.055 -442.073 514.548 -441.23 532.433C-439.404 571.326 -437.823 604.923 -403.81 637.047C-390.567 649.554 -374.895 661.103 -359.735 672.272C-331.828 692.836 -302.962 714.1 -285.361 743.54C-255.543 793.423 -242.71 859.676 -230.307 923.767C-225.542 948.379 -221.044 971.626 -215.695 993.235C-197.298 1067.68 -180.383 1147.62 -162.464 1244.79C-158.691 1265.26 -155.088 1286.44 -151.609 1306.95C-133.571 1413.16 -114.919 1523.01 -60.3948 1614.59C-39.1202 1650.34 -8.72949 1682.31 20.663 1713.2C53.847 1748.1 88.1635 1784.18 109.356 1825.81C130.583 1867.41 136.119 1927.21 126.337 2008.53L118.66 2008.06C128.26 1928.17 122.969 1869.73 102.37 1829.31C81.6242 1788.58 47.6642 1752.87 14.8186 1718.33C-14.8316 1687.15 -45.4982 1654.91 -67.1712 1618.5C-75.8124 1603.96 -83.5763 1589 -90.5698 1573.67Z" fill="#F8C3B3" fill-opacity="0.1"/>
<path fill-rule="evenodd" clip-rule="evenodd" d="M84.9757 2038.63C87.6873 1970.16 90.7606 1892.6 66.2321 1829.73C48.026 1783.03 12.899 1742.28 -21.0578 1702.87C-46.2017 1673.7 -72.1953 1643.53 -91.2473 1611.09C-143.759 1521.61 -164.355 1417.76 -184.273 1317.29C-188.556 1295.7 -192.985 1273.36 -197.639 1251.7C-212.502 1182.55 -228.801 1112.45 -244.571 1044.67L-251.107 1016.56C-255.901 995.919 -260.015 974.448 -264.367 951.712C-275.873 891.643 -287.793 829.506 -313.309 779.738C-327.867 751.363 -354.302 730.52 -379.869 710.359C-394.353 698.94 -409.328 687.13 -421.946 674.093C-452.004 643.048 -456.477 606.991 -461.214 568.814C-463.769 548.179 -466.417 526.846 -473.455 506.147C-487.13 465.91 -517.437 442.11 -546.741 419.088C-579.843 393.071 -614.08 366.176 -622.164 316.119L-614.522 314.621C-606.86 362.036 -575.184 386.924 -541.646 413.28C-511.546 436.924 -480.434 461.377 -466.089 503.533C-458.827 524.902 -456.132 546.593 -453.532 567.568C-448.939 604.571 -444.605 639.526 -416.145 668.924C-403.855 681.618 -389.067 693.28 -374.767 704.556C-348.613 725.178 -321.571 746.502 -306.332 776.213C-280.341 826.857 -268.358 889.473 -256.759 950.02C-252.42 972.686 -248.32 994.096 -243.554 1014.6L-237.02 1042.71C-221.243 1110.52 -204.933 1180.65 -190.064 1249.87C-185.398 1271.58 -180.963 1293.94 -176.67 1315.55C-156.86 1415.46 -136.378 1518.77 -84.4525 1607.22C-65.7211 1639.13 -39.9325 1669.06 -14.9878 1698C19.3463 1737.84 54.8468 1779.03 73.4939 1826.84C98.5474 1891.04 95.4443 1969.37 92.706 2038.48L84.9757 2038.63Z" fill="#F8C3B3" fill-opacity="0.1"/>
<path fill-rule="evenodd" clip-rule="evenodd" d="M51.4742 2068.85C50.3555 2050.31 49.6048 2031.14 48.8705 2012.63C46.3328 1948.16 43.7119 1881.49 25.4716 1820.61C9.50544 1767.33 -25.6934 1721.49 -59.7361 1677.18C-78.5571 1652.67 -98.0205 1627.34 -113.935 1601.09C-167.492 1512.76 -189.677 1410.51 -211.131 1311.63C-214.215 1297.44 -217.291 1283.27 -220.451 1269.16C-227.765 1236.5 -236.098 1203.52 -244.153 1171.63C-253.868 1133.2 -263.913 1093.46 -272.275 1053.86C-276.282 1034.91 -280.028 1015.02 -283.646 995.785C-294.183 939.804 -305.079 881.913 -324.943 830.708C-338.265 796.353 -364.504 772.681 -392.284 747.608C-402.558 738.338 -413.182 728.748 -422.944 718.673C-454.645 685.977 -462.617 647.893 -471.06 607.57C-476.382 582.153 -481.899 555.882 -493.93 530.986C-511.308 495.073 -539.792 471.353 -567.333 448.408C-605.492 416.63 -641.537 386.608 -648.267 327.869L-640.579 326.692C-634.171 382.695 -599.154 411.858 -562.084 442.729C-533.976 466.143 -504.903 490.354 -486.881 527.603C-474.46 553.217 -468.884 579.938 -463.477 605.763C-455.242 645.085 -447.458 682.227 -417.148 713.502C-407.546 723.407 -397.011 732.913 -386.823 742.112C-359.668 766.62 -331.582 791.976 -317.677 827.825C-297.582 879.62 -286.624 937.826 -276.031 994.115C-272.419 1013.31 -268.684 1033.16 -264.695 1052.04C-256.359 1091.5 -246.331 1131.17 -236.633 1169.55C-228.564 1201.48 -220.222 1234.51 -212.882 1267.26C-209.723 1281.38 -206.644 1295.56 -203.558 1309.78C-182.225 1408.11 -160.168 1509.76 -107.192 1597.13C-91.4786 1623.07 -72.1252 1648.24 -53.4156 1672.6C-19.0031 1717.42 16.5919 1763.74 32.9104 1818.23C51.3987 1879.96 54.0393 1947.07 56.6029 2011.96C57.3295 2030.45 58.0829 2049.57 59.2034 2068.03L51.4742 2068.85Z" fill="#F8C3B3" fill-opacity="0.1"/>
<path fill-rule="evenodd" clip-rule="evenodd" d="M18.5085 2097.8C12.6156 2059.02 9.08162 2019.21 5.67084 1980.69C0.520006 1922.63 -4.81068 1862.6 -18.3569 1805.17C-33.3364 1741.71 -71.6372 1689.81 -108.679 1639.63C-128.688 1612.5 -149.396 1584.47 -166.512 1554.63C-235.827 1433.82 -282.468 1272.32 -305.127 1074.63C-306.477 1062.88 -307.744 1050.61 -308.976 1038.76C-314.909 981.455 -321.046 922.202 -339.848 870.461C-352.142 836.589 -378.176 810.955 -403.345 786.164C-414.811 774.874 -426.668 763.197 -437.151 750.842C-463.446 719.851 -472.951 682.137 -482.159 645.668C-489.922 614.874 -497.956 583.042 -516.041 555.118C-535.992 524.318 -561.9 501.861 -586.951 480.143C-629.343 443.397 -669.381 408.686 -674.376 339.635L-666.664 338.747C-661.872 404.961 -622.871 438.762 -581.596 474.553C-556.177 496.59 -529.893 519.376 -509.411 550.996C-490.706 579.859 -482.538 612.257 -474.637 643.583C-465.207 680.947 -456.31 716.238 -431.045 746.007C-420.764 758.127 -409.019 769.692 -397.664 780.878C-371.947 806.204 -345.346 832.4 -332.527 867.713C-313.435 920.252 -307.256 979.934 -301.28 1037.65C-300.054 1049.49 -298.788 1061.73 -297.442 1073.46C-274.884 1270.2 -228.53 1430.81 -159.696 1550.82C-142.766 1580.33 -122.182 1608.2 -102.287 1635.17C-64.8326 1685.89 -26.1086 1738.37 -10.8105 1803.2C2.84605 1861.1 8.20178 1921.39 13.3704 1979.7C16.779 2018.1 20.3051 2057.8 26.1687 2096.38L18.5085 2097.8Z" fill="#F8C3B3" fill-opacity="0.1"/>
<path fill-rule="evenodd" clip-rule="evenodd" d="M-13.6108 2124.59C-24.7923 2070.03 -31.3124 2013.7 -37.6332 1959.23C-44.1498 1902.92 -50.9027 1844.7 -62.7889 1788.51C-79.0491 1711.61 -119.472 1656.18 -162.261 1597.48C-174.329 1580.95 -186.801 1563.84 -198.97 1545.92C-283.796 1421.11 -332.837 1267.47 -333.515 1124.41C-333.552 1115.17 -333.531 1105.86 -333.506 1096.5C-333.358 1040.32 -333.211 982.219 -347.727 928.931C-359.314 886.385 -386.447 856.362 -415.172 824.566C-427.578 810.835 -440.407 796.636 -451.9 781.324C-474.603 751.076 -484.513 716.061 -494.077 682.193C-504.189 646.426 -514.647 609.443 -540.271 577.995C-560.582 553.072 -583.168 533.191 -605.005 513.963C-652.747 471.922 -697.866 432.21 -700.473 351.408L-692.732 350.8C-690.231 428.629 -648.23 465.594 -599.61 508.406C-577.558 527.823 -554.754 547.898 -534.08 573.265C-507.557 605.815 -496.91 643.491 -486.606 679.923C-476.771 714.719 -467.485 747.584 -445.536 776.812C-434.23 791.873 -421.509 805.954 -409.208 819.57C-381.211 850.564 -352.252 882.614 -340.233 926.723C-325.476 980.912 -325.628 1039.49 -325.772 1096.14C-325.794 1105.47 -325.82 1114.77 -325.779 1123.98C-325.109 1265.71 -276.506 1417.96 -192.422 1541.68C-180.308 1559.49 -167.87 1576.55 -155.842 1593.05C-112.608 1652.34 -71.7785 1708.37 -55.2037 1786.68C-43.2479 1843.19 -36.487 1901.57 -29.9456 1958.04C-23.6505 2012.37 -17.1394 2068.55 -6.01556 2122.81L-13.6108 2124.59Z" fill="#F8C3B3" fill-opacity="0.1"/>
<path fill-rule="evenodd" clip-rule="evenodd" d="M-44.5577 2148.55C-63.0389 2077.56 -72.5954 2003.43 -81.846 1931.75C-88.5021 1880.17 -95.3827 1826.83 -105.522 1775.17C-125.267 1674.64 -170.169 1612.35 -226.826 1541.35C-263.325 1495.61 -292.169 1449.61 -313.448 1403.01C-349.692 1323.64 -364.041 1242.52 -357.109 1157.8C-356.736 1153.25 -356.353 1148.68 -355.976 1144.12C-350.918 1083.84 -345.695 1021.53 -362.031 964.202C-373.923 922.457 -400.272 891.679 -428.163 859.104C-442.018 842.928 -456.336 826.203 -468.619 808.092C-486.553 781.655 -492.081 756.289 -497.934 729.431C-499.974 720.08 -502.081 710.406 -504.774 700.288C-514.096 665.344 -534.464 632.267 -567.035 599.163C-584.864 581.043 -602.974 565.323 -620.482 550.116C-677.803 500.337 -727.312 457.347 -726.553 363.184L-718.815 362.852C-719.557 453.839 -671.164 495.868 -615.125 544.531C-597.507 559.821 -579.302 575.638 -561.275 593.956C-527.841 627.925 -506.907 661.997 -497.275 698.117C-494.538 708.387 -492.416 718.137 -490.362 727.569C-484.404 754.897 -479.267 778.503 -462.069 803.848C-449.999 821.64 -435.809 838.217 -422.083 854.249C-394.934 885.952 -366.863 918.738 -354.559 961.918C-337.883 1020.46 -343.159 1083.43 -348.265 1144.32C-348.641 1148.88 -349.025 1153.45 -349.396 1157.99C-360.25 1290.61 -318.112 1414.48 -220.588 1536.67C-163.336 1608.41 -117.951 1671.39 -97.9212 1773.45C-87.7293 1825.32 -80.8447 1878.79 -74.1768 1930.47C-64.9459 2001.93 -55.4162 2075.85 -37.0491 2146.42L-44.5577 2148.55Z" fill="#F8C3B3" fill-opacity="0.1"/>
<path fill-rule="evenodd" clip-rule="evenodd" d="M-73.986 2168.81C-96.4367 2096.07 -106.166 2016.76 -115.58 1940.08C-133.279 1795.87 -151.575 1646.75 -255.661 1537.84C-363.768 1424.74 -400.272 1326.15 -381.644 1197.57C-380.929 1192.6 -380.195 1187.63 -379.465 1182.65C-370.448 1121.53 -361.113 1058.31 -377.501 998.612C-389.546 954.7 -416.371 922.022 -444.769 887.431C-458.797 870.345 -473.303 852.676 -485.782 833.601C-503.244 806.899 -508.742 781.37 -514.55 754.338C-516.925 743.309 -519.381 731.9 -522.734 719.991C-535.033 676.341 -567.225 643.959 -593.9 620.62C-606.921 609.225 -619.716 598.637 -632.098 588.401C-702.433 530.218 -757.976 484.265 -752.647 374.951L-744.919 374.914C-750.094 480.766 -695.712 525.749 -626.87 582.706C-614.455 592.973 -601.613 603.59 -588.519 615.05C-561.128 639.018 -528.042 672.352 -515.259 717.729C-511.845 729.841 -509.371 741.361 -506.979 752.497C-501.302 778.884 -495.939 803.811 -479.169 829.45C-466.888 848.216 -452.503 865.74 -438.593 882.684C-410.988 916.303 -382.451 951.061 -370.011 996.391C-353.243 1057.49 -362.684 1121.46 -371.806 1183.31C-372.539 1188.28 -373.268 1193.24 -373.986 1198.19C-392.268 1324.4 -356.297 1421.31 -249.83 1532.7C-144.166 1643.25 -125.73 1793.52 -107.907 1938.85C-98.5289 2015.23 -88.8378 2094.23 -66.5647 2166.39L-73.986 2168.81Z" fill="#F8C3B3" fill-opacity="0.1"/>
<path fill-rule="evenodd" clip-rule="evenodd" d="M-101.567 2184.59C-134.045 2093.71 -146.822 1995.37 -159.175 1900.26C-164.745 1857.35 -170.515 1812.98 -178.002 1770.13C-193.334 1682.4 -211.477 1604.96 -278.566 1545.84C-289.244 1536.44 -300.39 1527.4 -311.178 1518.67C-344.992 1491.29 -376.929 1465.44 -398.524 1426.69C-433.513 1363.85 -427.084 1298.53 -414.916 1237.28C-412.676 1226.04 -410.221 1214.61 -407.837 1203.55C-396.012 1148.59 -383.773 1091.76 -394.735 1036.01C-405.162 982.982 -435.64 944.813 -467.905 904.409C-477.894 891.901 -488.223 878.963 -497.957 865.519C-519.464 835.791 -529.313 803.023 -538.844 771.335C-551.444 729.417 -563.342 689.821 -600.24 657.698C-617.927 642.293 -637.816 628.504 -657.044 615.169C-686.239 594.93 -716.414 573.997 -740.104 546.736C-780.723 499.983 -785.016 452.658 -778.716 386.693L-771.012 386.992C-777.13 451.072 -773.061 496.953 -734.041 541.841C-710.941 568.44 -681.127 589.113 -652.296 609.109C-632.907 622.556 -612.861 636.457 -594.875 652.112C-556.466 685.549 -543.72 727.952 -531.4 768.955C-522.038 800.105 -512.355 832.315 -491.522 861.103C-481.885 874.417 -471.612 887.289 -461.669 899.735C-428.868 940.812 -397.879 979.612 -387.132 1034.28C-375.894 1091.45 -388.288 1149.01 -400.268 1204.67C-402.635 1215.69 -405.1 1227.1 -407.32 1238.29C-419.228 1298.23 -425.57 1362.12 -391.654 1422.96C-370.713 1460.54 -339.278 1485.98 -306.003 1512.92C-295.159 1521.7 -283.952 1530.78 -273.163 1540.29C-204.398 1600.9 -185.932 1679.53 -170.371 1768.55C-162.853 1811.54 -157.084 1856 -151.502 1898.99C-139.19 1993.72 -126.469 2091.7 -94.2425 2181.89L-101.567 2184.59Z" fill="#F8C3B3" fill-opacity="0.1"/>
<path fill-rule="evenodd" clip-rule="evenodd" d="M-124.714 2192.2C-149.476 2105.11 -162.866 2013.7 -175.818 1925.3C-182.723 1878.2 -189.86 1829.49 -198.626 1782.11C-213.902 1699.49 -228.327 1621.47 -300.263 1561.71C-312.666 1551.4 -325.976 1541.59 -338.843 1532.11C-371.896 1507.74 -406.079 1482.55 -428.511 1446.33C-466.898 1384.32 -455.803 1313.78 -442.404 1252.54C-440.497 1243.83 -438.505 1235.13 -436.527 1226.47C-422.581 1165.48 -409.412 1107.87 -424.286 1048.04C-437.212 996.061 -465.581 955.433 -495.623 912.427C-505.131 898.808 -514.96 884.727 -524.235 870.294C-542.568 841.781 -552.617 811.08 -562.329 781.384C-576.846 737.027 -590.558 695.126 -629.769 661.869C-646.311 647.829 -664.645 635.011 -682.376 622.617C-712.29 601.707 -743.223 580.082 -767.105 551.651C-806.257 505.071 -810.732 458.694 -805.24 394.323L-797.538 394.538C-802.878 457.103 -798.608 502.079 -760.991 546.839C-737.685 574.571 -707.14 595.921 -677.607 616.57C-659.738 629.057 -641.268 641.978 -624.467 656.225C-583.766 690.747 -569.762 733.542 -554.934 778.844C-545.353 808.128 -535.441 838.411 -517.593 866.193C-508.385 880.513 -498.596 894.542 -489.119 908.103C-458.713 951.645 -429.982 992.774 -416.756 1045.98C-401.474 1107.42 -415.457 1168.56 -428.975 1227.69C-430.951 1236.33 -432.937 1245 -434.835 1253.68C-447.942 1313.58 -458.806 1382.48 -421.8 1442.32C-400.076 1477.41 -366.445 1502.2 -333.923 1526.17C-320.975 1535.71 -307.579 1545.59 -295.017 1556.02C-221.171 1617.39 -205.836 1700.28 -191.011 1780.45C-182.221 1827.97 -175.074 1876.74 -168.159 1923.9C-155.24 2012.09 -141.881 2103.26 -117.243 2189.92L-124.714 2192.2Z" fill="#F8C3B3" fill-opacity="0.1"/>
<path fill-rule="evenodd" clip-rule="evenodd" d="M-143.231 2189.51C-155.17 2129.87 -165.483 2068.89 -175.461 2009.9C-187.514 1938.63 -199.973 1864.92 -215.378 1793.17C-234.65 1703.47 -252.523 1640.63 -322.803 1586.55C-334.731 1577.37 -347.761 1568.4 -360.366 1559.71C-396.615 1534.73 -434.097 1508.91 -456.916 1471.54C-460.038 1466.43 -462.803 1461.21 -465.227 1455.9C-492.481 1396.2 -477.349 1325.42 -463.881 1262.35L-463.476 1260.46C-445.7 1177.22 -435.254 1112.66 -462.983 1039.78C-480.203 994.517 -505.433 952.854 -529.827 912.548C-543.767 889.534 -558.176 865.737 -571.044 841.395C-585.338 814.324 -594.196 786.138 -602.758 758.87C-607.368 744.21 -612.127 729.051 -617.712 714.101C-631.501 677.068 -662.9 650.842 -693.843 627.138C-781.246 560.183 -844.389 511.812 -834.689 391.605L-826.976 391.79C-836.381 508.234 -774.485 555.649 -688.813 621.278C-657.072 645.598 -624.877 672.61 -610.408 711.297C-604.764 726.417 -599.977 741.667 -595.345 756.412C-586.482 784.629 -578.124 811.289 -564.097 837.792C-551.328 861.957 -536.97 885.672 -523.085 908.602C-498.535 949.163 -473.139 991.094 -455.694 1036.94C-427.297 1111.6 -437.874 1177.14 -455.906 1261.59L-456.298 1263.45C-470.702 1330.85 -487.01 1407.21 -450.185 1467.57C-428.142 1503.69 -391.277 1529.07 -355.634 1553.63C-342.952 1562.37 -329.842 1571.4 -317.766 1580.7C-245.618 1636.22 -227.388 1700.15 -207.804 1791.32C-192.359 1863.23 -179.883 1937 -167.818 2008.35C-157.855 2067.29 -147.549 2128.24 -135.632 2187.75L-143.231 2189.51Z" fill="#F8C3B3" fill-opacity="0.1"/>
<path fill-rule="evenodd" clip-rule="evenodd" d="M-491.294 1492.13C-517.894 1433.88 -503.011 1359.04 -490.808 1297.7C-489.781 1292.49 -488.759 1287.36 -487.785 1282.35C-471.509 1198.6 -462.06 1127.92 -499.917 1044.59C-520.826 998.466 -545.233 953.196 -568.812 909.385C-585.353 878.643 -602.468 846.854 -618.264 815.013C-629.314 792.747 -638.358 770.262 -647.09 748.513C-669.717 692.212 -691.091 639.027 -743.334 598.408C-826.207 533.99 -876.439 489.139 -865.781 383.386L-858.088 383.715C-868.384 485.838 -819.259 529.613 -738.281 592.575C-684.544 634.347 -662.841 688.362 -639.858 745.556C-631.164 767.182 -622.179 789.546 -611.251 811.566C-595.497 843.309 -578.413 875.044 -561.895 905.735C-538.616 948.987 -514.557 993.684 -493.75 1039.26C-493.428 1039.95 -493.114 1040.65 -492.797 1041.35C-454.102 1126.55 -463.659 1198.33 -480.184 1283.32C-481.159 1288.36 -482.182 1293.5 -483.222 1298.72C-496.507 1365.55 -513.047 1448.71 -474.336 1506.56C-451.648 1540.47 -413.759 1564.87 -377.117 1588.46C-362.819 1597.67 -349.32 1606.37 -336.623 1615.62L-332.19 1618.84C-311.386 1633.97 -289.873 1649.61 -274.302 1669.53C-249.009 1701.92 -238.811 1744.53 -228.954 1785.75C-226.882 1794.42 -224.926 1802.6 -222.822 1810.69C-191.697 1930.8 -167.513 2054.4 -150.961 2178.07L-158.636 2179.38C-175.148 2055.98 -199.275 1932.64 -230.342 1812.82C-232.453 1804.66 -234.423 1796.46 -236.496 1787.74C-246.191 1747.25 -256.211 1705.35 -280.589 1674.16C-295.553 1655 -316.661 1639.66 -337.075 1624.83L-341.512 1621.59C-354.034 1612.45 -367.452 1603.81 -381.667 1594.66C-418.914 1570.67 -457.423 1545.87 -480.914 1510.77C-484.918 1504.79 -488.359 1498.55 -491.294 1492.13Z" fill="#F8C3B3" fill-opacity="0.1"/>
<path fill-rule="evenodd" clip-rule="evenodd" d="M-518.974 1527.73C-545.865 1468.83 -530.513 1389.28 -517.899 1323.9C-516.55 1316.88 -515.238 1310.07 -514.018 1303.51C-495.842 1205.29 -494.517 1135.51 -539.496 1048.38C-591.206 948.199 -632.743 864.271 -670.247 784.263C-678.812 765.96 -686.64 747.182 -694.217 729.015C-719.952 667.254 -744.248 608.926 -796.63 565.691C-862.744 511.126 -910.523 471.702 -896.936 374.893L-889.265 375.506C-902.327 468.458 -858.204 504.867 -791.412 559.984C-737.704 604.317 -713.069 663.414 -687.006 725.975C-679.468 744.083 -671.666 762.81 -663.16 780.952C-625.7 860.88 -584.189 944.734 -532.52 1044.83C-486.847 1133.3 -488.374 1207 -506.411 1304.43C-507.626 1311 -508.943 1317.83 -510.301 1324.87C-524.266 1397.27 -541.657 1487.34 -500.094 1544.74C-476.703 1577.08 -438.124 1601.25 -400.83 1624.64C-385.547 1634.21 -371.115 1643.25 -357.832 1652.76C-354.487 1655.15 -351.068 1657.55 -347.62 1659.97C-328.397 1673.48 -308.509 1687.44 -293.712 1704.82C-269.707 1733.01 -258.226 1770.52 -247.131 1806.79C-244.504 1815.38 -242.015 1823.5 -239.364 1831.53C-209.643 1921.37 -174.265 2040.32 -164.382 2163.65L-172.085 2164.59C-181.922 2041.99 -217.149 1923.57 -246.746 1834.08C-249.43 1825.99 -252.039 1817.46 -254.559 1809.2C-265.461 1773.6 -276.72 1736.77 -299.814 1709.67C-314.033 1692.97 -333.543 1679.26 -352.409 1666.01C-355.877 1663.58 -359.305 1661.16 -362.662 1658.76C-375.775 1649.38 -390.118 1640.4 -405.304 1630.89C-443.174 1607.14 -482.347 1582.6 -506.535 1549.17C-511.425 1542.41 -515.544 1535.23 -518.974 1527.73Z" fill="#F8C3B3" fill-opacity="0.1"/>
<path fill-rule="evenodd" clip-rule="evenodd" d="M-548.788 1556.46C-576.242 1496.35 -560.341 1411.27 -548.368 1347.15C-546.634 1337.88 -544.979 1329 -543.512 1320.58C-535.455 1274.26 -527.126 1226.36 -531.295 1178.93C-535.192 1134.83 -553.673 1102.34 -575.071 1064.71C-577.27 1060.82 -579.51 1056.91 -581.746 1052.92C-628.439 969.943 -667.225 881.728 -704.726 796.415C-710.592 783.066 -716.468 769.716 -722.372 756.372C-728.654 742.167 -734.792 727.346 -740.71 713.019C-767.361 648.681 -794.888 582.147 -848.615 537.285C-907.575 488.065 -942.247 452.339 -926.54 371.35L-918.936 372.327C-934.203 451.122 -900.173 484.184 -843.359 531.61C-788.32 577.562 -760.462 644.888 -733.505 709.993C-727.591 724.288 -721.474 739.066 -715.223 753.195C-709.317 766.543 -703.447 779.903 -697.573 793.254C-660.14 878.42 -621.417 966.477 -574.9 1049.17C-572.655 1053.14 -570.427 1057.04 -568.229 1060.92C-546.439 1099.24 -527.614 1132.33 -523.601 1177.93C-519.337 1226.28 -527.754 1274.65 -535.887 1321.42C-537.357 1329.87 -539.026 1338.8 -540.76 1348.08C-554.063 1419.31 -572.282 1516.9 -529.311 1574.16C-505.211 1606.29 -466.478 1631.69 -429.023 1656.24C-412.869 1666.84 -397.614 1676.85 -383.68 1687.25C-379.162 1690.62 -374.52 1693.98 -369.819 1697.39C-351.703 1710.51 -332.973 1724.08 -318.427 1740.3C-296.229 1765.04 -282.925 1797.03 -270.058 1827.97C-266.686 1836.07 -263.209 1844.45 -259.672 1852.41C-212.931 1957.53 -180.997 2047.91 -177.002 2147.24L-184.725 2147.89C-188.681 2049.67 -220.397 1960 -266.811 1855.59C-270.382 1847.56 -273.884 1839.14 -277.264 1831.01C-289.914 1800.59 -302.986 1769.14 -324.407 1745.26C-338.45 1729.61 -356.871 1716.26 -374.686 1703.36C-379.415 1699.93 -384.096 1696.55 -388.634 1693.16C-402.389 1682.88 -417.559 1672.95 -433.62 1662.41C-471.583 1637.51 -510.841 1611.78 -535.669 1578.67C-540.859 1571.77 -545.196 1564.33 -548.788 1556.46Z" fill="#F8C3B3" fill-opacity="0.1"/>
<path fill-rule="evenodd" clip-rule="evenodd" d="M-583.072 1570.87C-610.381 1511.08 -595.593 1429.77 -583.503 1363.33C-582.327 1356.89 -581.191 1350.63 -580.128 1344.59C-561.246 1237.09 -561.927 1165.76 -618.032 1074.34C-670.88 988.222 -708.203 894.002 -744.298 802.881C-751.494 784.683 -758.952 765.868 -766.43 747.372C-770.47 737.364 -774.479 727.136 -778.54 716.783C-806.603 645.19 -835.6 571.156 -892.865 522.644C-939.418 483.204 -971.006 449.742 -953.27 378.026L-945.753 379.374C-962.557 447.322 -933.626 477.98 -887.572 517.001C-828.975 566.64 -799.643 641.498 -771.282 713.881C-767.228 724.207 -763.228 734.414 -759.198 744.405C-751.71 762.919 -744.256 781.743 -737.045 799.951C-701.057 890.804 -663.846 984.743 -611.31 1070.36C-554.356 1163.14 -553.736 1238.62 -572.505 1345.44C-573.571 1351.5 -574.711 1357.78 -575.88 1364.22C-588.844 1435.5 -604.991 1524.25 -567.855 1582.58C-545.779 1617.29 -505.79 1646.66 -467.121 1675.06C-450.574 1687.22 -434.946 1698.7 -421.228 1710.24C-316.536 1798.31 -193.157 1961.52 -189.964 2131.6L-197.696 2132.12C-200.846 1964.33 -322.924 1803.03 -426.497 1715.89C-440.035 1704.5 -455.577 1693.1 -472.026 1681C-511.216 1652.22 -551.75 1622.46 -574.525 1586.66C-577.745 1581.6 -580.589 1576.33 -583.072 1570.87Z" fill="#F8C3B3" fill-opacity="0.1"/>
<path fill-rule="evenodd" clip-rule="evenodd" d="M-618.401 1567.02C-647.004 1504.41 -630.966 1425.93 -616.785 1356.48C-614.894 1347.2 -613.036 1338.13 -611.343 1329.34C-601.806 1279.72 -594.548 1235.04 -602.501 1191.01C-609.254 1153.66 -629.376 1124.69 -650.673 1094.02C-658.615 1082.6 -666.824 1070.77 -674.286 1058.49C-720.825 981.86 -750.198 897.256 -778.603 815.428C-785.377 795.893 -792.397 775.693 -799.551 755.86L-800.708 752.646C-829.218 673.563 -861.538 583.926 -927.493 526.465C-964.457 494.267 -1001.95 454.835 -978.604 394.233L-971.358 396.462C-990.954 447.304 -967.034 481.758 -922.125 520.885C-854.81 579.529 -822.18 670.055 -793.382 749.915L-792.226 753.133C-785.054 773.005 -778.041 793.223 -771.255 812.772C-742.969 894.264 -713.711 978.524 -667.548 1054.54C-660.194 1066.64 -652.042 1078.37 -644.167 1089.71C-623.377 1119.63 -601.886 1150.56 -594.878 1189.39C-586.712 1234.6 -594.063 1279.96 -603.742 1330.32C-605.439 1339.12 -607.303 1348.23 -609.195 1357.53C-623.521 1427.68 -639.702 1507.16 -609.057 1568.45C-588.761 1608.92 -548.983 1644.94 -510.522 1679.75C-494.717 1694.07 -479.781 1707.58 -466.631 1721.04C-434.742 1753.66 -405.572 1788.61 -377.368 1822.41C-360.56 1842.54 -343.181 1863.37 -325.366 1883.54C-264.254 1952.73 -206.528 2018.08 -204.428 2119.47L-212.156 2119.99C-214.21 2021.14 -271.128 1956.71 -331.377 1888.47C-349.262 1868.24 -366.669 1847.37 -383.508 1827.19C-411.63 1793.5 -440.713 1758.66 -472.412 1726.23C-485.414 1712.93 -500.265 1699.49 -515.992 1685.25C-554.925 1650 -595.189 1613.55 -616.063 1571.92C-616.869 1570.29 -617.657 1568.65 -618.401 1567.02Z" fill="#F8C3B3" fill-opacity="0.1"/>
<path fill-rule="evenodd" clip-rule="evenodd" d="M-655.626 1551.02C-684.544 1487.71 -667.025 1412.51 -651.471 1345.71L-647.556 1328.89C-638.117 1288.38 -628.351 1246.49 -634.904 1206.31C-640.825 1169.92 -660.848 1143.23 -682.039 1114.98C-689.07 1105.6 -696.343 1095.9 -703.148 1085.73C-755.514 1007.61 -779.6 923.063 -805.099 833.533C-809.458 818.185 -813.982 802.306 -818.616 786.641C-839.688 715.295 -873.38 624.332 -947.464 553.609C-983.969 518.759 -1019.05 475.229 -1002.53 416.545L-995.062 418.119C-1010.59 473.206 -976.884 514.811 -941.864 548.24C-866.595 620.089 -832.482 712.133 -811.17 784.295C-806.515 799.994 -801.997 815.887 -797.628 831.251C-772.281 920.242 -748.34 1004.3 -696.582 1081.52C-689.868 1091.54 -682.653 1101.16 -675.67 1110.46C-653.969 1139.42 -633.462 1166.76 -627.258 1204.79C-620.479 1246.34 -630.412 1288.95 -640.012 1330.14L-643.919 1346.94C-660.16 1416.67 -678.538 1495.69 -642.822 1558.96C-617.196 1604.3 -578.524 1646.2 -541.126 1686.7C-523.336 1705.97 -506.528 1724.16 -490.911 1742.83C-478.088 1758.15 -465.595 1774.15 -453.51 1789.62C-425.046 1826.05 -395.615 1863.74 -360.071 1894.92C-355.673 1898.78 -351.301 1902.59 -346.968 1906.36C-279.766 1964.92 -221.726 2015.49 -221.501 2113.76L-229.235 2114.16C-229.452 2019.03 -286.395 1969.39 -352.337 1911.95C-356.67 1908.15 -361.051 1904.35 -365.453 1900.48C-401.491 1868.86 -431.126 1830.92 -459.787 1794.24C-471.843 1778.81 -484.304 1762.87 -497.051 1747.63C-512.554 1729.08 -529.306 1710.96 -547.034 1691.74C-584.708 1650.96 -623.655 1608.77 -649.664 1562.72C-651.838 1558.88 -653.827 1554.97 -655.626 1551.02Z" fill="#F8C3B3" fill-opacity="0.1"/>
<path fill-rule="evenodd" clip-rule="evenodd" d="M-694.35 1529.61C-723.424 1465.93 -705.009 1398.88 -687.186 1333.96L-684.941 1325.8C-683.892 1321.94 -682.806 1318.06 -681.716 1314.16C-672.018 1279.45 -661.992 1243.57 -668.694 1208.95C-674.679 1177.99 -693.749 1155.46 -713.938 1131.61C-722.314 1121.72 -730.972 1111.49 -738.61 1100.6C-788.594 1029.45 -803.257 952.053 -818.781 870.097C-821.69 854.7 -824.701 838.779 -827.963 822.965C-848.411 723.567 -893.702 660.402 -955.423 596.137C-988.109 562.112 -1030.94 509.171 -1025.42 442.622L-1017.7 442.83C-1022.99 506.577 -981.372 557.911 -949.609 590.986C-887.063 656.114 -841.154 720.173 -820.377 821.175C-817.103 837.045 -814.086 852.994 -811.155 868.419C-795.775 949.616 -781.251 1026.32 -732.123 1096.28C-724.659 1106.9 -716.109 1117.01 -707.826 1126.78C-687.964 1150.26 -667.419 1174.53 -661.088 1207.24C-654.07 1243.49 -664.328 1280.2 -674.256 1315.72C-675.34 1319.6 -676.421 1323.48 -677.473 1327.32L-679.704 1335.48C-697.799 1401.38 -716.569 1469.47 -684.112 1532.8C-656.962 1585.83 -616.809 1635.91 -577.971 1684.32C-559.982 1706.77 -541.364 1729.97 -524.722 1752.73C-515.274 1765.66 -506.075 1778.95 -497.188 1791.82C-464.716 1838.81 -434.045 1883.2 -387.671 1916.94C-377.67 1924.21 -367.769 1931.12 -358.191 1937.79C-291.132 1984.53 -238.169 2021.44 -242.346 2117.27L-250.077 2117.35C-246.055 2025.31 -297.646 1989.36 -362.952 1943.84C-372.556 1937.14 -382.492 1930.22 -392.551 1922.9C-439.886 1888.46 -472.333 1841.51 -503.708 1796.11C-512.576 1783.29 -521.729 1770.01 -531.133 1757.17C-547.689 1734.54 -566.249 1711.39 -584.2 1689.01C-623.247 1640.32 -663.627 1589.98 -691.105 1536.32C-692.243 1534.08 -693.329 1531.85 -694.35 1529.61Z" fill="#F8C3B3" fill-opacity="0.1"/>
<path fill-rule="evenodd" clip-rule="evenodd" d="M-733.104 1506.32C-763.384 1440.02 -743.279 1381.53 -720.015 1313.88C-718.755 1310.2 -717.519 1306.69 -716.278 1303.17C-705.611 1272.86 -694.579 1241.52 -701.504 1211.27C-707.447 1185.29 -726.58 1165.91 -745.09 1147.16C-754.514 1137.59 -764.265 1127.71 -772.282 1117C-819.547 1053.83 -824.048 985.991 -828.811 914.154C-829.806 899.224 -830.845 883.789 -832.265 868.282C-838.595 799.228 -860.39 744.716 -897.032 706.265C-905.675 697.186 -915.387 688.721 -924.777 680.531C-936.268 670.513 -948.141 660.16 -958.512 648.359C-1010.11 589.678 -1040.12 529.748 -1047.71 470.235L-1040.02 468.968C-1032.61 527.095 -1003.16 585.798 -952.487 643.434C-942.428 654.882 -930.727 665.083 -919.408 674.949C-909.894 683.243 -900.06 691.821 -891.192 701.132C-853.455 740.734 -831.024 796.627 -824.554 867.263C-823.131 882.853 -822.108 898.331 -821.114 913.309C-816.406 984.101 -811.966 1050.94 -765.914 1112.49C-758.18 1122.83 -748.598 1132.53 -739.329 1141.93C-720.155 1161.38 -700.317 1181.47 -693.948 1209.33C-686.564 1241.57 -697.952 1273.92 -708.967 1305.2C-710.199 1308.71 -711.424 1312.18 -712.61 1315.64C-735.588 1382.48 -755.309 1440.13 -725.416 1504.32C-696.467 1566.48 -654.478 1626.04 -613.871 1683.64C-594.869 1710.6 -575.212 1738.47 -557.504 1765.83C-548.184 1780.23 -539.229 1795.34 -530.57 1809.95C-500.278 1861.09 -468.945 1913.97 -416.143 1946.15C-403.13 1954.07 -390.443 1961.18 -378.167 1968.06C-312.668 2004.74 -260.921 2033.71 -271.455 2130.63L-279.147 2130.24C-269.109 2037.9 -316.599 2011.3 -382.327 1974.49C-394.663 1967.59 -407.41 1960.44 -420.54 1952.44C-474.839 1919.35 -506.62 1865.7 -537.352 1813.84C-545.98 1799.29 -554.89 1784.23 -564.141 1769.96C-581.77 1742.71 -601.386 1714.9 -620.355 1687.99C-661.136 1630.14 -703.302 1570.33 -732.509 1507.61C-732.71 1507.18 -732.91 1506.75 -733.104 1506.32Z" fill="#F8C3B3" fill-opacity="0.1"/>
<path fill-rule="evenodd" clip-rule="evenodd" d="M-773.743 1478.38C-802.184 1416.12 -779.519 1363.49 -753.334 1302.69C-751.959 1299.5 -750.523 1296.26 -749.064 1292.97C-737.558 1266.99 -725.666 1240.15 -732.698 1214.12C-738.596 1192.22 -757.442 1176.55 -775.662 1161.39C-785.943 1152.83 -796.581 1143.99 -804.75 1134.12C-850.117 1079.29 -845.648 1022.48 -840.907 962.325C-839.767 947.7 -838.58 932.588 -838.047 917.124C-835.431 840.844 -873.665 801.089 -917.929 755.048C-933.181 739.174 -948.968 722.757 -963.788 703.998C-1008.27 647.737 -1043.01 580.123 -1070 497.284L-1062.61 494.76C-1035.86 576.808 -1001.51 643.734 -957.539 699.35C-942.917 717.848 -927.261 734.134 -912.113 749.891C-868.651 795.094 -827.61 837.782 -830.33 916.986C-830.853 932.6 -832.043 947.809 -833.209 962.506C-838.023 1023.76 -842.188 1076.66 -798.588 1129.35C-790.828 1138.71 -780.914 1146.98 -770.41 1155.7C-751.371 1171.55 -731.682 1187.93 -725.201 1211.93C-717.522 1240.37 -730.515 1269.69 -741.969 1295.55C-743.42 1298.81 -744.838 1302.03 -746.208 1305.2C-772.093 1365.32 -794.54 1417.24 -765.327 1477.94C-731.101 1549.22 -688.372 1618.68 -647.05 1685.86C-627.867 1717.04 -608.025 1749.28 -589.407 1781.16C-580.149 1797 -571.673 1813.51 -562.711 1831.01C-533.16 1888.7 -502.595 1948.32 -444.482 1977.21C-428.645 1985.07 -413.449 1991.56 -398.755 1997.82C-332.583 2026.01 -284.774 2046.37 -301.747 2144.68L-309.376 2143.85C-293.342 2050.99 -336.645 2032.52 -402.202 2004.59C-416.999 1998.29 -432.302 1991.78 -448.325 1983.8C-508.533 1953.88 -539.626 1893.21 -569.691 1834.53C-578.618 1817.13 -587.037 1800.67 -596.199 1785.02C-614.79 1753.22 -634.604 1721.01 -653.76 1689.85C-695.176 1622.52 -738.003 1552.91 -772.377 1481.3C-772.846 1480.33 -773.302 1479.35 -773.743 1478.38Z" fill="#F8C3B3" fill-opacity="0.1"/>
<path fill-rule="evenodd" clip-rule="evenodd" d="M-806.173 1473.05C-810.061 1464.54 -813.498 1455.97 -816.296 1447.36C-834.137 1392.22 -812.633 1350.87 -787.735 1303C-784.965 1297.67 -782.163 1292.28 -779.364 1286.77C-748.842 1226.7 -768.927 1210.16 -802.187 1182.74C-815.357 1171.91 -830.271 1159.61 -844.65 1142.55C-882.013 1098.25 -871.849 1055.79 -861.064 1010.82C-857.027 993.959 -852.844 976.519 -850.982 958.3C-844.415 894.329 -883.569 856.071 -925.031 815.568C-944.591 796.461 -964.822 776.691 -980.376 753.777C-1024.25 689.142 -1054.42 615.696 -1083.59 544.664C-1086.76 536.957 -1089.91 529.264 -1093.09 521.586L-1085.87 518.566C-1082.69 526.247 -1079.54 533.944 -1076.37 541.656C-1047.32 612.369 -1017.31 685.483 -973.819 749.534C-958.658 771.874 -938.692 791.389 -919.371 810.26C-876.687 851.967 -836.365 891.351 -843.293 958.64C-845.203 977.347 -849.435 995.013 -853.541 1012.11C-864.343 1057.17 -873.641 1096.09 -838.539 1137.74C-824.555 1154.3 -809.902 1166.39 -796.97 1177.04C-763.503 1204.62 -739.33 1224.55 -772.44 1289.72C-775.246 1295.24 -778.067 1300.67 -780.845 1306.01C-804.983 1352.42 -825.829 1392.51 -808.897 1444.85C-799.791 1472.97 -783.339 1500.93 -767.418 1527.96C-760.364 1539.97 -753.696 1551.3 -747.6 1562.69C-722.673 1609.29 -697.033 1656.53 -672.244 1702.21C-660.612 1723.65 -648.985 1745.09 -637.376 1766.53L-630.854 1778.59C-606.087 1824.36 -580.475 1871.69 -556.12 1918.69C-532.061 1965.09 -517.305 1990.14 -470.012 2007.99C-453.078 2014.38 -437.067 2019.23 -421.588 2023.92C-356.046 2043.76 -308.704 2058.11 -332.056 2158.71L-339.599 2157.46C-317.718 2063.24 -357.83 2051.1 -424.262 2030.97C-439.866 2026.25 -455.999 2021.37 -473.168 2014.88C-525.241 1995.23 -541.111 1964.61 -563.082 1922.24C-587.415 1875.3 -613.008 1827.99 -637.764 1782.24L-644.28 1770.19C-655.885 1748.74 -667.523 1727.32 -679.152 1705.88C-703.946 1660.19 -729.579 1612.93 -754.528 1566.32C-760.553 1555.06 -767.192 1543.79 -774.211 1531.84C-785.498 1512.66 -797.057 1493.02 -806.173 1473.05Z" fill="#F8C3B3" fill-opacity="0.1"/>
<path fill-rule="evenodd" clip-rule="evenodd" d="M-821.015 1502.43C-829.302 1484.26 -837.218 1466.02 -844.626 1447.66C-868.59 1388.34 -842.056 1344.7 -811.334 1294.2C-809.61 1291.36 -807.728 1288.41 -805.77 1285.35C-793.884 1266.76 -780.401 1245.67 -786.972 1226.56C-793.125 1208.52 -814.072 1198.13 -834.29 1188.08C-844.389 1183.07 -853.927 1178.33 -861.408 1172.74C-917.053 1131.15 -905.285 1093.23 -891.65 1049.33C-886.259 1031.92 -880.672 1013.93 -878.369 993.744C-872.73 944.085 -901.651 919.658 -938.28 888.731L-939.226 887.931C-967.253 864.269 -990.661 834.313 -1012.92 793.637C-1040.05 744.035 -1060.1 690.199 -1079.51 638.145C-1091.43 606.143 -1103.75 573.061 -1117.57 541.393L-1110.4 538.249C-1096.52 570.085 -1084.16 603.261 -1072.21 635.348C-1052.9 687.182 -1032.92 740.778 -1006.01 789.95C-984.186 829.849 -961.283 859.182 -933.933 882.288L-933.002 883.083C-896.311 914.065 -864.623 940.818 -870.692 994.161C-873.062 1015.03 -878.76 1033.37 -884.252 1051.09C-897.617 1094.16 -908.17 1128.17 -856.449 1166.83C-849.497 1172.03 -840.244 1176.62 -830.445 1181.49C-809.955 1191.67 -786.738 1203.21 -779.611 1223.94C-771.929 1246.26 -787.07 1269.94 -799.224 1288.95C-801.148 1291.96 -803.005 1294.87 -804.698 1297.65C-835.623 1348.49 -860.041 1388.65 -837.394 1444.7C-804.47 1526.2 -761.412 1606.16 -719.786 1683.51C-700.583 1719.18 -680.725 1756.06 -662.238 1792.4L-655.527 1805.6C-631.436 1852.97 -606.531 1901.95 -582.838 1950.53C-561.469 1994.33 -546.926 2019.81 -496.441 2033.85C-482.687 2037.69 -467.392 2039.07 -452.6 2040.4C-432.926 2042.17 -412.591 2044.03 -394.632 2051.54C-335.364 2076.35 -348.475 2123.14 -362.364 2172.68L-369.831 2171.13C-356.231 2122.63 -344.481 2080.75 -398.036 2058.34C-414.907 2051.27 -434.641 2049.49 -453.717 2047.76C-468.865 2046.4 -484.522 2044.98 -498.957 2040.96C-552.436 2026.07 -567.627 1999.54 -589.875 1953.93C-613.545 1905.4 -638.441 1856.45 -662.518 1809.11L-669.231 1795.91C-687.671 1759.64 -707.515 1722.79 -726.697 1687.14C-759.071 1627.02 -792.3 1565.3 -821.015 1502.43Z" fill="#F8C3B3" fill-opacity="0.1"/>
<path fill-rule="evenodd" clip-rule="evenodd" d="M-831.139 1550.02C-845.515 1518.53 -859.102 1486.81 -871.418 1454.92C-894.265 1395.74 -868.648 1354.75 -836.214 1302.87L-836.07 1302.64C-797.52 1240.95 -816.561 1229.79 -862.575 1202.84C-870.869 1197.98 -880.268 1192.48 -890.143 1186.16C-949.304 1148.39 -940.395 1114.7 -929.122 1072.05C-924.875 1056 -920.072 1037.8 -918.806 1017.68C-916.148 975.631 -941.268 954.851 -970.367 930.782C-975.875 926.238 -981.582 921.524 -987.185 916.571C-1020.57 887.102 -1040.57 848.002 -1054.23 817.199C-1074.23 772.195 -1088.55 724.31 -1102.41 677.998C-1114.63 637.212 -1127.25 595.043 -1143.68 555.115L-1136.46 552.105C-1119.9 592.341 -1107.24 634.682 -1094.97 675.63C-1081.19 721.734 -1066.91 769.408 -1047.08 814.022C-1033.71 844.183 -1014.17 882.434 -981.779 911.019C-976.26 915.892 -970.592 920.576 -965.136 925.085C-935.866 949.313 -908.2 972.176 -911.081 1017.74C-912.395 1038.57 -917.295 1057.13 -921.628 1073.51C-932.578 1114.95 -940.504 1144.92 -885.624 1179.96C-875.86 1186.19 -866.532 1191.66 -858.295 1196.49C-812.341 1223.42 -787.013 1238.23 -829.493 1306.19L-829.631 1306.42C-860.974 1356.55 -885.719 1396.15 -864.146 1452.03C-827.187 1547.8 -778.648 1642.05 -731.713 1733.2C-719.117 1757.66 -706.091 1782.95 -693.575 1807.73C-684.136 1826.42 -674.604 1845.08 -665.069 1863.73C-647.779 1897.55 -629.891 1932.53 -612.881 1967.22C-591.418 2010.99 -578.456 2037.4 -526.074 2050.53C-511.843 2054.09 -496.054 2054.88 -480.774 2055.62C-461.088 2056.58 -440.727 2057.57 -422.576 2064.42C-362.448 2087.11 -376.297 2134.53 -390.955 2184.72L-391.31 2185.94L-398.752 2184.31L-398.394 2183.09C-383.486 2132.03 -371.697 2091.71 -425.732 2071.32C-442.757 2064.9 -462.484 2063.94 -481.567 2063C-497.224 2062.23 -513.425 2061.45 -528.399 2057.69C-584.053 2043.73 -598.323 2014.66 -619.91 1970.63C-636.906 1936 -654.774 1901.04 -672.051 1867.25C-681.589 1848.59 -691.123 1829.92 -700.57 1811.21C-713.078 1786.46 -726.098 1761.19 -738.682 1736.74C-770.088 1675.75 -802.213 1613.35 -831.139 1550.02Z" fill="#F8C3B3" fill-opacity="0.1"/>
<path fill-rule="evenodd" clip-rule="evenodd" d="M-795.227 1700.08C-810.282 1667.09 -825.816 1631.15 -842.499 1590.79C-848.308 1576.73 -854.859 1562.69 -861.788 1547.83C-875.175 1519.15 -889.02 1489.5 -896.932 1460.06C-911.147 1407.14 -890.193 1369.36 -865.93 1325.6C-863.034 1320.38 -860.088 1315.06 -857.119 1309.58C-826.329 1252.69 -848.443 1239.17 -885.078 1216.75C-898.984 1208.24 -914.764 1198.61 -929.824 1185.07C-970.759 1148.26 -963.029 1114.5 -954.113 1075.43C-950.691 1060.48 -947.162 1045.01 -946.062 1028.13C-943.041 981.322 -968.495 958.597 -1000.73 929.822C-1003.36 927.481 -1006.02 925.115 -1008.7 922.69C-1035.36 898.616 -1056.96 867.687 -1076.7 825.328C-1097.5 780.565 -1112.72 732.892 -1127.42 686.744C-1140.06 647.017 -1153.14 605.944 -1169.74 567.07L-1162.56 563.975C-1145.83 603.152 -1132.71 644.382 -1120.01 684.26C-1105.38 730.203 -1090.21 777.701 -1069.6 822.039C-1050.27 863.53 -1029.18 893.767 -1003.25 917.188C-1000.57 919.593 -997.919 921.959 -995.302 924.295C-963.004 953.125 -935.108 978.041 -938.341 1028.2C-939.466 1045.65 -943.071 1061.41 -946.559 1076.63C-955.333 1115.09 -962.283 1145.45 -924.366 1179.55C-909.782 1192.66 -894.322 1202.12 -880.681 1210.47C-843.29 1233.33 -816.279 1249.87 -850.296 1312.72C-853.265 1318.19 -856.231 1323.54 -859.135 1328.79C-883.591 1372.9 -902.913 1407.73 -889.435 1457.87C-881.669 1486.74 -867.967 1516.12 -854.703 1544.54C-848.042 1558.81 -841.158 1573.57 -835.287 1587.77C-797.508 1679.15 -765.629 1747.86 -731.891 1810.59C-716.534 1839.16 -700.032 1867.76 -684.071 1895.39C-670.283 1919.29 -656.018 1944 -642.532 1968.62C-640.334 1972.64 -638.23 1976.55 -636.186 1980.35C-616.117 2017.66 -601.617 2044.6 -555.31 2059.09C-540.885 2063.61 -524.836 2065.22 -509.316 2066.77C-490.556 2068.65 -471.165 2070.59 -453.796 2077.61C-393.342 2102.04 -405.007 2148.52 -417.361 2197.72L-424.876 2196.35C-410.857 2140.49 -406.033 2105.09 -457.113 2084.45C-473.471 2077.83 -492.304 2075.95 -510.507 2074.11C-526.425 2072.54 -542.876 2070.88 -558.058 2066.13C-607.186 2050.76 -622.248 2022.75 -643.093 1983.99C-645.134 1980.21 -647.236 1976.32 -649.426 1972.31C-662.874 1947.75 -677.119 1923.09 -690.893 1899.22C-706.874 1871.53 -723.401 1842.89 -738.812 1814.23C-757.741 1779.02 -776.101 1741.95 -795.227 1700.08Z" fill="#F8C3B3" fill-opacity="0.1"/>
</g>
<defs>
<clipPath id="clip0">
<rect width="1488.22" height="2520.64" fill="white" transform="translate(1159.01 -24.4417) rotate(110)"/>
</clipPath>
</defs>
</svg>
