<svg width="681" height="783" viewBox="0 0 681 783" fill="none" xmlns="http://www.w3.org/2000/svg">
<path d="M0.0117188 626.258C4.66291 625.604 9.3141 624.926 13.9653 624.308C18.2508 623.737 22.5363 623.202 26.8218 622.703C33.5414 621.918 40.2611 621.18 46.9807 620.396C50.2263 620.015 53.4604 619.587 56.6831 618.695C55.8831 618.6 55.0946 618.505 54.2947 618.41C54.2947 618.279 54.2947 618.148 54.2947 618.017C63.0485 616.804 71.8366 615.817 80.5447 614.331C94.8183 611.881 109.058 609.241 121.743 601.238C125.937 598.586 130.554 596.66 134.725 593.96C136.073 593.092 137.125 590.928 137.388 589.215C137.776 586.587 138.759 584.637 140.656 582.984C142.77 581.153 143.422 579.155 142.816 575.992C142.233 572.912 143.273 569.487 143.742 566.229C144.21 562.982 144.861 559.772 145.433 556.537C145.159 556.656 144.873 556.775 144.599 556.894C143.559 555.752 141.456 554.349 141.65 553.528C142.53 549.842 139.765 547.702 138.782 544.883C136.553 538.45 136.519 537.427 141.433 533.087C145.227 529.733 149.204 526.606 153.067 523.335C153.398 523.062 153.444 522.444 153.741 522.099C155.067 520.541 155.901 518.543 158.815 519.732C161.146 520.684 163.752 519.578 165.443 517.485C167.866 514.488 170.083 511.36 170.323 507.139C170.449 504.975 171.374 503.131 173.58 502.073C179.203 499.397 184.848 496.734 190.253 493.642C193.568 491.751 197.442 489.741 198.002 485.294C198.39 482.19 197.922 478.849 197.282 475.745C196.013 469.656 195.785 463.948 199.59 458.561C201.201 456.278 201.704 453.424 199.796 450.867C196.322 446.206 197.362 441.616 199.647 436.871C201.121 433.815 202.253 430.592 203.567 427.453C204.058 426.299 204.424 424.991 205.213 424.087C208.87 419.854 210.378 414.491 212.664 409.52C215.658 402.991 218.823 396.653 224.377 391.694C228.229 388.257 231.04 383.525 234.103 379.208C236.891 375.26 239.199 370.943 242.091 367.078C244.982 363.214 246.719 358.897 248.399 354.414C249.336 351.893 251.096 349.657 252.742 347.493C254.422 345.281 256.341 343.235 258.273 341.25C260.833 338.61 262.673 335.863 262.353 331.736C262.238 330.167 263.598 328.323 264.592 326.825C266.821 323.471 266.809 318.691 270.752 316.42C271.472 316.003 271.986 315.135 272.741 314.838C281.186 311.473 287.826 305.646 294.339 299.236C298.031 295.609 299.779 291.221 301.916 286.928C303.848 283.052 307.162 280.875 309.984 278.033C312.887 275.108 315.31 271.624 317.653 268.163C318.144 267.438 317.458 265.737 317.138 264.536C316.498 262.134 315.698 259.779 315.024 257.377C313.71 252.74 311.767 248.494 308.91 244.606C306.773 241.692 306.956 239.231 309.516 236.769C312.876 233.534 316.578 230.669 320.064 227.565C321.298 226.459 322.27 225.044 323.504 223.926C325.058 222.511 326.749 221.238 328.143 220.109C328.635 218.741 328.909 217.302 329.618 216.161C331.149 213.675 330.898 211.297 330.475 208.479C330.109 206.017 331.126 203.246 331.869 200.713C333.023 196.777 333.972 192.936 333.537 188.679C333.252 185.801 334.097 182.793 335 179.796C335.206 180.426 335.4 181.044 335.606 181.675C335.835 181.615 336.074 181.556 336.303 181.496C335.994 180.164 335.686 178.821 335.469 177.881C337.023 173.969 338.52 170.199 340.017 166.418C340.154 166.061 340.269 165.704 340.429 165.359C341.183 163.671 342.508 162.018 342.611 160.282C342.851 156.215 341.194 152.635 338.371 149.841C333.675 145.179 328.692 140.827 324.144 136.011C322.647 134.417 321.698 131.908 321.264 129.66C320.201 124.119 319.664 118.482 317.401 113.238C316.818 111.894 316.441 110.443 316.156 109.005C316.087 108.636 316.773 108.113 317.104 107.661C314.99 107.387 315.001 105.841 315.127 104.176C315.173 103.629 314.956 103.071 315.001 102.524C315.07 101.703 315.276 100.906 315.413 100.098C315.173 100.05 314.933 100.002 314.681 99.9549C314.464 100.514 314.247 101.073 314.03 101.632C313.916 101.62 313.813 101.608 313.698 101.608C314.144 97.8382 314.601 94.0566 315.047 90.2869C314.841 90.1442 314.647 90.0015 314.441 89.8588C314.441 90.2632 314.453 90.6675 314.453 91.0718C314.156 90.9886 313.87 90.8934 313.573 90.8102C312.281 83.6157 310.922 76.445 309.722 69.2386C308.396 61.3425 303.265 55.3253 296.671 54.4216C291.105 53.6605 286.42 55.9199 282.534 59.8204C281.654 60.7123 281.266 62.7576 281.494 64.1133C282.889 72.5921 283.197 81.273 286.043 89.5259C286.888 91.9756 286.511 95.008 286.203 97.7193C285.631 102.654 288.02 106.805 289.083 111.3C290.763 118.435 292.442 125.558 294.259 132.657C295.174 136.225 297.894 138.246 300.796 140.03C301.688 140.577 302.648 141.136 303.322 141.933C306.67 145.916 310.236 149.757 313.104 154.098C315.058 157.047 315.447 160.531 313.161 164.087C310.75 167.845 308.339 171.828 307.082 176.086C305.722 180.688 305.402 185.718 305.196 190.582C305.025 194.613 304.385 198.371 302.556 201.903C301.185 204.542 300.671 207.111 301.951 210.048C303.025 212.522 302.156 215.079 300.511 216.886C296.865 220.87 292.98 224.639 289.105 228.385C285.78 231.596 282.112 234.45 279.037 237.887C278.157 238.874 278.637 241.383 278.855 243.143C278.946 243.916 279.883 244.629 280.523 245.272C284.42 249.255 286.157 253.988 285.7 259.744C285.586 261.218 286.306 263.062 287.208 264.263C288.408 265.844 288.751 267.117 287.917 268.96C285.7 273.883 281.472 276.82 277.906 280.459C273.701 284.764 270.101 289.723 265.964 294.099C259.713 300.711 254.364 308.559 245.896 312.376C239.965 315.052 236.045 319.393 233.76 325.445C232.686 328.288 232.148 331.356 231.234 334.269C230.743 335.815 230.228 337.492 229.257 338.717C227.097 341.416 224.789 344.02 222.286 346.351C218.538 349.847 216.903 354.509 214.961 359.087C211.864 366.341 207.635 372.822 202.458 378.708C200.321 381.134 199.144 384.452 197.259 387.175C195.785 389.304 194.093 391.349 192.162 393.026C187.282 397.236 185.065 403.217 181.911 408.616C180.322 411.327 180.3 414.514 178.768 417.131C176.86 420.377 174.643 423.445 172.94 426.799C170.643 431.317 168.746 436.062 166.586 440.664C164.929 444.172 165.912 447.419 167.352 450.594C168.609 453.353 168.814 455.945 167.146 458.633C163.718 464.186 164.758 470.144 165.718 476.149C166.22 479.3 166.837 482.678 166.266 485.722C165.318 490.74 160.975 493.107 157.101 495.485C153.055 497.97 148.781 500.051 144.61 502.311C142.29 503.571 141.993 505.676 142.564 508.007C143.513 511.848 145.959 514.452 150.027 516.581C147.707 519.435 145.639 521.98 143.239 524.941C143.262 521.718 142.233 519.863 139.879 518.769C131.262 514.809 122.668 510.802 114.074 506.77C112.669 506.104 111.355 505.212 109.343 504.035C111.183 503.06 112.303 502.442 113.434 501.871C119.308 498.922 125.64 497.863 131.982 496.591C137.548 495.473 142.016 492.096 144.781 486.828C145.524 485.413 145.821 483.344 145.467 481.786C144.599 477.897 143.227 474.128 142.073 470.31C141.033 466.874 141.582 463.615 143.501 460.702C145.959 456.98 146.736 453.353 144.176 449.286C141.719 445.373 143.73 441.675 145.159 438.048C146.598 434.374 148.187 430.747 149.707 427.108C150.084 426.204 150.278 425.122 150.895 424.444C155.798 418.962 157.535 411.767 160.563 405.286C162.975 400.137 165.809 395.5 170.174 391.73C173.054 389.244 175.111 385.641 177.271 382.347C181.248 376.306 185.191 370.23 188.813 363.963C190.791 360.55 191.956 356.637 193.739 353.082C194.779 351.025 196.207 349.134 197.647 347.35C200.253 344.127 203.121 341.131 205.635 337.849C206.515 336.695 206.687 334.959 207.19 333.496C208.104 330.88 209.018 328.264 209.955 325.66C211.201 322.199 212.881 319.048 215.875 316.836C217.006 316.003 217.966 314.755 219.212 314.255C229.074 310.379 236.24 302.827 243.336 295.181C243.942 294.527 244.273 293.481 244.468 292.553C245.553 287.142 248.125 282.814 252.285 279.27C255.244 276.737 257.747 273.61 260.353 270.637C262.318 268.389 261.541 265.939 260.97 263.24C260.273 259.934 260.535 256.402 260.501 252.966C260.501 252.597 261.313 252.228 261.747 251.86C261.073 251.55 260.227 251.408 259.77 250.884C257.37 248.161 254.719 245.581 252.833 242.489C251.279 239.956 253.267 237.673 255.062 235.937C260.798 230.395 266.649 224.961 272.421 219.455C275.62 216.398 276.786 212.807 275.632 208.253C275.243 206.719 275.723 204.673 276.443 203.175C278.226 199.441 278.717 195.564 278.946 191.473C279.232 186.384 279.975 181.318 280.649 176.252C280.786 175.229 281.426 174.266 281.94 173.327C283.929 169.724 286.454 166.334 287.86 162.493C289.505 158.01 287.654 153.812 284.637 150.447C280.409 145.726 276.66 140.494 271.106 137.164C268.204 135.416 267.301 131.956 266.992 128.78C266.204 120.646 263.152 113.202 261.027 105.461C260.193 102.405 260.444 99.0392 260.181 95.8047C259.918 92.5702 259.816 89.2881 259.278 86.1011C258.501 81.5228 257.359 77.0158 256.456 72.4732C256.387 72.0926 256.97 71.5813 257.13 71.3197C256.581 69.1197 255.861 66.8365 255.461 64.5057C254.444 58.5718 251.965 54.041 245.759 52.8162C245.222 52.7092 244.731 52.4356 244.228 52.2454C243.896 47.7622 243.885 47.6909 248.045 46.7038C257.484 44.4682 266.935 42.292 276.398 40.1634C277.46 39.9256 278.603 40.1277 279.974 40.1277C279.974 45.1579 279.974 49.9384 279.974 54.4572C283.54 51.2227 286.694 47.6076 290.511 45.039C300.248 38.4748 310.841 37.3688 321.607 41.9353C328.383 44.8131 331.915 51.0443 333.675 58.0842C335.035 63.5306 335.435 69.2267 336.44 74.7683C337.023 77.979 338.074 81.0947 338.714 84.3054C339.617 88.848 341.251 93.3907 338.383 97.9571C337.32 99.6457 336.932 101.786 336.2 103.82C340.211 103.451 339.046 100.24 339.537 97.969C339.949 101.061 340.36 104.153 340.829 107.673C340.817 107.685 340.257 108.136 339.389 108.838C340.029 109.563 340.474 110.36 341.137 110.729C343 111.775 343.628 113.726 343.251 116.175C343.126 116.936 344.2 117.911 344.817 118.958C344.611 119.089 344.12 119.398 343.046 120.088C344.234 120.016 344.794 119.992 345.251 119.969C346.04 121.943 346.028 124.226 346.268 126.354C346.52 128.65 347.194 130.588 347.868 132.705C348.668 135.19 350.188 136.486 352.017 138.068C356.645 142.075 360.873 146.594 365.33 150.958C364.439 151.696 363.993 152.076 363.296 152.647C364.599 153.135 365.559 153.503 366.142 153.717C366.621 155.382 366.884 156.869 367.456 158.201C368.427 160.472 367.833 162.446 366.519 164.218C365.479 165.609 364.016 166.667 363.022 168.094C362.279 169.165 362.039 170.604 361.467 171.816C360.405 174.064 359.262 176.276 357.925 178.987C359.09 180.937 359.033 183.363 357.811 186.61C356.965 188.845 355.273 191.557 356.451 194.779C357.628 198.026 355.993 201.153 354.005 203.793C352.359 205.969 350.851 207.741 354.039 210.108C355.891 211.487 354.988 215.495 353.285 217.076C351.639 218.598 350.439 220.632 348.851 222.237C347.182 223.914 345.274 225.329 343.491 226.887C339.777 230.157 336.006 233.368 332.395 236.757C329.183 239.778 329.321 241.966 331.732 245.676C334.429 249.826 336.68 254.25 337.389 259.399C337.617 261.052 338.577 262.705 339.514 264.132C341.171 266.641 341.274 268.96 339.297 271.243C337.309 273.538 335.514 276.131 333.195 277.974C328.566 281.648 325.526 286.56 322.395 291.447C316.293 300.96 308.853 308.868 298.568 313.494C294.385 315.373 290.591 317.763 289.14 322.758C288.945 323.436 287.906 323.816 287.323 324.411C285.506 326.242 283.563 327.978 282.009 330.036C281.449 330.761 281.666 332.319 281.849 333.425C282.272 335.982 281.666 337.872 279.689 339.656C276.546 342.498 273.426 345.471 270.866 348.848C269.084 351.191 267.895 354.188 267.072 357.089C265.278 363.38 261.221 368.244 258.021 373.643C255.427 378.007 253.05 382.514 250.319 386.783C248.936 388.947 247.233 391.028 245.291 392.622C239.017 397.771 235.977 404.87 233.863 412.505C232.88 416.06 231.417 419.212 229.246 422.161C227.634 424.361 226.56 427.013 225.406 429.534C223.76 433.149 222.172 436.811 220.709 440.522C219.418 443.792 219.349 447.133 221.315 450.154C223.417 453.4 223.463 456.468 221.303 459.691C217.532 465.316 220.252 470.834 221.612 476.411C222.343 479.396 223.44 482.701 222.835 485.52C222.286 488.112 220.023 490.681 217.898 492.429C215.144 494.688 211.772 496.163 208.641 497.911C206.081 499.338 203.327 500.456 200.95 502.156C199.624 503.108 198.127 504.879 197.99 506.402C197.064 517.021 190.676 523.668 183.202 529.733C179.842 532.456 176.768 535.477 174.94 539.71C172.951 544.289 170.586 548.689 168.38 553.172C168.255 553.421 168.083 553.707 168.095 553.968C168.597 561.187 163.478 566.169 161.375 572.353C161.101 573.174 160.655 574.018 160.666 574.838C160.746 578.453 159.181 581.117 156.301 582.853C152.952 584.875 151.49 588.431 149.353 591.451C148.85 592.153 148.393 593.152 147.707 593.425C141.193 596.017 137.582 602.534 131.971 606.09C126.942 609.277 121.148 611.548 115.412 613.046C106.361 615.413 97.1153 617.042 87.8815 618.505C78.3277 620.015 68.6825 621.002 59.0715 622.108C51.3234 623 43.5181 623.475 35.8042 624.605C30.8444 625.331 25.9761 626.805 21.1192 628.173C20.0793 628.47 18.845 629.528 18.4565 630.551C16.548 635.51 14.6624 640.504 13.2568 645.642C12.6168 647.984 12.8911 650.684 13.1425 653.169C13.3939 655.654 12.6511 657.391 10.8226 658.865C10.0455 659.495 9.48552 660.411 8.6627 661.386C5.83999 659.436 2.94871 657.438 0.0688587 655.44C0.0117188 645.689 0.0117188 635.974 0.0117188 626.258Z" fill="#C1B3AF" fill-opacity="0.11"/>
<path d="M0.011428 343.831C1.85133 341.547 3.75981 339.312 5.45115 336.91C5.69114 336.577 4.99403 335.352 4.53691 334.674C1.48564 330.048 2.03418 328.585 4.73119 323.579C8.09101 317.324 13.8393 315.968 19.4504 314.125C30.0556 310.653 40.7751 307.561 51.3459 303.982C55.2429 302.662 58.2027 300.212 59.6884 295.491C60.6255 292.494 61.2997 290.104 60.7397 286.893C60.2598 284.134 62.3054 281.744 64.6253 280.091C67.3108 278.176 68.7279 275.632 68.8536 272.171C68.945 269.46 67.9051 267.581 65.7109 266.38C63.6425 265.25 61.5397 264.109 59.357 263.24C55.3914 261.671 53.0944 258.46 51.0602 254.869C49.0603 251.349 46.889 248.031 43.9863 245.118C40.7179 241.824 41.575 239.766 45.232 236.758C54.5458 229.111 65.6309 225.389 76.3161 220.692C80.1902 218.991 83.8357 216.684 87.4584 214.437C89.5954 213.105 89.5268 211.749 87.6641 209.954C87.1727 209.478 86.7156 208.919 86.1327 208.634C83.7214 207.433 83.5157 205.411 84.8071 203.497C88.6012 197.907 86.167 193.353 83.31 188.406C81.173 184.708 79.8473 180.486 78.4417 176.395C78.2017 175.682 79.1388 174.207 79.8816 173.506C82.3729 171.187 85.3556 169.486 86.4984 165.752C86.8527 164.599 88.8183 163.921 90.1211 163.136C93.5495 161.079 93.5038 159.069 92.2124 155.704C91.1382 152.885 88.6012 150.697 86.807 148.164C86.3042 147.463 85.8585 146.5 85.8813 145.667C85.9956 141.041 84.3728 138.603 80.2016 136.713C72.7848 133.359 66.5109 128.329 61.0483 122.133C57.2885 117.864 53.3344 113.785 49.6203 109.469C48.8661 108.589 48.8775 107.043 48.3747 105.877C48.1347 105.342 47.5747 104.795 47.0376 104.593C45.7119 104.094 45.1977 103.535 46.0776 102.072C46.3062 101.704 45.7462 100.752 45.4377 100.122C45.072 99.3727 44.272 98.7187 44.2149 97.9695C43.872 93.9144 42.1464 90.3231 40.7979 86.6248C39.3923 82.7719 37.7466 79.026 36.4667 75.1374C36.0782 73.9602 37.0381 72.2596 36.5696 71.1656C34.6268 66.5873 35.0268 61.8306 35.2439 57.0977C35.7125 46.7281 39.518 37.5477 44.7177 28.8668C53.163 14.8108 65.7338 6.97414 80.7159 2.55043C87.5155 0.54073 94.418 -0.612757 101.343 0.338579C108.314 1.28992 115.194 3.18069 122.051 4.92877C125.502 5.80876 128.828 7.2001 132.142 8.57953C132.85 8.87683 133.662 10.066 133.673 10.8508C133.776 21.6961 133.742 32.5413 133.742 43.5768C132.336 43.5768 131.388 43.446 130.473 43.6006C128.553 43.9336 127.925 42.8039 127.342 41.1747C125.365 35.7402 123.765 30.0678 121.068 25.0258C114.646 13.027 105.377 7.27144 92.2238 8.59142C86.6013 9.15033 81.7215 12.0162 77.6874 16.2616C70.6478 23.6582 67.7794 33.0289 65.7109 42.8752C64.2139 50.0221 64.2024 57.181 65.2424 64.2684C66.4995 72.8067 68.5451 81.1665 72.7963 88.801C73.8248 90.6442 74.0419 92.975 74.6933 95.2939C74.2705 95.2225 73.7676 95.1393 73.2648 95.0561C73.2191 95.2463 73.1048 95.5793 73.1391 95.5912C75.699 96.8279 75.5504 99.3727 75.9961 101.704C76.1675 102.595 76.8875 103.404 77.436 104.177C83.5729 112.691 90.8411 119.934 99.3663 125.879C107.126 131.302 121.857 132.824 130.405 128.436C134.416 126.379 138.096 123.477 140.061 119.232C141.49 116.164 141.878 112.584 142.724 109.279C143.113 109.279 143.307 109.219 143.41 109.29C145.17 110.539 148.347 111.716 148.415 113.06C148.598 116.735 147.855 120.599 146.758 124.155C145.833 127.176 143.89 129.851 142.438 132.705C140.793 135.94 141.296 136.891 144.427 138.722C149.181 141.517 154.095 144.193 158.358 147.689C167.317 155.026 167.98 165.253 163.363 174.921C158.46 185.183 153.386 195.291 149.809 206.172C148.495 210.168 149.352 213.961 149.421 217.886C149.478 221.013 149.341 224.224 148.678 227.268C147.478 232.845 142.507 233.69 137.776 236.092C139.01 233.606 139.924 231.93 140.701 230.182C142.027 227.185 141.021 224.854 138.679 222.928C134.039 219.098 128.473 218.444 123.034 219.134C111.377 220.609 99.9606 223.498 89.264 228.648C84.03 231.169 78.9788 234.332 74.3162 237.875C70.5792 240.718 71.0364 242.501 73.7334 245.653C76.6932 249.125 79.9273 252.455 82.3272 256.331C84.9899 260.636 88.8069 262.527 93.0695 264.216C98.0521 266.19 102.966 268.39 107.834 270.661C112.303 272.742 116.703 272.135 121.148 270.792C128.668 268.52 135.776 265.643 140.873 258.864C143.056 255.963 144.427 259.518 146.118 260.006C144.987 266.618 140.096 269.817 135.764 273.384C130.348 277.844 124.405 281.685 120.851 288.154C120.44 288.903 119.891 289.735 119.891 290.532C119.902 294.528 117.88 296.846 114.246 298.19C112.029 294.195 108.314 292.661 104.018 291.876C97.8693 290.746 91.6982 291.935 87.0013 295.289C73.0705 305.23 56.6028 307.811 41.3236 313.792C37.9295 315.124 34.6382 316.765 31.4041 318.489C29.4842 319.512 28.7642 323.52 30.0442 326.825C31.0841 329.513 32.4326 332.165 34.0783 334.484C35.1982 336.065 35.0153 336.874 34.2382 338.539C32.2955 342.713 29.2214 345.579 25.8044 348.326C21.8389 351.513 21.5189 353.808 23.3245 358.66C24.193 361.002 24.8444 363.476 25.2787 365.961C25.953 369.743 28.5128 371.645 31.4955 373.084C35.7924 375.153 40.2494 374.69 44.6377 373.453C55.4029 370.42 64.2938 364.106 71.6878 355.651C74.9562 351.905 77.1161 347.137 80.1559 343.141C84.1328 337.909 88.464 332.985 92.7381 327.824C93.7438 328.55 94.658 329.216 95.9265 330.155C94.8523 332.391 94.1552 334.983 92.6238 336.814C87.0927 343.414 81.8587 350.193 77.0132 357.411C71.0135 366.354 62.6254 373.013 54.0544 379.339C45.1748 385.88 38.2038 394.228 33.564 404.609C31.5641 409.08 27.6672 411.744 23.8731 414.408C20.5704 416.727 17.1534 418.891 13.9421 421.353C11.2109 423.446 11.1537 425.753 12.4679 428.928C15.6449 436.669 20.159 443.899 21.5646 452.295C21.8846 454.209 20.3532 457.004 18.879 458.586C13.7707 464.115 7.23391 466.934 0 468.111C0.011428 426.68 0.011428 385.261 0.011428 343.831ZM129.182 147.213C129.525 147.724 129.628 147.998 129.822 148.153C133.33 151.054 134.016 155.228 132.028 159.331C130.645 162.185 128.051 162.637 125.662 163.671C123.948 164.408 122.062 164.991 120.657 166.168C117.971 168.392 115.72 171.199 113.011 173.363C111.206 174.814 111.114 176.169 112.189 177.822C116.04 183.78 120.474 189.012 127.799 190.273C129.262 190.523 130.782 190.749 132.245 190.606C141.17 189.774 147.078 183.768 152.655 177.347C154.506 175.218 155.341 166.977 153.821 165.074C151.604 162.292 149.147 159.699 146.621 157.202C144.084 154.693 140.804 152.79 138.816 149.901C136.096 145.976 132.873 146.963 129.182 147.213Z" fill="#C1B3AF" fill-opacity="0.11"/>
<path d="M0.0117188 775.5C6.31997 774.845 12.6282 774.203 18.9365 773.549C18.9136 773.24 18.8908 772.931 18.8679 772.622C16.5823 772.622 14.2853 772.622 11.9997 772.622C11.954 772.443 11.9197 772.265 11.874 772.098C12.8453 771.694 13.8853 771.397 14.7767 770.85C16.5366 769.756 18.2965 768.638 19.8507 767.27C20.3307 766.842 20.525 765.225 20.1478 764.738C18.7879 762.942 19.5193 761.669 20.6621 760.338C29.0502 763.18 34.8442 759.945 35.2785 751.787C40.1125 751.181 45.0151 750.432 49.9406 749.968C59.4258 749.088 68.911 748.315 78.4077 747.59C84.8988 747.102 91.4242 746.924 97.9153 746.329C108.749 745.318 119.526 743.891 130.051 740.883C143.639 736.994 157.261 733.225 170.769 729.051C176.106 727.398 181.008 724.567 183.682 718.954C183.968 718.348 184.265 717.694 184.311 717.04C184.642 712.937 184.677 708.799 185.237 704.732C185.888 700.094 189.065 697.312 192.79 695.159C197.762 692.293 202.527 689.213 204.344 683.113C204.847 681.424 205.018 679.629 205.475 677.916C205.841 676.549 206.207 675.11 206.938 673.944C208.447 671.53 208.252 670.08 205.521 669.342C197.876 667.285 190.288 667.095 183.054 671.09C181.294 672.065 179.34 672.826 177.854 674.146C175.294 676.418 172.563 678.713 170.734 681.579C167.215 687.085 163.295 691.925 157.832 695.48C154.61 697.573 153.147 700.986 153.935 705.113C153.992 705.398 154.164 705.767 154.061 705.969C151.81 710.095 152.152 714.59 151.958 719.109C151.81 722.617 148.724 724.734 145.959 726.066C141.673 728.147 137.136 729.74 132.599 731.155C123.834 733.879 115.034 736.554 106.155 738.849C97.7324 741.025 89.2414 743.047 80.6704 744.462C73.7222 745.616 66.6026 745.746 59.5744 746.389C51.5177 747.126 43.4609 747.899 35.4156 748.743C28.4903 749.469 21.5878 750.313 14.6738 751.157C13.4739 751.3 12.2854 751.68 11.2683 751.906C11.2683 753.857 11.2683 755.724 11.2683 757.579C10.9369 757.721 10.6055 757.864 10.274 758.007C8.1713 756.199 6.05712 754.392 3.30298 752.037C9.01697 751.05 13.8739 750.111 18.7536 749.385C25.999 748.315 33.2672 747.423 40.5239 746.4C46.1922 745.604 51.9633 745.235 57.4602 743.772C62.4314 742.452 67.0369 739.705 71.9166 737.934C76.7735 736.174 81.7332 734.64 86.7387 733.415C88.9443 732.88 91.4585 733.772 93.6755 733.284C100.807 731.726 107.983 730.216 114.909 727.933C119.126 726.541 123.217 724.104 125.651 719.87C126.337 718.669 126.28 716.98 126.508 715.506C126.554 715.244 126.257 714.923 126.302 714.662C126.977 710.642 127.297 706.492 128.508 702.639C129.594 699.155 132.793 697.347 135.856 695.73C138.553 694.315 141.662 693.328 143.81 691.271C147.947 687.334 151.478 682.709 155.375 678.487C156.929 676.798 158.632 675.157 160.529 673.956C163.489 672.077 166.026 669.972 167.923 666.821C170.277 662.897 173.226 659.377 175.683 655.512C176.734 653.859 177.5 651.861 177.854 649.911C178.425 646.843 178.345 643.632 178.974 640.576C179.157 639.672 180.905 638.341 181.728 638.483C187.065 639.423 192.356 640.636 197.613 641.956C199.361 642.396 199.956 643.823 198.39 645.226C197.179 646.32 195.682 647.069 194.322 647.973C194.653 648.33 194.996 648.674 195.327 649.031C195.396 649.21 195.43 649.471 195.556 649.554C199.841 652.634 199.784 652.551 195.407 655.643C194.036 656.606 192.025 658.366 192.173 659.496C192.493 661.91 195.087 661.946 197.064 661.981C200.104 662.029 203.167 662.065 206.173 661.708C213.566 660.84 220.058 663.206 226.103 667.356C228.469 668.986 228.663 671.554 226.297 673.171C223.92 674.801 223.017 677 222.983 679.664C222.903 686.466 219.84 691.223 214.332 694.66C211.738 696.277 209.018 698.655 210.024 702.092C211.098 705.767 209.99 708.668 208.95 711.867C208.618 712.89 208.755 714.293 209.167 715.316C210.355 718.253 209.67 720.56 207.75 722.879C204.104 727.302 199.213 729.015 194.048 730.477C184.585 733.153 175.248 736.293 165.775 738.873C157.821 741.037 149.787 742.916 141.707 744.486C137.193 745.366 132.531 745.378 127.925 745.794C119.4 746.567 110.863 747.376 102.338 748.125C99.4238 748.386 96.4982 748.505 93.5841 748.767C85.1502 749.54 76.7164 750.325 68.2825 751.169C67.1054 751.288 65.9512 751.728 65.2884 751.894C64.7284 753.987 64.4656 755.807 63.7685 757.412C62.3171 760.789 60.5115 763.988 59.1173 767.377C57.8945 770.339 55.5403 771.742 52.889 772.431C49.3463 773.347 45.7008 773.858 42.0667 774.31C35.0499 775.178 28.0217 775.916 20.9935 776.653C18.2622 776.938 15.5309 777.141 12.7882 777.295C8.52557 777.533 4.27436 777.711 0.0117188 777.902C0.0117188 777.093 0.0117188 776.296 0.0117188 775.5Z" fill="#C1B3AF" fill-opacity="0.11"/>
<path d="M0.0117188 780.851C2.70872 780.458 5.3943 779.887 8.11416 779.697C15.1881 779.198 22.2849 778.948 29.3588 778.448C39.4154 777.735 49.4835 777.045 59.5172 776.023C65.9398 775.368 72.3051 774.155 78.6934 773.168C83.6874 772.396 87.1272 769.613 88.9786 764.642C89.8242 762.383 91.1499 760.314 91.9841 758.042C92.647 756.223 92.8984 754.237 93.4698 751.74C97.5724 751.193 102.281 750.42 107.012 749.968C116.2 749.076 125.4 748.315 134.599 747.589C140.804 747.102 147.044 746.959 153.238 746.329C162.929 745.342 172.586 744.2 182.014 741.334C195.385 737.267 208.892 733.7 222.229 729.514C225.92 728.361 229.383 726.065 232.605 723.758C235.291 721.832 236.251 718.811 235.725 715.173C235.405 712.961 235.92 710.582 236.32 708.323C236.697 706.183 237.462 704.125 237.954 702.009C238.811 698.37 241.816 696.871 244.388 694.969C246.09 693.72 247.988 692.733 249.633 691.401C251.713 689.724 251.553 688.725 249.462 687.001C248.182 685.955 247.028 684.754 245.816 683.612C247.405 682.851 248.936 681.662 250.593 681.412C260.353 679.973 269.392 676.037 278.683 672.957C280.329 672.41 282.089 672.22 284.329 671.744C283.746 672.672 283.551 673.302 283.163 673.54C279.666 675.704 278.58 679.688 276.478 682.91C275.198 684.873 275.826 686.43 277.643 687.275C280.226 688.476 282.934 689.403 285.631 690.343C287.106 690.854 288.648 691.163 290.945 691.782C288.043 693.886 285.62 693.732 283.209 693.684C278.74 693.601 274.272 693.553 269.815 693.553C266.215 693.553 263.632 695.599 262.033 698.691C261.415 699.88 261.324 701.997 261.93 703.138C263.347 705.754 262.021 707.824 261.575 710.178C261.255 711.891 261.267 713.793 261.633 715.494C262.17 717.943 262.101 720.001 260.695 722.224C258.204 726.173 254.627 728.325 250.49 729.633C240.297 732.832 230.114 736.078 219.84 738.992C212.378 741.108 204.824 742.928 197.224 744.474C193.008 745.33 188.631 745.378 184.322 745.794C175.991 746.579 167.66 747.375 159.329 748.125C156.232 748.398 153.112 748.481 150.015 748.779C142.062 749.528 134.096 750.336 126.154 751.181C125.262 751.276 124.417 751.728 124.291 752.358C123.834 754.201 123.571 756.128 122.874 757.876C121.72 760.801 120.006 763.501 119.08 766.485C118.017 769.91 115.789 771.848 112.749 772.479C107.526 773.549 102.212 774.298 96.921 774.905C88.9671 775.808 80.979 776.498 73.0023 777.235C69.8938 777.521 66.7626 777.723 63.6427 777.901C56.3631 778.318 49.0835 778.615 41.8039 779.126C34.6499 779.626 27.5074 780.303 20.365 780.946C19.8621 780.993 19.3822 781.374 18.3765 781.838C20.0678 782.016 21.1649 782.123 22.2734 782.242C14.8338 783.895 7.42848 782.373 0.0231467 782.075C0.0117187 781.647 0.0117188 781.255 0.0117188 780.851Z" fill="#C1B3AF" fill-opacity="0.11"/>
<path d="M0.0117188 621.502C0.263134 621.359 0.51455 621.109 0.765966 621.109C7.32563 621.085 13.8739 621.097 20.445 620.729C13.6339 621.18 6.8228 621.644 0.0117188 622.096C0.0117187 621.906 0.0117188 621.704 0.0117188 621.502Z" fill="#C1B3AF" fill-opacity="0.11"/>
<path d="M78.8522 473.308C73.881 471.025 68.647 469.062 65.1272 464.389C64.1215 463.057 63.3673 460.774 63.733 459.24C64.5787 455.66 63.6301 452.711 62.2016 449.62C60.6474 446.254 61.036 444.494 64.1215 442.389C68.327 439.523 72.7039 436.931 77.0237 434.267C82.2463 431.033 87.5489 427.941 92.7029 424.611C96.7141 422.019 96.5427 419.581 92.6344 416.834C90.1316 415.074 87.7203 413.112 85.469 411.019C83.332 409.033 83.2863 406.714 84.3262 403.789C86.2804 398.283 89.6174 394.406 94.4743 391.564C97.2513 389.935 98.5426 383.668 96.9656 380.196C94.8285 375.498 94.6685 370.742 95.6399 365.735C96.0627 363.571 95.9485 361.205 95.6171 358.993C94.9085 354.284 96.1656 350.633 99.5483 347.315C102.394 344.521 104.748 341.155 107.068 337.849C107.616 337.064 107.525 335.328 107.091 334.317C105.491 330.583 106.554 327.504 108.165 324.031C111.102 317.705 116.565 315.647 122.21 313.329C128.952 310.546 135.684 307.609 142.072 304.053C148.094 300.688 151.683 295.289 152.426 287.797C152.677 285.264 154.551 282.6 156.311 280.603C158.631 277.963 161.008 275.501 161.991 271.945C162.768 269.139 162.688 266.725 160.025 264.929C156.917 262.825 155.443 259.971 155.1 255.88C154.791 252.181 153.374 248.531 150.231 245.926C146.277 242.656 147.054 239.671 150.963 236.056C158.471 229.112 167.259 224.355 175.887 219.265C177.35 218.397 178.71 217.267 179.944 216.054C183.121 212.903 182.973 212.451 181.293 208.182C180.721 206.743 180.767 204.401 181.533 203.14C184.538 198.181 183.327 193.353 181.967 188.335C180.927 184.47 180.173 180.51 179.601 176.55C179.453 175.527 180.356 174.255 180.961 173.197C182.241 170.949 183.647 168.761 184.995 166.549C185.247 166.145 185.338 165.538 185.681 165.313C188.469 163.446 189.795 160.71 188.835 157.512C187.978 154.634 186.332 151.994 184.927 149.306C184.081 147.701 183.11 146.143 182.058 144.669C180.39 142.314 179.007 139.436 176.79 137.866C170.585 133.49 166.322 127.497 162.654 120.968C159.545 115.427 156.7 109.731 153.751 104.106C153.488 103.606 153.248 103.048 153.214 102.501C152.986 98.1006 152.837 93.6888 152.62 89.2769C152.586 88.5753 152.311 87.8737 152.106 87.1959C150.026 80.2036 150.609 73.2945 152.86 66.5162C153.808 63.6503 155.088 60.8557 156.574 58.2514C162.276 48.2148 171.385 43.256 181.864 40.6874C192.252 38.1307 202.297 39.4982 212 44.1241C220.536 48.203 226.936 54.7077 231.919 62.8179C236.913 70.928 239.221 80.2273 242.25 89.1937C242.821 90.8942 242.912 92.8801 242.821 94.6995C242.547 99.7654 243.472 104.582 244.684 109.469C246.444 116.568 247.186 123.739 244.638 130.957C243.392 134.501 244.615 136.796 248.112 138.532C254.352 141.624 259.586 146.06 264.294 151.221C268.385 155.704 268.957 159.747 266.614 165.479C263.803 172.376 260.9 179.25 258.443 186.289C257.037 190.333 256.489 194.697 255.437 198.883C255.106 200.203 254.135 201.368 253.918 202.688C253.529 205.043 252.923 207.611 253.449 209.823C254.74 215.293 253.22 219.681 249.666 223.487C245.404 228.065 240.901 232.417 236.673 237.031C233.941 240.016 234.284 241.966 236.284 244.713C238.364 247.567 240.227 250.588 242.021 253.644C242.455 254.393 242.33 255.559 242.318 256.534C242.295 259.376 242.09 262.135 243.644 264.822C244.192 265.774 243.918 267.997 243.175 268.866C239.827 272.825 236.101 276.441 232.661 280.317C228.856 284.61 224.982 288.879 221.531 293.481C215.714 301.235 209.805 308.964 200.88 312.841C194.515 315.6 191.704 320.713 189.727 326.873C189.247 328.372 188.698 329.858 188.412 331.404C187.418 336.898 183.544 340.465 180.196 344.211C176.641 348.183 173.727 352.405 170.939 357.007C167.225 363.143 162.128 368.447 157.225 373.715C150.849 380.576 144.015 386.986 137.546 393.752C135.844 395.524 134.404 397.76 133.421 400.055C129.947 408.165 123.936 413.766 117.067 418.558C111.753 422.269 111.651 423.862 114.508 429.737C116.085 432.971 116.187 436.943 117.262 440.475C118.393 444.197 119.639 447.931 121.319 451.415C122.564 454.008 122.484 456.35 120.884 458.3C116.096 464.127 116.016 471.643 113.948 478.409C112.736 482.381 110.908 484.593 106.736 485.021C101.148 485.604 96.257 483.618 91.6744 480.562C89.8002 479.313 88.0746 477.839 85.6061 475.948C87.1946 475.674 87.8917 475.472 88.5774 475.448C90.7602 475.341 92.9429 475.341 95.1257 475.222C101.034 474.925 102.36 473.617 102.085 467.457C101.937 464.199 103.731 462.058 105.274 459.751C108.051 455.601 108.085 454.091 105.742 449.798C104.691 447.871 104.108 445.648 103.457 443.507C102.965 441.914 102.76 440.225 102.337 438.608C101.64 435.98 100.074 434.362 97.3541 434.053C88.8974 433.078 82.1206 436.408 76.6466 442.889C74.8753 444.982 75.0467 447.574 76.1552 449.905C77.7894 453.306 77.5037 456.54 76.1666 459.894C74.921 463.021 75.5724 465.84 77.5837 468.468C78.4979 469.669 79.0808 471.132 79.8122 472.487C79.4922 472.737 79.1722 473.022 78.8522 473.308ZM215.257 96.5428C214.491 93.0823 213.725 88.7894 212.571 84.6154C211.703 81.4522 209.725 78.5268 209.303 75.3398C208.194 67.194 204.731 58.6677 199.372 51.2234C194.858 44.9446 187.567 44.3025 182.413 51.0332C180.093 54.0656 179.293 57.538 179.144 61.2957C178.938 66.5043 178.207 71.7604 178.607 76.9095C179.144 84.0327 181.258 91.0845 181.304 98.1719C181.338 104.308 184.31 109.136 185.704 114.618C186.63 118.269 188.252 121.789 189.932 125.178C191.772 128.888 193.303 133.324 196.263 135.738C202.194 140.602 206.114 146.999 210.514 153.016C212.708 156.025 213.12 159.89 210.971 163.505C208.834 167.096 206.697 170.688 204.617 174.315C204.194 175.064 203.852 175.967 203.806 176.812C203.634 180.367 202.857 184.125 203.669 187.455C205.109 193.389 203.771 198.455 201.463 203.699C200.835 205.138 201.166 207.278 201.634 208.931C202.229 211.06 202.663 212.974 201.132 214.782C199.909 216.233 198.743 217.791 197.326 219.027C190.972 224.557 184.447 229.896 178.15 235.497C173.133 239.957 173.179 241.301 177.601 246.247C177.864 246.533 178.139 246.806 178.413 247.08C180.893 249.589 182.218 252.586 181.91 256.225C181.647 259.257 181.75 262.028 184.013 264.466C185.407 265.976 186.047 268.021 184.584 270.09C182.641 272.825 181.11 276.048 178.71 278.224C174.402 282.125 170.87 286.489 168.082 291.638C165.076 297.192 161.568 302.436 156.105 305.682C150.951 308.738 145.477 311.224 140.369 314.363C137.855 315.909 134.975 317.907 133.787 320.464C131.718 324.899 129.958 329.727 130.747 334.995C130.872 335.84 130.518 336.993 129.992 337.671C127.638 340.715 125.238 343.724 122.679 346.59C119.867 349.741 117.41 352.952 116.976 357.483C116.77 359.718 116.027 361.894 115.502 364.094C114.176 369.719 112.77 375.308 111.525 380.957C110.622 385.071 110.622 389.852 106.816 392.29C102.348 395.155 99.7083 399.187 97.5598 403.908C95.8228 407.725 97.0798 410.579 101.102 411.293C108.611 412.636 113.776 409.33 116.542 401.981C117.73 398.83 119.307 395.607 121.456 393.11C127.433 386.106 133.912 379.565 139.98 372.644C143.832 368.256 148.106 364.035 149.98 358.208C151.774 352.643 154.94 348.255 158.757 344.009C161.545 340.917 164.608 337.933 165.488 333.116C167.076 324.412 172.265 318.228 179.807 314.09C185.532 310.95 191.498 308.108 196.686 304.172C200.869 301.009 204.251 296.668 204.126 290.401C204.057 286.715 205.429 283.29 208.126 280.543C211.131 277.463 213.931 274.169 216.845 270.982C219.028 268.592 219.085 266.071 217.714 263.181C217.039 261.766 216.525 260.006 216.674 258.484C217.177 253.299 215.794 249.209 211.965 245.629C207.988 241.919 208.274 239.945 212.205 236.044C216.628 231.644 220.982 227.173 225.416 222.785C229.29 218.968 231.953 214.794 230.433 208.836C230.09 207.492 230.124 205.685 230.73 204.508C233.176 199.727 233.941 194.542 234.056 189.322C234.25 180.474 237.953 172.84 241.427 165.194C243.278 161.127 243.347 157.535 241.061 154.087C237.13 148.129 232.33 142.873 226.17 139.46C221.702 136.986 220.159 133.467 220.536 128.615C220.971 123.085 219.405 117.972 218.056 112.715C216.777 107.697 213.44 103.083 215.257 96.5428Z" fill="#C1B3AF" fill-opacity="0.11"/>
<path d="M62.5559 673.445C60.956 675.205 59.5618 676.799 58.099 678.309C57.6647 678.749 57.0362 679.07 56.4419 679.236C48.7052 681.413 40.9227 682.233 33.2774 678.998C30.9461 678.011 27.8034 677.322 27.392 674.123C26.752 669.283 26.3749 664.348 26.4777 659.472C26.512 658.093 28.4548 656.571 29.769 655.441C32.1003 653.443 35.0602 652.325 36.2601 648.924C38.3857 642.86 40.8427 636.926 43.1055 630.92C44.1226 628.233 46.4767 627.388 48.7052 626.972C55.242 625.747 61.8359 624.772 68.4299 623.928C77.0009 622.822 85.5947 621.918 94.1886 620.955C99.8911 620.325 105.605 619.861 111.285 619.112C124.473 617.364 137.581 615.235 149.957 609.765C153.454 608.219 156.163 605.805 157.602 602.404C159.282 598.456 162.322 596.66 165.808 595.424C169.293 594.187 172.505 592.581 174.664 589.454C177.041 586.029 180.241 582.64 181.087 578.763C182.584 571.949 186.538 566.61 189.109 560.474C189.304 560.022 189.555 559.558 189.601 559.083C190.435 551.341 195.212 545.585 198.629 539.104C202.572 531.636 209.68 527.569 215.097 521.707C218.662 517.854 220.422 513.133 220.982 508.127C221.405 504.297 223.21 502.716 226.227 501.146C232.581 497.828 238.833 494.237 244.855 490.301C249.003 487.59 249.826 483.368 248.409 478.374C247.426 474.901 246.672 471.12 246.935 467.564C247.175 464.27 248.741 461.023 250.043 457.896C251.026 455.541 251.289 453.46 249.941 451.237C247.106 446.575 247.084 441.842 249.381 436.895C251.198 432.983 251.975 428.333 254.455 425.027C259.689 418.071 261.243 409.354 265.665 402.124C267.494 399.139 269.722 396.416 271.905 393.693C274.648 390.268 277.802 387.152 280.305 383.561C285.059 376.735 289.584 369.719 293.995 362.643C295.435 360.336 296.738 357.696 297.241 355.045C298.167 350.217 301.469 347.291 304.361 344.021C306.006 342.154 307.96 340.596 309.755 338.884C311.48 337.243 311.926 334.9 311.057 333.009C310.2 331.154 311.183 330.286 311.892 329.275C313.994 326.29 316.703 323.924 318.188 320.273C319.183 317.835 321.868 315.552 324.314 314.482C331.434 311.366 337.182 306.467 342.564 300.937C343.501 299.974 344.37 298.916 345.444 298.167C349.067 295.645 350.073 291.341 351.935 287.714C353.707 284.277 356.004 281.59 358.769 279.08C361.443 276.654 363.889 273.931 366.312 271.22C368.243 269.068 368.769 266.677 367.043 263.966C366.346 262.86 366.186 261.409 365.615 260.196C365.26 259.459 364.655 258.817 364.049 258.27C363.718 257.973 363.169 257.889 362.7 257.83C358.609 257.307 355.318 255.868 354.427 251.004C354.152 249.47 353.158 248.079 352.438 246.497C353.124 246.247 353.97 245.807 354.861 245.641C357.455 245.153 359.009 244.261 357.901 240.944C357.558 239.933 358.404 238.018 359.272 237.126C364.106 232.227 369.123 227.542 374.048 222.737C376.334 220.514 378.814 218.611 380.06 215.258C380.882 213.034 380.494 211.333 380.174 209.312C379.911 207.599 379.648 205.542 380.3 204.091C382.505 199.204 382.951 194.078 383.259 188.81C383.614 182.639 384.425 176.717 387.819 171.127C389.956 167.607 392.368 163.707 392.15 158.903C391.945 154.265 388.962 151.625 386.528 148.39C382.825 143.491 377.785 140.364 373.329 136.463C371.454 134.822 369.957 131.35 370.117 128.829C370.483 123.002 367.592 118.281 366.415 113.025C365.74 110.028 364.712 107.091 364.323 104.058C364.003 101.513 364.38 98.8615 364.449 96.2691C364.735 96.2215 365.02 96.1739 365.295 96.1264C364.483 95.5199 363.683 94.9134 362.906 94.3307C363.535 91.5956 364.083 89.1459 361.798 86.7795C360.998 85.959 361.478 83.8541 361.272 82.3558C361.169 81.5947 360.975 80.7742 360.575 80.1558C359.226 78.0986 358.941 74.8164 359.581 74.2337C357.844 66.5993 357.832 59.0599 356.586 51.5087C353.204 51.5087 349.89 51.5087 346.576 51.5087C346.484 51.3184 346.358 51.1638 346.324 50.9973C345.604 47.2277 347.021 45.2774 350.655 44.1002C358.061 41.7218 363.043 35.7641 367.809 29.8539C369.752 27.428 370.746 24.1578 372.094 21.2324C372.689 19.9243 373.248 19.0324 374.94 19.1751C377.488 19.3892 380.071 19.2346 382.631 19.2346C382.562 20.5308 382.425 21.7437 382.448 22.9448C382.562 28.5101 382.665 34.0754 382.974 39.617C383.008 40.1997 384.357 41.151 385.111 41.1629C391.488 41.2818 397.853 41.2343 404.401 41.2343C403.967 43.6364 403.59 45.7055 403.213 47.7747C402.664 50.8309 400.573 51.4611 398.002 51.4254C393.922 51.366 389.842 51.4136 385.762 51.366C383.534 51.3422 382.528 51.7703 383.122 54.6481C384.105 59.3929 384.516 64.2804 385.054 69.1203C385.191 70.3452 384.848 71.6295 384.722 72.7948C385.648 77.1829 386.619 81.7255 387.579 86.2682C387.396 86.1255 387.053 85.8638 386.014 85.0671C386.459 86.4346 386.494 87.5762 386.951 87.8022C389.042 88.8724 388.379 90.7157 388.276 92.3092C388.013 96.1383 387.533 99.9555 387.271 103.785C387.225 104.439 387.796 105.176 388.173 105.818C389.842 108.696 391.636 111.526 390.688 115.177C390.573 115.617 390.55 116.39 390.779 116.568C394.767 119.541 393.156 124.631 394.916 128.436C395.225 129.102 394.665 130.208 394.573 130.767C395.579 132.432 396.23 134.168 397.407 135.321C400.687 138.568 404.344 141.41 407.544 144.74C409.932 147.213 411.887 150.15 413.944 152.969C416.606 156.62 416.503 160.746 414.046 164.527C411.898 167.833 409.338 171.068 408.104 174.754C406.607 179.226 405.613 184.149 405.681 188.846C405.773 194.602 404.424 199.703 402.276 204.805C401.818 205.875 401.59 207.457 402.013 208.455C403.761 212.558 402.756 216.042 399.807 218.754C395.305 222.892 390.436 226.59 385.842 230.634C382.951 233.178 380.288 235.985 377.031 239.16C383.877 241.776 390.025 239.207 396.184 239.35C396.619 240.527 397.019 241.645 397.59 243.203C394.585 243.857 391.556 244.261 388.722 245.237C387.008 245.819 384.117 244.927 383.957 248.257C383.774 252.134 385.956 256.213 388.791 257.057C392.63 258.198 396.504 259.209 400.39 260.173C403.944 261.053 407.407 261.932 407.407 267.522C406.424 267.522 405.155 267.664 403.933 267.498C399.899 266.951 395.899 266.178 391.853 265.738C389.922 265.524 388.951 266.725 387.853 268.628C385.865 272.064 383.294 275.334 380.345 277.915C375.774 281.899 373.431 287.072 371.42 292.601C371.066 293.576 370.711 294.623 370.072 295.396C367.009 299.07 363.855 302.662 360.232 306.859C368.117 307.395 375.088 304.243 382.848 303.958C378.654 308.619 373.968 311.497 368.883 313.887C365.043 315.695 361.215 317.74 359.284 322.105C359.032 322.675 358.564 323.258 358.038 323.567C355.032 325.375 351.947 327.063 348.941 328.883C346.393 330.429 343.764 330.916 340.782 330.678C337.502 330.417 334.153 330.714 330.851 331.023C329.102 331.19 327.902 332.07 328.599 334.424C329.331 336.886 328.496 338.86 326.165 340.049C325.582 340.346 325.16 340.989 324.577 341.286C318.737 344.259 315.651 349.622 314.109 355.722C312.417 362.465 308.258 367.59 304.966 373.322C302.315 377.924 299.927 382.693 297.218 387.259C296.075 389.186 294.727 391.219 292.978 392.468C287.641 396.333 284.624 401.696 283.036 408.01C281.516 414.039 279.619 419.807 275.356 424.456C274.625 425.253 274.259 426.466 273.894 427.56C272.328 432.15 270.637 436.693 269.38 441.367C268.557 444.435 268.671 447.859 270.785 450.357C273.505 453.579 273.174 456.647 271.185 459.775C268.66 463.747 268.568 467.243 270.694 471.762C272.717 476.09 275.208 480.859 274.065 486.067C273.642 487.982 272.397 490.158 270.888 491.252C267.391 493.785 263.517 495.795 259.746 497.912C257.117 499.386 254.34 500.587 251.758 502.157C250.112 503.156 249.175 504.666 249.015 506.973C248.592 512.871 246.466 518.246 242.261 522.29C238.193 526.202 233.507 529.413 229.484 533.361C227.565 535.24 226.445 538.058 225.13 540.543C223.051 544.479 221.119 548.499 219.119 552.483C218.731 553.256 217.954 554.005 217.954 554.778C217.908 561.568 213.211 566.348 211.097 572.223C210.834 572.948 210.331 573.65 210.297 574.375C210.091 578.716 208.046 581.76 204.743 584.329C202.869 585.791 201.794 588.36 199.955 589.894C197.189 592.201 194.092 594.104 191.075 596.078C189.258 597.267 187.487 598.254 186.869 600.739C185.247 607.315 179.91 609.373 174.527 611.335C165.031 614.807 155.225 616.817 145.237 618.006C135.924 619.112 126.644 620.432 117.33 621.502C112.279 622.085 107.159 622.109 102.12 622.786C93.1143 623.999 84.0748 625.141 75.1838 626.996C67.9385 628.506 67.5499 629.255 67.1271 636.783C66.8528 641.682 65.2643 646.047 62.8644 650.006C61.5502 652.171 59.1275 653.681 57.0362 655.251C53.2764 658.081 50.4537 663.194 51.9736 666.346C53.8592 670.27 57.1162 672.969 61.6531 673.314C61.9616 673.302 62.2131 673.374 62.5559 673.445Z" fill="#C1B3AF" fill-opacity="0.11"/>
<path d="M372.874 344.295C370.691 340.525 373.651 339.371 375.559 337.909C381.262 333.556 387.776 333.39 394.415 334.424C396.381 334.734 398.358 335.209 400.198 335.97C400.861 336.244 401.112 337.588 401.558 338.444C400.838 338.622 400.129 338.943 399.41 338.967C396.61 339.027 393.798 338.991 390.964 339.419C392.21 339.704 393.456 339.99 394.701 340.263C394.747 340.644 394.804 341.012 394.85 341.393C392.118 342.404 389.387 343.415 386.404 344.52C387.102 345.412 387.662 346.114 388.37 347.03C386.13 349.884 382.53 348.1 379.913 349.943C381.376 350.466 382.725 350.954 384.942 351.763C382.987 352.417 381.845 353.178 380.748 353.118C371.948 352.654 366.051 357.994 360.554 364.011C357.297 367.567 354.258 371.348 351.298 375.177C347.606 379.934 348.269 382.467 353.423 385.392C355.48 386.558 357.423 388.032 359.183 389.626C361.571 391.79 361.389 394.501 358.943 396.618C358.063 397.379 357.035 397.962 356.28 398.818C355.72 399.448 355.035 400.566 355.24 401.161C355.537 402.017 356.486 402.992 357.332 403.23C362.28 404.657 366.188 402.528 368.383 397.736C368.908 396.594 370.028 395.595 371.102 394.894C374.142 392.896 377.765 391.588 380.279 389.067C382.656 386.677 383.982 383.109 385.65 379.982C386.427 378.531 386.862 376.89 387.57 375.391C388.61 373.191 389.719 371.027 390.861 368.875C392.176 366.401 393.57 363.963 395.261 360.907C395.444 362.786 395.558 363.94 395.718 365.462C395.844 364.059 395.935 363.024 396.027 361.989C396.175 361.978 396.313 361.966 396.461 361.954C396.61 363.19 396.77 364.427 396.941 365.842C397.078 365.141 397.181 364.594 397.284 364.059C397.627 368.03 398.244 371.99 396.061 375.712C395.535 376.616 395.49 378.067 395.718 379.149C397.055 385.535 394.461 390.018 389.65 393.55C386.21 396.071 383.525 399.234 382.462 403.527C381.925 405.703 381.982 408.022 381.616 410.258C381.113 413.35 380.473 416.43 377.754 418.368C377.274 418.701 376.279 419.022 376.005 418.772C371.342 414.646 365.594 413.231 359.914 411.613C354.509 410.068 349.161 408.153 343.675 407.035C340.613 406.417 337.264 406.809 334.11 407.237C331.31 407.618 330.305 410.412 330.076 412.743C329.676 416.87 327.665 419.866 325.185 422.768C324.316 423.791 323.505 424.908 322.819 426.074C321.162 428.892 322.202 431.27 325.31 431.568C327.482 431.77 329.745 431.996 331.847 431.58C344.452 429.047 357.035 426.347 369.617 423.672C370.897 423.398 372.131 422.923 373.605 422.459C373.799 423.351 374.142 424.028 374.028 424.611C372.817 430.652 371.548 436.657 367.685 441.676C364.966 445.219 363.24 449.084 362.714 453.865C362.371 456.957 360.017 460.025 358.029 462.665C355.412 466.137 355.092 467.707 358.063 470.751C361.309 474.081 363.366 478.136 364.954 482.464C366.577 486.9 362.92 494.427 357.972 497.353C356.017 498.506 354.178 499.909 352.155 500.92C349.149 502.442 348.315 504.975 349.184 507.972C351.846 517.093 347.355 523.253 340.933 527.819C334.716 532.243 331.013 538.236 327.87 544.943C326.602 547.667 324.728 550.152 323.871 552.994C322.214 558.5 318.785 562.947 316.419 567.978C315.151 570.665 315.414 574.114 314.854 577.194C314.602 578.573 314.374 580.167 313.574 581.201C311.311 584.15 308.923 587.04 306.283 589.609C304.043 591.785 301.335 593.414 298.912 595.4C296.832 597.1 294.489 598.646 292.935 600.787C289.278 605.829 284.318 608.469 278.741 610.229C267.405 613.82 255.84 616.187 244.046 617.411C232.778 618.577 221.522 619.837 210.242 620.955C199.614 622.013 188.94 622.739 178.335 624.011C171.776 624.796 165.284 626.33 158.77 627.555C158.028 627.698 157.308 627.983 156.611 628.292C153.296 629.803 152.919 630.92 154.691 634.155C155.205 635.094 155.811 635.986 156.451 636.842C159.845 641.361 159.468 647.914 155.582 652.04C151.879 655.976 148.005 659.758 144.611 663.956C142.52 666.536 140.566 666.322 138.166 665.109C131.446 661.72 125.424 657.32 120.075 651.862C117.664 649.4 113.333 648.948 110.864 650.851C108.613 652.587 106.316 654.371 104.419 656.499C101.173 660.162 98.0536 663.908 98.1336 669.509C98.1564 670.936 96.7394 672.684 95.5394 673.778C93.4595 675.681 93.0138 677.607 93.8138 680.33C95.9966 687.763 103.059 692.186 111.104 690.878C115.184 690.212 119.252 689.499 123.641 689.154C122.909 689.689 122.247 690.415 121.447 690.748C115.218 693.292 108.91 695.647 102.728 698.311C99.7792 699.571 96.9794 701.26 94.2595 702.996C93.3795 703.555 93.0596 704.994 92.2482 705.791C91.4711 706.564 90.4197 707.503 89.4597 707.539C84.5686 707.717 79.6545 707.765 74.7748 707.527C73.8491 707.479 72.992 705.933 72.1121 705.077C70.8093 703.805 69.655 702.294 68.1808 701.296C65.0953 699.203 64.2953 697.324 65.9181 694.101C67.5066 690.962 68.3408 687.917 68.1923 684.171C68.0208 680.14 69.6665 676.37 72.3863 672.981C74.7976 669.985 76.6033 666.251 77.8718 662.54C79.2774 658.414 82.043 656.107 85.4257 654.252C88.7283 652.432 90.8882 650.125 91.1854 645.844C91.3568 643.359 92.9567 640.969 93.9509 638.555C94.8766 636.307 95.9166 634.095 96.8079 631.824C98.5336 627.412 102.613 627.008 106.156 626.402C113.938 625.058 121.801 624.261 129.652 623.322C139.926 622.097 150.222 621.11 160.473 619.718C170.576 618.339 180.689 616.888 190.689 614.867C195.877 613.82 200.825 611.525 205.854 609.67C209.076 608.481 211.202 605.888 212.219 602.642C213.145 599.681 214.653 597.683 217.385 596.446C222.859 593.961 226.584 589.359 230.481 584.864C233.155 581.784 235.578 579.12 236.389 574.542C237.132 570.32 240.286 566.598 242.08 562.507C242.915 560.605 242.983 558.333 243.509 556.264C243.806 555.075 244.217 553.91 244.743 552.816C245.715 550.818 246.892 548.939 247.817 546.917C251.097 539.782 254.388 532.671 261.097 528.164C267.348 523.966 271.462 518.032 273.976 510.838C274.193 510.208 274.262 509.494 274.307 508.816C274.593 505.142 276.433 502.811 279.701 501.408C285.061 499.113 290.444 496.841 295.609 494.142C298.843 492.453 301.78 490.111 304.683 487.839C307.186 485.877 306.809 482.583 306.649 480.003C306.169 472.523 305.049 465.079 308.888 458.122C310.317 455.541 309.677 453.389 307.689 451.498C306.923 450.773 306.031 450.166 305.311 449.393C301.906 445.659 299.38 440.831 302.34 435.528C303.392 433.637 303.483 431.187 304.169 429.059C304.672 427.501 305.106 425.741 306.123 424.575C310.066 420.021 311.643 414.289 313.882 408.867C316.602 402.255 319.825 396.214 325.562 391.552C329.219 388.579 331.299 383.609 334.59 380.041C340.51 373.608 346.829 367.59 352.92 361.335C356.257 357.899 359.366 354.224 362.76 350.859C364.566 349.075 366.725 347.636 368.84 346.221C370.017 345.389 371.411 344.972 372.874 344.295ZM324.499 520.327C327.025 516.284 328.247 511.825 327.985 507.021C327.87 504.833 328.579 503.417 330.316 502.43C333.116 500.837 335.927 499.291 338.738 497.721C343.538 495.034 347.915 491.835 349.481 486.032C350.852 480.954 350.692 475.864 348.292 471.096C346.727 467.992 346.727 465.186 348.829 462.332C349.801 461.012 350.601 459.49 351.161 457.932C351.778 456.207 352.726 454.138 352.315 452.557C350.818 446.765 352.086 441.771 355.08 436.919C356.132 435.207 355.789 433.601 353.515 433.245C352.201 433.03 350.818 432.757 349.538 432.995C340.098 434.767 330.659 436.586 321.265 438.643C320.294 438.857 319.185 440.605 318.934 441.818C318.157 445.636 320.248 448.418 322.671 450.916C326.556 454.923 326.396 455.054 324.248 460.072C323.219 462.462 322.282 465.566 322.888 467.885C324.179 472.761 326.533 477.339 328.419 482.048C329.367 484.415 329.39 486.971 327.39 488.517C323.836 491.276 320.076 493.833 316.168 496.009C311.723 498.482 306.946 500.29 302.466 502.692C299.62 504.214 298.729 508.947 300.786 510.231C302.055 511.028 303.483 511.587 304.866 512.158C311.288 514.834 317.722 517.509 324.499 520.327ZM126.852 650.458C130.715 655.168 135.595 654.728 140.429 652.908C141.971 652.325 143.491 650.589 144.223 648.984C146.223 644.584 146.645 639.994 145.697 635.035C144.623 629.422 145.297 628.411 150.748 627.258C158.496 625.617 166.336 624.368 174.187 623.369C182.609 622.299 191.1 621.799 199.557 620.919C210.139 619.814 220.71 618.553 231.292 617.376C241.703 616.21 251.771 613.677 261.577 609.86C265.359 608.386 268.399 605.972 269.45 602.095C270.468 598.313 273.05 597.005 275.827 595.317C278.639 593.616 281.324 591.571 283.735 589.299C286.364 586.838 288.684 584.008 290.981 581.189C291.918 580.036 292.535 578.561 293.106 577.146C293.929 575.113 294.535 572.972 295.335 570.927C296.535 567.835 297.838 564.791 299.3 561.223C297.986 561.223 297.449 561.057 297.095 561.247C291.952 564.089 286.112 566.194 285.69 573.781C285.495 577.253 284.078 580.024 281.118 582.152C277.69 584.626 274.342 587.432 274.159 592.474C274.136 593.129 273.107 593.783 272.479 594.353C267.908 598.551 262.125 600.038 256.537 601.917C246.857 605.163 237.144 608.338 227.418 611.442C222.687 612.952 217.956 614.569 213.122 615.509C206.311 616.841 199.397 617.649 192.517 618.577C186.186 619.433 179.832 620.242 173.478 620.908C168.313 621.455 163.113 621.681 157.948 622.204C151.102 622.893 144.245 623.536 137.434 624.558C131.012 625.522 124.612 626.758 118.281 628.233C114.796 629.041 114.053 630.801 113.927 634.488C113.824 637.485 115.573 638.733 117.767 639.673L126.852 650.458ZM239.463 602.844C244.183 600.644 248.606 598.801 252.811 596.518C254.788 595.447 257.211 593.878 257.92 591.939C259.257 588.253 261.177 585.423 264.068 582.961C266.034 581.284 268.159 579.846 269.142 576.849C270.388 573.055 271.633 569.107 274.936 566.229C280.147 561.687 286.055 557.893 290.067 551.936C290.672 551.044 292.044 550.651 292.512 549.736C296.021 542.838 300.135 536.381 305.209 530.626C306.957 528.64 306.797 526.785 305.677 524.704C303.78 521.184 300.877 518.948 297.655 517.771C294.443 520.922 291.449 524.026 288.272 526.927C286.033 528.973 283.507 530.685 281.187 532.635C275.69 537.237 273.816 544.051 271.382 550.473C269.988 554.147 269.245 558.072 267.873 561.746C266.753 564.743 264.765 567.407 263.851 570.451C262.022 576.528 260.548 582.224 255.314 586.838C252.046 589.716 249.337 593.295 245.315 595.352C242.595 596.744 239.543 598.028 239.463 602.844Z" fill="#C1B3AF" fill-opacity="0.11"/>
<path d="M527.514 39.0102C527.514 44.635 527.514 49.463 527.514 54.2792C530.794 51.1397 533.719 47.9766 537.01 45.3128C538.667 43.969 540.69 42.9226 542.587 41.9356C545.021 40.6869 547.787 39.9853 550.484 39.474C553.158 38.9745 555.935 38.6653 558.632 38.8794C569.112 39.688 576.128 43.5409 580.128 55.5159C580.494 56.6099 579.877 58.0488 579.797 58.7148C580.551 59.7612 581.351 60.3915 581.477 61.1526C582.128 64.8033 582.528 68.5135 583.145 72.1762C584.128 77.9674 585.305 83.723 586.219 89.5143C586.574 91.7262 586.459 94.0093 586.528 96.2688C586.654 100.681 586.528 105.128 586.928 109.504C587.465 115.367 588.356 121.206 589.191 127.033C589.888 131.861 591.613 136.165 596.002 138.591C602.321 142.088 605.064 148.485 607.738 154.693C609.132 157.939 607.018 161.079 604.55 163.516C601.007 167.024 597.465 170.533 594.036 174.159C592.288 176.003 591.271 178.167 592.596 180.878C592.973 181.639 593.122 182.614 593.099 183.483C592.825 191.295 591.922 198.763 587.682 205.744C583.157 213.2 576.803 216.197 568.906 216.173C566.152 216.161 563.066 215.067 560.735 213.497C555.112 209.716 549.318 210.572 543.444 211.904C542.427 212.13 541.467 213.652 540.907 214.793C538.965 218.801 536.21 221.06 531.651 220.894C525.971 220.692 520.28 220.846 514.6 220.846C514.486 220.585 514.383 220.335 514.269 220.073C515.183 219.431 516.074 218.718 517.034 218.159C519.343 216.827 521.685 215.531 524.04 214.282C525.857 213.307 526.577 211.725 526.257 209.728C525.731 206.422 527.365 203.77 528.268 200.821C529.205 197.8 529.114 194.411 529.331 191.165C529.662 186.253 529.868 181.342 530.154 176.431C530.176 175.955 530.268 175.408 530.519 175.016C532.976 171.246 535.388 167.453 537.97 163.778C539.399 161.756 540.016 156.5 538.416 154.265C534.428 148.687 530.279 143.134 524.508 139.448C520.246 136.724 517.617 133.335 517.171 128.067C516.509 120.135 513.252 112.953 510.909 105.497C510.189 103.19 509.743 100.74 509.572 98.3261C509.24 93.2959 508.68 88.3846 506.578 83.7468C505.949 82.3674 505.938 80.6906 505.652 79.1447C504.532 73.1751 503.515 67.1817 502.281 61.2477C501.332 56.6813 498.224 54.077 494.167 52.5549C493.31 52.2338 492.418 51.9959 491.516 51.6987C491.516 50.2003 491.516 48.8328 491.516 47.2868C503.355 44.5636 515.149 41.8523 527.514 39.0102ZM566.072 109.195C564.792 105.092 561.603 101.549 563.101 96.459C562.666 93.498 562.232 90.2992 561.683 87.1241C561.535 86.2798 560.929 85.5306 560.735 84.6863C559.969 81.4755 559.409 78.2053 558.552 75.0183C557.467 70.9632 556.461 66.8368 554.861 62.9839C553.832 60.5223 552.198 57.9537 550.153 56.3959C543.936 51.6749 536.953 53.6608 531.834 58.1915C530.005 59.8088 528.154 62.2585 528.771 65.5287C529.274 68.1806 529.377 70.9038 529.628 73.6032C529.742 74.8875 529.651 76.2075 529.879 77.468C530.965 83.6517 533.068 89.6451 532.462 96.1142C532.154 99.432 531.788 102.892 532.336 106.127C533.662 113.952 535.433 121.705 537.17 129.459C537.879 132.634 538.999 135.69 541.993 137.474C547.947 141.005 551.295 147.023 555.044 152.6C557.535 156.298 559.638 160.294 562.106 164.004C562.838 165.11 564.186 166.335 565.363 166.477C572.94 167.393 579.923 165.419 586.048 160.698C589.156 158.308 589.865 155.157 588.596 151.553C586.779 146.369 583.705 141.957 579.031 139.507L566.072 109.195ZM548.541 191.069C548.313 194.792 548.461 198.537 548.084 202.236C547.787 205.03 548.484 206.612 551.193 207.064C553.238 207.397 555.329 207.492 556.472 207.611C559.306 207.421 561.341 207.706 563.066 207.064C565.672 206.101 568.963 205.149 570.346 203.044C573.054 198.93 576.128 194.661 574.403 188.703C573.351 185.04 572.757 182.733 569.272 182.329" fill="#C1B3AF" fill-opacity="0.11"/>
<path d="M414.092 71.6774C412.435 69.4299 414.458 66.5759 414.812 63.8051C415.12 61.4625 416.24 59.1793 417.315 57.0387C418.446 54.7674 418.96 52.1394 422.011 51.0691C423.76 50.4626 424.686 47.68 426.377 46.4789C438.365 37.8812 451.324 36.9774 464.558 42.519C472.203 45.7178 477.117 52.175 480.603 59.9284C484.294 68.1575 485.3 77.0287 487.025 85.7572C487.928 90.2998 487.745 94.676 487.208 99.2424C486.865 102.203 487.917 105.379 488.568 108.411C489.379 112.192 490.431 115.915 491.562 120.35C487.757 119.565 484.271 118.828 480.774 118.126C471.449 116.283 462.124 114.392 452.776 112.644C449.233 111.978 445.656 111.491 442.068 111.241C439.416 111.063 438.868 112.026 439.599 114.714C440.936 119.601 442.285 124.477 443.633 129.364C444.73 133.312 447.37 136.095 450.09 138.866C452.353 141.173 454.353 143.777 456.684 146.012C457.975 147.249 459.724 148.795 461.255 148.783C465.678 148.736 470.1 148.01 474.523 147.487C484.157 146.357 493.768 145.144 503.413 144.098C504.361 143.991 505.767 144.55 506.327 145.311C508.601 148.403 510.75 151.602 512.704 154.931C514.121 157.345 512.51 161.614 510.235 164.302C507.287 167.786 504.716 171.639 502.053 175.385C501.699 175.896 501.676 176.705 501.619 177.395C501.276 181.2 500.499 185.041 500.773 188.799C501.207 194.697 499.882 200.013 497.516 205.233C496.979 206.41 496.75 207.885 496.83 209.193C497.082 213.058 495.402 216.007 492.465 217.767C487.768 220.574 482.865 223.071 477.871 225.271C468.809 229.254 459.758 233.381 450.421 236.508C445.29 238.221 439.576 238.114 434.114 238.625C432.765 238.756 431.291 238.221 429.965 237.745C427.497 236.877 426.445 235.022 427.417 232.406C428.903 228.386 430.445 224.379 432.137 220.455C433.611 217.006 434.582 213.653 432.845 209.954C431.862 207.885 431.542 205.638 432.697 203.461C435.188 198.776 435.176 193.651 435.451 188.49C435.759 182.698 437.553 177.288 440.376 172.186C442.25 168.797 444.216 165.087 444.673 161.329C445.245 156.596 442.673 152.577 439.131 149.39C434.457 145.192 429.942 140.816 425.291 136.57C422.629 134.133 421.966 130.803 421.189 127.473C419.337 119.47 417.44 111.491 415.589 103.5C415.326 102.382 415.2 101.228 415.086 100.087C414.606 95.0209 414.183 89.955 413.692 84.8891C413.36 81.5 412.88 78.1346 412.675 74.7455C412.618 73.9369 413.418 73.0688 414.092 71.6774ZM445.713 235.141C451.176 235.486 456.021 233.428 460.638 230.788C467.529 226.84 474.409 222.869 481.151 218.647C484.385 216.614 485.425 213.367 484.808 209.324C484.5 207.29 484.705 204.9 485.471 203.021C487.082 199.085 487.654 195.101 487.437 190.916C487.368 189.631 487.3 188.323 487.425 187.051C487.814 183.138 487.608 178.953 488.945 175.409C490.465 171.354 493.208 167.751 495.733 164.183C498.213 160.687 497.619 153.148 492.476 152.517C490.248 152.244 487.814 152.042 485.711 152.672C479.597 154.491 473.574 156.656 467.586 158.915C466.169 159.45 464.775 160.651 463.895 161.935C461.541 165.384 459.61 169.154 457.244 172.614C452.501 179.547 452.741 186.111 458.547 192.164C460.295 193.984 460.329 195.732 458.752 197.623C456.341 200.512 453.838 203.319 451.61 206.351C450.81 207.445 450.159 209.157 450.341 210.466C450.924 214.723 449.107 217.731 446.616 220.776C443.953 224.022 441.633 227.566 439.256 231.05C437.839 233.131 438.639 234.404 440.902 234.748C442.479 234.974 444.102 235.01 445.713 235.141ZM463.369 77.7898C462.661 76.0298 462.067 74.9001 461.735 73.699C459.781 66.6235 458.204 59.4052 455.85 52.4723C454.524 48.56 451.164 46.0151 447.004 45.8249C443.016 45.6465 439.702 47.4065 437.462 51.081C436.708 52.3296 434.731 53.4831 434.856 54.4701C435.496 59.7025 432.879 64.7802 434.365 69.9888C434.468 70.3337 434.239 70.7737 434.262 71.1542C434.342 72.6763 434.479 74.1985 434.571 75.7206C434.651 76.8979 434.822 78.0871 434.754 79.2524C434.502 83.26 435.325 84.3659 439.016 84.8891C439.428 84.9486 439.793 85.2934 440.239 85.5432C439.988 86.435 439.405 87.3745 439.645 87.8858C440.102 88.8491 440.959 90.1809 441.782 90.288C444.205 90.609 446.696 90.4069 449.359 90.4069C449.096 89.3842 448.867 88.4685 448.547 87.1723C449.496 87.0891 450.273 86.8988 451.027 86.9821C455.061 87.4102 459.084 87.9334 463.106 88.3734C465.026 88.5874 465.781 87.7074 465.163 85.7334C464.489 83.581 463.758 81.4405 463.198 79.2524C463.049 78.6103 463.369 77.8136 463.369 77.7898Z" fill="#C1B3AF" fill-opacity="0.11"/>
<path d="M618.141 24.5856C619.158 22.6829 620.164 20.7922 621.284 18.6992C623.901 18.6992 627.021 18.6992 630.152 18.6992C630.164 18.8776 630.186 19.056 630.198 19.2462C629.009 19.3176 627.809 19.3889 625.775 19.5079C627.729 20.1738 628.952 20.59 630.643 21.1727C629.409 21.4343 628.655 21.5889 627.901 21.7435C627.912 21.8862 627.924 22.017 627.935 22.1597C628.518 22.2548 629.112 22.35 629.843 22.4689C629.843 25.751 629.866 28.9974 629.832 32.232C629.821 34.1703 629.741 36.1087 629.661 38.047C629.592 39.7832 630.323 40.8891 632.015 40.9962C633.809 41.1151 635.626 40.8654 637.409 41.0675C640.677 41.4362 643.923 42.0308 647.18 42.5064C647.683 42.5778 648.208 42.5183 648.745 42.1497C647.9 42.0308 647.054 41.9118 646.197 41.8048C646.208 41.674 646.22 41.5432 646.231 41.4124C647.774 41.4124 649.328 41.4124 651.088 41.4124C650.277 43.9215 649.522 46.2523 648.574 49.1777C648.78 49.1301 648.048 49.0944 647.557 49.4155C643.9 51.8176 639.946 49.915 636.163 50.3431C634.278 50.5571 632.289 50.462 630.575 51.116C629.912 51.3657 629.512 53.3517 629.592 54.5052C629.786 57.704 630.209 60.891 630.701 64.0423C631.981 72.1881 633.009 80.3934 634.815 88.4084C635.66 92.1543 635.58 95.5791 635.329 99.3131C635.032 103.761 635.923 108.291 636.323 112.786C636.54 115.236 636.769 117.698 637.055 120.136C637.489 123.81 637.352 127.746 638.666 131.064C639.797 133.942 642.311 136.487 644.746 138.473C647.728 140.91 650.711 143.063 652.779 146.595C653.694 148.164 656.094 149.377 657.968 149.627C662.219 150.21 666.584 150.459 670.859 150.15C674.755 149.865 677.338 151.316 679.532 154.443C680.767 156.215 680.367 157.238 678.607 157.737C675.578 158.593 672.516 159.295 669.441 159.949C662.665 161.412 657.842 165.395 653.282 170.877C649.534 175.384 648.105 179.487 648.62 185.207C649.248 192.247 647.18 198.775 643.466 204.745C642.769 205.863 642.597 207.409 642.426 208.788C642.254 210.132 642.391 211.523 642.391 213.616C637.226 210.929 632.483 208.598 627.901 205.97C627.124 205.518 626.815 203.853 626.621 202.7C626.369 201.154 626.529 199.536 626.392 197.967C626.038 194.09 625.318 190.213 625.364 186.337C625.387 185.005 627.009 183.043 628.324 182.496C633.421 180.379 634.62 175.658 635.82 171.032C636.095 169.974 634.598 168.475 634.038 167.12C633.558 165.99 633.203 164.789 632.906 163.588C632.746 162.958 632.929 162.244 632.792 161.602C632.141 158.451 633.226 156.429 636.289 155.228C640.849 153.444 640.883 151.958 637.432 148.295C633.375 143.99 629.261 139.911 624.324 136.689C620.758 134.358 620.541 129.863 620.427 126.295C620.221 119.624 616.964 114.356 614.29 108.886C612.199 104.593 611.01 100.502 610.782 95.6505C610.507 89.776 608.862 83.9728 607.959 78.1102C607.753 76.814 608.165 75.4108 608.702 74.0551C605.719 67.6574 605.662 60.4867 604.896 53.4944C604.679 51.556 604.005 50.6166 602.154 50.7474C600.542 50.8544 598.919 51.2825 597.354 51.1041C596.314 50.9852 594.771 50.2598 594.508 49.4393C594.188 48.4166 594.6 46.6923 595.331 45.8718C596.657 44.3734 598.131 42.4589 600.645 43.8145C600.851 43.9215 601.376 43.6242 601.639 43.3864C605.296 39.807 609.033 36.299 612.542 32.565C614.347 30.6385 615.707 28.272 617.33 26.1553C617.696 25.6797 618.37 25.4656 618.896 25.1326C618.633 24.9305 618.381 24.7521 618.141 24.5856Z" fill="#C1B3AF" fill-opacity="0.11"/>
<path d="M303.23 605.852C303.505 602.713 306.122 602.047 308.259 600.786C311.847 598.682 315.413 596.541 318.921 594.306C319.847 593.711 320.738 592.819 321.241 591.832C323.424 587.539 326.704 584.4 330.361 581.522C331.572 580.571 332.44 579.037 333.252 577.633C336.017 572.865 338.634 568.013 341.4 563.244C342.76 560.902 343.594 558.618 343.994 555.753C344.611 551.412 346.703 547.298 348.234 543.112C350.554 536.761 354.782 532.076 359.982 528.081C362.61 526.059 364.793 523.431 367.147 521.029C369.307 518.829 369.159 516.296 367.65 513.882C366.473 512.003 364.964 510.326 363.616 508.566C361.822 506.247 362.359 504.297 364.667 502.466C368.839 499.148 373.33 499.279 378.107 500.302C382.849 501.324 387.649 502.073 392.414 502.953C397.169 503.833 399.054 506.973 397.877 512.015C396.631 517.402 394.392 522.135 389.843 525.381C389.386 525.702 389.066 526.225 388.906 527.082C391.317 525.726 393.672 524.251 396.151 523.062C401.603 520.422 406.848 517.319 413.042 516.558C417.796 515.975 422.104 516.855 426.184 519.245C429.738 521.326 430.618 526.285 427.773 529.722C423.247 535.204 419.042 540.936 413.453 545.514C408.962 549.2 404.597 552.815 399.351 555.253C394.414 557.548 389.397 558.297 384.083 557.287C378.289 556.181 376.095 553.767 375.547 547.654C375.455 546.679 375.398 545.692 375.295 544.301C374.61 544.848 373.947 545.121 373.741 545.609C372.118 549.414 370.564 553.255 369.033 557.096C368.381 558.725 367.993 560.462 367.25 562.031C364.919 566.966 363.079 571.866 364.816 577.562C365.124 578.585 364.164 580.345 363.342 581.367C361.719 583.413 359.708 585.113 357.982 587.087C357.011 588.205 356.393 589.668 355.422 590.786C354.451 591.903 353.308 592.938 352.085 593.747C349.057 595.756 345.571 596.731 342.92 599.776C341.537 601.357 337.96 600.894 335.366 601.286C328.966 602.237 322.567 603.165 316.156 604.08C311.881 604.687 307.619 605.246 303.23 605.852Z" fill="#C1B3AF" fill-opacity="0.11"/>
<path d="M415.478 448.192C414.403 448.347 413.489 448.597 412.575 448.597C404.964 448.597 397.342 448.62 389.73 448.454C388.645 448.43 387.582 447.36 386.508 446.777C387.342 445.98 388.039 444.863 389.011 444.435C395.982 441.45 399.387 435.765 400.793 428.369C401.113 426.692 401.57 424.694 402.667 423.588C407.375 418.772 408.69 412.327 410.701 406.25C412.506 400.756 415.249 396.297 419.775 392.706C422.289 390.708 424.22 387.699 425.832 384.786C426.597 383.394 426.083 381.183 425.969 379.351C425.923 378.614 425.329 377.924 425.1 377.175C423.717 372.573 425.112 369.933 429.626 369.612C433.957 369.303 438.357 369.433 442.699 369.778C445.545 370.004 445.865 371.075 444.585 373.762C442.836 377.46 443.339 378.65 447.27 379.28C452.87 380.184 458.447 379.851 463.921 378.388C470.732 376.557 477.075 377.401 483.017 381.444C487.863 384.738 488.308 388.722 484.103 392.765C482.571 394.24 480.96 395.607 479.406 397.046C476.675 399.543 475.978 402.659 477.04 406.191C478.88 412.291 478.503 417.714 473.703 422.482C471.726 424.445 470.195 427.192 469.189 429.879C467.349 434.802 464.127 438.239 459.704 440.368C451.579 444.292 443.053 445.945 434.174 443.852C431.9 443.317 429.66 442.306 427.591 441.129C424.22 439.226 420.769 439.69 417.318 440.344C416.598 440.475 415.718 441.759 415.581 442.615C415.283 444.351 415.478 446.159 415.478 448.192ZM431.397 437.656C441.054 436.943 448.767 434.517 454.493 425.8C455.453 424.349 456.676 423.077 457.83 421.769C461.773 417.25 462.755 412.16 460.698 406.441C459.35 402.707 459.887 399.496 462.961 396.832C464.115 395.833 465.098 394.596 466.081 393.383C468.206 390.755 467.235 389.019 464.938 387.247C464.012 386.534 462.652 386.355 461.453 386.153C453.087 384.714 445.899 387.806 438.699 391.897C432.425 395.453 428.597 400.768 426.917 407.499C425.352 413.801 423.477 419.605 419.26 424.599C416.552 427.81 417.843 433.494 421.58 435.111C424.654 436.455 428.106 436.848 431.397 437.656Z" fill="#C1B3AF" fill-opacity="0.11"/>
<path d="M538.27 383.739C540.864 384.144 542.007 385.701 540.704 387.878C539.333 390.196 537.47 392.218 535.71 394.263C534.453 395.738 532.944 396.975 531.664 398.425C529.047 401.398 529.699 405.394 533.264 406.726C536.464 407.915 539.858 408.533 543.195 409.295C547.881 410.365 549.012 413.385 546.029 417.226C544.121 419.676 541.813 421.662 540.544 424.778C539.938 426.252 537.378 427.108 535.55 427.715C533.207 428.488 530.693 428.63 528.282 429.201C521.276 430.866 520.328 432.031 519.699 439.476C519.574 440.95 519.619 442.449 519.528 443.923C519.368 446.468 518.465 447.086 516.271 445.802C513.974 444.446 511.928 442.615 509.62 441.283C505.494 438.905 501.197 436.824 497.072 434.422C495.998 433.791 494.786 432.507 494.638 431.377C494.535 430.616 496.043 429.082 497.072 428.797C502.809 427.192 507.311 424.016 510.466 418.701C513.163 414.158 512.74 411.97 508.271 409.39C504.306 407.095 504.237 406.583 507.003 402.885C508.077 401.458 508.729 399.65 509.917 398.366C511.597 396.57 513.38 394.632 515.494 393.562C521.905 390.339 528.487 387.497 535.024 384.572C536.041 384.12 537.184 384.013 538.27 383.739Z" fill="#C1B3AF" fill-opacity="0.11"/>
<path d="M452.799 287.725C452.068 289.295 451.256 290.187 451.405 290.853C452.159 294.206 449.942 295.3 447.748 296.252C441.371 298.999 435.131 302.257 428.137 302.959C424.949 303.28 421.681 303.399 418.504 303.089C415.144 302.756 413.898 300.723 414.138 297.465C414.721 289.235 418.184 283.29 425.852 280.174C429.372 278.747 432.549 276.345 436.103 275.037C438.697 274.074 441.668 273.753 444.445 273.883C447.359 274.014 447.851 275.524 446.696 278.331C446.456 278.902 446.548 279.924 446.902 280.4C448.811 282.933 450.868 285.359 452.799 287.725ZM445.679 288.189C442.777 283.908 438.811 284.229 434.754 285.68C430.937 287.047 429.337 290.984 431.406 293.398C433.6 295.954 441.611 295.098 443.359 292.113C444.102 290.877 444.834 289.628 445.679 288.189Z" fill="#C1B3AF" fill-opacity="0.11"/>
<path d="M148.814 750.932C148.437 751.776 148.014 752.43 148.117 752.525C150.288 754.666 148.186 756.033 147.26 757.508C146.426 758.828 145.283 759.244 143.957 758.055C143.112 757.294 142.049 756.711 141.397 755.819C140.769 754.951 140.529 753.762 140.129 752.715C141.077 752.382 141.992 751.931 142.963 751.752C144.769 751.407 146.62 751.229 148.814 750.932Z" fill="#C1B3AF" fill-opacity="0.11"/>
<path d="M86.385 718.646C85.2879 719.407 84.2365 720.691 83.0823 720.81C81.1281 721 79.1054 720.429 77.1055 720.192C77.3912 719.264 77.6083 717.575 77.9626 717.54C80.6024 717.314 83.2537 717.421 85.9164 717.421C86.0764 717.813 86.2364 718.229 86.385 718.646Z" fill="#C1B3AF" fill-opacity="0.11"/>
<path d="M100.808 776.094C110.431 775.238 120.053 774.393 129.664 773.537C129.687 773.811 129.71 774.084 129.733 774.358C120.042 775.226 110.339 776.094 100.648 776.974C100.706 776.688 100.763 776.391 100.808 776.094Z" fill="#C1B3AF" fill-opacity="0.11"/>
<path d="M441.418 85.3643C443.246 88.4323 443.509 88.4561 446.081 86.1967C444.526 85.9113 443.281 85.6853 441.418 85.3643Z" fill="#C1B3AF" fill-opacity="0.11"/>
<path d="M441.418 85.3643C443.281 85.6972 444.526 85.9113 446.081 86.1967C443.509 88.4561 443.246 88.4204 441.418 85.3643Z" fill="#C1B3AF" fill-opacity="0.11"/>
</svg>
