<svg width="612" height="209" viewBox="0 0 612 209" fill="none" xmlns="http://www.w3.org/2000/svg">
<g clip-path="url(#clip0)">
<path d="M258.972 96.4861C260.373 97.5171 261.673 97.4434 263.074 97.2961C268.376 96.6333 272.978 94.7186 277.48 92.7301C282.482 90.4471 286.483 87.3539 290.185 84.0398C292.886 81.6832 292.886 81.6832 289.985 79.4738C289.885 79.4002 289.785 79.3265 289.685 79.1792C288.184 78.1482 286.183 76.9698 286.283 75.5705C286.283 73.6557 287.284 71.6673 289.084 70.0471C290.985 68.4269 292.886 66.733 294.987 65.2601C296.087 64.5236 296.187 63.5663 295.987 62.9034C295.487 61.2832 295.187 59.663 294.687 58.0428C294.186 56.4962 293.086 55.0969 292.886 53.5503C292.686 52.2984 291.285 51.1937 291.886 49.868C291.886 49.7944 291.886 49.6471 291.785 49.4998C289.585 46.4067 288.284 42.9454 285.583 40.0732C282.882 37.201 280.181 34.4024 277.68 31.5302C275.979 29.6154 274.478 27.7006 272.978 25.7122C272.478 24.9757 271.877 24.5338 270.777 24.2392C265.775 23.2082 260.773 22.1035 255.871 20.9988C249.869 19.6732 243.866 18.2739 238.364 15.8436C236.563 15.0335 234.762 14.0761 233.662 12.6768C233.062 11.8667 232.562 11.0566 232.562 10.0992C232.562 9.14178 232.461 8.11074 232.061 7.15334C230.861 4.28115 230.961 1.33532 230.961 -1.61053C230.961 -3.45169 232.261 -5.0719 233.862 -6.47118C235.463 -7.79682 237.464 -8.75422 239.664 -9.56433C243.966 -11.1109 248.468 -11.8474 253.07 -12.5838C259.172 -13.6149 265.475 -14.3513 271.277 -16.1188C272.478 -16.487 273.778 -16.6343 274.779 -17.1499C276.379 -17.8863 277.38 -19.0647 278.08 -20.243C278.48 -20.8322 278.78 -21.4213 279.08 -22.0105C280.681 -24.5145 283.782 -25.9137 286.884 -27.1657C288.584 -27.8285 290.485 -28.4177 292.586 -29.2278C291.285 -29.817 290.285 -29.817 289.184 -29.8906C283.982 -30.3325 278.88 -30.7744 273.678 -31.2899C272.978 -31.3636 272.278 -31.5108 271.577 -31.7318C269.577 -32.3946 269.176 -33.2047 270.577 -34.4567C271.977 -35.7823 273.578 -37.0343 275.279 -38.139C278.18 -40.0538 280.481 -42.1895 281.681 -44.9881C283.082 -48.3758 286.283 -50.8798 290.185 -52.9419C295.087 -55.3722 299.989 -57.8025 305.391 -59.4964C310.293 -61.0429 315.395 -62.074 320.697 -62.2213C326.7 -62.2949 332.802 -62.2213 338.805 -62.3686C340.905 -62.4422 343.106 -62.074 345.007 -63.2523C346.107 -63.9151 347.308 -64.5043 348.308 -65.2408C351.109 -67.2292 353.711 -69.3649 356.412 -71.3534C359.213 -73.4155 362.214 -75.3303 365.715 -76.8768C369.217 -78.4234 372.218 -80.4855 374.519 -82.9895C376.62 -85.2725 378.921 -87.4082 382.022 -89.323C380.621 -89.323 379.321 -89.3967 377.92 -89.3967C371.518 -89.3967 365.115 -89.323 358.713 -89.3967C356.112 -89.3967 353.51 -89.8385 350.909 -90.0595C350.309 -90.1331 349.809 -90.3541 349.009 -90.6487C349.209 -91.0905 349.409 -91.3851 349.609 -91.6797C350.709 -92.858 350.709 -94.11 350.409 -95.362C349.809 -97.7187 349.009 -100.002 348.708 -102.358C348.508 -103.463 348.909 -104.789 349.609 -105.746C351.41 -108.103 353.41 -110.312 355.611 -112.522C356.412 -113.332 357.712 -113.921 358.813 -114.657C361.013 -116.13 360.813 -117.014 359.613 -118.266C358.813 -119.15 358.012 -120.033 357.212 -120.917C356.412 -121.875 356.312 -122.832 357.212 -123.716C358.412 -124.894 359.713 -125.999 361.114 -127.03C364.115 -129.387 367.316 -131.67 371.118 -133.29C378.02 -136.236 385.523 -137.267 393.427 -136.677C398.629 -136.309 403.731 -135.794 408.933 -135.352C410.534 -135.205 412.134 -135.057 413.735 -135.057C414.435 -135.057 415.335 -135.278 415.936 -135.646C419.337 -137.635 422.939 -139.476 425.74 -142.054C427.24 -143.453 429.041 -144.558 430.442 -145.957C431.742 -147.209 432.642 -148.682 431.842 -150.376C431.042 -152.07 429.241 -152.659 427.24 -151.701C423.839 -150.081 420.438 -148.461 417.136 -146.767C414.835 -145.589 412.334 -144.705 409.633 -144.263C406.532 -143.748 403.731 -144.41 401.23 -145.662C398.529 -147.135 398.529 -150.891 401.23 -152.438C404.431 -154.279 408.033 -155.752 411.734 -156.93C415.335 -158.108 418.937 -159.36 422.939 -159.95C426.54 -160.465 430.041 -161.275 433.843 -160.907C436.044 -160.686 438.345 -160.465 439.745 -158.919C440.146 -158.477 440.446 -157.888 440.546 -157.372C440.646 -156.636 440.646 -155.825 440.546 -155.089C440.346 -153.616 441.146 -152.364 442.146 -151.186C443.647 -149.418 445.548 -147.724 446.148 -145.662C446.948 -143.011 446.348 -140.507 443.747 -138.519C441.746 -137.046 439.545 -135.72 437.244 -134.394C432.943 -131.964 428.641 -129.607 424.239 -127.177C422.939 -126.514 421.638 -125.778 420.337 -125.189C416.636 -123.568 414.135 -121.285 412.534 -118.34C411.634 -116.719 410.534 -115.099 409.233 -113.7C407.632 -112.006 407.232 -110.239 408.033 -108.397C409.133 -105.82 410.333 -103.242 411.534 -100.665C411.534 -100.591 411.634 -100.591 411.634 -100.517C411.634 -98.4552 413.235 -96.4667 412.634 -94.4046C412.234 -92.858 411.034 -91.7534 409.233 -90.9433C405.932 -89.544 402.73 -87.9974 400.029 -85.9353C399.429 -85.4934 398.829 -84.9779 398.429 -84.4624C395.928 -81.6638 392.926 -79.1599 388.925 -77.3187C385.323 -75.6985 382.022 -73.931 379.221 -71.5743C376.62 -69.4386 373.919 -67.3765 371.218 -65.388C370.217 -64.5779 369.017 -63.9151 367.816 -63.2523C363.615 -60.6747 359.413 -58.1707 355.111 -55.6668C353.61 -54.783 351.91 -53.9729 350.209 -53.1628C347.108 -51.6899 344.707 -49.9224 343.506 -47.2711C342.706 -45.5036 341.706 -43.8097 340.305 -42.2632C339.105 -40.9375 337.504 -39.6856 335.803 -38.6545C330.301 -35.4141 323.999 -33.0574 317.596 -30.9217C313.994 -29.7433 310.493 -28.565 307.092 -27.0184C303.79 -25.5455 301.189 -23.5571 299.889 -20.6849C298.988 -18.6228 297.088 -16.9289 294.687 -15.5296C291.585 -13.8358 290.385 -11.4791 290.285 -8.68056C290.185 -6.54484 289.985 -4.4091 289.785 -2.19972C289.385 1.11437 290.385 4.42843 291.085 7.66884C291.385 8.92083 291.485 10.2465 291.485 11.4985C291.285 14.0024 291.785 16.3591 292.586 18.7158C292.986 19.8941 293.186 21.1461 293.386 22.3244C293.686 24.2392 294.387 26.0067 295.787 27.627C297.288 29.3208 298.888 31.0147 300.389 32.7085C302.09 34.697 303.79 36.6854 305.491 38.7475C305.691 38.9684 305.891 39.263 306.191 39.4839C308.592 41.6933 310.393 44.1237 311.593 46.8486C312.394 48.6161 313.194 50.4572 313.894 52.2984C315.195 55.3915 316.495 58.4846 317.296 61.6514C318.096 64.45 318.396 67.3959 318.596 70.2681C318.696 71.6673 318.196 73.0666 317.896 74.4659C317.496 75.8651 317.196 77.2644 316.495 78.59C314.995 81.3149 312.794 83.7453 310.093 85.881C306.491 88.6796 302.79 91.4045 298.188 93.3929C288.984 97.4435 279.18 100.316 268.276 100.537C261.673 100.684 255.171 100.021 249.068 98.0326C247.868 97.6644 246.767 97.0016 245.767 96.3388C244.566 95.455 244.066 94.2767 244.666 93.0983C246.567 89.637 249.268 86.6175 254.47 85.2919C256.171 84.85 257.772 84.2608 259.472 83.7452C262.073 82.9351 264.775 83.0825 267.376 83.819C269.476 84.4081 270.177 85.2182 269.276 86.6911C268.276 88.2377 266.975 89.7842 265.475 91.1098C264.074 92.3618 262.274 93.3929 260.773 94.6449C259.973 95.1604 259.472 95.8969 258.972 96.4861ZM269.176 -11.4791C265.075 -10.5954 261.073 -9.78527 257.272 -8.82787C254.871 -8.2387 252.97 -6.9867 252.27 -5.07191C251.869 -3.74627 251.569 -2.27337 251.669 -0.947723C251.869 0.967072 252.37 2.88187 252.87 4.72301C253.47 6.93239 253.67 9.06811 253.17 11.3512C252.77 13.1923 253.27 15.1071 255.671 16.3591C256.771 17.0219 257.972 17.7584 259.272 18.1266C263.274 19.3049 267.376 20.4096 271.877 21.6616C271.477 20.4096 271.377 19.5259 270.977 18.6422C270.177 16.5801 269.476 14.518 269.977 12.3822C270.477 9.87826 269.677 7.52157 269.176 5.09125C268.676 3.1028 268.276 1.04071 268.276 -1.02138C268.376 -4.48275 268.876 -7.87046 269.176 -11.4791ZM290.885 -33.5729C291.185 -33.4257 291.385 -33.1311 291.585 -33.1311C294.086 -32.6892 296.587 -32.2473 299.088 -32.0264C300.689 -31.8791 302.29 -32.1737 303.69 -32.8365C305.991 -33.9412 308.392 -35.0459 310.693 -36.2978C315.595 -38.9491 319.497 -42.1895 321.297 -46.6083C322.498 -49.5541 324.799 -51.9845 328.7 -53.4574C329.801 -53.8993 330.701 -54.4884 331.802 -55.0039C327 -55.2985 322.498 -54.5621 318.196 -53.3101C315.895 -52.6473 313.594 -52.0581 311.493 -51.1744C307.992 -49.7751 305.391 -47.9339 303.69 -45.2827C303.09 -44.3253 302.49 -43.3679 301.689 -42.4841C299.789 -40.2011 297.188 -38.3599 294.286 -36.7397C292.786 -35.856 291.385 -34.9722 290.885 -33.5729ZM389.325 -93.0053C391.326 -95.6566 388.725 -97.9396 389.325 -100.296C389.325 -100.37 389.225 -100.37 389.225 -100.444C386.824 -103.168 386.924 -106.409 385.123 -109.281C385.023 -109.428 385.023 -109.649 385.023 -109.797C384.323 -112.595 382.022 -113.405 378.721 -111.859C378.421 -111.711 378.22 -111.564 377.92 -111.417C375.519 -109.797 373.118 -108.103 371.518 -106.041C370.117 -104.347 369.717 -102.579 371.018 -100.665C371.318 -100.296 371.418 -99.7808 371.618 -99.3389C372.018 -98.3815 372.218 -97.2768 373.018 -96.3931C374.419 -94.6992 376.22 -93.1526 379.221 -93.0053C380.721 -92.9317 382.222 -92.8581 383.823 -92.8581C385.723 -92.9317 387.624 -93.0053 389.325 -93.0053ZM409.233 -131.67C409.233 -131.817 409.233 -131.89 409.133 -132.038C408.433 -132.111 407.732 -132.259 407.032 -132.259C404.931 -132.332 402.83 -132.259 400.83 -132.48C398.229 -132.774 395.728 -132.48 393.327 -131.964C389.225 -131.08 386.024 -129.092 382.922 -127.103C381.522 -126.146 380.121 -125.189 378.921 -124.158C377.22 -122.685 377.22 -121.727 378.921 -120.254C379.721 -119.518 380.922 -118.855 381.922 -118.266C385.123 -116.498 389.225 -117.235 390.725 -119.96C391.726 -121.948 393.627 -123.274 395.828 -124.526C400.229 -126.809 404.731 -129.239 409.233 -131.67Z" fill="#FEECE7"/>
<path d="M412.734 -64.5044C410.233 -63.9152 408.533 -62.7368 406.832 -61.5585C402.03 -58.3917 396.828 -55.5931 391.426 -52.9419C388.525 -51.5426 386.424 -49.8487 385.023 -47.4921C383.823 -45.5036 383.022 -43.4415 381.122 -41.674C378.22 -38.8755 374.419 -36.9608 370.317 -35.3405C365.515 -33.4257 360.413 -31.7318 355.411 -30.0379C351.009 -28.565 346.608 -27.2394 343.206 -24.5145C342.206 -23.7043 341.105 -22.8206 340.705 -21.7896C339.605 -18.9174 337.204 -16.7816 334.203 -15.0141C332.002 -13.6885 330.801 -11.9946 330.601 -10.0798C330.201 -7.20768 330.001 -4.26183 330.001 -1.31598C330.001 1.04069 329.901 3.47102 330.901 5.75404C332.002 8.47895 331.602 11.2038 331.802 13.9287C331.902 15.6225 332.602 17.3164 333.102 19.0103C333.202 19.5258 333.602 20.0414 333.602 20.5569C333.802 24.4602 335.903 27.7743 339.005 30.8674C341.806 33.6659 344.507 36.538 346.808 39.5575C349.509 43.0189 352.41 46.4803 353.911 50.4572C354.711 52.8139 355.511 55.2441 356.512 57.5271C358.012 60.8412 358.412 64.229 359.313 67.6167C359.813 69.3842 359.713 71.0782 359.013 72.772C358.613 73.9504 358.112 75.2023 357.912 76.3806C357.512 78.9582 355.811 81.0202 353.811 83.0087C350.109 86.691 345.807 89.9314 340.605 92.509C336.303 94.6448 332.202 96.9278 328 99.2108C327.1 99.7263 326.299 100.316 325.599 100.905C324.199 102.009 323.999 102.672 324.199 104.587C324.899 104.808 325.699 105.029 326.6 105.25C329.801 105.986 331.502 107.754 332.602 109.89C332.802 110.332 332.802 110.7 333.602 110.552C333.702 110.552 334.003 110.552 334.003 110.626C334.403 111.952 336.303 112.099 337.404 112.983C336.604 116.96 336.904 120.937 339.205 124.987C337.104 124.693 335.203 124.545 333.602 124.103C330.901 123.367 328.1 122.704 325.599 121.526C324.399 120.937 323.198 120.421 321.998 119.832C321.598 119.611 320.997 119.537 320.297 119.316C320.397 122.115 321.898 124.619 322.698 127.123C323.498 129.7 324.299 132.204 325.299 135.077C323.498 134.929 321.898 134.708 320.297 134.708C317.096 134.635 314.895 133.751 313.094 131.689C311.193 129.553 308.592 127.712 306.191 125.871C304.19 124.251 302.99 122.483 302.09 120.421C301.089 118.138 299.989 115.781 297.988 113.719C296.788 112.467 296.187 111.068 296.587 109.448C296.888 107.754 296.587 106.06 295.387 104.513C295.187 104.219 295.087 103.851 294.987 103.556C294.687 102.82 294.487 102.009 294.186 101.052C294.687 100.61 295.487 100.021 296.287 99.4319C297.088 98.7691 298.188 98.548 299.389 98.769C299.789 98.8426 300.189 98.9163 300.589 98.9899C303.19 99.4318 305.391 99.4319 307.792 97.959C311.894 95.3813 316.696 93.4664 320.997 91.0361C325.999 88.2376 330.201 84.7762 333.602 80.7993C334.903 79.2527 335.603 77.5589 336.003 75.7914C336.504 73.5084 337.504 71.2254 337.404 68.9424C337.304 67.1749 336.604 65.3338 336.203 63.5663C335.603 60.5468 334.603 57.6009 333.202 54.7287C331.802 51.7829 330.801 48.6897 329.401 45.7439C328.8 44.5655 327.6 43.5344 326.8 42.4297C324.499 39.042 321.297 35.949 318.496 32.7822C316.495 30.5728 314.595 28.2897 312.894 25.933C312.294 25.1229 312.094 24.0183 311.894 23.0609C311.493 21.4407 311.393 19.6732 310.693 18.1266C309.793 15.9172 309.793 13.7814 309.793 11.4984C309.793 10.0991 309.693 8.69986 309.493 7.30058C308.992 4.64932 307.892 1.99807 308.192 -0.726822C308.392 -3.8936 308.592 -7.06039 308.892 -10.2272C309.092 -12.363 310.393 -14.204 312.694 -15.5296C315.595 -17.1499 317.496 -19.3593 318.796 -21.716C319.497 -22.8944 320.497 -23.778 321.698 -24.6618C324.099 -26.2821 326.9 -27.3867 329.801 -28.4177C335.003 -30.1852 340.305 -31.9528 345.407 -33.794C349.409 -35.2669 352.81 -37.329 356.011 -39.5384C358.613 -41.3059 360.513 -43.4415 361.614 -45.9455C362.114 -47.1238 362.814 -48.2286 363.615 -49.3333C364.915 -51.3217 367.316 -52.5737 369.717 -53.6784C374.119 -55.7405 378.22 -58.0235 382.122 -60.5275C384.923 -62.3687 388.024 -63.9889 390.725 -65.83C393.527 -67.7448 396.328 -69.7333 398.829 -71.7954C402.13 -74.5939 406.432 -76.2141 410.333 -78.4235C413.735 -80.2647 416.536 -82.4739 418.337 -85.3461C418.737 -85.9353 419.337 -86.4508 420.037 -86.8191C422.538 -88.1447 425.139 -89.3967 427.74 -90.7223C428.241 -91.0169 428.841 -91.1643 429.341 -91.4589C431.842 -92.8581 432.342 -94.7729 431.942 -96.9086C431.742 -98.0133 430.742 -99.118 431.342 -100.296C431.342 -100.37 431.342 -100.444 431.242 -100.444C429.341 -102.506 429.341 -105.157 427.941 -107.366C427.04 -108.839 427.04 -110.312 427.14 -111.859C427.24 -112.374 427.64 -112.89 428.041 -113.258C430.542 -115.762 432.642 -118.34 434.143 -121.285C434.643 -122.169 435.844 -122.832 436.844 -123.421C440.646 -125.483 444.447 -127.472 448.249 -129.534C452.25 -131.67 456.152 -133.879 460.054 -136.088C460.354 -136.236 460.554 -136.53 460.954 -136.825C459.253 -137.488 457.653 -138.15 455.852 -138.887C457.052 -139.844 457.953 -140.654 459.153 -141.391C459.553 -141.612 460.354 -141.612 460.954 -141.612C467.056 -141.17 472.859 -142.054 478.561 -143.379C482.463 -144.337 486.264 -145.294 489.766 -146.841C490.666 -147.283 491.666 -147.356 492.667 -146.914C494.267 -146.325 495.968 -145.81 497.869 -145.147C493.067 -141.906 488.565 -138.887 483.963 -135.72C487.265 -134.174 491.166 -133.29 495.168 -131.817C492.267 -130.565 489.666 -129.46 487.065 -128.429C486.564 -128.208 485.664 -128.429 485.064 -128.576C482.463 -129.387 479.962 -130.197 477.461 -131.08C476.46 -131.449 475.76 -131.375 474.86 -130.859C471.758 -129.166 468.557 -127.472 465.356 -125.778C464.755 -125.483 464.155 -125.189 463.555 -124.894C459.854 -123.421 457.753 -121.065 456.152 -118.266C455.452 -117.014 454.251 -115.909 453.251 -114.731C453.151 -114.584 452.951 -114.436 452.851 -114.289C450.45 -112.006 450.15 -109.576 451.55 -106.924C452.451 -105.304 452.751 -103.537 453.651 -101.917C454.751 -99.8544 454.952 -97.6451 455.252 -95.4357C455.652 -93.2999 453.951 -91.9006 451.65 -90.8696C450.35 -90.2804 448.949 -89.7649 447.549 -89.2494C447.649 -89.1021 447.649 -89.0285 447.749 -88.8812C451.55 -89.3231 455.352 -89.765 459.053 -90.2069C462.855 -90.6488 466.656 -90.9434 470.458 -92.7845C470.058 -92.1953 469.958 -91.8271 469.657 -91.6798C466.956 -90.0596 464.255 -88.3656 461.454 -86.8927C460.154 -86.2299 458.353 -85.9354 456.752 -85.7145C454.451 -85.3462 453.051 -84.4625 451.95 -82.9159C450.45 -80.8538 448.149 -79.3073 445.148 -78.3499C442.146 -77.3925 439.145 -76.4351 436.244 -75.404C434.943 -74.9621 433.743 -74.2257 432.642 -73.6365C433.043 -72.1636 433.743 -71.1325 434.843 -70.2488C436.244 -69.1441 436.044 -68.5549 434.443 -67.4502C430.342 -64.7253 425.64 -62.6631 421.238 -60.2328C420.538 -59.8646 419.937 -59.7173 419.137 -60.2328C416.736 -61.5584 413.835 -62.295 412.734 -64.5044Z" fill="#FEECE7"/>
<path d="M446.148 93.8348C449.549 93.9821 452.551 94.0557 455.452 94.3503C458.753 94.6449 461.754 95.455 463.955 97.4435C464.755 98.1799 465.356 99.1373 465.756 100.021C467.557 103.998 468.157 108.122 469.057 112.246C469.457 113.867 469.057 115.56 469.357 117.254C469.657 119.537 470.058 121.82 470.658 124.03C471.458 126.902 470.858 129.111 468.357 131.615C469.057 131.762 469.657 131.983 470.258 132.057C472.959 132.352 475.66 132.646 478.361 132.794C479.461 132.867 480.162 133.162 480.662 133.898C481.762 135.445 482.963 136.918 484.263 138.612C482.162 138.391 480.362 138.243 478.561 138.022C473.059 137.36 467.557 136.697 462.054 136.108C460.854 135.96 459.453 136.181 458.253 136.402C452.15 137.433 446.048 136.991 440.045 135.96C432.843 134.708 425.94 132.867 419.937 129.627C415.536 127.27 412.234 124.251 410.734 120.274C410.133 118.506 410.133 116.665 410.734 114.898C411.234 113.425 411.534 112.025 411.634 110.552C411.834 107.68 412.934 104.955 415.135 102.672C416.336 101.347 418.437 100.316 420.438 99.5055C425.139 97.5907 430.242 96.486 435.444 95.5286C437.144 95.234 438.845 94.9395 440.746 94.6449C440.546 94.1294 440.446 93.6875 440.346 93.2456C439.745 91.7727 440.045 90.3735 440.946 88.9742C442.046 87.2803 443.247 85.5864 444.447 83.9662C447.749 79.4001 449.049 74.3922 449.849 69.237C450.25 66.733 450.75 64.1554 451.85 61.8724C452.651 60.2522 454.551 58.9265 456.052 57.4536C456.752 56.7908 457.653 56.1279 458.453 55.3915C453.951 53.6976 450.15 51.4883 447.148 48.6897C444.847 46.4803 443.347 43.8291 441.446 41.3987C440.746 40.4413 440.045 39.4103 439.445 38.3793C439.045 37.6428 438.745 36.8327 438.545 36.0963C437.745 33.2977 437.244 30.4255 438.545 27.5533C436.244 26.3013 433.943 25.0494 431.542 23.7974C428.941 22.4717 427.34 20.4833 425.64 18.6422C425.039 17.9057 424.639 17.0219 424.139 16.2855C422.638 13.7815 422.438 11.2039 423.139 8.55266C423.239 8.33171 423.339 8.11078 423.339 7.88985C423.039 5.45952 425.239 4.35483 427.64 3.32379C429.041 2.73462 430.642 2.2191 432.242 1.62993C430.942 0.967116 429.841 0.304303 428.741 -0.211216C424.239 -2.34695 421.538 -5.44009 419.937 -9.12241C419.037 -11.1845 419.637 -13.0993 422.138 -14.4986C425.54 -16.4134 428.441 -18.7701 431.142 -21.274C433.043 -23.0415 435.744 -23.9989 438.045 -25.3246C443.347 -28.3441 449.549 -30.1116 455.552 -32.2473C460.654 -34.0885 465.356 -36.3715 470.258 -38.5072C473.959 -40.2011 477.561 -42.0422 481.362 -43.6624C487.365 -46.1664 493.867 -46.9765 500.77 -46.3137C505.172 -45.8718 509.273 -44.8408 512.875 -42.8523C513.575 -42.4841 514.376 -42.0422 514.676 -41.4531C515.376 -39.7592 517.277 -39.0227 519.077 -38.2126C519.478 -38.0653 519.778 -37.7708 520.078 -37.5498C520.078 -36.4451 519.478 -35.7823 518.177 -35.1931C514.976 -33.7939 511.774 -32.3946 508.573 -30.9953C507.273 -30.4062 506.072 -29.596 504.872 -28.8596C504.672 -28.7123 504.271 -28.4914 504.271 -28.3441C504.972 -27.0921 503.371 -26.9448 502.571 -26.4293C499.97 -24.8827 496.968 -23.6307 495.268 -21.495C494.768 -20.8322 494.067 -20.6849 493.067 -20.7585C490.766 -20.9058 488.465 -20.9795 486.164 -21.0531C485.264 -21.0531 484.463 -21.0531 483.563 -21.0531C483.563 -20.9058 483.463 -20.7585 483.563 -20.6849C484.964 -18.8437 483.963 -17.2971 482.263 -16.0452C479.762 -14.204 478.961 -11.9946 478.361 -9.56429C477.461 -5.73468 474.459 -2.78883 470.458 -0.505802C466.756 1.62994 462.555 2.95557 457.853 3.39743C455.052 3.69202 452.35 4.20755 449.549 4.1339C445.948 4.06026 442.246 3.61838 438.645 3.17651C436.344 2.88193 435.244 3.10284 434.943 4.79671C434.743 5.7541 435.143 6.71149 435.444 7.66888C435.844 9.28911 436.944 10.8356 436.844 12.4559C436.644 15.4017 437.344 18.2739 438.045 21.1461C438.445 22.7663 439.545 24.2392 441.046 25.4912C441.846 26.0804 442.647 26.375 443.847 26.0068C444.547 25.7858 445.548 25.7122 446.348 25.6385C452.851 25.123 458.753 26.5223 464.455 28.5844C471.558 31.162 477.561 34.7706 483.263 38.6002C485.464 40.0732 487.265 41.9143 488.865 43.8291C490.766 46.0385 490.766 48.7634 488.065 51.1201C484.263 54.5814 479.261 56.2753 473.359 56.6435C470.458 56.8645 467.557 56.9381 464.655 56.5699C464.255 56.4962 463.755 56.5699 463.355 56.6435C461.554 59.2948 462.054 61.6514 464.855 63.3453C465.856 63.9345 467.457 64.3764 468.757 64.3764C471.858 64.3764 474.86 64.229 477.961 63.8608C481.562 63.4926 485.164 62.6824 488.765 62.3879C494.568 61.8723 500.27 61.8724 505.972 63.2717C511.574 64.6709 516.176 69.3107 515.076 73.8767C514.676 75.4233 514.776 77.1171 513.975 78.5164C513.075 80.1366 511.674 81.6832 510.074 83.0088C504.972 87.3539 498.469 90.0052 490.766 90.7416C485.264 91.2571 479.762 91.3308 474.459 90.1525C471.558 89.4897 468.657 88.9742 465.656 88.385C458.153 86.8384 452.15 88.8268 447.148 92.8774C446.748 93.0247 446.548 93.3929 446.148 93.8348ZM444.047 133.162C446.248 133.162 448.149 132.278 448.949 130.805C449.649 129.479 450.25 128.08 449.949 126.534C449.649 124.84 449.449 123.146 449.149 121.452C448.849 119.832 448.849 118.212 449.549 116.591C450.15 115.119 450.75 113.498 450.65 111.952C450.35 108.417 451.45 104.955 451.85 101.494C451.95 100.831 452.451 100.242 452.551 99.6529C452.751 98.5482 452.15 98.0326 450.65 97.8853C450.15 97.8117 449.649 97.8117 449.249 97.8853C445.348 98.4745 441.846 99.6529 438.845 101.494C436.544 102.893 435.944 104.955 434.543 106.723C434.243 107.091 434.243 107.607 434.043 108.048C433.243 110.479 432.442 112.836 431.742 115.266C431.342 116.739 430.742 118.285 430.842 119.758C431.242 123.588 433.143 127.123 436.544 130.142C438.345 131.762 440.846 133.015 444.047 133.162ZM448.949 0.304287C450.65 0.230648 452.25 -0.28487 453.451 -1.3159C455.752 -3.37801 457.052 -5.73468 457.553 -8.31229C457.953 -10.2271 457.853 -12.1419 459.653 -13.7621C460.554 -14.5722 461.554 -15.3087 462.555 -16.1188C464.655 -17.6654 466.156 -19.4329 465.756 -21.7159C465.556 -22.747 466.056 -23.6307 466.756 -24.5145C468.457 -26.7975 470.958 -28.2704 474.259 -29.2278C479.361 -30.6271 484.563 -32.1737 489.565 -33.7939C492.667 -34.7513 495.568 -36.0769 498.469 -37.2552C499.87 -37.8444 501.07 -38.6545 501.67 -39.7592C502.171 -40.5693 501.87 -40.9376 500.77 -41.3058C499.57 -41.674 498.569 -41.3794 497.569 -41.0112C494.968 -40.0538 492.267 -39.0964 489.766 -37.9917C484.463 -35.635 478.961 -33.4256 473.259 -31.6581C467.757 -29.8906 462.154 -28.3441 457.352 -25.6928C455.152 -24.5145 452.751 -23.4834 451.35 -21.7159C449.149 -19.0647 446.548 -16.6343 443.047 -14.7932C442.747 -14.6459 442.446 -14.4249 442.246 -14.204C440.746 -12.7311 440.045 -11.1845 440.546 -9.34332C441.046 -7.13394 441.446 -4.99823 442.947 -3.00978C444.047 -1.16863 445.748 0.304287 448.949 0.304287ZM459.453 34.697C459.453 36.1699 459.653 37.4955 460.354 38.9685C461.154 40.736 462.455 42.2089 463.555 43.8291C464.155 44.7128 464.555 45.6702 465.356 46.4067C466.656 47.6587 468.257 48.837 469.757 50.0154C470.758 50.8255 472.058 50.9727 473.459 50.5309C474.259 50.2363 475.46 48.7634 475.26 47.9532C474.86 46.1857 474.259 44.4919 472.959 42.8717C470.558 40.0731 467.657 37.6429 464.155 35.5808C462.855 34.9179 461.354 34.1814 459.453 34.697Z" fill="#FEECE7"/>
<path d="M411.034 -8.53328C404.331 -8.82787 397.528 -9.12244 390.725 -9.41703C383.923 -9.71161 377.12 -9.85891 369.917 -10.1535C370.017 -8.38599 369.617 -6.83944 370.117 -5.21921C370.617 -3.23078 371.318 -1.38961 372.318 0.45155C373.519 2.43998 374.919 4.28114 376.92 5.90135C379.421 8.03709 379.921 10.6147 377.52 12.8977C375.92 14.5179 376.22 16.5064 375.719 18.3475C375.319 19.7468 375.219 21.1461 374.919 22.4718C374.619 23.7237 374.919 24.8284 375.219 26.0804C375.92 28.7316 378.421 30.4992 380.021 32.7085C382.022 35.2862 384.423 37.6428 386.624 40.1468C387.524 41.1042 388.325 42.0616 389.825 42.6508C390.625 42.9454 391.126 43.4608 390.826 44.3446C390.525 45.0074 390.826 45.8175 391.126 46.4803C392.526 49.4262 394.127 52.2984 394.927 55.3915C394.927 55.5388 395.027 55.7598 395.127 55.9071C397.828 58.632 398.929 61.8724 401.03 64.8182C401.83 65.9229 402.53 66.954 403.431 67.985C405.231 70.1208 406.332 72.3301 406.332 74.8341C406.332 75.4969 406.232 76.0124 405.632 76.6016C403.631 78.6637 401.23 80.4312 398.629 82.0514C394.627 84.629 390.525 87.133 386.424 89.5633C384.123 90.8889 381.522 91.9936 379.121 93.172C378.32 93.5402 377.62 93.9821 376.52 94.5713C387.824 96.1915 398.729 97.6644 410.033 99.2846C409.133 100.168 408.333 100.831 407.732 101.568C407.132 102.23 406.632 102.967 406.232 103.703C405.531 105.029 404.931 106.428 404.531 107.828C404.231 108.859 404.231 109.89 403.931 110.921C403.531 112.173 403.331 113.498 402.53 114.603C400.529 117.181 399.429 119.832 399.229 122.778C398.829 127.344 394.227 129.553 388.925 130.29C378.921 131.689 369.417 130.363 360.513 126.607C356.512 124.913 354.111 122.409 352.31 119.316C350.609 116.371 349.409 113.425 349.209 110.258C349.009 107.165 348.809 103.924 350.109 100.905C350.709 99.4319 351.81 98.0326 353.51 97.0015C356.612 95.0867 359.613 93.172 362.614 91.3308C366.016 89.2687 368.917 86.8384 371.718 84.4081C372.918 83.377 373.919 82.2724 375.019 81.2413C377.82 78.6637 378.12 75.5706 379.021 72.4774C379.621 70.4153 378.721 68.5006 378.22 66.5121C377.52 63.5663 376.52 60.694 375.519 57.8219C374.919 56.128 374.219 54.4341 373.619 52.8139C373.418 52.2247 373.218 51.7092 373.118 51.1201C372.818 48.9843 371.618 47.1432 370.217 45.302C369.217 44.05 368.517 42.6507 367.616 41.3251C367.516 41.2514 367.616 41.1041 367.516 41.0305C366.016 39.4103 364.615 37.8637 363.114 36.2435C361.214 34.2551 359.313 32.193 357.312 30.2046C355.811 28.658 354.311 27.0378 353.61 25.1966C353.31 24.3129 352.81 23.4292 352.61 22.4718C352.31 20.9252 352.51 19.3049 352.01 17.7584C351.61 16.5064 351.51 15.2544 351.81 14.0024C351.91 13.5605 351.91 13.045 352.21 12.6768C353.811 10.0992 352.81 7.59521 351.51 5.16488C350.609 3.54467 350.209 1.85083 349.709 0.156963C348.909 -2.64159 349.409 -5.44013 349.609 -8.23868C349.809 -11.2582 351.71 -13.4676 354.911 -15.1614C358.512 -17.0762 361.314 -19.4329 364.015 -22.0105C364.315 -22.3051 364.615 -22.7469 365.115 -22.9679C369.217 -25.2509 372.718 -28.1231 377.52 -29.817C383.923 -32.1 390.225 -34.4567 396.028 -37.6235C399.629 -39.6119 402.33 -41.9686 404.931 -44.6935C408.133 -47.9339 411.734 -50.8798 417.036 -52.5736C423.839 -54.7094 430.542 -57.066 437.645 -58.6862C441.846 -59.6436 446.148 -60.3065 450.55 -60.3065C453.451 -60.3065 456.052 -59.7173 458.353 -58.539C460.754 -57.3606 461.754 -55.2249 460.354 -53.3101C459.053 -51.4689 459.954 -49.7751 460.354 -48.0076C460.654 -46.5346 461.154 -45.0617 461.154 -43.5888C461.054 -41.5267 459.353 -39.9065 457.152 -38.8018C454.451 -37.4025 451.55 -36.0769 448.549 -34.9722C442.947 -32.8365 437.044 -31.2163 431.042 -29.7433C429.441 -29.3751 427.941 -28.8596 426.34 -28.4177C423.439 -27.6076 421.538 -25.9137 419.837 -24.1462C419.137 -23.4098 418.937 -22.2314 418.937 -21.274C419.037 -18.8437 417.536 -17.0026 415.135 -15.456C414.135 -14.7932 413.135 -14.1304 412.834 -13.0993C412.334 -11.6264 411.734 -10.2271 411.034 -8.53328ZM448.149 -54.3411C446.648 -55.2249 445.148 -55.004 443.847 -54.783C441.946 -54.4884 440.146 -54.0466 438.445 -53.4574C435.944 -52.6473 433.343 -51.8372 430.942 -50.8061C427.941 -49.4805 426.14 -47.3447 424.639 -45.1354C422.538 -42.1159 419.537 -39.7592 415.836 -37.8444C410.233 -34.9722 404.131 -32.8365 397.828 -30.848C394.727 -29.8906 391.626 -29.0069 388.925 -27.4603C387.224 -26.4293 385.423 -25.3982 383.823 -24.2199C382.522 -23.2625 381.322 -22.2314 380.421 -21.1267C378.721 -18.8437 376.72 -16.9289 373.819 -15.3824C373.218 -15.0878 372.718 -14.6459 371.718 -13.9831C379.321 -13.4676 386.224 -13.3203 392.726 -13.173C393.927 -14.0567 394.827 -14.5723 395.627 -15.1614C398.129 -17.0026 400.529 -18.8437 400.63 -21.6423C400.63 -22.3051 401.03 -23.0415 401.63 -23.5571C403.731 -25.7664 406.332 -27.534 409.833 -28.4913C413.635 -29.596 417.336 -30.7007 421.138 -31.8054C426.64 -33.352 431.842 -35.1932 436.744 -37.5498C439.245 -38.7282 441.546 -40.2011 443.047 -42.2632C444.747 -44.5462 444.847 -47.0502 445.248 -49.5541C445.348 -50.5852 445.848 -51.4689 446.648 -52.279C447.148 -52.9419 447.649 -53.6047 448.149 -54.3411ZM388.725 100.242C382.922 99.4319 377.32 98.6218 371.818 97.8117C370.717 97.6644 370.017 97.959 369.217 98.4008C366.116 100.389 364.215 102.82 364.015 105.913C363.815 109.595 363.314 113.277 363.915 117.033C364.215 119.39 365.215 121.599 367.116 123.441C369.017 125.355 371.618 126.534 375.019 126.46C376.72 126.386 377.72 125.797 378.421 124.693C379.221 123.514 379.021 122.189 379.221 121.01C379.421 119.758 379.221 118.506 380.121 117.402C382.522 114.677 383.122 111.51 383.823 108.417C384.623 105.544 385.824 102.82 388.725 100.242Z" fill="#FEECE7"/>
<path d="M218.256 84.1135C216.155 85.7337 214.154 87.4276 211.953 88.9742C209.752 90.4471 207.251 91.6991 204.85 93.0983C203.85 93.6139 202.749 93.7612 201.649 93.4666C198.048 92.3619 194.446 91.2571 190.945 90.0052C190.244 89.7842 189.744 89.1215 189.144 88.6796C187.943 87.8695 186.743 87.0594 185.342 86.102C186.643 85.1446 187.743 84.1871 189.044 83.377C189.544 83.0824 190.344 83.0088 191.045 83.0088C193.246 82.8615 195.246 82.346 197.147 81.5359C199.748 80.4312 201.249 78.6637 201.849 76.528C202.449 74.024 203.05 71.52 203.55 68.9424C203.65 68.2059 203.35 67.4695 203.15 66.6594C202.749 64.6709 202.549 62.6089 201.649 60.6941C200.649 58.632 200.148 56.4226 198.648 54.5078C197.847 53.4767 198.048 52.0775 197.747 50.8255C197.147 48.5424 195.947 46.4067 194.046 44.4919C192.345 42.7244 191.345 40.6623 189.944 38.7475C188.544 36.759 187.243 34.697 185.442 32.7822C183.342 30.6464 181.741 28.2898 180.04 25.9331C179.54 25.1966 179.34 24.3866 179.24 23.5764C178.74 21.1461 178.64 18.7158 177.839 16.3591C177.239 14.5916 177.639 12.8977 177.539 11.1302C177.439 9.65732 177.439 8.1844 177.039 6.78513C176.339 4.42845 176.039 1.99811 176.139 -0.432213C176.239 -3.52534 176.039 -6.61845 176.439 -9.71159C176.639 -11.4791 177.439 -13.0257 178.94 -14.3513C180.641 -15.8242 182.941 -16.8553 184.242 -18.6228C184.842 -19.3592 185.643 -20.0957 185.943 -20.9058C186.743 -23.1152 188.544 -24.6618 191.145 -25.7664C194.446 -27.1657 197.948 -28.4177 201.349 -29.596C206.851 -31.5108 212.353 -33.352 216.955 -36.3715C218.156 -37.1816 219.156 -37.9917 219.656 -39.17C220.757 -41.8213 222.958 -44.0307 225.259 -46.1664C225.959 -46.8292 226.559 -47.4921 227.059 -48.2285C228.46 -50.5115 230.861 -52.0581 233.462 -53.6047C237.964 -56.2559 242.265 -58.9808 246.667 -61.7057C249.068 -63.1787 251.469 -64.5779 253.77 -66.1982C256.071 -67.7447 258.172 -69.4386 260.173 -71.1325C262.073 -72.679 263.974 -74.1519 266.375 -75.2566C270.577 -77.2451 274.979 -79.1599 277.98 -82.253C278.28 -82.5476 278.58 -82.7685 278.88 -83.0631C281.081 -85.8617 284.282 -87.8501 287.584 -89.7649C287.984 -89.9858 288.384 -90.4277 288.284 -90.7223C288.184 -91.0169 287.584 -91.3115 287.084 -91.3851C286.183 -91.5324 285.183 -91.4588 284.282 -91.4588C283.482 -91.4588 282.782 -91.3851 282.182 -91.3115C282.982 -92.7108 283.682 -94.0364 284.583 -95.6566C286.783 -96.2458 289.385 -96.9086 291.886 -97.5714C293.186 -97.9396 294.387 -98.2342 295.687 -98.6024C296.087 -98.7497 296.788 -98.9707 296.788 -99.1916C296.888 -100.738 298.588 -100.591 299.889 -100.885C307.492 -102.653 315.395 -103.758 323.198 -104.789C323.698 -104.862 324.099 -104.936 324.699 -105.083C324.799 -104.789 324.999 -104.568 325.099 -104.273C325.199 -103.979 325.199 -103.684 325.199 -103.463C323.198 -102.8 321.297 -102.137 319.297 -101.475C318.096 -101.106 317.696 -100.37 317.196 -99.4862C316.295 -97.866 316.395 -96.0985 315.895 -94.4046C315.495 -92.9317 314.595 -91.9006 312.994 -91.0905C310.993 -89.9858 308.892 -88.8811 306.792 -87.7765C304.291 -86.3772 302.89 -84.3887 300.989 -82.6212C298.888 -80.5591 296.387 -78.8653 293.686 -77.3924C291.485 -76.214 289.184 -75.183 287.084 -73.931C284.783 -72.5317 282.482 -71.0588 280.581 -69.3649C277.58 -66.64 273.678 -64.6516 270.277 -62.3686C266.875 -60.0855 263.274 -57.8762 259.773 -55.6668C258.172 -54.7094 256.571 -53.752 254.771 -52.8682C252.37 -51.6899 250.669 -50.1433 249.668 -48.0812C249.068 -46.7556 248.368 -45.43 247.768 -44.1043C246.567 -41.8213 244.566 -39.9801 242.165 -38.2863C236.763 -34.604 230.661 -31.8054 223.858 -29.6697C220.157 -28.4913 216.455 -27.0921 212.954 -25.6192C210.453 -24.5881 208.652 -23.1888 207.952 -20.9795C207.251 -18.7701 205.15 -17.0025 202.749 -15.6033C199.748 -13.8358 198.348 -11.6264 198.248 -8.9015C198.148 -5.0719 198.048 -1.31596 198.148 2.51363C198.248 4.28115 198.948 6.1223 199.148 7.88982C199.348 9.28909 199.648 10.6884 199.448 12.0876C199.048 14.3707 199.648 16.5064 200.248 18.7158C200.649 19.9678 200.849 21.2934 201.049 22.5454C201.349 24.5338 201.849 26.4486 204.15 27.8479C204.65 28.1425 205.05 28.658 205.451 29.0999C207.551 31.3829 209.852 33.445 212.453 35.3598C214.954 37.1273 217.355 38.8211 219.656 40.6623C221.557 42.2088 222.858 43.9027 222.858 46.1857C222.858 47.2168 223.458 48.1742 223.958 49.2053C225.359 52.0038 225.859 55.0233 226.059 57.9691C226.159 59.3684 225.659 60.7677 225.759 62.2406C225.959 64.8919 225.159 67.5432 225.559 70.2681C225.859 72.1828 225.259 74.0976 224.358 75.9388C223.358 78.0009 222.858 79.9893 223.458 82.1987C223.858 83.8925 225.659 84.4817 227.459 84.1135C229.16 83.7452 230.761 83.2297 232.461 82.9352C234.462 82.5669 236.463 82.1987 238.564 82.1251C241.665 81.9778 243.466 83.2298 242.866 85.4391C242.065 88.5323 240.065 91.3308 236.563 93.2456C235.163 94.0557 232.962 94.203 231.161 94.5713C227.559 95.2341 223.958 95.7496 220.257 95.6023C218.956 95.5287 217.555 95.3813 216.255 95.1604C213.854 94.7185 212.653 93.0246 213.654 91.4781C214.854 89.5633 216.155 87.6485 217.355 85.8074C217.656 85.3655 217.956 84.9236 218.256 84.4817C218.456 84.1871 218.356 84.1871 218.256 84.1135Z" fill="#FEECE7"/>
<path d="M533.583 5.82768C536.885 0.967044 540.186 -3.67265 543.187 -8.386C544.888 -10.8899 546.989 -13.0993 550.09 -14.7932C551.391 -15.5296 552.691 -16.3398 553.792 -17.2235C555.792 -18.8437 555.292 -20.243 552.491 -21.0531C551.591 -21.3477 550.69 -21.495 549.59 -21.8632C550.29 -22.5997 550.89 -23.1888 551.491 -23.778C551.991 -24.2935 552.591 -24.5145 553.491 -24.4408C556.292 -24.2935 559.094 -24.2199 561.895 -24.0726C566.297 -23.8516 570.598 -23.5571 575 -23.2625C574.9 -21.274 574.3 -20.8322 571.999 -20.1693C569.298 -19.4329 566.697 -18.6964 564.496 -17.1499C563.095 -16.1924 561.194 -15.456 559.394 -14.8668C554.992 -13.4675 552.091 -11.0372 550.19 -7.79684C548.489 -4.92464 546.489 -2.12608 544.488 0.672457C543.787 1.70351 542.687 2.6609 541.987 3.69196C541.386 4.64935 540.786 5.60675 540.486 6.63779C539.786 8.69988 539.186 10.762 538.585 12.8241C538.185 14.297 538.085 15.6963 538.685 17.1692C539.486 19.084 540.086 21.0724 540.786 22.9872C541.587 25.0493 543.287 26.8168 545.088 28.437C548.589 31.6775 552.291 34.8443 555.692 38.1584C557.593 39.9995 559.194 41.9143 560.794 43.9027C563.395 47.2168 563.896 50.8991 563.595 54.5814C563.395 57.8218 562.695 61.0623 562.095 64.3027C561.695 66.6594 561.294 69.0161 560.594 71.3727C559.394 74.9814 558.693 78.811 556.393 82.1987C555.092 84.1871 553.491 86.0283 551.891 87.9431C549.19 91.1835 545.288 93.6139 541.887 96.3388C540.486 97.4435 539.286 98.5482 538.085 99.7265C536.685 101.126 535.884 102.672 535.984 104.513C536.084 105.986 535.584 107.533 535.584 109.08C535.784 112.246 536.084 115.413 536.384 118.58C536.484 119.095 536.785 119.611 536.985 120.053C539.286 124.03 542.587 127.491 546.088 130.952C548.289 133.162 550.59 135.371 552.991 137.507C555.192 139.569 557.593 141.557 559.894 143.546C561.495 144.945 563.095 146.492 564.996 147.67C566.697 148.775 567.297 149.953 567.697 151.5C568.097 153.194 569.198 154.814 569.698 156.581C570.098 157.981 570.098 159.38 570.298 161C561.595 160.19 553.191 159.748 544.788 158.349C544.088 153.562 541.887 149.143 539.986 144.651C540.786 144.503 541.286 144.282 541.887 144.209C544.788 143.693 545.988 142.515 545.588 140.379C545.488 139.569 545.088 138.759 544.588 138.022C542.587 134.708 539.586 131.763 536.685 128.817C535.084 127.123 533.483 125.429 532.083 123.661C530.082 121.084 528.981 118.285 529.182 115.266C529.282 113.719 529.082 112.246 528.881 110.7C528.881 110.332 528.581 109.963 528.381 109.374C527.981 109.963 527.481 110.332 527.381 110.773C526.881 112.615 525.48 114.235 524.18 115.781C521.378 119.169 520.078 122.999 518.877 126.755C518.377 128.375 517.777 129.921 517.177 131.468C515.776 134.635 516.576 136.991 520.278 138.906C522.379 140.011 524.68 140.968 526.981 141.926C527.781 142.294 528.481 142.589 528.681 143.325C529.182 145.387 529.782 147.375 530.382 149.659C529.682 149.585 528.981 149.585 528.281 149.438C525.38 148.996 522.479 148.627 519.678 148.112C518.477 147.891 517.077 147.449 516.276 146.786C515.576 146.124 514.776 145.976 513.975 145.829C510.074 145.166 506.172 144.724 502.371 144.061C498.269 143.325 494.167 142.441 489.966 141.631C489.465 141.557 488.865 141.263 488.665 140.968C487.865 139.716 487.165 138.391 486.464 136.991C490.066 136.181 491.066 133.825 492.367 131.615C494.167 128.375 494.668 124.84 495.968 121.452C496.768 119.537 497.569 117.549 499.47 115.929C501.17 114.456 501.87 112.541 502.671 110.7C503.971 107.828 506.272 105.397 508.573 102.967C509.273 102.304 510.274 101.789 511.274 101.273C515.776 98.7691 520.678 96.9279 525.58 94.9395C531.983 92.3619 538.485 89.7843 543.988 86.102C546.789 84.2608 549.69 82.346 551.09 79.6947C552.491 77.0434 553.191 74.3186 552.791 71.4464C552.591 70.4153 551.891 69.3107 551.291 68.3533C548.589 64.1554 545.188 60.2522 541.186 56.6435C536.785 52.6666 532.583 48.5424 529.482 43.9027C527.181 40.3677 524.48 36.98 522.379 33.3714C520.378 29.7627 518.277 26.0804 518.477 22.0298C518.477 21.1461 518.077 20.2623 517.777 19.4522C516.877 17.0219 515.976 14.5916 515.076 12.1613C514.376 10.3201 513.175 8.69989 511.875 7.07967C509.974 4.72299 507.973 2.36633 506.572 -0.137632C504.672 -3.30441 503.271 -6.6185 501.67 -9.85892C501.37 -10.5954 501.17 -11.3318 500.97 -12.0683C500.57 -13.5412 501.17 -14.8668 502.671 -15.8979C504.872 -17.4444 505.372 -19.2119 504.171 -21.3477C503.571 -22.3051 503.171 -23.3361 502.671 -24.3672C506.272 -27.534 511.274 -29.0805 516.676 -30.4061C516.576 -29.596 516.476 -29.0069 516.376 -28.2704C524.58 -26.4293 532.983 -26.061 541.386 -25.03C540.486 -24.1462 539.686 -23.3361 538.885 -22.5997C538.685 -22.3787 538.285 -22.2314 537.885 -22.1578C537.485 -22.0105 536.985 -21.9368 536.484 -21.9368C532.683 -21.7159 529.882 -20.3166 527.881 -18.0336C527.181 -17.2235 526.28 -16.3398 525.28 -15.7506C522.979 -14.4249 522.379 -12.8784 523.279 -10.9636C524.78 -7.72319 526.18 -4.48276 527.881 -1.31596C528.981 0.746127 530.482 2.66092 531.883 4.64937C532.383 4.94395 532.883 5.23853 533.583 5.82768Z" fill="#FEECE7"/>
<path d="M127.919 34.9179C131.221 34.9916 134.122 36.1699 137.623 36.6117C136.823 35.5807 136.223 34.697 135.522 33.8869C133.722 31.8984 131.821 29.9836 130.02 27.9216C128.419 26.0804 127.519 24.0183 127.619 21.8089C127.619 20.7779 127.519 19.6732 127.119 18.6422C126.118 16.2118 125.918 13.7815 126.218 11.3512C126.519 9.06812 125.918 6.93239 125.518 4.72301C125.118 2.43999 124.918 0.156968 124.918 -2.05241C124.818 -4.40908 124.918 -6.76577 125.018 -9.12245C125.118 -11.6264 126.319 -13.6885 129.02 -15.3824C131.421 -16.8553 133.421 -18.6964 134.522 -21.0531C135.822 -23.7044 138.423 -25.6192 141.925 -26.7975C147.627 -28.7859 153.429 -30.6271 159.032 -32.6892C166.135 -35.2668 173.538 -37.2552 180.841 -39.4646C182.441 -39.9802 184.142 -40.422 185.542 -41.1585C187.143 -41.8949 188.144 -43.1469 186.943 -44.7671C186.143 -45.8718 185.542 -47.1238 184.942 -48.3022C184.242 -49.8487 184.642 -50.9534 186.543 -51.7635C188.644 -52.7209 190.945 -53.4574 193.146 -54.2675C193.846 -54.5621 194.646 -54.783 195.146 -55.2249C197.747 -57.1397 200.248 -59.0545 201.749 -61.5585C202.349 -62.5895 203.65 -63.3996 204.45 -64.357C205.15 -65.0935 205.751 -65.8299 206.251 -66.5664C207.251 -67.9657 208.152 -69.3649 209.152 -70.6906C211.353 -73.6364 214.854 -75.5512 218.756 -77.0978C221.857 -78.3498 224.658 -80.0436 226.459 -82.253C228.96 -85.1988 232.361 -86.8927 236.763 -87.8501C241.365 -88.8811 245.967 -89.7649 250.769 -90.0595C256.071 -90.4277 261.473 -90.796 266.775 -90.9433C269.176 -91.0169 271.677 -90.7223 274.178 -90.5014C274.679 -90.5014 275.179 -90.2804 275.679 -90.1331C274.679 -88.8812 273.078 -88.7339 271.277 -88.6602C266.175 -88.5866 261.073 -88.1447 256.171 -86.8927C253.97 -86.3772 252.169 -85.4934 250.869 -84.0205C247.968 -80.9274 244.466 -78.3498 239.864 -76.5086C236.563 -75.183 233.862 -73.4155 231.961 -70.9852C230.761 -69.4386 229.76 -67.8184 229.86 -66.0509C229.86 -65.0198 229.56 -63.7678 230.961 -62.9577C231.561 -62.5895 232.261 -62.3686 232.962 -62.2213C233.562 -62.074 234.162 -62.0003 235.263 -61.853C234.062 -60.9693 233.162 -60.3065 232.161 -59.7909C227.96 -57.3606 223.858 -54.9303 219.556 -52.5C217.255 -51.248 215.855 -49.6278 215.154 -47.6393C214.854 -46.9029 214.454 -46.5347 213.754 -46.0928C212.353 -45.2827 211.353 -44.1043 209.552 -43.8097C208.552 -42.1159 206.651 -40.4957 208.352 -38.5072C207.451 -37.7708 206.651 -37.108 205.851 -36.5188C205.15 -36.0033 204.35 -35.5614 203.15 -35.635C194.746 -36.1506 187.043 -34.4567 179.54 -31.9527C175.839 -30.7007 172.137 -29.4487 168.436 -28.2704C165.534 -27.313 162.633 -26.282 160.232 -24.6618C158.832 -23.7044 157.531 -22.5997 156.931 -21.3477C155.73 -18.9174 154.03 -16.8553 151.129 -15.235C148.628 -13.8358 147.227 -12.0683 147.227 -9.7116C147.327 -7.06034 147.027 -4.33545 147.027 -1.68419C147.027 -1.02138 147.227 -0.432191 147.327 0.230621C147.527 1.4826 147.727 2.80822 147.827 4.0602C148.027 6.49053 148.427 8.8472 148.127 11.2775C147.727 14.5916 148.928 17.6848 149.428 20.8515C149.528 21.5143 149.628 22.2508 149.728 22.9136C150.028 25.2703 151.129 27.3323 153.029 29.2471C154.83 31.1619 156.331 33.2241 158.031 35.2125C159.332 36.6118 160.832 37.9374 162.033 39.3367C163.934 41.6197 165.835 43.9764 167.435 46.4067C168.436 47.8796 168.836 49.4999 169.436 51.1201C169.836 52.0775 170.136 53.0349 170.436 53.9923C171.237 56.5699 172.137 59.1474 172.937 61.6514C173.137 62.2406 173.037 62.9035 173.037 63.5663C173.238 65.3338 173.538 67.1749 173.638 68.9424C173.938 72.772 172.537 76.3807 170.436 79.842C170.336 80.063 170.336 80.2839 170.136 80.7258C174.538 81.3886 178.84 82.0515 183.442 82.7143C182.641 83.7453 182.041 84.629 181.241 85.3655C180.14 86.5438 178.94 87.6485 177.839 88.7532C176.639 89.9315 175.939 90.0052 174.238 89.6369C170.536 88.7532 166.835 87.7958 163.133 86.912C158.832 90.5207 153.429 92.951 148.227 95.5286C147.127 96.1178 146.027 96.3387 144.626 96.1914C142.825 95.9705 141.024 95.8969 138.924 95.7496C139.124 95.3813 139.224 95.0867 139.524 94.7921C141.825 92.6564 143.225 90.1525 144.026 87.5013C144.926 84.7027 143.826 83.0088 140.924 81.1676C140.424 80.873 139.924 80.6521 139.224 80.3575C140.024 78.811 140.724 77.3381 141.525 75.7179C144.126 76.2334 146.627 76.7489 149.328 77.3381C150.928 74.024 151.429 70.7099 151.229 67.2486C147.927 67.6905 145.626 69.237 142.825 69.6052C141.825 63.9345 141.525 58.411 139.024 53.1821C138.924 53.0348 138.924 52.9612 138.924 52.8139C139.324 51.0464 137.523 49.6471 137.523 47.9532C137.523 47.5114 137.023 47.1432 136.723 46.7013C136.423 46.1858 135.922 45.6703 135.722 45.1548C135.422 44.271 135.122 43.4609 134.022 42.9454C133.822 42.8717 133.621 42.7244 133.621 42.5034C132.521 39.7785 129.52 38.0111 127.819 35.6544C128.019 35.3598 128.019 35.2125 127.919 34.9179Z" fill="#FEECE7"/>
<path d="M42.8848 14.3706C42.8848 10.9828 42.9848 7.81612 41.4842 4.64934C40.884 3.39736 41.2841 1.99806 41.084 0.672428C40.7839 -1.53696 41.3842 -3.67268 41.3842 -5.80841C41.3842 -7.06039 41.2841 -8.23874 41.3842 -9.49072C41.6843 -11.7738 42.4846 -13.8359 45.1857 -15.3088C47.9868 -16.8554 49.6875 -18.9911 50.988 -21.3478C52.4886 -23.9254 55.0897 -25.8402 58.5911 -27.0922C61.0921 -27.9759 63.4931 -29.007 65.9941 -29.8907C66.7944 -30.1853 67.7948 -30.3326 68.6952 -30.4062C75.2979 -30.9954 82.0006 -31.6582 88.6033 -32.2474C95.1059 -32.8366 101.609 -33.4994 108.111 -33.9413C115.114 -34.3831 122.117 -34.7514 129.12 -33.794C131.12 -33.4994 133.121 -33.0575 134.822 -32.1737C136.623 -31.2163 136.723 -30.4063 134.922 -29.4489C133.621 -28.7124 132.121 -28.1232 130.62 -27.4604C128.719 -26.5767 126.819 -25.6929 125.018 -24.8091C123.217 -23.8517 122.117 -22.3788 121.617 -20.9059C120.916 -18.8438 119.216 -17.2972 117.115 -16.0453C114.314 -14.425 112.913 -12.363 112.213 -9.85895C111.312 -6.54488 109.212 -3.52539 107.111 -0.653179C106.01 0.819737 106.01 2.14536 107.011 3.69193C108.411 5.90131 110.112 8.03703 112.113 10.0254C113.213 11.0565 113.713 12.3085 113.413 13.6341C113.213 14.4442 113.213 15.2544 113.013 16.0645C112.613 18.2002 111.112 19.7467 108.511 20.7778C105.31 22.1034 101.709 22.8399 98.1071 23.4291C93.4052 24.2392 88.6033 25.0493 84.0014 26.0067C82.901 26.2276 81.7005 26.4486 80.8001 27.3323C80.0998 27.9951 80.0998 28.6579 80.2999 29.2471C80.6 29.9835 81.3003 30.6464 81.7005 31.3828C82.1006 31.972 82.5008 32.6348 82.6008 33.2976C82.7009 34.1814 82.6008 35.1388 82.5008 36.0962C82.2007 38.9684 83.9014 41.3251 86.2023 43.4608C87.1027 44.3446 88.1031 45.1547 89.1035 46.0384C89.9038 46.7012 90.2039 47.4377 89.9038 48.3214C89.3036 49.7207 88.7033 51.12 88.3031 52.5193C87.4028 55.6124 86.8025 58.7055 87.8029 61.8723C88.003 62.6824 88.1031 63.4925 88.3031 64.3026C88.5032 65.1864 88.8033 65.8492 89.6037 66.6593C90.7041 67.6904 91.3044 69.0896 92.0046 70.3416C92.2047 70.7099 92.2047 71.2254 91.9046 71.52C90.7041 73.3611 90.404 75.6441 87.3027 76.5279C82.6008 79.621 78.099 82.8614 74.7977 86.8383C74.0974 87.7221 73.2971 88.6058 72.5968 89.5632C71.5964 90.8889 71.9965 92.1409 73.8973 92.8037C74.9978 93.2456 76.2983 93.5401 77.4988 93.6874C82.8009 94.4239 88.003 94.1293 93.2051 93.1719C96.8066 92.5091 100.408 91.5517 103.909 90.5943C105.41 90.1524 106.811 89.4159 108.211 88.6795C111.212 87.0593 114.314 85.5127 117.215 83.8189C118.515 83.0824 119.716 82.1986 120.816 81.2412C121.617 80.5048 122.517 80.2838 123.717 80.5048C124.618 80.6521 125.618 80.7257 126.619 80.873C126.018 82.2723 124.918 83.4506 123.617 84.4817C119.816 87.5011 116.114 90.5943 111.312 92.8037C109.112 93.7611 107.111 95.013 104.91 95.8968C103.609 96.4123 101.909 96.5596 100.308 96.5596C93.3052 96.6333 86.4024 96.7806 79.3995 96.5596C74.6976 96.4123 69.9957 96.0441 65.594 94.7185C65.2938 94.6448 64.9937 94.5712 64.6936 94.4975C60.5919 93.1719 59.3914 91.5517 60.5919 88.3849C61.5923 85.66 62.8929 83.0824 63.8933 80.3575C65.1938 76.6752 66.7944 72.9192 66.8945 69.0896C66.9945 67.3221 66.3943 65.481 66.1942 63.7135C65.694 60.1048 64.8937 56.4961 63.6932 52.9611C63.193 51.4146 62.6928 49.7944 62.1926 48.2478C61.3923 45.7438 59.2914 43.7554 57.6908 41.546C55.9901 39.3366 54.1893 37.2745 52.4886 35.1388C52.2886 34.9178 51.8884 34.7705 51.5883 34.5496C51.0881 34.0341 50.5879 33.4449 50.0877 32.8558C48.9872 31.6038 47.8868 30.4254 46.8864 29.1734C46.1861 28.2897 45.4858 27.2586 44.8856 26.3012C44.0852 25.0492 44.5855 23.8709 46.0861 23.1345C47.7867 22.3244 49.4874 21.367 51.3882 20.8514C58.0909 18.9367 65.1938 17.9056 72.1966 16.8745C77.6989 16.0644 83.3011 15.107 88.8033 14.076C90.304 13.7814 91.8046 13.1923 93.2051 12.7504C95.306 12.0876 95.9062 9.95184 95.0059 8.55257C93.9054 7.07964 93.1051 5.45944 92.1047 3.91287C91.1043 2.43996 91.0042 1.04068 91.9046 -0.505886C92.0046 -0.653179 92.1047 -0.874129 92.2047 -1.02142C94.2055 -4.04091 94.6057 -7.28134 93.8054 -10.5955C93.6053 -11.4056 93.8054 -12.2893 93.8054 -13.1731C93.8054 -14.1305 94.4056 -14.7933 95.406 -15.3825C98.0071 -16.929 99.0075 -18.8438 97.807 -21.2741C97.6069 -21.7897 97.6069 -22.3788 97.6069 -22.968C100.508 -24.8091 104.11 -25.5456 107.511 -26.4294C110.512 -27.2395 113.513 -27.9759 116.515 -28.8597C117.215 -29.007 117.915 -29.3016 118.415 -29.5961C118.916 -29.8907 119.416 -30.3326 119.516 -30.7745C119.516 -30.9954 118.615 -31.4373 118.115 -31.5109C115.314 -31.8055 112.413 -32.2474 109.612 -32.1737C105.21 -32.1001 100.908 -31.7319 96.5065 -31.29C86.8025 -30.4063 77.1986 -29.2279 67.9949 -26.9449C65.4939 -26.3557 63.293 -25.3247 60.9921 -24.2936C59.6916 -23.7045 58.7912 -22.7471 58.4911 -21.6424C58.191 -20.685 57.8908 -19.7276 57.3906 -18.7702C56.5903 -17.2972 55.2898 -16.1189 53.5891 -15.2351C50.6879 -13.6886 50.4878 -11.1846 52.3886 -8.60696C54.4895 -5.80841 56.7904 -3.08351 59.0913 -0.284954C59.9917 0.819737 60.0917 1.85079 59.2914 3.02911C58.4911 4.13381 58.291 5.53307 57.4907 6.63776C56.6903 7.74245 55.6899 8.69985 54.5895 9.5836C52.7888 11.0565 50.788 12.3821 48.9872 13.8551C48.387 14.2969 47.8868 14.5179 47.1865 14.5179C45.7859 14.5179 44.4854 14.4442 42.8848 14.3706Z" fill="#FEECE7"/>
<path d="M274.178 53.0349C274.078 53.845 273.878 55.0233 273.678 56.2016C273.478 56.9381 272.878 57.5272 271.877 57.9691C268.476 59.663 265.775 59.1474 263.074 56.8644C261.973 55.907 260.473 55.2442 259.873 53.9922C259.272 52.7402 258.772 51.4146 258.172 50.1626C257.672 48.9843 257.472 47.585 255.671 46.9222C253.67 44.1973 251.569 41.4724 249.668 38.7475C249.068 37.9374 248.768 36.9063 248.868 35.9489C248.968 34.5497 247.868 33.1504 248.768 31.7511C249.168 31.0146 249.969 30.6464 251.069 30.7937C255.671 31.5302 259.372 33.2977 262.574 35.728C264.975 37.5692 267.276 39.5576 269.476 41.546C271.077 42.9453 271.677 44.6392 272.378 46.333C273.078 48.1005 273.478 50.0154 274.078 51.7829C273.978 52.0038 274.078 52.2984 274.178 53.0349Z" fill="#FEECE7"/>
<path d="M224.358 32.5613C225.859 31.8248 227.259 32.2667 228.46 32.9295C231.861 34.7707 235.263 36.6118 238.064 38.9685C239.464 40.0732 240.665 41.2515 241.865 42.5035C243.166 43.9028 243.266 45.6703 243.866 47.2169C244.867 49.7945 245.967 52.3721 245.767 55.1707C245.667 56.4226 245.667 57.601 244.766 58.7057C243.966 59.5894 243.066 59.884 241.665 59.7367C239.664 59.5894 238.164 58.632 236.863 57.601C234.162 55.4652 232.962 52.7403 231.861 50.0154C231.861 49.8681 231.761 49.7945 231.761 49.6472C231.261 47.5115 229.36 46.0386 227.359 44.5657C225.759 43.3873 224.458 42.1353 224.258 40.3678C224.158 39.4841 223.658 38.674 223.558 37.7902C223.358 36.3909 222.858 34.918 224.158 33.666C224.658 33.445 224.358 32.9295 224.358 32.5613Z" fill="#FEECE7"/>
<path d="M424.139 90.2262C424.939 88.6797 425.64 87.1331 426.64 85.7338C427.841 84.1136 427.941 82.3461 427.64 80.6522C427.44 79.6212 427.14 78.5901 426.74 77.6327C426.04 75.9389 427.34 74.5396 428.341 73.214C429.841 71.0046 431.742 69.0161 433.143 66.7331C434.243 64.9656 434.743 63.0508 435.544 61.2833C435.744 60.915 435.944 60.5468 436.144 60.1786C436.444 60.1049 436.644 60.105 436.744 60.105C440.246 60.8414 440.146 60.9151 440.146 63.5663C440.146 67.6905 438.945 71.6674 437.444 75.5706C436.944 76.8963 436.844 78.2955 436.444 79.6212C435.744 81.9779 434.443 84.1872 432.442 86.102C431.642 86.9858 430.742 87.7959 429.941 88.6796C428.541 90.0789 427.24 90.4472 424.139 90.2262Z" fill="#FEECE7"/>
<path d="M411.834 3.39751C411.434 6.85889 411.934 10.1729 412.334 13.5606C412.534 15.77 413.735 17.7585 414.935 19.6733C416.036 21.5144 415.936 21.5881 413.635 22.5455C413.335 22.6928 413.035 22.7664 412.634 22.9137C411.534 21.7354 410.434 20.6307 409.433 19.4523C408.633 18.4949 407.832 17.6112 407.132 16.6538C406.532 15.8437 406.132 14.9599 405.732 14.0762C405.531 13.6343 405.431 13.1188 405.131 12.7506C404.331 11.7932 404.231 10.6885 404.331 9.65743C404.731 7.2271 405.131 4.7968 407.232 2.80835C408.233 1.85096 408.533 1.7773 409.933 2.36647C410.434 2.58742 410.934 2.80835 411.334 3.02928C411.634 3.17658 411.734 3.32387 411.834 3.39751Z" fill="#FEECE7"/>
</g>
<defs>
<clipPath id="clip0">
<rect width="612" height="209" fill="white"/>
</clipPath>
</defs>
</svg>
