<svg width="809" height="1191" viewBox="0 0 809 1191" fill="none" xmlns="http://www.w3.org/2000/svg">
<path d="M316.91 475.89C224.98 441.82 194.72 449.05 184.68 498.4C177.13 545.78 192.98 632.24 246.68 727.13C293.62 822.26 387.49 918.77 435.77 994.86C487.07 1076.33 479.23 1131.48 422.99 1249.86L439.99 1249.86C494.13 1135.46 503.55 1079.5 452.35 999.62C404.41 924.73 308.85 830.83 260.29 737.11C204.91 643.85 187.85 558 194.84 511C204.39 461.71 234.22 454.75 327.52 483.89C438.4 498.89 493.08 426.83 496.24 374.2C501.24 316.42 467.87 268.82 445.24 189.88C418.84 117.32 398.01 13.65 380.61 -96.78C367.55 -212.82 354.22 -320.44 439.92 -536L422.92 -536C337 -321.09 351.3 -218.72 366.28 -102.84C385.55 6.84996 408.19 112.55 434.5 187.34C457.37 268.43 489.41 318.76 483.79 376.25C479.92 428.82 425.72 496.71 316.91 475.89ZM302.55 463.83C212.44 423.47 181.44 431.41 170.78 480.83C162.52 528.71 176.89 615.65 227.97 712.56C272.58 809.36 363.56 909.5 412.08 987.46C463.24 1071.36 457.71 1125.53 398.67 1249.8L415.67 1249.8C472.76 1129.7 479.92 1074.87 428.62 992.67C380.22 916.01 287.15 818.36 240.91 722.67C188.03 627.13 172.66 540.53 180.43 493.02C190.69 443.7 221.15 436.29 312.55 472.34C420.46 495.56 474.4 429.43 478.55 376.89C484.45 319.53 453.05 268 430.08 186.06C403.79 110.32 380.31 3.76996 360.22 -105.58C344.37 -221.36 329.72 -321.58 415.67 -536L398.67 -536C312.76 -322.93 328.13 -227.76 345.99 -112.29C367.99 -3.81005 393.48 104.59 419.71 182.51C442.98 266.51 472.95 320.75 466.49 377.8C461.62 430.27 408.36 492.32 302.55 463.83ZM332.17 487.15C238.27 460.26 208.6 467.15 199.29 516.45C192.55 563.39 210.2 648.95 266.29 741.45C315.54 834.45 411.71 927.19 459.43 1001.57C510.53 1080.77 500.43 1137.1 447.13 1249.82L464.13 1249.82C515.36 1140.82 526.91 1083.59 476.18 1005.88C429.02 932.58 331.61 842.57 280.82 751.21C223.1 660.58 204.05 575.95 210.18 529.3C218.91 480.05 248.24 473.13 343.58 494.46C457.26 500.46 512.35 422.46 514.46 369.73C518.55 311.58 483.42 267.83 461 192C434.46 122.65 415.95 22.1 401.16 -89.24C390.76 -205.24 379.16 -320.52 464.16 -536.02L447.16 -536.02C361.62 -320.36 374.47 -210.44 386.7 -94.4201C403.29 16.2899 423.36 119.04 449.8 190.58C472.37 268.58 506.33 315.06 501.61 372.95C498.82 425.68 443.97 499.5 332.22 487.15L332.17 487.15ZM209.55 351.77C122.22 298.48 80.3302 318.27 68.9102 368.97C57.3102 420.81 76.1802 503.55 106.19 602.42C136.65 700.42 190.4 809.66 230.78 906.84C268.94 1010.47 287.39 1082.98 204.78 1249.84L221.78 1249.84C303.61 1086.41 285.71 1017.18 245.78 914.98C203.86 819.42 147.44 709.98 115.88 611.39C84.2802 511.49 66.2502 427.64 77.9702 376.18C89.6402 325.69 131.06 307.59 216.97 362.07C304.3 415.36 346.19 395.57 357.61 344.87C369.21 293.03 350.34 210.29 320.33 111.42C289.87 13.42 236.11 -95.8201 195.74 -193.01C157.55 -296.64 139.15 -369.15 221.75 -536L204.75 -536C122.92 -372.57 140.82 -303.34 180.75 -201.14C222.67 -105.58 279.09 3.85999 310.65 102.45C342.25 202.35 360.28 286.19 348.56 337.66C336.93 388.14 295.5 406.25 209.55 351.77ZM348.67 497.46C252.67 478.65 223.5 485.63 215.05 534.89C209.2 581.45 228.92 665.68 287.3 755.46C338.76 846 436.55 934.82 483.41 1007.65C533.91 1084.73 521.75 1142.42 471.41 1249.83L488.41 1249.83C536.54 1145.92 550.08 1087.22 500.2 1011.49C454.14 939.62 355.6 853.56 302.71 764.92C242.91 677.25 221.62 594.25 226.83 547.92C234.55 498.68 263.55 491.37 360.95 504C477.12 500.17 532.23 416.37 533.3 363.55C536.44 305.02 499.77 264.98 477.5 192.38C450.86 126.26 434.31 28.9999 422.05 -83.0701C414.12 -198.72 404.55 -321.82 488.4 -536L471.4 -536C386.68 -320.77 397.72 -203.1 407.4 -87.22C421.4 24.35 439.26 123.91 465.82 192.31C488.2 267.16 523.82 309.8 520.07 368.07C518.29 420.83 463.14 500.56 348.68 497.46L348.67 497.46ZM264.4 424.12C178.08 370.18 143.92 382.51 132.24 432.45C122.42 482.04 134.52 568.13 177.63 668.77C215.5 768.07 295.07 877.5 342.48 961.7C391.18 1053.39 392.78 1106.34 325.99 1249.83L342.99 1249.83C408.03 1111 408.09 1058 358.55 968.17C310.64 885.48 228.1 777.92 188.75 678.86C143.75 578.79 131.47 492.24 141.01 443.09C152.55 393.3 185.86 382.28 272.79 433.76C371.63 476.76 421.91 427.45 429.07 375.3C437.24 319.4 412.32 256.62 387.53 166.43C361.13 81.78 327.53 -31.65 299.38 -136.77C274.67 -250.23 258.34 -330.65 342.95 -536L325.95 -536C242.03 -333.8 258.25 -257.28 285.05 -144.72C315.05 -40.78 351.37 73.81 377.94 160.35C403.39 252.2 426.81 317.42 418.22 372.93C410.49 425 361.29 470.61 264.41 424.12L264.4 424.12ZM241.7 395.68C78.0602 288.17 76.0402 441.55 148.7 641.68C184.34 742.1 249.7 850.62 295.94 940.68C341.05 1037.68 356.15 1098.14 277.5 1249.88L294.5 1249.88C364.35 1097.61 359.75 1044.16 312.99 948.99C266.86 861.88 193.16 749.37 157.88 650.12C118.1 548.96 105.94 464.28 116.14 413.87C127.87 363.67 163.81 348.44 249.49 405.8C343.01 457.8 390.1 418.48 398.94 366.7C408.24 311.94 387.57 242.42 360.66 147.79C333.55 58 291.69 -58.2501 258.32 -159.81C227.66 -270.36 212.12 -340.48 294.47 -536L277.47 -536C196.11 -344.43 211.05 -277.32 243.71 -168C278.78 -67.7801 323.71 49 351.25 140.38C379.1 236.33 398.42 307.98 388.82 362.31C379.55 413.92 333.61 450 241.71 395.68L241.7 395.68ZM276.46 437.84C189.21 387.54 156.25 398.05 144.78 447.84C135.37 496.84 147.86 583.57 193.61 683.35C233.61 782.24 317.4 888.89 365.47 970.92C415.32 1059.92 414.54 1112.99 350.23 1249.87L367.23 1249.87C429.75 1117.5 432.23 1064.21 381.73 977C333.36 896.42 246.88 791.87 205.29 693.52C157.67 594.58 144.7 507.63 153.75 459.06C164.96 409.4 197.17 400 285.28 447.18C387.07 484.39 438.76 429.71 444.98 377.4C452.46 321 425.35 261.84 401.33 174.21C375.07 92.4 345.21 -19.0701 319.7 -125.79C297.99 -240.27 281.83 -326.75 367.19 -536L350.19 -536C265.32 -329.4 281.65 -247.22 305.44 -133.42C332.87 -27.8101 365.25 85.07 391.55 168.89C416.1 258.34 441.7 320.03 433.75 376.09C426.91 428.29 376.19 479.17 276.47 437.84L276.46 437.84ZM230.84 381.14C64.0402 274.6 65.7202 430.5 134.19 628.14C167.9 728.14 229.41 837.3 273.93 929.74C316.93 1029.05 333.42 1092.95 253.26 1249.84L270.26 1249.84C349.38 1096.54 333.83 1035.1 289.33 937.4C243.55 846.63 179.4 737.85 144.48 637.9C72.9002 438.13 73.9502 283.9 238.48 391.33C329.73 446.53 375.11 411.78 384.68 360.21C394.42 306.07 375.68 233.51 347.41 137.03C319.65 45.03 273.32 -71.97 237.53 -171.55C203.96 -280.28 189.33 -346.19 270.23 -536L253.23 -536C169.5 -363 188.55 -283.73 223.19 -177.63C260.43 -77.4901 309.26 30.84 338.27 126.8C365.56 223.59 386.27 303.97 374.96 356.56C364.09 407.74 321.28 431.13 230.85 381.14L230.84 381.14ZM252.84 410.04C167.07 353.33 131.56 367.84 119.84 418.04C109.71 468.26 121.84 553.34 162.32 654.45C198.19 753.77 273.32 865.6 319.75 952.02C367 1046.38 370.92 1099.66 301.75 1249.88L318.75 1249.88C386.26 1104.38 383.96 1051.38 335.66 958.88C288.51 874 210.26 763.77 173.01 664.42C130.66 563.55 118.55 477.76 128.55 428C140.26 378 174.81 365.06 260.92 419.92C356.99 467.81 405.71 423.67 413.75 371.69C422.54 316.35 399.75 250.1 374.03 157.57C347.35 70.25 309.8 -44.77 278.97 -148.18C251.24 -260.31 235.12 -335.26 318.71 -536L301.71 -536C218.96 -338.85 234.71 -267.35 264.48 -156.3C297.09 -54.16 337.57 61.7 364.54 150.81C391.09 244.81 412.4 313.38 403.26 368.31C394.7 420.15 347.11 460.86 252.86 410L252.84 410.04ZM366.4 506.66C268.4 496.77 239.54 504.29 232.07 553.56C227.16 599.81 249.19 682.28 309.56 769.01C363.05 856.75 461.76 941.59 507.39 1013.01C556.93 1088.17 542.84 1147.33 495.66 1249.79L512.66 1249.79C557.59 1150.58 572.91 1090.34 524.27 1016.38C479.65 945.74 380.77 863.6 326.01 778.04C264.45 693.61 240.74 612.67 244.95 566.61C251.69 517.32 280.42 509.15 379.71 512.29C497.9 498 552.55 408.6 552.65 355.65C554.83 296.76 516.97 260.21 494.83 190.81C468.15 127.81 453.25 33.9599 443.39 -78.6401C437.74 -193.73 430.48 -324.48 512.64 -536L495.64 -536C412.24 -322.47 421.16 -197 428.36 -81.56C439.91 30.68 455.9 126.9 482.55 192.11C504.78 263.76 541.87 302.74 539.03 361.38C538.29 414.24 483.25 499.75 366.42 506.66L366.4 506.66ZM289.14 451.11C200.63 405.33 168.73 414.38 157.55 464C148.66 512.41 161.91 599.44 210.33 698C252.62 796 340.2 899.59 388.65 979.53C439.32 1065.96 436.16 1119.4 374.43 1249.87L391.43 1249.87C451.29 1123.76 456.12 1069.87 405.06 985.18C356.52 906.62 266.5 805.39 222.6 708.18C172.33 610.75 158.33 523.77 166.79 475.76C177.61 426.28 208.86 418.04 298.47 460.13C403.31 490.75 456.24 430.44 461.47 378C468.19 321.09 438.89 265.74 415.47 180.85C389.25 102 362.75 -7.20004 339.96 -115.3C321.21 -230.59 305.55 -323.68 391.43 -536L374.43 -536C288.89 -325.74 304.94 -237.33 325.73 -122.55C350.42 -15.43 379.2 95.38 405.43 176.32C429.26 263.15 457.06 321.16 449.82 377.73C443.95 430.08 391.87 486.43 289.16 451.11L289.14 451.11ZM542.14 517.04C451.2 586.36 416.79 616.04 417.92 666.89C418.62 714.75 460.73 774.4 518.07 836.89C574.72 899.45 645.29 965 674.42 1032.77C706.33 1101.6 693.32 1169.14 665.3 1249.77L682.3 1249.77C707.07 1170.77 720.12 1101.83 691.21 1032.89C664.98 964.76 599.33 900.03 545.15 839.25C490.47 778.42 448.9 721.11 447.58 672.4C445.74 620.88 478.82 586.92 566.58 509.59C673.58 411.79 702.16 310.46 698.49 252.51C694.77 190.63 667.22 154.75 648.32 102.2C628.45 50.2 616.19 -16.9 618.48 -125.53C621.55 -229.56 634.41 -389.41 682.32 -536L665.32 -536C612.99 -381.78 600.55 -217.7 597.71 -111.93C595.83 -1.46003 609.07 66.17 630.22 118.22C650.33 170.8 679.49 205.87 683.12 266.78C686.83 323.41 655.26 425 542.2 517L542.14 517.04ZM616.32 489.34C538.07 579.45 508.4 622.65 511.26 676.11C513.5 727.25 552.26 781.39 599.97 840.37C647.43 899.08 701.77 963.37 722.1 1032.52C744.78 1102.07 732.47 1173.45 713.78 1249.83L730.78 1249.83C746.22 1174.5 757.66 1102 738.61 1031.9C721.61 962 674.56 897.26 632.09 838.69C589.56 779.69 553.65 726.32 551.17 673.22C548 618.22 575.12 569.32 645.84 474.3C726.84 367.3 745.53 271.2 742.5 208.3C739.12 142.83 718.39 100.07 704.38 44.49C689.63 -10.51 680.83 -78.01 683.38 -178.51C686.23 -275.58 697.89 -414.51 730.8 -535.95L713.8 -535.95C675.24 -405.17 662.71 -257.36 659.64 -157.41C657.02 -53.51 667.14 13.46 683.95 66.83C699.95 120.77 723.47 160.31 727.08 224.39C730.47 285.32 708.05 384 616.38 489.34L616.32 489.34ZM577.55 505.76C491.55 586.35 459.14 622.28 461.26 674.17C462.84 723.34 504.04 779.77 557.37 840.01C610.26 900.14 673.51 964.62 698.37 1032.94C725.89 1101.94 712.92 1171.53 689.55 1249.83L706.55 1249.83C726.65 1172.92 739.24 1102.06 715.04 1032.7C693.28 963.82 636.04 899.57 586.76 840.56C537.2 781.33 497.54 726.65 495.48 676.2C492.82 623.28 523.41 582.37 604.32 494.86C700.04 390.81 723.96 291.27 720.55 231.06C716.89 167.54 692.3 129.13 675.55 75.7C657.95 22.83 647.29 -44.08 649.88 -149.3C652.97 -250.29 665.72 -401.39 706.55 -536L689.55 -536C643.67 -392.88 630.76 -235.31 627.64 -132.07C625.22 -24.39 637.01 42.55 656.25 94.69C674.55 147.39 701.32 183.89 705.05 246.24C708.73 304.83 681.46 405.8 577.55 505.76ZM659.11 466.84C592.25 563.36 566.43 614.75 569.67 670.66C572.22 724.78 606.57 778.24 646.57 837.43C686.57 896.21 730.21 961.32 745.65 1031.56C763.06 1101.96 752.11 1174.87 738.08 1249.83L755.08 1249.83C765.9 1175.52 775.4 1101.83 761.92 1030.59C750.07 959.44 715.01 893.07 682.27 833.32C646.21 772.13 620.08 717.85 616.84 661.21C613.71 603.53 633.47 543.49 691.56 446.88C752.38 339.5 766.8 252 764.68 184.64C762.42 116.01 743.61 67.64 734.96 8.28003C723.73 -50.41 717.09 -119.22 719.22 -213.72C721.5 -305.6 730.98 -428.61 755.04 -536L738.04 -536C707.69 -418.66 696.56 -284.14 693.84 -188.5C691.38 -89.63 699.54 -21.82 713.73 34.37C724.02 91.19 747.18 134.1 749.55 201.46C751.86 267 733.38 357.08 659.11 466.84ZM706.13 437.08C601.23 624.78 633.44 700.92 697.55 830.46C727.55 891.4 758.55 958.46 768.8 1030.07C780.52 1101.66 771.8 1175.69 762.32 1249.8L779.32 1249.8C799.35 1102.4 786.42 950.31 736.55 823C690.7 689.36 666.46 596 741.87 411.38C816.21 210 777.39 91.24 767.38 -33.79C753.24 -152.22 751.28 -339.81 779.28 -536L762.28 -536C741.11 -433 732.55 -315.47 730.46 -225.44C728.53 -133.11 734.46 -63.76 744.77 -3.44C752.45 57.11 769.1 108.14 771.21 177.33C773.15 245.4 760.55 331.65 706.13 437.11L706.13 437.08ZM453.67 527.6C350.93 561.27 322.57 576.1 319.82 625.91C319.11 671.91 351.07 743.2 415.02 815.69C473.26 889.39 566.5 959.86 603.89 1027.96C645.56 1097.79 626.32 1163.34 592.64 1249.8L609.55 1249.8C640.74 1165.48 660.31 1098.8 620.68 1029.48C585.33 961.6 494.79 893.1 436.62 822C373.12 752.08 339.68 683.28 339.68 637.15C341.54 587.15 369.82 569.97 472.25 527.7C597.16 459.48 636.35 361.7 633.25 308.1C630.55 249.68 598.55 213.22 575.83 157.77C551.95 102.68 535.83 31.2399 535.29 -82.9201C536.46 -192.63 545.16 -361.33 609.55 -536L592.55 -536C525.13 -356.55 518.08 -188.76 517.72 -78.24C519.32 36.47 536.2 109.5 560.54 166.15C583.77 223.15 616.01 261.03 618.28 318.94C621.1 372 580.21 467.34 453.67 527.63L453.67 527.6ZM429.04 525.3C326.63 547.07 298.19 559.17 294.17 608.76C292.4 654.61 321.96 729.28 385.88 805.49C443.63 882.95 539.79 956.61 579.76 1025.21C624.02 1096 605.55 1160 568.4 1249.83L585.4 1249.83C620.14 1162.39 639.18 1097.32 596.67 1027.22C558.44 958.99 464.17 887.57 406.02 812.73C342.02 739.12 310.79 666.79 311.83 620.9C314.97 571.17 343.35 557.23 446.09 527.19C573.09 470.34 614.63 376.13 612.09 323.32C610.04 265.64 577.8 227.06 554.4 169.38C529.85 112 512.55 38.18 510.5 -76.72C510.5 -187.57 516.76 -354.72 585.36 -536L568.36 -536C492.36 -336.09 493.66 -189.69 494.94 -76.77C499.86 36.18 512.01 121.9 538.25 178.39C559.97 240.75 599.01 270.86 598.95 330.65C600.95 384.24 549.36 484.72 429.04 525.33L429.04 525.3ZM509.99 524C416.24 581.21 380.32 605.57 380.32 655.74C379.98 702.74 421.91 766.07 481.9 831.51C540.98 897.18 617.42 964.51 650.4 1032.02C686.26 1101.02 673.69 1166.39 641.12 1249.82L658.12 1249.82C687.52 1168.36 700.45 1101.46 667.28 1032.61C636.94 964.95 564.42 898.9 506.91 835.46C448.66 772.13 406.54 711.46 406.16 663.87C405.36 613.26 440.27 585.28 532.25 519.55C647.49 430.32 680.24 328.78 676.55 272.67C673 212.15 643.29 177.27 622.72 124.55C601.09 72.33 587.43 4.33996 589.08 -106.82C591.81 -213.26 603.92 -378.7 658.08 -536L641.08 -536C583.04 -372 571.87 -204.31 569.55 -96.56C568.55 15.9 583.07 84.84 605.65 137.74C627.15 191.11 657.97 226.1 661.3 285.81C664.86 340.9 629.55 441.7 509.99 524ZM406.42 520.84C305.06 531.31 276.52 541.33 271.29 590.76C268.44 636.64 295.47 714.31 358.72 794.2C415.44 875.32 513.42 952.5 555.62 1021.83C602.04 1093.83 584.77 1156.15 544.16 1249.83L561.16 1249.83C599.38 1158.83 617.5 1095.41 572.54 1024.28C531.84 955.47 434.99 880.75 377.54 802.16C313.77 724.84 285 649.27 287.1 603.44C291.5 553.92 319.97 542.5 422.1 524.2C542.35 487.15 594.55 387.91 592.82 334.45C593.16 274.8 554.14 244.04 532.34 180.81C505.98 123.56 493.52 36.81 488 -76.19C486.22 -189.52 484.16 -334.13 561.12 -536L544.12 -536C465.05 -330.08 469 -190 472 -76C478.95 37 492.13 126.2 518.67 185.37C540.61 250.71 579.47 283.29 578.51 342.66C579.69 395.91 526.36 492 406.42 520.85L406.42 520.84ZM385.61 514.53C285.8 514.42 257.12 522.93 250.72 572.26C246.83 618.26 271.31 698.56 333.34 781.97C388.61 866.54 487.4 947.48 531.5 1017.77C579.67 1091.23 563.86 1151.94 519.92 1249.77L536.92 1249.77C578.55 1154.87 595.4 1093.04 548.4 1020.62C505.55 951.07 407.18 872.74 350.85 790.55C287.94 709.55 261.71 631.14 264.85 585.24C270.45 535.87 299.02 526.35 399.96 519.14C519.61 493.71 573.34 399.09 572.47 345.94C573.72 286.68 535.05 253.27 513.05 187.02C486.45 127.02 472.89 36.67 465.29 -76.25C461.73 -190.55 457 -328.56 536.88 -536L519.88 -536C438.33 -325.55 444.88 -192.57 449.88 -77.7001C459.03 34.9999 473.48 127.77 500.14 189.87C522.24 258.33 560.42 293.87 558.53 352.87C558.78 405.93 504.33 497 385.61 514.54L385.61 514.53ZM480.61 527.34C378.49 573.34 350.26 591.62 348.79 641.76C349.11 688.01 383.18 755.76 446.39 824.58C504.39 894.52 593.54 962.23 628 1030.08C666.67 1099.25 647 1166.36 616.92 1249.82L633.92 1249.82C661.5 1168.21 681.16 1100.06 644.83 1031.16C612.6 963.33 527.08 897.16 469.7 829.8C407.55 763.4 372.25 698.3 371.28 651.72C371.87 601.29 399.94 580.09 500.87 525.37C622 446.2 658.27 345.9 654.78 291.22C651.58 231.84 620.42 196.68 598.58 142.93C575.64 89.63 560.73 20.16 561.42 -92.8C563.55 -201.06 574.19 -369.33 633.84 -536L616.84 -536C553.77 -363.59 544.43 -194.78 542.95 -85.49C543.1 28.34 558.83 99.12 582.45 153.61C604.96 208.5 636.77 244.51 639.64 303.23C642.92 357.13 604.55 455.78 480.55 527.35L480.61 527.34ZM220.17 366.48C134.76 311.61 93.5502 329 81.8002 379.38C70.0402 430.66 87.8002 514.86 120.05 615.01C152.05 714.18 209.66 823.6 252.22 918.43C292.89 1019.98 310.5 1087.89 229.04 1249.83L246.04 1249.83C326.61 1091.41 309.75 1026.37 267.43 926.36C223.43 833.18 163.18 723.87 130.04 624.41C62.6302 427.41 59.7602 270.83 227.67 376.75C317.34 427.62 359.92 405.11 370.91 354.06C382.25 301.65 361.99 220.7 334.06 123.41C304.92 26.85 254.94 -81.75 216.94 -181.21C181.43 -286.76 162.46 -364.42 245.99 -536L228.99 -536C146.09 -367.71 164.73 -293.71 202.09 -189.48C241.76 -91.5901 294.35 17.52 324.52 114.94C353.87 213.43 373.1 295.7 361.52 347.73C350.27 398.55 308.16 419.13 220.17 366.48ZM26.5502 194.69C-93.1098 220.12 -146.83 314.69 -145.96 367.88C-147.21 427.14 -108.53 460.55 -86.5398 526.8C-59.9298 586.8 -46.3798 677.15 -38.7798 790.08C-35.1898 904.37 -30.4599 1042.39 -110.34 1249.83L-93.3399 1249.83C-11.7898 1039.38 -18.3398 906.39 -23.3398 791.53C-32.4898 678.82 -46.9398 586.06 -73.5998 523.95C-95.6998 455.49 -133.88 419.95 -131.99 360.95C-132.23 307.95 -77.7698 216.95 40.9402 199.33C140.75 199.44 169.44 190.93 175.83 141.6C179.72 95.5999 155.24 15.3 93.2102 -68.11C37.9402 -152.68 -60.8498 -233.63 -104.94 -303.91C-153.12 -377.41 -137.31 -438.13 -93.3698 -536L-110.37 -536C-151.99 -441.11 -168.86 -379.28 -121.85 -306.85C-79.0198 -237.25 19.3302 -158.91 75.6602 -76.7201C138.57 4.27994 164.8 82.69 161.66 128.59C156.07 178 127.5 187.48 26.5502 194.69ZM-45.7098 186.09C-170.63 254.32 -209.81 352.09 -206.71 405.69C-204.02 464.14 -172.04 500.61 -149.29 556.06C-125.41 611.14 -109.29 682.58 -108.75 796.75C-109.92 906.46 -118.61 1075.16 -183.06 1249.83L-166.06 1249.83C-98.6398 1070.38 -91.5899 902.58 -91.2198 792.06C-92.8298 677.36 -109.71 604.33 -134.05 547.67C-157.28 490.67 -189.52 452.79 -191.79 394.89C-194.52 341.89 -153.63 246.48 -27.0998 186.2C75.6502 152.52 104.01 137.7 106.76 87.88C107.47 41.88 75.5202 -29.4101 11.5602 -101.9C-46.7098 -175.6 -139.95 -246.06 -177.34 -314.16C-219.01 -384 -199.77 -449.55 -166.09 -536L-183.09 -536C-214.28 -451.69 -233.85 -385 -194.22 -315.69C-158.81 -247.78 -68.2798 -179.27 -10.1098 -108.2C53.3902 -38.2801 86.8302 30.52 86.8302 76.65C85.0102 126.67 56.7302 143.83 -45.6998 186.09L-45.7098 186.09ZM-105.71 194.27C-220.98 283.51 -253.71 385.04 -250.04 441.16C-246.5 501.67 -216.78 536.56 -196.21 589.28C-174.58 641.49 -160.93 709.48 -162.57 820.64C-165.3 927.08 -177.41 1092.53 -231.57 1249.83L-214.57 1249.83C-156.49 1085.83 -145.32 918.13 -142.99 810.39C-141.99 697.92 -156.51 628.99 -179.09 576.08C-200.59 522.72 -231.4 487.72 -234.74 428.01C-238.31 372.93 -203.04 272.13 -83.4298 189.81C10.3202 132.61 46.2302 108.26 46.2402 58.08C46.5802 11.08 4.65019 -52.2501 -55.3498 -117.69C-114.42 -183.36 -190.86 -250.69 -223.84 -318.21C-259.71 -387.21 -247.14 -452.57 -214.57 -536L-231.57 -536C-260.97 -454.54 -273.9 -387.64 -240.73 -318.8C-210.39 -251.14 -137.87 -185.08 -80.3598 -121.64C-22.1098 -58.3201 20.0002 2.35997 20.3902 49.94C21.2202 100.56 -13.6798 128.54 -105.67 194.27L-105.71 194.27ZM-19.5398 186.64C-146.54 243.49 -188.08 337.7 -185.54 390.51C-183.54 448.19 -151.24 486.76 -127.85 544.45C-103.33 601.84 -86.0898 675.65 -83.9898 790.55C-83.9898 901.4 -90.2499 1068.55 -158.85 1249.83L-141.85 1249.83C-65.8499 1049.92 -67.1498 903.51 -68.4198 790.59C-73.3398 677.65 -85.4998 591.92 -111.74 535.44C-133.45 473.08 -172.5 443 -172.45 383.18C-174.45 329.59 -122.83 229.11 -2.4498 188.5C99.9202 166.73 128.36 154.63 132.38 105C134.15 59.19 104.55 -15.4801 40.6702 -91.6901C-17.0898 -169.16 -113.24 -242.82 -153.22 -311.42C-197.45 -382.19 -179.04 -446.14 -141.85 -536L-158.85 -536C-193.59 -448.57 -212.63 -383.5 -170.12 -313.39C-131.86 -245.16 -37.5798 -173.75 20.5502 -98.9001C84.5502 -25.3001 115.78 47.03 114.74 92.93C111.61 142.66 83.2402 156.59 -19.4998 186.64L-19.5398 186.64ZM198.92 337.08C109.25 286.21 66.6702 308.72 55.6802 359.77C44.3402 412.18 64.6002 493.13 92.5402 590.42C121.67 687 171.65 795.57 209.65 895C245.12 1000.55 264.09 1078.21 180.55 1249.8L197.55 1249.8C280.45 1081.51 261.81 1007.51 224.45 903.28C184.78 805.39 132.2 696.28 102.02 598.86C72.6802 500.37 53.4402 418.1 65.0202 366.07C76.3402 315.25 118.45 294.67 206.44 347.32C291.85 402.18 333.07 384.76 344.81 334.42C356.57 283.14 338.81 198.94 306.56 98.78C274.56 -0.379997 216.95 -109.8 174.39 -204.64C133.65 -306.15 116.04 -374.06 197.55 -536L180.55 -536C99.9802 -377.59 116.84 -312.55 159.16 -212.53C203.12 -119.35 263.41 -10.0001 296.55 89.41C363.95 286.41 366.83 443 198.92 337.08ZM4.5502 189.63C-115.77 226.63 -167.94 325.91 -166.23 379.38C-166.57 439.03 -127.54 469.79 -105.75 533.01C-79.3898 590.27 -66.9298 677.07 -61.4098 790.07C-59.6299 903.34 -57.5699 1047.95 -134.53 1249.83L-117.53 1249.83C-38.4499 1043.91 -42.3898 903.83 -45.3998 789.83C-52.3998 676.83 -65.5298 587.64 -92.0598 528.47C-114.01 463.13 -152.87 430.55 -151.91 371.17C-153.14 317.91 -99.8098 221.84 20.1302 193C121.49 182.54 150.03 172.51 155.27 123.09C158.11 77.21 131.08 -0.470068 67.8302 -80.3501C11.1102 -161.5 -86.8698 -238.69 -129.07 -308C-175.45 -380 -158.22 -442.33 -117.61 -536L-134.61 -536C-172.83 -445 -190.95 -381.58 -145.99 -310.46C-105.29 -241.65 -8.43976 -166.93 49.0102 -88.3401C112.86 -11.0001 141.63 64.56 139.55 110.39C135.13 159.91 106.66 171.33 4.5502 189.63ZM-74.2898 188.46C-195.41 267.63 -231.68 367.92 -228.19 422.6C-224.98 481.99 -193.83 517.15 -171.99 570.89C-149.05 624.19 -134.14 693.67 -134.82 806.62C-136.92 914.89 -147.6 1083.16 -207.25 1249.83L-190.25 1249.83C-127.17 1077.41 -117.83 908.61 -116.35 799.32C-116.5 685.48 -132.23 614.71 -155.85 560.22C-178.36 505.33 -210.17 469.32 -213.04 410.6C-216.29 356.7 -177.91 258.05 -53.9398 186.48C48.1802 140.48 76.4102 122.21 77.8802 72.06C77.5602 25.81 43.4902 -41.9401 -19.7198 -110.77C-77.8198 -180.7 -166.95 -248.41 -201.45 -316.26C-240.08 -385.44 -220.45 -452.54 -190.33 -536L-207.33 -536C-234.91 -454.39 -254.57 -386.25 -218.24 -317.35C-185.97 -249.52 -100.45 -183.39 -43.0598 -116C19.0402 -49.5801 54.3002 15.5199 55.2802 62.0999C54.6802 112.54 26.5502 133.74 -74.3298 188.46L-74.2898 188.46ZM-370.69 347.59C-385.69 510.95 -379.28 650.59 -375.38 794.82C-370.81 938.31 -368.75 1086.33 -376.94 1249.82L-359.94 1249.82C-338.78 1060.75 -338.76 889.57 -350.88 760.82C-359.76 627.59 -388.88 510.71 -331.32 314.99C-266.15 134.26 -295.24 31.5199 -326.94 -104.93C-362.68 -235.58 -380.08 -389.23 -359.94 -535.93L-376.94 -535.93C-387.81 -385.71 -379.05 -236.8 -369.42 -93.6701C-360.35 50.6299 -350.38 189.22 -370.73 347.59L-370.69 347.59ZM-315.25 302.49C-389.63 503.79 -350.81 622.59 -340.79 747.62C-326.66 866.05 -324.69 1053.62 -352.69 1249.83L-335.69 1249.83C-314.48 1146.83 -305.88 1029.3 -303.83 939.26C-301.9 846.94 -307.83 777.59 -318.14 717.26C-325.82 656.72 -342.48 605.69 -344.58 536.5C-346.58 468.42 -333.93 382.16 -279.51 276.7C-174.6 89 -206.8 12.8599 -270.92 -116.68C-300.92 -177.62 -331.92 -244.74 -342.18 -316.3C-353.89 -387.88 -345.18 -461.91 -335.69 -536.02L-352.69 -536.02C-372.76 -388.59 -359.83 -236.51 -309.93 -109.15C-264.13 24.5099 -239.88 117.92 -315.29 302.49L-315.25 302.49ZM-264.98 267C-325.83 374.38 -340.25 461.93 -338.13 529.24C-335.87 597.87 -317.06 646.24 -308.41 705.59C-297.18 764.29 -290.54 833.1 -292.67 927.59C-294.95 1019.47 -304.43 1142.48 -328.49 1249.88L-311.49 1249.88C-281.13 1132.53 -270 998.02 -267.29 902.37C-264.83 803.5 -272.99 735.69 -287.17 679.5C-297.43 622.68 -320.59 579.78 -322.95 512.41C-325.27 446.84 -306.78 356.79 -232.51 247.04C-165.65 150.51 -139.83 99.1199 -143.07 43.2199C-145.63 -10.9101 -179.97 -64.3701 -219.97 -123.56C-259.97 -182.34 -303.62 -247.44 -319.05 -317.68C-336.51 -388.14 -325.55 -461 -311.53 -536L-328.53 -536C-339.35 -461.7 -348.85 -388 -335.37 -316.76C-323.52 -245.62 -288.46 -179.25 -255.72 -119.49C-219.62 -58.3001 -193.45 -4.00005 -190.25 52.62C-187.12 110.3 -206.88 170.34 -264.98 267ZM-177.78 219C-273.48 323 -297.41 422.6 -293.96 482.81C-290.29 546.33 -265.71 584.73 -248.96 638.17C-231.37 691.04 -220.7 757.94 -223.29 863.11C-226.41 964.11 -239.16 1115.26 -280 1249.87L-263 1249.87C-217.12 1106.75 -204.21 949.17 -201.09 845.94C-198.67 738.25 -210.46 671.32 -229.7 619.18C-248 566.47 -274.77 529.98 -278.5 467.63C-282.19 409 -254.91 308 -151 208.07C-64.9998 127.48 -32.5898 91.54 -34.7098 39.65C-36.2898 -9.51001 -77.4898 -65.9401 -130.83 -126.18C-183.71 -186.31 -246.97 -250.79 -271.83 -319.12C-299.39 -388.14 -286.45 -457.71 -263.05 -536L-280.05 -536C-300.15 -459.1 -312.73 -388.24 -288.53 -318.88C-266.77 -249.99 -209.53 -185.74 -160.25 -126.73C-110.7 -67.5001 -71.0298 -12.82 -68.9798 37.63C-66.2798 90.54 -96.8698 131.46 -177.78 219ZM-219.29 239.57C-300.29 346.57 -318.98 442.67 -315.95 505.57C-312.57 571.04 -291.85 613.79 -277.82 669.37C-263.08 724.37 -254.27 791.87 -256.82 892.42C-259.67 989.49 -271.34 1128.42 -304.25 1249.87L-287.25 1249.87C-248.69 1119.09 -236.16 971.27 -233.09 871.32C-230.47 767.42 -240.59 700.45 -257.4 647.09C-273.4 593.09 -296.91 553.61 -300.53 489.53C-303.88 428.53 -281.46 329.85 -189.79 224.53C-111.54 134.43 -81.8598 91.23 -84.7298 37.77C-86.9598 -13.38 -125.73 -67.5101 -173.44 -126.5C-220.9 -185.21 -275.24 -249.5 -295.57 -318.64C-318.25 -388.19 -305.94 -459.57 -287.25 -535.95L-304.25 -535.95C-319.67 -460.62 -331.12 -388.14 -312.07 -318.02C-295.07 -248.13 -248.01 -183.38 -205.54 -124.81C-163 -65.8701 -127.1 -12.4401 -124.61 40.6599C-121.45 95.6599 -148.57 144.5 -219.29 239.53L-219.29 239.57ZM-140.04 204.22C-246.99 302.02 -275.62 403.35 -271.95 461.3C-268.23 523.18 -240.68 559.06 -221.78 611.6C-201.91 663.6 -189.65 730.71 -191.94 839.34C-195.01 943.43 -207.86 1103.28 -255.77 1249.87L-238.77 1249.87C-186.4 1095.64 -174 931.57 -171.12 825.79C-169.24 715.32 -182.48 647.7 -203.63 595.64C-223.74 543.07 -252.9 508 -256.53 447.09C-260.24 390.45 -228.67 288.82 -115.61 196.82C-24.6698 127.51 9.7502 97.8199 8.6102 46.9799C7.92021 -0.880054 -34.1998 -60.5401 -91.5398 -123.02C-148.23 -185.64 -218.8 -251.2 -247.93 -319C-279.84 -387.82 -266.83 -455.37 -238.81 -536L-255.81 -536C-280.59 -457 -293.63 -388.06 -264.72 -319.13C-238.45 -251 -172.8 -186.26 -118.62 -125.48C-63.9398 -64.6601 -22.3698 -7.34005 -21.0498 41.3599C-19.2198 92.8899 -52.2898 126.84 -140.04 204.18L-140.04 204.22ZM165.66 293.94C69.5502 246 20.8702 290.15 12.8302 342.13C4.05022 397.48 26.8302 463.73 52.5502 556.26C79.2302 643.58 116.78 758.59 147.61 862C175.31 974.13 191.43 1049.08 107.83 1249.83L124.83 1249.83C207.57 1052.68 191.83 981.18 162.06 870.12C129.46 767.98 88.9702 652.12 62.0002 563.02C35.4502 469.02 14.1402 400.45 23.2802 345.51C31.8802 293.68 79.4702 252.96 173.72 303.79C259.48 360.5 295 345.99 306.72 295.84C316.85 245.62 304.72 160.53 264.24 59.43C228.38 -39.89 153.24 -151.73 106.81 -238.14C59.5502 -332.51 55.6302 -385.78 124.79 -536L107.79 -536C40.2702 -390.5 42.5802 -337.5 90.8702 -245C138.07 -160.11 216.32 -49.8801 253.55 49.4699C295.87 150.27 307.93 236.06 298.01 285.83C286.32 335.82 251.77 348.77 165.66 293.9L165.66 293.94ZM153.76 280.11C54.9202 237.11 4.64019 286.41 -2.51981 338.57C-10.6898 394.47 14.2202 457.25 39.0202 547.43C65.4202 632.09 98.9702 745.52 127.17 850.64C151.87 964.09 168.17 1044.51 83.5901 1249.87L100.55 1249.87C184.47 1047.67 168.25 971.14 141.46 858.58C111.46 754.64 75.1302 640.06 48.5602 553.51C23.1102 461.67 -0.309829 396.45 8.28017 340.94C16.0402 288.94 65.2802 243.25 162.13 289.75C248.44 343.69 282.61 331.36 294.29 281.42C304.11 231.83 292.01 145.74 248.9 45.1C211.03 -54.2001 131.46 -163.64 84.0502 -247.83C35.3602 -339.56 33.7602 -392.52 100.55 -536L83.5502 -536C18.5502 -397.15 18.4602 -344.19 68.0002 -254.34C115.91 -171.65 198.44 -64.09 237.8 35C282.75 135 295.08 221.59 285.55 270.74C274 320.53 240.69 331.55 153.76 280.07L153.76 280.11ZM141.27 266.69C39.4702 229.48 -12.2098 284.16 -18.4298 336.47C-25.9098 392.89 1.20017 452.02 25.2202 539.65C51.4802 621.47 81.3402 732.94 106.85 839.65C128.56 954.17 144.72 1040.65 59.3602 1249.9L76.3602 1249.9C161.23 1043.3 144.9 961.11 121.1 847.31C93.7202 741.71 61.3402 628.82 35.0102 545C10.4602 455.56 -15.1398 393.86 -7.1898 337.8C-0.319794 285.61 50.4002 234.73 150.12 276.06C237.37 326.36 270.33 315.85 281.8 266.06C291.21 217.06 278.72 130.33 232.97 30.54C192.97 -68.34 109.18 -175 61.1102 -257.03C11.2602 -346.03 12.0302 -399.09 76.3502 -535.97L59.3502 -535.97C-3.16979 -403.6 -5.64979 -350.32 44.8502 -263.1C93.2202 -182.55 179.7 -78 221.29 20.34C268.91 119.29 281.89 206.24 272.83 254.81C261.55 304.43 229.39 313.88 141.27 266.65L141.27 266.69ZM188.12 322.53C96.8702 267.34 51.4802 302.09 41.9202 353.65C32.1802 407.8 50.9202 480.35 79.1902 576.84C106.95 668.84 153.28 785.84 189.07 885.41C222.55 994.11 237.22 1060 156.31 1249.83L173.31 1249.83C257.09 1076.83 238.03 997.55 203.39 891.46C166.12 791.32 117.29 683 88.2802 587C60.9902 490.22 40.2802 409.84 51.5902 357.25C62.4602 306.07 105.27 282.68 195.7 332.67C362.49 439.21 360.82 283.31 292.35 85.67C258.64 -14.33 197.14 -123.49 152.61 -215.93C109.61 -315.24 93.1202 -379.14 173.27 -536.03L156.27 -536.03C77.1502 -382.74 92.7002 -321.3 137.2 -223.6C183 -132.8 247.15 -24 282.07 75.92C353.65 275.7 352.55 429.91 188.12 322.49L188.12 322.53ZM177.07 308.11C83.5602 256.11 36.4802 295.44 27.6302 347.22C18.3202 401.98 39.0002 471.5 65.9102 566.13C93.0402 655.92 134.86 772.13 168.23 873.68C198.88 984.23 214.43 1054.34 132.07 1249.87L149.07 1249.87C230.43 1058.29 215.49 991.19 182.83 881.87C147.76 781.66 102.83 664.87 75.2902 573.5C47.4402 477.5 28.1202 405.89 37.7202 351.57C47.0702 299.94 92.9702 263.86 184.87 318.17C348.51 425.69 350.52 272.31 277.87 72.17C242.23 -28.25 176.87 -136.77 130.63 -226.83C85.5202 -323.83 70.4202 -384.28 149.06 -536.02L132.06 -536.02C62.2202 -383.74 66.8102 -330.29 113.55 -235.11C159.71 -148 233.41 -35.49 268.69 63.76C308.47 164.92 320.63 249.6 310.43 300C298.7 350.21 262.75 365.44 177.07 308.07L177.07 308.11ZM114.07 241.52C6.17022 218.31 -47.7698 284.44 -51.9298 336.98C-57.8198 394.34 -26.4198 445.83 -3.44981 527.81C22.8402 603.54 46.3202 710.09 66.4001 819.44C82.2501 935.23 96.9102 1035.44 10.9502 1249.87L27.9502 1249.87C113.86 1036.8 98.5002 941.62 80.6402 826.16C58.6402 717.67 33.1502 609.27 6.92018 531.36C-16.4498 447.28 -46.4498 393.07 -39.9798 336C-35.0798 283.53 18.1902 221.48 123.95 250C214.06 290.37 245.06 282.43 255.72 233C263.98 185.13 249.61 98.18 198.53 1.26999C153.92 -95.53 62.9402 -195.67 14.4202 -273.62C-36.7398 -357.56 -31.2097 -411.73 27.8303 -536L10.8303 -536C-46.2597 -415.91 -53.4197 -361.08 -2.16975 -278.87C46.2302 -202.22 139.3 -104.56 185.54 -8.87002C238.42 86.66 253.79 173.27 246.01 220.78C235.86 270.13 205.4 277.54 114.03 241.48L114.07 241.52ZM128.07 253.79C23.2202 223.17 -29.6998 283.48 -34.9298 335.92C-41.6398 392.83 -12.3498 448.18 11.0702 533.07C37.3002 611.9 63.8002 721.07 86.5902 829.16C105.34 944.46 120.95 1037.54 35.1202 1249.87L52.0702 1249.87C137.62 1039.59 121.58 951.19 100.77 836.42C76.0901 729.29 47.3102 618.48 21.0802 537.55C-2.74978 450.72 -30.5498 392.71 -23.3098 336.13C-17.3998 283.79 34.6902 227.44 137.39 262.76C225.92 308.53 257.82 299.49 268.95 249.9C277.84 201.49 264.59 114.45 216.17 15.9C173.88 -82.15 86.2902 -185.7 37.8502 -265.63C-12.8298 -352.09 -9.65975 -405.54 52.0703 -536L35.0703 -536C-24.7898 -409.9 -29.6098 -356 21.4402 -271.31C69.9802 -192.75 160 -91.52 203.9 5.68998C254.17 103.12 268.17 190.09 259.71 238.11C248.93 287.6 217.68 295.83 128.07 253.75L128.07 253.79ZM65.5502 209.8C-50.6098 213.63 -105.73 297.43 -106.8 350.25C-109.94 408.77 -73.2698 448.81 -50.9998 521.42C-24.3598 587.57 -7.8098 684.83 4.4502 796.9C12.3702 912.54 21.9602 1035.65 -61.8999 1249.83L-44.8999 1249.83C39.8202 1034.59 28.7802 916.93 19.1002 801.04C5.10017 689.48 -12.7598 589.91 -39.3198 521.52C-61.6898 446.66 -97.3198 404.03 -93.5698 345.75C-91.7398 293 -36.5898 213.27 77.8702 216.36C173.87 235.19 203.04 228.2 211.49 178.94C217.35 132.38 197.63 48.1499 139.25 -41.6301C87.8002 -132.21 -10.0098 -221 -56.8598 -293.82C-107.36 -370.91 -95.1997 -428.59 -44.8597 -536L-61.8597 -536C-109.99 -432.09 -123.53 -373.39 -73.6498 -297.66C-27.5898 -225.79 70.9502 -139.73 123.84 -51.1001C183.64 36.5799 204.92 119.58 199.73 165.9C191.95 215.14 162.98 222.46 65.5502 209.8ZM82.8902 219.35C-30.7898 213.35 -85.8798 291.35 -87.9898 344.08C-92.0198 402.25 -56.8698 446 -34.4498 521.81C-7.90982 591.15 10.5502 691.7 25.3902 803.05C35.7902 919.05 47.3902 1034.33 -37.6098 1249.83L-20.6098 1249.83C64.9302 1034.16 52.0902 924.24 39.8502 808.23C23.2602 697.51 3.1902 594.77 -23.2498 523.17C-45.8198 445.17 -79.7798 398.7 -75.0598 340.81C-72.2698 288.15 -17.4498 214.33 94.3302 226.68C188.23 253.57 217.9 246.68 227.21 197.38C233.95 150.44 216.3 64.8799 160.21 -27.6201C110.97 -120.67 14.8002 -213.37 -32.9298 -287.75C-84.0398 -366.95 -73.9698 -423.29 -20.6498 -536L-37.6498 -536C-88.8798 -427 -100.43 -369.77 -49.6998 -292.06C-2.53978 -218.76 94.8702 -128.76 145.67 -37.3901C203.38 53.2299 222.43 137.87 216.3 184.52C207.61 233.76 178.28 240.69 82.9402 219.35L82.8902 219.35ZM99.0302 230C-11.8498 215 -66.5298 287 -69.6898 339.66C-74.6898 397.43 -41.3198 445.04 -18.6898 523.98C7.71019 596.54 28.5302 700.2 45.9402 810.64C59.0002 926.64 72.3202 1034.27 -13.3898 1249.83L3.55015 1249.83C89.4702 1034.92 75.1702 932.54 60.1902 816.67C40.9302 706.98 18.3102 601.28 -7.9998 526.49C-30.8698 445.4 -62.8998 395.07 -57.2898 337.58C-53.4198 285.01 0.780179 217.12 109.59 237.94C201.55 272 231.83 264.78 241.87 215.43C249.42 168.05 233.57 81.59 179.87 -13.3C132.87 -108.43 39.0502 -204.94 -9.22981 -281.03C-60.4498 -362.51 -52.6498 -417.66 3.55023 -536L-13.4498 -536C-67.6598 -421.63 -77.0798 -365.68 -25.8798 -285.79C22.1402 -210.9 117.7 -117 166.26 -23.2801C221.65 69.9999 238.7 155.81 231.71 202.86C222.16 252.15 192.34 259.11 99.0302 230ZM46.8602 201.5C-71.3498 215.82 -126.03 305.23 -126.14 358.18C-128.33 417.06 -90.4598 453.61 -68.3198 523.01C-41.6398 586.01 -26.7398 679.87 -16.8798 792.47C-11.2398 907.56 -3.95983 1038.31 -86.1298 1249.83L-69.1298 1249.83C14.2802 1036.3 5.36015 910.83 -1.83984 795.38C-13.3498 683.14 -29.3498 586.92 -55.9998 521.72C-78.2298 450.06 -115.33 411.08 -112.45 352.45C-111.7 299.59 -56.6598 214.07 60.1702 207.17C158.17 217.05 187.03 209.54 194.5 160.27C199.41 114.02 177.38 31.5499 117 -55.1901C63.5202 -142.93 -35.1898 -227.77 -80.8298 -299.19C-130.45 -374.39 -116.31 -433.54 -69.1298 -536L-86.1298 -536C-131.06 -436.79 -146.38 -376.55 -97.7398 -302.59C-53.0798 -232 45.8002 -149.81 100.55 -64.2601C162.11 20.1799 185.82 101.12 181.61 147.18C174.88 196.47 146.15 204.64 46.8602 201.5Z" fill="#FFF9F7"/>
</svg>
