<svg width="1003" height="1057" viewBox="0 0 1003 1057" fill="none" xmlns="http://www.w3.org/2000/svg">
<path d="M197.444 6.37265C115.136 -7.79527 33.0773 0.402266 -38.4816 43.7198C-40.3571 49.4372 -42.446 56.2753 -43 61.2615C-43.8723 69.1121 -51.6425 79.5179 -55 86.3727C-64.2847 105.329 -72.7214 125.866 -84.3333 143.484C-99.3408 166.254 -111.665 189.923 -120.333 215.928C-131.48 249.369 -149.225 279.852 -160 313.373C-190.669 408.786 -195 506.834 -195 606.373C-195 676.298 -193.643 746.321 -187.667 816.039C-184.591 851.925 -176.806 887.535 -170.889 923.039C-166.736 947.959 -161.394 972.61 -154.111 996.817C-134.102 1063.32 -91.3512 1124.54 -29.5556 1159.15C13.4967 1183.26 64.4438 1191.93 111.889 1203.26C136.852 1209.23 162.19 1214.47 186.556 1222.59C210.263 1230.5 233.737 1239.33 258.111 1245.04C317.68 1258.99 377.632 1266.54 438.778 1264.82C471.765 1263.89 503.882 1260.27 536.444 1255.26C561.426 1251.42 586.955 1248.86 611.222 1241.48C644.721 1231.3 677.43 1222.16 711.444 1213.93C744.873 1205.84 772.935 1188.43 802.556 1171.71C824.443 1159.35 845.702 1146.87 863.222 1128.59C878.393 1112.77 892.965 1096.32 907.889 1080.26C933.316 1052.9 947.258 1021.86 964.889 989.706C979.883 962.363 988.203 933.752 992.556 902.817C997.033 870.993 1003 838.983 1003 806.817C1003 720.218 967.054 634.879 921.667 562.595C890.171 512.435 855.573 463.989 818.444 417.817C774.651 363.356 726.108 312.778 683.667 257.262C652.405 216.369 624.979 172.817 589.667 135.15C560.392 103.924 527.526 84.6655 488 68.4838C395.266 30.5187 295.133 23.1879 197.444 6.37265Z" fill="#FCE6E6" fill-opacity="0.7"/>
</svg>
