<svg xmlns="http://www.w3.org/2000/svg" viewBox="0 0 1785.83 1190.55"><defs><style>.cls-1{fill:#fff9f7;}</style></defs><title>Asset 1</title><g id="Layer_2" data-name="Layer 2"><g id="Layer_1-2" data-name="Layer 1"><path class="cls-1" d="M1011.89,491.64c-34.07,91.93-26.84,122.19,22.51,132.23,47.38,7.55,133.84-8.3,228.73-62,95.13-46.94,191.64-140.81,267.73-189.09,81.47-51.3,136.62-43.46,255,12.78v-17C1671.46,314.42,1615.5,305,1535.62,356.2c-74.89,47.94-168.79,143.5-262.51,192.06C1179.85,603.64,1094,620.7,1047,613.71c-49.29-9.55-56.25-39.38-27.11-132.68,15-110.88-57.06-165.56-109.69-168.72-57.78-5-105.38,28.37-184.32,51-72.56,26.4-176.23,47.23-286.66,64.63C323.18,441,215.56,454.33,0,368.63v17c214.91,85.92,317.28,71.62,433.16,56.64C542.85,423,648.55,400.36,723.34,374.05c81.09-22.87,131.42-54.91,188.91-49.29C964.82,328.63,1032.71,382.83,1011.89,491.64ZM999.83,506c-40.36,90.11-32.42,121.11,17,131.77,47.88,8.26,134.82-6.11,231.73-57.19,96.8-44.61,196.94-135.59,274.9-184.11,83.9-51.16,138.07-45.63,262.34,13.41v-17c-120.1-57.09-174.93-64.25-257.13-12.95-76.66,48.4-174.31,141.47-270,187.71-95.54,52.88-182.14,68.25-229.65,60.48C979.7,617.86,972.29,587.4,1008.34,496c23.22-107.91-42.91-161.85-95.45-166C855.53,324.1,804,355.5,722.06,378.47c-75.74,26.29-182.29,49.77-291.64,69.86-115.78,15.85-216,30.5-430.42-55.45v17c213.07,85.91,308.24,70.54,423.71,52.68,108.48-22,216.88-47.49,294.8-73.72,84-23.27,138.24-53.24,195.29-46.78C966.27,346.93,1028.32,400.19,999.83,506Zm23.32-29.62c-26.89,93.9-20,123.57,29.3,132.88,46.94,6.74,132.5-10.91,225-67,93-49.25,185.74-145.42,260.12-193.14,79.2-51.1,135.53-41,248.25,12.3v-17c-109-51.23-166.23-62.78-243.94-12.05-73.3,47.16-163.31,144.57-254.67,195.36-90.63,57.72-175.26,76.77-221.91,70.64-49.25-8.73-56.17-38.06-34.84-133.4,6-113.68-72-168.77-124.73-170.88C847.58,290,803.83,325.13,728,347.55c-69.35,26.54-169.9,45.05-281.24,59.84-116,10.4-231.28,22-446.78-63v17c215.66,85.54,325.58,72.69,441.6,60.46,110.71-16.59,213.46-36.66,285-63.1,78-22.57,124.48-56.53,182.37-51.81C961.68,309.73,1035.5,364.58,1023.15,476.33ZM887.77,599c-53.29,87.33-33.5,129.22,17.2,140.64,51.84,11.6,134.58-7.27,233.45-37.28,98-30.46,207.24-84.21,304.42-124.59,103.63-38.16,176.14-56.61,343,26v-17c-163.43-81.83-232.66-63.93-334.86-24-95.56,41.92-205,98.34-303.59,129.9-99.9,31.6-183.75,49.63-235.21,37.91-50.49-11.67-68.59-53.09-14.11-139,53.29-87.33,33.5-129.22-17.2-140.64-51.84-11.6-134.58,7.27-233.45,37.28-98,30.46-207.24,84.22-304.43,124.59C239.36,651,166.85,669.4,0,586.8v17c163.43,81.83,232.66,63.93,334.86,24,95.56-41.92,205-98.34,303.59-129.9,99.9-31.6,183.74-49.63,235.21-37.91C924.14,471.62,942.25,513.05,887.77,599Zm145.69-139.12c-18.81,96-11.83,125.17,37.43,133.62,46.56,5.85,130.79-13.87,220.57-72.25C1382,469.79,1470.82,372,1543.65,325.14c77.08-50.5,134.77-38.34,242.18,12v-17c-103.91-48.13-162.61-61.67-238.34-11.79-71.87,46.06-157.93,144.6-246.57,197.49-87.67,59.8-170.67,81.09-217,75.88C1034.68,574,1027.37,545,1040,447.6c-3.83-116.17-87.63-171.28-140.45-172.35-58.53-3.14-98.57,33.53-171.17,55.8C662.26,357.69,565,374.24,452.93,386.5,337.28,394.43,214.18,404,0,320.15v17c215.23,84.72,332.9,73.68,448.78,64,111.57-14,211.13-31.86,279.53-58.42,74.85-22.38,117.49-58,175.76-54.25C956.83,290.26,1036.56,345.41,1033.46,459.87Zm-73.34,84.27c-53.94,86.32-41.61,120.48,8.33,132.16,49.59,9.82,135.68-2.28,236.32-45.39,99.3-37.87,208.73-117.44,292.93-164.85,91.69-48.7,144.64-50.3,288.13,16.49v-17C1647,400.52,1594,400.46,1504.17,450c-82.69,47.91-190.25,130.45-289.31,169.8-100.07,45-186.62,57.28-235.77,47.74-49.79-11.54-60.81-44.85-9.33-131.78,43-98.84-6.31-149.12-58.46-156.28-55.9-8.17-118.68,16.75-208.87,41.54-84.65,26.4-198.08,60-303.2,88.15C285.77,533.88,205.35,550.21,0,465.6v17c202.2,83.92,278.72,67.7,391.28,40.9,103.94-30,218.53-66.32,305.07-92.89,91.85-25.45,157.07-48.87,212.58-40.28C961,398.06,1006.61,447.26,960.12,544.14Zm-28.44,22.7c-107.51,163.64,45.87,165.66,246,93,100.42-35.64,208.94-101,299-147.24,97-45.11,157.46-60.21,309.2,18.44v-17c-152.27-69.85-205.72-65.25-300.89-18.49-87.11,46.13-199.62,119.83-298.87,155.11-101.16,39.78-185.84,51.94-236.25,41.74-50.2-11.73-65.43-47.67-8.07-133.35,52-93.52,12.68-140.61-39.1-149.45-54.76-9.3-124.28,11.37-218.91,38.28C594,475,477.75,516.86,376.19,550.23,265.64,580.89,195.52,596.43,0,514.08v17c191.57,81.36,258.68,66.42,368,33.76,100.22-35.07,217-80,308.38-107.54,95.95-27.85,167.6-47.17,221.93-37.57C949.92,429,986,474.94,931.68,566.84Zm42.16-34.76c-50.3,87.25-39.79,120.21,10,131.68,49,9.41,135.73-3.08,235.51-48.83,98.89-40,205.54-123.79,287.57-171.86,89-49.85,142.07-49.07,278.95,15.24v-17c-132.37-62.52-185.66-65-272.87-14.5-80.58,48.37-185.13,134.85-283.48,176.44-98.94,47.62-185.89,60.59-234.46,51.54C945.4,643.59,936,611.38,983.18,523.27c37.21-101.79-17.47-153.48-69.78-159.7C857,356.09,797.84,383.2,710.21,407.22c-81.81,26.26-193.28,56.12-300,81.63C295.73,510.56,209.25,526.72,0,441.36v17c206.6,84.87,288.78,68.54,402.58,44.75C508.19,475.68,621.07,443.3,704.89,417c89.45-24.55,151.14-50.15,207.2-42.2C964.29,381.64,1015.17,432.36,973.84,532.08Zm-56.7,45.62c-106.54,166.8,49.36,165.12,247,96.65,100-33.71,209.16-95.22,301.6-139.74,99.31-43,163.21-59.49,320.1,20.67v-17c-153.3-79.12-214.74-63.57-312.44-19.07C1382.63,565,1273.85,629.15,1173.9,664.07c-199.77,71.58-354,70.53-246.57-94,55.2-91.25,20.45-136.63-31.12-146.2-54.14-9.74-126.7,9-223.18,37.27-92,27.76-209,74.09-308.58,109.88C255.72,604.59,189.81,619.22,0,538.32v17C173,639.05,252.27,620,358.37,585.36c100.14-37.24,208.47-86.07,304.43-115.08,96.79-27.29,177.17-48,229.76-36.69C943.74,444.46,967.13,487.27,917.14,577.7Zm28.9-22c-56.71,85.77-42.2,121.28,8,133,50.22,10.13,135.3-2,236.41-42.48,99.32-35.87,211.15-111,297.57-157.43,94.36-47.25,147.64-51.17,297.86,18v-17c-145.5-67.51-198.5-65.21-291-16.91-84.88,47.15-195.11,125.4-294.46,162.65C1099.55,677.89,1013.76,690,964,680c-50-11.71-62.94-46.26-8.08-132.37,47.89-96.07,3.75-144.79-48.23-152.83-55.34-8.79-121.59,14-214.12,39.72-87.32,26.68-202.34,64.23-305.75,95.06C275.69,557.31,200.74,573.43,0,489.84v17c197.15,82.75,268.65,67,379.7,37.23,102.14-32.61,218-73.09,307.11-100.06,94-26.55,162.57-47.86,217.5-38.72C956.15,413.85,996.86,461.44,946,555.69Zm96.62-113.56c-9.89,98-2.37,126.86,46.9,134.33,46.25,4.91,128.72-17.12,215.45-77.49,87.74-53.49,172.58-152.2,244-197.83,75.16-49.54,134.32-35.45,236.78,11.73v-17c-99.21-44.93-159.45-60.25-233.41-11.61-70.64,44.62-152.78,143.5-238.34,198.26-84.43,61.56-165.37,85.27-211.43,81.06-49.29-6.74-57.46-35.47-54.32-134.76C1034,310.65,944.6,256,891.65,255.9c-58.89-2.18-95.44,35.68-164.84,57.82-63,26.68-156.85,41.58-269.45,51.44C342.27,370.81,211.52,378.07,0,295.91v17c213.53,83.4,339,74.48,454.44,67.28C566.68,368.64,662.9,352.65,728.11,326c71.65-22.23,110.63-59.32,169.27-56.48C950.24,270.26,1035.75,325.3,1042.66,442.13Zm-55.55,77.26C941.33,607.92,950.38,639.82,1000,651c48.41,8.89,135.44-4.36,234-52.78,98-42.29,201.59-129.87,281.53-178.32,86.43-50.67,139.87-47.51,270.34,14.22v-17c-126.11-59.86-180-64.69-264.69-13.63-78.56,48.54-179.79,138.56-277,182.46-97.43,50.27-184.41,64.27-232.42,55.81-49.48-10.82-57.72-42.07-15.63-131.68,30.62-104.84-29.69-157.77-82.13-163-56.91-6.72-112.26,22.58-197.15,46C638,419.3,528.8,445.8,420.7,468.59,305.41,487.34,212.32,503,0,417.12v17c210.26,85.54,298.67,69.49,413.45,48.7,107.12-24.69,217.93-53.47,298.87-79.7,86.83-23.83,144.84-51.63,201.41-44.39C966.08,364.6,1022.43,416.68,987.11,519.39Zm65.93-253c69.32,90.94,99,125.35,149.85,124.22,47.86-.7,107.51-42.81,170-100.15,62.56-56.65,128.11-127.22,195.88-156.35,68.83-31.91,136.37-18.9,217,9.12v-17c-79-24.77-147.94-37.82-216.88-8.91-68.13,26.23-132.86,91.88-193.64,146.06-60.83,54.68-118.14,96.25-166.85,97.57-51.52,1.84-85.48-31.24-162.81-119-97.8-107-199.13-135.58-257.08-131.91-61.88,3.72-97.76,31.27-150.31,50.17-52,19.87-119.1,32.13-227.73,29.84C306.44,187,146.59,174.14,0,126.23v17C154.22,195.56,318.3,208,424.07,210.84c110.47,1.88,178.1-11.36,230.15-32.51,52.58-20.11,87.65-49.27,148.56-52.9C859.41,121.72,961,153.29,1053,266.35Zm-27.7-74.18c90.11,78.25,133.31,107.92,186.77,105.06,51.14-2.24,105.28-41,164.26-88.71,58.71-47.46,123-101.8,192.15-122.13,69.55-22.68,140.93-10.37,217.31,8.32v-17C1710.5,62.33,1638,50.89,1567.9,69.94c-69.9,17-134.64,64.05-193.21,106.52-59,42.53-112.37,78.44-165.47,80.92-55,3.17-103.9-23.95-198.92-94.67-107-81-203.1-99.69-266-96.66-65.47,3.38-108.23,24.11-163.81,38.12-55,14.75-122.5,23.55-223,21-97.07-2.85-236-14.51-357.44-47.42v17c130.78,38.56,278.59,51.09,378.54,54.16,103.9,2.62,170.87-7.5,224.24-24.31,53.94-16,93.48-39.52,157.56-43.13C821.32,78.08,920,100.5,1025.34,192.17ZM1041.76,231c80.59,86,116.52,118.41,168.41,116.29,49.17-1.58,105.6-42.78,165.84-96.11,60.13-52.89,124.61-116.14,192.93-141,69-27.52,138.59-14.55,216.89,8.82V102c-76.91-20.1-147.77-32.69-217.13-8.49-68.88,21.76-133.13,79-192.14,128.28-59.23,49.56-113.91,89.22-164.36,91.28-52.92,2.66-93.83-27.93-181.34-108.84C926.81,108.51,827.27,84.59,767.06,88c-63.52,3.66-101.93,28.25-155.36,45-52.87,17.6-119.78,28.26-225,25.67C285.71,155.58,134.61,142.83,0,102v17c143.12,45.88,300.69,58.79,403.93,61.91,107.68,2.42,174.62-9.37,226.76-28.61,52.7-18.3,89.2-45.07,151.55-48.8C840.83,99.82,941.8,127.09,1041.76,231Zm-38.92-81.56c96.52,66.86,147.91,92.68,203.82,89.44,54.12-2.55,107.58-36.9,166.77-76.9,58.78-40,123.89-83.64,194.13-99.08,70.4-17.41,143.31-6.46,218.27,7.57v-17c-74.31-10.82-148-20.32-219.24-6.84-71.15,11.85-137.52,46.91-197.27,79.65-61.19,36.06-115.47,62.19-172.11,65.43-57.68,3.13-117.72-16.63-214.33-74.72C875.5,56.17,788,41.75,720.64,43.87c-68.63,2.26-117,21.07-176.36,29.72-58.69,11.23-127.5,17.87-222,15.74C230.4,87.05,107.39,77.57,0,53.51v17c117.34,30.35,251.86,41.48,347.5,44.2,98.87,2.46,166.68-5.7,222.87-19.89C627.19,84.53,670.1,61.37,737.46,59,803,56.69,893.08,75.17,1002.84,149.44Zm-68-98.82c180.73,65.16,283.47,36.07,419.91,4.37,130.66-35.74,284.31-53.14,431.05-33V5c-150.23-10.87-299.14-2.1-442.26,7.52-144.37,9.11-283,19.07-441.34-1.28C738.88-3.72,599.2,2.68,455,6.58,311.51,11.14,163.49,13.21,0,5V22c189.07,21.16,360.24,21.18,489,9.06C622.27,22.17,739.15-6.91,934.87,50.62Zm38.24,51.8c187.7,104.9,263.84,72.69,393.38,8.58,60.94-30,128-61,199.61-71.25,71.59-11.72,145.62-3,219.73,6.48v-17C1638.4,9.2,1486.31,22.13,1359,72c-133.64,45.85-227,70.09-411.62-5.32C746-7.66,627.24,31.16,502.21,41.17,383.78,55.31,196.19,57.27,0,29.27v17C103,67.44,220.53,76,310.56,78.09c92.33,1.93,161.68-4,222-14.31,60.55-7.68,111.58-24.33,180.77-26.44C781.4,35.4,867.65,48,973.11,102.42Zm90.52,252.46c33.67,102.74,48.5,131.1,98.31,133.85,46,.71,117.29-31.25,189.78-95.2,73.7-58.24,144.17-151.48,212.27-188.87,69.83-41.67,135.38-22.43,221.84,11.25V199c-84.32-31.19-151-50.76-220.32-11.13C1497.6,223.22,1429.1,313.76,1358,371.93c-69.92,63.5-138.72,96.94-184.85,96.94-50-1.86-67.18-30.14-109.45-132.57-68.22-124.91-166-164.1-219.6-161C785.68,178,749.22,210,693.77,232.72c-55.09,23.88-126.53,40-240.69,40.54C343.37,272.09,174.67,263.39,0,199v17c179.45,67.42,347.24,74.47,457.76,74.83,114.71-1.6,187.74-18.48,244.39-42.82,57-23.23,94.88-55.47,152.79-57.74C908,187.45,1003.34,228.34,1063.63,354.88Zm-2.3,24.63c21.77,102.41,33.87,130.85,83.46,134.87,45.85,1.77,120.52-27.79,196.73-91.71,77.46-57.75,151.12-153.91,219.72-193.88C1632,184.53,1696,203,1785.83,240.15v-17c-87.44-34.74-152.51-53.78-222.61-11.27-68.23,38.23-139.65,132.5-214.49,190.65-73.61,64-145.94,95.23-191.83,94.19-49.73-3.14-63.67-31.52-93.71-134.26-56.85-127-151.06-168.54-203.87-166-57.68,2.05-96.26,34.29-153.94,57.69C648,278.7,574.18,296,459.28,298.05c-110.85,0-278-6.26-459.28-74.86v17c199.91,76,346.31,74.7,459.23,73.42,112.95-4.92,198.67-17.07,255.16-43.31,62.36-21.72,92.47-60.76,152.26-60.7C920.24,207.6,1020.72,259.19,1061.33,379.51ZM1060,298.56c57.21,93.75,81.57,129.67,131.74,129.67,47,.34,110.33-41.59,175.77-101.58,65.67-59.08,133-135.52,200.51-168.5,69-35.86,134.37-23.29,217.8,9.28v-17c-81.46-29.4-148.36-42.33-217.21-9.16-67.66,30.34-133.71,102.86-197.15,160.37-63.33,58.25-124,100.37-171.59,100.75-50.61.8-78.59-34.11-144.32-126.09C966.32,161.06,864.78,128.31,808.67,132c-60.52,3.55-95.4,33.26-148.12,53.83-52.22,21.63-120.21,35.29-231.37,33.64C322.74,216.74,157.3,204.63,0,150.47v17C164,225.51,331.69,236.68,439.44,239c112.46,1,181.4-13.52,234.3-36.1,53.37-21.5,88.36-52.32,148.07-55.65C876.9,143.69,977.7,179,1060,298.56Zm-3.16,103.57c10.47,101.36,20.49,129.9,69.92,135.13,45.88,2.85,123.55-24.18,203.44-87.43,81.12-56.72,158.3-154.7,227.63-196.9,72-46.42,134.32-29.15,228,11.46v-17c-91-38.22-154.42-56.34-225.55-11.38-68.81,40.7-143.53,137.55-222.12,195-77.32,63.77-152.89,92.54-198.72,90.44-49.52-4.4-60.94-32.87-79.24-135C1023.15,266.2,923.91,214,870.45,215.73c-59.65-.34-90.41,38.68-153.64,60.48-57.25,26.36-144,38.82-257,44.34C346.48,322.33,201.87,324.39,0,247.43v17c205.92,79.07,346,75.12,460,72.12,113-6.95,202.2-20.13,261.37-46.67,65.34-21.94,97.92-60.8,157.29-59.84C931.91,228.86,1028,282.19,1056.85,402.13Zm-6.31,20.81c-.11,99.81,8.4,128.49,57.73,134.89,46,3.89,126.3-20.59,209.71-82.62,84.57-55.27,165.51-154.06,235.8-198.16,73.46-48.17,134.17-32.36,232,11.58v-17c-94.9-41.63-156.73-58.48-229.15-11.48C1487.07,303,1408.74,401.37,1326.55,457.7c-81,62.91-159.41,89.14-205.31,86-49.37-5.6-58.89-34.17-66.1-135.11-25.43-119.65-120.05-173.38-173.2-172.51-59.26-1.25-92.67,37.42-158.92,59.42-60,26.6-150.35,40.16-263.27,47.76C345.45,346.82,207.44,351.55,0,271.67v17c210.45,81.55,343.43,75,458.3,70,112.7-9.15,205.47-23.6,267.57-50.26,68.46-22.1,104-60.28,163-58.39C941.93,249.77,1033,304.22,1050.54,422.94Zm12.81-95c46,102.12,64.28,130.35,114.42,131.82,46.25-.32,114-34.39,182.82-97.6,69.94-58,137.65-147.15,205.5-181.61,69.17-38.67,136.28-19,219.74,11.08v-17c-81.61-27.58-149.76-47.24-218.66-10.91-67.83,32.23-134,117.75-201.36,175.13C1299.4,401,1234.3,436.3,1187.72,437.27c-50.43-.59-71.63-28.66-126.35-129.59C982.2,186.55,881.9,150.28,827.22,153.77c-59.38,3.2-94.54,34.36-148.29,56.2-53.3,22.94-122.77,37.85-235.73,37.16C334.94,245,166.67,234.36,0,174.71v17c172.41,63.07,341.22,72.41,450.51,73.89,113.83-.15,184.61-15.88,239.1-39.5,54.89-22.51,90.9-54.32,149.62-57.19C893.13,165.63,991.78,204,1063.35,328ZM902.48,588.38C847.61,673.79,865,715,915.38,726.75c51.28,11.76,135.48-6,235.63-38.25,99.17-32,208.59-89.61,303.42-132.17,101.55-40.67,169.46-58.28,331.4,23.18v-17c-158.42-80.57-223.46-63.71-323.47-21.39-93.18,44-202.49,104.25-301.95,137.39-197,67.41-353.58,70.28-247.66-97.63,50.87-89.67,28.36-132.25-22.69-143.24-52.41-11.34-133.36,8.92-230.65,36.85-96.56,29.14-205.16,79.12-304.62,117.12C249.24,627.12,171.58,646.09,0,562.56v17c168.29,82.9,242.29,64.26,346.52,26.9,97.89-39.67,207-92.26,304.42-122.43,98.49-29.35,180.76-48.58,232.79-37C934.55,458.28,955.13,500.39,902.48,588.38ZM730.69,782c25.43,119.66,120,173.38,173.19,172.51,59.26,1.25,92.67-37.43,158.92-59.42,60-26.61,150.35-40.16,263.28-47.76,114.29-3.59,252.31-8.32,459.75,71.56v-17c-210.45-81.55-343.44-75-458.3-70-112.71,9.15-205.47,23.6-267.58,50.26-68.46,22.1-104,60.28-163,58.39-53,.24-144-54.22-161.62-172.93.11-99.81-8.4-128.5-57.73-134.89-46-3.89-126.3,20.59-209.71,82.62-84.57,55.27-165.52,154.06-235.8,198.15C158.59,961.67,97.87,945.86,0,901.92v17c94.89,41.62,156.72,58.49,229.15,11.48,69.6-42.83,147.94-141.18,230.13-197.51,81-62.91,159.41-89.14,205.31-86C714,652.48,723.48,681.05,730.69,782Zm-8.6,72.26c68.23,124.92,166,164.1,219.6,161,58.45-2.69,94.92-34.67,150.37-57.42,55.08-23.88,126.52-40,240.69-40.54,109.71,1.17,278.41,9.86,453.08,74.31v-17c-179.45-67.42-347.25-74.47-457.77-74.84-114.7,1.61-187.73,18.49-244.39,42.83-57,23.23-94.88,55.47-152.78,57.74-53,2.73-148.41-38.16-208.69-164.69-33.68-102.75-48.5-131.11-98.32-133.86-46-.71-117.29,31.24-189.78,95.2C360.4,855.26,289.94,948.5,221.84,985.89,152,1027.56,86.45,1008.32,0,974.64v17c84.31,31.19,151,50.76,220.31,11.13,67.91-35.41,136.42-125.94,207.49-184.11,69.92-63.5,138.72-96.94,184.85-96.94C662.67,723.54,679.83,751.82,722.09,854.25Zm8.18,60c89.24,115.27,190.77,148,246.89,144.33,60.51-3.54,95.4-33.26,148.12-53.83,52.21-21.63,120.2-35.28,231.36-33.64,106.44,2.73,271.89,14.84,429.19,69v-17c-164-58.08-331.7-69.25-439.44-71.58-112.47-1-181.4,13.52-234.31,36.1-53.36,21.5-88.36,52.31-148.07,55.65-55.08,3.57-155.88-31.7-238.2-151.31-57.2-93.75-81.55-129.66-131.73-129.67-47-.34-110.33,41.59-175.77,101.59-65.67,59.07-133,135.51-200.52,168.49-69,35.87-134.36,23.3-217.79-9.27v17c81.46,29.4,148.36,42.33,217.2,9.16,67.66-30.34,133.72-102.86,197.16-160.37,63.32-58.25,124-100.36,171.58-100.75C636.56,787.33,664.54,822.23,730.27,914.22Zm-7.63-86.17c56.85,127,151.06,168.54,203.87,166,57.68-2,96.25-34.3,153.94-57.69,57.39-24.52,131.2-41.76,246.1-43.86,110.85,0,278,6.26,459.28,74.86v-17c-199.91-76-346.32-74.7-459.24-73.43-112.94,4.92-198.67,17.08-255.15,43.32C1009.08,942,979,981.05,919.18,981c-53.59,2-154.07-49.62-194.68-170C702.73,708.63,690.63,680.19,641,676.17,595.19,674.4,520.52,704,444.31,767.88c-77.47,57.76-151.13,153.91-219.73,193.89C153.81,1006,89.86,987.59,0,950.4v17c87.43,34.74,152.5,53.78,222.61,11.27C290.84,940.41,362.25,846.13,437.1,788c73.6-64,145.93-95.23,191.83-94.19C678.66,696.94,692.59,725.31,722.64,828.05ZM873.08,609.63c-50.87,89.67-28.36,132.25,22.69,143.24,52.41,11.34,133.36-8.92,230.65-36.86C1223,686.88,1331.57,636.9,1431,598.9c105.55-35.47,183.21-54.44,354.8,29.1V611c-168.29-82.9-242.29-64.26-346.52-26.9-97.89,39.67-207,92.25-304.42,122.43-98.49,29.34-180.76,48.58-232.79,37-50.82-11.32-71.4-53.43-18.75-141.42,54.86-85.41,37.44-126.63-12.9-138.37-51.28-11.76-135.48,6-235.64,38.25-99.16,32-208.58,89.61-303.42,132.17C229.85,674.9,161.94,692.51,0,611v17c158.41,80.57,223.45,63.71,323.47,21.39C416.65,605.43,526,545.14,625.41,512,822.41,444.6,979,441.72,873.08,609.63ZM725.63,804c37,120.32,136.28,172.49,189.75,170.78,59.65.34,90.41-38.69,153.63-60.48,57.26-26.36,144.06-38.82,257.06-44.34,113.27-1.78,257.88-3.84,459.76,73.12v-17c-205.92-79.08-346-75.14-460-72.13-113,7-202.19,20.13-261.36,46.66-65.34,21.95-97.92,60.81-157.3,59.85C853.91,961.69,757.84,908.36,729,788.42c-10.46-101.36-20.49-129.9-69.91-135.14-45.88-2.84-123.56,24.19-203.44,87.44C374.5,797.44,297.31,895.42,228,937.62,156,984,93.67,966.77,0,926.16v17c91,38.22,154.42,56.34,225.54,11.38,68.81-40.7,143.53-137.55,222.12-195C525,695.69,600.56,666.92,646.39,669,695.91,673.42,707.33,701.89,725.63,804Zm-1.17,78.84c79.17,121.12,179.46,157.39,234.14,153.9,59.39-3.21,94.55-34.36,148.29-56.2,53.3-22.94,122.78-37.85,235.73-37.17,108.27,2.1,276.54,12.78,443.21,72.43v-17c-172.42-63.08-341.22-72.42-450.51-73.9-113.84.15-184.61,15.88-239.1,39.5-54.89,22.51-90.9,54.32-149.62,57.19-53.9,3.25-152.55-35.13-224.12-159.1-46-102.12-64.27-130.35-114.42-131.82-46.25.32-114,34.39-182.83,97.6C355.3,886.37,287.59,975.5,219.74,1010,150.56,1048.63,83.46,1029,0,998.88v17c81.61,27.58,149.75,47.24,218.65,10.91C286.48,994.52,352.61,909,420,851.61c66.42-62.1,131.52-97.36,178.1-98.34C648.54,753.87,669.74,782,724.46,882.88Zm159.13,296.4c163.36,15,303,8.59,447.23,4.69,143.49-4.57,291.51-6.63,455,1.56v-17c-189.07-21.16-360.25-21.18-489-9.06-133.23,8.88-250.11,38-445.83-19.56-180.73-65.17-283.47-36.08-419.92-4.38-130.65,35.74-284.3,53.14-431,33v17c150.22,10.87,299.13,2.11,442.26-7.52C586.63,1168.9,725.22,1158.93,883.59,1179.28Zm-45.1-55.44c201.3,74.38,320.1,35.56,445.13,25.54,118.43-14.13,306-16.1,502.21,11.9v-17c-103-21.21-220.53-29.81-310.57-31.86-92.32-1.93-161.67,4-222,14.31-60.54,7.68-111.57,24.34-180.76,26.44-68.08,2-154.34-10.65-259.8-65.07-187.7-104.91-263.84-72.71-393.38-8.59-60.94,30-128.06,61-199.62,71.26-71.58,11.71-145.61,3-219.72-6.49v17c147.43,20.07,299.51,7.14,426.87-42.76C560.51,1072.68,653.92,1048.43,838.49,1123.84ZM803,1073.53c107.38,60.85,194.93,75.27,262.24,73.15,68.63-2.26,117-21.07,176.35-29.72,58.7-11.23,127.51-17.87,222-15.74,91.88,2.28,214.89,11.76,322.29,35.82v-17c-117.35-30.36-251.86-41.49-347.51-44.2-98.87-2.46-166.68,5.7-222.87,19.88-56.82,10.26-99.72,33.42-167.09,35.78-65.57,2.32-155.62-16.17-265.37-90.44-96.53-66.86-147.92-92.68-203.82-89.44-54.13,2.56-107.59,36.9-166.78,76.9-58.78,40-123.88,83.65-194.12,99.08C147.86,1145.06,75,1134.1,0,1120.08v17c74.3,10.82,148,20.32,219.24,6.84,71.14-11.85,137.51-46.91,197.27-79.65C477.7,1028.17,532,1002,588.62,998.8,646.3,995.67,706.34,1015.43,803,1073.53Zm-48-87.2c104,95.7,203.6,119.63,263.81,116.18,63.52-3.67,101.92-28.25,155.36-45,52.87-17.59,119.77-28.26,224.94-25.67,101,3.12,252.15,15.87,386.76,56.71v-17c-143.12-45.88-300.7-58.79-403.93-61.91-107.69-2.42-174.62,9.37-226.76,28.61-52.71,18.3-89.2,45.07-151.55,48.8C945,1090.74,844,1063.46,744.07,959.55c-80.59-86-116.53-118.41-168.42-116.29-49.16,1.58-105.59,42.78-165.83,96.12-60.13,52.88-124.61,116.14-192.94,141C147.86,1107.94,78.29,1095,0,1071.6v17c76.9,20.1,147.76,32.68,217.12,8.48,68.89-21.76,133.14-79,192.15-128.28,59.23-49.55,113.91-89.22,164.36-91.27C626.54,874.83,667.46,905.42,755,986.33Zm20.57,41.51c107,81,203.1,99.69,266,96.66,65.47-3.38,108.22-24.1,163.8-38.13,55-14.74,122.5-23.55,223.05-21,97.07,2.85,236,14.52,357.45,47.43v-17c-130.78-38.56-278.6-51.09-378.55-54.16-103.9-2.62-170.87,7.5-224.23,24.31-54,16-93.48,39.51-157.56,43.13-61,3.35-159.68-19.07-265-110.74-90.1-78.25-133.3-107.93-186.76-105.06-51.15,2.23-105.28,41-164.27,88.71-58.71,47.46-123,101.8-192.14,122.13-69.55,22.68-140.93,10.37-217.31-8.32v17c75.33,15.42,147.81,26.87,217.93,7.82,69.89-17,134.64-64.06,193.21-106.53,58.94-42.54,112.37-78.44,165.47-80.93C631.66,930,680.5,957.12,775.53,1027.84Zm-35.35-79.25c97.8,106.95,199.13,135.58,257.08,131.91,61.88-3.72,97.76-31.27,150.3-50.17,52-19.87,119.11-32.13,227.74-29.84,104.09,3.07,263.94,15.92,410.53,63.83v-17c-154.23-52.37-318.3-64.77-424.08-67.65-110.47-1.88-178.09,11.36-230.15,32.51-52.57,20.11-87.64,49.27-148.55,52.9-56.64,3.71-158.27-27.86-250.27-140.92-69.31-90.94-99-125.36-149.84-124.22-47.86.69-107.52,42.81-170,100.15C350.36,956.78,284.8,1027.35,217,1056.48c-68.82,31.91-136.37,18.9-217-9.12v17c79,24.78,147.94,37.82,216.87,8.91C285,1047,349.74,981.35,410.52,927.17c60.82-54.68,118.14-96.25,166.84-97.57C628.89,827.77,662.84,860.84,740.18,948.59Zm89.72-305.7C782,739,826.15,787.68,878.13,795.72c55.35,8.78,121.6-14,214.13-39.72,87.32-26.68,202.33-64.23,305.74-95.06,112.13-27.7,187.08-43.82,387.83,39.78v-17c-197.15-82.74-268.65-67-379.71-37.23-102.14,32.6-218,73.09-307.1,100.06-94,26.55-162.57,47.86-217.51,38.72-51.83-8.6-92.55-56.19-41.72-150.44,56.71-85.76,42.2-121.28-7.95-133-50.22-10.13-135.31,2-236.41,42.48-99.32,35.86-211.16,111-297.57,157.43C203.49,749,150.22,752.92,0,683.76v17c145.5,67.52,198.5,65.21,291,16.92C375.89,670.48,486.12,592.23,585.47,555c100.8-42.32,186.59-54.38,236.36-44.46C871.82,522.23,884.77,556.78,829.9,642.89Zm-13.83,11.9c-43,98.84,6.3,149.12,58.46,156.28,55.9,8.17,118.68-16.74,208.86-41.54,84.66-26.4,198.09-59.95,303.21-88.15,113.45-24.7,193.87-41,399.23,43.58V708c-202.2-83.92-278.73-67.7-391.29-40.91-103.94,30-218.52,66.33-305.07,92.9-91.84,25.45-157.06,48.87-212.57,40.28-52-7.76-97.69-57-51.19-153.85,53.94-86.31,41.61-120.48-8.33-132.16-49.59-9.82-135.68,2.28-236.32,45.39-99.3,37.87-208.74,117.44-292.93,164.85C196.44,773.19,143.48,774.79,0,708v17C138.85,790,191.81,790.09,281.66,740.55,364.35,692.64,471.91,610.11,571,570.75,671,525.8,757.59,513.47,806.74,523,856.53,534.55,867.55,567.86,816.07,654.79Zm-13.42,12.49c-37.21,101.8,17.47,153.48,69.78,159.7,56.42,7.48,115.55-19.63,203.18-43.65,81.82-26.26,193.29-56.12,300-81.63,114.52-21.71,201-37.87,410.25,47.49v-17c-206.6-84.87-288.79-68.54-402.59-44.74-105.6,27.38-218.49,59.76-302.31,86.09-89.44,24.55-151.14,50.15-207.2,42.2-52.19-6.87-103.07-57.59-61.74-157.31,50.3-87.25,39.79-120.21-10-131.68-49-9.41-135.73,3.08-235.52,48.83-98.88,40-205.54,123.79-287.57,171.86-89,49.85-142.06,49.08-278.94-15.24v17c132.37,62.52,185.65,65,272.87,14.5C353.45,715.33,458,628.85,556.34,587.26c98.95-47.62,185.9-60.6,234.47-51.54C840.43,547,849.88,579.16,802.65,667.28Zm55.84-46.85c-55.19,91.25-20.44,136.64,31.12,146.2,54.15,9.74,126.7-9,223.19-37.27,92-27.76,209-74.09,308.57-109.88C1530.11,586,1596,571.33,1785.83,652.24v-17c-173-83.78-252.28-64.72-358.37-30.08C1327.32,642.43,1219,691.26,1123,720.27c-96.78,27.29-177.16,48-229.75,36.69-51.18-10.87-74.57-53.68-24.58-144.11,106.54-166.79-49.36-165.12-247-96.65-100,33.71-209.16,95.21-301.6,139.74-99.31,43-163.21,59.49-320.1-20.66v17c153.29,79.12,214.73,63.57,312.43,19.07C403.2,625.55,512,561.4,611.92,526.48,811.7,454.9,965.91,456,858.49,620.43Zm-14.42,11.05c-52,93.51-12.67,140.59,39.11,149.44,54.76,9.31,124.28-11.37,218.91-38.28,89.79-27.13,206-68.95,307.55-102.32,110.55-30.65,180.66-46.2,376.19,36.16v-17c-191.58-81.36-258.68-66.42-368-33.76-100.21,35.07-217,80-308.37,107.54-96,27.85-167.61,47.17-221.93,37.57-51.63-9.35-87.71-55.25-33.4-147.15,107.52-163.64-45.86-165.65-246-93-100.42,35.64-208.94,101-299,147.24-97,45.11-157.45,60.21-309.19-18.43v17C152.26,746.33,205.71,741.74,300.89,695,388,648.84,500.51,575.14,599.76,539.86,700.92,500.08,785.6,487.92,836,498.12,886.21,509.85,901.44,545.8,844.07,631.48Zm-66.59,63c-23.21,107.9,42.92,161.84,95.46,166,57.36,5.89,108.85-25.51,190.83-48.48,75.73-26.29,182.28-49.77,291.63-69.85,115.79-15.85,216-30.51,430.43,55.45v-17c-213.07-85.91-308.25-70.55-423.71-52.69-108.49,22-216.89,47.49-294.8,73.72C983.28,825,929.07,855,872,848.53c-52.47-4.9-114.52-58.17-86-163.93,40.37-90.11,32.43-121.11-17-131.77-47.87-8.26-134.82,6.11-231.73,57.19-96.8,44.61-196.94,135.59-274.89,184.11C178.44,845.29,124.27,839.76,0,780.72v17c120.09,57.09,174.92,64.25,257.13,13,76.65-48.4,174.31-141.47,270-187.71,95.53-52.88,182.14-68.25,229.65-60.47C806.13,572.69,813.54,603.15,777.48,694.52Zm12.27-14c-30.62,104.85,29.69,157.77,82.13,163,56.91,6.71,112.26-22.58,197.15-46,78.83-26.23,188-52.73,296.09-75.52,115.3-18.75,208.38-34.36,420.71,51.47V756.48c-210.28-85.55-298.68-69.51-413.45-48.7-107.13,24.68-217.94,53.46-298.87,79.69-86.83,23.83-144.84,51.63-201.42,44.39-52.34-5.91-108.69-58-73.37-160.7,45.77-88.53,36.73-120.43-12.86-131.56-48.41-8.89-135.45,4.36-234,52.78-98.05,42.29-201.6,129.88-281.53,178.32C183.91,821.38,130.46,818.21,0,756.48v17c126.1,59.86,180,64.68,264.69,13.63,78.56-48.54,179.79-138.56,277-182.46,97.43-50.27,184.4-64.27,232.42-55.81C823.6,559.62,831.83,590.87,789.75,680.48ZM745.8,743c3.83,116.16,87.63,171.28,140.45,172.35,58.52,3.14,98.56-33.53,171.17-55.8,66.15-26.64,163.41-43.19,275.48-55.45,115.64-7.92,238.75-17.51,452.93,66.35v-17c-215.24-84.72-332.9-73.68-448.79-64-111.56,14-211.13,31.86-279.52,58.42-74.86,22.37-117.49,58-175.77,54.25C829,900.29,749.27,845.14,752.36,730.68c18.83-96,11.84-125.17-37.42-133.62-46.56-5.86-130.79,13.86-220.57,72.24C403.79,720.75,315,818.56,242.18,865.41c-77.09,50.5-134.77,38.34-242.18-12v17c103.91,48.13,162.61,61.67,238.34,11.79,71.87-46.06,157.93-144.6,246.56-197.49,87.68-59.8,170.68-81.08,217-75.89C751.14,616.6,758.46,645.57,745.8,743Zm9.55-17.34c-6,113.68,72,168.77,124.73,170.88C938.25,900.57,982,865.42,1057.81,843c69.34-26.54,169.89-45,281.24-59.84,116-10.4,231.28-22,446.78,63v-17c-215.67-85.54-325.59-72.7-441.6-60.46-110.72,16.59-213.46,36.66-285.06,63.1-78,22.57-124.47,56.53-182.36,51.81C824.15,880.82,750.33,826,762.68,714.22c26.89-93.9,20-123.57-29.3-132.88-46.94-6.74-132.5,10.91-225,67-93.05,49.24-185.75,145.41-260.13,193.14C169.05,892.59,112.71,882.52,0,829.2v17c109,51.23,166.23,62.78,243.94,12.05,73.3-47.16,163.3-144.57,254.67-195.37,90.62-57.71,175.26-76.76,221.91-70.63C769.76,600.94,776.69,630.27,755.35,725.61ZM766,709.52C751,820.4,823,875.08,875.66,878.24c57.77,5,105.38-28.37,184.32-51,72.56-26.4,176.22-47.22,286.66-64.63,116-13.06,223.63-26.38,439.19,59.33V805c-214.91-85.92-317.29-71.62-433.16-56.64-109.69,19.26-215.39,41.88-290.18,68.19-81.09,22.87-131.42,54.9-188.91,49.29-52.57-3.87-120.46-58.07-99.64-166.88C808,607,800.78,576.72,751.43,566.68c-47.38-7.55-133.84,8.3-228.73,62-95.13,47-191.64,140.82-267.73,189.1C173.49,869,118.34,861.2,0,805v17c114.37,54.21,170.32,63.63,250.21,12.43C325.1,786.41,419,690.85,512.72,642.29,606,586.9,691.81,569.85,738.86,576.84,788.15,586.39,795.11,616.21,766,709.52ZM737.5,761.69c14.32,118.21,103.73,172.89,156.68,173,58.88,2.19,95.43-35.68,164.83-57.82,63-26.68,156.86-41.58,269.46-51.44,115.09-5.64,245.84-12.92,457.36,69.25v-17c-213.53-83.41-339-74.49-454.45-67.29-112.24,11.51-208.46,27.51-273.66,54.16C986.06,886.78,947.08,923.88,888.45,921c-52.86-.75-138.38-55.79-145.28-172.62,9.88-98,2.37-126.86-46.9-134.33-46.25-4.91-128.72,17.12-215.46,77.5-87.74,53.48-172.58,152.19-244,197.83C161.61,939,102.46,924.86,0,877.68v17c99.21,44.93,159.45,60.25,233.41,11.61C304,861.63,386.19,762.75,471.74,708c84.44-61.56,165.38-85.27,211.44-81.06C732.47,633.67,740.64,662.4,737.5,761.69Z"/></g></g></svg>