<svg width="596" height="842" viewBox="0 0 596 842" fill="none" xmlns="http://www.w3.org/2000/svg">
<path d="M383.4 420.6C383.1 422.7 382.8 424.4 382.7 426.2C382.6 428.1 382.5 430 380.8 431.3C380.6 431.4 380.6 431.9 380.5 432.3C380.8 430.6 379.5 430.9 378.6 430.7C377.6 432 376.3 432.9 374.6 433.3C372.5 433.8 371.3 436.7 372.3 438.8C372.5 439.3 373 439.9 373.4 439.9C374.9 440.2 375.5 441.3 376 442.4C376.8 443.8 377.8 444.5 379.3 444.8C380.2 444.9 381.3 445.3 381.9 445.9C383.9 447.9 386.3 447.9 388.8 448C390.6 448.1 392.5 447.9 394.3 448.1C396.3 448.3 398.2 448.7 400 449.7C401.3 450.3 402.9 450.7 404.4 450.6C413.9 450 423.4 451.1 432.9 451.6C435.2 451.7 437 452.5 438.2 454.6C439.1 456.1 440.5 457.5 441.8 458.7C444.6 461.2 445.8 464.1 444.7 467.9C443.8 470.8 443.1 473.7 442.4 476.7C442.1 478 441.9 479.4 442 480.7C442.3 484.5 441.3 488.1 439.4 491.2C437.7 494 436.7 497.1 435.4 500.1C435.2 500.7 434.9 501.3 434.6 501.8C433.7 503.2 433.3 504.6 433.8 506.3C434.3 508.2 433.1 509.7 431.8 510.9C430.8 511.9 429.9 512.7 430 514.3C430 515.1 429.2 516.1 428.6 516.6C426.3 518.4 423.9 520.2 421.5 521.8C420.2 522.6 418.6 523.2 417.1 523.5C412.1 524.5 407 524.7 401.9 524C401.1 523.9 400.4 523.9 399.2 523.8C399.8 524.4 400.2 524.7 400.8 525.3C395.4 525.5 390.4 525.8 385.3 526C385.3 525.9 385.2 525.7 385.2 525.6C385.7 525.3 386.2 525 386.6 524.7C386.5 524.4 386.5 524.2 386.4 524.1C384.2 521.7 384.3 520.9 386.7 518.9C387.6 518.1 388.7 517.6 389.5 516.7C390.2 516 391 515.1 391.2 514.2C391.5 512.8 392.2 511.9 393.2 511.1C394.2 510.2 395.1 509.2 395.3 507.5C394.5 507.3 393.8 506.9 393.1 506.8C392.3 506.7 391.5 506.7 390.6 506.6C390.6 506 390.3 505.3 390.6 505C391.5 503.7 391.6 502.2 392.2 500.9C393.4 498.1 394.9 495.4 398.5 494.7C402.4 494 404.7 491.4 405.8 487.6C406.5 485.2 406.8 482.8 406.7 480.3C406.6 479 406.8 477.7 406.8 476.5C406.8 474.9 406.9 473.3 406.7 471.7C406.3 469.1 407.3 466.8 408 464.5C408.9 461.9 409.1 459.4 407.7 456.9C407.2 456.1 407.1 455.1 406.8 454.2C406.2 452.8 405.2 451.7 403.6 451.7C401.2 451.6 398.8 451.8 396.4 451.8C396.3 451.8 396.2 451.8 396.2 451.9C391 453.6 390.1 455.7 393.2 460C394.5 461.8 394.1 463.5 393.7 465.2C393 468.8 392 472.3 391.4 475.9C391.1 477.7 391.3 479.5 391.2 481.4C391.1 483 391.1 484.6 390.8 486.1C390.4 488.5 389.4 490.9 391.3 493.2C391.6 493.6 391.2 494.7 390.8 495.3C390.6 495.6 389.5 495.7 389.2 495.5C385.6 493.1 381.5 492.1 377.5 490.6C376.8 490.3 376.1 490 375.5 489.7C375.5 488 376.5 487.8 377.5 487.5C380.8 486.4 381.7 485 381.2 481.6C380.8 479.2 380.3 476.9 380.9 474.5C380.9 474.4 380.9 474.3 380.9 474.3C379.7 470.3 381.4 466.6 382.4 462.9C382.8 461.3 382.9 460 382.2 458.5C382.1 458.3 382.1 458 382 457.8C380.8 455.5 380.5 453.2 382.6 450.8C381.6 450.6 381 450.4 380.4 450.3C376.1 450.2 372.2 451.3 368.4 453.1C366.1 454.2 365.7 455.3 366.5 457.8C366.7 458.4 366.9 459.1 367.3 459.5C368.8 461 368.8 463 368.2 464.7C366.8 468.7 366.6 472.9 366.8 477C367 480.4 367.7 483.8 370.4 486.4C370.6 486.6 370.8 486.9 371 487.2C370.3 488.6 369.2 488.3 368.1 488C364.6 487 361.2 486 357.8 484.9C356.6 484.5 355.4 484.1 354.2 483.7C352.9 483.2 352 482.4 351.7 481.1C351.3 479.7 350 478.5 350.8 476.8C355.3 476.1 356.1 474.4 353.6 471.2C355.6 466.7 357.6 462.1 356.6 457C356.3 455.2 357.1 453.8 358.7 453.1C361.6 451.9 364.5 450.8 367.4 449.8C369.5 449.1 370.2 448.8 371.6 447.5C371 446.3 369.8 446.4 368.9 446.5C366.4 446.8 363.7 446.9 361.4 447.9C357.1 449.7 352.5 450.5 348 451.6C345.7 452.2 343.3 452.7 341.1 453.5C338.5 454.4 338 455.3 338.5 458C338.8 459.6 339.1 461.1 339.7 462.6C340.6 464.7 342.3 466 344.6 466.4C345.8 466.6 347.1 466.8 348.3 467C348.7 469.4 346.9 470 345.1 470.8C345.9 471.4 346.5 471.7 346.9 472.2C347.4 472.7 347.7 473.3 348.1 473.8C343.8 478 338.6 478 333.7 473.8C334.1 472.9 334.6 472 335 471.1C333.4 469.9 331.5 468.8 329.9 467.3C327.8 465.4 326.9 462.9 327.5 460C327.6 459.3 327.7 458.6 327.8 457.9C327.9 455.9 328.9 454.5 330.8 454C334.6 453 338.4 452.1 342.2 451.3C346.7 450.3 351.3 449.6 355.6 447.7C356.2 447.4 356.8 447.3 357.3 446.9C358.2 446.4 358.8 445.6 358.1 444.5C357.5 443.5 357.8 442.6 358.5 441.9C359.2 441 360 440.1 360.8 439.2C363.2 436.6 363.2 435.4 360.8 432.9C360.1 432.2 359.3 431.4 358.6 430.7C357.9 430.1 357.3 429.5 357.6 428.5C357.7 428.2 357.6 427.8 357.5 427.6C355.9 426.3 355 424.2 352.7 423.4C346.8 421.4 341 419.1 335.1 417.1C332.6 416.2 330.7 414.5 328.7 413C327.4 412 326 411 324.7 410.1C323.8 409.5 322.8 409 321.8 408.4C318.9 406.7 316.9 404.3 316 401C315.4 398.7 313.9 396.9 311.8 395.6C308.4 393.4 305 391.1 301.7 388.7C299.3 387 296.9 385.4 293.7 385.4C292.5 385.4 291.2 385.1 290.9 383.5C292.8 383 294.6 382.6 296.5 382C299.9 381 302.3 378.8 304.2 375.9C305.2 374.4 305.3 374.3 307.1 374.7C308.1 374.9 309.1 375.2 310.4 375.6C309.9 377.7 309.6 379.8 309.1 381.8C308.6 383.9 308.9 384.6 311 385C314 385.5 317 386 320 386.3C322 386.5 323.4 387.4 324.7 389.3C321.1 389.4 317.9 388.1 314.3 388C314.9 388.5 315.3 388.8 315.7 389.1C319 391.4 322.2 393.7 325.6 395.9C327.1 396.9 328.2 398.2 328.8 399.9C329.2 401 329.8 402.1 330.3 403.2C331.1 404.9 332.1 406.3 333.8 407.3C335.7 408.4 337.6 409.6 339.4 410.9C340.4 411.6 341.5 412.4 342.1 413.5C343.1 415.2 344.5 416.1 346.4 416.7C350.5 418.1 354.5 419.6 358.6 421C359 421.1 359.5 421.6 359.5 421.9C359.6 423.1 360.4 423.3 361.3 423.5C362.2 423.7 363.2 423.8 364.1 424C364.9 424.2 365.8 424.3 366.3 424.8C368.5 426.9 371.1 426.2 373.6 425.7C374.6 425.5 376 425 375.3 423.2C375.1 422.8 375.7 422.1 376 421.4C375.6 421.2 375.3 421 375 420.8C371.9 419.7 368.9 418.5 365.8 417.4C363.3 416.5 361.5 414.8 359.6 413C358.7 412.2 357.8 411.5 356.8 410.8C354.8 409.5 352.7 408.4 350.8 406.9C349.1 405.7 347.9 403.9 347.3 401.9C346.2 398.3 343.7 396.1 340.6 394.2C336.3 391.5 332.1 388.5 328 385.4C325.3 383.4 325.8 383.1 326.5 380.8C327.7 377.3 327.1 376.1 324.1 374C323.6 373.6 323.2 373 322.7 372.5C322.3 371.9 321.9 371.4 321.5 370.8C321.2 370.4 320.7 369.9 320.6 369.4C320.4 367.3 318.9 366.4 317.3 365.6C315.4 364.6 313.4 363.9 311.4 362.9C309.3 361.9 307.4 360.6 306.7 358.1C306.6 357.6 306.2 357.1 305.8 356.7C303.7 354.2 303.9 351.5 305.1 348.6C305.9 346.7 307.2 344.7 305.9 342.5C305.3 341.5 304.5 340.6 303.5 340C300.8 338 297.6 337.3 294.4 336.6C287.8 335.3 281.2 334.3 274.7 332.8C268.5 331.4 262.3 329.7 256.2 327.8C249.5 325.7 244.1 321.5 240 315.8C238.1 313.2 235.6 311 233.4 308.7C232.5 307.8 232.1 306.8 232.2 305.5C232.3 303.3 233.1 301.2 232.6 298.9C232.3 297.4 232.9 295.6 233.6 294.1C234.8 291.6 234.5 289.1 234.5 286.6C234.5 284.8 234.3 283.1 234.3 281.3C234.3 277.1 233.2 275.7 229.4 274.1C223.6 271.6 217.5 269.9 211.3 268.7C200.8 266.7 190.4 264.2 180.1 261.2C177 260.3 173.7 260 170.5 259.4C169.5 259.2 168.6 259.1 167.6 258.4C169.1 258.1 170.7 257.9 172.2 257.6C172.3 257.6 172.4 257.6 172.4 257.6C174.6 257.3 176.9 256.5 179 256.8C181.1 257 183 258.4 185 259C194.9 262.1 204.9 264.8 215.1 267C220.4 268.2 225.7 269.3 231 270.5C232.2 270.8 233.6 270.8 233.9 272.5C234 272.9 235 273.3 235.7 273.5C237.2 274 238.7 274.5 240.2 275C241.2 275.4 241.8 276.1 242.2 277.2C242.8 279.1 243.4 280.9 243.7 282.9C244 284.9 245 286.8 245.6 288.8C246.3 291.3 246.7 293.7 245.5 296.2C245.2 296.8 245.5 297.7 245.4 298.4C245.3 300 245.5 301.7 245.1 303.3C244.5 305.7 244.9 307.4 246.9 309.2C249.1 311 250.8 313.3 252.5 315.6C256.2 320.6 260.8 324.4 266.5 326.8C275.4 330.6 284.7 332.6 294.2 334.3C300.3 335.4 306.5 336.2 312.5 338.1C314.6 338.8 316.4 339.8 318 341.3C319.3 342.5 319.9 343.9 319.1 345.6C318.7 346.5 318.5 347.4 318.1 348.3C316.6 351.4 316.5 354.4 318.7 357.3C319.1 357.8 319.5 358.6 319.6 359.2C319.9 361.4 321.2 362.8 323.2 363.6C325 364.4 326.9 365.1 328.8 365.8C329.8 366.2 330.8 366.5 331.7 366.8C335.9 368.3 338.5 371.1 338.8 375.7C338.9 377.8 338.9 379.8 338.8 381.9C338.7 382.9 339 383.6 339.7 384.2C341.5 385.6 343.2 387 345 388.2C348.6 390.7 352.3 393.1 356 395.5C358 396.8 359.3 398.7 359.9 401C360 401.5 360.3 402 360.5 402.5C362 406.5 365.7 408.2 369.1 410C371.2 411.1 372.4 412.6 373.4 414.6C373.6 415.1 373.8 415.8 374.2 416C376.6 417.1 378.5 419.4 381.3 419.7C381.8 420 382.7 420.4 383.4 420.6ZM402 523V523.1C403.2 523 404.4 523 405.6 522.9C407.3 522.7 408.8 522.1 410.2 521C411.8 519.7 413.5 518.5 415 517.1C415.8 516.4 416.8 515.5 416.9 514.6C417.1 513 417.9 512 418.9 511C420.5 509.4 421.5 507.5 420.7 505.2C420.3 504 420.7 503.2 421.4 502.3C423.8 499.3 426.2 496.3 428.4 493.2C429.5 491.7 430.5 490 431.2 488.2C433.1 483.7 432.5 479.1 431.9 474.5C431.7 472.9 431.5 471.3 431.8 469.8C432.5 466.7 433.1 463.7 432.5 460.4C432 457.6 430.5 455.5 428.2 454.5C424.8 453 421.2 453.3 417.6 454.2C416.3 454.6 416 455.2 416.6 456.4C417.2 457.6 417.9 458.7 418.8 459.8C419.7 460.9 420.1 462 419.8 463.3C419.1 466.5 418.4 469.6 417.5 472.8C416.8 475.5 415.7 478.1 416 481C416.4 485.4 415 489.3 412.6 493C412 493.8 411.6 494.8 411.2 495.7C410.2 498.3 409.3 500.9 408.4 503.6C408.2 504.3 407.9 505 407.9 505.6C408 508 406.9 509.9 405.3 511.5C404.6 512.2 404 512.8 403.9 513.9C403.8 515.4 403.1 516.3 401.8 517.1C400.8 517.7 399.9 518.5 399 519.3C398.6 519.7 398.2 520.1 397.9 520.5C397.1 521.9 397.5 522.8 399.1 523C400.1 523 401.1 523 402 523Z" fill="black"/>
<path d="M306 452.3C308.2 453.1 310 453 311.7 452.7C318.7 451.5 325.7 450.3 332.7 449C335 448.6 337.2 447.9 339.4 447.1C343 445.7 345.1 443.3 344.8 439C344.7 437.8 344.9 436.4 345.3 435.2C345.8 433.2 345.2 431.8 343.7 430.5C343.6 430.4 343.5 430.3 343.3 430.2C338.5 427.2 333.8 424.1 328.2 422.6C325.4 421.8 322.5 421.1 319.7 420.2C316.4 419.2 313.2 417.9 310 416.8C307.6 416 306 414.2 304.2 412.7C303.4 412 302.5 411.3 301.6 410.7C299.5 409.4 297.4 408.1 295.3 406.8C293.7 405.8 292.6 404.3 292 402.5C291.6 401.4 291.2 400.2 290.7 399.2C289.9 397.8 289 396.5 287.5 395.5C282 392.1 276.8 388.3 271.9 384C270.3 382.6 268.9 381 267.3 379.4C267.4 379 267.6 378.5 267.9 377.8C273.6 378.1 279.3 378.4 285.2 378.8C285.1 379.7 285.2 380.5 284.9 381.1C283.7 383.1 284.9 384.3 286.3 385.4C288.6 387.1 290.9 388.9 293.2 390.5C295.3 392 297.5 393.5 299.7 394.9C302.5 396.6 304.1 399.1 305.1 402.2C305.5 403.7 306.6 405.2 307.8 406.2C309.6 407.7 311.7 409 313.8 410C315.9 410.9 317.2 412.6 318.7 414C320.3 415.5 322.2 416.3 324.1 417C329.3 418.8 334.5 420.6 339.8 422.3C342 423 344.1 423.8 346 425.3C347.8 426.8 349.9 427.8 351.8 429.1C352.7 429.7 353.5 430.3 354.2 431C356.1 432.6 356.8 434.7 355.8 437C354.6 439.5 353.2 442 351.8 444.3C350.8 445.8 349.2 446.7 347.5 447.1C342.5 448.3 337.4 449.5 332.4 450.6C329.1 451.3 325.8 451.8 322.5 452.5C321.4 452.7 320.4 453.2 319.2 453.6C320.7 456.5 318.9 459.2 319.6 462.1C315.8 461.7 312.5 461.3 309 460.9C309.7 458.6 312.4 460.9 313.2 458.6C310.8 458 308.4 457.4 306.1 456.9C306 454.8 307.3 454 308.7 453.2C307 453.4 305.2 453.5 303.5 453.7C301.8 453.8 300 454 298.3 454C296.5 453.9 294.6 453.9 292.7 452.5C293.7 452.1 294.3 451.7 295 451.6C299.4 450.6 303.9 449.8 308.3 448.7C310.7 448.1 313.1 447.4 315.4 446.5C318.2 445.4 319.8 443 321.2 440.5C321.6 439.8 322 439.1 322.3 438.4C323.3 436.3 322.8 433.4 320.7 431.6C317.9 429.2 314.6 427.7 311.4 425.8C307.8 423.7 303.9 422.5 299.9 421.3C294.7 419.8 289.6 418 284.5 416C282.7 415.3 281.1 413.9 279.7 412.5C278.6 411.4 277.5 410.5 276.2 409.9C274 408.9 272.4 407.3 270.9 405.6C269.3 403.8 267.7 401.8 266.6 399.6C265.2 396.7 262.6 395.4 260.3 393.7C256.4 390.8 252.5 387.9 248.7 385C247.2 383.8 246.8 382.4 247.6 380.6C248.7 378.3 248 376.5 246 375C244.4 373.8 243.3 372.4 243.1 370.3C242.8 367.6 240.6 366.6 238.6 365.5C236.2 364.3 233.7 363.2 231.2 362.1C229.5 361.3 228.4 360 227.6 358.4C227 357.3 225.8 356.3 225.5 355.1C225.1 353.6 224.3 352.1 225 350.3C225.7 348.7 226.1 347 226.6 345.3C227 343.9 226.5 342.7 225.6 341.6C224.1 339.7 222 338.8 219.8 338C215 336.3 209.9 335.5 204.9 334.6C198.8 333.5 192.6 332.5 186.8 330.3C182.7 328.8 178.9 327 175.6 324C174.7 323.1 173.6 322.4 172.5 321.8C168.6 319.6 165.7 316.6 163.5 312.8C162.5 311 162.9 309.3 164.7 308.3C167 307 169.6 306.7 172.1 307.4C175.3 308.2 178.4 309.4 181.8 310.4C181.6 310 181.4 309.3 181 308.9C179.8 307.6 179.6 306.2 179.9 304.5C180.6 301.1 181.1 297.7 181.5 294.2C181.7 292.7 181.4 291.1 181.4 289.4C179.4 290.4 177.8 291.4 176.1 292.1C172 293.7 168 292.9 164.1 291.2C161.1 289.9 159 287.8 157.6 284.8C156.9 283.2 156.5 281.6 156.8 280C157.2 277.7 156.3 276.2 154.4 275.1C151 273.1 147.3 271.7 143.5 270.8C135.5 268.8 127.4 266.9 119.1 266.4C118.1 266.3 117.1 266 115.5 265.8C116.5 265.5 117 265.3 117.5 265.2C120 265 122.4 264.9 124.9 264.7C127.3 264.5 129.6 265 132 265.6C139.1 267.3 146.4 268.7 153.5 270.5C157.3 271.4 161 272.8 164.6 274.1C165.8 274.5 167 275.4 168.1 276.2C169.2 277 169.5 278.3 169.3 279.6C168.6 284.4 171.2 288 176 288.5C176.5 288.6 177.1 288.6 177.6 288.5C179.8 288.1 180.8 288.2 180.7 284.9C180.6 283.1 180.5 281.3 180.8 279.5C181.1 277.7 180.3 276.5 178.9 275.7C176.7 274.5 174.4 273.3 172 272.4C165 269.9 157.7 268.5 150.3 267.5C147.6 267.1 144.9 266.9 142.3 266.1C143.7 266 145.2 265.8 146.6 265.7C148.5 265.5 150.4 265.4 152.3 265.3C153.2 265.2 154.1 265.2 154.9 265.4C163.8 267.4 172.7 269.4 181.5 271.6C184.5 272.3 187.4 273.6 190.2 274.9C192.6 275.9 193.9 277.7 193.5 280.6C193.2 282.7 193.4 284.9 193.4 287C193.4 289.5 194.7 291.4 196.5 292.9C197.2 293.5 197.3 294 197.2 294.7C197 296.1 196.7 297.5 196.4 298.9C196.3 299.4 195.8 299.9 195.4 300.3C194.7 301 194.2 303 194.8 303.4C196.1 304.3 195.1 305.7 195.6 306.7C195.7 306.8 195.5 307.2 195.4 307.3C194.7 307.5 194.2 308 194.3 308.6C194.4 309.4 194.6 310.4 195.1 311.1C196 312.5 197.1 313.7 198.2 315C199.3 316.2 200 317.7 201.1 319C206.4 324.7 213.1 327.8 220.4 330C229.4 332.7 238.6 334.2 247.8 335.8C250.9 336.3 253.9 337 256.9 337.8C259.2 338.4 261.4 339.4 263.1 341.2C264.4 342.5 264.9 344 264.3 345.8C263.8 347.4 263.3 349 262.8 350.6C262.1 352.6 262.4 354.4 263.8 356.1C264.9 357.4 265.5 359 266.4 360.4C267 361.3 267.7 362.1 268.9 362.4C270.5 362.9 272 363.9 273.4 365.1C269.6 365.3 265.8 365.4 262.1 365.8C259.5 366.1 257.3 365.5 255.7 364.6C254.5 362.9 253.6 361.6 252.7 360.5C251.8 359.3 250.7 358.2 250.8 356.5C250.8 355.5 249.5 355.2 249.6 354C249.6 352.5 249.4 351 250.1 349.6C250.5 348.8 250.7 348 251 347.1C252.1 343.4 251 341 247.4 339.4C243.5 337.6 239.4 336.7 235.2 336C225.4 334.2 215.5 332.6 206 329.7C203.3 328.9 200.7 328 198 327.4C197 327.1 195.8 327.4 194.7 327.4C195.4 329.5 197.1 330 198.7 330.7C202.9 332.3 207.2 333.4 211.6 334.1C217 335 222.4 336 227.8 337C229.8 337.4 231.8 338.1 233.8 338.7C234.7 339 235.6 339.4 236.4 339.9C239.6 341.9 240.3 344.2 238.9 347.6C238.1 349.6 237.3 351.6 238.1 353.8C238.6 355.2 238.9 356.7 240.1 357.7C240.4 357.9 240.6 358.3 240.8 358.7C241.8 361.3 244 362.5 246.4 363.6C249.2 364.8 252.2 365.9 255 367.3C256.8 368.2 258.4 369.4 260 370.6C261.7 372 262 374 261.6 376C261.3 377.7 260.9 379.4 260.3 381.1C259.8 382.7 259.9 384 261.3 385.1C261.8 385.5 262.2 386 262.7 386.4C266.6 389.3 270.5 392.2 274.6 394.9C276.9 396.4 278.5 398.3 279.8 400.7C281.8 404.4 284.3 407.7 288 409.7C290.1 410.9 292.1 412.1 293.7 414C295.4 415.9 297.7 416.9 300 417.7C305.9 419.6 311.7 421.3 317.6 423.1C318.5 423.4 319.5 423.5 320.3 424C325 426.4 329.8 428.6 333.9 431.9C336.1 433.6 336.6 435.9 335.6 438.4C335.1 439.7 334.4 441 333.7 442.2C332.3 445 329.9 446.8 327 447.5C322.4 448.7 317.7 449.6 313 450.6C310.5 450.9 308.3 451 306 452.3Z" fill="black"/>
<path d="M464.999 244.3C456.399 243.1 447.699 242 439.099 240.8C439.099 240.6 439.099 240.5 439.099 240.3C439.499 240.2 439.799 240.1 440.599 239.9C439.499 239.3 438.699 238.7 437.799 238.4C431.499 236 425.399 233.2 419.499 230.1C418.799 229.7 417.799 229.5 416.999 229.5C412.999 229.5 409.299 228.6 405.599 227.3C401.999 226 398.299 225 394.699 223.7C390.399 222.2 386.199 220.6 381.899 219C378.999 217.9 378.499 217.1 378.799 214C378.999 211.9 378.899 209.7 378.799 207.6C378.699 204.2 379.499 200.8 381.099 197.7C383.399 193.1 384.799 188.2 386.199 183.3C387.099 180 387.599 176.8 389.699 173.9C391.199 171.8 391.899 169 392.799 166.5C392.999 165.9 393.099 165.2 392.999 164.6C392.599 162.3 393.199 160.3 394.199 158.3C395.499 155.6 396.799 152.9 398.099 150.1C399.699 146.7 401.099 143.1 402.899 139.8C403.999 137.8 405.499 136 406.999 134.2C409.499 131.2 412.199 128.3 414.799 125.3C417.299 122.3 419.799 119.2 422.199 116C422.999 115 423.399 113.8 423.999 112.7C425.899 109.4 427.899 106 429.799 102.7C430.099 102.2 430.499 101.8 430.599 101.3C431.199 98.5 432.699 96.2 434.199 93.9C436.999 89.6 439.999 85.4 443.099 81.3C446.299 77.1 450.199 73.8 455.199 71.9C458.499 70.6 461.999 70.4 465.599 70.5C466.599 70.5 467.699 70.5 468.799 70.5C469.499 67.3 470.499 64.2 470.399 61C470.299 58.7 469.599 57.8 467.399 57.1C466.699 56.9 465.999 56.7 465.399 56.4C464.899 55 465.699 54.5 466.799 54.2C469.699 53.5 472.599 52.9 475.399 52.2C477.599 51.7 479.899 51.1 482.399 50.5C482.199 52 481.999 53.3 481.899 54.6C481.799 56 481.799 57.3 481.999 58.7C482.399 63.5 481.099 68 480.299 72.6C479.899 74.5 479.799 76.5 479.399 78.4C478.599 82.5 477.499 86.6 475.399 90.2C473.199 93.9 471.199 97.8 469.099 101.6C468.799 102.2 468.399 102.9 468.099 103.5C465.199 108.3 462.499 113.3 459.299 117.9C455.899 122.7 452.199 127.2 448.399 131.7C444.599 136.2 441.399 141.1 438.199 146.1C436.799 148.3 435.199 150.4 433.799 152.6C432.999 153.9 432.099 155.1 431.399 156.5C429.899 159.3 427.699 161.6 425.499 164C423.499 166.1 421.499 168.3 419.499 170.5C417.999 172.1 417.499 174.1 417.299 176.2C417.199 177.3 417.499 178.5 417.899 179.6C418.599 181.8 419.799 183.9 418.699 186.2C416.499 190.8 416.199 196.2 412.799 200.3C412.399 202.5 411.899 204.7 411.599 206.8C411.399 208 411.299 209.1 411.199 210.3C411.199 210.8 411.099 211.6 411.399 211.9C412.299 212.9 412.099 213.9 411.999 215.1C411.799 217 412.499 218.5 413.999 219.6C416.699 221.5 419.399 223.5 422.499 224.9C426.799 227 430.899 229.5 435.099 231.7C441.999 235.3 449.099 238.3 456.399 240.8C458.599 241.6 460.799 242.3 462.899 243.2C463.699 243.5 464.499 243.9 465.199 244.3C465.099 244.2 465.099 244.3 464.999 244.3ZM401.699 220.8C401.399 220.3 401.199 219.6 400.799 219.2C399.399 217.7 399.099 215.8 399.199 213.9C399.199 212.2 399.199 210.4 398.899 208.7C398.399 205.1 399.199 201.8 401.099 198.8C403.899 194.4 404.699 189.3 406.399 184.5C406.799 183.4 406.499 182.3 405.899 181.3C405.399 180.4 404.799 179.5 404.599 178.5C403.899 175.4 403.599 172.4 406.499 170C408.299 168.5 410.099 166.8 411.699 165.1C413.899 162.8 416.299 160.6 417.999 158C421.799 152 426.399 146.5 429.699 140C430.299 138.9 431.499 138.2 432.499 137.1C432.599 136.8 432.599 136.1 432.999 135.6C434.499 133.7 436.199 131.9 437.699 129.9C442.099 124 446.599 118.1 450.799 112C453.499 108.1 455.599 103.8 457.999 99.7C458.999 98 459.099 95.7 461.399 94.8C461.499 94.8 461.499 94.6 461.499 94.4C461.899 93.3 462.199 92.2 462.799 91.2C465.399 87 467.299 82.4 467.799 77.4C467.999 75.8 467.499 74.8 466.099 74.1C463.699 72.8 460.699 73.1 458.499 74.7C455.399 77 454.099 80.4 452.399 83.7C451.599 85.3 451.299 87.1 449.999 88.5C449.199 89.4 448.499 90.5 447.999 91.6C446.399 95 444.899 98.4 443.299 101.8C441.299 105.9 439.199 109.9 437.099 114C435.999 116.2 434.299 117.8 432.699 119.6C428.699 123.9 424.999 128.4 421.099 132.8C418.999 135.2 416.899 137.5 414.799 139.9C414.599 140.2 414.399 140.6 414.299 140.9C413.599 143.5 412.299 145.9 410.799 148C407.799 152.2 405.299 156.7 402.599 161.1C400.699 164.2 399.399 167.7 398.099 171.2C397.599 172.6 396.899 173.9 395.799 175.1C394.799 176.2 394.199 177.7 394.399 179.3C394.599 181 394.999 182.8 394.599 184.4C393.599 188.8 392.299 193.2 390.199 197.3C388.399 200.8 387.599 204.4 387.799 208.3C387.899 210.1 387.899 212 387.799 213.8C387.599 216.5 388.299 218 390.699 219.1C392.899 220 395.099 220.9 397.399 221.5C398.799 221.8 400.399 222 401.699 220.8Z" fill="black"/>
<path d="M503.999 105C504.099 103.5 504 102.5 504.2 101.5C504.6 99.8001 504.999 98.1001 505.599 96.4001C507.999 89.1001 512.099 82.6001 516.799 76.6001C520.499 72.0001 525.5 69.5001 531.2 68.4001C535.9 67.5001 540.399 67.7001 544.599 70.2001C549.599 73.0001 552.1 77.2001 552.2 82.9001C552.2 85.9001 551 88.4001 549.2 90.4001C544.9 95.4001 540.299 100.2 535.799 105.1C534.799 106.2 533.7 107.1 532.7 108.2C530.3 110.8 527.799 113.4 525.599 116.2C523.999 118.2 522.599 120.4 521.999 123.1C521.699 124.8 521.099 126.6 519.599 127.9C518.299 129.1 517.499 130.6 516.799 132.3C516.199 134 514.999 135.5 514.099 137C512.299 139.9 510.799 143 509.999 146.3C509.599 148.1 508.7 149.9 507.7 151.5C506.2 154.1 504.4 156.5 502.7 159.1C501.8 160.4 501.1 161.8 500.2 163.1C498.9 165 497.499 166.9 495.999 168.6C494.199 170.6 493.299 173 492.299 175.5C491.699 177.1 491.8 178.6 492.7 179.8C494.1 181.9 494.099 183.9 493.299 186.2C492.399 188.8 491.8 191.4 490.7 193.9C489.8 196 488.599 198 487.399 200C485.999 202.3 485 204.6 485.2 207.4C485.3 209.2 485.099 211.1 485.099 212.9C485.099 216.1 486.199 218.8 489.099 220.6C491.699 222.3 494.199 224.1 496.899 225.7C500.499 227.8 503.699 230.4 506.799 233.2C508.199 234.4 507.899 236.1 506.099 236.3C503.599 236.7 500.999 236.9 498.499 236.7C492.899 236.2 487.399 235.4 481.999 233.8C475.699 232 469.499 229.9 463.699 226.8C461.199 225.4 458.399 224.6 455.799 223.4C453.399 222.2 450.899 221 448.599 219.6C445.999 218 445.499 216.3 445.999 213.3C446.199 212.1 446.299 210.7 445.899 209.6C444.899 205.8 445.199 202.1 446.899 198.7C448.999 194.4 449.999 189.7 451.599 185.3C452.199 183.5 451.999 181.7 451.199 180.2C449.499 177 450.499 174.1 452.199 171.5C453.599 169.4 455.399 167.5 456.999 165.6C459.999 162.1 462.999 158.6 465.399 154.6C467.099 151.7 469.299 149 471.599 146.5C472.999 144.9 473.799 143.1 475.099 141.4C477.399 138.4 479.599 135.3 482.499 132.8C483.699 131.8 484.799 130.6 485.899 129.5C487.699 127.8 489.599 126.3 490.999 124.2C492.299 122.3 494.4 120.9 496.2 119.4C498.2 117.7 499.4 115.5 500.2 113C500.8 110.9 501.599 108.8 502.499 106.8C503.099 105.9 503.699 105.4 503.999 105ZM515.999 102.7C515.999 103.1 516.199 103.9 515.999 104.4C515.399 105.9 514.699 107.4 513.999 108.9C513.499 110 512.9 111 512.4 112.1C512.1 112.7 511.999 113.5 511.599 114.1C509.399 116.8 507.8 120 505.2 122.4C503.7 123.8 502.6 125.6 501.2 127.1C499.2 129.1 497.899 131.8 494.999 132.9C494.599 133 494.4 133.6 494.2 134C493.9 134.5 493.599 135.1 493.299 135.7C491.399 138.3 489.299 140.7 487.599 143.4C484.299 148.6 479.899 153.1 477.099 158.7C476.899 159.1 476.499 159.5 476.199 159.8C473.599 162.6 470.999 165.4 468.399 168.1C466.499 170 464.699 171.8 465.099 174.8C463.799 176.5 464.299 178.6 464.999 180C466.199 182.4 465.799 184.3 464.999 186.6C463.699 190.6 462.199 194.5 460.099 198.2C458.399 201.2 457.199 204.2 457.599 207.7C457.899 210.1 457.899 212.4 457.999 214.8C458.099 216.5 458.399 217.9 459.999 218.9C462.599 220.5 464.999 222.3 467.599 223.8C471.299 225.8 475.199 227.5 478.899 229.4C482.999 231.5 487.199 233.1 491.599 234.2C492.899 234.5 494.299 234.9 496.299 234C495.499 233.4 495.099 233.1 494.599 232.8C490.699 230.2 486.799 227.6 482.799 225.1C480.199 223.5 477.499 222.3 475.099 220.2C472.699 218.1 471.899 215.6 472.199 212.6C472.299 211.7 472.099 210.7 472.099 209.7C471.799 205.6 472.599 201.9 475.199 198.6C475.799 197.9 476.299 197.1 476.699 196.2C478.299 192.4 479.899 188.6 481.499 184.8C481.699 184.4 481.7 183.9 481.7 183.5C481.4 181.7 480.999 179.9 480.099 178.3C479.799 177.7 480 176.8 480.2 176C480.4 175.2 480.999 174.5 480.999 173.8C480.799 172.4 481.5 171.5 482.2 170.6C483.4 169.1 484.799 167.8 485.999 166.3C488.599 163.1 491.099 159.8 493.599 156.5C494.999 154.6 496.099 152.6 497.299 150.7C497.899 149.8 499.199 149.4 498.799 148C500.999 144.2 502.499 139.9 505.399 136.4C506.699 134.8 507.499 132.9 508.799 131.3C510.299 129.6 510.899 127 513.499 126.3C513.699 126.2 513.799 125.7 513.999 125.3C513.499 125.2 513.199 125.2 512.799 125.1C513.399 124 513.799 123 514.299 122.1C515.699 119.7 517.1 117.3 518.7 115C520.3 112.6 522.2 110.4 523.9 108.2C524.3 107.6 524.6 106.7 525.7 107.2C525.8 107.2 526.499 106.3 526.499 106.2C525.799 105.5 526.6 104.9 526.9 104.6C528.5 103.1 529.5 101.2 530.7 99.5001C532.4 97.2001 534.099 94.9001 535.599 92.5001C537.299 89.7001 539.1 87.0001 539.9 83.6001C540.7 79.9001 540.399 76.6001 538.799 73.3001C537.599 70.8001 535.699 70.0001 532.999 70.4001C529.899 70.8001 528.399 73.2001 527.099 75.4001C525.699 77.9001 524.999 80.7001 523.999 83.4001C522.599 86.9001 521.199 90.5001 519.499 93.9001C518.499 95.9001 517.8 97.8001 517.2 99.9001C516.9 101 516.399 101.7 515.999 102.7ZM486.799 132.4C486.699 132.3 486.499 132.1 486.399 132C486.099 132.5 485.699 132.9 485.399 133.4C485.499 133.5 485.699 133.6 485.799 133.7C486.099 133.3 486.499 132.8 486.799 132.4ZM483.399 189.7C483.299 189.6 483.099 189.6 482.999 189.5C482.899 189.9 482.799 190.3 482.599 190.8C482.699 190.8 482.799 190.9 482.899 190.9C483.099 190.5 483.199 190.1 483.399 189.7Z" fill="black"/>
<path d="M328.699 106.3C328.299 105.9 327.799 105.8 327.799 105.6C327.699 103.2 325.699 101.8 324.799 99.7999C324.399 98.9999 323.199 98.6999 322.499 98.0999C319.999 95.8999 319.499 92.6999 319.299 89.6999C318.999 85.6999 318.499 81.5999 318.799 77.5999C318.999 74.9999 319.499 72.4999 320.599 70.1999C322.799 65.4999 325.899 61.4999 330.499 58.7999C333.099 57.1999 336.099 56.2999 339.099 56.0999C345.699 55.4999 352.199 56.1999 358.399 58.4999C358.899 64.0999 356.799 69.1999 355.799 74.6999C354.999 74.6999 354.299 74.7999 353.399 74.7999C352.999 72.1999 352.599 69.6999 352.199 67.1999C351.399 61.8999 346.899 59.4999 342.699 59.1999C339.299 58.9999 336.199 59.5999 333.699 62.1999C330.599 65.2999 329.599 69.0999 330.399 73.2999C330.599 74.0999 331.399 74.8999 331.999 75.5999C333.899 77.5999 336.399 78.6999 338.799 79.8999C341.499 81.1999 344.199 82.4999 346.899 83.8999C348.999 84.9999 350.399 86.5999 350.799 88.9999C351.199 91.0999 351.199 93.0999 350.499 95.0999C349.599 97.5999 348.899 100.1 347.899 102.5C347.399 103.9 346.599 105.2 345.799 106.5C345.199 107.6 344.399 108.6 343.899 109.8C340.499 116.7 335.499 122.3 329.499 127C324.899 130.7 319.699 133.2 313.999 134.7C308.799 136 303.599 137.1 298.399 138.4C292.899 139.8 288.399 142.7 284.899 147.2C283.599 148.9 282.499 150.6 281.999 152.6C281.599 154.3 281.399 156.1 281.999 157.9C282.299 158.9 282.799 159.4 283.699 159.7C284.399 159.9 285.199 160.2 285.999 160.2C290.599 160.5 294.599 159.2 297.999 156.1C301.099 153.3 304.499 150.7 307.699 148C308.099 147.7 308.399 147.4 308.699 147C309.599 145.7 310.799 145.5 312.399 146.2C311.599 147.5 310.799 148.8 309.899 149.9C307.299 153.4 304.799 156.8 302.199 160.2C300.799 162.1 299.099 163.1 296.399 163.3C291.999 163.5 287.599 163.2 283.299 162.6C281.399 162.3 279.499 161.5 277.699 160.7C276.399 160.2 275.599 159.2 275.399 157.6C274.599 149.7 276.199 142.6 281.999 136.7C287.299 131.3 293.799 128 300.599 125.3C304.999 123.5 309.699 122.4 314.199 120.8C315.899 120.2 317.499 119.2 319.299 118.7C322.299 117.9 324.299 116 325.799 113.5C325.999 113.2 326.299 112.8 326.299 112.4C326.299 110 327.799 108.2 328.699 106.3Z" fill="black"/>
<path d="M488.699 74.9C488.599 73.4 488.999 72.8 490.299 72.5C495.299 71.4 500.299 70.2 505.599 69C505.299 70.4 505.099 71.6 504.899 72.8C504.299 76.3 503.699 79.9 502.899 83.4C502.299 85.8 501.499 88.2 499.999 90.3C499.799 90.6 499.399 90.9 499.299 91.3C498.899 93.5 497.099 94.9 496.299 96.9C495.499 99 494.599 101.1 493.299 102.8C490.999 105.7 490.199 109.5 487.499 112.1C487.099 112.5 487.099 113.2 486.799 113.8C485.499 116.3 483.899 118.5 481.899 120.5C480.899 121.5 480.199 122.9 479.299 124.1C476.399 127.8 473.599 131.6 470.499 135.2C468.499 137.5 467.099 140 465.499 142.6C464.399 144.4 463.699 146.5 462.399 148.2C460.999 149.9 459.599 151.6 458.299 153.3C457.799 154 457.499 154.8 457.099 155.6C455.199 159.4 452.099 162.3 449.299 165.5C448.399 166.5 447.499 167.5 446.499 168.4C444.199 170.6 443.199 173.4 442.499 176.4C442.399 177.1 442.299 177.8 442.199 178.4C442.799 179.6 443.399 180.7 443.899 181.9C444.099 182.5 444.299 183.2 444.199 183.8C443.799 185.5 443.199 187.1 442.699 188.7C442.199 190.3 441.499 191.8 441.099 193.4C440.399 196.1 438.699 198.2 437.399 200.6C437.099 201.2 436.999 201.9 436.699 202.5C435.599 204.5 435.999 206.7 436.099 208.8C436.199 211.1 436.399 213.4 436.299 215.7C436.199 217.4 436.999 218.6 438.199 219.6C440.799 221.7 443.599 223.5 446.599 225C451.199 227.3 455.699 229.9 460.299 232.4C461.399 233 462.499 233.5 463.599 234.3C450.699 232.1 437.599 230.4 426.199 223.1C427.199 222 426.999 220.8 425.799 219.8C425.499 219.5 425.199 219.2 425.099 218.9C424.699 217 424.099 215.1 423.899 213.2C423.499 209.6 423.899 206 424.699 202.5C424.999 201.2 425.699 200 426.299 198.8C427.399 196.5 428.799 194.4 429.299 191.8C429.699 189.9 430.599 188.1 431.299 186.2C431.899 184.6 431.899 183 430.999 181.6C428.899 178.1 429.799 174.9 431.699 171.8C432.599 170.3 433.999 168.9 435.199 167.6C437.499 165 440.199 162.7 442.299 159.9C446.199 154.5 449.899 149.1 453.299 143.4C455.599 139.5 458.399 136.2 461.099 132.6C462.799 130.3 464.599 128.1 466.399 125.8C468.099 123.7 469.799 121.6 471.399 119.5C473.299 116.9 475.199 114.3 476.899 111.7C477.499 110.7 477.699 109.5 478.299 108.5C480.099 105.3 482.099 102.3 483.699 99C485.599 95.2 488.299 91.8 489.999 87.9C491.199 85.3 491.999 82.4 492.699 79.5C493.099 78.1 492.199 76.8 490.799 76.2C490.099 75.3 489.399 75.1 488.699 74.9ZM484.899 112.4C485.099 112.5 485.199 112.6 485.399 112.8C485.599 112.5 485.799 112.1 486.099 111.8C485.999 111.7 485.899 111.6 485.799 111.6C485.499 111.8 485.199 112.1 484.899 112.4Z" fill="black"/>
<path d="M511.899 818C507.699 817.5 503.499 817.2 499.299 816.5C497.599 816.2 495.999 815.4 494.499 814.5C492.999 813.6 492.799 812.5 493.699 811.1C494.599 809.7 495.599 808.4 496.699 807.1C499.999 803.3 502.899 799.2 505.099 794.7C506.099 792.6 506.799 790.5 507.099 788.1C507.599 783.3 507.299 778.5 506.799 773.7C506.099 767.1 506.899 760.6 508.599 754.3C509.099 752.4 510.299 750.7 511.299 749C512.199 747.4 513.299 745.8 514.299 744.2C515.099 742.9 515.099 741.6 514.399 740.1C513.499 738.4 512.199 736.8 512.599 734.8C512.799 733.9 513.099 733 513.499 732.2C514.199 731.1 514.999 729.9 515.999 729C516.799 728.3 517.899 727.8 518.899 727.6C521.799 727 524.799 727.1 527.599 728.3C529.399 729.1 530.999 730.3 532.799 731.2C536.399 733.2 538.999 736.1 540.599 739.9C541.599 742.4 543.499 744.4 545.399 746C551.199 751 554.999 757.4 558.199 764.2C559.399 766.8 560.499 769.5 561.299 772.2C561.999 774.5 562.099 776.9 562.499 779.3C562.899 782 563.299 784.6 563.799 787.3C564.199 789.7 563.699 791.8 562.699 794C561.699 796.1 560.899 798.2 559.999 800.3C558.299 804.6 555.099 807.3 551.199 809.4C545.999 812.2 540.399 813.7 534.699 814.9C527.199 816.9 519.599 817.7 511.899 818ZM525.099 812.6C528.999 812.4 532.899 812.3 536.799 811.9C541.299 811.4 545.799 810.6 549.899 808.4C552.999 806.8 554.899 804.3 555.299 801C555.599 799.1 556.399 797.7 557.399 796.3C558.199 795.2 559.099 794.2 559.999 793.2C562.599 790 563.499 786.5 562.399 782.4C561.699 779.9 561.199 777.3 560.599 774.7C559.799 771.5 558.299 768.7 555.899 766.5C548.599 759.8 539.999 758.9 530.799 761.6C527.299 762.6 524.199 764.5 521.399 766.7C518.699 768.8 516.399 771.4 515.899 775.2C515.599 777.5 515.499 779.8 514.299 781.9C512.499 785 511.099 788.3 509.499 791.5C509.299 791.9 509.099 792.4 508.799 792.8C505.999 796.7 504.399 801 503.299 805.6C502.899 807.4 503.199 808.6 504.799 809.4C506.499 810.2 508.299 810.9 510.199 811.3C514.999 812.4 519.999 812.6 525.099 812.6Z" fill="black"/>
<path d="M153.599 333.9C154.699 333.6 155.799 333 156.899 333C161.299 333 165.699 333 169.999 333.3C174.499 333.5 179.099 334 183.599 334.4C191.399 335.2 199.199 335.8 206.699 337.7C209.099 338.3 211.399 339.3 213.499 340.5C216.299 342.1 216.199 343.7 215.399 347.1C215.199 347.8 214.899 348.4 214.699 349.1C213.799 352 214.299 354.7 216.299 357C216.599 357.4 216.899 357.7 217.099 358.2C218.299 361.1 220.999 362.3 223.599 363.6C226.199 364.8 228.899 365.9 231.499 367.1C232.499 367.6 233.499 368.2 234.399 368.8C237.999 371.1 238.699 374.5 237.899 378.4C237.599 380.1 237.099 381.8 236.599 383.6C239.299 387.1 241.499 390.9 242.399 395.2C241.699 396.4 240.799 396.9 239.599 397.3C235.699 398.5 231.899 398.2 227.999 397.6C218.599 396.1 209.499 393.4 200.599 390.2C195.899 388.5 191.199 387 186.499 385.5C186.299 385.4 185.999 385.4 185.799 385.3C182.299 383.9 182.299 383.8 181.999 380.1C181.899 378.1 181.499 376.2 181.799 374.2C182.099 371.9 180.899 370 178.799 368.9C176.799 367.8 174.599 366.9 172.599 365.8C170.099 364.5 167.599 363.4 165.299 361.8C161.999 359.4 159.399 353.7 161.999 349.1C162.499 348.1 162.799 347 163.199 346C163.999 343.7 163.499 341.6 161.499 340.2C159.499 338.7 157.399 337.5 155.299 336.1C154.599 335.7 153.999 335.2 153.299 334.7C153.499 334.3 153.499 334.1 153.599 333.9ZM221.799 383C223.799 380.4 223.699 377.4 223.999 374.5C224.099 372.9 223.499 371.3 222.299 370.2C220.999 369.1 219.599 368.2 218.099 367.5C214.199 365.7 210.299 363.9 206.299 362.3C204.599 361.6 203.599 360.4 202.699 359C202.099 358.2 201.499 357.5 201.199 356.6C200.199 354.1 198.899 351.7 200.099 348.9C200.499 348 200.799 347.1 200.999 346.2C201.599 344.3 200.699 342.2 199.199 341C196.499 338.9 193.299 338 189.999 337.3C181.599 335.5 173.199 334.6 164.699 334C163.799 333.9 162.899 334.2 161.999 334.4C161.999 334.6 161.899 334.8 161.899 335C163.099 335.5 164.299 335.9 165.499 336.4C167.599 337.3 169.699 337.9 171.599 339.1C175.399 341.3 176.099 344 174.399 348C173.799 349.4 172.999 351.1 173.199 352.5C173.899 356.6 175.499 360.5 179.399 362.7C182.499 364.4 185.699 365.8 188.799 367.5C190.499 368.5 191.999 369.8 193.499 371.1C194.499 372 194.999 373.1 194.899 374.5C194.799 376.5 194.999 378.5 194.699 380.5C194.199 383.1 195.499 384.4 197.599 385.3C200.499 386.6 203.399 388 206.299 389.2C210.999 391.1 215.699 393.1 220.799 394.1C222.299 394.4 223.899 394.5 225.499 394.4C226.799 394.3 227.299 393.5 226.899 392.2C226.499 390.9 225.899 389.7 225.199 388.5C224.199 386.6 222.999 384.9 221.799 383Z" fill="black"/>
<path d="M471.099 620.9C470.799 622.3 469.899 622.8 468.799 622.7C467.399 622.6 465.899 622.4 464.499 622.2C460.899 621.8 457.399 621.3 453.799 620.9C444.699 620 435.499 619.1 426.399 618.1C420.999 617.6 415.599 616.9 410.199 616.4C408.599 616.3 406.999 616.4 405.299 616.4C404.899 614.7 403.699 614 402.299 613.2C399.099 611.5 395.899 609.8 392.799 608.1C391.899 607.6 391.099 606.9 390.499 606.1C388.899 603.9 389.099 602 391.299 600.5C393.699 598.8 396.399 597.6 398.999 596.2C401.599 594.7 404.299 593.3 406.899 591.7C407.999 591 408.899 590.1 409.699 589.2C410.699 588.2 410.699 587.5 409.899 586.2C408.499 584 406.699 582.3 404.599 580.7C403.799 580.1 402.899 579.5 401.999 578.8C402.199 578.2 402.399 577.7 402.499 577.2C402.799 577.2 403.099 577.1 403.299 577.2C403.799 577.4 404.299 577.6 404.899 577.8C407.899 578.6 410.099 576.6 409.299 573.5C408.699 571.3 407.899 569.1 407.099 567C406.599 565.6 405.999 564.2 405.699 562.7C405.199 560.1 403.699 558.4 401.399 557.3C398.999 556.2 396.499 555.2 394.199 554C389.999 551.9 385.799 549.8 381.699 547.5C376.699 544.6 371.299 542.6 365.799 540.8C364.199 540.3 362.599 539.8 361.099 539.2C359.199 538.5 357.699 537.4 356.099 536.1C353.899 534.2 351.199 532.8 348.699 531.4C346.199 530 343.599 528.8 340.999 527.6C339.899 527.1 338.799 526.6 337.699 526.1C336.299 525.4 334.799 524.8 333.499 523.9C331.799 522.7 331.699 521.4 333.099 519.9C333.599 519.3 334.299 518.8 334.799 518.2C335.199 517.8 335.399 517.4 335.999 516.6C334.799 516.5 333.999 516.4 333.099 516.3C333.599 515.2 334.099 514 334.699 512.8C335.099 511.9 335.899 511.6 336.799 511.5C339.899 511.1 342.899 510.6 345.999 510.2C350.699 509.7 355.499 509.2 360.499 508.8C359.899 509.9 358.899 509.7 358.199 510C356.999 510.5 355.599 510.8 354.399 511.4C353.599 511.8 352.799 512.6 352.499 513.4C351.999 515.1 350.899 516.1 349.499 517C348.299 517.9 346.999 518.7 345.899 519.8C344.499 521.1 344.499 522.5 346.099 523.6C347.499 524.6 349.199 525.2 350.799 526C351.499 526.3 352.399 526.5 352.999 526.9C355.999 528.9 359.499 530 362.699 531.6C365.499 533 368.399 534.4 370.599 536.9C371.399 537.7 372.499 538.3 373.599 538.8C378.999 541.3 384.399 543.6 389.699 546.1C394.299 548.3 398.699 550.9 403.299 553.2C405.599 554.3 407.999 555.2 410.299 556.2C413.599 557.6 416.199 559.6 417.399 563.1C417.899 564.6 419.199 565.9 420.199 567.2C421.299 568.7 422.599 570.2 423.699 571.8C424.799 573.5 424.799 575.3 423.799 577C422.499 579.1 421.099 581.1 419.799 583.2C419.199 584.2 418.799 585.5 417.999 586.4C416.299 588.6 414.599 590.8 412.799 592.9C411.599 594.3 410.699 595.7 410.999 597.6C411.199 599.2 410.299 600.3 409.699 601.6C409.199 602.6 408.299 603.6 408.399 604.6C408.599 606.5 408.799 608.5 410.899 609.5C414.299 611.3 417.799 612.8 421.399 614C428.099 616.3 435.099 617 442.099 617.6C451.099 618.3 460.099 619.2 469.099 620.1C469.899 620.5 470.499 620.8 471.099 620.9Z" fill="black"/>
<path d="M26.6995 126.7C23.9995 126.5 21.2995 126.3 18.5995 125.9C15.9995 125.5 13.5995 124.6 11.3995 122.8C8.9995 120.9 8.7995 118.5 9.3995 115.7C9.9995 112.9 11.4995 110.5 12.9995 108.2C17.2995 101.4 21.5995 94.4999 25.8995 87.6999C26.7995 86.1999 27.4995 84.5999 28.3995 83.1999C30.4995 79.9999 32.6995 76.8999 34.9995 73.6999C36.8995 70.9999 39.6995 68.9999 42.1995 66.8999C44.5995 64.8999 47.5995 63.3999 50.6995 62.7999C53.4995 62.1999 56.5995 61.7999 59.3995 62.6999C61.3995 63.2999 63.1995 64.2999 65.0995 65.1999C66.4995 65.9999 67.3995 67.2999 68.3995 68.4999C70.2995 70.8999 71.2995 73.5999 72.8995 76.0999C73.3995 76.8999 73.5995 77.9999 73.7995 79.0999C74.2995 82.5999 74.2995 85.9999 72.2995 89.1999C69.6995 93.3999 67.6995 97.8999 65.3995 102.2C63.0995 106.6 60.1995 110.8 57.2995 114.9C55.2995 117.7 52.0995 119.3 49.0995 120.9C41.9995 124.5 34.5995 126.6 26.6995 126.7ZM25.0995 124.5C25.7995 124.4 26.4995 124.3 27.1995 124.2C31.9995 123.3 36.1995 121.1 39.9995 118.1C41.6995 116.8 43.4995 115.5 44.5995 113.7C45.4995 112.2 46.2995 110.6 47.0995 109.1C49.4995 105 52.5995 101.3 54.3995 96.7999C54.7995 95.6999 55.5995 94.6999 56.1995 93.6999C57.4995 91.3999 59.4995 89.0999 59.9995 86.5999C60.8995 82.4999 62.0995 77.9999 59.3995 73.9999C59.2995 73.8999 59.2995 73.6999 59.1995 73.5999C58.9995 71.5999 57.2995 70.3999 56.3995 68.7999C56.1995 68.4999 55.5995 68.1999 55.1995 68.0999C53.5995 67.8999 52.0995 67.6999 50.5995 68.5999C48.3995 69.8999 46.2995 71.4999 44.9995 73.5999C42.9995 76.7999 41.4995 80.0999 39.6995 83.3999C38.3995 85.7999 37.1995 88.2999 35.6995 90.6999C34.3995 92.8999 32.6995 94.7999 31.3995 96.9999C27.9995 102.5 24.6995 108.1 21.4995 113.7C20.6995 115 19.9995 116.4 19.4995 117.8C18.1995 121.3 19.3995 123.5 23.0995 124.3C23.7995 124.4 24.3995 124.4 25.0995 124.5Z" fill="black"/>
<path d="M201.6 268.9C200.5 268.9 199.4 268.9 198.3 268.9C197.3 268.8 196.3 268.7 195.2 268.9C195.7 269.1 196.1 269.3 196.6 269.4C201.9 270.5 207 271.9 212 273.9C213.2 274.4 214.3 275 215.3 275.8C217 277 217.1 277.6 216.6 280C216.5 280.8 217 281.6 217.1 282.4C217.2 285.2 217.3 288 217.4 290.8C217.4 291.7 217.4 292.6 217.2 293.4C217 294.1 216.5 294.8 216 295.6C216 295.6 216.5 295.9 216.5 296.2C216.3 299.1 216 301.9 215.7 304.8C215.5 306.8 216 308.3 217.5 309.8C219.8 312.1 221.7 314.9 223.8 317.5C224.3 318.1 224.8 318.8 225.3 319.3C229.2 323.2 233.8 326 239 327.9C246.9 330.8 255 332.7 263.3 334.1C266.5 334.7 269.8 335 273 335.8C275.4 336.3 277.7 336.5 280.1 336C283.3 335.4 286.2 336.8 289.2 337.4C287.8 337.9 286.4 338.3 284.8 338.8C285.8 339.7 286.7 340.6 287.7 341.4C289 342.4 289.2 343.8 288.9 345.3C288.6 346.5 288.2 347.6 287.8 348.7C287 351 286.7 353.3 287.8 355.6C289.4 359 291.5 361.9 295.2 363.3C298.3 364.4 301.2 365.8 304.2 367.1C303.3 369.1 302.7 369.4 301 368.6C295 365.8 288.7 364.1 282.4 362.6C279.9 362 277.6 361.1 275.5 359.7C274.7 359.2 274.3 358.1 273.7 357.2C273.1 357.2 269.8 356 269.6 355.7C268.6 353.8 268.7 351.8 269.2 349.9C269.4 348.8 270 347.8 270.3 346.8C271.3 343.7 270.9 342.4 268.3 340.4C267.9 340.1 267.4 339.7 266.9 339.4C267.4 339 267.8 338.7 268.5 338.1C265.3 336.9 262.3 336.4 259.3 335.8C250.2 334.1 241.1 332.7 232.2 330C227.8 328.7 223.3 327.3 219.4 324.8C217.3 323.4 215.2 322.1 213.5 320.1C210.6 316.5 207.5 313 204.3 309.6C202.4 307.5 202.4 305.4 203.1 302.9C203.3 302 203.5 301 203.4 300.2C203.1 297.9 204 295.8 204.4 293.7C204.5 293.1 204.7 292.5 204.7 291.9C204.7 289.9 204.6 287.8 204.6 285.8C204.6 283.7 204.5 281.5 204.7 279.4C204.8 277.8 204 276.7 203 275.9C201.8 275 200.5 274.3 199.1 273.7C192.6 271 185.7 269.6 178.8 268.3C176.3 267.8 173.7 267.9 171.2 267.7C170.2 267.6 169.2 267.3 168.1 267.1C168.2 265.9 167.5 265.3 166.6 264.9C165.1 264.2 163.5 263.5 162 262.9C161.3 262.6 160.6 262.2 160 261.5C161.9 261.7 163.9 261.8 165.8 262.3C170.7 263.5 175.6 264.7 180.4 266C183.9 266.9 187.4 266.8 190.9 266.8C194.5 266.6 198 267.7 201.6 268.9ZM280.1 345.1C280.2 344.6 280.2 344.2 280.2 343.7C280.2 343.7 280.2 343.7 280.1 343.7C280.1 344.2 280.1 344.6 280.1 345.1Z" fill="black"/>
<path d="M203.999 122.2C202.999 123.6 201.899 125 200.899 126.3C199.399 128.1 199.399 128.1 197.299 127.3C193.699 125.9 190.199 124.5 186.699 123.1C187.199 121.4 188.399 120.9 189.899 120.6C193.899 119.7 196.499 116.9 198.599 113.7C200.199 111.3 201.599 108.7 203.099 106.1C203.999 104.6 204.799 103.1 205.499 101.5C206.399 99.1999 207.199 96.9999 205.799 94.4999C204.999 92.9999 206.399 91.7999 207.199 90.6999C207.599 90.1999 207.899 89.8999 208.199 89.2999C208.699 88.3999 209.599 87.4999 210.499 87.0999C213.699 85.6999 216.899 84.3999 220.199 83.0999C222.799 82.0999 225.399 81.1999 228.199 80.1999C227.599 84.4999 225.899 88.0999 223.499 91.3999C223.699 91.4999 223.799 91.5999 223.999 91.6999C224.899 90.7999 225.799 89.9999 226.599 88.9999C229.999 85.2999 233.699 81.6999 238.499 79.7999C240.799 78.8999 243.299 78.7999 245.799 79.3999C249.099 80.1999 250.899 84.7999 249.799 87.6999C248.699 90.5999 247.599 93.5999 245.699 96.1999C244.299 98.0999 243.499 100.4 242.399 102.4C240.799 105.2 239.199 108 237.599 110.8C235.399 114.7 232.599 118.2 229.599 121.4C225.599 125.7 220.799 128.7 214.799 129.3C213.199 129.5 211.399 129.4 209.799 129C206.299 128.5 204.799 126.5 203.999 122.2ZM211.499 122.8C212.599 122.5 213.599 122.3 214.599 121.9C218.299 120.5 220.799 117.7 222.799 114.5C225.199 110.9 227.499 107.1 229.499 103.2C230.899 100.6 232.199 97.7999 232.499 94.6999C232.699 92.4999 232.099 91.6999 229.899 91.9999C229.299 92.0999 228.599 92.2999 228.099 92.5999C226.699 93.3999 225.099 94.0999 223.899 95.1999C221.899 96.9999 219.699 98.6999 218.299 100.9C216.899 103.1 215.599 105.4 214.299 107.6C212.199 111.3 210.199 115 207.399 118.2C206.399 119.3 206.799 121 208.099 121.6C209.199 122.2 210.399 122.4 211.499 122.8Z" fill="black"/>
<path d="M270.1 275C270.8 274.8 271.2 274.6 271.7 274.7C274.2 275 276.9 275.1 279.3 275.8C283.4 277.1 287.5 277.7 291.8 278C295.1 278.2 298.2 279.2 301.1 281C306.7 284.5 312.4 288 318 291.5C318.9 292.1 319.8 292.8 320.7 293.4C321.7 294.2 322.1 295.1 321.6 296.3C321.5 296.4 321.4 296.6 321.4 296.7C321.4 298.4 321.8 300.2 321.4 301.8C321 303.5 320.4 305.1 321.1 306.9C321.3 307.5 321.6 308.2 322 308.5C324.2 310 325.2 312.4 326.8 314.4C328.6 316.6 330.4 318.8 332.4 320.9C334 322.6 335.7 324.1 337.4 325.7C338 326.3 338.9 327 338.3 327.9C337.9 328.5 336.8 328.9 336.1 328.9C333.2 328.9 330.2 328.9 327.3 328.6C324.5 328.3 321.7 327.6 318.8 327.3C320.3 327.9 321.8 328.4 323.3 329C324.8 329.5 326.3 330 327.8 330.4C327.8 330.6 327.8 330.7 327.8 330.9C322.9 330.9 318 331 313.1 330.9C311.5 330.9 310 330.3 308.6 329C307.3 327.7 305.3 327 303.6 326.2C298.2 323.8 293.8 320.4 290.4 315.5C288.8 313.2 286.7 311.1 284.7 309.2C282.7 307.3 282.1 305.7 283.1 303.1C283.4 302.4 283.7 301.4 283.5 300.8C283 299.4 283.1 298.2 283.5 296.9C283.7 296 283.9 295 284.4 294.3C285.2 293.1 285.2 292.1 284.3 291C282.5 288.9 280.7 287 278.9 284.9C277.9 283.7 277.1 282.3 276.1 281.1C275.5 280.3 274.8 279.5 274 278.9C272.2 278.1 271.1 276.9 270.1 275ZM285 283.7C285 283.9 285 284.2 284.9 284.4C285.8 285.3 286.7 286.2 287.7 287C289.9 288.8 292.1 290.7 294.4 292.4C295.8 293.5 296.7 294.8 296 296.7C295.7 297.3 295.6 298.2 295.8 298.8C296.2 300.4 295.9 301.9 295.5 303.5C294.9 305.8 295.3 307.9 297.6 309.3C298.1 309.6 298.5 310 298.8 310.4C301.5 313.5 304.1 316.7 306.9 319.8C310.4 323.6 314.6 325.9 320 325.6C320.9 325.6 321.8 325.6 322.4 324.3C321.8 323.5 321.1 322.5 320.3 321.6C318.5 319.4 316.6 317.2 314.8 315C313.1 313 311.7 310.7 309.9 308.8C308.4 307.3 307.7 305.8 308.2 303.7C308.6 302.2 308.8 300.7 308.7 299C308.5 297.6 309.1 296 309.7 294.6C310.7 292.3 310.9 292 308.7 290.5C305.9 288.5 303 286.7 300 285.1C296.2 283 292.1 282.1 287.8 282.6C286.7 283 285.8 283.4 285 283.7Z" fill="black"/>
<path d="M338.4 144.7C341 145.3 343.3 145.9 345.9 146.5C344.9 148.4 344.1 150 343.2 151.7C340.7 151.1 338.3 150.7 335.9 150.1C335 149.9 334.4 150 333.9 150.8C332.6 152.7 331.1 154.5 329.7 156.3C327.9 158.5 326.1 160.7 324.3 162.9C322.8 162.6 321.7 162.4 320.4 162.2C320.4 160.7 321 159.6 321.5 158.3C322.5 156.1 323.5 153.8 324 151.4C324.4 149.4 323.7 147.3 322.1 145.7C321.7 145.3 321.3 144.9 320.8 144.3C321.7 143 322.6 141.7 323.5 140.5C324 140.6 324.2 140.7 324.4 140.7C327 141.6 327.2 141.6 328.8 139.5C329.5 138.6 330.1 137.7 331.2 137C332.2 136.4 332.5 134.8 333.3 133.8C335.5 131.1 337.8 128.6 340 126C342.5 122.9 344.9 119.5 347.5 116.4C349 114.6 349.9 112.4 351 110.4C352.2 108.4 353.5 106.5 354.6 104.5C356.3 101.5 357.8 98.5 359.5 95.6C360.6 93.7 361.9 91.8 363 89.9C364.2 87.9 365.4 85.8 366.4 83.6C366.9 82.6 366.8 81.2 366.9 79.8C365.4 79.8 364 79.8 362.4 79.8C362.5 78.6 362.6 77.7 362.6 76.9C364.4 75.9 366.1 75.2 367.6 74.2C370.9 72 373.5 69.1 375.6 65.8C377.7 62.6 377.7 62.7 381.9 63.2C381.3 66.7 380.7 70.2 380 73.9C383.3 73.9 386.5 73.9 389.9 73.9C389.6 74.5 389.4 74.8 389.4 75.1C389 78.2 387.1 79.1 384.2 78.8C383.1 78.7 382 78.8 380.8 78.9C379.7 78.9 379 79.4 378.8 80.5C377.7 85.6 375.3 90.2 372.4 94.5C371 96.5 370.2 98.9 368.9 101C366.8 104.5 364.5 108 362.2 111.4C362.1 111.6 361.8 111.8 361.8 112C361.3 115.2 358.8 117.3 357 119.7C353.9 124 350.4 128.1 347 132.2C344.1 136.1 340.7 139.7 338.4 144.7Z" fill="black"/>
<path d="M248.8 134.2C247.4 133.9 245.6 133.6 243.8 133.2C240.9 132.5 239 129.6 239.2 126.3C239.4 123.8 239.8 121.3 241.2 119.1C243.2 115.9 245 112.5 247 109.3C248.9 106.4 251.1 103.7 253 100.7C254.9 97.7 257.1 95 259.5 92.5C263.4 88.2 267.2 83.6 272.1 80.3C276.8 77.1 281.9 76 287.2 78.4C291.5 80.3 293.4 84.9 291.7 89.2C290.4 92.5 288.7 95.6 287.3 98.8C286.4 100.7 285.5 102.6 284.6 104.6C284.4 105 284.3 105.3 284.1 105.7C281.6 109.6 279.3 113.6 276.5 117.2C270.3 125.4 262.9 131.9 252.5 133.8C251.4 134 250.3 134 248.8 134.2ZM265.3 117.9C263.9 117.5 263 117.1 262 116.8C261.1 116.5 260.2 116.2 259.3 116C258.3 115.8 259 114 257.5 114.3C257.5 113.9 257.3 113.4 257.5 113.1C257.7 112.7 258.2 112.4 258.7 112.3C262.5 111.3 265 107.8 268.9 107C269.2 106.9 269.4 106.6 269.7 106.4C270.2 106.1 270.6 105.9 271.2 105.7C272.9 105.3 274 104.3 274.7 102.7C275.9 100.1 277 97.5 278.4 95C279.7 92.5 281.4 90.2 282.3 87.5C282.9 85.8 282.7 84.1 282.1 82.4C281.8 81.5 280.2 80.5 279.5 80.8C277.9 81.3 276.2 81.9 275.1 83.4C271.4 88.4 267.7 93.3 264.1 98.3C263.5 99.2 263.2 100.3 262.6 101.2C259.7 105.9 256.7 110.5 253.8 115.1C252.9 116.6 252.1 118.2 250.9 119.4C248.7 121.8 247.6 124.6 246.6 127.5C245.8 129.7 246.7 130.6 249 130.6C251.1 130.6 252.8 129.5 254.5 128.5C258.5 126 261.3 121.6 265.3 117.9Z" fill="black"/>
<path d="M433.6 71.1001C432.7 75.8001 432 80.0001 431 84.2001C430.6 86.0001 429.6 87.7001 428.7 89.4001C426.3 93.9001 423.7 98.3001 421.2 102.8C420.3 104.4 419.3 106 418.3 107.6C417 109.9 415.7 112.1 414.3 114.4C413.6 115.5 412.9 116.5 412.1 117.5C407.8 123 403.7 128.8 399 134C395.7 137.7 393.3 141.9 390.7 146C388.5 149.4 386.3 152.8 383.6 155.8C382.2 157.3 381.8 159.4 380.2 160.7C378.7 161.9 377.3 163.4 375.6 165C372.8 163.4 369.8 161.8 366.8 160.1C365.5 159.3 365.1 158.3 365.8 156.9C366.8 155.1 367.7 153.3 370.2 152.8C373.5 152.1 375.9 149.9 377.7 146.9C379.5 143.8 381.4 140.8 383.5 137.9C385.4 135.3 387.6 133 389.6 130.5C392.9 126.4 396.1 122.1 399.5 118C402.1 115 403.6 111.4 405.7 108.1C407.7 105 409.5 101.7 411.3 98.5001C413.6 94.4001 415.9 90.4001 418.1 86.3001C419.3 84.1001 419.8 81.7001 420 79.0001C418.9 78.4001 417.6 77.7001 416.1 76.9001C416.1 76.6001 416 76.0001 415.9 75.1001C421.8 73.8001 427.4 72.5001 433.6 71.1001Z" fill="black"/>
<path d="M512.199 702.6C511.899 704.5 510.799 705.3 509.099 705.8C505.199 706.9 501.299 706.4 497.499 706.1C490.899 705.5 484.499 704.1 477.999 702.4C473.899 701.3 470.799 698.8 467.799 696C467.199 695.4 467.099 694.7 466.999 693.9C466.899 692.5 466.499 691.1 465.999 689.8C465.299 687.9 463.699 686.8 461.999 686.1C455.499 683.6 448.899 681.2 442.399 678.6C439.999 677.6 437.699 676.3 435.399 675.1C434.599 674.7 433.899 674.2 433.299 673.6C432.099 672.5 432.299 670.7 433.799 670C434.799 669.5 435.899 669.1 436.899 668.9C440.699 668.5 444.499 668 448.299 667.9C452.499 667.8 456.799 667.8 460.999 668C469.999 668.5 478.899 669.4 487.699 671.7C488.599 671.9 489.499 672.4 490.399 672.7C493.799 673.8 494.999 676.7 495.699 679.8C495.799 680.3 495.599 680.9 495.299 681.3C494.899 682.1 494.299 682.7 493.799 683.5C492.299 685.8 492.499 687.6 494.699 689.3C497.799 691.7 500.999 693.9 504.199 696.2C506.999 698.1 509.999 699.9 512.199 702.6ZM435.699 672.1C436.299 672.5 436.799 673 437.299 673.2C438.599 673.7 439.799 674.2 441.199 674.4C448.799 675.9 456.399 677.5 463.999 678.8C470.099 679.8 476.199 680.4 482.399 680.2C484.499 680.1 486.699 679.8 488.799 679.4C490.499 679.1 491.399 678 491.299 676.9C491.199 675.6 490.199 675 489.099 674.6C487.399 674 485.599 673.5 483.799 673.1C477.999 672 472.099 671.4 466.199 670.9C457.999 670.3 449.799 669.9 441.599 670.2C439.599 670.5 437.499 670.4 435.699 672.1Z" fill="black"/>
<path d="M549.199 470.6C547.099 476.7 545.099 482.7 542.999 488.9C542.299 488.7 541.499 488.5 540.699 488.3C540.499 485.5 540.399 482.8 540.099 480.1C539.899 478.2 539.399 476.2 539.099 474.3C538.999 473.8 538.599 473.3 538.699 472.9C539.699 470 537.499 468.4 535.699 467.3C532.699 465.4 529.199 464.7 525.699 466.2C523.699 467 522.199 468.4 521.499 470.5C520.799 472.5 520.099 474.5 519.599 476.5C518.599 480.5 519.999 483.7 523.099 486.2C525.399 488.1 527.799 490 530.099 492C531.599 493.3 532.599 494.9 532.299 497C532.099 498.4 531.799 499.8 531.699 501.2C531.599 502.8 530.599 503.6 529.399 504.4C526.899 506 523.999 506.8 521.099 507.5C517.099 508.5 512.999 509.3 509.299 511.3C508.399 511.8 507.599 512.4 506.899 512.9C506.899 513.3 506.799 513.5 506.899 513.6C507.799 517 508.799 517.8 512.199 517.5C515.299 517.2 518.399 516.6 521.399 515.9C523.599 515.4 525.499 514.4 527.299 512.9C529.599 511.1 532.199 509.6 534.699 508.1C535.499 507.7 536.499 507.7 537.599 507.5C537.499 509.2 536.899 510.3 535.899 511.2C534.799 512.1 534.299 513.1 535.099 514.7C530.699 515.6 526.599 516.6 522.499 517.4C516.099 518.6 509.599 519.4 502.999 519.1C501.999 519.1 501.099 519 500.099 518.9C498.199 518.5 497.999 518.1 497.599 516.1C497.499 515.3 497.099 514.6 496.699 513.9C495.999 512.9 496.299 512.2 497.099 511.6C498.899 510.3 500.799 509.1 502.599 507.8C504.299 506.6 506.099 505.5 507.699 504.2C508.299 503.7 508.899 502.9 509.199 502.1C510.999 497.4 511.699 492.6 509.499 487.7C509.299 487.3 508.999 486.8 509.099 486.4C509.499 484.3 509.399 482.2 509.199 480C509.099 479 509.199 478 509.099 477C508.999 476 509.399 474.9 509.799 473.8C510.199 472.6 510.599 471.4 511.299 470.4C512.399 468.8 513.599 467.1 515.099 465.9C518.599 463 522.699 461.1 527.299 461.4C530.599 461.7 533.899 462.2 536.999 463.7C538.299 464.3 539.699 464.6 540.999 465.2C543.799 466.8 546.699 468.3 549.199 470.6Z" fill="black"/>
<path d="M391.699 78.3C391.799 77.4 391.999 76.7 392.099 76C397.799 74.7 403.399 73.4 409.499 72C408.499 76.8 407.699 81.1 406.599 85.3C406.099 87.2 405.099 89 403.999 90.6C401.899 93.8 400.199 97.1 398.399 100.4C396.099 104.5 393.799 108.7 391.299 112.8C390.099 114.8 388.599 116.8 387.199 118.7C385.199 121.3 383.199 124 381.099 126.5C379.599 128.3 377.899 130 376.399 131.8C374.099 134.7 371.799 137.6 369.699 140.7C366.999 144.7 364.599 148.9 361.499 152.5C360.099 154.2 358.999 156.1 357.799 157.9C357.299 158.7 356.599 159.4 356.099 160C354.899 159.8 354.099 159.3 353.899 158.2C353.299 154.2 350.699 151.8 347.299 150.1C347.099 150 346.899 149.8 346.699 149.7C347.399 148.2 348.299 147.2 350.299 147.1C352.699 146.9 354.699 145.3 355.699 143.2C358.499 137.8 362.799 133.7 366.499 129C367.799 127.4 368.999 125.8 370.299 124.1C372.299 121.6 374.399 119.1 376.399 116.5C377.299 115.4 378.199 114.2 378.699 112.9C379.599 110.7 380.799 108.6 382.499 106.9C382.699 106.7 382.899 106.4 382.999 106.1C384.899 102.5 386.799 98.9 388.799 95.4C390.299 92.7 391.999 90.1 393.399 87.4C394.299 85.7 394.999 83.7 395.499 81.8C395.999 80 394.999 78.8 393.099 78.3C392.699 78.5 392.299 78.4 391.699 78.3Z" fill="black"/>
<path d="M139.999 137.9C135.499 136.5 131.199 135.2 126.799 133.8C127.399 132.8 127.999 132.3 129.099 132.3C131.899 132.3 134.199 131.2 135.999 129C137.899 126.7 139.799 124.3 141.799 122C142.899 120.7 144.099 119.6 145.099 118.3C146.899 115.6 148.599 112.8 150.399 110.1C152.499 106.7 154.599 103.3 156.699 100C158.699 96.8 160.699 93.6001 162.599 90.3001C165.399 85.4001 166.799 80.1 167.599 74.6C167.899 72.6 168.299 70.6 168.499 68.5C168.699 66.8 167.699 65.2 166.099 64.5C165.699 64.3 165.399 64.2 164.999 64C164.999 63.6 165.099 63.2001 164.999 62.9001C164.699 62.0001 165.199 61.5 165.999 61.3C171.099 60.1 176.199 59 181.399 57.8C181.499 57.8 181.599 57.8001 181.799 57.9001C182.299 59.8001 182.299 61.8001 181.899 63.9001C181.499 66.1001 180.999 68.4 180.599 70.6C179.799 74.7 179.099 78.7001 178.299 82.8001C177.699 85.6001 176.299 88.1 174.799 90.6C172.299 94.8 169.899 99.2001 167.299 103.4C163.599 109.3 160.299 115.4 155.799 120.7C150.999 126.4 146.199 132 140.999 137.3C140.499 137.4 140.299 137.6 139.999 137.9Z" fill="black"/>
<path d="M136 120.7C133.4 120.4 131.2 120.4 129 119.9C127.4 119.6 126.5 120 125.6 121.2C124.5 122.7 123.1 124.1 122.1 125.7C120.8 127.6 119.2 128.3 117 127.8C116.5 127.7 116.1 127.7 115.5 127.6C115.6 126.4 115.6 125.3 115.7 124.2C116 121.5 115.4 118.9 114 116.5C113.4 115.5 113.4 114.4 114.2 113.2C116.2 110.2 118 107.1 119.9 104.1C120.2 103.7 120.5 103.3 120.8 103C121.8 102 122.8 101 123.8 100.1C124.9 99.1 126.1 98.4 127.1 97.2C129.2 94.6 131.7 92.2 134 89.6C135.9 87.5 137.8 85.5 139.4 83.3C141.3 80.5 143.2 77.6 144.6 74.5C145.9 71.6 147.9 70.7 150.9 71.4C150.7 73 150.5 74.7 150.2 76.3C149.9 77.9 149.6 79.6 149.2 81.2C148.8 82.7 148.4 84.2 147.8 85.7C147.2 87.2 146.4 88.6 145.5 90.4C149.2 89.6 152.5 89 156.1 88.2C149.4 99.3 142.7 110 136 120.7Z" fill="black"/>
<path d="M481.9 493C476.6 491.5 471.5 490.1 466.5 488.7C466.4 488.7 466.3 488.6 466.3 488.6C461.7 487.4 459.9 488.3 458.2 492.6C457.9 493.3 457.7 494 457.6 494.7C457 497.4 456.3 500.1 454.9 502.6C454.6 503.2 454.3 503.9 454.2 504.6C453.9 505.9 453.6 507.3 453.2 508.9C461.2 508.3 469.5 507.7 477.6 506.3C478.2 506.8 478.4 507.4 477.8 508C476.7 509 475.6 510.1 474.3 510.9C472.4 512.2 470.2 513 468.6 514.8C468.1 515.3 467.2 515.6 466.5 515.9C459.7 518.3 452.7 520 445.4 519.7C444.1 519.7 442.7 519.4 441.4 519.2C440.3 519 439.8 518.5 439.9 517.2C440 516.4 440 515.3 439.6 514.6C438.7 513.2 439.1 512.1 439.7 510.8C440.7 508.9 441.3 506.9 441.7 504.8C442.1 502.7 443.5 500.8 444.7 498.9C445.7 497.3 447 495.8 448.1 494.3C452.3 488.3 454.5 481.8 453.4 474.5C453.1 472.7 453.7 471.2 454.8 469.9C461.5 462 473.1 461.3 480.7 468.4C481.9 469.5 482.4 470.6 482.4 472.3C482.5 475.5 483 478.8 483.4 482C483.8 485.3 484.2 488.5 482.8 491.6C482.7 492.1 482.2 492.6 481.9 493ZM461.2 481.9C461.2 484.4 461.4 484.8 463.7 485.5C466.3 486.2 468.9 487 471.6 487.4C475.8 488.1 477.4 486.4 476.8 482.2C476.8 482 476.7 481.9 476.7 481.7C476.7 479.2 475.8 477.1 474.5 475C473.9 474.1 473.8 473.3 474.2 472.3C474.9 470.7 474.3 468.6 472.9 467.5C471.7 466.5 469.2 466.2 468 467.1C466.4 468.3 464.8 469.7 464.5 472C464.4 472.7 463.9 473.3 463.6 473.9C462.3 476.5 461.2 479 461.2 481.9ZM450.9 517.4C451.4 517.5 451.9 517.6 452.3 517.5C456.1 517.3 459.7 516.8 461.8 512.9C462.1 512.3 462.9 511.8 463.5 511.3C464.3 510.7 465 509.9 465.6 508.7C461.6 509.1 457.9 509.5 454.2 509.7C452 509.8 450.7 510.8 450 512.3C450.3 514.3 450.6 515.7 450.9 517.4Z" fill="black"/>
<path d="M247.699 417.7C248.399 416.9 248.899 416.3 249.799 415.3C246.399 414.9 244.299 413.3 241.799 411.5C245.299 410.4 247.599 410.5 251.699 411.5C251.999 412.2 252.199 412.9 252.599 413.5C252.899 414.1 254.199 414.2 253.299 415.2C253.699 415.4 254.099 415.8 254.499 415.9C257.099 416.4 259.699 416.8 262.199 417.3C271.499 419.1 280.799 421.1 290.099 422.9C293.999 423.6 297.499 425.3 301.099 427C303.799 428.3 306.499 429.7 309.099 431.2C312.199 433 312.799 435.4 311.599 438.7C309.799 443.5 306.199 446.2 301.399 447.2C296.699 448.2 291.799 448.9 286.999 449.5C280.299 450.3 273.499 450.7 266.699 450.4C264.499 450.3 262.299 449.9 260.099 449.6C259.699 449.5 259.399 449.3 259.099 449.1C259.099 448.8 258.999 448.6 258.999 448.5C260.499 446.5 260.399 444.4 259.999 442.1C259.799 440.5 259.899 438.8 260.199 437.2C260.899 434.2 260.299 431.6 258.299 429.3C256.799 427.6 255.399 425.8 253.799 424.1C253.199 423.4 252.299 422.9 251.499 422.4C249.599 421.2 247.899 420.1 247.699 417.7ZM266.499 449.2C267.599 449.3 268.599 449.6 269.699 449.5C273.299 449.2 276.999 448.9 280.599 448.4C286.799 447.5 292.299 445.5 295.599 439.6C296.499 438 297.699 436.4 296.599 434.6C295.799 433.2 294.599 431.7 293.199 431C288.599 428.6 283.999 426.2 279.199 424.3C273.499 422 267.299 421.5 261.199 420.7C260.099 420.6 258.699 419.9 257.499 421.2C257.999 421.6 258.499 422 258.899 422.4C260.399 423.5 261.999 424.4 263.299 425.5C265.599 427.5 267.799 429.7 269.899 432C271.099 433.3 271.399 434.9 270.999 436.6C270.699 438 270.299 439.4 270.099 440.8C269.699 443.8 268.699 446.5 266.299 448.4C266.499 448.5 266.499 448.6 266.499 449.2Z" fill="black"/>
<path d="M313.2 233.2C311.3 234.6 309.3 234.9 307.3 234.9C295.1 234.9 283.4 232.2 272.4 227C267 224.4 261.7 221.5 255.9 220C254.9 219.7 254 219.1 253.1 218.6C251.6 217.7 250.9 216.4 251 214.6C251.1 212.4 251 210.3 251.2 208.1C251.5 204.6 253.1 201.5 255.5 199C258.4 196.1 261.6 193.6 264.7 191C265.9 190 267.3 189.1 268.5 188.1C271.9 185.4 275.8 184.1 280.1 183.5C284.2 183 288.3 182.8 292.7 183.8C291 189 290.7 194.6 287.9 199.6C286.6 202 286.2 204.9 286.5 207.8C286.7 209.9 286.8 211.9 286.8 214C286.8 216.2 287.4 218 289.2 219.4C291.4 221.2 293.8 222.9 296.4 224.2C299.9 226 303.3 227.9 306.8 229.7C308.9 230.9 311 232 313.2 233.2ZM282.3 194.9C282.1 194.6 281.8 194.4 281.6 194.1C279.1 190.6 275.4 190.1 272.2 191.5C266.9 193.9 262.8 197.6 260.4 203C259.7 204.5 259.5 206.1 259.7 207.9C260 210 260.2 212.2 260.1 214.3C260 217.4 261.4 219.2 264.1 220.3C268.8 222.2 273.5 224.3 278.2 226.3C281.7 227.7 285.1 229.1 288.7 230.3C290.6 230.9 292.5 230.9 294.9 230.4C294.4 229.4 294.1 228.5 293.5 228.1C291.6 226.8 289.6 225.7 287.5 224.6C286.3 223.9 285 223.3 284 222.8C283.8 221.4 283.6 220.4 283.5 219.3C283.3 217.7 283.1 216.2 283 214.6C282.9 212.1 282.8 209.7 281.9 207.3C281.5 206.3 280.9 205.1 281 204.1C281.3 201 281.9 198 282.3 194.9Z" fill="black"/>
<path d="M443.6 606.8C446 609 448.1 610.8 450.2 612.7C450.5 612.9 450.6 613.3 450.8 613.6C448.7 615.8 447.2 616.1 444.8 615C444.4 614.8 443.9 614.6 443.5 614.5C439 613.8 435.1 611.6 430.9 610C429.2 609.4 428.7 608 427.8 606.8C426.7 605.3 427.1 603.9 427.7 602.3C428.3 600.8 428.9 599.3 428 597.5C427.4 596.2 427.8 594.6 428.8 593.3C430 591.7 431.4 590.2 432.2 588.5C433.3 586.1 434.8 584.1 436.1 581.8C436.8 580.6 437.6 579.3 438.5 578.2C440.4 575.8 440.2 573.1 438.1 569.8C436.5 567.3 434.1 565.7 431.5 564.4C430.7 564 429.9 563.5 429.1 562.7C429.6 562.6 430.1 562.4 430.6 562.5C435.8 563.7 441.1 564.7 446.2 566.2C449.4 567.2 451.9 569.7 454.2 572.2C455.8 574 455.3 575.5 453.8 578.4C453.2 579.4 452.5 580.4 451.8 581.3C450.4 583.1 449.6 585.3 448.8 587.4C448.2 588.9 447.3 590.4 446.3 591.7C444.5 594.1 444.4 595.4 445.9 597.9C446.8 599.4 446.8 600.7 445.5 601.9C443.9 603.5 443.7 605.3 443.6 606.8Z" fill="black"/>
<path d="M284.399 528.5C283.999 527.6 283.699 526.9 283.199 526C287.999 525.7 292.499 525 297.299 525.1C296.899 526 296.299 526.6 296.399 527.1C296.499 527.6 297.099 528.2 297.599 528.5C298.699 529.2 299.899 530 301.199 530.4C304.599 531.6 307.499 533.6 310.099 535.9C313.199 538.6 316.699 540 320.399 541.1C325.699 542.7 330.899 544.4 335.799 547C338.099 548.2 340.399 549.6 342.599 551C347.499 554.1 353.099 555.7 358.399 557.9C360.799 558.9 363.099 559.9 365.399 560.9C365.699 561 365.899 561.4 366.299 561.8C365.899 562 365.699 562.2 365.499 562.1C358.399 560.4 351.199 558.9 344.099 556.9C339.799 555.7 335.699 553.9 331.499 552.3C330.199 551.8 329.099 551.7 327.599 551.9C324.899 552.1 322.199 551.8 319.499 551.4C310.199 550 301.199 547.2 292.199 544.2C287.699 542.7 283.199 541.5 278.699 540.1C277.299 539.7 275.999 539.1 274.699 538.5C273.699 538.1 272.899 537.5 272.499 536.5C272.299 536 271.899 535.5 271.499 535.2C269.699 533.8 269.299 531.4 267.699 530C269.899 527.8 276.099 527.2 284.399 528.5ZM280.199 529.8C280.499 531.9 281.199 533.3 282.499 534.4C283.199 535 283.999 535.5 284.399 536.2C285.199 537.5 286.399 538.3 287.699 538.8C289.499 539.5 291.199 540.2 293.099 540.8C297.499 542.3 301.899 543.6 306.299 545.1C310.299 546.4 314.299 547.8 318.399 549C320.599 549.6 322.899 550.2 325.499 549.6C320.599 546.1 315.199 544 309.799 542.1C304.799 540.4 299.699 539.1 295.599 535.2C293.199 532.9 290.199 531.4 286.999 530.1C284.799 529.4 282.699 529.5 280.199 529.8Z" fill="black"/>
<path d="M327.4 518.8C326.3 520.8 324.7 521.5 322.6 521.6C321 521.7 319.5 522.2 318 522.7C317.3 522.9 316.8 523.5 316.1 524C317 525.4 318.3 525.7 319.5 526.2C320.8 526.8 322 527.5 323.3 528.2C324.4 528.8 325.5 529.6 326.7 530C330.2 531.3 333.6 532.9 336.3 535.3C340.5 539.1 345.7 540.5 350.8 542.2C355.5 543.8 360 545.8 364.3 548.3C369.3 551.3 374.6 553.7 380 555.9C381.9 556.7 383.7 557.7 385.5 558.8C386.9 559.6 387.6 561.1 387.5 562.7C387.3 565.2 388.6 566.7 390.5 567.7C393.5 569.2 396.6 570.5 399.7 571.7C401.4 572.4 401.8 572.6 402 574.8C400.4 575.4 398.8 575.3 397.1 574.9C392.5 574 388.5 571.7 384.3 569.8C382.4 568.9 380.6 567.9 378.8 566.9C376.2 565.6 374.3 563.5 373.3 560.8C372.9 559.6 372.2 558.8 371.2 558.3C369.4 557.3 367.5 556.3 365.6 555.5C360.3 553.3 355.4 550.6 350.5 547.7C346.5 545.3 342.2 543.7 337.7 542.3C334.4 541.2 331 540.1 327.7 538.9C326.1 538.3 324.9 537.3 323.6 536.2C321.3 534.3 318.7 532.5 316 531.4C312.3 529.9 309 527.5 305.5 525.8C303.6 524.9 303.6 523.5 305.4 522.4C309.9 519.5 314.9 517.8 320.1 517.1C321.8 516.9 323.6 516.9 325.3 517C326.7 517.2 326.7 517.3 327.4 518.8Z" fill="black"/>
<path d="M406.1 619.1C407.6 617.3 409.5 617.2 411.1 618.5C411.9 619.2 413 619.6 414.1 619.8C416.8 620.2 419.5 620.5 422.2 620.8C428.9 621.6 435.7 622.4 442.4 623.1C443.7 623.2 445 623.3 446.2 623.3C446.6 623.3 447.2 623.2 447.5 622.9C449 621.8 449.7 621.5 450.7 622.5C453.2 624.9 456.4 625.5 459.5 626.5C461.8 627.2 464.1 628.3 466.3 629.4C468.5 630.5 469.8 632.4 469.6 635.1C469.3 638.1 470.6 640.3 472.9 642.1C477.3 645.4 480.2 649.9 483 654.5C483.2 654.8 483.1 655.1 483.3 655.7C482.3 655.9 481.3 656.2 480.3 656.3C477.8 656.5 475.2 656.2 472.9 657.7C472.2 658.2 471 658.1 470.3 657.2C466.8 652.9 462.5 649.5 457.9 646.4C455.9 645.1 454 643.6 452.1 642.1C449.8 640.3 448.4 638.2 449.3 635.1C450 632.9 449 631.3 447.1 630C444.4 628.2 441.4 627 438.3 626.4C432 625.1 425.6 624 419.3 622.8C415.9 622.2 412.4 621.5 409 620.7C407.8 620.5 406.6 620.3 406.1 619.1Z" fill="black"/>
<path d="M235.3 269.2C237.9 268.8 240.5 268.4 243.1 268.2C244.3 268.1 245.5 268.4 246.6 268.6C248.2 268.9 249.9 269.3 251.5 269.7C253.8 270.3 253.9 270.7 252.8 273.1C254.5 273.7 256.1 274.2 257.7 274.7C259.1 275.1 259.7 276 260.4 277.4C262.1 281.3 263.7 285.3 266.8 288.5C267.6 289.3 268.3 290.3 269 291.3C270.4 293.2 270.7 295.1 270.4 297.5C270.1 300.3 269.8 303.1 269.7 305.9C269.7 306.7 270.2 307.7 270.8 308.4C273.3 311.3 276 314.1 278.5 317.1C282 321.2 286.1 324.5 291.1 326.6C297.8 329.4 304.7 331.2 311.7 332.8C312.6 333 313.5 333.2 314.4 333.8C309.6 333.8 304.9 333.9 300.1 333.7C298.8 333.7 297.6 332.9 296.3 332.5C294.6 331.9 292.8 331.3 291.1 330.8C286.4 329.2 281.7 327.8 277.1 326C271.8 323.9 267.7 320.1 264.3 315.5C262.5 313.1 260.3 311 258.3 308.8C257.4 307.9 256.9 307.1 257.1 305.7C257.4 303.3 257.3 300.9 257.4 298.4C257.5 297.2 257.5 295.9 258.1 294.9C259.7 292.2 258.9 289.7 257.9 287.1C257 284.8 255.8 282.7 255.6 280.1C255.5 278.8 254.9 277.5 254.3 276.3C254 275.7 253.4 275.2 252.7 275C251.4 274.5 250 274.1 248.6 273.8C246.8 273.4 245 273.1 243.6 271.7C243 271.1 241.8 271.1 240.9 270.8C239 270.3 237.1 269.9 235.1 269.4C235.2 269.5 235.3 269.4 235.3 269.2Z" fill="black"/>
<path d="M387.6 293.7C385.2 291.7 382.3 290.2 379.3 288.7C376.2 287.1 373.1 285.4 370 283.7C368.2 282.7 366.9 281.2 366.1 278.8C367.2 279.2 368.1 279.3 368.7 279.8C373.4 283.5 378.9 285.7 384.3 288C388.1 289.6 392 291.1 395.8 292.7C398.5 293.8 398.9 294.4 398.7 297.2C398.5 300.1 397.9 303 397.7 305.9C397.6 306.9 397.8 308.1 398.3 308.8C399.4 310.2 400.7 311.5 402.1 312.7C404.7 315.1 407.2 317.5 409.9 319.7C412.9 322.1 416.4 323.2 420.3 322.9C421 322.8 421.8 322.5 422.4 322.1C423 321.7 423.2 321 422.7 320.2C421.1 317.5 420.3 314.5 419.8 311.5C419.8 311.3 419.7 311 419.6 310.9C417.8 308.4 418.5 305.8 419.1 303.1C419.3 302.3 419.4 301.4 419.4 300.5C419.5 299.2 419.4 297.8 419.6 296.5C419.8 294.6 419.8 294.4 417.9 293.6C413.8 291.8 409.6 290.2 405.5 288.5C404.7 288.2 403.8 287.8 403.1 287.1C404.5 287.6 405.9 288 407.3 288.5C411.1 289.7 414.9 290.8 418.8 292C419.9 292.3 420.9 292.7 422 293.1C424.7 294.1 425.1 294.9 424.4 297.8C424.3 298.1 424.1 298.5 424.2 298.7C425.1 301 424 303.1 423.8 305.3C423.7 307 424.3 308.1 425.6 309.2C427.5 310.9 429.2 312.8 430.9 314.6C431.1 314.8 431.3 315 431.2 315.2C430.8 316.8 431.9 317.9 432.3 319.2C433.2 322 432.4 323.3 429.7 324.4C427.3 325.4 424.8 325.7 422.2 325.8C416.5 325.9 410.9 325.2 405.6 323.1C402.7 322 400.2 320.3 398.1 318.2C394.7 314.9 391.3 311.7 387.4 309C386.2 308.2 385.9 307 386 305.9C386.5 301.7 387.1 297.9 387.6 293.7Z" fill="black"/>
<path d="M55.299 257.8C63.199 258.1 71.099 259 78.899 260.2C95.199 262.6 111.299 266.4 127.499 269.7C131.399 270.5 135.299 271.5 138.899 273.3C139.699 273.7 140.499 274.1 141.199 274.6C142.999 275.9 143.099 277.6 141.499 279.3C139.199 281.7 136.599 283.7 133.499 284.7C123.699 287.9 114.199 286.9 104.899 282.4C103.799 281.9 102.799 281.2 101.999 280.3C98.999 277.1 95.099 275.6 91.099 274.2C82.599 271.2 73.799 269.7 64.999 268.1C58.899 266.9 52.799 265.8 46.899 263.6C45.699 263.1 44.499 262.4 43.399 261.7C42.299 261 42.399 260.1 43.599 259.5C44.199 259.2 44.799 259 45.399 258.9C48.699 258.5 51.999 258.1 55.299 257.8ZM52.499 260.1C53.599 260.8 54.199 261.3 54.999 261.7C56.699 262.4 58.399 263.2 60.099 263.7C67.299 266 74.699 267.7 82.199 269.1C89.699 270.6 97.199 272.3 104.299 275.2C106.399 276 108.299 277.3 109.699 279.1C113.799 284.4 122.699 286.7 128.799 279.7C130.499 277.7 130.499 276.1 128.199 274.8C125.799 273.5 123.399 272.1 120.799 271.5C114.899 269.9 108.899 268.7 102.899 267.4C92.299 265.1 81.699 262.8 71.099 260.7C66.699 259.8 62.099 259.5 57.599 259C56.099 258.8 54.499 258.9 52.499 260.1Z" fill="black"/>
<path d="M362.1 297.7C361.6 300.7 361.1 303.8 360.6 306.8C360.1 309.4 359.5 312.1 359.1 314.7C359 315.7 359.2 316.9 359.6 317.9C360.7 320.6 360.3 321.6 357.5 321.6C355.1 321.6 352.8 321 350.8 319.6C348.5 317.9 346.4 316 344.1 314.4C342.8 313.5 341.3 313 339.9 312.3C337.5 311 335.2 309.6 332.8 308.5C330.6 307.5 329.5 305.5 330.7 303C331.2 301.9 331.4 300.8 330.9 299.6C330.2 297.8 331.1 296.2 332.1 294.7C333.5 292.5 333.6 292.2 331.7 290.5C330.4 289.3 329 288.2 329.1 286.2C329.1 285.7 328.4 285.2 328.1 284.7C327.3 283.5 327.4 282.7 328.8 282.3C330 281.9 331.4 281.7 332.8 281.8C335.9 282 338.6 283.4 341.4 284.6C345 286.2 348.6 287.6 352.2 289.2C354.7 290.3 357.1 291.5 359.5 292.8C361.3 293.8 362.5 295.3 362.1 297.7ZM333.3 287.4C334.3 288.3 334.8 288.8 335.5 289.4C337.1 290.6 338.7 291.8 340.2 293C341.4 294 342 295.1 341.2 296.7C340.9 297.4 340.7 298.4 340.9 299C341.6 300.7 341.2 302.2 340.8 303.8C340.5 305 340.2 306.7 341.6 307.5C343.8 309 346.2 310.2 348.5 311.5C348.9 311.7 349.4 311.9 349.8 312C351.8 312.5 352.9 311.4 352.3 309.4C352 308.3 352 307.1 351.8 306C351.5 304.4 352.4 303.2 352.4 301.8C352.5 299.5 352.1 297.1 353.2 294.8C354 293.2 353.9 292.8 352.3 291.9C349.9 290.5 347.5 289.2 344.9 287.9C341.8 286.4 338.5 286.6 335.3 286.7C334.9 286.8 334.4 287.1 333.3 287.4Z" fill="black"/>
<path d="M163.6 120.9C164.4 119.1 165.4 118 167.3 117.7C169.9 117.3 171.5 115.4 172.7 113.4C174.6 110.3 176.2 107 178 103.8C179.1 102 179.3 100.3 177.4 98.5001C178.1 97.5001 179 96.7001 179.5 95.7001C180.1 94.5001 180.4 93.2001 181.5 92.3001C182 91.9001 182.4 91.4001 182.9 91.1001C188.3 87.9001 194 85.3001 199.9 83.2001C200.8 82.9001 201.6 82.5001 202.6 82.1001C202.4 85.0001 201.3 87.3001 200 89.6001C197.3 94.3001 194.6 99.1001 191.8 103.8C190.5 106.1 188.9 108.2 187.5 110.4C186 112.7 184.8 115.1 183.2 117.3C181.3 119.9 179.2 122.2 177.2 124.7C176.5 125.6 175.7 125.6 174.7 125.2C171.1 123.7 167.4 122.4 163.6 120.9Z" fill="black"/>
<path d="M531.399 288.7C525.999 288.5 520.599 288.4 515.099 288.1C513.799 288 512.599 287.6 511.399 287.3C511.099 287.2 510.599 287 510.599 286.9C510.299 285.1 508.599 285 507.499 284.2C504.699 282.3 501.899 280.5 499.099 278.7C495.099 276.2 490.999 273.8 486.899 271.5C485.599 270.8 484.099 270.4 482.599 270.1C481.299 269.8 480.399 269.3 479.699 268.2C479.299 267.5 478.699 267 478.199 266.4C478.299 266.2 478.299 266 478.399 265.9C480.099 264 479.899 263.5 477.499 262.9C472.399 261.6 467.399 260 462.699 257.4C461.699 256.8 460.699 256.1 459.299 255.2C463.499 252.9 467.399 250.8 471.499 248.5C472.299 249.5 473.299 250.7 474.199 252C475.899 254.7 478.199 256.6 481.099 258C482.499 258.7 483.999 259.2 485.499 259.9C487.699 260.9 489.899 261.8 491.899 263.1C493.699 264.3 495.199 265.9 496.699 267.6C499.199 270.4 502.099 272.5 505.299 274.4C508.499 276.4 511.699 278.3 514.699 280.6C518.799 283.8 523.599 285.5 528.499 287.2C529.499 287.6 530.599 287.9 531.599 288.3C531.499 288.5 531.499 288.6 531.399 288.7Z" fill="black"/>
<path d="M475.8 660.2C475.3 660.8 475.1 661.1 474.8 661.4C472.8 663.7 472.8 663.6 469.8 662.6C467.6 661.9 465.3 661.8 463 661.6C455.9 660.9 448.9 660.3 441.8 659.5C440.5 659.4 439.5 659.6 438.5 660.4C438.8 661.8 440 661.9 441 662.1C443.1 662.5 445.2 662.9 447.4 663C453.5 663.4 459.7 663.8 465.8 664.2C468.9 664.4 472 664.7 475.2 665C473 667.7 471.9 668 469 667.1C467.9 666.8 466.7 666.6 465.5 666.5C459.7 666.1 453.9 665.9 448.1 665.5C444.1 665.2 440.2 664.7 436.2 664.1C435.1 663.9 433.9 663.4 432.9 662.9C431.8 662.3 431.7 661.3 432.9 660.7C434.3 660 435.8 659.6 437.4 659C436.4 658.6 435.3 658.2 434.2 657.8C432.8 657.3 431.9 656.4 431.2 655C430.1 652.6 428.6 650.4 427.5 648C426.9 646.7 426.4 645.3 426.4 643.9C426.3 640.6 424.8 638 422.7 635.6C419.8 632.2 417 628.8 414.1 625.3C413.9 625 413.7 624.7 413.4 624.3C414.3 623.7 415.1 624.2 415.7 624.5C419 626.1 422.2 627.9 425.5 629.5C428 630.8 429.1 632.7 429.2 635.6C429.4 639.5 431.7 642.4 434.7 644.7C436.7 646.2 438.9 647.6 441 649.1C442.9 650.5 444.7 651.8 446.5 653.4C447.9 654.7 449.5 655.5 451.3 656C457 657.8 463 658.6 468.9 659.4C471 659.6 473.2 659.9 475.8 660.2Z" fill="black"/>
<path d="M369.8 180.8C370.9 182.1 371.1 183.4 370.8 184.7C370 187.6 369.2 190.5 368.2 193.4C367.7 194.9 367.3 196.5 366.4 197.8C363.8 201.9 363.4 206.3 364 210.9C364.1 212 364.1 213.1 364 214.2C363.9 215.9 364.3 217.4 365.5 218.6C366.2 219.3 367 220 368.2 221.1C366.5 220.9 365.2 220.8 363.9 220.6C359.5 219.8 355.1 218.9 350.8 218.1C349.3 217.8 348.1 217.1 347.6 215.6C348.2 214.3 348.1 212.7 349.4 211.6C349.7 211.4 349.8 210.8 349.7 210.5C349.3 207.8 351.2 206.2 352.7 204.4C353.6 203.4 354.1 201.9 354.4 200.6C354.7 199.4 355.2 198.4 355.8 197.4C357.7 194.5 360 192.1 362.1 189.4C362.7 188.6 363.1 187.6 363.6 186.7C365.1 184 367.4 182.5 369.8 180.8Z" fill="black"/>
<path d="M564.6 484C566.1 484.4 567.6 484.9 569.1 485.3C568.8 489.9 564.3 501.9 562.2 503.8C562.5 504.6 562.8 505.5 563.1 506.4C563.5 507.7 563.1 508.5 561.9 508.7C559.7 509 557.6 509.5 555.5 507.8C553.3 506 550.3 505.9 547.6 505.5C546.8 505.4 546 505.3 545.3 505.1C544.7 504.9 544.4 504.4 544.7 503.6C546 500.7 547.7 498 548.5 494.9C548.6 494.4 549.3 493.9 549.8 493.8C555.8 493 560.1 489.5 563.7 485C563.9 484.7 564.2 484.4 564.6 484Z" fill="black"/>
<path d="M365.9 397.3C368.5 397.4 371 397.5 373.5 397.7C376.5 397.9 379.5 398.3 382.5 398.5C383.7 398.6 384.5 399.1 385 400.1C385.5 401.1 386.1 402.1 386.3 403.2C386.6 404.8 387.6 405.8 388.7 406.6C390.8 408 393 409.3 395.2 410.6C397.6 412 398.8 414 399 416.9C398.2 417.1 397.5 417.3 396.8 417.4C395 417.7 393.2 418.1 391.4 418.4C389.2 418.8 387.3 418.2 385.5 417C384.4 416.3 383.2 415.5 382.1 414.7C381.3 414.1 380.6 413.3 379.8 412.7C378.8 411.8 377.5 411.1 376.9 410C376.3 408.8 375.6 407.7 374.7 406.8C373.9 406 373.3 405.1 372.5 404.3C371.5 403.2 370.5 402 369.2 401.2C367.7 400.2 366.5 399.2 365.9 397.3Z" fill="black"/>
<path d="M341.199 365C338.199 364.8 335.799 363.6 333.999 361.5C332.499 359.8 331.199 358 330.099 356.1C328.899 354.2 329.099 352.1 329.699 350.1C329.999 349.1 330.499 348.2 330.999 347.3C332.399 344.4 331.899 342.3 329.099 340.6C326.999 339.3 324.699 338.4 322.499 337.2C321.899 336.9 321.299 336.6 320.799 335.9C322.699 335.9 324.699 335.7 326.599 335.9C329.499 336.2 332.399 336.8 335.299 337.3C336.299 337.5 337.299 337.9 338.199 338.3C340.699 339.4 342.199 341.3 342.199 344C342.199 345.9 342.099 347.8 341.599 349.6C340.899 352 340.999 354.2 342.299 356.2C343.799 358.5 343.699 360.6 342.299 362.9C341.899 363.4 341.599 364.1 341.199 365ZM336.799 345.4C336.799 344.6 336.799 343.8 336.799 342.9C336.599 343.7 336.599 344.4 336.599 345.2C336.599 345.2 336.699 345.3 336.799 345.4Z" fill="black"/>
<path d="M317 184.2C316.6 185.8 316.4 186.9 316.1 187.9C315.7 189.6 315.4 191.3 314.8 192.9C314 195.2 313.2 197.6 312.1 199.7C310.7 202.4 310.6 205.2 310.7 208.1C310.8 210.2 311.2 212.2 311.1 214.3C311 216.6 311.9 218.2 313.6 219.7C316.1 221.8 318.7 223.5 321.7 224.8C324.2 225.9 326.6 227.3 329.4 228.8C327.2 229.2 324.7 228.8 322.9 227.9C316.8 224.9 310.7 222 304.6 219C301.7 217.6 301 216.3 301.4 213.1C301.6 211.7 301.9 210.3 301.8 208.8C301.7 205 303.7 202 305.3 198.8C307.1 195.2 309.2 191.8 310.9 188.1C311.5 186.8 312.2 185.8 313.6 185.4C314.6 185.3 315.6 184.8 317 184.2Z" fill="black"/>
<path d="M364.2 528.2C364.8 527.9 365.3 527.5 366.2 527C364.6 526.3 363.3 525.8 362 525.2C357.6 523.3 357.4 521.1 361.2 518.2C361.8 517.7 362.5 517.3 363.1 516.8C363.7 516.4 364.4 515.9 364.6 515.3C365.3 513.4 366.3 511.6 368.3 509.8C366.5 509.6 365.3 509.4 364.1 509.3C364.1 509.2 364.1 509 364.1 508.9C364.8 508.8 365.4 508.6 366.1 508.6C370.8 508.1 375.5 507.7 380.1 507.1C382 506.9 383.9 506.4 385.7 506C386.6 505.8 387.1 505.8 387.1 506.9C387 507 386.9 507.2 386.7 507.2C383 507.3 380.8 509.6 378.7 512.1C378.4 512.5 378.1 512.9 378.1 513.3C378.1 515.3 376.7 516.2 375.3 517.2C374.3 517.9 373.2 518.7 372.3 519.5C370.6 521 370.7 522.7 372.7 523.8C374.7 524.9 376.9 525.7 379 526.6C379.4 526.8 379.8 527 380.1 527.5C374.8 527.8 369.6 528.2 364.3 528.5C364.3 528.5 364.2 528.4 364.2 528.2Z" fill="black"/>
<path d="M495.1 446.6C495.9 446.2 496.5 445.9 497.2 445.7C498.8 445.1 500.5 444.5 502.1 443.9C504.4 443 506.9 443.2 509.2 443.7C513.7 444.5 517.9 446.1 521.8 448.5C523.6 449.6 525.4 450.6 527.3 451.5C528.4 452 528.9 452.7 528.6 453.9C528.5 454.3 528.5 454.8 528.7 455.2C529.1 456.4 529.6 457.5 530.1 458.8C525.7 460.4 521.4 460.2 517.5 458.3C512.5 455.9 507.4 453.6 501.9 452.3C499 451.6 498.1 450.7 495.1 446.6ZM518.3 452.6C518.3 452.3 518.4 452.1 518.4 451.8C513.8 449.4 509.5 446.5 504.1 445.4C503.6 445.6 502.8 445.8 502 446.2C501.5 446.4 500.9 446.9 500.9 447.3C500.9 447.8 501.3 448.4 501.7 448.9C501.9 449.1 502.2 449.2 502.5 449.4C506.8 451 511.1 452.3 515.7 452.7C516.6 452.8 517.4 452.7 518.3 452.6Z" fill="black"/>
<path d="M546.1 286.4C544.8 286.4 544 286.5 543.2 286.4C536.9 285.6 530.9 284 525.7 280C522.6 277.5 519.1 275.5 515.8 273.3C514.9 272.7 514.2 272 513.3 271.4C512.1 270.5 512 269 511.8 267.8C511.7 266.5 513.2 265.5 514.5 266C516.7 267 518.8 268 520.9 269.2C524.9 271.5 528.9 273.8 532.8 276.3C537 279 541 282.1 545.1 285C545.5 285.1 545.6 285.5 546.1 286.4Z" fill="black"/>
<path d="M119.2 93C114.7 101.8 109.9 110.4 104.1 118.4C101.8 117.7 100 116.8 98.5003 115.3C97.4003 114.2 97.2003 113.6 98.0003 112.2C98.9003 110.7 99.8003 109.2 100.8 107.8C101.9 106.3 103.1 104.8 104.4 103.3C104.8 102.8 105.6 102.6 106.1 102.1C109.1 99.3 112.8 97.6 116.1 95.4C117.2 94.8 118.2 93.9 119.2 93Z" fill="black"/>
<path d="M378.1 267.8C369.6 266.4 361.5 263.7 352.5 262.5C353.2 263.6 353.5 264.2 353.9 264.7C354.3 265.3 354.7 265.9 355.1 266.5C352.9 266.7 336 259.8 334.5 258C335.9 256.7 337.7 256.6 339.3 256.7C342.9 256.9 346.5 257 350 257.7C359.7 259.5 368.9 262.8 377.6 267.5C377.7 267.5 377.9 267.7 378.1 267.8Z" fill="black"/>
<path d="M192.799 69.4999C193.499 65.5999 194.299 62.0999 197.999 60.2999C200.399 59.0999 202.999 59.2999 205.099 61.2999C206.599 62.6999 206.799 64.8999 206.299 66.8999C205.599 69.8999 203.999 72.4999 201.599 74.4999C200.499 75.3999 198.799 75.8999 197.399 75.7999C195.599 75.7999 193.999 74.9999 193.699 72.7999C193.499 71.5999 193.099 70.4999 192.799 69.4999Z" fill="black"/>
<path d="M455 595C455.6 594.7 456.1 594.3 456.7 594C458.2 593 459.7 592.2 461.1 591.1C463.5 589.3 464.5 586.7 464.7 583.9C464.8 582 464.8 581.9 463.1 579C463.5 577.8 464.1 577.5 465.4 578.1C468.1 579.3 470.8 580.5 473.5 581.5C475.6 582.3 476.7 584 477.8 585.8C478.4 586.8 477.9 587.9 476.7 588.5C475.2 589.3 473.7 590.1 472.1 590.6C466.8 592.3 461.4 593.9 456.1 595.5C455.8 595.6 455.5 595.5 455.3 595.5C455.1 595.3 455 595.2 455 595Z" fill="black"/>
<path d="M500.8 64.6C497.7 64.6 494.7 61.7 494.9 58.7C495.2 55.2 497.5 53 501.2 52.7C504.4 52.5 507.1 55.3 507 58.7C506.8 62.5 504.2 64.4 500.8 64.6Z" fill="black"/>
<path d="M442.1 560.1C439.9 560.8 438 560.3 436.1 559.6C433.8 558.8 431.7 557.8 429.4 557C424.4 555.1 419.3 553.4 414.3 551.5C412.4 550.8 410.7 549.8 409 548.8C408.3 548.4 407.8 547.9 407 547.2C408.9 546.4 410.3 546.9 411.7 547.3C418 549.5 424.4 551.7 430.7 554C433.6 555.1 436.5 556.2 439.4 557.5C440.5 558 441.8 558.4 442.1 560.1Z" fill="black"/>
<path d="M367.9 390.2C366 389.8 364.3 389.5 362.8 389C359.7 387.9 356.6 386.6 353.5 385.4C353.1 385.3 352.8 385.1 352.4 384.9C350.5 383.7 350.4 383.3 351.5 381.3C353.2 378 353.9 377.6 357.2 379.3C359.2 380.3 361 381.8 362.9 383.1C363.6 383.5 364.2 384 364.8 384.5C366.1 385.5 367.4 386.6 368.7 387.7C369.2 388.1 369.4 388.9 369.7 389.5C369.1 389.6 368.4 389.9 367.9 390.2Z" fill="black"/>
<path d="M403.2 273.8C404.1 274.1 405.2 274.2 406 274.7C408.2 276 410.4 277.3 412.4 278.9C417.9 283.6 424.3 286.2 431.1 288.2C433.9 289 436.8 289.8 439.6 290.6C440.1 290.8 440.6 291 441.1 291.5C440.3 291.6 439.4 291.9 438.6 291.7C432.3 290.1 425.9 288.5 419.7 286.6C416.5 285.7 413.3 284.6 410.7 282.3C409.2 280.9 407.9 279.3 406.5 277.9C405.3 276.7 404.1 275.6 402.9 274.5C403 274.3 403.1 274 403.2 273.8Z" fill="black"/>
<path d="M166.5 128.8C167 128.8 167.5 128.7 167.9 128.8C169.9 129.1 170.7 130.6 169.9 132.5C169 134.9 166.8 135.8 164.8 136.9C162.9 137.9 160.9 138.2 158.8 138.1C157.5 138 156.2 137.7 155.7 136.3C155.2 134.9 156 133.8 156.8 132.9C158.3 131.2 160.4 130.3 162.5 129.6C163.8 129.2 165.1 129 166.4 128.8C166.5 128.7 166.5 128.8 166.5 128.8Z" fill="black"/>
<path d="M341.5 219.1C338.2 219 335.5 218.2 332.8 217C332 216.7 331.2 215.9 331.7 214.7C332.1 213.7 331.7 212.4 333.1 211.9C333.4 211.8 333.5 211.1 333.5 210.6C333.8 208.3 334.7 206.4 336.7 205.2C338 204.3 338.8 203.1 339.3 201.7C339.7 200.6 340.3 199.6 341.1 198.8C340.9 199.4 340.7 200 340.5 200.5C339.1 203.9 339.1 207.4 340 211C340.2 211.7 340.3 212.5 340.2 213.1C339.6 215.3 340.2 217.1 341.5 219.1Z" fill="black"/>
<path d="M377 530.6C379.4 529.2 381.4 529.6 383.5 529.8C384.4 529.9 385.4 530.2 386.3 530.4C389.6 530.9 391.8 532.7 392.6 536C390.8 538.5 389.7 539 387 537.8C384.3 536.6 381.8 535.1 379.3 533.5C378.4 532.9 377.9 531.7 377 530.6Z" fill="black"/>
<path d="M509.7 262.5C508 262.1 506.3 261.8 504.8 261.3C501.3 260.2 497.8 259.2 494.4 257.9C493 257.4 491.6 256.7 491 255.1C490.7 254.1 490.7 253.2 491.3 252.4C491.9 251.6 493 251.4 493.9 251.8C495.1 252.2 496.3 252.7 497.4 253.3C500.9 255.3 504.4 257.4 507.8 259.6C508.8 260.2 509.9 260.6 509.7 262.5Z" fill="black"/>
<path d="M344.7 534.5C345.5 534.9 346.3 535.2 346.9 535.7C350.1 538.5 354.1 539.7 357.9 541.2C360.8 542.3 363.7 543.4 366.6 544.6C367.8 545.1 368.9 545.9 370.4 546.7C367.7 546.9 344.1 539.8 341.4 538.1C342.5 536.9 343.5 535.8 344.7 534.5Z" fill="black"/>
<path d="M198.1 258.1C199.7 258.1 201.2 257.9 202.8 258.1C210.9 259.4 218.8 261.5 226.6 264.2C226.9 264.3 227.1 264.5 227.4 264.7C223.1 266.2 201.9 261.6 198.1 258.1Z" fill="black"/>
<path d="M462.699 237.8C464.199 236.6 465.799 237.2 467.199 237.4C472.499 238 477.699 239.5 482.699 241.3C483.199 241.5 483.699 241.8 484.099 242.1C484.299 242.2 484.399 242.5 484.799 243C483.799 243.2 482.999 243.6 482.299 243.4C477.199 242.4 472.199 241.3 467.099 240.2C465.399 239.8 463.899 239 462.699 237.8Z" fill="black"/>
<path d="M82.3005 115.3C80.6005 113.3 80.5005 112.8 81.6005 111.3C83.5005 108.7 85.4005 106.1 87.4005 103.7C88.3005 102.6 89.5005 101.8 90.5005 100.9C90.6005 101.2 90.7005 101.5 90.7005 101.7C90.6005 102.1 90.5005 102.5 90.3005 102.8C87.7005 106.9 85.1005 111 82.3005 115.3Z" fill="black"/>
<path d="M164.699 303.2C165.199 300.8 165.699 300.3 167.599 300.1C171.899 299.8 170.399 299.6 174.199 301.2C174.099 303.3 172.299 303.4 170.999 304.1C168.699 305.4 166.699 304.2 164.699 303.2Z" fill="black"/>
<path d="M458 616.6C460.9 613.8 465.1 614.2 468.9 617.5C466.6 618.5 460.7 618 458 616.6Z" fill="black"/>
<path d="M486.8 132.4C486.5 132.8 486.1 133.2 485.8 133.7C485.7 133.6 485.5 133.5 485.4 133.4C485.7 132.9 486.1 132.5 486.4 132C486.5 132.2 486.7 132.3 486.8 132.4Z" fill="black"/>
<path d="M483.399 189.7C483.299 190.1 483.099 190.5 482.999 190.9C482.899 190.9 482.799 190.8 482.699 190.8C482.799 190.4 482.899 190 483.099 189.5C483.099 189.6 483.199 189.6 483.399 189.7Z" fill="black"/>
<path d="M484.9 112.4C485.2 112.1 485.5 111.8 485.7 111.5C485.8 111.6 485.9 111.7 486 111.7C485.8 112 485.6 112.4 485.3 112.7C485.2 112.6 485.1 112.5 484.9 112.4Z" fill="black"/>
<path d="M280.1 345.1C280.1 344.6 280.1 344.2 280.1 343.7C280.1 343.7 280.1 343.7 280.2 343.7C280.1 344.2 280.1 344.6 280.1 345.1Z" fill="black"/>
<path d="M336.8 345.4C336.7 345.3 336.6 345.3 336.6 345.2C336.6 344.4 336.6 343.7 336.8 342.9C336.8 343.7 336.8 344.5 336.8 345.4Z" fill="black"/>
</svg>
