<svg width="681" height="900" viewBox="0 0 681 900" fill="none" xmlns="http://www.w3.org/2000/svg">
<path d="M0.0117188 719.837C4.66291 719.086 9.3141 718.307 13.9653 717.596C18.2508 716.94 22.5363 716.325 26.8218 715.751C33.5414 714.848 40.2611 714.001 46.9807 713.099C50.2263 712.661 53.4604 712.169 56.6831 711.144C55.8831 711.035 55.0946 710.925 54.2947 710.816C54.2947 710.666 54.2947 710.515 54.2947 710.365C63.0485 708.971 71.8366 707.836 80.5447 706.128C94.8183 703.312 109.058 700.278 121.743 691.079C125.937 688.031 130.554 685.816 134.725 682.713C136.073 681.716 137.125 679.228 137.388 677.26C137.776 674.239 138.759 671.997 140.656 670.097C142.77 667.992 143.422 665.696 142.816 662.06C142.233 658.52 143.273 654.583 143.742 650.838C144.21 647.107 144.861 643.416 145.433 639.698C145.159 639.835 144.873 639.972 144.599 640.108C143.559 638.796 141.456 637.183 141.65 636.24C142.53 632.003 139.765 629.542 138.782 626.303C136.553 618.908 136.519 617.733 141.433 612.744C145.227 608.889 149.204 605.294 153.067 601.535C153.398 601.221 153.444 600.51 153.741 600.114C155.067 598.323 155.901 596.027 158.815 597.394C161.146 598.487 163.752 597.216 165.443 594.81C167.866 591.366 170.083 587.771 170.323 582.919C170.449 580.431 171.374 578.312 173.58 577.096C179.203 574.02 184.848 570.959 190.253 567.405C193.568 565.232 197.442 562.922 198.002 557.81C198.39 554.242 197.922 550.401 197.282 546.834C196.013 539.835 195.785 533.274 199.59 527.082C201.201 524.458 201.704 521.178 199.796 518.239C196.322 512.881 197.362 507.605 199.647 502.151C201.121 498.638 202.253 494.934 203.567 491.325C204.058 489.999 204.424 488.496 205.213 487.457C208.87 482.591 210.378 476.426 212.664 470.713C215.658 463.209 218.823 455.923 224.377 450.224C228.229 446.273 231.04 440.833 234.103 435.872C236.891 431.334 239.199 426.372 242.091 421.93C244.982 417.487 246.719 412.526 248.399 407.373C249.336 404.475 251.096 401.905 252.742 399.417C254.422 396.875 256.341 394.524 258.273 392.241C260.833 389.207 262.673 386.049 262.353 381.306C262.238 379.502 263.598 377.384 264.592 375.661C266.821 371.807 266.809 366.312 270.752 363.701C271.472 363.223 271.986 362.225 272.741 361.883C281.186 358.015 287.826 351.317 294.339 343.95C298.031 339.781 299.779 334.737 301.916 329.803C303.848 325.347 307.162 322.846 309.984 319.579C312.887 316.216 315.31 312.212 317.653 308.234C318.144 307.4 317.458 305.446 317.138 304.065C316.498 301.304 315.698 298.598 315.024 295.836C313.71 290.506 311.767 285.626 308.91 281.156C306.773 277.808 306.956 274.978 309.516 272.149C312.876 268.431 316.578 265.137 320.064 261.569C321.298 260.298 322.27 258.671 323.504 257.387C325.058 255.76 326.749 254.298 328.143 252.999C328.635 251.427 328.909 249.773 329.618 248.461C331.149 245.604 330.898 242.871 330.475 239.631C330.109 236.802 331.126 233.617 331.869 230.705C333.023 226.181 333.972 221.766 333.537 216.873C333.252 213.565 334.097 210.107 335 206.662C335.206 207.387 335.4 208.098 335.606 208.822C335.835 208.754 336.074 208.685 336.303 208.617C335.994 207.086 335.686 205.542 335.469 204.462C337.023 199.965 338.52 195.632 340.017 191.285C340.154 190.875 340.269 190.465 340.429 190.069C341.183 188.128 342.508 186.228 342.611 184.232C342.851 179.557 341.194 175.443 338.371 172.231C333.675 166.873 328.692 161.87 324.144 156.334C322.647 154.503 321.698 151.619 321.264 149.035C320.201 142.666 319.664 136.187 317.401 130.159C316.818 128.614 316.441 126.947 316.156 125.293C316.087 124.869 316.773 124.268 317.104 123.748C314.99 123.434 315.001 121.657 315.127 119.744C315.173 119.115 314.956 118.472 315.001 117.844C315.07 116.9 315.276 115.985 315.413 115.055C315.173 115 314.933 114.946 314.681 114.891C314.464 115.534 314.247 116.176 314.03 116.818C313.916 116.805 313.813 116.791 313.698 116.791C314.144 112.458 314.601 108.111 315.047 103.779C314.841 103.615 314.647 103.45 314.441 103.286C314.441 103.751 314.453 104.216 314.453 104.681C314.156 104.585 313.87 104.476 313.573 104.38C312.281 96.1104 310.922 87.8683 309.722 79.5851C308.396 70.5091 303.265 63.5928 296.671 62.554C291.105 61.6792 286.42 64.2762 282.534 68.7595C281.654 69.7847 281.266 72.1357 281.494 73.6939C282.889 83.4396 283.197 93.4177 286.043 102.904C286.888 105.719 286.511 109.205 286.203 112.321C285.631 117.994 288.02 122.764 289.083 127.931C290.763 136.132 292.442 144.32 294.259 152.48C295.174 156.58 297.894 158.904 300.796 160.954C301.688 161.583 302.648 162.226 303.322 163.141C306.67 167.72 310.236 172.135 313.104 177.124C315.058 180.514 315.447 184.519 313.161 188.606C310.75 192.925 308.339 197.504 307.082 202.398C305.722 207.688 305.402 213.469 305.196 219.06C305.025 223.693 304.385 228.013 302.556 232.072C301.185 235.107 300.671 238.059 301.951 241.435C303.025 244.278 302.156 247.217 300.511 249.295C296.865 253.874 292.98 258.207 289.105 262.512C285.78 266.203 282.112 269.483 279.037 273.434C278.157 274.568 278.637 277.452 278.855 279.475C278.946 280.364 279.883 281.184 280.523 281.922C284.42 286.501 286.157 291.941 285.7 298.557C285.586 300.251 286.306 302.37 287.208 303.751C288.408 305.569 288.751 307.031 287.917 309.15C285.7 314.809 281.472 318.185 277.906 322.367C273.701 327.315 270.101 333.015 265.964 338.045C259.713 345.645 254.364 354.666 245.896 359.054C239.965 362.129 236.045 367.118 233.76 374.076C232.686 377.343 232.148 380.869 231.234 384.218C230.743 385.995 230.228 387.922 229.257 389.33C227.097 392.433 224.789 395.426 222.286 398.105C218.538 402.124 216.903 407.482 214.961 412.744C211.864 421.082 207.635 428.532 202.458 435.298C200.321 438.086 199.144 441.899 197.259 445.03C195.785 447.476 194.093 449.827 192.162 451.755C187.282 456.593 185.065 463.469 181.911 469.674C180.322 472.791 180.3 476.454 178.768 479.461C176.86 483.192 174.643 486.719 172.94 490.573C170.643 495.768 168.746 501.221 166.586 506.511C164.929 510.543 165.912 514.275 167.352 517.924C168.609 521.095 168.814 524.075 167.146 527.164C163.718 533.548 164.758 540.396 165.718 547.298C166.22 550.92 166.837 554.802 166.266 558.302C165.318 564.07 160.975 566.79 157.101 569.523C153.055 572.38 148.781 574.772 144.61 577.369C142.29 578.818 141.993 581.238 142.564 583.917C143.513 588.332 145.959 591.325 150.027 593.772C147.707 597.052 145.639 599.977 143.239 603.381C143.262 599.677 142.233 597.544 139.879 596.287C131.262 591.735 122.668 587.129 114.074 582.495C112.669 581.73 111.355 580.704 109.343 579.351C111.183 578.23 112.303 577.52 113.434 576.864C119.308 573.474 125.64 572.257 131.982 570.795C137.548 569.51 142.016 565.628 144.781 559.573C145.524 557.946 145.821 555.568 145.467 553.777C144.599 549.308 143.227 544.975 142.073 540.587C141.033 536.637 141.582 532.892 143.501 529.543C145.959 525.264 146.736 521.096 144.176 516.421C141.719 511.924 143.73 507.673 145.159 503.504C146.598 499.28 148.187 495.111 149.707 490.929C150.084 489.89 150.278 488.646 150.895 487.867C155.798 481.566 157.535 473.296 160.563 465.847C162.975 459.928 165.809 454.598 170.174 450.265C173.054 447.408 175.111 443.266 177.271 439.48C181.248 432.536 185.191 425.552 188.813 418.348C190.791 414.426 191.956 409.929 193.739 405.842C194.779 403.477 196.207 401.304 197.647 399.253C200.253 395.549 203.121 392.105 205.635 388.332C206.515 387.006 206.687 385.011 207.19 383.329C208.104 380.322 209.018 377.315 209.955 374.322C211.201 370.344 212.881 366.722 215.875 364.18C217.006 363.223 217.966 361.788 219.212 361.214C229.074 356.758 236.24 348.078 243.336 339.289C243.942 338.537 244.273 337.334 244.468 336.268C245.553 330.049 248.125 325.074 252.285 321C255.244 318.089 257.747 314.494 260.353 311.077C262.318 308.494 261.541 305.678 260.97 302.575C260.273 298.775 260.535 294.716 260.501 290.765C260.501 290.342 261.313 289.918 261.747 289.494C261.073 289.139 260.227 288.975 259.77 288.373C257.37 285.243 254.719 282.277 252.833 278.723C251.279 275.812 253.267 273.188 255.062 271.192C260.798 264.822 266.649 258.576 272.421 252.247C275.62 248.734 276.786 244.606 275.632 239.371C275.243 237.608 275.723 235.257 276.443 233.535C278.226 229.243 278.717 224.787 278.946 220.085C279.232 214.235 279.975 208.412 280.649 202.589C280.786 201.414 281.426 200.306 281.94 199.227C283.929 195.085 286.454 191.189 287.86 186.774C289.505 181.621 287.654 176.796 284.637 172.928C280.409 167.502 276.66 161.488 271.106 157.66C268.204 155.651 267.301 151.673 266.992 148.024C266.204 138.675 263.152 130.118 261.027 121.22C260.193 117.707 260.444 113.839 260.181 110.121C259.918 106.403 259.816 102.63 259.278 98.9672C258.501 93.7048 257.359 88.5244 256.456 83.3029C256.387 82.8655 256.97 82.2778 257.13 81.9771C256.581 79.4484 255.861 76.824 255.461 74.145C254.444 67.3243 251.965 62.1166 245.759 60.7087C245.222 60.5857 244.731 60.2713 244.228 60.0526C243.896 54.8995 243.885 54.8175 248.045 53.683C257.484 51.1133 266.935 48.612 276.398 46.1653C277.46 45.8919 278.603 46.1243 279.974 46.1243C279.974 51.9061 279.974 57.4009 279.974 62.595C283.54 58.8771 286.694 54.7218 290.511 51.7694C300.248 44.2243 310.841 42.9531 321.607 48.2019C328.383 51.5097 331.915 58.6721 333.675 66.7639C335.035 73.0241 335.435 79.5714 336.44 85.941C337.023 89.6315 338.074 93.2127 338.714 96.9032C339.617 102.125 341.251 107.346 338.383 112.595C337.32 114.536 336.932 116.996 336.2 119.333C340.211 118.91 339.046 115.219 339.537 112.608C339.949 116.162 340.36 119.716 340.829 123.762C340.817 123.776 340.257 124.295 339.389 125.102C340.029 125.935 340.474 126.851 341.137 127.275C343 128.478 343.628 130.719 343.251 133.535C343.126 134.41 344.2 135.531 344.817 136.734C344.611 136.884 344.12 137.239 343.046 138.032C344.234 137.95 344.794 137.923 345.251 137.895C346.04 140.164 346.028 142.789 346.268 145.236C346.52 147.874 347.194 150.102 347.868 152.535C348.668 155.391 350.188 156.881 352.017 158.699C356.645 163.305 360.873 168.5 365.33 173.516C364.439 174.363 363.993 174.801 363.296 175.457C364.599 176.017 365.559 176.441 366.142 176.687C366.621 178.601 366.884 180.309 367.456 181.84C368.427 184.451 367.833 186.72 366.519 188.756C365.479 190.356 364.016 191.572 363.022 193.212C362.279 194.443 362.039 196.096 361.467 197.491C360.405 200.074 359.262 202.616 357.925 205.733C359.09 207.975 359.033 210.763 357.811 214.494C356.965 217.064 355.273 220.181 356.451 223.885C357.628 227.616 355.993 231.211 354.005 234.246C352.359 236.747 350.851 238.784 354.039 241.504C355.891 243.089 354.988 247.696 353.285 249.513C351.639 251.263 350.439 253.6 348.851 255.446C347.182 257.373 345.274 259 343.491 260.79C339.777 264.549 336.006 268.24 332.395 272.135C329.183 275.607 329.321 278.122 331.732 282.387C334.429 287.157 336.68 292.242 337.389 298.16C337.617 300.06 338.577 301.96 339.514 303.6C341.171 306.484 341.274 309.15 339.297 311.774C337.309 314.412 335.514 317.392 333.195 319.511C328.566 323.734 325.526 329.379 322.395 334.997C316.293 345.932 308.853 355.022 298.568 360.339C294.385 362.498 290.591 365.246 289.14 370.987C288.945 371.766 287.906 372.203 287.323 372.887C285.506 374.992 283.563 376.987 282.009 379.352C281.449 380.186 281.666 381.976 281.849 383.247C282.272 386.186 281.666 388.359 279.689 390.41C276.546 393.677 273.426 397.094 270.866 400.976C269.084 403.668 267.895 407.113 267.072 410.448C265.278 417.679 261.221 423.269 258.021 429.475C255.427 434.491 253.05 439.672 250.319 444.579C248.936 447.066 247.233 449.458 245.291 451.29C239.017 457.208 235.977 465.368 233.863 474.144C232.88 478.231 231.417 481.853 229.246 485.243C227.634 487.771 226.56 490.819 225.406 493.717C223.76 497.872 222.172 502.082 220.709 506.347C219.418 510.106 219.349 513.947 221.315 517.419C223.417 521.15 223.463 524.677 221.303 528.381C217.532 534.846 220.252 541.188 221.612 547.599C222.343 551.03 223.44 554.83 222.835 558.069C222.286 561.049 220.023 564.001 217.898 566.011C215.144 568.608 211.772 570.303 208.641 572.312C206.081 573.952 203.327 575.237 200.95 577.192C199.624 578.285 198.127 580.322 197.99 582.071C197.064 594.277 190.676 601.918 183.202 608.889C179.842 612.019 176.768 615.491 174.94 620.357C172.951 625.62 170.586 630.677 168.38 635.83C168.255 636.117 168.083 636.445 168.095 636.746C168.597 645.043 163.478 650.77 161.375 657.878C161.101 658.821 160.655 659.791 160.666 660.734C160.746 664.89 159.181 667.951 156.301 669.947C152.952 672.271 151.49 676.357 149.353 679.829C148.85 680.636 148.393 681.784 147.707 682.098C141.193 685.078 137.582 692.568 131.971 696.655C126.942 700.319 121.148 702.929 115.412 704.652C106.361 707.372 97.1153 709.244 87.8815 710.925C78.3277 712.661 68.6825 713.796 59.0715 715.067C51.3234 716.092 43.5181 716.639 35.8042 717.938C30.8444 718.771 25.9761 720.466 21.1192 722.038C20.0793 722.38 18.845 723.596 18.4565 724.772C16.548 730.472 14.6624 736.212 13.2568 742.117C12.6168 744.81 12.8911 747.913 13.1425 750.77C13.3939 753.626 12.6511 755.622 10.8226 757.317C10.0455 758.041 9.48552 759.094 8.6627 760.215C5.83999 757.973 2.94871 755.677 0.0688587 753.38C0.0117188 742.172 0.0117188 731.005 0.0117188 719.837Z" fill="#FDF3EF" fill-opacity="0.11"/>
<path d="M0.011428 395.208C1.85133 392.583 3.75981 390.014 5.45115 387.253C5.69114 386.87 4.99403 385.462 4.53691 384.683C1.48564 379.366 2.03418 377.684 4.73119 371.93C8.09101 364.74 13.8393 363.182 19.4504 361.063C30.0556 357.072 40.7751 353.518 51.3459 349.404C55.2429 347.887 58.2027 345.071 59.6884 339.645C60.6255 336.2 61.2997 333.453 60.7397 329.762C60.2598 326.591 62.3054 323.844 64.6253 321.944C67.3108 319.743 68.7279 316.818 68.8536 312.84C68.945 309.724 67.9051 307.564 65.7109 306.184C63.6425 304.885 61.5397 303.573 59.357 302.575C55.3914 300.771 53.0944 297.081 51.0602 292.953C49.0603 288.907 46.889 285.093 43.9863 281.744C40.7179 277.958 41.575 275.593 45.232 272.135C54.5458 263.346 65.6309 259.068 76.3161 253.669C80.1902 251.714 83.8357 249.063 87.4584 246.479C89.5954 244.948 89.5268 243.39 87.6641 241.326C87.1727 240.779 86.7156 240.137 86.1327 239.809C83.7214 238.428 83.5157 236.105 84.8071 233.904C88.6012 227.48 86.167 222.245 83.31 216.559C81.173 212.308 79.8473 207.455 78.4417 202.753C78.2017 201.933 79.1388 200.238 79.8816 199.432C82.3729 196.766 85.3556 194.812 86.4984 190.52C86.8527 189.194 88.8183 188.415 90.1211 187.513C93.5495 185.148 93.5038 182.838 92.2124 178.97C91.1382 175.73 88.6012 173.215 86.807 170.304C86.3042 169.497 85.8585 168.39 85.8813 167.434C85.9956 162.116 84.3728 159.314 80.2016 157.141C72.7848 153.286 66.5109 147.505 61.0483 140.383C57.2885 135.476 53.3344 130.788 49.6203 125.826C48.8661 124.815 48.8775 123.038 48.3747 121.698C48.1347 121.083 47.5747 120.454 47.0376 120.222C45.7119 119.648 45.1977 119.006 46.0776 117.324C46.3062 116.901 45.7462 115.807 45.4377 115.083C45.072 114.222 44.272 113.47 44.2149 112.609C43.872 107.948 42.1464 103.82 40.7979 99.5688C39.3923 95.1401 37.7466 90.8345 36.4667 86.3649C36.0782 85.0117 37.0381 83.057 36.5696 81.7995C34.6268 76.5371 35.0268 71.0697 35.2439 65.6296C35.7125 53.7105 39.518 43.1583 44.7177 33.1802C53.163 17.0239 65.7338 8.01626 80.7159 2.93153C87.5155 0.621529 94.418 -0.704319 101.343 0.389172C108.314 1.48266 115.194 3.65597 122.051 5.66525C125.502 6.67673 128.828 8.27597 132.142 9.86154C132.85 10.2033 133.662 11.5701 133.673 12.4722C133.776 24.938 133.742 37.4038 133.742 50.0883C132.336 50.0883 131.388 49.938 130.473 50.1157C128.553 50.4984 127.925 49.1999 127.342 47.3272C125.365 41.0807 123.765 34.5607 121.068 28.7652C114.646 14.9736 105.377 8.35798 92.2238 9.8752C86.6013 10.5176 81.7215 13.8118 77.6874 18.6915C70.6478 27.1934 67.7794 37.9642 65.7109 49.2819C64.2139 57.4967 64.2024 65.7252 65.2424 73.8717C66.4995 83.6858 68.5451 93.2949 72.7963 102.07C73.8248 104.189 74.0419 106.868 74.6933 109.533C74.2705 109.451 73.7676 109.356 73.2648 109.26C73.2191 109.479 73.1048 109.861 73.1391 109.875C75.699 111.296 75.5504 114.222 75.9961 116.901C76.1675 117.926 76.8875 118.855 77.436 119.744C83.5729 129.53 90.8411 137.855 99.3663 144.689C107.126 150.922 121.857 152.671 130.405 147.628C134.416 145.263 138.096 141.928 140.061 137.048C141.49 133.522 141.878 129.407 142.724 125.608C143.113 125.608 143.307 125.539 143.41 125.621C145.17 127.056 148.347 128.41 148.415 129.954C148.598 134.178 147.855 138.62 146.758 142.707C145.833 146.179 143.89 149.254 142.438 152.535C140.793 156.253 141.296 157.346 144.427 159.451C149.181 162.663 154.095 165.739 158.358 169.757C167.317 178.191 167.98 189.946 163.363 201.058C158.46 212.854 153.386 224.473 149.809 236.98C148.495 241.572 149.352 245.933 149.421 250.443C149.478 254.038 149.341 257.729 148.678 261.228C147.478 267.638 142.507 268.609 137.776 271.37C139.01 268.513 139.924 266.586 140.701 264.577C142.027 261.132 141.021 258.453 138.679 256.239C134.039 251.837 128.473 251.086 123.034 251.878C111.377 253.573 99.9606 256.895 89.264 262.813C84.03 265.711 78.9788 269.347 74.3162 273.42C70.5792 276.687 71.0364 278.737 73.7334 282.359C76.6932 286.351 79.9273 290.178 82.3272 294.634C84.9899 299.582 88.8069 301.755 93.0695 303.696C98.0521 305.965 102.966 308.494 107.834 311.105C112.303 313.497 116.703 312.799 121.148 311.255C128.668 308.644 135.776 305.336 140.873 297.545C143.056 294.21 144.427 298.297 146.118 298.857C144.987 306.457 140.096 310.134 135.764 314.235C130.348 319.36 124.405 323.775 120.851 331.211C120.44 332.072 119.891 333.029 119.891 333.945C119.902 338.537 117.88 341.203 114.246 342.747C112.029 338.155 108.314 336.392 104.018 335.489C97.8693 334.191 91.6982 335.558 87.0013 339.412C73.0705 350.839 56.6028 353.805 41.3236 360.681C37.9295 362.212 34.6382 364.098 31.4041 366.08C29.4842 367.255 28.7642 371.862 30.0442 375.661C31.0841 378.751 32.4326 381.799 34.0783 384.464C35.1982 386.282 35.0153 387.211 34.2382 389.125C32.2955 393.923 29.2214 397.217 25.8044 400.374C21.8389 404.038 21.5189 406.676 23.3245 412.252C24.193 414.945 24.8444 417.788 25.2787 420.645C25.953 424.992 28.5128 427.179 31.4955 428.832C35.7924 431.211 40.2494 430.678 44.6377 429.256C55.4029 425.771 64.2938 418.513 71.6878 408.794C74.9562 404.489 77.1161 399.008 80.1559 394.415C84.1328 388.401 88.464 382.742 92.7381 376.81C93.7438 377.643 94.658 378.409 95.9265 379.489C94.8523 382.058 94.1552 385.038 92.6238 387.143C87.0927 394.729 81.8587 402.52 77.0132 410.817C71.0135 421.096 62.6254 428.75 54.0544 436.022C45.1748 443.54 38.2038 453.135 33.564 465.068C31.5641 470.207 27.6672 473.269 23.8731 476.331C20.5704 478.996 17.1534 481.484 13.9421 484.313C11.2109 486.719 11.1537 489.371 12.4679 493.02C15.6449 501.919 20.159 510.229 21.5646 519.879C21.8846 522.08 20.3532 525.292 18.879 527.11C13.7707 533.466 7.23391 536.705 0 538.058C0.011428 490.437 0.011428 442.829 0.011428 395.208ZM129.182 169.21C129.525 169.798 129.628 170.113 129.822 170.29C133.33 173.625 134.016 178.423 132.028 183.139C130.645 186.419 128.051 186.939 125.662 188.128C123.948 188.975 122.062 189.645 120.657 190.998C117.971 193.554 115.72 196.78 113.011 199.268C111.206 200.935 111.114 202.494 112.189 204.394C116.04 211.241 120.474 217.256 127.799 218.705C129.262 218.992 130.782 219.251 132.245 219.087C141.17 218.13 147.078 211.228 152.655 203.847C154.506 201.4 155.341 191.928 153.821 189.741C151.604 186.542 149.147 183.563 146.621 180.692C144.084 177.808 140.804 175.621 138.816 172.3C136.096 167.789 132.873 168.923 129.182 169.21Z" fill="#FDF3EF" fill-opacity="0.11"/>
<path d="M0.0117188 891.379C6.31997 890.627 12.6282 889.889 18.9365 889.137C18.9136 888.782 18.8908 888.427 18.8679 888.071C16.5823 888.071 14.2853 888.071 11.9997 888.071C11.954 887.866 11.9197 887.661 11.874 887.47C12.8453 887.005 13.8853 886.663 14.7767 886.035C16.5366 884.777 18.2965 883.492 19.8507 881.92C20.3307 881.428 20.525 879.569 20.1478 879.009C18.7879 876.945 19.5193 875.482 20.6621 873.952C29.0502 877.218 34.8442 873.501 35.2785 864.124C40.1125 863.427 45.0151 862.566 49.9406 862.033C59.4258 861.021 68.911 860.133 78.4077 859.299C84.8988 858.738 91.4242 858.533 97.9153 857.85C108.749 856.688 119.526 855.048 130.051 851.59C143.639 847.12 157.261 842.787 170.769 837.989C176.106 836.09 181.008 832.836 183.682 826.385C183.968 825.688 184.265 824.936 184.311 824.184C184.642 819.468 184.677 814.712 185.237 810.037C185.888 804.706 189.065 801.508 192.79 799.034C197.762 795.74 202.527 792.2 204.344 785.188C204.847 783.247 205.018 781.183 205.475 779.214C205.841 777.642 206.207 775.989 206.938 774.649C208.447 771.874 208.252 770.207 205.521 769.359C197.876 766.995 190.288 766.776 183.054 771.369C181.294 772.489 179.34 773.364 177.854 774.881C175.294 777.492 172.563 780.13 170.734 783.424C167.215 789.753 163.295 795.316 157.832 799.403C154.61 801.809 153.147 805.731 153.935 810.474C153.992 810.803 154.164 811.226 154.061 811.459C151.81 816.202 152.152 821.368 151.958 826.562C151.81 830.595 148.724 833.028 145.959 834.559C141.673 836.951 137.136 838.782 132.599 840.409C123.834 843.539 115.034 846.614 106.155 849.252C97.7324 851.754 89.2414 854.077 80.6704 855.704C73.7222 857.03 66.6026 857.18 59.5744 857.918C51.5177 858.766 43.4609 859.654 35.4156 860.625C28.4903 861.458 21.5878 862.429 14.6738 863.399C13.4739 863.563 12.2854 864.001 11.2683 864.261C11.2683 866.502 11.2683 868.648 11.2683 870.78C10.9369 870.945 10.6055 871.109 10.274 871.273C8.1713 869.195 6.05712 867.117 3.30298 864.411C9.01697 863.276 13.8739 862.197 18.7536 861.363C25.999 860.133 33.2672 859.107 40.5239 857.932C46.1922 857.016 51.9633 856.592 57.4602 854.911C62.4314 853.394 67.0369 850.236 71.9166 848.2C76.7735 846.177 81.7332 844.414 86.7387 843.006C88.9443 842.391 91.4585 843.416 93.6755 842.855C100.807 841.065 107.983 839.329 114.909 836.705C119.126 835.105 123.217 832.303 125.651 827.437C126.337 826.057 126.28 824.116 126.508 822.421C126.554 822.12 126.257 821.751 126.302 821.45C126.977 816.83 127.297 812.06 128.508 807.631C129.594 803.626 132.793 801.549 135.856 799.69C138.553 798.063 141.662 796.929 143.81 794.564C147.947 790.04 151.478 784.723 155.375 779.87C156.929 777.929 158.632 776.043 160.529 774.663C163.489 772.503 166.026 770.084 167.923 766.461C170.277 761.951 173.226 757.905 175.683 753.463C176.734 751.563 177.5 749.266 177.854 747.025C178.425 743.498 178.345 739.808 178.974 736.295C179.157 735.256 180.905 733.725 181.728 733.889C187.065 734.969 192.356 736.363 197.613 737.88C199.361 738.386 199.956 740.026 198.39 741.639C197.179 742.897 195.682 743.758 194.322 744.797C194.653 745.207 194.996 745.603 195.327 746.013C195.396 746.218 195.43 746.519 195.556 746.615C199.841 750.155 199.784 750.059 195.407 753.613C194.036 754.72 192.025 756.743 192.173 758.042C192.493 760.816 195.087 760.857 197.064 760.898C200.104 760.953 203.167 760.994 206.173 760.584C213.566 759.586 220.058 762.306 226.103 767.077C228.469 768.949 228.663 771.902 226.297 773.761C223.92 775.633 223.017 778.162 222.983 781.224C222.903 789.042 219.84 794.509 214.332 798.46C211.738 800.319 209.018 803.052 210.024 807.003C211.098 811.226 209.99 814.561 208.95 818.238C208.618 819.414 208.755 821.027 209.167 822.202C210.355 825.578 209.67 828.23 207.75 830.895C204.104 835.98 199.213 837.948 194.048 839.63C184.585 842.705 175.248 846.314 165.775 849.28C157.821 851.767 149.787 853.927 141.707 855.731C137.193 856.743 132.531 856.756 127.925 857.235C119.4 858.123 110.863 859.053 102.338 859.914C99.4238 860.215 96.4982 860.351 93.5841 860.652C85.1502 861.54 76.7164 862.443 68.2825 863.413C67.1054 863.55 65.9512 864.055 65.2884 864.247C64.7284 866.653 64.4656 868.744 63.7685 870.589C62.3171 874.471 60.5115 878.148 59.1173 882.043C57.8945 885.447 55.5403 887.06 52.889 887.853C49.3463 888.905 45.7008 889.493 42.0667 890.012C35.0499 891.01 28.0217 891.857 20.9935 892.705C18.2622 893.033 15.5309 893.265 12.7882 893.443C8.52557 893.716 4.27436 893.921 0.0117188 894.14C0.0117188 893.211 0.0117188 892.295 0.0117188 891.379Z" fill="#FDF3EF" fill-opacity="0.11"/>
<path d="M0.0117188 897.53C2.70872 897.079 5.3943 896.423 8.11416 896.204C15.1881 895.63 22.2849 895.343 29.3588 894.769C39.4154 893.949 49.4835 893.156 59.5172 891.98C65.9398 891.229 72.3051 889.834 78.6934 888.7C83.6874 887.811 87.1272 884.613 88.9786 878.899C89.8242 876.302 91.1499 873.924 91.9841 871.313C92.647 869.222 92.8984 866.939 93.4698 864.069C97.5724 863.44 102.281 862.552 107.012 862.032C116.2 861.007 125.4 860.132 134.599 859.299C140.804 858.738 147.044 858.574 153.238 857.85C162.929 856.715 172.586 855.403 182.014 852.109C195.385 847.434 208.892 843.334 222.229 838.522C225.92 837.196 229.383 834.558 232.605 831.907C235.291 829.692 236.251 826.221 235.725 822.038C235.405 819.496 235.92 816.762 236.32 814.165C236.697 811.704 237.462 809.34 237.954 806.907C238.811 802.724 241.816 801.002 244.388 798.815C246.09 797.38 247.988 796.245 249.633 794.714C251.713 792.787 251.553 791.639 249.462 789.657C248.182 788.454 247.028 787.074 245.816 785.761C247.405 784.887 248.936 783.52 250.593 783.233C260.353 781.579 269.392 777.054 278.683 773.514C280.329 772.886 282.089 772.667 284.329 772.12C283.746 773.186 283.551 773.911 283.163 774.184C279.666 776.672 278.58 781.251 276.478 784.955C275.198 787.21 275.826 789.001 277.643 789.971C280.226 791.352 282.934 792.418 285.631 793.498C287.106 794.086 288.648 794.441 290.945 795.152C288.043 797.571 285.62 797.393 283.209 797.339C278.74 797.243 274.272 797.188 269.815 797.188C266.215 797.188 263.632 799.539 262.033 803.093C261.415 804.46 261.324 806.893 261.93 808.205C263.347 811.212 262.021 813.591 261.575 816.297C261.255 818.265 261.267 820.452 261.633 822.407C262.17 825.223 262.101 827.587 260.695 830.143C258.204 834.681 254.627 837.155 250.49 838.659C240.297 842.336 230.114 846.067 219.84 849.416C212.378 851.849 204.824 853.941 197.224 855.717C193.008 856.702 188.631 856.756 184.322 857.235C175.991 858.137 167.66 859.053 159.329 859.914C156.232 860.228 153.112 860.324 150.015 860.665C142.062 861.527 134.096 862.456 126.154 863.427C125.262 863.536 124.417 864.055 124.291 864.78C123.834 866.898 123.571 869.113 122.874 871.122C121.72 874.484 120.006 877.587 119.08 881.018C118.017 884.955 115.789 887.183 112.749 887.907C107.526 889.137 102.212 889.998 96.921 890.695C88.9671 891.734 80.979 892.527 73.0023 893.374C69.8938 893.703 66.7626 893.935 63.6427 894.14C56.3631 894.618 49.0835 894.96 41.8039 895.548C34.6499 896.122 27.5074 896.901 20.365 897.639C19.8621 897.694 19.3822 898.131 18.3765 898.664C20.0678 898.869 21.1649 898.992 22.2734 899.129C14.8338 901.029 7.42848 899.279 0.0231467 898.938C0.0117187 898.446 0.0117188 897.995 0.0117188 897.53Z" fill="#FDF3EF" fill-opacity="0.11"/>
<path d="M0.0117188 714.37C0.263134 714.206 0.51455 713.919 0.765966 713.919C7.32563 713.892 13.8739 713.905 20.445 713.481C13.6339 714.001 6.8228 714.534 0.0117188 715.053C0.0117187 714.835 0.0117188 714.602 0.0117188 714.37Z" fill="#FDF3EF" fill-opacity="0.11"/>
<path d="M78.8542 544.032C73.883 541.408 68.649 539.152 65.1291 533.781C64.1235 532.25 63.3692 529.625 63.7349 527.862C64.5806 523.748 63.6321 520.358 62.2036 516.804C60.6494 512.936 61.0379 510.913 64.1235 508.494C68.329 505.2 72.7059 502.22 77.0257 499.158C82.2483 495.44 87.5509 491.886 92.7049 488.059C96.7161 485.079 96.5447 482.277 92.6363 479.12C90.1336 477.097 87.7223 474.842 85.471 472.436C83.3339 470.153 83.2882 467.488 84.3282 464.125C86.2823 457.797 89.6193 453.341 94.4762 450.074C97.2532 448.201 98.5446 440.998 96.9675 437.007C94.8305 431.608 94.6705 426.14 95.6419 420.386C96.0647 417.898 95.9504 415.178 95.619 412.636C94.9105 407.223 96.1675 403.027 99.5502 399.213C102.396 396.001 104.75 392.133 107.07 388.333C107.618 387.431 107.527 385.435 107.093 384.273C105.493 379.981 106.556 376.441 108.167 372.45C111.104 365.178 116.567 362.813 122.212 360.148C128.954 356.95 135.686 353.573 142.074 349.487C148.096 345.618 151.685 339.413 152.428 330.802C152.679 327.89 154.553 324.828 156.313 322.532C158.633 319.498 161.01 316.668 161.993 312.581C162.77 309.355 162.69 306.581 160.027 304.517C156.919 302.097 155.445 298.817 155.102 294.115C154.793 289.864 153.376 285.668 150.233 282.674C146.279 278.915 147.056 275.485 150.965 271.329C158.473 263.347 167.261 257.879 175.889 252.029C177.352 251.031 178.712 249.733 179.946 248.339C183.123 244.716 182.975 244.197 181.295 239.29C180.723 237.636 180.769 234.943 181.535 233.495C184.54 227.795 183.329 222.245 181.969 216.477C180.929 212.035 180.175 207.483 179.603 202.931C179.455 201.756 180.358 200.293 180.963 199.077C182.243 196.494 183.649 193.979 184.997 191.436C185.249 190.971 185.34 190.274 185.683 190.015C188.471 187.869 189.797 184.725 188.837 181.048C187.98 177.74 186.334 174.706 184.929 171.617C184.083 169.771 183.112 167.981 182.06 166.286C180.392 163.579 179.009 160.272 176.792 158.467C170.587 153.437 166.324 146.548 162.656 139.044C159.547 132.675 156.702 126.127 153.753 119.662C153.49 119.088 153.25 118.446 153.216 117.817C152.987 112.759 152.839 107.688 152.622 102.617C152.588 101.811 152.313 101.004 152.108 100.225C150.028 92.1882 150.61 84.2467 152.862 76.4556C153.81 73.1615 155.09 69.9493 156.576 66.9559C162.278 55.4195 171.387 49.7197 181.866 46.7673C192.254 43.8286 202.299 45.4005 212.002 50.7176C220.538 55.4059 226.938 62.8826 231.921 72.2046C236.915 81.5267 239.223 92.2155 242.251 102.522C242.823 104.476 242.914 106.759 242.823 108.85C242.549 114.673 243.474 120.209 244.686 125.827C246.446 133.987 247.188 142.229 244.64 150.526C243.394 154.599 244.617 157.237 248.114 159.233C254.354 162.787 259.588 167.885 264.296 173.817C268.387 178.97 268.959 183.618 266.616 190.206C263.805 198.134 260.902 206.034 258.445 214.126C257.039 218.773 256.491 223.79 255.439 228.601C255.108 230.118 254.137 231.458 253.919 232.975C253.531 235.681 252.925 238.634 253.451 241.176C254.742 247.464 253.222 252.508 249.668 256.882C245.406 262.144 240.903 267.147 236.675 272.45C233.943 275.881 234.286 278.123 236.286 281.28C238.366 284.561 240.229 288.032 242.023 291.545C242.457 292.406 242.331 293.746 242.32 294.867C242.297 298.133 242.091 301.305 243.646 304.394C244.194 305.487 243.92 308.043 243.177 309.041C239.829 313.593 236.103 317.748 232.663 322.204C228.858 327.138 224.984 332.045 221.533 337.335C215.716 346.247 209.807 355.132 200.882 359.588C194.517 362.759 191.706 368.636 189.728 375.717C189.248 377.439 188.7 379.147 188.414 380.924C187.42 387.239 183.546 391.34 180.198 395.646C176.643 400.211 173.729 405.063 170.941 410.353C167.227 417.406 162.13 423.502 157.227 429.557C150.85 437.444 144.017 444.812 137.548 452.589C135.846 454.626 134.406 457.195 133.423 459.833C129.949 469.155 123.938 475.593 117.069 481.102C111.755 485.366 111.652 487.198 114.509 493.95C116.087 497.668 116.189 502.234 117.264 506.293C118.395 510.571 119.641 514.863 121.321 518.868C122.566 521.848 122.486 524.541 120.886 526.782C116.098 533.48 116.018 542.119 113.95 549.896C112.738 554.461 110.91 557.004 106.738 557.496C101.15 558.166 96.259 555.883 91.6764 552.37C89.8022 550.935 88.0765 549.24 85.6081 547.067C87.1966 546.752 87.8937 546.52 88.5794 546.493C90.7621 546.37 92.9449 546.37 95.1276 546.233C101.036 545.891 102.362 544.388 102.087 537.307C101.939 533.562 103.733 531.102 105.276 528.45C108.053 523.68 108.087 521.944 105.744 517.009C104.693 514.795 104.11 512.239 103.459 509.779C102.967 507.947 102.762 506.006 102.339 504.147C101.642 501.126 100.076 499.267 97.3561 498.912C88.8994 497.791 82.1226 501.618 76.6486 509.068C74.8772 511.474 75.0486 514.453 76.1572 517.132C77.7914 521.042 77.5057 524.759 76.1686 528.614C74.9229 532.209 75.5743 535.448 77.5857 538.469C78.4999 539.85 79.0827 541.531 79.8141 543.089C79.4941 543.376 79.1741 543.704 78.8542 544.032ZM215.259 110.969C214.493 106.991 213.727 102.057 212.573 97.2593C211.704 93.6234 209.727 90.2609 209.305 86.5977C208.196 77.2347 204.733 67.4343 199.374 58.8777C194.86 51.6607 187.569 50.9226 182.415 58.659C180.095 62.1445 179.295 66.1358 179.146 70.4551C178.94 76.4419 178.209 82.4834 178.609 88.402C179.146 96.5895 181.26 104.695 181.306 112.841C181.34 119.895 184.312 125.444 185.706 131.745C186.631 135.941 188.254 139.987 189.934 143.883C191.774 148.148 193.305 153.246 196.265 156.021C202.196 161.611 206.116 168.965 210.516 175.881C212.71 179.339 213.122 183.782 210.973 187.937C208.836 192.065 206.699 196.193 204.619 200.362C204.196 201.223 203.853 202.262 203.808 203.232C203.636 207.319 202.859 211.638 203.671 215.466C205.111 222.286 203.773 228.109 201.465 234.137C200.836 235.791 201.168 238.251 201.636 240.151C202.231 242.598 202.665 244.798 201.134 246.876C199.911 248.544 198.745 250.334 197.328 251.756C190.974 258.112 184.449 264.249 178.152 270.687C173.135 275.813 173.181 277.357 177.603 283.043C177.866 283.371 178.14 283.686 178.415 284C180.895 286.884 182.22 290.329 181.912 294.511C181.649 297.997 181.752 301.182 184.014 303.984C185.409 305.72 186.049 308.071 184.586 310.449C182.643 313.593 181.112 317.297 178.712 319.798C174.404 324.282 170.872 329.298 168.084 335.216C165.078 341.6 161.57 347.628 156.107 351.359C150.953 354.872 145.479 357.729 140.371 361.337C137.857 363.114 134.977 365.41 133.788 368.349C131.72 373.448 129.96 378.997 130.749 385.052C130.874 386.023 130.52 387.349 129.994 388.128C127.64 391.627 125.24 395.085 122.68 398.379C119.869 402.001 117.412 405.692 116.978 410.9C116.772 413.469 116.029 415.971 115.504 418.499C114.178 424.965 112.772 431.389 111.527 437.882C110.624 442.611 110.624 448.106 106.818 450.908C102.35 454.202 99.7102 458.836 97.5618 464.262C95.8247 468.65 97.0818 471.93 101.104 472.75C108.613 474.295 113.778 470.495 116.544 462.048C117.732 458.426 119.309 454.721 121.458 451.851C127.435 443.8 133.914 436.282 139.982 428.327C143.834 423.283 148.108 418.431 149.982 411.734C151.776 405.337 154.942 400.293 158.759 395.413C161.547 391.859 164.61 388.428 165.49 382.893C167.078 372.887 172.267 365.78 179.809 361.023C185.534 357.414 191.5 354.148 196.688 349.623C200.871 345.987 204.253 340.998 204.128 333.795C204.059 329.558 205.431 325.621 208.128 322.464C211.133 318.923 213.933 315.137 216.847 311.474C219.03 308.727 219.087 305.829 217.716 302.507C217.041 300.881 216.527 298.858 216.676 297.108C217.178 291.149 215.796 286.447 211.967 282.333C207.99 278.068 208.276 275.799 212.207 271.316C216.63 266.258 220.984 261.119 225.418 256.075C229.292 251.687 231.955 246.89 230.435 240.042C230.092 238.497 230.126 236.42 230.732 235.066C233.178 229.572 233.943 223.612 234.058 217.612C234.252 207.442 237.955 198.667 241.429 189.878C243.28 185.203 243.349 181.075 241.063 177.111C237.132 170.263 232.332 164.222 226.172 160.299C221.704 157.456 220.161 153.41 220.538 147.833C220.973 141.477 219.407 135.6 218.058 129.558C216.779 123.79 213.442 118.487 215.259 110.969Z" fill="#FDF3EF" fill-opacity="0.11"/>
<path d="M62.5578 774.075C60.9579 776.098 59.5637 777.93 58.1009 779.666C57.6667 780.171 57.0381 780.54 56.4439 780.732C48.7071 783.233 40.9247 784.176 33.2793 780.458C30.948 779.324 27.8053 778.531 27.3939 774.854C26.754 769.291 26.3768 763.619 26.4797 758.014C26.514 756.429 28.4567 754.679 29.771 753.381C32.1023 751.084 35.0621 749.8 36.2621 745.89C38.3877 738.919 40.8447 732.099 43.1074 725.196C44.1245 722.107 46.4787 721.137 48.7071 720.658C55.2439 719.25 61.8379 718.129 68.4318 717.159C77.0028 715.888 85.5967 714.849 94.1905 713.742C99.8931 713.017 105.607 712.484 111.287 711.623C124.475 709.614 137.583 707.167 149.959 700.88C153.456 699.103 156.164 696.328 157.604 692.419C159.284 687.881 162.324 685.817 165.81 684.395C169.295 682.974 172.506 681.128 174.666 677.534C177.043 673.597 180.243 669.701 181.089 665.246C182.586 657.413 186.54 651.276 189.111 644.223C189.306 643.704 189.557 643.171 189.603 642.624C190.437 633.726 195.214 627.11 198.631 619.661C202.574 611.077 209.682 606.402 215.099 599.663C218.664 595.235 220.424 589.808 220.984 584.054C221.407 579.653 223.212 577.835 226.229 576.03C232.583 572.217 238.835 568.089 244.857 563.565C249.005 560.448 249.828 555.596 248.411 549.855C247.428 545.864 246.674 541.517 246.937 537.43C247.177 533.644 248.743 529.912 250.045 526.318C251.028 523.611 251.291 521.219 249.942 518.663C247.108 513.305 247.086 507.865 249.383 502.179C251.2 497.682 251.977 492.337 254.457 488.537C259.691 480.541 261.245 470.522 265.667 462.212C267.496 458.781 269.724 455.651 271.907 452.521C274.65 448.584 277.804 445.003 280.307 440.875C285.061 433.029 289.586 424.965 293.997 416.832C295.437 414.18 296.74 411.146 297.243 408.098C298.169 402.548 301.471 399.186 304.363 395.427C306.008 393.281 307.962 391.49 309.757 389.522C311.482 387.636 311.928 384.943 311.059 382.77C310.202 380.637 311.185 379.639 311.894 378.478C313.996 375.047 316.705 372.327 318.19 368.13C319.185 365.328 321.87 362.704 324.316 361.474C331.435 357.893 337.184 352.261 342.566 345.905C343.503 344.798 344.372 343.582 345.446 342.72C349.069 339.823 350.075 334.875 351.937 330.706C353.709 326.755 356.006 323.666 358.771 320.782C361.445 317.994 363.891 314.864 366.314 311.747C368.245 309.273 368.771 306.526 367.045 303.409C366.348 302.138 366.188 300.471 365.617 299.077C365.262 298.229 364.657 297.491 364.051 296.862C363.719 296.52 363.171 296.425 362.702 296.356C358.611 295.755 355.32 294.101 354.429 288.511C354.154 286.747 353.16 285.148 352.44 283.33C353.126 283.043 353.971 282.537 354.863 282.346C357.457 281.786 359.011 280.761 357.903 276.947C357.56 275.785 358.405 273.585 359.274 272.559C364.108 266.928 369.125 261.542 374.05 256.02C376.336 253.464 378.816 251.277 380.062 247.423C380.884 244.867 380.496 242.912 380.176 240.588C379.913 238.62 379.65 236.255 380.302 234.588C382.507 228.97 382.953 223.079 383.261 217.024C383.616 209.93 384.427 203.123 387.821 196.698C389.958 192.653 392.369 188.169 392.152 182.647C391.947 177.316 388.964 174.282 386.53 170.564C382.827 164.933 377.787 161.338 373.33 156.854C371.456 154.968 369.959 150.977 370.119 148.079C370.485 141.381 367.594 135.955 366.417 129.913C365.742 126.469 364.714 123.093 364.325 119.607C364.005 116.682 364.382 113.634 364.451 110.654C364.737 110.6 365.022 110.545 365.297 110.49C364.485 109.793 363.685 109.096 362.908 108.426C363.537 105.283 364.085 102.467 361.8 99.7468C361 98.8037 361.48 96.3843 361.274 94.6621C361.171 93.7873 360.977 92.8442 360.577 92.1334C359.228 89.7687 358.943 85.9962 359.583 85.3264C357.846 76.5511 357.834 67.8852 356.588 59.2057C353.206 59.2057 349.892 59.2057 346.578 59.2057C346.486 58.987 346.36 58.8093 346.326 58.6179C345.606 54.285 347.023 52.0433 350.657 50.6901C358.063 47.9564 363.045 41.1084 367.811 34.3151C369.753 31.5267 370.748 27.7678 372.096 24.4053C372.69 22.9018 373.25 21.8766 374.942 22.0406C377.49 22.2867 380.073 22.109 382.633 22.109C382.564 23.5989 382.427 24.9931 382.45 26.3736C382.564 32.7705 382.667 39.1674 382.976 45.537C383.01 46.2068 384.358 47.3003 385.113 47.3139C391.49 47.4506 397.855 47.396 404.403 47.396C403.969 50.157 403.592 52.5354 403.215 54.9137C402.666 58.4266 400.575 59.151 398.003 59.11C393.924 59.0416 389.844 59.0963 385.764 59.0416C383.536 59.0143 382.53 59.5064 383.124 62.8142C384.107 68.268 384.518 73.8858 385.056 79.4489C385.193 80.8568 384.85 82.333 384.724 83.6725C385.65 88.7162 386.621 93.9377 387.581 99.1591C387.398 98.9951 387.055 98.6943 386.016 97.7785C386.461 99.3504 386.495 100.663 386.953 100.922C389.044 102.152 388.381 104.271 388.278 106.103C388.015 110.504 387.535 114.892 387.273 119.293C387.227 120.045 387.798 120.892 388.175 121.63C389.844 124.938 391.638 128.191 390.69 132.388C390.575 132.893 390.552 133.782 390.781 133.987C394.769 137.404 393.158 143.254 394.918 147.628C395.226 148.393 394.667 149.665 394.575 150.307C395.581 152.221 396.232 154.216 397.409 155.542C400.689 159.274 404.346 162.541 407.546 166.368C409.934 169.211 411.888 172.587 413.945 175.826C416.608 180.023 416.505 184.766 414.048 189.112C411.9 192.912 409.34 196.63 408.106 200.867C406.609 206.007 405.615 211.666 405.683 217.065C405.775 223.68 404.426 229.544 402.278 235.408C401.82 236.638 401.592 238.456 402.015 239.604C403.763 244.32 402.758 248.325 399.809 251.441C395.306 256.198 390.438 260.449 385.844 265.096C382.953 268.021 380.29 271.247 377.033 274.897C383.878 277.904 390.027 274.951 396.186 275.115C396.621 276.469 397.021 277.753 397.592 279.544C394.586 280.296 391.558 280.761 388.724 281.881C387.01 282.551 384.118 281.526 383.958 285.353C383.776 289.809 385.958 294.497 388.793 295.468C392.632 296.78 396.506 297.942 400.392 299.049C403.946 300.061 407.409 301.072 407.409 307.496C406.426 307.496 405.157 307.66 403.935 307.469C399.901 306.84 395.901 305.952 391.855 305.446C389.924 305.2 388.953 306.581 387.855 308.768C385.867 312.718 383.296 316.477 380.347 319.443C375.776 324.022 373.433 329.968 371.422 336.324C371.068 337.444 370.713 338.647 370.073 339.536C367.011 343.759 363.857 347.887 360.234 352.712C368.119 353.327 375.09 349.705 382.85 349.377C378.656 354.735 373.97 358.043 368.885 360.79C365.045 362.868 361.217 365.219 359.285 370.235C359.034 370.891 358.565 371.561 358.04 371.917C355.034 373.994 351.949 375.935 348.943 378.027C346.395 379.803 343.766 380.364 340.784 380.09C337.504 379.79 334.155 380.132 330.853 380.487C329.104 380.678 327.904 381.69 328.601 384.396C329.333 387.226 328.498 389.495 326.167 390.861C325.584 391.203 325.161 391.941 324.579 392.283C318.739 395.7 315.653 401.865 314.111 408.877C312.419 416.627 308.26 422.518 304.968 429.106C302.317 434.396 299.928 439.877 297.22 445.126C296.077 447.34 294.729 449.678 292.98 451.113C287.643 455.555 284.626 461.72 283.038 468.978C281.518 475.908 279.621 482.537 275.358 487.881C274.627 488.797 274.261 490.191 273.896 491.449C272.33 496.725 270.639 501.946 269.382 507.318C268.559 510.845 268.673 514.781 270.787 517.652C273.507 521.356 273.176 524.882 271.187 528.477C268.662 533.042 268.57 537.061 270.696 542.255C272.718 547.231 275.21 552.712 274.067 558.698C273.644 560.899 272.398 563.401 270.89 564.658C267.393 567.569 263.519 569.879 259.748 572.312C257.119 574.007 254.342 575.388 251.76 577.192C250.114 578.34 249.177 580.076 249.017 582.728C248.594 589.508 246.468 595.686 242.263 600.333C238.195 604.83 233.509 608.521 229.486 613.059C227.567 615.218 226.447 618.458 225.132 621.315C223.052 625.839 221.121 630.459 219.121 635.038C218.733 635.926 217.956 636.787 217.956 637.676C217.91 645.481 213.213 650.975 211.099 657.728C210.836 658.562 210.333 659.368 210.299 660.202C210.093 665.191 208.048 668.69 204.745 671.642C202.871 673.324 201.796 676.276 199.956 678.039C197.191 680.691 194.094 682.878 191.077 685.147C189.26 686.514 187.489 687.648 186.871 690.505C185.249 698.064 179.912 700.429 174.529 702.684C165.033 706.675 155.227 708.985 145.239 710.352C135.926 711.623 126.646 713.14 117.332 714.371C112.281 715.04 107.161 715.068 102.122 715.847C93.1163 717.241 84.0767 718.553 75.1858 720.685C67.9404 722.421 67.5519 723.282 67.129 731.935C66.8548 737.566 65.2663 742.583 62.8664 747.134C61.5522 749.622 59.1294 751.358 57.0381 753.162C53.2783 756.415 50.4556 762.293 51.9755 765.915C53.8611 770.426 57.1181 773.528 61.655 773.925C61.9636 773.911 62.215 773.993 62.5578 774.075Z" fill="#FDF3EF" fill-opacity="0.11"/>
<path d="M372.874 395.741C370.691 391.408 373.651 390.082 375.559 388.401C381.262 383.398 387.776 383.207 394.415 384.396C396.381 384.751 398.358 385.298 400.198 386.173C400.861 386.487 401.112 388.032 401.558 389.016C400.838 389.221 400.129 389.59 399.41 389.617C396.61 389.685 393.798 389.644 390.964 390.137C392.21 390.465 393.456 390.793 394.701 391.107C394.747 391.544 394.804 391.968 394.85 392.406C392.118 393.567 389.387 394.729 386.404 396C387.102 397.026 387.662 397.832 388.37 398.884C386.13 402.165 382.53 400.115 379.913 402.233C381.376 402.835 382.725 403.395 384.942 404.325C382.987 405.076 381.845 405.951 380.748 405.883C371.948 405.35 366.051 411.487 360.554 418.403C357.297 422.49 354.258 426.837 351.298 431.238C347.606 436.706 348.269 439.617 353.423 442.979C355.48 444.319 357.423 446.014 359.183 447.846C361.571 450.333 361.389 453.45 358.943 455.883C358.063 456.757 357.035 457.427 356.28 458.411C355.72 459.136 355.035 460.421 355.24 461.104C355.537 462.088 356.486 463.209 357.332 463.482C362.28 465.123 366.188 462.676 368.383 457.168C368.908 455.855 370.028 454.707 371.102 453.901C374.142 451.604 377.765 450.101 380.279 447.203C382.656 444.456 383.982 440.355 385.65 436.76C386.427 435.093 386.862 433.206 387.57 431.484C388.61 428.955 389.719 426.468 390.861 423.994C392.176 421.151 393.57 418.349 395.261 414.836C395.444 416.995 395.558 418.321 395.718 420.071C395.844 418.458 395.935 417.269 396.027 416.08C396.175 416.066 396.313 416.052 396.461 416.039C396.61 417.46 396.77 418.882 396.941 420.508C397.078 419.702 397.181 419.073 397.284 418.458C397.627 423.023 398.244 427.575 396.061 431.853C395.535 432.892 395.49 434.56 395.718 435.803C397.055 443.144 394.461 448.297 389.65 452.356C386.21 455.254 383.525 458.89 382.462 463.824C381.925 466.326 381.982 468.991 381.616 471.561C381.113 475.114 380.473 478.655 377.754 480.883C377.274 481.265 376.279 481.634 376.005 481.347C371.342 476.604 365.594 474.978 359.914 473.119C354.509 471.342 349.161 469.141 343.675 467.856C340.613 467.146 337.264 467.597 334.11 468.089C331.31 468.526 330.305 471.738 330.076 474.417C329.676 479.16 327.665 482.605 325.185 485.94C324.316 487.115 323.505 488.4 322.819 489.74C321.162 492.979 322.202 495.713 325.31 496.055C327.482 496.287 329.745 496.547 331.847 496.068C344.452 493.157 357.035 490.054 369.617 486.979C370.897 486.664 372.131 486.118 373.605 485.585C373.799 486.61 374.142 487.389 374.028 488.059C372.817 495.002 371.548 501.905 367.685 507.673C364.966 511.746 363.24 516.189 362.714 521.683C362.371 525.237 360.017 528.764 358.029 531.798C355.412 535.79 355.092 537.594 358.063 541.093C361.309 544.92 363.366 549.581 364.954 554.557C366.577 559.655 362.92 568.307 357.972 571.67C356.017 572.995 354.178 574.608 352.155 575.77C349.149 577.52 348.315 580.431 349.184 583.876C351.846 594.36 347.355 601.44 340.933 606.689C334.716 611.773 331.013 618.662 327.87 626.372C326.602 629.502 324.728 632.358 323.871 635.625C322.214 641.954 318.785 647.066 316.419 652.848C315.151 655.937 315.414 659.901 314.854 663.441C314.602 665.026 314.374 666.858 313.574 668.047C311.311 671.437 308.923 674.758 306.283 677.711C304.043 680.212 301.335 682.085 298.912 684.368C296.832 686.322 294.489 688.099 292.935 690.559C289.278 696.355 284.318 699.389 278.741 701.412C267.405 705.54 255.84 708.26 244.046 709.668C232.778 711.008 221.522 712.457 210.242 713.741C199.614 714.958 188.94 715.792 178.335 717.254C171.776 718.156 165.284 719.92 158.77 721.327C158.028 721.492 157.308 721.82 156.611 722.175C153.296 723.911 152.919 725.196 154.691 728.914C155.205 729.993 155.811 731.019 156.451 732.003C159.845 737.197 159.468 744.728 155.582 749.471C151.879 753.996 148.005 758.342 144.611 763.167C142.52 766.133 140.566 765.887 138.166 764.493C131.446 760.597 125.424 755.54 120.075 749.266C117.664 746.437 113.333 745.917 110.864 748.104C108.613 750.1 106.316 752.15 104.419 754.597C101.173 758.807 98.0536 763.113 98.1336 769.55C98.1564 771.191 96.7394 773.2 95.5394 774.457C93.4595 776.644 93.0138 778.859 93.8138 781.989C95.9966 790.532 103.059 795.616 111.104 794.113C115.184 793.348 119.252 792.527 123.641 792.131C122.909 792.746 122.247 793.58 121.447 793.963C115.218 796.888 108.91 799.594 102.728 802.656C99.7792 804.105 96.9794 806.046 94.2595 808.041C93.3795 808.684 93.0596 810.338 92.2482 811.253C91.4711 812.142 90.4197 813.222 89.4597 813.263C84.5686 813.468 79.6545 813.522 74.7748 813.249C73.8491 813.194 72.992 811.417 72.1121 810.433C70.8093 808.971 69.655 807.235 68.1808 806.087C65.0953 803.681 64.2953 801.521 65.9181 797.817C67.5066 794.209 68.3408 790.71 68.1923 786.404C68.0208 781.77 69.6665 777.437 72.3863 773.542C74.7976 770.097 76.6033 765.805 77.8718 761.541C79.2774 756.798 82.043 754.146 85.4257 752.014C88.7283 749.922 90.8882 747.271 91.1854 742.35C91.3568 739.493 92.9567 736.746 93.9509 733.971C94.8766 731.388 95.9166 728.845 96.8079 726.235C98.5336 721.163 102.613 720.699 106.156 720.002C113.938 718.457 121.801 717.541 129.652 716.461C139.926 715.054 150.222 713.919 160.473 712.32C170.576 710.734 180.689 709.067 190.689 706.743C195.877 705.54 200.825 702.902 205.854 700.77C209.076 699.403 211.202 696.423 212.219 692.692C213.145 689.288 214.653 686.992 217.385 685.57C222.859 682.714 226.584 677.424 230.481 672.257C233.155 668.717 235.578 665.655 236.389 660.393C237.132 655.54 240.286 651.262 242.08 646.56C242.915 644.373 242.983 641.762 243.509 639.384C243.806 638.017 244.217 636.678 244.743 635.42C245.715 633.124 246.892 630.964 247.817 628.64C251.097 620.439 254.388 612.266 261.097 607.085C267.348 602.26 271.462 595.439 273.976 587.17C274.193 586.445 274.262 585.625 274.307 584.846C274.593 580.623 276.433 577.944 279.701 576.331C285.061 573.693 290.444 571.082 295.609 567.979C298.843 566.038 301.78 563.345 304.683 560.735C307.186 558.479 306.809 554.693 306.649 551.727C306.169 543.13 305.049 534.573 308.888 526.577C310.317 523.611 309.677 521.137 307.689 518.963C306.923 518.13 306.031 517.433 305.311 516.544C301.906 512.252 299.38 506.703 302.34 500.606C303.392 498.433 303.483 495.617 304.169 493.171C304.672 491.38 305.106 489.357 306.123 488.018C310.066 482.783 311.643 476.194 313.882 469.961C316.602 462.362 319.825 455.418 325.562 450.06C329.219 446.643 331.299 440.929 334.59 436.829C340.51 429.434 346.829 422.518 352.92 415.328C356.257 411.378 359.366 407.154 362.76 403.286C364.566 401.235 366.725 399.582 368.84 397.955C370.017 396.998 371.411 396.52 372.874 395.741ZM324.499 598.077C327.025 593.43 328.247 588.304 327.985 582.782C327.87 580.267 328.579 578.641 330.316 577.506C333.116 575.675 335.927 573.898 338.738 572.093C343.538 569.004 347.915 565.327 349.481 558.657C350.852 552.821 350.692 546.97 348.292 541.489C346.727 537.922 346.727 534.696 348.829 531.416C349.801 529.898 350.601 528.149 351.161 526.358C351.778 524.376 352.726 521.998 352.315 520.18C350.818 513.523 352.086 507.782 355.08 502.206C356.132 500.237 355.789 498.392 353.515 497.982C352.201 497.736 350.818 497.422 349.538 497.695C340.098 499.732 330.659 501.823 321.265 504.188C320.294 504.434 319.185 506.443 318.934 507.837C318.157 512.225 320.248 515.423 322.671 518.294C326.556 522.9 326.396 523.05 324.248 528.818C323.219 531.566 322.282 535.133 322.888 537.799C324.179 543.403 326.533 548.665 328.419 554.078C329.367 556.798 329.39 559.737 327.39 561.514C323.836 564.685 320.076 567.624 316.168 570.125C311.723 572.968 306.946 575.046 302.466 577.807C299.62 579.556 298.729 584.997 300.786 586.473C302.055 587.389 303.483 588.031 304.866 588.687C311.288 591.763 317.722 594.838 324.499 598.077ZM126.852 747.653C130.715 753.066 135.595 752.56 140.429 750.469C141.971 749.799 143.491 747.804 144.223 745.958C146.223 740.901 146.645 735.625 145.697 729.925C144.623 723.474 145.297 722.312 150.748 720.986C158.496 719.099 166.336 717.664 174.187 716.516C182.609 715.286 191.1 714.712 199.557 713.7C210.139 712.429 220.71 710.98 231.292 709.627C241.703 708.288 251.771 705.376 261.577 700.989C265.359 699.294 268.399 696.519 269.45 692.063C270.468 687.716 273.05 686.213 275.827 684.272C278.639 682.317 281.324 679.966 283.735 677.356C286.364 674.526 288.684 671.273 290.981 668.034C291.918 666.708 292.535 665.013 293.106 663.386C293.929 661.049 294.535 658.588 295.335 656.237C296.535 652.684 297.838 649.184 299.3 645.084C297.986 645.084 297.449 644.892 297.095 645.111C291.952 648.378 286.112 650.797 285.69 659.518C285.495 663.509 284.078 666.694 281.118 669.141C277.69 671.984 274.342 675.21 274.159 681.005C274.136 681.757 273.107 682.509 272.479 683.165C267.908 687.99 262.125 689.698 256.537 691.858C246.857 695.589 237.144 699.239 227.418 702.806C222.687 704.542 217.956 706.401 213.122 707.481C206.311 709.012 199.397 709.942 192.517 711.008C186.186 711.992 179.832 712.921 173.478 713.687C168.313 714.316 163.113 714.575 157.948 715.177C151.102 715.969 144.245 716.708 137.434 717.883C131.012 718.99 124.612 720.412 118.281 722.107C114.796 723.036 114.053 725.059 113.927 729.296C113.824 732.741 115.573 734.176 117.767 735.256L126.852 747.653ZM239.463 692.924C244.183 690.395 248.606 688.277 252.811 685.652C254.788 684.422 257.211 682.618 257.92 680.39C259.257 676.153 261.177 672.9 264.068 670.07C266.034 668.143 268.159 666.489 269.142 663.044C270.388 658.684 271.633 654.146 274.936 650.838C280.147 645.617 286.055 641.257 290.067 634.409C290.672 633.384 292.044 632.932 292.512 631.88C296.021 623.952 300.135 616.53 305.209 609.914C306.957 607.632 306.797 605.5 305.677 603.107C303.78 599.062 300.877 596.492 297.655 595.139C294.443 598.761 291.449 602.328 288.272 605.664C286.033 608.015 283.507 609.983 281.187 612.224C275.69 617.514 273.816 625.346 271.382 632.727C269.988 636.951 269.245 641.462 267.873 645.685C266.753 649.13 264.765 652.192 263.851 655.691C262.022 662.675 260.548 669.223 255.314 674.526C252.046 677.834 249.337 681.948 245.315 684.313C242.595 685.912 239.543 687.388 239.463 692.924Z" fill="#FDF3EF" fill-opacity="0.11"/>
<path d="M527.514 44.8398C527.514 51.3051 527.514 56.8546 527.514 62.3904C530.794 58.7818 533.719 55.146 537.01 52.0842C538.667 50.5397 540.69 49.3368 542.587 48.2023C545.021 46.7671 547.787 45.9607 550.484 45.3729C553.158 44.7988 555.935 44.4434 558.632 44.6895C569.112 45.619 576.128 50.0476 580.128 63.8119C580.494 65.0694 579.877 66.7233 579.797 67.4888C580.551 68.6916 581.351 69.416 581.477 70.2908C582.128 74.4871 582.528 78.7517 583.145 82.9617C584.128 89.6183 585.305 96.2339 586.219 102.891C586.574 105.433 586.459 108.057 586.528 110.654C586.654 115.725 586.528 120.837 586.928 125.867C587.465 132.606 588.356 139.317 589.191 146.015C589.888 151.565 591.613 156.513 596.002 159.301C602.321 163.32 605.064 170.673 607.738 177.808C609.132 181.54 607.018 185.148 604.55 187.95C601.007 191.983 597.465 196.015 594.036 200.184C592.288 202.302 591.271 204.79 592.596 207.907C592.973 208.781 593.122 209.902 593.099 210.9C592.825 219.88 591.922 228.464 587.682 236.488C583.157 245.058 576.803 248.502 568.906 248.475C566.152 248.461 563.066 247.204 560.735 245.4C555.112 241.053 549.318 242.037 543.444 243.568C542.427 243.828 541.467 245.577 540.907 246.89C538.965 251.496 536.21 254.093 531.651 253.902C525.971 253.669 520.28 253.847 514.6 253.847C514.486 253.546 514.383 253.259 514.269 252.958C515.183 252.22 516.074 251.4 517.034 250.758C519.343 249.227 521.685 247.737 524.04 246.302C525.857 245.181 526.577 243.363 526.257 241.067C525.731 237.267 527.365 234.219 528.268 230.829C529.205 227.357 529.114 223.462 529.331 219.73C529.662 214.085 529.868 208.44 530.154 202.795C530.176 202.248 530.268 201.619 530.519 201.168C532.976 196.835 535.388 192.475 537.97 188.251C539.399 185.927 540.016 179.886 538.416 177.316C534.428 170.906 530.279 164.522 524.508 160.285C520.246 157.155 517.617 153.259 517.171 147.204C516.509 138.087 513.252 129.831 510.909 121.261C510.189 118.609 509.743 115.794 509.572 113.019C509.24 107.237 508.68 101.592 506.578 96.2612C505.949 94.6757 505.938 92.7484 505.652 90.9715C504.532 84.1098 503.515 77.2208 502.281 70.4002C501.332 65.1514 498.224 62.158 494.167 60.4084C493.31 60.0394 492.418 59.766 491.516 59.4243C491.516 57.702 491.516 56.1301 491.516 54.3532C503.355 51.2231 515.149 48.1066 527.514 44.8398ZM566.072 125.512C564.792 120.796 561.603 116.723 563.101 110.873C562.666 107.47 562.232 103.793 561.683 100.143C561.535 99.1727 560.929 98.3115 560.735 97.3411C559.969 93.6505 559.409 89.8917 558.552 86.2285C557.467 81.5675 556.461 76.8244 554.861 72.3958C553.832 69.5664 552.198 66.614 550.153 64.8234C543.936 59.3969 536.953 61.6796 531.834 66.8874C530.005 68.7463 528.154 71.562 528.771 75.3209C529.274 78.369 529.377 81.4991 529.628 84.6019C529.742 86.0781 529.651 87.5953 529.879 89.0442C530.965 96.1519 533.068 103.041 532.462 110.477C532.154 114.29 531.788 118.268 532.336 121.986C533.662 130.98 535.433 139.892 537.17 148.803C537.879 152.453 538.999 155.966 541.993 158.016C547.947 162.076 551.295 168.992 555.044 175.403C557.535 179.654 559.638 184.246 562.106 188.511C562.838 189.782 564.186 191.19 565.363 191.354C572.94 192.406 579.923 190.137 586.048 184.711C589.156 181.964 589.865 178.341 588.596 174.2C586.779 168.24 583.705 163.169 579.031 160.353L566.072 125.512ZM548.541 219.621C548.313 223.899 548.461 228.205 548.084 232.455C547.787 235.668 548.484 237.486 551.193 238.005C553.238 238.388 555.329 238.497 556.472 238.634C559.306 238.415 561.341 238.743 563.066 238.005C565.672 236.898 568.963 235.804 570.346 233.385C573.054 228.656 576.128 223.749 574.403 216.901C573.351 212.691 572.757 210.039 569.272 209.574" fill="#FDF3EF" fill-opacity="0.11"/>
<path d="M414.092 82.3874C412.435 79.8041 414.458 76.5236 414.812 73.3388C415.12 70.6461 416.24 68.0217 417.315 65.5614C418.446 62.9507 418.96 59.9299 422.011 58.6997C423.76 58.0026 424.686 54.8041 426.377 53.4236C438.365 43.5412 451.324 42.5024 464.558 48.872C472.203 52.5488 477.117 59.9709 480.603 68.8828C484.294 78.3415 485.3 88.5383 487.025 98.5711C487.928 103.793 487.745 108.823 487.208 114.071C486.865 117.475 487.917 121.124 488.568 124.61C489.379 128.956 490.431 133.235 491.562 138.333C487.757 137.431 484.271 136.584 480.774 135.777C471.449 133.658 462.124 131.485 452.776 129.476C449.233 128.71 445.656 128.15 442.068 127.863C439.416 127.658 438.868 128.765 439.599 131.854C440.936 137.472 442.285 143.076 443.633 148.694C444.73 153.232 447.37 156.43 450.09 159.615C452.353 162.267 454.353 165.26 456.684 167.83C457.975 169.252 459.724 171.029 461.255 171.015C465.678 170.96 470.1 170.126 474.523 169.525C484.157 168.226 493.768 166.832 503.413 165.629C504.361 165.506 505.767 166.149 506.327 167.024C508.601 170.577 510.75 174.254 512.704 178.082C514.121 180.856 512.51 185.763 510.235 188.852C507.287 192.857 504.716 197.286 502.053 201.592C501.699 202.179 501.676 203.109 501.619 203.902C501.276 208.276 500.499 212.691 500.773 217.01C501.207 223.789 499.882 229.899 497.516 235.9C496.979 237.253 496.75 238.948 496.83 240.451C497.082 244.894 495.402 248.284 492.465 250.307C487.768 253.532 482.865 256.403 477.871 258.931C468.809 263.51 459.758 268.253 450.421 271.848C445.29 273.817 439.576 273.694 434.114 274.281C432.765 274.432 431.291 273.817 429.965 273.27C427.497 272.272 426.445 270.14 427.417 267.133C428.903 262.513 430.445 257.906 432.137 253.396C433.611 249.432 434.582 245.577 432.845 241.326C431.862 238.948 431.542 236.365 432.697 233.863C435.188 228.478 435.176 222.587 435.451 216.654C435.759 209.998 437.553 203.779 440.376 197.915C442.25 194.019 444.216 189.755 444.673 185.435C445.245 179.995 442.673 175.375 439.131 171.712C434.457 166.887 429.942 161.857 425.291 156.977C422.629 154.175 421.966 150.348 421.189 146.521C419.337 137.322 417.44 128.15 415.589 118.965C415.326 117.68 415.2 116.354 415.086 115.042C414.606 109.219 414.183 103.396 413.692 97.5733C413.36 93.6777 412.88 89.8095 412.675 85.914C412.618 84.9845 413.418 83.9867 414.092 82.3874ZM445.713 270.276C451.176 270.673 456.021 268.308 460.638 265.274C467.529 260.736 474.409 256.17 481.151 251.318C484.385 248.981 485.425 245.249 484.808 240.602C484.5 238.265 484.705 235.517 485.471 233.357C487.082 228.833 487.654 224.254 487.437 219.443C487.368 217.967 487.3 216.463 487.425 215.001C487.814 210.504 487.608 205.692 488.945 201.619C490.465 196.958 493.208 192.816 495.733 188.716C498.213 184.697 497.619 176.031 492.476 175.307C490.248 174.992 487.814 174.76 485.711 175.484C479.597 177.576 473.574 180.063 467.586 182.661C466.169 183.276 464.775 184.656 463.895 186.132C461.541 190.096 459.61 194.429 457.244 198.407C452.501 206.376 452.741 213.921 458.547 220.878C460.295 222.969 460.329 224.979 458.752 227.152C456.341 230.473 453.838 233.699 451.61 237.185C450.81 238.442 450.159 240.41 450.341 241.914C450.924 246.807 449.107 250.266 446.616 253.765C443.953 257.496 441.633 261.57 439.256 265.574C437.839 267.966 438.639 269.429 440.902 269.825C442.479 270.085 444.102 270.126 445.713 270.276ZM463.369 89.4131C462.661 87.3902 462.067 86.0916 461.735 84.7111C459.781 76.5783 458.204 68.2814 455.85 60.3126C454.524 55.8156 451.164 52.8905 447.004 52.6718C443.016 52.4668 439.702 54.4898 437.462 58.7134C436.708 60.1486 434.731 61.4744 434.856 62.6089C435.496 68.6231 432.879 74.4596 434.365 80.4465C434.468 80.8429 434.239 81.3486 434.262 81.786C434.342 83.5356 434.479 85.2852 434.571 87.0348C434.651 88.388 434.822 89.7548 434.754 91.0944C434.502 95.7007 435.325 96.9719 439.016 97.5733C439.428 97.6416 439.793 98.038 440.239 98.3251C439.988 99.3502 439.405 100.43 439.645 101.018C440.102 102.125 440.959 103.656 441.782 103.779C444.205 104.148 446.696 103.916 449.359 103.916C449.096 102.74 448.867 101.688 448.547 100.198C449.496 100.102 450.273 99.8833 451.027 99.979C455.061 100.471 459.084 101.072 463.106 101.578C465.026 101.824 465.781 100.813 465.163 98.5438C464.489 96.0697 463.758 93.6094 463.198 91.0944C463.049 90.3562 463.369 89.4405 463.369 89.4131Z" fill="#FDF3EF" fill-opacity="0.11"/>
<path d="M618.141 28.2591C619.158 26.0722 620.164 23.8988 621.284 21.4932C623.901 21.4932 627.021 21.4932 630.152 21.4932C630.164 21.6982 630.186 21.9032 630.198 22.1219C629.009 22.2039 627.809 22.2859 625.775 22.4226C627.729 23.1881 628.952 23.6665 630.643 24.3362C629.409 24.637 628.655 24.8146 627.901 24.9923C627.912 25.1564 627.924 25.3067 627.935 25.4707C628.518 25.5801 629.112 25.6894 629.843 25.8261C629.843 29.5987 629.866 33.3302 629.832 37.0481C629.821 39.2761 629.741 41.504 629.661 43.732C629.592 45.7277 630.323 46.9988 632.015 47.1218C633.809 47.2585 635.626 46.9715 637.409 47.2039C640.677 47.6276 643.923 48.311 647.18 48.8578C647.683 48.9398 648.208 48.8714 648.745 48.4477C647.9 48.311 647.054 48.1743 646.197 48.0513C646.208 47.901 646.22 47.7506 646.231 47.6002C647.774 47.6002 649.328 47.6002 651.088 47.6002C650.277 50.4843 649.522 53.1634 648.574 56.5259C648.78 56.4712 648.048 56.4302 647.557 56.7992C643.9 59.5603 639.946 57.3733 636.163 57.8654C634.278 58.1114 632.289 58.0021 630.575 58.7539C629.912 59.0409 629.512 61.3236 629.592 62.6494C629.786 66.3263 630.209 69.9895 630.701 73.6117C631.981 82.9747 633.009 92.406 634.815 101.619C635.66 105.924 635.58 109.861 635.329 114.153C635.032 119.265 635.923 124.473 636.323 129.639C636.54 132.455 636.769 135.285 637.055 138.087C637.489 142.31 637.352 146.835 638.666 150.648C639.797 153.956 642.311 156.881 644.746 159.164C647.728 161.966 650.711 164.44 652.779 168.499C653.694 170.304 656.094 171.698 657.968 171.985C662.219 172.655 666.584 172.942 670.859 172.586C674.755 172.258 677.338 173.926 679.532 177.521C680.767 179.557 680.367 180.733 678.607 181.307C675.578 182.291 672.516 183.097 669.441 183.849C662.665 185.53 657.842 190.109 653.282 196.411C649.534 201.591 648.105 206.307 648.62 212.881C649.248 220.973 647.18 228.477 643.466 235.339C642.769 236.624 642.597 238.401 642.426 239.986C642.254 241.531 642.391 243.13 642.391 245.536C637.226 242.447 632.483 239.768 627.901 236.747C627.124 236.227 626.815 234.314 626.621 232.988C626.369 231.211 626.529 229.352 626.392 227.548C626.038 223.092 625.318 218.636 625.364 214.18C625.387 212.649 627.009 210.394 628.324 209.765C633.421 207.332 634.62 201.905 635.82 196.588C636.095 195.372 634.598 193.65 634.038 192.091C633.558 190.793 633.203 189.412 632.906 188.032C632.746 187.307 632.929 186.487 632.792 185.749C632.141 182.127 633.226 179.803 636.289 178.423C640.849 176.372 640.883 174.664 637.432 170.454C633.375 165.506 629.261 160.818 624.324 157.113C620.758 154.434 620.541 149.268 620.427 145.167C620.221 137.499 616.964 131.444 614.29 125.156C612.199 120.222 611.01 115.52 610.782 109.943C610.507 103.191 608.862 96.5203 607.959 89.7817C607.753 88.2918 608.165 86.6789 608.702 85.1206C605.719 77.7669 605.662 69.5247 604.896 61.4876C604.679 59.2596 604.005 58.1798 602.154 58.3301C600.542 58.4531 598.919 58.9452 597.354 58.7402C596.314 58.6035 594.771 57.7697 594.508 56.8266C594.188 55.6511 594.6 53.6691 595.331 52.726C596.657 51.0037 598.131 48.8031 600.645 50.3613C600.851 50.4843 601.376 50.1426 601.639 49.8692C605.296 45.755 609.033 41.7227 612.542 37.4308C614.347 35.2165 615.707 32.4964 617.33 30.0634C617.696 29.5167 618.37 29.2706 618.896 28.8879C618.633 28.6555 618.381 28.4505 618.141 28.2591Z" fill="#FDF3EF" fill-opacity="0.11"/>
<path d="M303.23 696.382C303.505 692.773 306.122 692.008 308.259 690.559C311.847 688.14 315.413 685.679 318.921 683.11C319.847 682.426 320.738 681.401 321.241 680.267C323.424 675.332 326.704 671.724 330.361 668.416C331.572 667.323 332.44 665.559 333.252 663.946C336.017 658.465 338.634 652.888 341.4 647.407C342.76 644.715 343.594 642.09 343.994 638.796C344.611 633.807 346.703 629.078 348.234 624.266C350.554 616.967 354.782 611.582 359.982 606.989C362.61 604.665 364.793 601.645 367.147 598.884C369.307 596.355 369.159 593.444 367.65 590.669C366.473 588.509 364.964 586.582 363.616 584.559C361.822 581.894 362.359 579.652 364.667 577.547C368.839 573.733 373.33 573.884 378.107 575.059C382.849 576.235 387.649 577.096 392.414 578.107C397.169 579.119 399.054 582.727 397.877 588.523C396.631 594.715 394.392 600.155 389.843 603.886C389.386 604.255 389.066 604.857 388.906 605.841C391.317 604.283 393.672 602.588 396.151 601.221C401.603 598.187 406.848 594.619 413.042 593.744C417.796 593.074 422.104 594.086 426.184 596.833C429.738 599.225 430.618 604.925 427.773 608.875C423.247 615.177 419.042 621.765 413.453 627.027C408.962 631.265 404.597 635.42 399.351 638.222C394.414 640.86 389.397 641.721 384.083 640.559C378.289 639.288 376.095 636.513 375.547 629.488C375.455 628.367 375.398 627.232 375.295 625.633C374.61 626.262 373.947 626.576 373.741 627.137C372.118 631.511 370.564 635.926 369.033 640.341C368.381 642.213 367.993 644.209 367.25 646.013C364.919 651.686 363.079 657.317 364.816 663.864C365.124 665.04 364.164 667.063 363.342 668.238C361.719 670.589 359.708 672.544 357.982 674.813C357.011 676.098 356.393 677.779 355.422 679.064C354.451 680.349 353.308 681.538 352.085 682.467C349.057 684.777 345.571 685.898 342.92 689.397C341.537 691.215 337.96 690.682 335.366 691.133C328.966 692.227 322.567 693.293 316.156 694.345C311.881 695.042 307.619 695.685 303.23 696.382Z" fill="#FDF3EF" fill-opacity="0.11"/>
<path d="M415.478 515.163C414.403 515.341 413.489 515.628 412.575 515.628C404.964 515.628 397.342 515.655 389.73 515.464C388.645 515.437 387.582 514.207 386.508 513.537C387.342 512.621 388.039 511.336 389.011 510.844C395.982 507.413 399.387 500.88 400.793 492.378C401.113 490.451 401.57 488.154 402.667 486.883C407.375 481.347 408.69 473.939 410.701 466.954C412.506 460.639 415.249 455.513 419.775 451.386C422.289 449.089 424.22 445.631 425.832 442.282C426.597 440.683 426.083 438.141 425.969 436.036C425.923 435.188 425.329 434.395 425.1 433.534C423.717 428.245 425.112 425.21 429.626 424.841C433.957 424.486 438.357 424.636 442.699 425.032C445.545 425.292 445.865 426.522 444.585 429.611C442.836 433.862 443.339 435.229 447.27 435.954C452.87 436.992 458.447 436.61 463.921 434.929C470.732 432.824 477.075 433.794 483.017 438.441C487.863 442.228 488.308 446.807 484.103 451.454C482.571 453.149 480.96 454.721 479.406 456.375C476.675 459.245 475.978 462.826 477.04 466.886C478.88 473.898 478.503 480.131 473.703 485.612C471.726 487.867 470.195 491.025 469.189 494.114C467.349 499.772 464.127 503.723 459.704 506.169C451.579 510.68 443.053 512.58 434.174 510.174C431.9 509.559 429.66 508.397 427.591 507.044C424.22 504.857 420.769 505.39 417.318 506.142C416.598 506.292 415.718 507.769 415.581 508.753C415.283 510.748 415.478 512.826 415.478 515.163ZM431.397 503.053C441.054 502.233 448.767 499.444 454.493 489.425C455.453 487.758 456.676 486.295 457.83 484.792C461.773 479.598 462.755 473.747 460.698 467.173C459.35 462.881 459.887 459.19 462.961 456.129C464.115 454.98 465.098 453.559 466.081 452.165C468.206 449.144 467.235 447.148 464.938 445.112C464.012 444.292 462.652 444.087 461.453 443.854C453.087 442.2 445.899 445.754 438.699 450.456C432.425 454.543 428.597 460.653 426.917 468.389C425.352 475.634 423.477 482.304 419.26 488.045C416.552 491.735 417.843 498.269 421.58 500.128C424.654 501.672 428.106 502.124 431.397 503.053Z" fill="#FDF3EF" fill-opacity="0.11"/>
<path d="M538.27 441.08C540.864 441.545 542.007 443.335 540.704 445.837C539.333 448.502 537.47 450.826 535.71 453.177C534.453 454.872 532.944 456.293 531.664 457.961C529.047 461.378 529.699 465.971 533.264 467.502C536.464 468.868 539.858 469.579 543.195 470.454C547.881 471.684 549.012 475.156 546.029 479.571C544.121 482.387 541.813 484.669 540.544 488.25C539.938 489.945 537.378 490.93 535.55 491.627C533.207 492.515 530.693 492.679 528.282 493.335C521.276 495.249 520.328 496.588 519.699 505.145C519.574 506.84 519.619 508.562 519.528 510.257C519.368 513.182 518.465 513.893 516.271 512.417C513.974 510.858 511.928 508.753 509.62 507.223C505.494 504.489 501.197 502.097 497.072 499.336C495.998 498.611 494.786 497.135 494.638 495.837C494.535 494.962 496.043 493.199 497.072 492.87C502.809 491.025 507.311 487.376 510.466 481.266C513.163 476.044 512.74 473.529 508.271 470.563C504.306 467.925 504.237 467.337 507.003 463.087C508.077 461.446 508.729 459.369 509.917 457.892C511.597 455.829 513.38 453.601 515.494 452.37C521.905 448.666 528.487 445.399 535.024 442.037C536.041 441.517 537.184 441.394 538.27 441.08Z" fill="#FDF3EF" fill-opacity="0.11"/>
<path d="M452.799 330.719C452.068 332.523 451.256 333.548 451.405 334.313C452.159 338.168 449.942 339.426 447.748 340.519C441.371 343.677 435.131 347.422 428.137 348.228C424.949 348.597 421.681 348.734 418.504 348.379C415.144 347.996 413.898 345.658 414.138 341.913C414.721 332.455 418.184 325.62 425.852 322.039C429.372 320.399 432.549 317.638 436.103 316.134C438.697 315.027 441.668 314.658 444.445 314.808C447.359 314.959 447.851 316.695 446.696 319.92C446.456 320.577 446.548 321.752 446.902 322.299C448.811 325.21 450.868 327.999 452.799 330.719ZM445.679 331.252C442.777 326.331 438.811 326.7 434.754 328.368C430.937 329.94 429.337 334.464 431.406 337.239C433.6 340.177 441.611 339.193 443.359 335.762C444.102 334.341 444.834 332.906 445.679 331.252Z" fill="#FDF3EF" fill-opacity="0.11"/>
<path d="M148.814 863.14C148.437 864.11 148.014 864.862 148.117 864.971C150.288 867.432 148.186 869.004 147.26 870.698C146.426 872.216 145.283 872.694 143.957 871.327C143.112 870.452 142.049 869.783 141.397 868.758C140.769 867.76 140.529 866.393 140.129 865.19C141.077 864.807 141.992 864.288 142.963 864.083C144.769 863.686 146.62 863.481 148.814 863.14Z" fill="#FDF3EF" fill-opacity="0.11"/>
<path d="M86.385 826.03C85.2879 826.905 84.2365 828.381 83.0823 828.517C81.1281 828.736 79.1054 828.08 77.1055 827.807C77.3912 826.741 77.6083 824.8 77.9626 824.759C80.6024 824.499 83.2537 824.622 85.9164 824.622C86.0764 825.073 86.2364 825.551 86.385 826.03Z" fill="#FDF3EF" fill-opacity="0.11"/>
<path d="M100.806 892.062C110.429 891.078 120.051 890.107 129.662 889.123C129.685 889.437 129.708 889.752 129.731 890.066C120.04 891.064 110.337 892.062 100.646 893.073C100.704 892.745 100.761 892.404 100.806 892.062Z" fill="#FDF3EF" fill-opacity="0.11"/>
<path d="M441.418 98.1201C443.246 101.647 443.509 101.674 446.081 99.0769C444.526 98.7489 443.281 98.4892 441.418 98.1201Z" fill="#FDF3EF" fill-opacity="0.11"/>
<path d="M441.418 98.1201C443.281 98.5028 444.526 98.7489 446.081 99.0769C443.509 101.674 443.246 101.633 441.418 98.1201Z" fill="#FDF3EF" fill-opacity="0.11"/>
</svg>
