<svg width="576" height="252" viewBox="0 0 576 252" fill="none" xmlns="http://www.w3.org/2000/svg">
<g clip-path="url(#clip0)">
<path d="M575.884 -414.4C573.784 -413.7 571.684 -413 569.484 -412.3C565.384 -411 561.384 -409.3 557.784 -406.9C552.884 -403.6 547.984 -400.3 543.184 -396.8C539.584 -394.2 538.584 -390.3 539.584 -386.1C540.284 -382.9 540.084 -380 538.484 -377.1C536.184 -373 534.284 -368.7 532.184 -364.5C530.684 -361.5 528.284 -359.2 525.784 -357.2C522.984 -355 520.484 -352.4 518.184 -349.6C515.484 -346.3 514.984 -342.6 515.984 -338.6C516.384 -337.1 516.684 -335.7 517.084 -334.1C514.184 -332 510.984 -330.7 507.884 -329.4C502.084 -326.8 496.284 -324.1 490.484 -321.5C489.284 -320.9 487.984 -320.5 486.784 -319.9C486.184 -322.4 486.584 -324.3 489.184 -325.4C490.684 -326.1 491.984 -327.3 493.484 -328C497.684 -330.1 500.584 -333.3 502.084 -337.8C503.684 -342.6 506.684 -346.6 510.184 -350.1C513.184 -353.1 516.384 -355.8 519.584 -358.6C521.584 -360.4 523.284 -362.3 524.584 -364.7C526.784 -368.8 528.484 -373.1 530.984 -377C533.584 -380.9 531.084 -385.2 528.084 -387.2C524.784 -389.5 521.684 -388 518.884 -386.5C515.784 -384.8 513.084 -382.4 510.884 -379.6C509.484 -377.9 507.684 -376.6 506.184 -374.9C503.484 -372 500.684 -369.2 498.284 -366C494.384 -360.8 489.384 -356.9 484.284 -353C481.484 -350.9 478.784 -348.7 476.284 -346.2C474.084 -343.9 472.684 -341.1 473.684 -337.7C474.084 -336.4 474.184 -335 474.184 -333.7C474.184 -332.2 474.084 -330.7 473.784 -329.3C472.684 -324.5 470.284 -320.3 467.284 -316.5C465.284 -313.9 462.684 -312.3 459.884 -310.9C454.884 -308.5 449.684 -306.2 444.684 -303.9C442.684 -303 440.584 -302.1 438.684 -301C433.184 -297.9 427.284 -296 421.384 -294C413.684 -291.4 406.084 -288.4 398.784 -284.7C393.684 -282.1 388.284 -279.9 383.284 -277.2C377.484 -274 371.884 -270.4 366.084 -267.2C361.184 -264.4 356.384 -261.3 351.984 -257.8C348.084 -254.7 344.384 -251.5 340.284 -248.7C335.784 -245.5 331.084 -242.6 326.384 -239.8C319.084 -235.5 311.684 -231.4 304.284 -227.3C299.884 -224.9 295.384 -222.7 290.884 -220.4C284.984 -217.5 278.984 -214.5 272.984 -211.8C266.684 -208.9 260.184 -206.5 253.484 -204.8C249.884 -203.9 246.284 -202.9 242.584 -202.2C239.684 -201.6 236.784 -201.4 233.884 -202.4C231.884 -203.1 230.084 -204 229.884 -206.6C229.584 -209.4 228.984 -212.1 228.384 -214.9C227.684 -218.3 228.784 -221.3 230.884 -223.8C233.184 -226.5 235.684 -229 238.284 -231.5C244.284 -237.3 251.484 -241.3 258.684 -245.1C263.184 -247.5 267.684 -249.9 272.184 -252.2C278.584 -255.5 284.984 -258.8 291.384 -262C296.684 -264.7 302.084 -267.3 307.484 -269.9C309.884 -271.1 312.484 -272 314.984 -273.2C322.484 -276.7 330.084 -280.1 337.484 -283.9C344.184 -287.3 350.584 -291.2 357.084 -294.9C360.184 -296.6 363.184 -298.4 366.184 -300.2C367.384 -300.9 368.384 -301.8 369.484 -302.5C373.184 -305.1 377.484 -306.5 381.484 -308.4C384.184 -309.7 386.984 -310.9 389.684 -312.3C392.484 -313.7 394.484 -315.9 396.184 -318.4C397.784 -320.8 399.584 -322.8 402.384 -324.1C406.584 -325.9 410.784 -328 414.784 -330.3C417.584 -331.9 420.184 -333.9 422.884 -335.8C425.284 -337.5 427.584 -339.2 429.984 -340.9C430.584 -341.3 431.284 -341.7 431.984 -342.1C432.684 -340.8 433.584 -339.8 433.984 -338.7C434.484 -337.2 432.784 -336.8 432.084 -335.9C430.184 -333.3 427.884 -331.2 425.184 -329.3C421.984 -327 418.984 -324.3 415.984 -321.7C413.784 -319.8 411.884 -317.7 409.584 -315.9C407.184 -314 404.584 -312.1 401.884 -310.7C394.284 -306.6 386.584 -302.7 378.884 -298.9C375.284 -297.1 371.384 -295.7 367.684 -294C363.884 -292.3 360.184 -290.5 356.484 -288.7C346.084 -283.6 335.684 -278.6 325.284 -273.5C317.284 -269.6 309.184 -265.8 301.284 -261.5C294.884 -258 288.984 -253.8 282.784 -250C277.084 -246.5 271.384 -242.9 265.484 -239.7C257.684 -235.4 250.284 -230.5 243.684 -224.6C241.984 -223.1 240.584 -221.4 239.884 -219.2C239.484 -217.9 239.284 -216.8 240.184 -215.5C240.984 -214.2 241.984 -213.3 243.484 -212.9C244.384 -212.7 245.384 -212.5 246.284 -212.5C250.684 -212.4 254.884 -213.5 258.784 -215.2C263.384 -217.2 267.884 -219.4 272.384 -221.7C275.684 -223.3 278.884 -225 281.984 -227C287.084 -230.2 292.084 -233.7 297.084 -237.1C301.184 -239.8 305.584 -242.2 309.584 -245.2C314.684 -249.1 319.384 -253.6 324.384 -257.7C327.184 -260 330.084 -262.3 333.184 -264.3C338.884 -267.9 344.684 -271.5 350.584 -274.8C354.984 -277.3 359.484 -279.4 364.084 -281.5C371.684 -285 379.384 -288.4 387.084 -291.6C390.584 -293.1 394.284 -294.2 397.984 -295.3C404.184 -297.1 409.884 -299.8 415.684 -302.5C421.784 -305.3 427.884 -308.1 433.984 -310.8C437.884 -312.5 440.784 -315.2 443.284 -318.8C445.784 -322.6 447.284 -326.8 448.984 -330.9C449.484 -332 449.384 -333.4 449.384 -334.6C449.384 -336.4 448.884 -338.3 449.184 -340.1C449.484 -341.8 450.184 -343.5 451.184 -344.9C452.584 -346.8 454.384 -348.4 456.184 -350C457.884 -351.5 459.584 -352.9 461.484 -354.1C466.684 -357.7 471.084 -362 474.884 -367C478.084 -371.2 481.584 -375.1 484.884 -379.3C486.684 -381.6 488.284 -384.1 490.084 -386.4C493.384 -390.7 497.084 -394.5 501.184 -397.9C504.884 -401 508.284 -404.2 511.084 -408.3C512.084 -409.8 513.684 -410.9 515.284 -411.8C518.784 -413.8 522.384 -415.5 525.884 -417.3C529.984 -419.4 534.284 -421.3 538.284 -423.5C545.184 -427.3 552.484 -430.1 559.784 -433C564.184 -434.7 568.484 -436.7 572.684 -438.7C573.784 -439.2 574.884 -440.1 575.884 -440.7C575.884 -437.3 575.884 -434 575.884 -430.6C575.584 -430.4 575.384 -430.3 575.084 -430.1C571.184 -428.3 567.284 -426.5 563.384 -424.6C557.984 -422 552.884 -418.8 547.084 -417.1C546.584 -416.9 546.084 -416.6 545.684 -416.3C544.384 -415.2 543.184 -414.1 541.884 -413.1C540.284 -411.9 539.584 -410.4 539.884 -408.4C542.184 -406.7 545.084 -406.9 549.184 -408.3C554.484 -410.1 559.684 -412.2 564.884 -414.3C566.884 -415.1 568.884 -415.8 571.084 -416.1C572.684 -416.3 574.384 -416.8 575.984 -417.2C575.884 -416 575.884 -415.2 575.884 -414.4Z" fill="black"/>
<path d="M559.484 -449.9C558.184 -447.4 556.084 -445.6 554.184 -443.6C549.184 -438.6 543.084 -435.6 536.884 -432.6C531.884 -430.2 526.884 -427.9 522.984 -423.8C520.184 -420.9 516.584 -420.1 513.184 -418.7C511.784 -418.1 510.184 -417.7 508.384 -417C509.084 -419.1 509.584 -420.8 510.284 -422.4C511.484 -425.4 513.984 -427.5 516.284 -429.8C517.784 -431.3 519.384 -432.7 520.984 -434.2C521.484 -434.6 522.084 -434.8 522.684 -435.1C525.384 -436.4 528.184 -437.7 530.784 -439.2C533.884 -440.9 536.684 -443 538.484 -446.2C538.984 -447 539.684 -447.4 540.484 -447.7C542.084 -448.3 543.584 -449.2 545.184 -450C549.884 -449.9 554.684 -449.9 559.484 -449.9Z" fill="black"/>
<path d="M217.884 156C219.284 157.4 220.584 157.3 221.984 157.1C227.284 156.2 231.884 153.6 236.384 150.9C241.384 147.8 245.384 143.6 249.084 139.1C251.784 135.9 251.784 135.9 248.884 132.9C248.784 132.8 248.684 132.7 248.584 132.5C247.084 131.1 245.084 129.5 245.184 127.6C245.184 125 246.184 122.3 247.984 120.1C249.884 117.9 251.784 115.6 253.884 113.6C254.984 112.6 255.084 111.3 254.884 110.4C254.384 108.2 254.084 106 253.584 103.8C253.084 101.7 251.984 99.7999 251.784 97.7C251.584 95.9999 250.184 94.4999 250.784 92.7C250.784 92.6 250.784 92.4 250.684 92.2C248.484 87.9999 247.184 83.3 244.484 79.4C241.784 75.5 239.084 71.7001 236.584 67.8C234.884 65.2001 233.384 62.6 231.884 59.9C231.384 58.9 230.784 58.3 229.684 57.9C224.684 56.5 219.684 55 214.784 53.5C208.784 51.7 202.784 49.8 197.284 46.5C195.484 45.4 193.684 44.1 192.584 42.2C191.984 41.1 191.484 40 191.484 38.7C191.484 37.4 191.384 36 190.984 34.7C189.784 30.8 189.884 26.8 189.884 22.8C189.884 20.3 191.184 18.1 192.784 16.2C194.384 14.4 196.384 13.1 198.584 12C202.884 9.89999 207.384 8.89999 211.984 7.89999C218.084 6.5 224.384 5.5 230.184 3.10001C231.384 2.60001 232.684 2.40002 233.684 1.70001C235.284 0.700012 236.284 -0.899994 236.984 -2.5C237.384 -3.29999 237.684 -4.10001 237.984 -4.89999C239.584 -8.29999 242.684 -10.2 245.784 -11.9C247.484 -12.8 249.384 -13.6 251.484 -14.7C250.184 -15.5 249.184 -15.5 248.084 -15.6C242.884 -16.2 237.784 -16.8 232.584 -17.5C231.884 -17.6 231.184 -17.8 230.484 -18.1C228.484 -19 228.084 -20.1 229.484 -21.8C230.884 -23.6 232.484 -25.3 234.184 -26.8C237.084 -29.4 239.384 -32.3 240.584 -36.1C241.984 -40.7 245.184 -44.1 249.084 -46.9C253.984 -50.2 258.884 -53.5 264.284 -55.8C269.184 -57.9 274.284 -59.3 279.584 -59.5C285.584 -59.6 291.684 -59.5 297.684 -59.7C299.784 -59.8 301.984 -59.3 303.884 -60.9C304.984 -61.8 306.184 -62.6 307.184 -63.6C309.984 -66.3 312.584 -69.2 315.284 -71.9C318.084 -74.7 321.084 -77.3 324.584 -79.4C328.084 -81.5 331.084 -84.3 333.384 -87.7C335.484 -90.8 337.784 -93.7 340.884 -96.3C339.484 -96.3 338.184 -96.4 336.784 -96.4C330.384 -96.4 323.984 -96.3 317.584 -96.4C314.984 -96.4 312.384 -97 309.784 -97.3C309.184 -97.4 308.684 -97.7 307.884 -98.1C308.084 -98.7 308.284 -99.1 308.484 -99.5C309.584 -101.1 309.584 -102.8 309.284 -104.5C308.684 -107.7 307.884 -110.8 307.584 -114C307.384 -115.5 307.784 -117.3 308.484 -118.6C310.284 -121.8 312.284 -124.8 314.484 -127.8C315.284 -128.9 316.584 -129.7 317.684 -130.7C319.884 -132.7 319.684 -133.9 318.484 -135.6C317.684 -136.8 316.884 -138 316.084 -139.2C315.284 -140.5 315.184 -141.8 316.084 -143C317.284 -144.6 318.584 -146.1 319.984 -147.5C322.984 -150.7 326.184 -153.8 329.984 -156C336.884 -160 344.384 -161.4 352.284 -160.6C357.484 -160.1 362.584 -159.4 367.784 -158.8C369.384 -158.6 370.984 -158.4 372.584 -158.4C373.284 -158.4 374.184 -158.7 374.784 -159.2C378.184 -161.9 381.784 -164.4 384.584 -167.9C386.084 -169.8 387.884 -171.3 389.284 -173.2C390.584 -174.9 391.484 -176.9 390.684 -179.2C389.884 -181.5 388.084 -182.3 386.084 -181C382.684 -178.8 379.284 -176.6 375.984 -174.3C373.684 -172.7 371.184 -171.5 368.484 -170.9C365.384 -170.2 362.584 -171.1 360.084 -172.8C357.384 -174.8 357.384 -179.9 360.084 -182C363.284 -184.5 366.884 -186.5 370.584 -188.1C374.184 -189.7 377.784 -191.4 381.784 -192.2C385.384 -192.9 388.884 -194 392.684 -193.5C394.884 -193.2 397.184 -192.9 398.584 -190.8C398.984 -190.2 399.284 -189.4 399.384 -188.7C399.484 -187.7 399.484 -186.6 399.384 -185.6C399.184 -183.6 399.984 -181.9 400.984 -180.3C402.484 -177.9 404.384 -175.6 404.984 -172.8C405.784 -169.2 405.184 -165.8 402.584 -163.1C400.584 -161.1 398.384 -159.3 396.084 -157.5C391.784 -154.2 387.484 -151 383.084 -147.7C381.784 -146.8 380.484 -145.8 379.184 -145C375.484 -142.8 372.984 -139.7 371.384 -135.7C370.484 -133.5 369.384 -131.3 368.084 -129.4C366.484 -127.1 366.084 -124.7 366.884 -122.2C367.984 -118.7 369.184 -115.2 370.384 -111.7C370.384 -111.6 370.484 -111.6 370.484 -111.5C370.484 -108.7 372.084 -106 371.484 -103.2C371.084 -101.1 369.884 -99.6 368.084 -98.5C364.784 -96.6 361.584 -94.5 358.884 -91.7C358.284 -91.1 357.684 -90.4 357.284 -89.7C354.784 -85.9 351.784 -82.5 347.784 -80C344.184 -77.8 340.884 -75.4 338.084 -72.2C335.484 -69.3 332.784 -66.5 330.084 -63.8C329.084 -62.7 327.884 -61.8 326.684 -60.9C322.484 -57.4 318.284 -54 313.984 -50.6C312.484 -49.4 310.784 -48.3 309.084 -47.2C305.984 -45.2 303.584 -42.8 302.384 -39.2C301.584 -36.8 300.584 -34.5 299.184 -32.4C297.984 -30.6 296.384 -28.9 294.684 -27.5C289.184 -23.1 282.884 -19.9 276.484 -17C272.884 -15.4 269.384 -13.8 265.984 -11.7C262.684 -9.69998 260.084 -7 258.784 -3.10001C257.884 -0.300018 255.984 2 253.584 3.89999C250.484 6.19998 249.284 9.40002 249.184 13.2C249.084 16.1 248.884 19 248.684 22C248.284 26.5 249.284 31 249.984 35.4C250.284 37.1 250.384 38.9 250.384 40.6C250.184 44 250.684 47.2 251.484 50.4C251.884 52 252.084 53.7 252.284 55.3C252.584 57.9 253.284 60.3 254.684 62.5C256.184 64.8 257.784 67.1 259.284 69.4C260.984 72.1 262.684 74.8 264.384 77.6C264.584 77.9 264.784 78.3 265.084 78.6C267.484 81.6 269.284 84.9 270.484 88.6C271.284 91 272.084 93.5 272.784 96C274.084 100.2 275.384 104.4 276.184 108.7C276.984 112.5 277.284 116.5 277.484 120.4C277.584 122.3 277.084 124.2 276.784 126.1C276.384 128 276.084 129.9 275.384 131.7C273.884 135.4 271.684 138.7 268.984 141.6C265.384 145.4 261.684 149.1 257.084 151.8C247.884 157.3 238.084 161.2 227.184 161.5C220.584 161.7 214.084 160.8 207.984 158.1C206.784 157.6 205.684 156.7 204.684 155.8C203.484 154.6 202.984 153 203.584 151.4C205.484 146.7 208.184 142.6 213.384 140.8C215.084 140.2 216.684 139.4 218.384 138.7C220.984 137.6 223.684 137.8 226.284 138.8C228.384 139.6 229.084 140.7 228.184 142.7C227.184 144.8 225.884 146.9 224.384 148.7C222.984 150.4 221.184 151.8 219.684 153.5C218.884 154.2 218.384 155.2 217.884 156ZM228.084 9.39999C223.984 10.6 219.984 11.7 216.184 13C213.784 13.8 211.884 15.5 211.184 18.1C210.784 19.9 210.484 21.9 210.584 23.7C210.784 26.3 211.284 28.9 211.784 31.4C212.384 34.4 212.584 37.3 212.084 40.4C211.684 42.9 212.184 45.5 214.584 47.2C215.684 48.1 216.884 49.1 218.184 49.6C222.184 51.2 226.284 52.7 230.784 54.4C230.384 52.7 230.284 51.5 229.884 50.3C229.084 47.5 228.384 44.7 228.884 41.8C229.384 38.4 228.584 35.2 228.084 31.9C227.584 29.2 227.184 26.4 227.184 23.6C227.284 18.9 227.784 14.3 228.084 9.39999ZM249.784 -20.6C250.084 -20.4 250.284 -20 250.484 -20C252.984 -19.4 255.484 -18.8 257.984 -18.5C259.584 -18.3 261.184 -18.7 262.584 -19.6C264.884 -21.1 267.284 -22.6 269.584 -24.3C274.484 -27.9 278.384 -32.3 280.184 -38.3C281.384 -42.3 283.684 -45.6 287.584 -47.6C288.684 -48.2 289.584 -49 290.684 -49.7C285.884 -50.1 281.384 -49.1 277.084 -47.4C274.784 -46.5 272.484 -45.7 270.384 -44.5C266.884 -42.6 264.284 -40.1 262.584 -36.5C261.984 -35.2 261.384 -33.9 260.584 -32.7C258.684 -29.6 256.084 -27.1 253.184 -24.9C251.684 -23.7 250.284 -22.5 249.784 -20.6ZM348.184 -101.3C350.184 -104.9 347.584 -108 348.184 -111.2C348.184 -111.3 348.084 -111.3 348.084 -111.4C345.684 -115.1 345.784 -119.5 343.984 -123.4C343.884 -123.6 343.884 -123.9 343.884 -124.1C343.184 -127.9 340.884 -129 337.584 -126.9C337.284 -126.7 337.084 -126.5 336.784 -126.3C334.384 -124.1 331.984 -121.8 330.384 -119C328.984 -116.7 328.584 -114.3 329.884 -111.7C330.184 -111.2 330.284 -110.5 330.484 -109.9C330.884 -108.6 331.084 -107.1 331.884 -105.9C333.284 -103.6 335.084 -101.5 338.084 -101.3C339.584 -101.2 341.084 -101.1 342.684 -101.1C344.584 -101.2 346.484 -101.3 348.184 -101.3ZM368.084 -153.8C368.084 -154 368.084 -154.1 367.984 -154.3C367.284 -154.4 366.584 -154.6 365.884 -154.6C363.784 -154.7 361.684 -154.6 359.684 -154.9C357.084 -155.3 354.584 -154.9 352.184 -154.2C348.084 -153 344.884 -150.3 341.784 -147.6C340.384 -146.3 338.984 -145 337.784 -143.6C336.084 -141.6 336.084 -140.3 337.784 -138.3C338.584 -137.3 339.784 -136.4 340.784 -135.6C343.984 -133.2 348.084 -134.2 349.584 -137.9C350.584 -140.6 352.484 -142.4 354.684 -144.1C359.084 -147.2 363.584 -150.5 368.084 -153.8Z" fill="black"/>
<path d="M371.584 -62.6C369.084 -61.8 367.384 -60.2 365.684 -58.6C360.884 -54.3 355.684 -50.5 350.284 -46.9C347.384 -45 345.284 -42.7 343.884 -39.5C342.684 -36.8 341.884 -34 339.984 -31.6C337.084 -27.8 333.284 -25.2 329.184 -23C324.384 -20.4 319.284 -18.1 314.284 -15.8C309.884 -13.8 305.484 -12 302.084 -8.29999C301.084 -7.19998 299.984 -6 299.584 -4.60001C298.484 -0.700012 296.084 2.20001 293.084 4.60001C290.884 6.39999 289.684 8.70001 289.484 11.3C289.084 15.2 288.884 19.2 288.884 23.2C288.884 26.4 288.784 29.7 289.784 32.8C290.884 36.5 290.484 40.2 290.684 43.9C290.784 46.2 291.484 48.5 291.984 50.8C292.084 51.5 292.484 52.2 292.484 52.9C292.684 58.2 294.784 62.7 297.884 66.9C300.684 70.7 303.384 74.6 305.684 78.7C308.384 83.4 311.284 88.1 312.784 93.5C313.584 96.7 314.384 100 315.384 103.1C316.884 107.6 317.284 112.2 318.184 116.8C318.684 119.2 318.584 121.5 317.884 123.8C317.484 125.4 316.984 127.1 316.784 128.7C316.384 132.2 314.684 135 312.684 137.7C308.984 142.7 304.684 147.1 299.484 150.6C295.184 153.5 291.084 156.6 286.884 159.7C285.984 160.4 285.184 161.2 284.484 162C283.084 163.5 282.884 164.4 283.084 167C283.784 167.3 284.584 167.6 285.484 167.9C288.684 168.9 290.384 171.3 291.484 174.2C291.684 174.8 291.684 175.3 292.484 175.1C292.584 175.1 292.884 175.1 292.884 175.2C293.284 177 295.184 177.2 296.284 178.4C295.484 183.8 295.784 189.2 298.084 194.7C295.984 194.3 294.084 194.1 292.484 193.5C289.784 192.5 286.984 191.6 284.484 190C283.284 189.2 282.084 188.5 280.884 187.7C280.484 187.4 279.884 187.3 279.184 187C279.284 190.8 280.784 194.2 281.584 197.6C282.384 201.1 283.184 204.5 284.184 208.4C282.384 208.2 280.784 207.9 279.184 207.9C275.984 207.8 273.784 206.6 271.984 203.8C270.084 200.9 267.484 198.4 265.084 195.9C263.084 193.7 261.884 191.3 260.984 188.5C259.984 185.4 258.884 182.2 256.884 179.4C255.684 177.7 255.084 175.8 255.484 173.6C255.784 171.3 255.484 169 254.284 166.9C254.084 166.5 253.984 166 253.884 165.6C253.584 164.6 253.384 163.5 253.084 162.2C253.584 161.6 254.384 160.8 255.184 160C255.984 159.1 257.084 158.8 258.284 159.1C258.684 159.2 259.084 159.3 259.484 159.4C262.084 160 264.284 160 266.684 158C270.784 154.5 275.584 151.9 279.884 148.6C284.884 144.8 289.084 140.1 292.484 134.7C293.784 132.6 294.484 130.3 294.884 127.9C295.384 124.8 296.384 121.7 296.284 118.6C296.184 116.2 295.484 113.7 295.084 111.3C294.484 107.2 293.484 103.2 292.084 99.3C290.684 95.3 289.684 91.1 288.284 87.1C287.684 85.5 286.484 84.1 285.684 82.6C283.384 78 280.184 73.8 277.384 69.5C275.384 66.5 273.484 63.4 271.784 60.2C271.184 59.1 270.984 57.6 270.784 56.3C270.384 54.1 270.284 51.7 269.584 49.6C268.684 46.6 268.684 43.7 268.684 40.6C268.684 38.7 268.584 36.8 268.384 34.9C267.884 31.3 266.784 27.7 267.084 24C267.284 19.7 267.484 15.4 267.784 11.1C267.984 8.20001 269.284 5.69998 271.584 3.89999C274.484 1.69998 276.384 -1.29999 277.684 -4.5C278.384 -6.10001 279.384 -7.29999 280.584 -8.5C282.984 -10.7 285.784 -12.2 288.684 -13.6C293.884 -16 299.184 -18.4 304.284 -20.9C308.284 -22.9 311.684 -25.7 314.884 -28.7C317.484 -31.1 319.384 -34 320.484 -37.4C320.984 -39 321.684 -40.5 322.484 -42C323.784 -44.7 326.184 -46.4 328.584 -47.9C332.984 -50.7 337.084 -53.8 340.984 -57.2C343.784 -59.7 346.884 -61.9 349.584 -64.4C352.384 -67 355.184 -69.7 357.684 -72.5C360.984 -76.3 365.284 -78.5 369.184 -81.5C372.584 -84 375.384 -87 377.184 -90.9C377.584 -91.7 378.184 -92.4 378.884 -92.9C381.384 -94.7 383.984 -96.4 386.584 -98.2C387.084 -98.6 387.684 -98.8 388.184 -99.2C390.684 -101.1 391.184 -103.7 390.784 -106.6C390.584 -108.1 389.584 -109.6 390.184 -111.2C390.184 -111.3 390.184 -111.4 390.084 -111.4C388.184 -114.2 388.184 -117.8 386.784 -120.8C385.884 -122.8 385.884 -124.8 385.984 -126.9C386.084 -127.6 386.484 -128.3 386.884 -128.8C389.384 -132.2 391.484 -135.7 392.984 -139.7C393.484 -140.9 394.684 -141.8 395.684 -142.6C399.484 -145.4 403.284 -148.1 407.084 -150.9C411.084 -153.8 414.984 -156.8 418.884 -159.8C419.184 -160 419.384 -160.4 419.784 -160.8C418.084 -161.7 416.484 -162.6 414.684 -163.6C415.884 -164.9 416.784 -166 417.984 -167C418.384 -167.3 419.184 -167.3 419.784 -167.3C425.884 -166.7 431.684 -167.9 437.384 -169.7C441.284 -171 445.084 -172.3 448.584 -174.4C449.484 -175 450.484 -175.1 451.484 -174.5C453.084 -173.7 454.784 -173 456.684 -172.1C451.884 -167.7 447.384 -163.6 442.784 -159.3C446.084 -157.2 449.984 -156 453.984 -154C451.084 -152.3 448.484 -150.8 445.884 -149.4C445.384 -149.1 444.484 -149.4 443.884 -149.6C441.284 -150.7 438.784 -151.8 436.284 -153C435.284 -153.5 434.584 -153.4 433.684 -152.7C430.584 -150.4 427.384 -148.1 424.184 -145.8C423.584 -145.4 422.984 -145 422.384 -144.6C418.684 -142.6 416.584 -139.4 414.984 -135.6C414.284 -133.9 413.084 -132.4 412.084 -130.8C411.984 -130.6 411.784 -130.4 411.684 -130.2C409.284 -127.1 408.984 -123.8 410.384 -120.2C411.284 -118 411.584 -115.6 412.484 -113.4C413.584 -110.6 413.784 -107.6 414.084 -104.6C414.484 -101.7 412.784 -99.8 410.484 -98.4C409.184 -97.6 407.784 -96.9 406.384 -96.2C406.484 -96 406.484 -95.9 406.584 -95.7C410.384 -96.3 414.184 -96.9 417.884 -97.5C421.684 -98.1 425.484 -98.5 429.284 -101C428.884 -100.2 428.784 -99.7 428.484 -99.5C425.784 -97.3 423.084 -95 420.284 -93C418.984 -92.1 417.184 -91.7 415.584 -91.4C413.284 -90.9 411.884 -89.7 410.784 -87.6C409.284 -84.8 406.984 -82.7 403.984 -81.4C400.984 -80.1 397.984 -78.8 395.084 -77.4C393.784 -76.8 392.584 -75.8 391.484 -75C391.884 -73 392.584 -71.6 393.684 -70.4C395.084 -68.9 394.884 -68.1 393.284 -66.6C389.184 -62.9 384.484 -60.1 380.084 -56.8C379.384 -56.3 378.784 -56.1 377.984 -56.8C375.584 -58.6 372.684 -59.6 371.584 -62.6Z" fill="black"/>
<path d="M404.984 152.4C408.384 152.6 411.384 152.7 414.284 153.1C417.584 153.5 420.584 154.6 422.784 157.3C423.584 158.3 424.184 159.6 424.584 160.8C426.384 166.2 426.984 171.8 427.884 177.4C428.284 179.6 427.884 181.9 428.184 184.2C428.484 187.3 428.884 190.4 429.484 193.4C430.284 197.3 429.684 200.3 427.184 203.7C427.884 203.9 428.484 204.2 429.084 204.3C431.784 204.7 434.484 205.1 437.184 205.3C438.284 205.4 438.984 205.8 439.484 206.8C440.584 208.9 441.784 210.9 443.084 213.2C440.984 212.9 439.184 212.7 437.384 212.4C431.884 211.5 426.384 210.6 420.884 209.8C419.684 209.6 418.284 209.9 417.084 210.2C410.984 211.6 404.884 211 398.884 209.6C391.684 207.9 384.784 205.4 378.784 201C374.384 197.8 371.084 193.7 369.584 188.3C368.984 185.9 368.984 183.4 369.584 181C370.084 179 370.384 177.1 370.484 175.1C370.684 171.2 371.784 167.5 373.984 164.4C375.184 162.6 377.284 161.2 379.284 160.1C383.984 157.5 389.084 156 394.284 154.7C395.984 154.3 397.684 153.9 399.584 153.5C399.384 152.8 399.284 152.2 399.184 151.6C398.584 149.6 398.884 147.7 399.784 145.8C400.884 143.5 402.084 141.2 403.284 139C406.584 132.8 407.884 126 408.684 119C409.084 115.6 409.584 112.1 410.684 109C411.484 106.8 413.384 105 414.884 103C415.584 102.1 416.484 101.2 417.284 100.2C412.784 97.9 408.984 94.9 405.984 91.1C403.684 88.1 402.184 84.4999 400.284 81.2C399.584 79.9 398.884 78.5 398.284 77.1C397.884 76.1 397.584 75 397.384 74C396.584 70.2 396.084 66.3 397.384 62.4C395.084 60.7 392.784 59 390.384 57.3C387.784 55.5 386.184 52.8 384.484 50.3C383.884 49.3 383.484 48.1 382.984 47.1C381.484 43.7 381.284 40.2 381.984 36.6C382.084 36.3 382.184 36 382.184 35.7C381.884 32.4 384.084 30.9 386.484 29.5C387.884 28.7 389.484 28 391.084 27.2C389.784 26.3 388.684 25.4 387.584 24.7C383.084 21.8 380.384 17.6 378.784 12.6C377.884 9.80002 378.484 7.20001 380.984 5.30002C384.384 2.70001 387.284 -0.5 389.984 -3.89999C391.884 -6.29999 394.584 -7.60001 396.884 -9.39999C402.184 -13.5 408.384 -15.9 414.384 -18.8C419.484 -21.3 424.184 -24.4 429.084 -27.3C432.784 -29.6 436.384 -32.1 440.184 -34.3C446.184 -37.7 452.684 -38.8 459.584 -37.9C463.984 -37.3 468.084 -35.9 471.684 -33.2C472.384 -32.7 473.184 -32.1 473.484 -31.3C474.184 -29 476.084 -28 477.884 -26.9C478.284 -26.7 478.584 -26.3 478.884 -26C478.884 -24.5 478.284 -23.6 476.984 -22.8C473.784 -20.9 470.584 -19 467.384 -17.1C466.084 -16.3 464.884 -15.2 463.684 -14.2C463.484 -14 463.084 -13.7 463.084 -13.5C463.784 -11.8 462.184 -11.6 461.384 -10.9C458.784 -8.79999 455.784 -7.09998 454.084 -4.19998C453.584 -3.29999 452.884 -3.09998 451.884 -3.19998C449.584 -3.39999 447.284 -3.5 444.984 -3.60001C444.084 -3.60001 443.284 -3.60001 442.384 -3.60001C442.384 -3.39999 442.284 -3.20001 442.384 -3.10001C443.784 -0.600006 442.784 1.5 441.084 3.20001C438.584 5.70001 437.784 8.70001 437.184 12C436.284 17.2 433.284 21.2 429.284 24.3C425.584 27.2 421.384 29 416.684 29.6C413.884 30 411.184 30.7 408.384 30.6C404.784 30.5 401.084 29.9 397.484 29.3C395.184 28.9 394.084 29.2 393.784 31.5C393.584 32.8 393.984 34.1 394.284 35.4C394.684 37.6 395.784 39.7 395.684 41.9C395.484 45.9 396.184 49.8 396.884 53.7C397.284 55.9 398.384 57.9 399.884 59.6C400.684 60.4 401.484 60.8 402.684 60.3C403.384 60 404.384 59.9 405.184 59.8C411.684 59.1 417.584 61.0001 423.284 63.8C430.384 67.3 436.384 72.2 442.084 77.4C444.284 79.4 446.084 81.9 447.684 84.5C449.584 87.5 449.584 91.2 446.884 94.4C443.084 99.1 438.084 101.4 432.184 101.9C429.284 102.2 426.384 102.3 423.484 101.8C423.084 101.7 422.584 101.8 422.184 101.9C420.384 105.5 420.884 108.7 423.684 111C424.684 111.8 426.284 112.4 427.584 112.4C430.684 112.4 433.684 112.2 436.784 111.7C440.384 111.2 443.984 110.1 447.584 109.7C453.384 109 459.084 109 464.784 110.9C470.384 112.8 474.984 119.1 473.884 125.3C473.484 127.4 473.584 129.7 472.784 131.6C471.884 133.8 470.484 135.9 468.884 137.7C463.784 143.6 457.284 147.2 449.584 148.2C444.084 148.9 438.584 149 433.284 147.4C430.384 146.5 427.484 145.8 424.484 145C416.984 142.9 410.984 145.6 405.984 151.1C405.584 151.3 405.384 151.8 404.984 152.4ZM402.884 205.8C405.084 205.8 406.984 204.6 407.784 202.6C408.484 200.8 409.084 198.9 408.784 196.8C408.484 194.5 408.284 192.2 407.984 189.9C407.684 187.7 407.684 185.5 408.384 183.3C408.984 181.3 409.584 179.1 409.484 177C409.184 172.2 410.284 167.5 410.684 162.8C410.784 161.9 411.284 161.1 411.384 160.3C411.584 158.8 410.984 158.1 409.484 157.9C408.984 157.8 408.484 157.8 408.084 157.9C404.184 158.7 400.684 160.3 397.684 162.8C395.384 164.7 394.784 167.5 393.384 169.9C393.084 170.4 393.084 171.1 392.884 171.7C392.084 175 391.284 178.2 390.584 181.5C390.184 183.5 389.584 185.6 389.684 187.6C390.084 192.8 391.984 197.6 395.384 201.7C397.184 203.9 399.684 205.6 402.884 205.8ZM407.784 25.4C409.484 25.3 411.084 24.6 412.284 23.2C414.584 20.4 415.884 17.2 416.384 13.7C416.784 11.1 416.684 8.50003 418.484 6.30002C419.384 5.20001 420.384 4.20001 421.384 3.10001C423.484 1 424.984 -1.39999 424.584 -4.5C424.384 -5.89999 424.884 -7.09998 425.584 -8.29999C427.284 -11.4 429.784 -13.4 433.084 -14.7C438.184 -16.6 443.384 -18.7 448.384 -20.9C451.484 -22.2 454.384 -24 457.284 -25.6C458.684 -26.4 459.884 -27.5 460.484 -29C460.984 -30.1 460.684 -30.6 459.584 -31.1C458.384 -31.6 457.384 -31.2 456.384 -30.7C453.784 -29.4 451.084 -28.1 448.584 -26.6C443.284 -23.4 437.784 -20.4 432.084 -18C426.584 -15.6 420.984 -13.5 416.184 -9.89999C413.984 -8.29999 411.584 -6.89999 410.184 -4.5C407.984 -0.899994 405.384 2.39999 401.884 4.89999C401.584 5.10001 401.284 5.40002 401.084 5.70001C399.584 7.70001 398.884 9.80002 399.384 12.3C399.884 15.3 400.284 18.2 401.784 20.9C402.884 23.4 404.584 25.4 407.784 25.4ZM418.284 72.1C418.284 74.1 418.484 75.9 419.184 77.9C419.984 80.3 421.284 82.3 422.384 84.5C422.984 85.7 423.384 87 424.184 88C425.484 89.7 427.084 91.3 428.584 92.9C429.584 94 430.884 94.2 432.284 93.6C433.084 93.2 434.284 91.2 434.084 90.1C433.684 87.7 433.084 85.4 431.784 83.2C429.384 79.4 426.484 76.1 422.984 73.3C421.684 72.4 420.184 71.4 418.284 72.1Z" fill="black"/>
<path d="M369.884 13.4C363.184 13 356.384 12.6 349.584 12.2C342.784 11.8 335.984 11.6 328.784 11.2C328.884 13.6 328.484 15.7 328.984 17.9C329.484 20.6 330.184 23.1 331.184 25.6C332.384 28.3 333.784 30.8 335.784 33C338.284 35.9 338.784 39.4 336.384 42.5C334.784 44.7 335.084 47.4 334.584 49.9C334.184 51.8 334.084 53.7 333.784 55.5C333.484 57.2 333.784 58.7 334.084 60.4C334.784 64 337.284 66.4 338.884 69.4C340.884 72.9 343.284 76.1 345.484 79.5C346.384 80.8 347.184 82.1 348.684 82.9C349.484 83.3 349.984 83.9999 349.684 85.2C349.384 86.1 349.684 87.2 349.984 88.1C351.384 92.1 352.984 95.9999 353.784 100.2C353.784 100.4 353.884 100.7 353.984 100.9C356.684 104.6 357.784 109 359.884 113C360.684 114.5 361.384 115.9 362.284 117.3C364.084 120.2 365.184 123.2 365.184 126.6C365.184 127.5 365.084 128.2 364.484 129C362.484 131.8 360.084 134.2 357.484 136.4C353.484 139.9 349.384 143.3 345.284 146.6C342.984 148.4 340.384 149.9 337.984 151.5C337.184 152 336.484 152.6 335.384 153.4C346.684 155.6 357.584 157.6 368.884 159.8C367.984 161 367.184 161.9 366.584 162.9C365.984 163.8 365.484 164.8 365.084 165.8C364.384 167.6 363.784 169.5 363.384 171.4C363.084 172.8 363.084 174.2 362.784 175.6C362.384 177.3 362.184 179.1 361.384 180.6C359.384 184.1 358.284 187.7 358.084 191.7C357.684 197.9 353.084 200.9 347.784 201.9C337.784 203.8 328.284 202 319.384 196.9C315.384 194.6 312.984 191.2 311.184 187C309.484 183 308.284 179 308.084 174.7C307.884 170.5 307.684 166.1 308.984 162C309.584 160 310.684 158.1 312.384 156.7C315.484 154.1 318.484 151.5 321.484 149C324.884 146.2 327.784 142.9 330.584 139.6C331.784 138.2 332.784 136.7 333.884 135.3C336.684 131.8 336.984 127.6 337.884 123.4C338.484 120.6 337.584 118 337.084 115.3C336.384 111.3 335.384 107.4 334.384 103.5C333.784 101.2 333.084 98.9 332.484 96.7C332.284 95.9 332.084 95.2 331.984 94.4C331.684 91.5 330.484 89 329.084 86.5C328.084 84.8 327.384 82.9 326.484 81.1C326.384 81 326.484 80.7999 326.384 80.7C324.884 78.4999 323.484 76.4 321.984 74.2C320.084 71.4999 318.184 68.7 316.184 66C314.684 63.9 313.184 61.7 312.484 59.2C312.184 58 311.684 56.8 311.484 55.5C311.184 53.4 311.384 51.2 310.884 49.1C310.484 47.4 310.384 45.7 310.684 44C310.784 43.4 310.784 42.7 311.084 42.2C312.684 38.7 311.684 35.3 310.384 32C309.484 29.8 309.084 27.5 308.584 25.2C307.784 21.4 308.284 17.6 308.484 13.8C308.684 9.70001 310.584 6.69998 313.784 4.39999C317.384 1.79999 320.184 -1.39999 322.884 -4.89999C323.184 -5.29999 323.484 -5.89999 323.984 -6.19998C328.084 -9.29999 331.584 -13.2 336.384 -15.5C342.784 -18.6 349.084 -21.8 354.884 -26.1C358.484 -28.8 361.184 -32 363.784 -35.7C366.984 -40.1 370.584 -44.1 375.884 -46.4C382.684 -49.3 389.384 -52.5 396.484 -54.7C400.684 -56 404.984 -56.9 409.384 -56.9C412.284 -56.9 414.884 -56.1 417.184 -54.5C419.584 -52.9 420.584 -50 419.184 -47.4C417.884 -44.9 418.784 -42.6 419.184 -40.2C419.484 -38.2 419.984 -36.2 419.984 -34.2C419.884 -31.4 418.184 -29.2 415.984 -27.7C413.284 -25.8 410.384 -24 407.384 -22.5C401.784 -19.6 395.884 -17.4 389.884 -15.4C388.284 -14.9 386.784 -14.2 385.184 -13.6C382.284 -12.5 380.384 -10.2 378.684 -7.79999C377.984 -6.79999 377.784 -5.19998 377.784 -3.89999C377.884 -0.600006 376.384 1.89999 373.984 4C372.984 4.89999 371.984 5.80002 371.684 7.20001C371.184 9.20001 370.584 11.1 369.884 13.4ZM406.984 -48.8C405.484 -50 403.984 -49.7 402.684 -49.4C400.784 -49 398.984 -48.4 397.284 -47.6C394.784 -46.5 392.184 -45.4 389.784 -44C386.784 -42.2 384.984 -39.3 383.484 -36.3C381.384 -32.2 378.384 -29 374.684 -26.4C369.084 -22.5 362.984 -19.6 356.684 -16.9C353.584 -15.6 350.484 -14.4 347.784 -12.3C346.084 -10.9 344.284 -9.5 342.684 -7.89999C341.384 -6.60001 340.184 -5.19998 339.284 -3.69998C337.584 -0.599976 335.584 2 332.684 4.10001C332.084 4.5 331.584 5.10001 330.584 6C338.184 6.70001 345.084 6.89999 351.584 7.10001C352.784 5.89999 353.684 5.19998 354.484 4.39999C356.984 1.89999 359.384 -0.600006 359.484 -4.39999C359.484 -5.29999 359.884 -6.29999 360.484 -7C362.584 -10 365.184 -12.4 368.684 -13.7C372.484 -15.2 376.184 -16.7 379.984 -18.2C385.484 -20.3 390.684 -22.8 395.584 -26C398.084 -27.6 400.384 -29.6 401.884 -32.4C403.584 -35.5 403.684 -38.9 404.084 -42.3C404.184 -43.7 404.684 -44.9 405.484 -46C405.984 -46.9 406.484 -47.8 406.984 -48.8ZM347.584 161.1C341.784 160 336.184 158.9 330.684 157.8C329.584 157.6 328.884 158 328.084 158.6C324.984 161.3 323.084 164.6 322.884 168.8C322.684 173.8 322.184 178.8 322.784 183.9C323.084 187.1 324.084 190.1 325.984 192.6C327.884 195.2 330.484 196.8 333.884 196.7C335.584 196.6 336.584 195.8 337.284 194.3C338.084 192.7 337.884 190.9 338.084 189.3C338.284 187.6 338.084 185.9 338.984 184.4C341.384 180.7 341.984 176.4 342.684 172.2C343.484 168.3 344.684 164.6 347.584 161.1Z" fill="black"/>
<path d="M177.184 139.2C175.084 141.4 173.084 143.7 170.884 145.8C168.684 147.8 166.184 149.5 163.784 151.4C162.784 152.1 161.684 152.3 160.584 151.9C156.984 150.4 153.384 148.9 149.884 147.2C149.184 146.9 148.684 146 148.084 145.4C146.884 144.3 145.684 143.2 144.284 141.9C145.584 140.6 146.684 139.3 147.984 138.2C148.484 137.8 149.284 137.7 149.984 137.7C152.184 137.5 154.184 136.8 156.084 135.7C158.684 134.2 160.184 131.8 160.784 128.9C161.384 125.5 161.984 122.1 162.484 118.6C162.584 117.6 162.284 116.6 162.084 115.5C161.684 112.8 161.484 110 160.584 107.4C159.584 104.6 159.084 101.6 157.584 99C156.784 97.6 156.984 95.7 156.684 94C156.084 90.9 154.884 88 152.984 85.4C151.284 83 150.284 80.2 148.884 77.6C147.484 74.9 146.184 72.1 144.384 69.5C142.284 66.6 140.684 63.4 138.984 60.2C138.484 59.2 138.284 58.1 138.184 57C137.684 53.7 137.584 50.4 136.784 47.2C136.184 44.8 136.584 42.5 136.484 40.1C136.384 38.1 136.384 36.1 135.984 34.2C135.284 31 134.984 27.7 135.084 24.4C135.184 20.2 134.984 16 135.384 11.8C135.584 9.40002 136.384 7.29999 137.884 5.5C139.584 3.5 141.884 2.10001 143.184 -0.299988C143.784 -1.29999 144.584 -2.29999 144.884 -3.39999C145.684 -6.39999 147.484 -8.5 150.084 -10C153.384 -11.9 156.884 -13.6 160.284 -15.2C165.784 -17.8 171.284 -20.3 175.884 -24.4C177.084 -25.5 178.084 -26.6 178.584 -28.2C179.684 -31.8 181.884 -34.8 184.184 -37.7C184.884 -38.6 185.484 -39.5 185.984 -40.5C187.384 -43.6 189.784 -45.7 192.384 -47.8C196.884 -51.4 201.184 -55.1 205.584 -58.8C207.984 -60.8 210.384 -62.7 212.684 -64.9C214.984 -67 217.084 -69.3 219.084 -71.6C220.984 -73.7 222.884 -75.7 225.284 -77.2C229.484 -79.9 233.884 -82.5 236.884 -86.7C237.184 -87.1 237.484 -87.4 237.784 -87.8C239.984 -91.6 243.184 -94.3 246.484 -96.9C246.884 -97.2 247.284 -97.8 247.184 -98.2C247.084 -98.6 246.484 -99 245.984 -99.1C245.084 -99.3 244.084 -99.2 243.184 -99.2C242.384 -99.2 241.684 -99.1 241.084 -99C241.884 -100.9 242.584 -102.7 243.484 -104.9C245.684 -105.7 248.284 -106.6 250.784 -107.5C252.084 -108 253.284 -108.4 254.584 -108.9C254.984 -109.1 255.684 -109.4 255.684 -109.7C255.784 -111.8 257.484 -111.6 258.784 -112C266.384 -114.4 274.284 -115.9 282.084 -117.3C282.584 -117.4 282.984 -117.5 283.584 -117.7C283.684 -117.3 283.884 -117 283.984 -116.6C284.084 -116.2 284.084 -115.8 284.084 -115.5C282.084 -114.6 280.184 -113.7 278.184 -112.8C276.984 -112.3 276.584 -111.3 276.084 -110.1C275.184 -107.9 275.284 -105.5 274.784 -103.2C274.384 -101.2 273.484 -99.8 271.884 -98.7C269.884 -97.2 267.784 -95.7 265.684 -94.2C263.184 -92.3 261.784 -89.6 259.884 -87.2C257.784 -84.4 255.284 -82.1 252.584 -80.1C250.384 -78.5 248.084 -77.1 245.984 -75.4C243.684 -73.5 241.384 -71.5 239.484 -69.2C236.484 -65.5 232.584 -62.8 229.184 -59.7C225.784 -56.6 222.184 -53.6 218.684 -50.6C217.084 -49.3 215.484 -48 213.684 -46.8C211.284 -45.2 209.584 -43.1 208.584 -40.3C207.984 -38.5 207.284 -36.7 206.684 -34.9C205.484 -31.8 203.484 -29.3 201.084 -27C195.684 -22 189.584 -18.2 182.784 -15.3C179.084 -13.7 175.384 -11.8 171.884 -9.79999C169.384 -8.39999 167.584 -6.5 166.884 -3.5C166.184 -0.5 164.084 1.90002 161.684 3.80002C158.684 6.20001 157.284 9.19998 157.184 12.9C157.084 18.1 156.984 23.2 157.084 28.4C157.184 30.8 157.884 33.3 158.084 35.7C158.284 37.6 158.584 39.5 158.384 41.4C157.984 44.5 158.584 47.4 159.184 50.4C159.584 52.1 159.784 53.9 159.984 55.6C160.284 58.3 160.784 60.9001 163.084 62.8C163.584 63.2001 163.984 63.9 164.384 64.5C166.484 67.6 168.784 70.4 171.384 73C173.884 75.4 176.284 77.7 178.584 80.2C180.484 82.2999 181.784 84.6 181.784 87.7C181.784 89.1 182.384 90.4 182.884 91.8C184.284 95.6 184.784 99.7 184.984 103.7C185.084 105.6 184.584 107.5 184.684 109.5C184.884 113.1 184.084 116.7 184.484 120.4C184.784 123 184.184 125.6 183.284 128.1C182.284 130.9 181.784 133.6 182.384 136.6C182.784 138.9 184.584 139.7 186.384 139.2C188.084 138.7 189.684 138 191.384 137.6C193.384 137.1 195.384 136.6 197.484 136.5C200.584 136.3 202.384 138 201.784 141C200.984 145.2 198.984 149 195.484 151.6C194.084 152.7 191.884 152.9 190.084 153.4C186.484 154.3 182.884 155 179.184 154.8C177.884 154.7 176.484 154.5 175.184 154.2C172.784 153.6 171.584 151.3 172.584 149.2C173.784 146.6 175.084 144 176.284 141.5C176.584 140.9 176.884 140.3 177.184 139.7C177.384 139.3 177.284 139.3 177.184 139.2Z" fill="black"/>
<path d="M492.384 32.9C495.684 26.3 498.984 20 501.984 13.6C503.684 10.2 505.784 7.19998 508.884 4.89999C510.184 3.89999 511.484 2.80002 512.584 1.60001C514.584 -0.600006 514.084 -2.5 511.284 -3.60001C510.384 -4 509.484 -4.19998 508.384 -4.69998C509.084 -5.69998 509.684 -6.5 510.284 -7.29999C510.784 -8 511.384 -8.29999 512.284 -8.19998C515.084 -7.99997 517.884 -7.89999 520.684 -7.69998C525.084 -7.39999 529.384 -7 533.784 -6.60001C533.684 -3.89999 533.084 -3.29999 530.784 -2.39999C528.084 -1.39999 525.484 -0.399994 523.284 1.70001C521.884 3 519.984 4.00003 518.184 4.80002C513.784 6.70001 510.884 10 508.984 14.4C507.284 18.3 505.284 22.1 503.284 25.9C502.584 27.3 501.484 28.6 500.784 30C500.184 31.3 499.584 32.6 499.284 34C498.584 36.8 497.984 39.6 497.384 42.4C496.984 44.4 496.884 46.3 497.484 48.3C498.284 50.9 498.884 53.6 499.584 56.2C500.384 59 502.084 61.4 503.884 63.6C507.384 68 511.084 72.3 514.484 76.8C516.384 79.3 517.984 81.9 519.584 84.6C522.184 89.1 522.684 94.1 522.384 99.1C522.184 103.5 521.484 107.9 520.884 112.3C520.484 115.5 520.084 118.7 519.384 121.9C518.184 126.8 517.484 132 515.184 136.6C513.884 139.3 512.284 141.8 510.684 144.4C507.984 148.8 504.084 152.1 500.684 155.8C499.284 157.3 498.084 158.8 496.884 160.4C495.484 162.3 494.684 164.4 494.784 166.9C494.884 168.9 494.384 171 494.384 173.1C494.584 177.4 494.884 181.7 495.184 186C495.284 186.7 495.584 187.4 495.784 188C498.084 193.4 501.384 198.1 504.884 202.8C507.084 205.8 509.384 208.8 511.784 211.7C513.984 214.5 516.384 217.2 518.684 219.9C520.284 221.8 521.884 223.9 523.784 225.5C525.484 227 526.084 228.6 526.484 230.7C526.884 233 527.984 235.2 528.484 237.6C528.884 239.5 528.884 241.4 529.084 243.6C520.384 242.5 511.984 241.9 503.584 240C502.884 233.5 500.684 227.5 498.784 221.4C499.584 221.2 500.084 220.9 500.684 220.8C503.584 220.1 504.784 218.5 504.384 215.6C504.284 214.5 503.884 213.4 503.384 212.4C501.384 207.9 498.384 203.9 495.484 199.9C493.884 197.6 492.284 195.3 490.884 192.9C488.884 189.4 487.784 185.6 487.984 181.5C488.084 179.4 487.884 177.4 487.684 175.3C487.684 174.8 487.384 174.3 487.184 173.5C486.784 174.3 486.284 174.8 486.184 175.4C485.684 177.9 484.284 180.1 482.984 182.2C480.184 186.8 478.884 192 477.684 197.1C477.184 199.3 476.584 201.4 475.984 203.5C474.584 207.8 475.384 211 479.084 213.6C481.184 215.1 483.484 216.4 485.784 217.7C486.584 218.2 487.284 218.6 487.484 219.6C487.984 222.4 488.584 225.1 489.184 228.2C488.484 228.1 487.784 228.1 487.084 227.9C484.184 227.3 481.284 226.8 478.484 226.1C477.284 225.8 475.884 225.2 475.084 224.3C474.384 223.4 473.584 223.2 472.784 223C468.884 222.1 464.984 221.5 461.184 220.6C457.084 219.6 452.984 218.4 448.784 217.3C448.284 217.2 447.684 216.8 447.484 216.4C446.684 214.7 445.984 212.9 445.284 211C448.884 209.9 449.884 206.7 451.184 203.7C452.984 199.3 453.484 194.5 454.784 189.9C455.584 187.3 456.384 184.6 458.284 182.4C459.984 180.4 460.684 177.8 461.484 175.3C462.784 171.4 465.084 168.1 467.384 164.8C468.084 163.9 469.084 163.2 470.084 162.5C474.584 159.1 479.484 156.6 484.384 153.9C490.784 150.4 497.284 146.9 502.784 141.9C505.584 139.4 508.484 136.8 509.884 133.2C511.284 129.6 511.984 125.9 511.584 122C511.384 120.6 510.684 119.1 510.084 117.8C507.384 112.1 503.984 106.8 499.984 101.9C495.584 96.5 491.384 90.9 488.284 84.6C485.984 79.8 483.284 75.2001 481.184 70.3C479.184 65.4 477.084 60.4 477.284 54.9C477.284 53.7 476.884 52.5 476.584 51.4C475.684 48.1 474.784 44.8 473.884 41.5C473.184 39 471.984 36.8 470.684 34.6C468.784 31.4 466.784 28.2 465.384 24.8C463.484 20.5 462.084 16 460.484 11.6C460.184 10.6 459.984 9.60001 459.784 8.60001C459.384 6.60001 459.984 4.79999 461.484 3.39999C463.684 1.29999 464.184 -1.10001 462.984 -4C462.384 -5.29999 461.984 -6.70001 461.484 -8.10001C465.084 -12.4 470.084 -14.5 475.484 -16.3C475.384 -15.2 475.284 -14.4 475.184 -13.4C483.384 -10.9 491.784 -10.4 500.184 -9C499.284 -7.79999 498.484 -6.69998 497.684 -5.69998C497.484 -5.39999 497.084 -5.20001 496.684 -5.10001C496.284 -4.89999 495.784 -4.79999 495.284 -4.79999C491.484 -4.5 488.684 -2.60001 486.684 0.5C485.984 1.60001 485.084 2.80002 484.084 3.60001C481.784 5.39999 481.184 7.5 482.084 10.1C483.584 14.5 484.984 18.9 486.684 23.2C487.784 26 489.284 28.6 490.684 31.3C491.184 31.7 491.684 32.1 492.384 32.9Z" fill="black"/>
<path d="M86.884 72.4C90.184 72.5 93.084 74.1 96.584 74.7C95.784 73.2999 95.184 72.1 94.484 71C92.684 68.3 90.784 65.7 88.984 62.9C87.384 60.4 86.484 57.6 86.584 54.6C86.584 53.2 86.484 51.7 86.084 50.3C85.084 47 84.884 43.7 85.184 40.4C85.484 37.3 84.884 34.4 84.484 31.4C84.084 28.3 83.884 25.2 83.884 22.2C83.784 19 83.884 15.8 83.984 12.6C84.084 9.20001 85.284 6.39999 87.984 4.10001C90.384 2.10001 92.384 -0.399994 93.484 -3.60001C94.784 -7.20001 97.384 -9.79999 100.884 -11.4C106.584 -14.1 112.384 -16.6 117.984 -19.4C125.084 -22.9 132.484 -25.6 139.784 -28.6C141.384 -29.3 143.084 -29.9 144.484 -30.9C146.084 -31.9 147.084 -33.6 145.884 -35.8C145.084 -37.3 144.484 -39 143.884 -40.6C143.184 -42.7 143.584 -44.2 145.484 -45.3C147.584 -46.6 149.884 -47.6 152.084 -48.7C152.784 -49.1 153.584 -49.4 154.084 -50C156.684 -52.6 159.184 -55.2 160.684 -58.6C161.284 -60 162.584 -61.1 163.384 -62.4C164.084 -63.4 164.684 -64.4 165.184 -65.4C166.184 -67.3 167.084 -69.2 168.084 -71C170.284 -75 173.784 -77.6 177.684 -79.7C180.784 -81.4 183.584 -83.7 185.384 -86.7C187.884 -90.7 191.284 -93 195.684 -94.3C200.284 -95.7 204.884 -96.9 209.684 -97.3C214.984 -97.8 220.384 -98.3 225.684 -98.5C228.084 -98.6 230.584 -98.2 233.084 -97.9C233.584 -97.9 234.084 -97.6 234.584 -97.4C233.584 -95.7 231.984 -95.5 230.184 -95.4C225.084 -95.3 219.984 -94.7 215.084 -93C212.884 -92.3 211.084 -91.1 209.784 -89.1C206.884 -84.9 203.384 -81.4 198.784 -78.9C195.484 -77.1 192.784 -74.7 190.884 -71.4C189.684 -69.3 188.684 -67.1 188.784 -64.7C188.784 -63.3 188.484 -61.6 189.884 -60.5C190.484 -60 191.184 -59.7 191.884 -59.5C192.484 -59.3 193.084 -59.2 194.184 -59C192.984 -57.8 192.084 -56.9 191.084 -56.2C186.884 -52.9 182.784 -49.6 178.484 -46.3C176.184 -44.6 174.784 -42.4 174.084 -39.7C173.784 -38.7 173.384 -38.2 172.684 -37.6C171.284 -36.5 170.284 -34.9 168.484 -34.5C167.484 -32.2 165.584 -30 167.284 -27.3C166.384 -26.3 165.584 -25.4 164.784 -24.6C164.084 -23.9 163.284 -23.3 162.084 -23.4C153.684 -24.1 145.984 -21.8 138.484 -18.4C134.784 -16.7 131.084 -15 127.384 -13.4C124.484 -12.1 121.584 -10.7 119.184 -8.5C117.784 -7.20001 116.484 -5.70001 115.884 -4C114.684 -0.700012 112.984 2.10001 110.084 4.30002C107.584 6.20001 106.184 8.60001 106.184 11.8C106.284 15.4 105.984 19.1 105.984 22.7C105.984 23.6 106.184 24.4 106.284 25.3C106.484 27 106.684 28.8 106.784 30.5C106.984 33.8 107.384 37 107.084 40.3C106.684 44.8 107.884 49 108.384 53.3C108.484 54.2 108.584 55.2 108.684 56.1C108.984 59.3 110.084 62.1 111.984 64.7C113.784 67.2999 115.284 70.1 116.984 72.8C118.284 74.7001 119.784 76.5 120.984 78.4C122.884 81.5 124.784 84.7 126.384 88C127.384 90 127.784 92.2 128.384 94.4C128.784 95.7 129.084 97.0001 129.384 98.3C130.184 101.8 131.084 105.3 131.884 108.7C132.084 109.5 131.984 110.4 131.984 111.3C132.184 113.7 132.484 116.2 132.584 118.6C132.884 123.8 131.484 128.7 129.384 133.4C129.284 133.7 129.284 134 129.084 134.6C133.484 135.5 137.784 136.4 142.384 137.3C141.584 138.7 140.984 139.9 140.184 140.9C139.084 142.5 137.884 144 136.784 145.5C135.584 147.1 134.884 147.2 133.184 146.7C129.484 145.5 125.784 144.2 122.084 143C117.784 147.9 112.384 151.2 107.184 154.7C106.084 155.5 104.984 155.8 103.584 155.6C101.784 155.3 99.984 155.2 97.884 155C98.084 154.5 98.184 154.1 98.484 153.7C100.784 150.8 102.184 147.4 102.984 143.8C103.884 140 102.784 137.7 99.884 135.2C99.384 134.8 98.884 134.5 98.184 134.1C98.984 132 99.684 130 100.484 127.8C103.084 128.5 105.584 129.2 108.284 130C109.884 125.5 110.384 121 110.184 116.3C106.884 116.9 104.584 119 101.784 119.5C100.784 111.8 100.484 104.3 97.984 97.2C97.884 96.9999 97.884 96.9 97.884 96.7C98.284 94.2999 96.484 92.4 96.484 90.1C96.484 89.5 95.984 89 95.684 88.4C95.384 87.7 94.884 87.0001 94.684 86.3C94.384 85.1 94.084 84.0001 92.984 83.3C92.784 83.2001 92.584 82.9999 92.584 82.7C91.484 78.9999 88.484 76.6 86.784 73.4C86.984 73 86.984 72.8 86.884 72.4Z" fill="black"/>
<path d="M1.884 44.5C1.884 39.9 1.984 35.6 0.484001 31.3C-0.115999 29.6 0.284 27.7 0.084 25.9C-0.216 22.9 0.384 20 0.384 17.1C0.384 15.4 0.284 13.8 0.384 12.1C0.684 9 1.484 6.20001 4.184 4.20001C6.984 2.10001 8.684 -0.799988 9.984 -4C11.484 -7.5 14.084 -10.1 17.584 -11.8C20.084 -13 22.484 -14.4 24.984 -15.6C25.784 -16 26.784 -16.2 27.684 -16.3C34.284 -17.1 40.984 -18 47.584 -18.8C54.084 -19.6 60.584 -20.5 67.084 -21.1C74.084 -21.7 81.084 -22.2 88.084 -20.9C90.084 -20.5 92.084 -19.9 93.784 -18.7C95.584 -17.4 95.684 -16.3 93.884 -15C92.584 -14 91.084 -13.2 89.584 -12.3C87.684 -11.1 85.784 -9.89999 83.984 -8.69998C82.184 -7.39999 81.084 -5.39999 80.584 -3.39999C79.884 -0.600006 78.184 1.5 76.084 3.20001C73.284 5.40002 71.884 8.20001 71.184 11.6C70.284 16.1 68.184 20.2 66.084 24.1C64.984 26.1 64.984 27.9 65.984 30C67.384 33 69.084 35.9 71.084 38.6C72.184 40 72.684 41.7 72.384 43.5C72.184 44.6 72.184 45.7 71.984 46.8C71.584 49.7 70.084 51.8 67.484 53.2C64.284 55 60.684 56.0001 57.084 56.8C52.384 57.9001 47.584 59.0001 42.984 60.3C41.884 60.6 40.684 60.9 39.784 62.1C39.084 63.0001 39.084 63.9 39.284 64.7C39.584 65.7 40.284 66.6 40.684 67.6C41.084 68.4 41.484 69.3 41.584 70.2C41.684 71.4 41.584 72.7001 41.484 74.0001C41.184 77.9001 42.884 81.1 45.184 84.0001C46.084 85.2001 47.084 86.3 48.084 87.5001C48.884 88.4001 49.184 89.4 48.884 90.6C48.284 92.5001 47.684 94.4 47.284 96.3C46.384 100.5 45.784 104.7 46.784 109C46.984 110.1 47.084 111.2 47.284 112.3C47.484 113.5 47.784 114.4 48.584 115.5C49.684 116.9 50.284 118.8 50.984 120.5C51.184 121 51.184 121.7 50.884 122.1C49.684 124.6 49.384 127.7 46.284 128.9C41.584 133.1 37.084 137.5 33.784 142.9C33.084 144.1 32.284 145.3 31.584 146.6C30.584 148.4 30.984 150.1 32.884 151C33.984 151.6 35.284 152 36.484 152.2C41.784 153.2 46.984 152.8 52.184 151.5C55.784 150.6 59.384 149.3 62.884 148C64.384 147.4 65.784 146.4 67.184 145.4C70.184 143.2 73.284 141.1 76.184 138.8C77.484 137.8 78.684 136.6 79.784 135.3C80.584 134.3 81.484 134 82.684 134.3C83.584 134.5 84.584 134.6 85.584 134.8C84.984 136.7 83.884 138.3 82.584 139.7C78.784 143.8 75.084 148 70.284 151C68.084 152.3 66.084 154 63.884 155.2C62.584 155.9 60.884 156.1 59.284 156.1C52.284 156.2 45.384 156.4 38.384 156.1C33.684 155.9 28.984 155.4 24.584 153.6C24.284 153.5 23.984 153.4 23.684 153.3C19.584 151.5 18.384 149.3 19.584 145C20.584 141.3 21.884 137.8 22.884 134.1C24.184 129.1 25.784 124 25.884 118.8C25.984 116.4 25.384 113.9 25.184 111.5C24.684 106.6 23.884 101.7 22.684 96.9C22.184 94.8 21.684 92.6 21.184 90.5001C20.384 87.1 18.284 84.4 16.684 81.4C14.984 78.4 13.184 75.6 11.484 72.7C11.284 72.4 10.884 72.2 10.584 71.9C10.084 71.2 9.584 70.4 9.084 69.6C7.984 67.9 6.884 66.3 5.884 64.6C5.184 63.4 4.484 62 3.884 60.7C3.084 59 3.584 57.4 5.084 56.4C6.784 55.3 8.484 54.0001 10.384 53.3C17.084 50.7 24.184 49.3 31.184 47.9C36.684 46.8 42.284 45.5 47.784 44.1C49.284 43.7 50.784 42.9001 52.184 42.3C54.284 41.4001 54.884 38.5 53.984 36.6C52.884 34.6 52.084 32.4 51.084 30.3C50.084 28.3 49.984 26.4 50.884 24.3C50.984 24.1 51.084 23.8 51.184 23.6C53.184 19.5 53.584 15.1 52.784 10.6C52.584 9.5 52.784 8.30002 52.784 7.10001C52.784 5.80002 53.384 4.89999 54.384 4.10001C56.984 2 57.984 -0.600006 56.784 -3.89999C56.584 -4.60001 56.584 -5.39999 56.584 -6.19998C59.484 -8.69998 63.084 -9.69998 66.484 -10.9C69.484 -12 72.484 -13 75.484 -14.2C76.184 -14.4 76.884 -14.8 77.384 -15.2C77.884 -15.6 78.384 -16.2 78.484 -16.8C78.484 -17.1 77.584 -17.7 77.084 -17.8C74.284 -18.2 71.384 -18.8 68.584 -18.7C64.184 -18.6 59.884 -18.1 55.484 -17.5C45.784 -16.3 36.184 -14.7 26.984 -11.6C24.484 -10.8 22.284 -9.39999 19.984 -8C18.684 -7.20001 17.784 -5.89999 17.484 -4.39999C17.184 -3.10001 16.884 -1.79999 16.384 -0.5C15.584 1.5 14.284 3.10001 12.584 4.30002C9.684 6.40002 9.484 9.80002 11.384 13.3C13.484 17.1 15.784 20.8 18.084 24.6C18.984 26.1 19.084 27.5 18.284 29.1C17.484 30.6 17.284 32.5 16.484 34C15.684 35.5 14.684 36.8 13.584 38C11.784 40 9.784 41.8 7.984 43.8C7.384 44.4001 6.884 44.7 6.184 44.7C4.784 44.7 3.484 44.6 1.884 44.5Z" fill="black"/>
<path d="M366.184 -227.6C361.784 -226 357.684 -224.6 353.384 -223C352.184 -225.1 351.084 -227 349.884 -229.1C348.484 -228.5 346.984 -228 345.584 -227.3C339.684 -224.6 333.784 -222.1 327.984 -219.2C322.184 -216.3 316.684 -213 311.084 -209.8C304.284 -206 297.484 -202.3 290.884 -198.4C286.184 -195.6 281.484 -192.7 276.984 -189.6C273.784 -187.4 270.584 -185.1 267.684 -182.6C266.084 -181.2 264.684 -179.5 263.984 -177.4C263.284 -175.1 263.584 -173.6 265.584 -172.2C267.384 -170.8 269.684 -170.5 271.884 -170C272.384 -169.9 272.984 -169.9 273.584 -169.9C272.684 -168 270.584 -166.2 268.784 -165.9C263.984 -165.1 259.084 -164.6 254.284 -165.8C250.584 -166.7 247.084 -168 244.184 -170.9C241.184 -173.9 241.784 -179.3 244.384 -182.1C247.684 -185.6 251.484 -188.5 255.584 -191C266.284 -197.7 276.984 -204.3 287.784 -210.7C294.884 -214.9 302.284 -218.8 309.684 -222.5C318.184 -226.7 326.884 -230.6 335.484 -234.5C341.284 -237.1 347.184 -239.6 353.084 -242C355.984 -243.2 358.084 -245 359.184 -248C359.984 -250 361.384 -251.5 363.584 -252.4C366.384 -253.5 368.984 -255 371.784 -256.4C375.484 -253.4 379.784 -254.1 383.884 -254.8C389.784 -255.8 395.484 -257.5 401.184 -259.5C404.884 -260.8 408.684 -262.2 412.784 -263.6C412.584 -263.1 412.584 -262.8 412.384 -262.7C410.884 -261 409.584 -259.1 408.584 -257C408.284 -256.2 407.184 -255.7 406.384 -255.3C397.984 -251.2 389.584 -247.1 381.184 -243.1C376.884 -241 372.484 -239.2 368.084 -237.3C365.184 -236 364.084 -233.8 365.084 -230.8C365.184 -229.8 365.684 -228.8 366.184 -227.6Z" fill="black"/>
<path d="M355.084 -220.6C355.684 -221 356.084 -221.3 356.484 -221.5C358.684 -222.7 360.684 -223.1 363.284 -222.2C367.884 -220.5 372.784 -219.4 377.484 -218C378.384 -217.7 379.284 -217.4 380.784 -217C374.584 -213.6 368.884 -210.5 363.184 -207.3C363.184 -207.2 363.284 -207.1 363.284 -207C364.584 -207.4 365.784 -207.7 367.084 -208.1C371.884 -209.7 376.684 -211 381.684 -211.5C383.784 -211.7 385.784 -211.8 387.784 -210.9C389.684 -210.1 390.384 -208.7 389.284 -206.9C388.184 -205.1 386.784 -203.4 385.384 -201.8C382.284 -198.4 378.384 -196.3 374.284 -194.5C371.484 -193.3 368.884 -191.8 366.084 -190.6C361.684 -188.7 357.284 -186.8 352.784 -185C351.484 -184.5 349.984 -184.6 348.584 -184.4C348.084 -186.5 349.184 -187.7 350.084 -188.9C352.284 -192.3 355.084 -195 358.084 -197.7C359.084 -198.7 360.184 -199.7 360.384 -201.2C359.484 -202.2 358.284 -201.9 357.284 -201.7C353.184 -200.8 349.384 -199.2 345.784 -197.1C340.484 -194 335.284 -190.7 330.084 -187.5C326.384 -185.2 323.284 -182.4 320.284 -179.2C316.484 -175.2 312.184 -171.7 308.584 -167.6C305.484 -164.1 301.884 -161.3 298.284 -158.4C297.484 -157.8 296.784 -157 296.084 -156.2C294.784 -154.8 294.784 -153.9 296.084 -152.5C296.684 -151.8 297.484 -151.2 298.184 -150.6C298.584 -150.3 298.984 -150.1 299.484 -149.8C297.784 -148.4 296.484 -147.3 295.084 -146.2C293.084 -147.2 291.084 -148.4 288.984 -149.3C284.684 -151.4 280.284 -153.3 275.984 -155.4C273.084 -156.8 269.984 -157.9 267.184 -159.9C268.084 -160.7 268.884 -161.4 269.584 -162.1C270.784 -163.2 271.884 -163.4 273.584 -163C277.484 -162.1 280.784 -163.7 283.584 -166.4C285.084 -167.8 286.484 -169.3 287.984 -170.8C290.884 -173.8 293.784 -176.7 296.584 -179.7C299.084 -182.4 301.984 -184.6 304.984 -186.7C313.984 -193 323.484 -198.3 332.984 -203.7C337.784 -206.5 342.784 -209 347.684 -211.7C349.384 -212.6 350.984 -213.7 352.484 -214.8C353.984 -216.4 355.384 -218 355.084 -220.6Z" fill="black"/>
<path d="M469.384 -147C471.084 -146.8 473.484 -146.7 475.884 -146.3C480.784 -145.5 484.384 -142.4 487.384 -138.7C487.784 -138.2 488.084 -137.7 488.584 -137.2C490.484 -135 490.784 -132.7 489.084 -130.2C487.884 -128.4 487.584 -126.4 487.484 -124.3C487.384 -122.1 486.684 -119.9 484.984 -118.3C482.684 -116.2 480.384 -114.2 478.084 -112.1C477.684 -111.7 477.184 -111.4 476.984 -110.9C475.784 -108.2 473.284 -107.1 470.884 -106C468.484 -104.9 466.084 -104 463.584 -103.1C459.984 -101.9 456.384 -101.7 452.784 -103.2C449.284 -104.7 445.884 -106.4 442.884 -108.7C442.484 -109 441.784 -109.4 441.884 -109.6C442.284 -111.5 440.584 -111.9 439.584 -112.5C436.384 -114.5 433.984 -117.3 431.884 -120.3C430.484 -122.2 430.084 -124.3 431.084 -126.6C431.684 -128 431.984 -129.4 433.284 -130.4C434.384 -131.3 435.084 -132.6 435.884 -133.8C439.184 -138.3 443.284 -141.5 448.684 -143.1C455.184 -145.3 461.884 -146.6 469.384 -147ZM463.184 -112C465.984 -112 467.784 -112.9 469.184 -114.6C470.884 -116.8 472.184 -119.1 472.084 -122C472.084 -122.6 472.284 -123.3 472.184 -123.9C471.984 -126.4 473.084 -128.3 474.684 -130.1C476.784 -132.6 477.584 -135.4 475.984 -138.6C474.684 -141.1 473.184 -142.4 470.384 -142.2C467.484 -142 464.584 -141.4 462.384 -139.2C461.084 -137.9 459.684 -136.5 458.484 -135.1C456.584 -132.8 454.684 -130.5 452.784 -128.1C452.484 -127.8 452.284 -127.3 452.184 -126.9C451.684 -125.4 451.684 -123.8 452.084 -122.2C452.784 -119.5 454.584 -117.5 456.284 -115.4C458.084 -113 460.784 -112.3 463.184 -112Z" fill="black"/>
<path d="M233.084 97C232.984 98.1 232.784 99.7 232.584 101.3C232.384 102.3 231.784 103.1 230.784 103.7C227.384 106 224.684 105.3 221.984 102.2C220.884 100.9 219.384 100 218.784 98.3C218.184 96.6 217.684 94.8 217.084 93.1C216.584 91.5 216.384 89.6 214.584 88.7C212.584 84.9999 210.484 81.3 208.584 77.6C207.984 76.5 207.684 75.1 207.784 73.8C207.884 71.9 206.784 70 207.684 68.1C208.084 67.1 208.884 66.6 209.984 66.8C214.584 67.8 218.284 70.2 221.484 73.5C223.884 76 226.184 78.7 228.384 81.4C229.984 83.3 230.584 85.6 231.284 87.9C231.984 90.3 232.384 92.9 232.984 95.3C232.884 95.6 232.984 96 233.084 97Z" fill="black"/>
<path d="M183.284 69.2C184.784 68.2 186.184 68.7999 187.384 69.7C190.784 72.2 194.184 74.7 196.984 77.9C198.384 79.4 199.584 80.9999 200.784 82.7C202.084 84.6 202.184 87 202.784 89.1C203.784 92.6 204.884 96.1 204.684 99.9C204.584 101.6 204.584 103.2 203.684 104.7C202.884 105.9 201.984 106.3 200.584 106.1C198.584 105.9 197.084 104.6 195.784 103.2C193.084 100.3 191.884 96.6 190.784 92.9C190.784 92.7 190.684 92.6 190.684 92.4C190.184 89.4999 188.284 87.5 186.284 85.5C184.684 83.9 183.384 82.2 183.184 79.8C183.084 78.6 182.584 77.5 182.484 76.3C182.284 74.4 181.784 72.4 183.084 70.7C183.584 70.4 183.284 69.7 183.284 69.2Z" fill="black"/>
<path d="M382.984 147.5C383.784 145.4 384.484 143.3 385.484 141.4C386.684 139.2 386.784 136.8 386.484 134.5C386.284 133.1 385.984 131.7 385.584 130.4C384.884 128.1 386.184 126.2 387.184 124.4C388.684 121.4 390.584 118.7 391.984 115.6C393.084 113.2 393.584 110.6 394.384 108.2C394.584 107.7 394.784 107.2 394.984 106.7C395.284 106.6 395.484 106.6 395.584 106.6C399.084 107.6 398.984 107.7 398.984 111.3C398.984 116.9 397.784 122.3 396.284 127.6C395.784 129.4 395.684 131.3 395.284 133.1C394.584 136.3 393.284 139.3 391.284 141.9C390.484 143.1 389.584 144.2 388.784 145.4C387.384 147.3 386.084 147.8 382.984 147.5Z" fill="black"/>
<path d="M370.684 29.6C370.284 34.3 370.784 38.8 371.184 43.4C371.384 46.4 372.584 49.1 373.784 51.7C374.884 54.2 374.784 54.3 372.484 55.6C372.184 55.8 371.884 55.9 371.484 56.1C370.384 54.5 369.284 53 368.284 51.4C367.484 50.1 366.684 48.9 365.984 47.6C365.384 46.5 364.984 45.3 364.584 44.1C364.384 43.5 364.284 42.8 363.984 42.3C363.184 41 363.084 39.5 363.184 38.1C363.584 34.8 363.984 31.5 366.084 28.8C367.084 27.5 367.384 27.4 368.784 28.2C369.284 28.5 369.784 28.8 370.184 29.1C370.484 29.3 370.584 29.5 370.684 29.6Z" fill="black"/>
<path d="M437.184 -293.3C434.084 -290.1 400.184 -274.4 394.484 -273.5C399.184 -278.3 429.084 -292.1 437.184 -293.3Z" fill="black"/>
</g>
<defs>
<clipPath id="clip0">
<rect width="576" height="252" fill="white"/>
</clipPath>
</defs>
</svg>
