<svg width="507" height="63" viewBox="0 0 507 63" fill="none" xmlns="http://www.w3.org/2000/svg">
<path d="M28.422 62.23C44.002 62.23 56.548 50.012 56.548 32.136C56.548 14.342 44.002 2.37 28.422 2.37C12.596 2.37 0.214 14.588 0.214 32.464C0.214 50.258 12.596 62.23 28.422 62.23ZM28.996 60.016C19.812 60.016 14.728 46.568 14.728 30.66C14.728 15.244 19.894 4.584 27.848 4.584C36.95 4.584 42.034 17.95 42.034 33.94C42.034 49.356 36.786 60.016 28.996 60.016ZM100.897 51.406V20.738H100.241L83.6765 23.608V24.838C87.7765 25.33 88.4325 26.97 88.4325 29.84V50.668C88.4325 51.98 88.5145 53.21 88.5965 54.358C87.3665 55.752 85.5625 56.49 83.5945 56.49C79.5765 56.49 77.6085 53.62 77.6085 49.11V20.738H76.9525L60.3885 23.608V24.838C64.4885 25.33 65.1445 26.97 65.1445 29.84V49.766C65.1445 55.916 68.4245 61.984 76.7885 61.984C82.8565 61.984 86.7105 58.95 88.8425 55.67C89.3345 58.54 90.2365 60.508 91.4665 61.738L105.653 59.032V57.802C101.717 57.31 100.897 55.096 100.897 51.406ZM121.205 61.902C125.797 61.902 130.307 59.77 133.177 57.064V55.752C132.029 56.244 130.553 56.572 129.241 56.572C125.305 56.572 123.419 54.44 123.419 49.766V25.166H131.619L132.603 21.64H123.419V11.718H119.483C117.269 17.212 113.087 21.968 106.445 23.69V25.166H110.955V51.57C110.955 58.294 114.973 61.902 121.205 61.902ZM133.515 61H155.163V59.77L154.261 59.606C151.719 59.114 150.571 58.212 150.571 55.014V0.893997H149.915L133.515 4.42V5.568C137.123 5.978 138.107 7.536 138.107 10.652V55.014C138.107 58.212 137.041 59.114 134.417 59.606L133.515 59.77V61ZM167.97 17.622C171.496 17.622 174.284 14.834 174.284 11.554C174.284 8.356 171.496 5.486 167.97 5.486C164.362 5.486 161.656 8.356 161.656 11.554C161.656 14.834 164.362 17.622 167.97 17.622ZM157.146 61H178.794V59.77L177.892 59.606C175.35 59.114 174.202 58.212 174.202 55.014V20.738H173.546L157.146 24.264V25.412C160.754 25.822 161.738 27.38 161.738 30.496V55.014C161.738 58.212 160.59 59.114 158.048 59.606L157.146 59.77V61ZM226.033 59.606C223.327 59.114 222.261 58.212 222.261 55.014V32.464C222.261 26.56 219.391 20.492 210.617 20.492C204.221 20.492 199.711 24.51 197.661 27.708V20.738H197.169L180.769 24.264V25.494C184.541 25.986 185.525 27.544 185.525 30.578V55.014C185.525 58.212 184.459 59.114 181.917 59.606L180.933 59.77V61H202.581V59.77L201.597 59.606C199.219 59.196 197.989 58.212 197.989 55.014V29.02C199.547 27.544 201.761 26.56 203.975 26.56C208.157 26.56 209.797 29.348 209.797 33.776V55.014C209.797 58.212 208.813 59.196 206.517 59.606L205.451 59.77V61H226.935V59.77L226.033 59.606ZM262.289 46.732C259.583 50.996 256.549 52.882 251.711 52.882C245.233 52.882 239.821 48.29 239.657 37.63H262.617C262.699 36.728 262.699 36.4 262.699 35.99C262.699 28.61 258.107 20.492 246.955 20.492C237.197 20.492 228.587 29.348 228.587 42.304C228.587 53.948 236.131 62.148 246.791 62.148C254.417 62.148 260.403 57.72 263.355 47.224L262.289 46.732ZM246.381 22.46C249.825 22.46 251.711 27.872 252.039 35.662H239.657C239.985 27.298 242.527 22.46 246.381 22.46ZM299.714 62.23C312.014 62.23 321.116 54.194 321.116 43.37C321.116 35.006 316.442 30.168 305.618 25.986L301.764 24.51C293.892 21.476 290.038 19.098 290.038 13.44C290.038 8.438 294.302 4.584 300.206 4.584C308.488 4.584 312.588 10.734 315.048 20.656H316.77L317.098 5.568C313.818 4.174 308.16 2.37 300.698 2.37C289.218 2.37 280.116 9.75 280.116 19.918C280.116 27.79 284.626 32.218 294.384 36.236L297.992 37.712C305.29 40.664 311.276 43.288 311.276 49.93C311.276 55.916 307.012 60.016 300.206 60.016C289.546 60.016 284.544 50.832 282.166 40.09H280.444L279.952 57.31C283.56 59.524 291.514 62.23 299.714 62.23ZM337.816 61.902C342.408 61.902 346.918 59.77 349.788 57.064V55.752C348.64 56.244 347.164 56.572 345.852 56.572C341.916 56.572 340.03 54.44 340.03 49.766V25.166H348.23L349.214 21.64H340.03V11.718H336.094C333.88 17.212 329.698 21.968 323.056 23.69V25.166H327.566V51.57C327.566 58.294 331.584 61.902 337.816 61.902ZM390.539 51.406V20.738H389.883L373.319 23.608V24.838C377.419 25.33 378.075 26.97 378.075 29.84V50.668C378.075 51.98 378.157 53.21 378.239 54.358C377.009 55.752 375.205 56.49 373.237 56.49C369.219 56.49 367.251 53.62 367.251 49.11V20.738H366.595L350.031 23.608V24.838C354.131 25.33 354.787 26.97 354.787 29.84V49.766C354.787 55.916 358.067 61.984 366.431 61.984C372.499 61.984 376.353 58.95 378.485 55.67C378.977 58.54 379.879 60.508 381.109 61.738L395.295 59.032V57.802C391.359 57.31 390.539 55.096 390.539 51.406ZM435.854 51.488V0.893997H435.198L418.552 4.42V5.568C422.324 5.978 423.39 7.536 423.39 10.652V21.066C421.914 20.82 420.356 20.656 418.798 20.656C405.35 20.656 397.396 29.758 397.396 42.386C397.396 54.604 403.874 61.984 412.238 61.984C417.978 61.984 421.996 58.786 423.8 56.08C424.292 58.376 425.194 60.344 426.424 61.738L440.528 59.032V57.802C436.756 57.392 435.854 55.096 435.854 51.488ZM418.798 56.654C413.878 56.654 410.68 51.324 410.68 40.828C410.68 28.528 413.632 22.542 418.552 22.542C421.012 22.542 422.488 23.936 423.39 25.658V52.472C423.39 53.292 423.472 54.03 423.554 54.768C422.488 55.834 421.094 56.654 418.798 56.654ZM453.288 17.622C456.814 17.622 459.602 14.834 459.602 11.554C459.602 8.356 456.814 5.486 453.288 5.486C449.68 5.486 446.974 8.356 446.974 11.554C446.974 14.834 449.68 17.622 453.288 17.622ZM442.464 61H464.112V59.77L463.21 59.606C460.668 59.114 459.52 58.212 459.52 55.014V20.738H458.864L442.464 24.264V25.412C446.072 25.822 447.056 27.38 447.056 30.496V55.014C447.056 58.212 445.908 59.114 443.366 59.606L442.464 59.77V61ZM486.199 62.148C497.023 62.148 506.617 53.456 506.617 41.156C506.617 28.856 497.023 20.492 486.199 20.492C475.129 20.492 465.699 29.184 465.699 41.484C465.699 53.784 475.129 62.148 486.199 62.148ZM486.691 60.18C482.017 60.18 479.147 50.094 479.147 40.008C479.147 29.922 481.525 22.46 485.707 22.46C489.971 22.46 493.087 31.398 493.087 42.632C493.087 52.718 490.709 60.18 486.691 60.18Z" fill="black"/>
</svg>
